<svg width="100" height="100" viewBox="0 0 100 100" fill="none" xmlns="http://www.w3.org/2000/svg">
<g clip-path="url(#clip0_2470_129)">
<mask id="mask0_2470_129" style="mask-type:luminance" maskUnits="userSpaceOnUse" x="0" y="0" width="100" height="100">
<path d="M100 0H0V100H100V0Z" fill="white"/>
</mask>
<g mask="url(#mask0_2470_129)">
<mask id="mask1_2470_129" style="mask-type:luminance" maskUnits="userSpaceOnUse" x="0" y="0" width="100" height="100">
<path d="M99.3403 0H0V99.305H99.3403V0Z" fill="white"/>
</mask>
<g mask="url(#mask1_2470_129)">
<path d="M67.8845 99.264C66.8092 99.2531 65.747 99.0253 64.7611 98.5959C63.7752 98.1665 62.8856 97.543 62.1449 96.764C60.7345 95.3211 59.8627 93.4379 59.6764 91.4287C59.4449 89.4615 59.9333 87.4757 61.0518 85.8413C62.2451 84.2211 62.3009 83.3728 61.3883 80.7989L60.3805 77.774H49.8763C46.8859 77.7248 43.8949 77.8373 40.9166 78.1105C39.2603 78.3449 38.6827 78.7639 38.1953 79.4547C37.4718 80.4141 37.087 81.5865 37.1022 82.7881C37.1174 83.9897 37.5314 85.1531 38.279 86.0934C40.7328 89.3959 39.3572 95.0119 35.3378 98.1102C33.9918 98.8892 32.4454 99.2531 30.8933 99.1547C29.5023 99.206 28.1188 98.9337 26.8508 98.3598C24.7348 97.1741 22.7328 93.1304 22.7328 90.0405C22.8883 88.1741 23.653 86.411 24.9092 85.022C26.247 83.4017 27.8277 82.3958 29.0353 82.3958C30.3279 82.3146 31.5576 81.8086 32.5329 80.9564C33.613 80.1248 34.4152 78.9848 34.8324 77.687C35.2525 76.25 34.4443 74.9489 31.2183 71.8884C28.863 69.6047 26.8033 67.0361 25.0848 64.2416C23.9638 62.171 22.4554 60.2845 21.7235 60.04C21.4352 59.9572 21.137 59.9155 20.8372 59.9168C19.856 59.9683 18.9122 60.3114 18.1274 60.9025C17.3425 61.4936 16.7523 62.3059 16.4319 63.2347C15.7703 64.792 14.8299 66.2157 13.6582 67.4364C12.9703 68.2071 12.1283 68.8247 11.1864 69.2492C10.2446 69.6736 9.22413 69.8951 8.19106 69.9C7.13939 69.8867 6.10115 69.6656 5.13499 69.25C4.16883 68.8344 3.2944 68.2326 2.56146 67.4783C0.915361 65.7805 0.00888564 63.5 0.0404528 61.1355C0.000576819 59.9986 0.186162 58.8651 0.586999 57.8005C0.987841 56.7358 1.59458 55.7614 2.37435 54.9331C3.09746 54.2072 3.95992 53.6333 4.9085 53.2459C5.85706 52.8585 6.87271 52.665 7.89727 52.6772C10.5688 52.7589 13.1083 53.8597 14.9941 55.7537C16.0135 56.7176 16.6571 57.0594 17.4512 57.0594C18.0509 57.0313 18.6417 56.9039 19.1991 56.681C21.2915 55.9247 21.469 55.4942 21.8892 50.0421C22.1895 46.5 22.8944 43.0034 23.99 39.6216L25.6707 35.168L23.6535 33.5718C22.9588 32.8903 22.0481 32.4718 21.0784 32.3884C20.8062 32.3845 20.5373 32.4441 20.2922 32.5625C19.1804 33.0281 17.9833 33.2546 16.7783 33.2272C14.3102 33.2272 11.8948 32.4392 10.6251 31.219C9.28876 30.0189 8.37963 28.4166 8.03514 26.6538C7.7563 25.0582 7.93125 23.4165 8.54229 21.9163C9.92884 18.3978 13.22 15.9412 16.5435 15.9412C18.4019 15.968 20.1849 16.6795 21.5511 17.9394C23.3998 19.5361 23.905 20.7966 24.2411 24.6621C24.4873 27.7495 25.1545 29.8721 26.173 30.7964C26.7914 31.3779 27.1655 31.6557 27.6025 31.6557C28.2588 31.6557 29.0205 31.0514 30.8785 29.4539C34.4306 26.3447 41.1495 22.9634 45.2495 22.2273C46.7411 21.9491 47.5382 21.5139 47.7558 20.8593C48.0878 19.8593 47.169 18.3072 44.5783 15.5038C41.8144 12.4921 41.2169 11.2231 41.2169 8.36094C41.1977 7.26072 41.3971 6.16703 41.8045 5.14484C42.2119 4.12267 42.8177 3.19247 43.5886 2.40719C44.3893 1.63673 45.3342 1.03089 46.3689 0.625578C47.4035 0.220271 48.5093 0.0229927 49.6203 0.0445648C52.427 0.0445648 53.6535 0.549095 55.5863 2.48187C56.3678 3.18593 56.994 4.04382 57.4278 5.00205C57.8617 5.96029 58.0939 6.99813 58.1073 8.04991C58.0645 10.7247 56.4518 13.572 53.3165 16.5148C51.4913 18.214 50.7834 19.3812 51.0187 20.2963C51.2708 21.2543 52.5717 21.9777 55.2515 22.65C60.1544 23.8793 64.7021 26.2384 68.5295 29.54C70.1925 31.0526 70.9338 31.6745 71.5725 31.6745C72.0599 31.6745 72.49 31.3101 73.1514 30.716C74.3925 29.6437 74.832 28.1696 74.832 25.0856C74.832 21.6763 75.2425 20.56 77.2693 18.4474C78.0034 17.6906 78.8805 17.0866 79.8494 16.6707C80.8183 16.2549 81.8594 16.0348 82.9137 16.0241C86.4427 16.0241 89.5393 18.4617 90.7982 22.2306C91.2444 23.9621 91.2141 25.7817 90.7116 27.4974C90.2083 29.2132 89.2511 30.7612 87.941 31.9782C87.0167 32.7068 84.8839 33.1779 82.4968 33.1779C81.183 33.202 79.8731 33.0238 78.6135 32.6494C78.3077 32.5337 77.982 32.4745 77.655 32.4747C76.6937 32.5236 75.7819 32.9147 75.0831 33.5768L73.1514 35.1729L74.9157 39.1226C75.8779 41.205 76.8343 45.7284 77.1889 49.8788C77.7772 56.567 77.857 56.7695 80.1301 57.0216C80.2975 57.0397 80.4655 57.0489 80.634 57.0487C82.2668 56.9585 83.8143 56.2926 85.0032 55.1694C86.7024 53.7183 88.8587 52.9116 91.094 52.8905C92.1839 52.8766 93.2654 53.0869 94.2713 53.5085C95.2772 53.93 96.1856 54.5537 96.9402 55.341C98.1578 56.6037 98.9562 58.2126 99.2251 59.9464C99.4654 61.5671 99.2494 63.2225 98.599 64.7267C97.9906 66.1736 96.9914 67.4229 95.7141 68.335C94.3503 69.2931 92.7209 69.8022 91.0545 69.7908C89.2847 69.8285 87.5545 69.2705 86.1402 68.2062C84.6024 66.9337 83.4275 65.2777 82.7348 63.4054C81.8894 61.4609 80.8521 60.5412 79.037 60.1278C78.2446 59.9398 77.4362 59.8269 76.6226 59.7913C76.3604 59.7913 76.2072 59.8204 76.1811 59.8758C76.1416 59.9145 75.8873 60.3487 75.5033 61.0067L75.4015 61.1749C74.9948 61.8715 74.3792 62.9258 73.7405 63.9889C72.0814 66.6773 70.0757 69.1356 67.7745 71.3C66.5088 72.4047 65.434 73.7112 64.5937 75.166C64.0076 76.1352 63.8009 77.2869 64.0143 78.3994C64.4496 80.1708 66.3078 81.5144 69.5372 82.3934C71.6361 82.8531 73.5261 83.9895 74.9157 85.6287C75.5014 86.406 75.9221 87.2951 76.1532 88.2413C76.3844 89.1875 76.4209 90.1707 76.2599 91.1304C76.0034 93.401 74.9548 95.5085 73.2991 97.0825C71.8335 98.4665 69.8999 99.2463 67.8845 99.264ZM67.8335 85.7522C67.1547 85.7547 66.4871 85.9253 65.8903 86.2489C65.2935 86.5724 64.7859 87.0388 64.4131 87.606C63.6924 88.5337 63.2289 89.6354 63.0689 90.7993C63.0689 93.1085 65.619 95.8413 67.7745 95.8413C68.5599 95.8236 69.3315 95.6287 70.0313 95.2715C70.7309 94.9144 71.3404 94.4043 71.8153 93.7783C72.236 93.2799 72.5377 92.6917 72.6967 92.0589C72.8557 91.4262 72.8677 90.7665 72.7328 90.1278C72.1513 87.5531 70.1361 85.7522 67.8335 85.7522ZM30.9786 85.7724C29.6688 85.7295 28.3954 86.2068 27.4367 87.101C26.7716 87.8136 26.3335 88.7085 26.1811 89.6715C26.0287 90.6346 26.1692 91.6211 26.5816 92.5043C26.9105 93.443 27.5116 94.2606 28.3083 94.8556C29.1049 95.4505 30.0595 95.7942 31.0525 95.843C32.227 95.8833 33.3813 95.5278 34.3301 94.8346C35.5788 93.5858 35.6706 89.5321 34.4992 87.3556C34.0935 86.8169 33.5571 86.3884 32.9416 86.1119C32.3262 85.8354 31.6512 85.7178 30.9786 85.7724ZM49.0935 56.5982C46.9922 56.6073 44.9246 57.1262 43.0683 58.1106C39.5279 59.882 35.3378 65.4394 35.3378 68.3629C35.3378 69.9982 38.8428 72.5244 43.152 73.9933C45.2267 74.6484 47.3888 74.9851 49.5645 74.9912C52.9038 74.999 56.1911 74.1631 59.1217 72.5621C63.136 70.3403 63.4841 69.9304 63.2396 67.6884C62.9035 64.2715 61.1512 61.8131 57.1898 59.2013C54.8073 57.5536 51.9898 56.6481 49.0935 56.5982ZM90.362 56.2667C89.8536 56.254 89.3461 56.3429 88.873 56.5293C88.3999 56.7156 87.9696 56.9956 87.6057 57.3515C86.8562 58.3858 86.5099 59.6588 86.6343 60.9304C86.6604 62.7236 87.1746 64.3542 87.9444 65.0836C88.3377 65.4905 88.8099 65.8136 89.3309 66.0347C89.852 66.2559 90.4116 66.37 90.9772 66.3704C92.2402 66.3511 93.4452 65.8359 94.3318 64.9359C94.8175 64.4468 95.2015 63.8666 95.4612 63.2282C95.7209 62.5897 95.852 61.9059 95.8452 61.2168C95.8444 58.3848 92.9503 56.2667 90.362 56.2667ZM7.7315 56.1305C7.20014 56.1311 6.67401 56.2322 6.18049 56.4291C4.14351 57.198 3.36018 59.6039 3.49043 61.6484C3.63329 63.9417 4.82283 65.6872 6.51695 66.0922C7.00508 66.2343 7.50873 66.3097 8.01708 66.3154C9.92884 66.3154 11.3471 65.109 12.2303 62.7309C12.493 61.9847 12.5698 61.1863 12.4551 60.4035C12.3405 59.6207 12.0378 58.8773 11.5721 58.2379C11.147 57.6055 10.5758 57.0846 9.90783 56.718C9.23985 56.3515 8.49321 56.1493 7.7315 56.1305ZM49.5415 36.5992C53.2785 36.5992 54.1795 36.9506 56.4316 39.2884C58.6686 41.4422 59.1217 42.5463 59.1217 45.8429C59.1217 47.9345 58.7018 50.1288 58.1976 50.633C57.8663 50.921 57.6067 51.2826 57.441 51.6891C57.2753 52.0957 57.2068 52.5359 57.2424 52.9734C57.3751 54.1112 58.3141 55.2483 59.9604 56.2634C61.9977 57.7787 63.7356 59.659 65.0861 61.8093C66.3567 63.7975 67.7998 65.3544 68.3687 65.3544C68.3972 65.355 68.4252 65.351 68.4524 65.3421C68.9843 65.1615 70.3583 63.1184 71.3935 60.9722C74.1438 55.1136 74.5167 48.4168 72.4325 42.2895C70.3483 36.1622 65.9702 31.0819 60.218 28.1154C57.0819 26.6247 54.8697 26.1697 50.7478 26.1697C50.3983 26.1697 50.0241 26.1694 49.6334 26.1795C46.2115 26.1795 42.251 26.5952 40.8098 27.1044C37.0793 28.7134 33.7283 31.0897 30.977 34.079C29.5167 36.0077 28.2778 38.0937 27.2808 40.2979C25.4522 44.1214 25.174 45.6298 25.4311 50.3819C25.6243 53.8603 26.4112 57.2794 27.7584 60.4921C28.9601 63.2173 30.3696 64.8457 31.5284 64.8457C32.2847 64.8457 32.9071 64.1447 33.3306 62.8187C33.5785 61.901 35.7685 59.2852 38.1214 57.1046C42.1954 53.1147 42.2449 52.9997 40.8936 50.9694C38.5978 47.4014 39.1514 43.2977 42.4068 39.7094C45.043 36.891 45.7096 36.5975 49.5415 36.5975V36.5992ZM49.5514 39.6093C48.5272 39.6579 47.5354 39.9826 46.6808 40.5489C44.3715 41.8321 43.7396 42.9343 43.7396 45.6747C43.7396 49.8276 46.2081 52.7297 49.7434 52.7297C50.241 52.7271 50.7367 52.6705 51.2222 52.5615C52.2754 52.2621 53.2218 51.6689 53.95 50.8512C54.6782 50.0336 55.1594 49.0252 55.3352 47.9446C55.6563 46.7594 55.6361 45.5078 55.2794 44.3329C54.9228 43.158 54.2437 42.1073 53.3181 41.3006C51.8576 40.1326 50.6951 39.6093 49.5514 39.6093ZM82.7446 19.4363C82.1516 19.4427 81.5674 19.5748 81.0295 19.8245C80.4915 20.0741 80.0123 20.4352 79.6246 20.8839C78.9378 21.6222 78.483 22.5459 78.3165 23.5403C78.1499 24.5347 78.2788 25.5564 78.6874 26.4782C79.0829 27.3736 79.7333 28.1328 80.5568 28.662C81.3803 29.1911 82.3403 29.467 83.3191 29.4547C86.1309 29.4547 87.4368 27.9866 87.4368 24.8328C87.4402 21.5009 85.0024 19.4363 82.7446 19.4363ZM16.1759 19.3699C15.2583 19.3699 13.6502 20.3905 12.7309 21.5544C10.6124 24.267 10.546 25.168 12.3107 27.605C12.7485 28.1858 13.3193 28.6538 13.975 28.9689C14.6305 29.2839 15.352 29.4371 16.0791 29.4161C16.7403 29.4275 17.3955 29.3021 18.0059 29.0477C18.6163 28.7933 19.1684 28.4157 19.6259 27.9381C20.313 27.1921 20.7634 26.2596 20.9225 25.2579C21.0815 24.2563 20.9425 23.2299 20.5204 22.3078C20.1655 21.4452 19.563 20.7063 18.7904 20.1839C18.0178 19.6615 17.1085 19.3779 16.1759 19.3699ZM49.7155 3.49372C48.5172 3.563 47.3694 4.00024 46.4296 4.74684C45.8923 5.14686 45.451 5.66286 45.1396 6.256C44.8282 6.84913 44.6549 7.50436 44.6308 8.17384C44.573 8.88928 44.6745 9.60886 44.9278 10.2805C45.1813 10.952 45.5804 11.559 46.0965 12.0579C46.6831 12.6323 47.4035 13.0521 48.1924 13.2799C48.9812 13.5076 49.814 13.5361 50.6166 13.3627C51.4191 13.1894 52.1651 12.82 52.7896 12.2868C53.4141 11.7538 53.8972 11.0737 54.1946 10.3084C54.4323 9.56365 54.5009 8.77516 54.3948 8.00068C54.2887 7.22621 54.01 6.4858 53.5807 5.83254C53.1514 5.17928 52.5819 4.62958 51.9131 4.22491C51.2443 3.82024 50.4934 3.57089 49.7155 3.49372Z" fill="white" stroke="white"/>
</g>
</g>
</g>
<defs>
<clipPath id="clip0_2470_129">
<rect width="100" height="100" fill="white"/>
</clipPath>
</defs>
</svg>
