<svg width="100" height="100" viewBox="0 0 100 100" fill="none" xmlns="http://www.w3.org/2000/svg">
<g clip-path="url(#clip0_2470_151)">
<mask id="mask0_2470_151" style="mask-type:luminance" maskUnits="userSpaceOnUse" x="-1" y="4" width="101" height="92">
<path d="M99.1612 4H-0.5V96H99.1612V4Z" fill="white"/>
</mask>
<g mask="url(#mask0_2470_151)">
<path d="M89.8131 41.6636C89.145 41.7765 88.5484 42.1511 88.1553 42.705C87.7622 43.2588 87.6045 43.9466 87.7165 44.6171C88.0674 46.7377 88.2441 48.8836 88.245 51.0331C88.2527 60.8309 84.5173 70.2593 77.8076 77.3807C73.7897 71.115 67.7841 66.3897 60.7598 63.9675C64.2624 61.6277 66.9214 58.2197 68.3435 54.2472C69.7656 50.2748 69.8755 45.9488 68.6568 41.9089C67.4381 37.8691 64.9556 34.3296 61.5763 31.8141C58.197 29.2986 54.1002 27.9404 49.8919 27.9404C45.6834 27.9404 41.5867 29.2986 38.2074 31.8141C34.8282 34.3296 32.3456 37.8691 31.127 41.9089C29.9083 45.9488 30.0181 50.2748 31.4402 54.2472C32.8624 58.2197 35.5214 61.6277 39.024 63.9675C31.9996 66.3897 25.994 71.115 21.9761 77.3807C16.8418 71.9164 13.4151 65.064 12.1188 57.6691C10.8225 50.2742 11.7134 42.6605 14.6817 35.7676C17.6499 28.8746 22.5654 23.0041 28.8217 18.8806C35.078 14.7571 42.4013 12.5609 49.8876 12.5632C52.0295 12.5638 54.1677 12.7411 56.2805 13.0933C56.6145 13.1564 56.9577 13.1521 57.29 13.0807C57.6223 13.0093 57.9371 12.8722 58.216 12.6773C58.4948 12.4824 58.7322 12.2338 58.9141 11.9459C59.096 11.658 59.219 11.3366 59.2756 11.0005C59.3322 10.6644 59.3215 10.3204 59.2441 9.98846C59.1666 9.65657 59.024 9.34349 58.8245 9.06754C58.625 8.79157 58.3727 8.55827 58.0822 8.38125C57.7917 8.20424 57.469 8.08707 57.1329 8.03659C49.9037 6.80803 42.4821 7.43333 35.5585 9.85432C28.635 12.2753 22.4346 16.4133 17.534 21.8833C12.6334 27.3534 9.19206 33.9778 7.53001 41.1401C5.86795 48.3024 6.03923 55.7701 8.02791 62.8481C10.0166 69.9262 13.7581 76.3848 18.9042 81.6232C24.0503 86.8614 30.434 90.709 37.4612 92.808C44.4884 94.907 51.9309 95.1893 59.0961 93.6288C66.2614 92.0683 72.9165 88.7154 78.4427 83.882C78.7196 84.4634 79.1586 83.882 79.4399 82.9802C84.7284 78.0644 88.7148 71.9065 91.0398 65.0611C93.3648 58.2158 93.9553 50.8979 92.7588 43.7666C92.6459 43.0961 92.2726 42.4979 91.72 42.1036C91.1683 41.7092 90.4821 41.5509 89.8131 41.6636ZM35.397 47.6135C35.397 44.7392 36.2469 41.9293 37.8391 39.5394C39.4314 37.1494 41.6945 35.2867 44.3423 34.1867C46.9901 33.0868 49.9037 32.799 52.7146 33.3597C55.5255 33.9205 58.1075 35.3046 60.134 37.3371C62.1606 39.3696 63.5407 41.9592 64.0998 44.7783C64.6589 47.5974 64.372 50.5195 63.2752 53.1751C62.1784 55.8306 60.3211 58.1004 57.9382 59.6974C55.5552 61.2942 52.7536 62.1466 49.8876 62.1466C46.0445 62.1466 42.3587 60.6154 39.6412 57.89C36.9237 55.1645 35.397 51.4679 35.397 47.6135ZM25.7821 80.9541C28.2829 76.7834 31.8171 73.3324 36.041 70.9367C40.265 68.541 45.035 67.282 49.8876 67.282C54.7402 67.282 59.5102 68.541 63.7342 70.9367C67.9582 73.3324 71.4923 76.7834 73.9932 80.9541C67.1756 86.4987 58.665 89.5245 49.8876 89.5245C41.1102 89.5245 32.5996 86.4987 25.7821 80.9541Z" fill="white"/>
<path d="M90.775 19.4799C90.6474 19.0714 90.4017 18.7114 90.0698 18.4462C89.7371 18.181 89.3336 18.0231 88.9112 17.9929L79.9402 17.2592L76.4828 8.79263C76.3215 8.39578 76.0473 8.05639 75.6949 7.81754C75.3426 7.57869 74.928 7.45117 74.504 7.45117C74.0799 7.45117 73.6653 7.57869 73.3129 7.81754C72.9606 8.05639 72.6864 8.39578 72.5251 8.79263L69.0677 17.2562L60.0967 17.9929C59.6741 18.0233 59.2703 18.1817 58.9378 18.4474C58.6054 18.7132 58.3596 19.0739 58.2324 19.4828C58.0999 19.8907 58.0898 20.329 58.2032 20.7427C58.3166 21.1564 58.5486 21.5268 58.8698 21.8073L65.719 27.7747L63.6344 36.7008C63.5367 37.1184 63.5636 37.5562 63.7117 37.9584C63.8598 38.3607 64.1226 38.7095 64.4668 38.9605C64.8067 39.2153 65.2148 39.3602 65.6374 39.3764C66.0602 39.3925 66.4779 39.2791 66.8357 39.0509L74.504 34.2813L82.1841 39.0584C82.542 39.2866 82.9597 39.4 83.3823 39.384C83.8051 39.3678 84.2131 39.2228 84.553 38.968C84.8972 38.717 85.1599 38.3682 85.3081 37.966C85.4563 37.5637 85.4832 37.126 85.3854 36.7083L83.3008 27.7822L90.138 21.8073C90.4595 21.5267 90.6923 21.1557 90.8061 20.7413C90.919 20.3271 90.9086 19.8881 90.775 19.4799ZM88.9681 20.4394L81.718 26.7668C81.5943 26.8748 81.5023 27.015 81.4518 27.1723C81.4015 27.3296 81.3946 27.4978 81.4322 27.6587L83.6477 37.1181C83.6671 37.1895 83.6639 37.2652 83.6386 37.3346C83.6131 37.4041 83.5669 37.4638 83.5063 37.5052C83.4513 37.5482 83.3845 37.5728 83.3151 37.5754C83.2457 37.5781 83.1772 37.5589 83.1192 37.5203L74.9715 32.4554C74.8308 32.368 74.669 32.3217 74.504 32.3217C74.3389 32.3217 74.1771 32.368 74.0364 32.4554L65.8887 37.5188C65.8307 37.5574 65.7622 37.5767 65.6928 37.574C65.6234 37.5712 65.5566 37.5467 65.5017 37.5037C65.4397 37.4633 65.3919 37.4041 65.3651 37.3346C65.3384 37.265 65.3341 37.1887 65.3527 37.1165L67.5683 27.6572C67.6058 27.4963 67.599 27.3281 67.5486 27.1708C67.4982 27.0136 67.4061 26.8733 67.2824 26.7653L60.0326 20.438C59.9758 20.3911 59.9348 20.3275 59.9153 20.2559C59.8958 20.1844 59.8988 20.1084 59.9239 20.0387C59.9434 19.97 59.9835 19.9092 60.0387 19.8645C60.094 19.82 60.1616 19.794 60.2322 19.7901L69.7497 19.0128C69.9136 18.9993 70.0708 18.9403 70.2037 18.8422C70.3367 18.7441 70.4403 18.6108 70.5031 18.4569L74.1705 9.47809C74.196 9.41162 74.2408 9.35452 74.299 9.31426C74.3572 9.27401 74.4261 9.25246 74.4965 9.25246C74.567 9.25246 74.6359 9.27401 74.694 9.31426C74.7522 9.35452 74.797 9.41162 74.8226 9.47809L78.4899 18.4569C78.5527 18.6108 78.6563 18.7441 78.7892 18.8422C78.9222 18.9403 79.0793 18.9993 79.2434 19.0128L88.7612 19.7901C88.8311 19.794 88.8992 19.82 88.9543 19.8645C89.0095 19.9092 89.05 19.97 89.069 20.0387C89.0957 20.1079 89.1 20.1836 89.0819 20.2554C89.0638 20.3272 89.0233 20.3915 88.9681 20.4394Z" fill="white" stroke="white"/>
</g>
</g>
<defs>
<clipPath id="clip0_2470_151">
<rect width="100" height="100" fill="white"/>
</clipPath>
</defs>
</svg>
