<svg width="32" height="32" viewBox="0 0 32 32" fill="none" xmlns="http://www.w3.org/2000/svg">
<g clip-path="url(#clip0_4080_2)">
<path d="M19.4299 11.2779L18.3582 12.1822L18.6851 13.5338C18.7088 13.6317 18.703 13.7343 18.6684 13.8289C18.6338 13.9234 18.572 14.0056 18.4907 14.065C18.4085 14.1255 18.3102 14.1602 18.2082 14.1649C18.1063 14.1696 18.0052 14.144 17.9178 14.0914L16.7089 13.3639L15.4999 14.0918C15.4125 14.1445 15.3115 14.1702 15.2095 14.1655C15.1075 14.1608 15.0092 14.126 14.927 14.0654C14.8456 14.0061 14.7836 13.924 14.7489 13.8294C14.7142 13.7348 14.7084 13.6321 14.7322 13.5342L15.0592 12.1826L13.9878 11.2779C13.9102 11.2123 13.8539 11.1251 13.826 11.0274C13.7982 10.9297 13.8001 10.8259 13.8315 10.7293C13.8629 10.6327 13.9223 10.5477 14.0023 10.485C14.0822 10.4223 14.179 10.3848 14.2803 10.3773L15.6913 10.2658L16.2341 8.98032C16.2737 8.88723 16.3399 8.80785 16.4243 8.75205C16.5087 8.69625 16.6077 8.6665 16.7089 8.6665C16.81 8.6665 16.909 8.69625 16.9934 8.75205C17.0778 8.80785 17.144 8.88723 17.1836 8.98032L17.7264 10.2658L19.1374 10.3773C19.2387 10.3848 19.3355 10.4223 19.4154 10.485C19.4954 10.5477 19.5548 10.6327 19.5862 10.7293C19.6176 10.8259 19.6195 10.9297 19.5917 11.0274C19.5638 11.1251 19.5075 11.2123 19.4299 11.2779ZM13.8102 12.3285C13.7818 12.3001 13.7481 12.2776 13.711 12.2622C13.6739 12.2468 13.6341 12.2389 13.594 12.2389C13.5538 12.2389 13.514 12.2468 13.4769 12.2622C13.4399 12.2776 13.4062 12.3001 13.3778 12.3285L11.1452 14.5608C11.0879 14.6181 11.0557 14.6958 11.0557 14.7769C11.0557 14.858 11.0879 14.9357 11.1452 14.9931C11.2025 15.0504 11.2803 15.0826 11.3614 15.0826C11.4425 15.0826 11.5203 15.0504 11.5776 14.9931L13.8102 12.7608C13.8386 12.7324 13.8611 12.6988 13.8765 12.6617C13.8919 12.6246 13.8998 12.5848 13.8998 12.5447C13.8998 12.5045 13.8919 12.4648 13.8765 12.4277C13.8611 12.3906 13.8386 12.3569 13.8102 12.3285ZM13.7911 14.6654L11.7563 16.6994C11.728 16.7278 11.7054 16.7615 11.6901 16.7986C11.6747 16.8357 11.6668 16.8755 11.6668 16.9156C11.6668 16.9557 11.6747 16.9955 11.6901 17.0326C11.7054 17.0697 11.728 17.1034 11.7563 17.1318C11.8137 17.1891 11.8915 17.2213 11.9725 17.2213C12.0127 17.2213 12.0524 17.2134 12.0895 17.198C12.1266 17.1827 12.1603 17.1601 12.1887 17.1318L14.2231 15.0973C14.2779 15.0396 14.3081 14.9627 14.3071 14.883C14.306 14.8033 14.2739 14.7272 14.2176 14.6709C14.1612 14.6145 14.0851 14.5824 14.0054 14.5814C13.9258 14.5804 13.8488 14.6105 13.7911 14.6654ZM16.5794 14.6272L14.5057 16.7002C14.4773 16.7286 14.4548 16.7623 14.4394 16.7994C14.4241 16.8365 14.4162 16.8762 14.4162 16.9164C14.4162 16.9565 14.4241 16.9963 14.4394 17.0333C14.4548 17.0704 14.4773 17.1041 14.5057 17.1325C14.563 17.1899 14.6408 17.2221 14.7219 17.2221C14.762 17.2221 14.8018 17.2142 14.8389 17.1988C14.876 17.1834 14.9097 17.1609 14.9381 17.1325L17.0114 15.0595C17.0687 15.0022 17.1009 14.9245 17.101 14.8435C17.101 14.7625 17.0688 14.6847 17.0116 14.6274C16.9543 14.5701 16.8766 14.5378 16.7955 14.5378C16.7144 14.5378 16.6367 14.5699 16.5794 14.6272Z" fill="white"/>
<path d="M27.2 8.75H24.5V6.91667C24.5 6.67355 24.4052 6.44039 24.2364 6.26849C24.0676 6.09658 23.8387 6 23.6 6H7.4C7.16131 6 6.93239 6.09658 6.7636 6.26849C6.59482 6.44039 6.5 6.67355 6.5 6.91667V8.75H3.8C3.32261 8.75 2.86477 8.94315 2.52721 9.28697C2.18964 9.63079 2 10.0971 2 10.5833V12.4167C2 13.6322 2.47411 14.798 3.31802 15.6576C3.73588 16.0832 4.23196 16.4208 4.77792 16.6511C5.32389 16.8814 5.90905 17 6.5 17H6.91063C7.44078 18.7112 8.45161 20.2267 9.81819 21.3591C11.1848 22.4916 12.8472 23.1914 14.6 23.372V26.1667H11.9C11.6613 26.1667 11.4324 26.2632 11.2636 26.4352C11.0948 26.6071 11 26.8402 11 27.0833C11 27.3264 11.0948 27.5596 11.2636 27.7315C11.4324 27.9034 11.6613 28 11.9 28H19.1C19.3387 28 19.5676 27.9034 19.7364 27.7315C19.9052 27.5596 20 27.3264 20 27.0833C20 26.8402 19.9052 26.6071 19.7364 26.4352C19.5676 26.2632 19.3387 26.1667 19.1 26.1667H16.4V23.3685C19.9932 22.9984 22.9745 20.4306 24.059 17H24.5C25.6935 17 26.8381 16.5171 27.682 15.6576C28.5259 14.798 29 13.6322 29 12.4167V10.5833C29 10.0971 28.8104 9.63079 28.4728 9.28697C28.1352 8.94315 27.6774 8.75 27.2 8.75ZM6.5 15.1667C5.78392 15.1667 5.09716 14.8769 4.59081 14.3612C4.08446 13.8455 3.8 13.146 3.8 12.4167V10.5833H6.5V14.25C6.5 14.5556 6.51462 14.8611 6.54387 15.1667H6.5ZM22.7 14.1469C22.7 18.2169 19.4375 21.5535 15.5 21.5833C13.5904 21.5833 11.7591 20.8107 10.4088 19.4355C9.05857 18.0602 8.3 16.1949 8.3 14.25V7.83333H22.7V14.1469ZM27.2 12.4167C27.2 13.146 26.9155 13.8455 26.4092 14.3612C25.9028 14.8769 25.2161 15.1667 24.5 15.1667H24.4437C24.4807 14.828 24.4995 14.4876 24.5 14.1469V10.5833H27.2V12.4167Z" fill="white"/>
</g>
<defs>
<clipPath id="clip0_4080_2">
<rect width="32" height="32" fill="white"/>
</clipPath>
</defs>
</svg>
