<svg width="100" height="100" viewBox="0 0 100 100" fill="none" xmlns="http://www.w3.org/2000/svg">
<path d="M91.7196 12.2802C91.5096 14.0902 91.3396 15.9102 91.0796 17.7102C90.0096 25.1802 88.1496 32.4102 84.5496 39.1002C82.9596 42.0602 80.9996 44.7502 78.6096 47.1302C75.8496 49.8802 73.0896 52.6402 70.3496 55.4202C70.0796 55.7002 69.8596 56.1302 69.8096 56.5102C69.2896 61.0102 68.8296 65.5202 68.2796 70.0202C68.2096 70.6302 67.8896 71.3202 67.4596 71.7502C63.1996 76.0802 58.8796 80.3602 54.5996 84.6602C54.0596 85.2002 53.4896 85.5802 52.6996 85.3402C51.8996 85.1002 51.6396 84.4702 51.5296 83.7102C51.0996 80.6402 50.6596 77.5702 50.1896 74.5002C50.1496 74.2202 49.9696 73.9302 49.7696 73.7102C49.0096 72.8702 48.2196 72.0502 47.3696 71.1502C47.1196 71.5202 46.9696 71.7202 46.8396 71.9302C45.6896 73.8402 44.5596 75.7502 43.3996 77.6602C42.6696 78.8502 41.5596 79.0002 40.5696 78.0102C34.6896 72.1402 28.8196 66.2702 22.9496 60.3902C21.9396 59.3802 22.0796 58.3102 23.2996 57.5702C25.4096 56.2902 27.5196 55.0302 29.7196 53.7102C28.7896 52.7402 27.9096 51.8102 27.0096 50.9002C26.8996 50.7902 26.6596 50.8002 26.4796 50.7702C23.5696 50.3502 20.6596 49.9302 17.7396 49.5102C17.4496 49.4702 17.1596 49.4302 16.8796 49.3702C15.5996 49.0902 15.1396 47.7502 15.9796 46.7302C16.1096 46.5702 16.2696 46.4202 16.4196 46.2702C20.6396 42.0502 24.8696 37.8302 29.0796 33.6002C29.6796 33.0002 30.3496 32.7202 31.1796 32.6402C35.6396 32.1702 40.0896 31.6802 44.5396 31.1602C44.8996 31.1202 45.2896 30.9002 45.5496 30.6402C48.0596 28.1602 50.5996 25.7102 53.0396 23.1502C57.3096 18.6802 62.4896 15.6602 68.2296 13.5502C74.5596 11.2302 81.1196 9.93023 87.8396 9.39023C88.1296 9.37023 88.4096 9.29023 88.6996 9.24023C89.7096 9.24023 90.7196 9.24023 91.7196 9.24023V12.2602V12.2802ZM55.3996 65.8002C55.6396 65.5702 55.8496 65.3802 56.0596 65.1802C62.5696 58.6702 69.0296 52.1202 75.5996 45.6702C79.8896 41.4702 82.7496 36.4402 84.6996 30.8402C84.7796 30.6102 84.6996 30.2102 84.5296 30.0402C80.0096 25.4802 75.4696 20.9502 70.9096 16.4202C70.7596 16.2702 70.3796 16.1902 70.1696 16.2602C64.6996 18.1602 59.7396 20.8902 55.6096 25.0602C47.5296 33.2202 39.3796 41.3102 31.2596 49.4402C31.0596 49.6402 30.8696 49.8502 30.7896 49.9302C37.5696 56.7102 44.2896 63.4302 50.9796 70.1202C51.6096 69.4902 52.3296 68.7802 53.2296 67.8902C52.9896 67.7402 52.6996 67.6202 52.4996 67.4202C48.7396 63.6802 44.9896 59.9202 41.2396 56.1702C40.9996 55.9302 40.7496 55.6802 40.5696 55.3902C40.1496 54.7402 40.2696 53.9402 40.7996 53.4302C41.3096 52.9402 42.0996 52.8602 42.7096 53.2502C42.9896 53.4402 43.2496 53.6802 43.4896 53.9202C47.2396 57.6702 50.9896 61.4202 54.7496 65.1702C54.9496 65.3702 55.1596 65.5602 55.3996 65.7902V65.8002ZM26.6796 59.2602C31.7196 64.3002 36.7096 69.2902 41.7096 74.2902C42.7396 72.5702 43.8396 70.7302 44.8496 69.0402C40.4996 64.6902 36.2296 60.4202 31.9196 56.1102C30.1896 57.1502 28.3796 58.2402 26.6796 59.2602ZM41.4496 34.7102C38.0696 35.0902 34.8796 35.4402 31.6996 35.8302C31.4196 35.8602 31.1296 36.0802 30.9196 36.2902C27.6096 39.5802 24.3196 42.8802 21.0196 46.1702C20.8796 46.3102 20.7696 46.4702 20.6196 46.6502C20.7996 46.7102 20.8996 46.7602 20.9996 46.7702C23.2796 47.1002 25.5596 47.4502 27.8396 47.7302C28.1596 47.7702 28.6096 47.5602 28.8496 47.3302C32.8796 43.3402 36.8796 39.3302 40.8896 35.3202C41.0396 35.1702 41.1696 35.0202 41.4496 34.7102ZM66.2496 59.5902C66.0496 59.7302 65.9796 59.7702 65.9296 59.8202C61.7896 63.9602 57.6396 68.0902 53.5196 72.2502C53.3196 72.4502 53.1996 72.8602 53.2396 73.1502C53.4296 74.7502 53.6896 76.3502 53.9196 77.9402C54.0396 78.7302 54.1496 79.5202 54.2696 80.3002C54.3596 80.3402 54.4396 80.3702 54.5296 80.4102C54.6796 80.1902 54.8096 79.9502 54.9896 79.7702C57.8096 76.9302 60.5996 74.0602 63.4896 71.3002C64.6396 70.2002 65.3196 69.0802 65.4196 67.4402C65.5696 64.8602 65.9496 62.2902 66.2496 59.5902ZM74.3196 14.9602C78.2296 18.8702 82.1296 22.7702 86.0096 26.6502C87.2296 22.1402 88.0596 17.4402 88.4196 12.5602C83.5196 12.9202 78.8096 13.7602 74.3296 14.9702L74.3196 14.9602Z" fill="white" stroke="white"/>
<path d="M12.1397 90.7401C10.6697 90.7801 9.84969 89.4701 10.4297 88.4401C10.6097 88.1201 10.8797 87.8501 11.1397 87.5901C16.3597 82.3601 21.5897 77.1301 26.8197 71.9001C26.9497 71.7701 27.0797 71.6301 27.2197 71.5101C27.9897 70.8601 28.8797 70.8501 29.4997 71.4701C30.1297 72.1001 30.1097 72.9901 29.4497 73.7501C29.3297 73.8901 29.1897 74.0201 29.0597 74.1501C23.8297 79.3801 18.6097 84.6101 13.3697 89.8301C12.9597 90.2401 12.4197 90.5301 12.1397 90.7301V90.7401Z" fill="white" stroke="white"/>
<path d="M25.6683 68.0006C25.3183 68.5806 25.1483 69.0406 24.8383 69.3606C21.6883 72.5406 18.5183 75.7106 15.3483 78.8606C14.5683 79.6306 13.5983 79.6806 12.9483 79.0306C12.2783 78.3706 12.3083 77.4206 13.0883 76.6306C16.2583 73.4406 19.4483 70.2606 22.6383 67.0706C23.1783 66.5306 23.8583 66.2906 24.5083 66.6806C24.9783 66.9606 25.2683 67.5206 25.6683 67.9906V68.0006Z" fill="white" stroke="white"/>
<path d="M34.44 77.39C34.32 77.59 34.16 78.05 33.84 78.37C30.69 81.55 27.53 84.72 24.35 87.87C23.55 88.67 22.64 88.71 21.96 88.04C21.29 87.38 21.32 86.42 22.1 85.64C25.26 82.46 28.43 79.3 31.59 76.14C32.14 75.59 32.77 75.32 33.53 75.66C34.13 75.94 34.45 76.43 34.44 77.38V77.39Z" fill="white" stroke="white"/>
<path d="M71.5119 39.0109C71.5119 44.2809 67.1919 48.5809 61.9419 48.5509C56.7219 48.5209 52.4219 44.2109 52.4219 39.0109C52.4219 33.7309 56.7019 29.4609 61.9819 29.4609C67.2819 29.4609 71.5219 33.7109 71.5119 39.0109ZM68.3319 38.9509C68.3119 35.4609 65.4719 32.6409 61.9819 32.6509C58.4819 32.6509 55.5619 35.5909 55.6219 39.0409C55.6819 42.5109 58.5619 45.3709 61.9919 45.3709C65.4719 45.3709 68.3619 42.4609 68.3319 38.9609V38.9509Z" fill="white"/>
<path d="M37.3803 51.6301C36.5103 51.6301 35.8203 50.9301 35.8203 50.0601C35.8203 49.2001 36.5403 48.4901 37.4003 48.5001C38.2503 48.5001 38.9803 49.2401 38.9703 50.0801C38.9703 50.9301 38.2403 51.6301 37.3803 51.6301Z" fill="white"/>
</svg>
