<svg width="100" height="100" viewBox="0 0 100 100" fill="none" xmlns="http://www.w3.org/2000/svg">
<mask id="mask0_2470_35" style="mask-type:luminance" maskUnits="userSpaceOnUse" x="3" y="3" width="94" height="94">
<path d="M97 3H3V97H97V3Z" fill="white"/>
</mask>
<g mask="url(#mask0_2470_35)">
<mask id="mask1_2470_35" style="mask-type:luminance" maskUnits="userSpaceOnUse" x="3" y="3" width="94" height="94">
<path d="M96.0372 3H3V96.4667H96.0372V3Z" fill="white"/>
</mask>
<g mask="url(#mask1_2470_35)">
<path d="M69.7386 96.4169C63.4673 96.4169 55.2146 93.6104 46.5033 88.5137C37.4915 83.1849 29.3743 76.4713 22.4487 68.6199C14.8654 59.964 9.16582 51.0759 5.96586 42.9157C2.75601 34.7367 2.15818 27.5438 4.24201 22.1155C4.84064 20.4087 6.78657 17.7459 9.45221 14.9912C11.4819 12.7384 13.8684 10.834 16.5137 9.35193C18.5065 8.4901 19.4256 8.10833 20.3538 8.10833C21.4245 8.20842 22.4696 8.4939 23.442 8.95285C24.9322 9.54159 28.2619 12.158 31.926 15.6202C35.59 19.0824 38.5124 22.3702 39.3703 23.9979C41.8558 28.7662 41.1312 32.333 36.6994 37.1577C33.6845 40.3685 32.84 41.9913 33.3348 43.5893C34.3242 46.6072 39.849 52.7058 44.2808 57.011C46.6433 59.3327 49.1351 61.5181 51.7444 63.5584C54.139 65.385 55.884 66.35 56.7923 66.35C57.5978 66.35 59.771 64.7534 61.6392 62.7883C63.2621 60.9638 65.2084 59.4544 67.3789 58.3357C67.9163 58.1331 68.4859 58.0327 69.0602 58.0391C72.8113 58.0391 78.3294 61.6447 84.2 67.9338C86.0564 69.7456 87.7256 71.7395 89.1821 73.8861C89.9473 75.1642 90.3143 76.6416 90.2353 78.129C90.1652 80.0677 89.6336 81.9619 88.6854 83.6543C87.6115 85.6726 86.2599 87.5302 84.6696 89.1727C83.0238 90.9042 81.1598 92.416 79.1269 93.6708C77.256 94.8589 75.184 95.6955 73.0124 96.1386C71.932 96.3329 70.8362 96.4256 69.7386 96.4169ZM21.3239 14.594C20.6972 14.5891 20.0737 14.6892 19.4803 14.8907C18.3918 15.2865 15.5526 17.7295 13.1472 20.3328L8.8937 24.9835L9.28794 31.5136C10.3764 50.1929 32.7388 77.0298 56.1893 87.8151C60.1088 89.7118 64.3834 90.7625 68.7356 90.8985C71.1949 90.9825 73.6309 90.3944 75.7817 89.1988C80.3946 86.2927 84.2927 81.5343 84.2927 78.8093C84.2927 77.6763 80.945 73.5928 77.8361 70.2771C74.6124 66.8416 70.8615 63.3768 69.7443 63.3768C69.1121 63.3768 66.4779 65.4547 64.1031 67.8294C61.0635 70.7365 58.9669 72.312 56.5971 72.312C53.5535 72.312 50.0721 69.7691 43.4209 64.0677C39.885 60.9964 36.6493 57.5975 33.7542 53.9159C31.311 51.0096 29.3019 47.7641 27.7903 44.2811L26.5032 40.6199L31.1549 35.8706C33.677 33.3544 35.8046 30.3636 35.8046 29.3395C35.8046 28.4133 32.9212 24.8503 30.4514 22.0798C27.7908 19.0946 24.4355 15.7158 22.9414 14.8926C22.4305 14.6761 21.8785 14.5749 21.3239 14.594ZM76.9741 47.3616C75.8748 47.3616 74.708 45.7778 72.8171 41.7021C69.6766 34.6423 63.451 28.4588 57.6794 26.6629C54.5428 25.7289 52.7092 24.6392 52.0729 23.335C51.9157 23.0054 51.8309 22.646 51.8256 22.2808C51.8203 21.9156 51.8944 21.5538 52.0421 21.2198C52.2934 20.5381 53.052 20.1762 54.2394 20.1762C56.2589 20.1762 59.3845 21.181 63.0248 23.0026C71.1385 27.0644 77.9671 35.8863 78.5607 43.0887C78.7636 46.0977 78.4534 47.0523 77.1789 47.3432C77.1109 47.3543 77.043 47.3614 76.9741 47.3616ZM94.3826 46.5528C92.8846 46.5528 92.002 45.5339 91.1224 42.793C85.3983 24.8311 74.6107 13.6123 59.0631 9.44759C53.4181 7.86443 52.6315 7.36997 52.6315 5.39597C52.6315 3.77521 53.423 3.05273 55.1921 3.05273C56.8505 3.05273 59.4789 3.68154 63.7109 5.09352C67.7747 6.52862 71.6399 8.47455 75.2136 10.8835C78.7509 13.1692 81.9695 15.9139 84.7855 19.0457C89.535 24.6857 94.9767 35.9657 95.7683 41.8036C96.1314 44.4692 96.2434 45.6897 95.8011 46.1944C95.5458 46.4932 95.0881 46.5528 94.3826 46.5528Z" fill="white"/>
</g>
</g>
</svg>
