<svg width="100" height="100" viewBox="0 0 100 100" fill="none" xmlns="http://www.w3.org/2000/svg">
<path d="M54.7308 70.5C54.7308 71.4356 54.4533 72.3503 53.9335 73.1283C53.4137 73.9062 52.6748 74.5126 51.8104 74.8706C50.946 75.2287 49.9948 75.3224 49.0771 75.1399C48.1594 74.9573 47.3165 74.5068 46.6549 73.8451C45.9932 73.1835 45.5427 72.3406 45.3601 71.4229C45.1776 70.5052 45.2713 69.554 45.6293 68.6896C45.9874 67.8252 46.5938 67.0863 47.3717 66.5665C48.1497 66.0467 49.0644 65.7692 50 65.7692C51.2547 65.7692 52.458 66.2676 53.3452 67.1548C54.2324 68.042 54.7308 69.2453 54.7308 70.5ZM50 27.9231C41.3033 27.9231 34.2308 34.2899 34.2308 42.1154V43.6923C34.2308 44.5288 34.5631 45.3309 35.1545 45.9224C35.746 46.5139 36.5482 46.8461 37.3846 46.8461C38.2211 46.8461 39.0233 46.5139 39.6147 45.9224C40.2062 45.3309 40.5385 44.5288 40.5385 43.6923V42.1154C40.5385 37.7788 44.7843 34.2308 50 34.2308C55.2157 34.2308 59.4615 37.7788 59.4615 42.1154C59.4615 46.4519 55.2157 50 50 50C49.1636 50 48.3614 50.3323 47.7699 50.9237C47.1784 51.5152 46.8462 52.3174 46.8462 53.1538V56.3077C46.8462 57.1441 47.1784 57.9463 47.7699 58.5378C48.3614 59.1293 49.1636 59.4615 50 59.4615C50.8365 59.4615 51.6387 59.1293 52.2301 58.5378C52.8216 57.9463 53.1539 57.1441 53.1539 56.3077V56.0238C60.3446 54.7032 65.7692 48.9671 65.7692 42.1154C65.7692 34.2899 58.6967 27.9231 50 27.9231ZM91 50C91 58.109 88.5954 66.036 84.0903 72.7784C79.5851 79.5208 73.1818 84.7759 65.69 87.879C58.1983 90.9822 49.9545 91.7942 42.0013 90.2122C34.0481 88.6302 26.7426 84.7253 21.0086 78.9914C15.2747 73.2574 11.3698 65.9519 9.78782 57.9987C8.20583 50.0455 9.01776 41.8017 12.121 34.31C15.2241 26.8182 20.4792 20.4149 27.2216 15.9097C33.964 11.4046 41.891 9 50 9C60.8704 9.01148 71.2922 13.3348 78.9787 21.0213C86.6652 28.7078 90.9885 39.1296 91 50ZM84.6923 50C84.6923 43.1385 82.6576 36.4311 78.8456 30.726C75.0336 25.0209 69.6154 20.5743 63.2762 17.9485C56.937 15.3227 49.9615 14.6357 43.2319 15.9743C36.5022 17.3129 30.3207 20.617 25.4688 25.4688C20.617 30.3206 17.3129 36.5022 15.9743 43.2319C14.6357 49.9615 15.3227 56.937 17.9485 63.2762C20.5743 69.6154 25.0209 75.0335 30.726 78.8456C36.4311 82.6576 43.1385 84.6923 50 84.6923C59.1978 84.6819 68.0158 81.0234 74.5196 74.5196C81.0235 68.0158 84.6819 59.1978 84.6923 50Z" fill="white"/>
</svg>
