<svg width="100" height="100" viewBox="0 0 100 100" fill="none" xmlns="http://www.w3.org/2000/svg">
<g clip-path="url(#clip0_2470_99)">
<mask id="mask0_2470_99" style="mask-type:luminance" maskUnits="userSpaceOnUse" x="-1" y="-1" width="102" height="102">
<path d="M100 0H0V100H100V0Z" fill="white" stroke="white"/>
</mask>
<g mask="url(#mask0_2470_99)">
<mask id="mask1_2470_99" style="mask-type:luminance" maskUnits="userSpaceOnUse" x="-1" y="-1" width="101" height="102">
<path d="M99.3217 0H0V99.8194H99.3217V0Z" fill="white" stroke="white"/>
</mask>
<g mask="url(#mask1_2470_99)">
<path d="M50.7816 97C34.1899 97 15.8642 96.5963 14.8441 95.7112C13.6021 94.6627 13.4315 92.1716 13.4315 75.1773C13.4315 64.2779 13.1691 54.9326 12.9313 53.8578C12.5156 52.4598 11.7684 51.9354 10.1888 51.9354C8.20246 51.9637 6.22864 51.6016 4.36916 50.867C2.99247 50.3826 1.79984 49.4468 0.965715 48.1979C0.678659 47.7278 0.517276 47.1845 0.501314 46.6262C0.485352 46.0678 0.6151 45.5153 0.874783 45.028C1.38774 44.1376 7.33192 38.5462 13.5938 33.058C47.5255 3.56043 48.1931 3 49.3072 3H49.4014H49.507C50.7458 3.35966 51.9248 3.92009 52.9996 4.66051C55.7748 6.46222 82.4297 29.5053 92.2396 38.7375C97.3658 43.4559 99.5083 45.6941 99.5 47.3796C99.495 48.2918 98.854 49.0549 97.8938 49.919C96.2535 51.3861 94.6306 51.9285 91.907 51.9285C88.6239 51.9285 88.0802 52.2043 87.4193 54.2C86.9437 55.3577 86.5879 64.5231 86.5879 75.5203C86.5879 85.0164 86.5871 89.7828 86.3601 92.3393C86.1265 94.9432 85.6426 95.2446 84.7622 95.7916C83.3083 96.6287 66.6492 97 50.7816 97ZM43.3398 62.465C44.6825 62.465 46.2137 62.4998 47.987 62.5409H48.0812L48.3865 62.5486C49.0408 62.5643 49.7167 62.5789 50.4292 62.5938C58.925 62.7685 63.5646 63.2098 64.2297 63.9044C64.8416 64.5484 65.3213 70.0067 65.4767 78.1467C65.6264 84.7873 65.8031 91.5966 65.9769 91.6901C66.3926 92.0728 72.1605 92.3813 76.6549 92.3813C78.0614 92.4669 79.4724 92.3821 80.8605 92.1279C81.4807 91.6613 81.9526 83.9636 82.1904 70.4534L82.6888 49.483L84.6841 48.5214C86.5039 47.8694 88.4161 47.5448 90.3382 47.5605C92.4358 47.5605 94.0794 47.2107 94.0794 46.7738C94.0794 46.1858 82.8562 36.1547 72.4233 27.0824C61.9904 18.01 50.4501 8.24262 49.7651 8.24262C49.179 8.24262 42.7462 13.322 35.7178 19.3397C28.612 25.5076 19.0724 33.6492 14.016 37.9508C8.66446 42.511 5.20215 45.6663 5.20215 45.9896C5.19546 46.034 5.20546 46.0789 5.22975 46.1159C5.45256 46.4654 6.76282 46.9025 8.27759 47.1262C10.0085 47.398 12.7679 47.9325 14.2644 48.2619L17.1742 48.8738L17.4227 70.456L17.5899 92.1305H34.2174V79.0239C34.2174 78.4565 34.2174 77.9088 34.2174 77.3805C34.2174 77.1428 34.2174 76.908 34.2174 76.6765C34.2008 69.4993 34.1932 65.8977 35.8867 64.1152C37.1945 62.7285 39.5163 62.465 43.3398 62.465ZM39.3713 66.7868L39.0385 78.3207C38.8722 84.6695 38.8722 90.4712 39.0385 90.9902C39.2804 91.8404 42.0686 92.1261 50.0947 92.1261H60.8198V66.7868H39.3713Z" fill="white" stroke="white"/>
</g>
</g>
</g>
<defs>
<clipPath id="clip0_2470_99">
<rect width="100" height="100" fill="white"/>
</clipPath>
</defs>
</svg>
