<svg width="100" height="100" viewBox="0 0 100 100" fill="none" xmlns="http://www.w3.org/2000/svg">
<g clip-path="url(#clip0_2470_109)">
<mask id="mask0_2470_109" style="mask-type:luminance" maskUnits="userSpaceOnUse" x="0" y="0" width="100" height="100">
<path d="M100 0H0V100H100V0Z" fill="white"/>
</mask>
<g mask="url(#mask0_2470_109)">
<mask id="mask1_2470_109" style="mask-type:luminance" maskUnits="userSpaceOnUse" x="0" y="0" width="100" height="100">
<path d="M99.438 0H0V99.7753H99.438V0Z" fill="white"/>
</mask>
<g mask="url(#mask1_2470_109)">
<path d="M24.6044 97C23.5648 97 23.0323 96.3922 22.7039 94.8289C22.3755 93.2659 22.2421 90.7339 22.2421 85.7974V77.6739L15.1483 76.9271C8.92995 76.3576 5.87843 75.8498 4.35275 70.5781C2.82181 65.2849 2.88145 55.4192 3.14507 35.3771C3.32637 21.5106 3.51827 14.6489 4.16287 10.6666C4.3107 9.1565 4.80329 7.70753 5.59806 6.44761C6.26814 5.6056 7.14938 4.98421 8.13829 4.65587C11.2913 3.3132 13.9065 3 32.4389 3C37.7175 3 44.438 3.02819 52.8941 3.07021C80.938 3.15518 90.5542 3.49411 92.481 4.47077C93.9323 5.35278 95.0945 6.68887 95.8092 8.29861C96.4476 10.0372 96.8637 21.677 96.9469 40.2316C97.122 67.4371 96.9153 69.785 95.5464 72.0707C94.5681 73.6449 93.2053 74.9044 91.6052 75.7126C90.2036 76.2728 81.2316 76.6463 69.2714 76.6463H49.3908L45.1863 80.568C41.7583 83.8239 37.0869 87.8624 32.6938 91.3723C28.2858 94.897 25.263 97 24.6044 97ZM54.0317 8.56304C38.6961 8.56304 21.0239 8.74062 16.1096 9.13932L9.54097 9.69918L9.10306 18.5694C8.84031 23.4303 8.84031 37.0438 9.10306 48.9149L9.54097 70.3902L17.3344 70.6702C21.879 70.8662 25.7579 71.4296 26.3561 71.9777C27.1224 72.6117 27.4953 75.3282 27.4953 80.2872C27.4953 84.6308 27.7816 87.6638 28.195 87.6638C28.5321 87.6638 31.3185 85.2558 34.6764 82.0616C35.2737 81.5247 35.9098 80.9495 36.5255 80.392L37.114 79.8595C39.6145 77.5906 42.4492 75.0194 43.8742 73.9381L47.0268 71.3239L69.0096 70.8571L90.9939 70.3902V9.69918L86.1771 9.04539C83.251 8.71206 67.9231 8.56304 54.0317 8.56304ZM39.3224 49.659C37.9149 49.659 33.6301 49.6594 29.9517 49.566C23.376 49.3793 23.1196 49.29 23.1196 47.1378C23.1196 45.7373 23.7395 44.7104 24.6967 44.5236C27.8421 44.2002 31.0028 44.0859 34.1615 44.1817C42.3128 44.1817 52.0814 44.495 52.458 44.8975C52.8083 45.1776 52.8083 46.4 52.458 47.4187L52.4255 47.5262C51.8763 49.3871 51.8762 49.3872 40.8601 49.6234L39.3224 49.659ZM48.8691 36.3072H23.1196V30.7049H77.4207V32.9462C77.4207 34.1918 76.7798 35.4747 76.0196 35.7473C75.2594 36.02 63.5032 36.3089 48.8691 36.3089V36.3072Z" fill="white" stroke="white"/>
</g>
</g>
</g>
<defs>
<clipPath id="clip0_2470_109">
<rect width="100" height="100" fill="white"/>
</clipPath>
</defs>
</svg>
