<svg width="100" height="100" viewBox="0 0 100 100" fill="none" xmlns="http://www.w3.org/2000/svg">
<path d="M61.5462 62.1282C60.7759 61.719 60.2143 61.2617 59.8613 60.7563C59.3799 60.0663 59.1393 59.272 59.1393 58.3734C59.1393 56.8972 59.8332 55.6897 61.2212 54.7511C62.3043 54.029 63.7364 53.668 65.5175 53.668C67.8763 53.668 69.6173 54.1172 70.7405 55.0158C71.8718 55.9144 72.4374 57.0456 72.4374 58.4095C72.4374 59.2038 72.2127 59.946 71.7635 60.6359C71.4265 61.1494 70.897 61.6468 70.1749 62.1282C71.1296 62.5855 71.8397 63.1913 72.305 63.9454C72.7784 64.6996 73.015 65.534 73.015 66.4486C73.015 67.3311 72.8105 68.1575 72.4013 68.9277C72.0001 69.6899 71.5027 70.2796 70.909 70.6968C70.3233 71.114 69.5892 71.4188 68.7067 71.6114C67.8322 71.812 66.8975 71.9123 65.9026 71.9123C64.0333 71.9123 62.6052 71.6916 61.6184 71.2504C60.6315 70.8091 59.8814 70.1592 59.3679 69.3008C58.8544 68.4423 58.5977 67.4836 58.5977 66.4245C58.5977 65.3896 58.8384 64.5151 59.3198 63.801C59.8012 63.0789 60.5433 62.5213 61.5462 62.1282ZM63.7485 58.6623C63.7485 59.272 63.937 59.7654 64.3141 60.1425C64.6992 60.5116 65.2087 60.6961 65.8425 60.6961C66.4041 60.6961 66.8654 60.5116 67.2264 60.1425C67.5875 59.7735 67.768 59.2961 67.768 58.7104C67.768 58.1007 67.5795 57.6072 67.2024 57.2302C66.8253 56.8451 66.3439 56.6525 65.7582 56.6525C65.1645 56.6525 64.6791 56.8411 64.3021 57.2181C63.933 57.5872 63.7485 58.0686 63.7485 58.6623ZM63.4837 66.256C63.4837 67.0343 63.7204 67.6721 64.1937 68.1695C64.6671 68.6589 65.2087 68.9036 65.8184 68.9036C66.4041 68.9036 66.9296 68.6549 67.3949 68.1575C67.8603 67.652 68.0929 67.0142 68.0929 66.244C68.0929 65.4658 67.8562 64.828 67.3829 64.3305C66.9176 63.8331 66.376 63.5844 65.7582 63.5844C65.1485 63.5844 64.615 63.8251 64.1576 64.3065C63.7084 64.7878 63.4837 65.4377 63.4837 66.256Z" fill="white"/>
<path d="M46.9136 59.0714L42.2803 58.2411C42.6654 56.7648 43.4036 55.6336 44.4947 54.8473C45.5938 54.0611 47.1463 53.668 49.152 53.668C51.4546 53.668 53.1194 54.0972 54.1464 54.9556C55.1733 55.8141 55.6868 56.8932 55.6868 58.1929C55.6868 58.9551 55.4782 59.6451 55.061 60.2629C54.6438 60.8806 54.014 61.4222 53.1716 61.8875C53.8535 62.056 54.375 62.2526 54.736 62.4772C55.3217 62.8382 55.775 63.3156 56.0959 63.9093C56.4249 64.495 56.5894 65.197 56.5894 66.0154C56.5894 67.0423 56.3206 68.0291 55.783 68.9758C55.2455 69.9145 54.4713 70.6406 53.4604 71.1541C52.4495 71.6595 51.1217 71.9123 49.477 71.9123C47.8724 71.9123 46.6047 71.7237 45.6741 71.3466C44.7514 70.9696 43.9892 70.42 43.3875 69.6979C42.7938 68.9678 42.3365 68.0532 42.0156 66.954L46.9136 66.3042C47.1062 67.291 47.403 67.977 47.8042 68.3621C48.2133 68.7392 48.7308 68.9277 49.3566 68.9277C50.0145 68.9277 50.5601 68.687 50.9933 68.2056C51.4346 67.7243 51.6552 67.0824 51.6552 66.2801C51.6552 65.4618 51.4426 64.828 51.0174 64.3787C50.6002 63.9294 50.0306 63.7047 49.3085 63.7047C48.9234 63.7047 48.3939 63.801 47.7199 63.9936L47.9727 60.4915C48.2454 60.5316 48.458 60.5517 48.6105 60.5517C49.2523 60.5517 49.7859 60.3471 50.2111 59.9379C50.6443 59.5288 50.8609 59.0434 50.8609 58.4818C50.8609 57.9442 50.7005 57.515 50.3796 57.1941C50.0586 56.8731 49.6174 56.7127 49.0558 56.7127C48.4781 56.7127 48.0088 56.8892 47.6477 57.2422C47.2867 57.5872 47.042 58.1969 46.9136 59.0714Z" fill="white"/>
<path d="M69.25 20.9115L74.8682 12.9688L76.7052 14.2681C76.8405 15.3994 77.1073 16.4533 77.5056 17.43C77.9905 18.6148 78.659 19.7526 79.5113 20.8432C80.1703 21.6969 81.0428 22.5745 82.1288 23.4763L80.2104 26.1885C78.7628 24.8439 77.6601 23.5594 76.9024 22.3353C76.1446 21.1111 75.5002 19.5661 74.969 17.7004L71.548 22.537L69.25 20.9115Z" fill="white"/>
<path d="M71.3335 84.2059C65.3551 87.6405 58.3125 88.7274 51.5768 87.2548C44.8411 85.7823 38.8945 81.8559 34.8947 76.2399C30.8948 70.6239 29.1282 63.7204 29.9386 56.8734C30.749 50.0264 34.0784 43.7261 39.2788 39.199C44.4791 34.6719 51.1781 32.2421 58.0714 32.3827C64.9647 32.5233 71.559 35.2243 76.5704 39.9596C81.5818 44.695 84.6517 51.1258 85.1822 58.0002C85.7127 64.8745 83.666 71.7002 79.4405 77.1485" stroke="white" stroke-width="3" stroke-miterlimit="10" stroke-linecap="round"/>
<path d="M83.927 36.2866C86.1044 34.6072 87.8177 32.4005 88.9053 29.8749C89.9928 27.3493 90.4187 24.5881 90.1426 21.8522C89.8665 19.1163 88.8975 16.4959 87.3273 14.2385C85.7571 11.9811 83.6373 10.1612 81.1683 8.95072C78.6992 7.7402 75.9624 7.17902 73.2162 7.32016C70.47 7.4613 67.8051 8.3001 65.4732 9.75736C63.1413 11.2146 61.2193 13.2422 59.8887 15.6487C58.5582 18.0552 57.863 20.7611 57.8688 23.5109C57.851 23.8605 57.851 24.2108 57.8688 24.5605C62.7888 24.5966 67.6471 25.6581 72.1338 27.6771C76.6205 29.6961 80.637 32.6283 83.927 36.2866Z" stroke="white" stroke-width="3" stroke-miterlimit="10" stroke-linejoin="round"/>
<path d="M49.3624 25.5383C47.3263 22.7108 44.6645 20.3919 41.5847 18.7625C38.5048 17.1331 35.0902 16.2372 31.6071 16.1447C28.1241 16.0522 24.6667 16.7656 21.5047 18.2293C18.3428 19.6929 15.5617 21.8673 13.3783 24.5827C11.195 27.2981 9.66848 30.4812 8.91785 33.8837C8.16723 37.2862 8.21278 40.816 9.05095 44.198C9.88912 47.58 11.4973 50.7227 13.7499 53.3808C16.0026 56.039 18.8389 58.1409 22.0376 59.5224C22.1697 51.6272 24.9274 44.0009 29.8754 37.8471C34.8233 31.6933 41.6797 27.3625 49.3624 25.5383Z" stroke="white" stroke-width="3" stroke-miterlimit="10" stroke-linejoin="round"/>
<path d="M45.1289 74H70.4994" stroke="white" stroke-width="3" stroke-miterlimit="10" stroke-linecap="round"/>
<path d="M28.933 32.6153L25.3413 31.0071C25.536 30.4862 25.5871 30.0663 25.4944 29.7473C25.4073 29.4317 25.2125 29.1824 24.9099 28.9994C24.3652 28.6701 23.7753 28.689 23.14 29.0562C22.6805 29.3193 22.0059 30.0684 21.1163 31.3036C21.7641 31.1393 22.358 31.0889 22.898 31.1525C23.4414 31.2106 23.9909 31.4076 24.5466 31.7436C25.6249 32.3956 26.3025 33.3313 26.5795 34.5506C26.862 35.7732 26.6457 36.976 25.9305 38.1588C25.4481 38.9565 24.8176 39.5707 24.0388 40.0014C23.2655 40.4354 22.4401 40.62 21.5627 40.5552C20.6941 40.4883 19.7564 40.1505 18.7496 39.5417C17.5392 38.8099 16.6929 38.0165 16.2107 37.1614C15.7285 36.3064 15.5401 35.2946 15.6455 34.1263C15.7598 32.9557 16.2676 31.625 17.1691 30.134C18.4898 27.9499 19.9155 26.6294 21.4464 26.1727C22.9805 25.7104 24.5619 25.9716 26.1903 26.9563C27.1531 27.5384 27.8441 28.1103 28.2634 28.6718C28.6915 29.2312 28.9601 29.8369 29.0693 30.4889C29.1784 31.1409 29.133 31.8497 28.933 32.6153ZM19.4854 34.2618C19.0895 34.9164 18.9435 35.5306 19.0474 36.1043C19.1546 36.6725 19.4476 37.1013 19.9262 37.3907C20.3663 37.6569 20.8364 37.712 21.3364 37.556C21.8364 37.4 22.2877 36.9892 22.6902 36.3235C23.1027 35.6413 23.263 35.0283 23.1711 34.4844C23.0793 33.9405 22.805 33.5305 22.3484 33.2544C21.8807 32.9716 21.3826 32.9071 20.8539 33.0607C20.3308 33.2177 19.8746 33.6181 19.4854 34.2618Z" fill="white"/>
<path d="M81 29L85 23" stroke="white" stroke-width="3" stroke-miterlimit="10" stroke-linecap="round"/>
<path d="M13 41L20 45" stroke="white" stroke-width="3" stroke-miterlimit="10" stroke-linecap="round"/>
<path d="M75.24 83.3003C76.4793 83.3003 77.4839 82.2957 77.4839 81.0564C77.4839 79.8171 76.4793 78.8125 75.24 78.8125C74.0008 78.8125 72.9961 79.8171 72.9961 81.0564C72.9961 82.2957 74.0008 83.3003 75.24 83.3003Z" fill="white"/>
</svg>
