<svg width="101" height="100" viewBox="0 0 101 100" fill="none" xmlns="http://www.w3.org/2000/svg">
<mask id="mask0_2470_158" style="mask-type:luminance" maskUnits="userSpaceOnUse" x="2" y="7" width="96" height="86">
<path d="M96.5327 8H3V91.5945H96.5327V8Z" fill="white" stroke="white"/>
</mask>
<g mask="url(#mask0_2470_158)">
<mask id="mask1_2470_158" style="mask-type:luminance" maskUnits="userSpaceOnUse" x="2" y="7" width="95" height="85">
<path d="M96.2158 7.99609H3V91.2734H96.2158V7.99609Z" fill="white" stroke="white"/>
</mask>
<g mask="url(#mask1_2470_158)">
<path d="M48.7679 91.233C40.1186 91.1955 35.2088 91.1369 32.3786 90.9205C29.6097 90.7095 28.7505 90.3494 27.9643 89.6705C26.9416 88.7447 26.1193 87.6306 25.5454 86.3939C25.2366 85.6049 24.9941 85.1442 23.6209 84.9176C22.3058 84.6965 20.0521 84.6735 15.2255 84.6735C14.6788 84.6735 14.1577 84.6735 13.6586 84.6735H13.1892H12.3483C8.12963 84.6735 6.00158 84.5384 4.72921 83.3048C3.03595 81.6587 3.03596 78.0553 3.04886 70.1614C3.04886 69.4844 3.04886 68.7739 3.04886 68.029C3.04886 59.7828 3.24363 55.0362 4.30715 51.9736C5.37472 48.8986 7.3006 47.5483 10.7073 45.9959C12.5318 45.2389 14.5028 44.8708 16.487 44.9164C18.9616 44.8954 21.4138 45.3703 23.6903 46.311C25.5664 47.1351 27.242 48.333 28.6085 49.8266C29.5664 51.0173 30.3119 51.7561 31.0731 51.7561C31.7601 51.7561 32.4574 51.1681 33.3629 50.2181C35.1523 48.4014 37.3869 47.0528 39.8591 46.2988C42.6498 45.404 45.5735 44.9596 48.5128 44.9827C51.35 44.9849 54.174 45.3578 56.9083 46.0913C59.6067 46.7977 62.1675 47.9285 64.488 49.4383L69.1652 52.5633L70.8582 50.2195C72.0084 48.6182 73.591 47.3537 75.4331 46.5658C77.5325 45.7192 79.7931 45.3138 82.0663 45.3757C84.5261 45.3053 86.9709 45.7588 89.2302 46.7039C91.2452 47.6039 92.9554 49.0397 94.1608 50.8445C96.1169 53.6914 96.1766 54.1754 96.1766 68.1099C96.1766 68.7545 96.1766 69.3678 96.1766 69.9639C96.1766 70.2342 96.1766 70.5009 96.1766 70.7642C96.1935 78.3346 96.2016 81.7898 94.572 83.3727C93.8552 84.0018 92.9465 84.3874 91.9829 84.4706C90.5034 84.6501 89.0117 84.7207 87.5216 84.6827C87.0475 84.6827 86.5484 84.6827 86.021 84.6827H85.9275C85.3631 84.6827 84.6535 84.6765 83.9198 84.6765H74.8078L73.4377 87.4111C73.1188 88.1658 72.6472 88.8517 72.0519 89.4283C71.4566 90.0048 70.749 90.4611 69.9699 90.7705C68.954 91.047 60.6297 91.233 48.7679 91.233ZM47.801 49.7595C46.1966 49.7081 44.5929 49.8884 43.0434 50.2951C38.5767 51.9107 34.7804 54.9028 32.2384 58.8111C30.1364 62.1807 30.0617 63.1011 29.7392 74.2013L29.4966 85.9987L32.0778 86.5454C33.6211 86.7946 42.7015 87.0142 51.5097 87.0142H68.3621L69.1684 84.9832C69.6522 83.7902 69.9558 80.3656 69.9558 76.0468C70.0068 72.3701 69.7436 68.6958 69.1684 65.0612C68.0266 59.3814 64.0586 53.7962 59.7335 51.7798C57.2589 50.6079 52.2437 49.7572 47.8041 49.7572L47.801 49.7595ZM82.7907 79.9859C83.4777 79.9859 84.1077 79.9858 84.6632 79.9936C85.1341 79.9936 85.6308 80.0012 86.0888 80.0012C88.9972 80.0012 90.4429 79.8537 91.3218 78.985C92.5941 77.7209 92.524 74.9022 92.3692 68.7279V68.7218L92.3611 68.3663C92.3426 67.5928 92.3216 66.7928 92.3031 65.9248C92.1894 60.1834 91.9459 56.4031 91.0275 54.0672C90.1155 51.7499 88.5585 50.9295 86.1783 50.2974C84.8164 49.8845 83.4039 49.6524 81.9781 49.607C80.4125 49.6473 78.8747 50.0166 77.4709 50.6895C73.4232 52.4161 72.0796 55.768 73.1165 61.5493C73.6892 65.4051 73.9868 69.2942 74.0047 73.1896V79.9867L82.7907 79.9859ZM16.9956 50.2981C14.9479 50.2384 12.9187 50.6963 11.1088 51.6264C7.27242 54.1827 7.15793 54.6319 7.07729 67.6422V79.9859H24.5738L25.4619 70.7672C25.9941 66.0313 26.6624 60.4843 26.9124 59.0484C27.3849 56.8999 27.0524 56.2169 24.1706 53.4232C21.3912 50.6435 20.5852 50.2951 16.9987 50.2951L16.9956 50.2981ZM16.7531 39.5948C14.9695 39.6133 13.2207 39.1184 11.7278 38.1726C10.2349 37.2268 9.06491 35.8728 8.36709 34.2824C5.87718 29.2995 7.14212 24.686 11.8349 21.6258C13.3835 20.5281 15.2455 19.9225 17.1641 19.8917C18.7103 19.9142 20.2287 20.2942 21.5926 21.0003C23.1192 21.7046 24.3994 22.8247 25.2793 24.2237C26.1085 25.7563 26.5065 27.4739 26.4305 29.2027C26.5455 31.9494 25.5958 34.6388 23.769 36.7422C22.8795 37.6763 21.7927 38.4141 20.5831 38.9058C19.3734 39.3976 18.069 39.6313 16.7578 39.5917L16.7531 39.5948ZM17.6398 24.5166C16.4554 24.7256 15.361 25.2692 14.4948 26.0792C13.6816 26.8307 13.1193 27.7999 12.8774 28.8632C12.6355 29.9265 12.7255 31.0354 13.1373 32.0485C13.3952 32.8038 13.8893 33.4625 14.5515 33.933C15.2136 34.4034 16.0108 34.6624 16.8318 34.6738C18.0683 34.5505 19.2051 33.9616 19.9973 33.0334C20.9206 32.1626 21.4877 30.9965 21.591 29.752C21.595 27.4043 19.4167 24.5136 17.6444 24.5136L17.6398 24.5166ZM82.1136 39.327C80.7309 39.3093 79.3718 38.9784 78.1449 38.3604C76.9181 37.7422 75.8579 36.8544 75.0488 35.7678C73.62 34.0754 72.8752 31.9373 72.9527 29.752C72.9407 28.3733 73.1922 27.0045 73.6945 25.7145C74.1389 24.5777 74.8124 23.538 75.6756 22.6558C76.4792 21.8293 77.4484 21.1708 78.5245 20.721C79.6006 20.2713 80.7606 20.0403 81.9325 20.0412C83.3272 20.0747 84.6987 20.3925 85.9573 20.9751C87.2168 21.5576 88.3344 22.3911 89.2382 23.4211C91.6209 25.9594 91.9063 26.4981 91.5766 30.1404C91.3782 32.694 90.2203 35.0886 88.3215 36.8703C86.654 38.4272 84.4342 39.3051 82.1182 39.324L82.1136 39.327ZM81.8726 24.4831C81.2521 24.4798 80.6381 24.6063 80.0725 24.8539C79.5071 25.1014 79.0029 25.4641 78.5954 25.9174C77.7038 27.0132 77.2465 28.3822 77.3056 29.7765C77.28 30.4289 77.3868 31.0796 77.6221 31.6914C77.8573 32.3033 78.2157 32.8637 78.6757 33.3409C79.5812 34.1735 80.7772 34.6456 82.0253 34.6631C82.6627 34.6609 83.2934 34.5319 83.877 34.2847C84.4616 34.0374 84.9857 33.6773 85.4203 33.2257C86.3992 32.1934 86.929 30.8345 86.8991 29.4331C86.9072 28.1324 86.3823 26.8814 85.4413 25.9541C84.4995 25.0267 83.218 24.4983 81.8758 24.4838L81.8726 24.4831ZM50.3806 38.9005C49.9992 38.9005 49.5739 38.9008 49.0845 38.8883C45.7834 38.8476 43.7573 38.4972 42.0907 37.6675C40.424 36.8379 39.0716 35.5246 37.3944 33.1074C35.3227 30.2744 34.1623 26.9109 34.0589 23.4402C34.0869 20.1482 35.2313 16.9564 37.3157 14.3565C38.8014 12.3892 40.7398 10.7854 42.9788 9.67355C45.1414 8.60349 47.5335 8.04177 49.9617 8.03321C51.7558 8.03123 53.535 8.34637 55.2122 8.96401C56.8906 9.64554 58.4235 10.6262 59.7288 11.8548C61.5746 13.5089 63.016 15.5406 63.951 17.802C64.8232 19.9179 65.1955 22.1968 65.0376 24.4702C64.8796 26.7887 64.1828 29.0423 62.9997 31.0635C61.7291 33.2324 59.979 35.1021 57.8752 36.5392C55.1458 38.5486 54.0242 38.9012 50.3837 38.9012L50.3806 38.9005ZM49.179 12.3378C47.8444 12.3225 46.5214 12.5824 45.2986 13.1007C43.6829 13.865 42.2652 14.9708 41.1489 16.3363C40.0325 17.702 39.246 19.293 38.8481 20.9918C38.5062 22.7481 39.0714 25.3668 40.3583 27.9942C41.6452 30.6215 43.336 32.64 44.8938 33.4127C46.4157 34.1874 48.1086 34.5944 49.8278 34.5982C51.6129 34.6115 53.3703 34.1699 54.924 33.3181C56.4776 32.4662 57.7726 31.234 58.68 29.7444C60.5039 26.9092 60.804 20.4986 59.2438 17.7127C57.415 14.5525 53.275 12.3431 49.1821 12.3423L49.179 12.3378Z" fill="white" stroke="white"/>
</g>
</g>
</svg>
