<svg width="100" height="100" viewBox="0 0 100 100" fill="none" xmlns="http://www.w3.org/2000/svg">
<path d="M64.041 40.9875L44.8871 28.2602C44.4062 27.9404 43.8473 27.7568 43.2699 27.7289C42.6925 27.7011 42.1183 27.83 41.6087 28.1019C41.099 28.3739 40.673 28.7786 40.3762 29.273C40.0793 29.7674 39.9227 30.3329 39.9231 30.9091V56.3636C39.9227 56.9398 40.0793 57.5053 40.3762 57.9997C40.673 58.4941 41.099 58.8989 41.6087 59.1708C42.1183 59.4428 42.6925 59.5717 43.2699 59.5438C43.8473 59.5159 44.4062 59.3323 44.8871 59.0125L64.041 46.2852C64.4788 45.9948 64.8379 45.601 65.0863 45.1389C65.3347 44.6767 65.4647 44.1606 65.4647 43.6364C65.4647 43.1121 65.3347 42.596 65.0863 42.1339C64.8379 41.6717 64.4788 41.2779 64.041 40.9875ZM46.3077 50.4176V36.875L56.5151 43.6364L46.3077 50.4176ZM84.6154 15H14.3846C12.6913 15 11.0674 15.6705 9.87001 16.8639C8.67266 18.0573 8 19.6759 8 21.3636V65.9091C8 67.5968 8.67266 69.2154 9.87001 70.4089C11.0674 71.6023 12.6913 72.2727 14.3846 72.2727H84.6154C86.3087 72.2727 87.9326 71.6023 89.13 70.4089C90.3273 69.2154 91 67.5968 91 65.9091V21.3636C91 19.6759 90.3273 18.0573 89.13 16.8639C87.9326 15.6705 86.3087 15 84.6154 15ZM84.6154 65.9091H14.3846V21.3636H84.6154V65.9091ZM91 81.8182C91 82.6621 90.6637 83.4714 90.065 84.0681C89.4663 84.6648 88.6543 85 87.8077 85H11.1923C10.3457 85 9.53368 84.6648 8.93501 84.0681C8.33633 83.4714 8 82.6621 8 81.8182C8 80.9743 8.33633 80.165 8.93501 79.5683C9.53368 78.9716 10.3457 78.6364 11.1923 78.6364H87.8077C88.6543 78.6364 89.4663 78.9716 90.065 79.5683C90.6637 80.165 91 80.9743 91 81.8182Z" fill="white"/>
</svg>
