<svg width="100" height="100" viewBox="0 0 100 100" fill="none" xmlns="http://www.w3.org/2000/svg">
<g clip-path="url(#clip0_2470_139)">
<path d="M80.2461 96C79.746 95.9853 79.2477 95.9319 78.7575 95.8391C77.3304 95.6224 70.8741 92.7613 63.7314 89.1854C56.9556 85.7146 50.8879 82.9185 50.3842 82.9185C49.7966 82.9185 43.3985 85.9026 36.114 89.5722C27.9363 93.607 22.4438 95.9219 21.0453 95.9226C21.0044 95.9226 20.9646 95.9203 20.924 95.9149C20.6574 95.8932 20.3979 95.8197 20.1649 95.6983C19.932 95.5768 19.7307 95.4097 19.5731 95.2108C18.8915 94.366 18.6494 92.7126 18.8173 90.0062C19.1791 85.9923 19.7693 81.9993 20.5847 78.0421C21.5531 73.6428 22.2812 69.2012 22.7668 64.7345C22.7668 62.928 20.7752 60.6518 12.6101 53.1292C6.04074 46.9768 2.06187 43.1404 1.69756 42.6066C1.35168 42.0599 1.129 41.455 1.04176 40.8273C0.954518 40.1996 1.0041 39.5621 1.18931 38.9528C1.27256 38.6302 1.42838 38.3277 1.64673 38.0642C1.86509 37.8007 2.14091 37.5824 2.45665 37.4235C3.0879 37.0366 7.67633 36.2466 16.8957 34.9475C23.5373 34.0825 30.7045 33.0288 31.753 32.6265C33.0759 32.0949 35.4528 28.3625 40.2308 19.3189C46.231 7.72284 48.6986 4 50.3875 4C51.1468 4.27199 51.8139 4.72624 52.3189 5.31542C54.388 7.69993 57.628 13.4187 62.2247 22.8005C65.218 28.8445 67.3078 32.1506 68.4351 32.6265C69.476 32.9475 76.3387 34.0315 83.63 34.9475C91.0507 35.8806 97.7527 37.0452 98.5703 37.4235C99.0253 37.7374 99.393 38.147 99.6414 38.6181C99.8899 39.0891 100.012 39.6079 99.999 40.1314C99.999 41.695 97.2449 44.7595 88.6668 52.7424C82.2869 58.6998 77.3343 63.4963 77.3343 63.6511C77.3343 63.8058 78.271 68.3785 79.264 73.2202L79.3477 73.6335C82.017 86.5811 82.6946 91.7741 82.0348 94.2136C81.6554 95.5311 81.3315 96 80.2461 96ZM50.4694 78.2787C51.0402 78.2787 57.2892 81.1851 64.4872 84.9324C71.5879 88.5076 77.3488 91.2039 77.8852 91.2039C77.8965 91.2055 77.908 91.2031 77.918 91.1977C78.0767 90.9757 77.2844 85.3703 75.9867 78.2001C74.6394 70.751 73.7206 64.4374 73.8045 63.1902C73.8507 62.2393 74.4669 61.1726 75.9342 59.5069C77.4015 57.8411 79.8166 55.4834 84.0431 51.5886C89.7866 46.2943 94.1163 41.9013 94.1163 41.3713C94.1163 40.9845 93.5195 40.6266 90.5488 40.068C87.6041 39.5148 82.3954 38.7656 74.3914 37.6585C69.5496 36.9915 64.7631 35.9797 64.1511 35.4923C63.6248 34.9267 60.6249 29.363 57.603 23.3452C54.7187 17.4311 51.5826 11.6831 50.8876 11.0433C50.5434 10.7253 50.3003 10.59 50.0694 10.59C49.4449 10.59 48.8612 11.6212 47.5299 14.5256C46.9951 15.5794 46.1773 17.2221 45.1624 19.2592L45.0788 19.4216C43.8079 21.9748 42.3673 24.8709 41.062 27.4449C40.7355 28.0724 40.4439 28.6424 40.1619 29.1948L40.1013 29.3104C36.4406 36.484 36.4408 36.484 22.0782 38.3687C21.0256 38.5072 19.8814 38.6573 18.6516 38.8213C11.6844 39.701 6.30758 40.5304 6.14389 40.7555C5.87359 41.0093 11.0542 46.1476 16.3023 51.1232C16.9847 51.7607 17.6167 52.346 18.2286 52.9123L18.5713 53.2313C27.9729 61.9407 27.9714 61.9406 25.4179 75.4121C25.208 76.5138 24.9984 77.6042 24.7768 78.8166C23.4883 85.4778 22.7718 90.8991 23.0144 91.118C23.0302 91.1289 23.0504 91.1343 23.0701 91.132C23.7417 91.132 29.6173 88.4078 36.4452 84.9293C43.3276 81.3881 49.8776 78.2787 50.4694 78.2787ZM59.4638 64.8856C59.1767 64.8856 58.8162 64.6096 58.362 64.0417C57.7081 63.2007 57.3064 59.1221 57.1947 55.4541C57.0831 51.786 57.2501 47.7051 57.8587 46.8664C58.2738 46.3232 58.8598 45.9103 59.5376 45.684C60.3037 45.418 61.1175 45.2868 61.9361 45.2972C62.9884 45.2982 64.0314 45.4798 65.0119 45.8321C65.9709 46.1615 66.8276 46.702 67.5071 47.4074C68.35 48.4443 68.8297 49.6933 68.8827 50.988C68.9962 52.2079 68.6602 53.4279 67.9285 54.45C66.8069 55.4278 65.4125 56.0976 63.9002 56.3842C61.2602 56.9916 60.9617 57.3454 60.7098 60.1748C60.4739 63.5195 60.1127 64.8856 59.4638 64.8856ZM62.4903 48.8913C61.9905 48.8745 61.5027 49.0356 61.1279 49.3409C60.8708 49.6913 60.6924 50.0857 60.6032 50.5007C60.514 50.9156 60.5172 51.3428 60.6098 51.7572C60.6256 52.0242 60.7026 52.2851 60.8361 52.5225C60.9695 52.7599 61.1562 52.9686 61.3836 53.1346C61.7492 53.3326 62.1662 53.4347 62.5903 53.4299C63.0224 53.4246 63.448 53.3367 63.8412 53.1715C64.2344 53.0064 64.5863 52.7674 64.8741 52.4704C65.0761 52.2699 65.2289 52.0321 65.3217 51.7722C65.4145 51.5124 65.445 51.2372 65.4119 50.9653C65.253 50.3654 64.877 49.8332 64.3462 49.4564C63.8154 49.0797 63.1618 48.8804 62.4919 48.8921L62.4903 48.8913ZM38.5503 64.4165C37.3256 64.4165 35.7948 61.7135 33.4301 55.3762C30.9295 48.6715 30.156 46.5247 30.5757 45.9878C30.6261 45.9317 30.691 45.8886 30.7643 45.8616C30.8376 45.8345 30.9171 45.825 30.9955 45.8336C31.2506 45.8471 31.5039 45.8831 31.7513 45.9416C32.5907 46.0964 34.0108 48.1589 35.3615 51.2026C36.6357 54.0234 37.8868 56.2316 38.2142 56.2316C38.5415 56.2316 39.8934 53.9879 41.0686 51.2026C42.5199 48.0606 43.931 46.0964 44.846 45.9416C45.039 45.9017 45.2368 45.8791 45.4346 45.8736C45.5229 45.8641 45.6119 45.8739 45.6952 45.9023C45.7786 45.9307 45.8529 45.9768 45.9133 46.0368C46.108 46.2689 46.0712 46.7657 45.769 47.8721C45.0068 50.6752 39.8059 63.5826 39.2225 64.1195C39.138 64.2079 39.0342 64.2799 38.9192 64.3311C38.8041 64.3823 38.6795 64.4113 38.552 64.4173L38.5503 64.4165ZM51.2106 64.3054C50.8158 64.2998 50.4247 64.2364 50.0514 64.118C49.0248 63.7234 48.7923 62.0615 48.7923 55.2206C48.7923 50.4949 49.051 46.5549 49.3809 46.2454C49.7843 45.986 50.2732 45.8671 50.763 45.9092C50.9464 45.9092 51.13 45.9191 51.3122 45.9386C52.4093 46.1707 52.5719 47.5225 52.4041 54.9909C52.3787 58.0671 52.1816 61.1396 51.8155 64.1974C51.6284 64.2824 51.4202 64.3203 51.2122 64.3062L51.2106 64.3054Z" fill="white" stroke="white"/>
</g>
<defs>
<clipPath id="clip0_2470_139">
<rect width="100" height="100" fill="white"/>
</clipPath>
</defs>
</svg>
