<?xml version="1.0" encoding="UTF-8"?>
<svg width="48px" height="48px" viewBox="0 0 48 48" version="1.1" xmlns="http://www.w3.org/2000/svg" xmlns:xlink="http://www.w3.org/1999/xlink">
    <title>icon-set/icon-speaker</title>
    <g id="首頁" stroke="none" stroke-width="1" fill="none" fill-rule="evenodd">
        <g id="icon-set/icon-speaker">
            <rect id="Rectangle" x="0" y="0" width="48" height="48"></rect>
            <path d="M26.6834171,32.8040201 L27.9698492,34.0904523 C29.5778894,35.6984925 29.5778894,38.2713568 27.9698492,39.879397 L27.9698492,39.879397 L26.040201,41.8090452 L27.6482412,43.4170854 C28.6130653,44.3819095 28.6130653,46.3115578 27.6482412,47.2763819 C26.6834171,48.241206 24.7537688,48.241206 23.7889447,47.2763819 L23.7889447,47.2763819 L17.3567839,41.1658291 L21.2160804,37.3065327 L24.4321608,40.201005 L26.361809,38.2713568 C27.0050251,37.6281407 27.0050251,36.9849246 26.361809,36.3417085 L26.361809,36.3417085 L24.4321608,34.4120603 C25.3969849,33.7688442 26.040201,33.1256281 26.6834171,32.8040201 L26.6834171,32.8040201 Z M10.6030151,24.120603 L20.8944724,34.4120603 L13.4974874,41.8090452 C11.8894472,43.4170854 8.99497487,43.4170854 7.38693467,41.8090452 L7.38693467,41.8090452 L3.20603015,37.6281407 C1.59798995,36.0201005 1.59798995,33.1256281 3.20603015,31.5175879 L3.20603015,31.5175879 L10.6030151,24.120603 Z M13.4974874,31.5175879 C13.1758794,30.8743719 12.2110553,30.8743719 11.5678392,31.5175879 L11.5678392,31.5175879 L9.63819095,33.4472362 C8.99497487,34.0904523 8.99497487,35.0552764 9.63819095,35.3768844 C10.281407,36.0201005 11.2462312,36.0201005 11.5678392,35.3768844 L11.5678392,35.3768844 L13.4974874,33.4472362 C14.1407035,32.8040201 14.1407035,31.839196 13.4974874,31.5175879 Z M18.9648241,8.68341709 L36.3316583,26.0502513 L35.6884422,26.0502513 C30.8643216,27.0150754 26.040201,29.5879397 22.5025126,32.8040201 L22.5025126,32.8040201 L12.2110553,22.5125628 C15.4271357,18.6532663 17.678392,14.1507538 18.9648241,9.00502513 L18.9648241,9.00502513 L18.9648241,8.68341709 Z M19.9296482,0.964824121 C20.8944724,-7.77156117e-16 22.8241206,-7.77156117e-16 23.7889447,0.964824121 L23.7889447,0.964824121 L42.4422111,19.2964824 C43.4070352,20.2613065 43.4070352,22.1909548 42.4422111,23.1557789 C41.4773869,24.120603 39.5477387,24.120603 38.5829146,23.1557789 L38.5829146,23.1557789 L19.9296482,4.8241206 C18.9648241,3.53768844 18.9648241,1.92964824 19.9296482,0.964824121 Z M43.7286432,10.2914573 C44.3718593,10.2914573 45.0150754,10.9346734 45.0150754,11.8994975 C45.0150754,12.8643216 44.3718593,13.8291457 43.7286432,13.8291457 L43.7286432,13.8291457 L41.1557789,13.8291457 C40.5125628,13.8291457 39.8693467,13.1859296 39.8693467,12.2211055 C39.8693467,11.2562814 40.5125628,10.6130653 41.1557789,10.6130653 L41.1557789,10.6130653 L43.7286432,10.6130653 L43.7286432,10.2914573 Z M39.2261307,3.85929648 C39.8693467,3.2160804 40.5125628,3.2160804 41.1557789,3.85929648 C41.798995,4.50251256 41.798995,5.14572864 41.1557789,5.78894472 L41.1557789,5.78894472 L38.5829146,8.36180905 C37.9396985,9.00502513 37.2964824,9.00502513 36.6532663,8.36180905 C36.0100503,7.71859296 36.0100503,7.07537688 36.6532663,6.4321608 L36.6532663,6.4321608 L39.2261307,3.85929648 Z M31.1859296,0 C32.1507538,0 32.7939698,0.64321608 32.7939698,1.28643216 L32.7939698,1.28643216 L32.7939698,3.85929648 C32.7939698,4.50251256 32.1507538,5.14572864 31.1859296,5.14572864 C30.2211055,5.14572864 29.5778894,4.50251256 29.5778894,3.85929648 L29.5778894,3.85929648 L29.5778894,1.28643216 C29.5778894,0.64321608 30.2211055,0 31.1859296,0 Z" id="形状结合" fill="#6F87D6" fill-rule="nonzero"></path>
        </g>
    </g>
</svg>