<svg width="25" height="25" viewBox="0 0 25 25" fill="none" xmlns="http://www.w3.org/2000/svg">
<path d="M20.3633 6.76562H5.36328C5.16437 6.76562 4.9736 6.68661 4.83295 6.54595C4.6923 6.4053 4.61328 6.21454 4.61328 6.01562C4.61328 5.81671 4.6923 5.62595 4.83295 5.4853C4.9736 5.34464 5.16437 5.26562 5.36328 5.26562H18.1133C18.3122 5.26562 18.503 5.18661 18.6436 5.04595C18.7843 4.9053 18.8633 4.71454 18.8633 4.51562C18.8633 4.31671 18.7843 4.12595 18.6436 3.9853C18.503 3.84464 18.3122 3.76563 18.1133 3.76562H5.36328C4.76654 3.76562 4.19425 4.00268 3.77229 4.42463C3.35033 4.84659 3.11328 5.41889 3.11328 6.01562V18.0156C3.11328 18.6124 3.35033 19.1847 3.77229 19.6066C4.19425 20.0286 4.76654 20.2656 5.36328 20.2656H20.3633C20.7611 20.2656 21.1426 20.1076 21.4239 19.8263C21.7052 19.545 21.8633 19.1634 21.8633 18.7656V8.26562C21.8633 7.8678 21.7052 7.48627 21.4239 7.20497C21.1426 6.92366 20.7611 6.76563 20.3633 6.76562ZM16.9883 14.2656C16.7658 14.2656 16.5483 14.1996 16.3633 14.076C16.1783 13.9524 16.0341 13.7767 15.9489 13.5711C15.8638 13.3656 15.8415 13.1394 15.8849 12.9211C15.9283 12.7029 16.0355 12.5025 16.1928 12.3451C16.3501 12.1878 16.5506 12.0806 16.7688 12.0372C16.987 11.9938 17.2132 12.0161 17.4188 12.1013C17.6244 12.1864 17.8001 12.3306 17.9237 12.5156C18.0473 12.7006 18.1133 12.9181 18.1133 13.1406C18.1133 13.439 17.9948 13.7251 17.7838 13.9361C17.5728 14.1471 17.2866 14.2656 16.9883 14.2656Z" fill="white"/>
</svg>
