<svg width="24" height="23" viewBox="0 0 24 23" fill="none" xmlns="http://www.w3.org/2000/svg">
<path d="M23.4375 5.67821L18.0758 0.539052C17.8975 0.368154 17.6858 0.232588 17.4529 0.140096C17.2199 0.0476051 16.9702 0 16.718 0C16.4658 0 16.2161 0.0476051 15.9831 0.140096C15.7502 0.232588 15.5385 0.368154 15.3602 0.539052L0.562816 14.7203C0.38375 14.8905 0.241781 15.0932 0.145162 15.3165C0.048544 15.5397 -0.000796136 15.7792 9.71405e-06 16.0209V21.1601C9.71405e-06 21.648 0.202297 22.116 0.562371 22.4611C0.922445 22.8061 1.41081 23 1.92003 23H7.28289C7.53513 23.0008 7.78501 22.9535 8.018 22.8609C8.251 22.7683 8.46247 22.6323 8.64011 22.4607L23.4375 8.28056C23.6158 8.1097 23.7573 7.90685 23.8538 7.68359C23.9503 7.46033 24 7.22104 24 6.97938C24 6.73772 23.9503 6.49843 23.8538 6.27517C23.7573 6.05191 23.6158 5.84906 23.4375 5.67821ZM19.2002 9.7387L13.8374 4.6007L16.7174 1.8408L22.0803 6.97881L19.2002 9.7387Z" fill="#CDEAFF"/>
</svg>
