<svg width="32" height="32" viewBox="0 0 32 32" fill="none" xmlns="http://www.w3.org/2000/svg">
<g clip-path="url(#clip0_94_87)">
<path fill-rule="evenodd" clip-rule="evenodd" d="M32 2.672C32 1.19733 30.8 0 29.328 0H2.672C1.19733 0 0 1.2 0 2.672V29.328C0 29.6789 0.0691133 30.0263 0.203394 30.3505C0.337674 30.6747 0.534493 30.9693 0.782611 31.2174C1.03073 31.4655 1.32529 31.6623 1.64947 31.7966C1.97365 31.9309 2.32111 32 2.672 32H29.328C30.8027 32 32 30.8 32 29.328V2.672ZM18.4981 20.3238C18.5201 20.3218 18.5417 20.3199 18.5627 20.3199H27.5121C27.2747 20.8372 26.9627 21.3332 26.5734 21.8079C25.9547 22.5572 25.1707 23.1839 24.2187 23.6906C23.2641 24.1946 22.1761 24.4479 20.9547 24.4479H4.9334C3.34674 24.4479 2.22407 22.9946 2.7174 21.5812L5.89074 12.4879H12.9254L12.3201 14.2426H19.3201C19.7734 14.2426 20.2241 14.1439 20.6241 13.9466C21.1227 13.6986 21.4347 13.3946 21.5627 13.0346L21.6801 12.7039C21.7394 12.5602 21.7432 12.3996 21.6907 12.2532C21.5414 11.7492 21.0694 11.4959 20.2801 11.4959L3.31207 11.5226L4.7494 7.3999H24.5307C25.7761 7.3999 26.8134 7.5919 27.6347 7.97857C28.4561 8.3679 28.9681 8.89857 29.1707 9.57857C29.2976 10.0539 29.3041 10.5534 29.1894 11.0319C29.0747 11.5786 28.8801 12.1199 28.6081 12.6586C28.3334 13.1919 27.9947 13.6826 27.5867 14.1252C27.1787 14.5652 26.7547 14.8986 26.3174 15.1199C26.6969 15.308 27.0325 15.5737 27.3027 15.8999C27.5728 16.2261 27.7713 16.6054 27.8854 17.0132C28.0987 17.7252 28.0907 18.5092 27.8641 19.3519H20.5494C20.5883 19.2863 20.6196 19.2166 20.6427 19.1439L20.7814 18.7652C20.8397 18.5971 20.8489 18.4158 20.8081 18.2426C20.6721 17.7866 20.2081 17.5572 19.4187 17.5572H11.1841L10.2081 20.3279H18.4294C18.4524 20.3279 18.4754 20.3258 18.4981 20.3238Z" fill="#386ABD"/>
</g>
<defs>
<clipPath id="clip0_94_87">
<rect width="32" height="32" fill="white"/>
</clipPath>
</defs>
</svg>
