<svg width="100" height="100" viewBox="0 0 100 100" fill="none" xmlns="http://www.w3.org/2000/svg">
<path d="M53.74 90.37H14.26C11.05 90.37 8.44995 87.77 8.44995 84.56V20.03C8.44995 16.82 11.05 14.22 14.26 14.22H53.74C56.95 14.22 59.5499 16.82 59.5499 20.03V84.56C59.5499 87.77 56.95 90.37 53.74 90.37Z" stroke="white" stroke-width="3" stroke-miterlimit="10"/>
<path d="M48.22 14.22L49.79 11.29C51.31 8.45999 54.83 7.39999 57.66 8.91999L92.43 27.61C95.26 29.13 96.32 32.65 94.8 35.48L64.25 92.32C62.73 95.15 59.21 96.21 56.38 94.69L48.35 90.37" stroke="white" stroke-width="3" stroke-miterlimit="10"/>
<path d="M59.55 35.31C60.4 35.35 61.13 35.9 61.6 36.91C64.41 42.99 67.22 49.08 70.02 55.16C70.76 56.76 70.4101 57.87 68.9001 58.74C65.7901 60.53 62.6701 62.32 59.5601 64.11" stroke="white" stroke-width="3" stroke-miterlimit="10"/>
<path d="M45.83 52.88C45.64 53.59 45.52 54.32 45.26 55C43.53 59.51 38.62 60.76 35.31 58.77C35.26 58.74 35.2 58.74 35.1 58.71V62.81C35.66 62.81 36.21 62.81 36.76 62.81C37.86 62.83 38.66 63.6 38.64 64.63C38.62 65.63 37.84 66.39 36.76 66.39C34.43 66.4 32.1 66.39 29.77 66.39C28.67 66.39 27.87 65.6 27.88 64.58C27.89 63.58 28.68 62.83 29.75 62.81C30.3 62.81 30.86 62.81 31.43 62.81V58.72C31.32 58.76 31.22 58.78 31.12 58.83C27.18 60.86 22.61 59.01 21.18 54.79C20.14 51.74 20.8 48.99 22.7 46.47C24.24 44.43 26.16 42.79 28.08 41.13C29.39 40 30.7 38.86 32.03 37.74C32.83 37.07 33.69 37.04 34.47 37.72C37.09 40.02 39.73 42.3 42.27 44.69C43.89 46.22 45.16 48.04 45.64 50.29C45.69 50.52 45.76 50.74 45.82 50.97V52.88H45.83Z" stroke="white" stroke-width="3" stroke-miterlimit="10"/>
</svg>
