<svg width="43" height="42" viewBox="0 0 43 42" fill="none" xmlns="http://www.w3.org/2000/svg">
<g clip-path="url(#clip0_612_328)">
<path d="M4.99228 31.1334C5.16041 30.7772 5.40969 30.4653 5.72014 30.2228C4.12928 27.5127 3.28273 24.4304 3.2662 21.2879C3.24968 18.1454 4.06375 15.0544 5.62602 12.3277C7.18828 9.60102 9.44326 7.33554 12.1626 5.76063C14.882 4.18572 17.9693 3.35728 21.1118 3.35921C21.5434 3.35032 21.9751 3.36801 22.4045 3.4122L23.4072 2.19197C22.6449 2.10211 21.8779 2.05731 21.1102 2.0578C17.6902 2.05642 14.3324 2.97161 11.3861 4.70815C8.43977 6.4447 6.0127 8.93912 4.35744 11.9318C2.70217 14.9246 1.8792 18.3062 1.97418 21.7249C2.06915 25.1435 3.0786 28.4743 4.89746 31.3705C4.93155 31.2961 4.95572 31.2156 4.99228 31.1334Z" fill="white"/>
<path d="M37.3734 11.1317C37.3268 11.3224 37.2646 11.5089 37.1875 11.6894C37.0571 11.9815 36.8784 12.2494 36.6589 12.482C38.185 15.1956 38.974 18.2615 38.9474 21.3747C38.9209 24.4879 38.0797 27.5398 36.5075 30.227C34.9353 32.9142 32.6869 35.1428 29.986 36.6913C27.2852 38.2399 24.2259 39.0542 21.1126 39.0534C20.541 39.0536 19.9697 39.0251 19.401 38.9679L18.4094 40.159C22.013 40.6727 25.6884 40.1479 29.0042 38.6462C32.3201 37.1445 35.1388 34.7282 37.1297 31.6808C39.1206 28.6335 40.201 25.0815 40.2442 21.4418C40.2873 17.802 39.2915 14.2254 37.3734 11.1317Z" fill="white"/>
<path d="M30.5962 22.7709H24.4532C24.0416 22.7509 23.6546 22.5685 23.3772 22.2637C23.0998 21.9589 22.9546 21.5565 22.9733 21.1448V12.6317C22.9733 12.4679 22.9083 12.3107 22.7924 12.1948C22.6765 12.079 22.5194 12.0139 22.3555 12.0139H20.4691C20.1902 12.0103 19.9184 11.9257 19.6867 11.7706C19.455 11.6154 19.2734 11.3962 19.1639 11.1398C19.0243 10.8416 18.9708 10.5104 19.0096 10.1835C19.0484 9.85661 19.1778 9.54707 19.3833 9.2899L26.2377 1.01666C26.5423 0.674727 26.97 0.467375 27.4271 0.439967C27.8842 0.412558 28.3336 0.567323 28.6769 0.870402C28.7296 0.915011 28.7786 0.963931 28.8232 1.01666L35.6779 9.25767C35.8842 9.51441 36.0142 9.82401 36.053 10.1511C36.0918 10.4782 36.0378 10.8096 35.8973 11.1075C35.7892 11.3639 35.6083 11.583 35.377 11.7376C35.1457 11.8923 34.8741 11.9757 34.5959 11.9776H32.6859C32.5255 11.9828 32.3735 12.0502 32.262 12.1655C32.1504 12.2809 32.0881 12.435 32.0882 12.5955V21.1082C32.1161 21.5212 31.9789 21.9283 31.7067 22.2401C31.4345 22.5518 31.0497 22.7428 30.6368 22.7709H30.5962ZM27.5227 1.46812C27.4317 1.46729 27.3417 1.48697 27.2594 1.5257C27.177 1.56444 27.1044 1.62122 27.0471 1.69184L20.1967 9.9282C20.1172 10.0326 20.068 10.1569 20.0544 10.2874C20.0408 10.4179 20.0633 10.5496 20.1195 10.6681C20.1458 10.7417 20.1928 10.8062 20.2548 10.8538C20.3168 10.9014 20.3912 10.9301 20.4691 10.9365H22.3635C22.8085 10.9333 23.2367 11.1064 23.5543 11.418C23.872 11.7295 24.0534 12.1542 24.0588 12.5992V21.1364C24.0588 21.4494 24.2447 21.7137 24.4653 21.7137H30.6123C30.84 21.7137 31.0188 21.4494 31.0188 21.1364V12.6153C31.0188 12.395 31.0623 12.1769 31.1467 11.9734C31.2312 11.7699 31.3549 11.5851 31.5109 11.4295C31.6669 11.2739 31.852 11.1507 32.0557 11.0668C32.2594 10.9828 32.4777 10.9399 32.698 10.9405H34.5924C34.6696 10.9334 34.7431 10.9043 34.8044 10.8568C34.8656 10.8092 34.9119 10.7452 34.9379 10.6722C34.9942 10.5536 35.0167 10.4219 35.0031 10.2914C34.9895 10.1609 34.9403 10.0366 34.8608 9.93223L28.0228 1.69184C27.9629 1.61788 27.8864 1.55908 27.7995 1.52021C27.7126 1.48134 27.6178 1.4635 27.5227 1.46812Z" fill="white"/>
<path d="M18.1608 19.9H11.8065C11.5266 19.9228 11.2671 20.0552 11.0844 20.2684C10.9016 20.4816 10.8105 20.7583 10.8308 21.0384V29.844C10.8305 30.1587 10.7054 30.4604 10.4828 30.6828C10.2602 30.9052 9.95837 31.0301 9.6437 31.0301H7.68415C6.82243 31.0301 6.38274 32.2497 6.9848 32.9733L13.3716 40.6488C13.5615 40.8956 13.8055 41.0956 14.0849 41.2331C14.3642 41.3707 14.6715 41.4423 14.9829 41.4423C15.2943 41.4423 15.6015 41.3707 15.8809 41.2331C16.1603 41.0956 16.4043 40.8956 16.5942 40.6488L22.9822 32.9866C23.5799 32.2466 23.1449 31.0475 22.2829 31.0475H20.3236C20.0098 31.0464 19.7091 30.9216 19.4868 30.7001C19.2645 30.4785 19.1387 30.1782 19.1365 29.8644V21.0384C19.1568 20.7583 19.0657 20.4816 18.883 20.2684C18.7002 20.0552 18.4407 19.9228 18.1608 19.9Z" fill="white"/>
</g>
<defs>
<clipPath id="clip0_612_328">
<rect width="43" height="42" fill="white"/>
</clipPath>
</defs>
</svg>
