<svg width="32" height="32" viewBox="0 0 32 32" fill="none" xmlns="http://www.w3.org/2000/svg">
<g clip-path="url(#clip0_94_86)">
<path fill-rule="evenodd" clip-rule="evenodd" d="M29.328 0C30.8 0 32 1.19733 32 2.672V29.328C32 30.8 30.8027 32 29.328 32H2.672C2.32111 32 1.97365 31.9309 1.64947 31.7966C1.32529 31.6623 1.03073 31.4655 0.782611 31.2174C0.534493 30.9693 0.337674 30.6747 0.203394 30.3505C0.0691133 30.0263 0 29.6789 0 29.328V2.672C0 1.2 1.19733 0 2.672 0H29.328ZM4.10663 20.3225L2.66663 24.4505H9.71729L11.1573 20.3225H4.10663ZM29.3333 7.40028L27.8933 11.5203H14.2266L13.2933 14.1976H25.2346L24.0293 17.6536H12.0906L11.496 19.3576H4.44531L8.09331 8.90695C8.2623 8.45746 8.56629 8.07131 8.96356 7.80154C9.36082 7.53176 9.83186 7.3916 10.312 7.40028H29.3333Z" fill="#4290A3"/>
</g>
<defs>
<clipPath id="clip0_94_86">
<rect width="32" height="32" fill="white"/>
</clipPath>
</defs>
</svg>
