<svg width="100" height="100" viewBox="0 0 100 100" fill="none" xmlns="http://www.w3.org/2000/svg">
<path d="M4.5 35.23C4.85 34.33 5.58 33.91 6.48 33.94C9.6 34.04 12.67 34.54 15.53 35.85C17.1 36.57 18.59 37.5 20.03 38.47C20.95 39.08 21.71 39.93 22.61 40.72C24.03 40.01 25.66 39.15 27.33 38.37C28.8 37.68 30.3 37.06 31.81 36.47C32.33 36.26 32.55 36.06 32.33 35.5C31.43 33.25 30.56 30.99 29.67 28.74C29.3 27.82 28.9 26.91 28.52 26C28.16 25.16 27.8 24.31 27.45 23.47C26.82 21.96 27.99 20.99 29.26 21.1C31.16 21.26 33.07 21.43 34.93 21.78C39.18 22.59 43.44 23.39 47.64 24.43C51.18 25.31 54.58 26.66 57.68 28.64C58.6 29.22 59.38 30.01 60.25 30.67C60.49 30.85 60.81 30.99 61.11 31.03C64.6 31.41 68.04 32.07 71.4 33.12C74.34 34.04 77.16 35.24 79.86 36.71C82.54 38.16 85.02 39.9 87.34 41.86C88.6 42.93 89.79 44.11 90.88 45.37C92.4 47.12 93.79 48.98 95.22 50.81C95.6 51.3 95.61 51.89 95.27 52.36C94.1 53.95 92.98 55.6 91.64 57.04C89.92 58.88 88.04 60.58 86.16 62.25C83.92 64.25 81.34 65.78 78.68 67.14C75.74 68.65 72.66 69.8 69.47 70.66C65.43 71.75 61.32 72.31 57.15 72.41C56.33 72.43 55.97 73.02 55.48 73.42C52.92 75.49 49.95 76.68 46.83 77.52C43.7 78.37 40.49 78.79 37.25 78.9C35.35 78.97 34.77 78.13 34.93 76.61C35.1 75.02 35.13 73.4 35.43 71.83C35.64 70.73 36.19 69.69 36.63 68.53C31.77 66.81 26.96 64.9 22.52 62.35C21.53 63.27 20.62 64.17 19.65 65C17.75 66.62 15.51 67.63 13.12 68.21C11.04 68.72 8.89 68.95 6.76 69.25C5.78 69.39 5.03 68.93 4.53 68.07V65.36C4.72 64.37 4.97 63.38 5.1 62.38C5.4 60.14 6.08 58.02 7.28 56.1C7.89 55.12 8.57 54.18 9.27 53.27C9.73 52.67 10.3 52.15 10.81 51.61C10.25 51.01 9.75 50.46 9.23 49.93C7.59 48.25 6.6 46.16 5.81 44.02C5.26 42.51 5.06 40.87 4.73 39.29C4.63 38.8 4.59 38.3 4.52 37.81C4.52 36.96 4.52 36.1 4.52 35.25L4.5 35.23ZM8.38 65.84C8.56 65.84 8.66 65.86 8.74 65.84C10.47 65.38 12.26 65.05 13.93 64.42C16.31 63.51 18.33 62.06 19.64 59.76C20.69 57.92 21.8 57.76 23.11 58.68C25.83 60.6 28.8 62.01 31.85 63.21C35.57 64.66 39.35 65.98 43.16 67.18C46.89 68.35 50.73 69.14 54.66 69.25C60.86 69.43 66.9 68.48 72.68 66.17C74.89 65.29 77.04 64.19 79.09 62.99C80.88 61.94 82.59 60.7 84.18 59.36C85.82 57.98 87.31 56.42 88.79 54.85C89.73 53.85 90.53 52.7 91.4 51.6C90.6 50.61 89.81 49.67 89.05 48.7C87.58 46.81 85.83 45.21 84.01 43.66C81.7 41.69 79.17 40.06 76.48 38.71C71.32 36.13 65.84 34.71 60.09 34.14C53.59 33.49 47.34 34.63 41.23 36.62C37.37 37.88 33.58 39.4 29.81 40.91C27.45 41.86 25.18 43.01 23.14 44.56C22.06 45.38 20.83 45.13 20.04 44.02C19.4 43.11 18.81 42.14 18.02 41.38C16.67 40.07 15.05 39.11 13.26 38.52C11.71 38.01 10.11 37.64 8.42 37.18C8.42 37.65 8.41 37.9 8.42 38.14C8.56 40.45 9.12 42.64 10.1 44.74C11.2 47.09 12.7 49.05 15.04 50.3C16.02 50.82 16.03 52.43 15.04 52.95C12.71 54.17 11.19 56.1 10.15 58.44C9.74 59.36 9.5 60.36 9.11 61.29C8.49 62.76 8.52 64.3 8.37 65.86L8.38 65.84ZM32.07 24.61C33.47 28.1 34.8 31.42 36.16 34.83C42.08 32.85 48.09 31.13 54.42 30.66C47.45 27.01 39.86 25.73 32.07 24.61ZM38.63 75.6C42.99 75.23 47.2 74.43 50.99 72.33C47.63 71.52 44.28 70.7 40.93 69.88C40.53 69.78 40.3 69.88 40.05 70.21C39.36 71.09 39.14 72.13 38.98 73.19C38.87 73.95 38.76 74.71 38.64 75.6H38.63Z" fill="white"/>
<path d="M57.47 51.5401C57.74 49.4801 57.84 47.3801 58.32 45.3701C58.77 43.5101 59.57 41.72 60.33 39.94C60.66 39.16 61.24 38.4801 61.77 37.8101C62.4 37.0201 63.69 36.9601 64.56 37.6101C65.2 38.0901 65.19 39.1301 64.63 40.0001C64.1 40.8301 63.57 41.6701 63.18 42.5601C62.24 44.7001 61.69 46.9401 61.55 49.2801C61.5 50.2001 61.22 51.1301 61.32 52.0301C61.56 54.16 61.8 56.3201 62.35 58.3801C62.81 60.1001 63.53 61.7801 64.63 63.2401C65.26 64.0801 65.19 65.1401 64.53 65.6101C63.58 66.2801 62.3 66.21 61.72 65.31C60.98 64.18 60.32 62.9901 59.71 61.7801C58.1 58.5601 57.63 55.1001 57.47 51.5201V51.5401Z" fill="white"/>
<path d="M53.78 62.82C52.98 62.82 52.32 62.36 52.02 61.67C50.49 58.08 49.81 54.33 50.01 50.43C50.08 49.03 50.14 47.6 50.49 46.25C50.97 44.38 51.63 42.55 52.36 40.77C52.77 39.76 53.45 38.84 54.05 37.91C54.55 37.15 55.97 36.92 56.76 37.43C57.46 37.88 57.69 38.84 57.13 39.71C55.85 41.69 55.04 43.86 54.39 46.09C54.12 47.02 54.01 48.01 53.93 48.98C53.71 51.54 53.72 54.1 54.3 56.61C54.61 57.97 55.14 59.29 55.66 60.6C56.08 61.64 55.12 62.83 53.78 62.81V62.82Z" fill="white"/>
<path d="M72.81 49.99C70.63 49.99 68.75 48.44 68.94 46.55C69.08 45.14 69.95 44.32 71.13 43.88C73.04 43.16 75.41 43.6 76.46 46.08C76.73 46.73 76.13 48.55 75.44 49.04C74.61 49.63 73.7 50.03 72.81 49.99Z" fill="white"/>
</svg>
