<svg width="116" height="107" viewBox="0 0 116 107" fill="none" xmlns="http://www.w3.org/2000/svg">
<g clip-path="url(#clip0_614_374)">
<path d="M104.761 43.6405C103.986 43.7714 103.294 44.2054 102.838 44.8471C102.382 45.4888 102.199 46.2857 102.329 47.0626C102.736 49.5195 102.941 52.0058 102.942 54.4963C102.951 65.8484 98.6179 76.7724 90.8346 85.0234C86.1739 77.7638 79.2074 72.289 71.0592 69.4825C75.1222 66.7716 78.2066 62.8229 79.8563 58.2203C81.5059 53.6177 81.6334 48.6055 80.2197 43.9248C78.806 39.2441 75.9263 35.1432 72.0063 32.2286C68.0863 29.3141 63.3341 27.7404 58.4524 27.7404C53.5706 27.7404 48.8184 29.3141 44.8984 32.2286C40.9785 35.1432 38.0987 39.2441 36.6851 43.9248C35.2714 48.6055 35.3988 53.6177 37.0485 58.2203C38.6982 62.8229 41.7826 66.7716 45.8456 69.4825C37.6974 72.289 30.7309 77.7638 26.0701 85.0234C20.1143 78.6923 16.1393 70.7529 14.6356 62.185C13.1319 53.617 14.1654 44.7956 17.6086 36.8092C21.0517 28.8228 26.7537 22.0211 34.011 17.2435C41.2683 12.4658 49.7633 9.92129 58.4474 9.92394C60.932 9.92465 63.4123 10.13 65.8632 10.5381C66.2506 10.6112 66.6487 10.6063 67.0342 10.5235C67.4197 10.4408 67.7849 10.2819 68.1084 10.0561C68.4318 9.83036 68.7072 9.54227 68.9182 9.20869C69.1292 8.87511 69.2718 8.50273 69.3375 8.11333C69.4032 7.72392 69.3908 7.3253 69.301 6.94076C69.2111 6.55622 69.0456 6.19348 68.8142 5.87375C68.5828 5.55401 68.2901 5.2837 67.9532 5.0786C67.6162 4.87351 67.2419 4.73775 66.852 4.67926C58.4661 3.25582 49.857 3.98031 41.8257 6.78534C33.7944 9.59037 26.6019 14.3848 20.9173 20.7225C15.2326 27.0603 11.2406 34.7355 9.31263 43.034C7.38464 51.3325 7.58332 59.9847 9.89019 68.1856C12.1971 76.3865 16.5372 83.8696 22.5067 89.9389C28.4762 96.0081 35.8813 100.466 44.0328 102.898C52.1844 105.33 60.8176 105.657 69.1293 103.849C77.441 102.041 85.161 98.1562 91.5713 92.5561C91.8926 93.2297 92.4018 92.5561 92.7281 91.5112C98.8627 85.8156 103.487 78.6809 106.184 70.7496C108.881 62.8184 109.566 54.3397 108.178 46.0771C108.047 45.3003 107.614 44.6072 106.973 44.1503C106.333 43.6934 105.537 43.51 104.761 43.6405ZM41.6383 50.5343C41.6383 47.204 42.6242 43.9484 44.4712 41.1794C46.3182 38.4103 48.9434 36.2521 52.0149 34.9776C55.0863 33.7032 58.4661 33.3697 61.7267 34.0194C64.9874 34.6691 67.9825 36.2728 70.3333 38.6277C72.6841 40.9826 74.285 43.983 74.9336 47.2493C75.5821 50.5156 75.2493 53.9013 73.977 56.9781C72.7048 60.0549 70.5503 62.6847 67.7861 64.535C65.0218 66.3852 61.772 67.3728 58.4474 67.3728C53.9894 67.3728 49.7139 65.5987 46.5616 62.4409C43.4093 59.2831 41.6383 55.0001 41.6383 50.5343ZM30.485 89.1637C33.386 84.3314 37.4856 80.333 42.3854 77.5573C47.2852 74.7815 52.8184 73.3228 58.4474 73.3228C64.0765 73.3228 69.6097 74.7815 74.5095 77.5573C79.4093 80.333 83.5089 84.3314 86.4099 89.1637C78.5015 95.5878 68.6292 99.0936 58.4474 99.0936C48.2657 99.0936 38.3934 95.5878 30.485 89.1637Z" fill="white"/>
<path d="M105.874 17.9368C105.726 17.4636 105.441 17.0464 105.056 16.7392C104.67 16.4319 104.202 16.249 103.712 16.214L93.3056 15.3639L89.295 5.55425C89.1079 5.09445 88.7898 4.70122 88.3811 4.42448C87.9724 4.14775 87.4915 4 86.9996 4C86.5076 4 86.0267 4.14775 85.618 4.42448C85.2093 4.70122 84.8912 5.09445 84.7041 5.55425L80.6935 15.3604L70.2871 16.214C69.7969 16.2492 69.3285 16.4327 68.9428 16.7406C68.5572 17.0485 68.2721 17.4665 68.1246 17.9402C67.9709 18.4128 67.9591 18.9207 68.0907 19.4C68.2222 19.8793 68.4913 20.3085 68.8639 20.6335L76.809 27.5474L74.3909 37.8895C74.2775 38.3734 74.3087 38.8806 74.4805 39.3466C74.6524 39.8127 74.9572 40.2168 75.3565 40.5077C75.7507 40.8029 76.2241 40.9708 76.7144 40.9895C77.2048 41.0082 77.6893 40.8768 78.1044 40.6124L86.9996 35.0862L95.9085 40.6211C96.3237 40.8855 96.8082 41.0169 97.2985 40.9983C97.7889 40.9796 98.2622 40.8116 98.6565 40.5164C99.0557 40.2255 99.3605 39.8214 99.5324 39.3554C99.7043 38.8893 99.7355 38.3822 99.622 37.8982L97.2039 27.5562L105.135 20.6335C105.508 20.3083 105.778 19.8785 105.91 19.3984C106.041 18.9184 106.029 18.4098 105.874 17.9368ZM103.778 19.0486L95.3679 26.3797C95.2244 26.5048 95.1176 26.6673 95.0591 26.8495C95.0007 27.0317 94.9927 27.2266 95.0363 27.413L97.6063 38.373C97.6288 38.4557 97.6251 38.5434 97.5957 38.6239C97.5662 38.7044 97.5126 38.7735 97.4423 38.8215C97.3785 38.8713 97.301 38.8998 97.2205 38.9029C97.14 38.906 97.0605 38.8837 96.9932 38.839L87.5419 32.9707C87.3787 32.8694 87.191 32.8158 86.9996 32.8158C86.8081 32.8158 86.6204 32.8694 86.4572 32.9707L77.0059 38.8373C76.9386 38.882 76.8591 38.9043 76.7786 38.9012C76.6981 38.898 76.6206 38.8696 76.5569 38.8198C76.485 38.773 76.4296 38.7044 76.3985 38.6238C76.3675 38.5432 76.3625 38.4548 76.3841 38.3712L78.9542 27.4113C78.9977 27.2249 78.9898 27.03 78.9314 26.8478C78.8729 26.6656 78.7661 26.5031 78.6226 26.3779L70.2128 19.0469C70.1469 18.9926 70.0993 18.9189 70.0767 18.836C70.0541 18.7531 70.0576 18.6651 70.0867 18.5843C70.1093 18.5047 70.1558 18.4342 70.2199 18.3825C70.284 18.3309 70.3624 18.3008 70.4443 18.2963L81.4846 17.3957C81.6748 17.38 81.8571 17.3116 82.0113 17.198C82.1655 17.0843 82.2857 16.9299 82.3586 16.7516L86.6127 6.34845C86.6423 6.27144 86.6943 6.20528 86.7618 6.15863C86.8293 6.11199 86.9092 6.08703 86.9909 6.08703C87.0727 6.08703 87.1526 6.11199 87.22 6.15863C87.2875 6.20528 87.3395 6.27144 87.3692 6.34845L91.6233 16.7516C91.6961 16.9299 91.8163 17.0843 91.9705 17.198C92.1247 17.3116 92.307 17.38 92.4973 17.3957L103.538 18.2963C103.619 18.3008 103.698 18.3309 103.762 18.3825C103.826 18.4342 103.873 18.5047 103.895 18.5843C103.926 18.6645 103.931 18.7522 103.91 18.8354C103.889 18.9186 103.842 18.9931 103.778 19.0486Z" fill="white"/>
</g>
<defs>
<clipPath id="clip0_614_374">
<rect width="115.607" height="106.594" fill="white"/>
</clipPath>
</defs>
</svg>
