<svg width="120" height="108" viewBox="0 0 120 108" fill="none" xmlns="http://www.w3.org/2000/svg">
<g clip-path="url(#clip0_616_400)">
<path d="M60.5292 107.628C40.5722 107.628 18.5296 107.166 17.3026 106.153C15.8086 104.953 15.6034 102.102 15.6034 82.6526C15.6034 70.1786 15.2878 59.4832 15.0018 58.2532C14.5018 56.6532 13.603 56.053 11.703 56.053C9.31381 56.0854 6.93964 55.671 4.703 54.8303C3.04708 54.2759 1.61256 53.2049 0.609247 51.7756C0.263968 51.2376 0.069852 50.6158 0.0506528 49.9768C0.0314535 49.3378 0.187518 48.7055 0.499872 48.1477C1.11687 47.1287 8.2667 40.7295 15.7987 34.4485C56.6127 0.689487 57.4157 0.0480957 58.7557 0.0480957H58.869H58.996C60.4861 0.459716 61.9042 1.10111 63.1971 1.94849C66.5351 4.01049 98.5964 30.3825 110.396 40.9485C116.562 46.3485 119.139 48.9101 119.129 50.8391C119.123 51.8831 118.352 52.7564 117.197 53.7454C115.224 55.4244 113.272 56.0452 109.996 56.0452C106.047 56.0452 105.393 56.3608 104.598 58.6448C104.026 59.9698 103.598 70.4592 103.598 83.0452C103.598 93.9132 103.597 99.3682 103.324 102.294C103.043 105.274 102.461 105.619 101.402 106.245C99.6532 107.203 79.6152 107.628 60.5292 107.628ZM51.578 68.1038C53.193 68.1038 55.0348 68.1437 57.1678 68.1907H57.2811L57.6483 68.1995C58.4353 68.2175 59.2483 68.2342 60.1053 68.2512C70.3243 68.4512 75.9049 68.9562 76.7049 69.7512C77.4409 70.4882 78.0179 76.735 78.2049 86.051C78.3849 93.651 78.5975 101.444 78.8065 101.551C79.3065 101.989 86.2443 102.342 91.6503 102.342C93.3421 102.44 95.0393 102.343 96.7089 102.052C97.4549 101.518 98.0225 92.7083 98.3085 77.2463L98.9081 53.2463L101.308 52.1458C103.497 51.3997 105.797 51.0282 108.109 51.0461C110.632 51.0461 112.609 50.6458 112.609 50.1458C112.609 49.4728 99.1094 37.9926 86.5604 27.6096C74.0114 17.2266 60.1305 6.0481 59.3065 6.0481C58.6015 6.0481 50.864 11.8613 42.41 18.7483C33.863 25.8073 22.3885 35.1251 16.3065 40.0481C9.86951 45.2671 5.70495 48.8783 5.70495 49.2483C5.6969 49.2991 5.70893 49.3505 5.73815 49.3928C6.00615 49.7928 7.58217 50.2931 9.40417 50.5491C11.4862 50.8601 14.8053 51.4719 16.6053 51.8489L20.1053 52.5491L20.4042 77.2493L20.6053 102.055H40.6053V87.0549C40.6053 86.4056 40.6053 85.7787 40.6053 85.1741C40.6053 84.9021 40.6053 84.6334 40.6053 84.3684C40.5853 76.1544 40.5762 72.0324 42.6132 69.9924C44.1862 68.4054 46.979 68.1038 51.578 68.1038ZM46.8046 73.05L46.4042 86.2502C46.2042 93.5162 46.2042 100.156 46.4042 100.75C46.6952 101.723 50.049 102.05 59.703 102.05H72.6034V73.05H46.8046Z" fill="white"/>
</g>
<defs>
<clipPath id="clip0_616_400">
<rect width="119.186" height="107.805" fill="white"/>
</clipPath>
</defs>
</svg>
