<svg width="95" height="95" viewBox="0 0 95 95" fill="none" xmlns="http://www.w3.org/2000/svg">
<g clip-path="url(#clip0_614_368)">
<path d="M67.4499 94.4095C61.1119 94.4095 52.7714 91.5732 43.9674 86.4222C34.8597 81.0368 26.6562 74.2517 19.6569 66.3168C11.9929 57.5688 6.23269 48.5862 2.99869 40.3392C-0.245311 32.0732 -0.849499 24.8037 1.2565 19.3177C1.8615 17.5927 3.82813 14.9016 6.52213 12.1176C8.57337 9.84082 10.9853 7.91612 13.6588 6.41833C15.6728 5.54733 16.6017 5.1615 17.5397 5.1615C18.6218 5.26266 19.678 5.55117 20.6608 6.01501C22.1668 6.61001 25.532 9.2543 29.235 12.7533C32.938 16.2523 35.8915 19.5751 36.7585 21.2201C39.2705 26.0391 38.5382 29.6439 34.0592 34.5199C31.0122 37.7649 30.1588 39.4049 30.6588 41.0199C31.6588 44.0699 37.2423 50.2334 41.7213 54.5844C44.1089 56.9308 46.6272 59.1395 49.2643 61.2015C51.6843 63.0475 53.4479 64.0228 54.3659 64.0228C55.1799 64.0228 57.3763 62.4092 59.2643 60.4232C60.9045 58.5793 62.8715 57.0538 65.0651 55.9232C65.6082 55.7185 66.1839 55.617 66.7643 55.6234C70.5553 55.6234 76.1321 59.2674 82.0651 65.6234C83.9413 67.4545 85.6283 69.4696 87.1003 71.639C87.8736 72.9307 88.2445 74.4238 88.1647 75.9271C88.0938 77.8864 87.5566 79.8007 86.5983 81.5111C85.5129 83.5509 84.147 85.4283 82.5397 87.0883C80.8764 88.8382 78.9926 90.3661 76.9381 91.6342C75.0473 92.835 72.9532 93.6804 70.7585 94.1283C69.6666 94.3246 68.5592 94.4183 67.4499 94.4095ZM18.5202 11.7162C17.8868 11.7112 17.2567 11.8124 16.6569 12.016C15.5569 12.416 12.6875 14.885 10.2565 17.516L5.95767 22.2162L6.35611 28.8158C7.45611 47.6938 30.0565 74.8162 53.7565 85.7162C57.7177 87.6331 62.0377 88.695 66.4362 88.8324C68.9217 88.9173 71.3836 88.323 73.5573 87.1146C78.2193 84.1776 82.1588 79.3686 82.1588 76.6146C82.1588 75.4696 78.7755 71.3426 75.6335 67.9916C72.3755 64.5196 68.5847 61.0179 67.4557 61.0179C66.8167 61.0179 64.1545 63.1179 61.7545 65.5179C58.6825 68.4559 56.5636 70.0482 54.1686 70.0482C51.0926 70.0482 47.5742 67.4782 40.8522 61.7162C37.2787 58.6122 34.0086 55.1771 31.0827 51.4564C28.6135 48.5192 26.583 45.2391 25.0553 41.7191L23.7545 38.0189L28.4557 33.2191C31.0047 30.6761 33.1549 27.6535 33.1549 26.6185C33.1549 25.6825 30.2408 22.0816 27.7448 19.2816C25.0558 16.2646 21.6649 12.8499 20.1549 12.0179C19.6385 11.7991 19.0807 11.6969 18.5202 11.7162ZM74.7624 44.8324C73.6514 44.8324 72.4722 43.2317 70.5612 39.1127C67.3872 31.9777 61.0954 25.7285 55.2624 23.9135C52.0924 22.9695 50.2393 21.8682 49.5963 20.5502C49.4374 20.2171 49.3517 19.8538 49.3463 19.4847C49.341 19.1157 49.4159 18.75 49.5651 18.4125C49.8191 17.7235 50.5858 17.3578 51.7858 17.3578C53.8268 17.3578 56.9857 18.3732 60.6647 20.2142C68.8647 24.3192 75.7659 33.235 76.3659 40.514C76.5709 43.555 76.2574 44.5198 74.9694 44.8138C74.9006 44.825 74.832 44.8322 74.7624 44.8324ZM92.3561 44.015C90.8421 44.015 89.9502 42.9852 89.0612 40.2152C83.2762 22.0622 72.3738 10.724 56.6608 6.51501C50.9558 4.91501 50.1608 4.41529 50.1608 2.42029C50.1608 0.782288 50.9607 0.052124 52.7487 0.052124C54.4247 0.052124 57.0811 0.687624 61.3581 2.11462C65.4651 3.56499 69.3714 5.53162 72.9831 7.96619C76.5581 10.2762 79.8109 13.0501 82.6569 16.2152C87.4569 21.9152 92.9565 33.3152 93.7565 39.2152C94.1235 41.9092 94.2367 43.1427 93.7897 43.6527C93.5317 43.9547 93.0691 44.015 92.3561 44.015Z" fill="white"/>
</g>
<defs>
<clipPath id="clip0_614_368">
<rect width="94.027" height="94.461" fill="white"/>
</clipPath>
</defs>
</svg>
