<?xml version="1.0" encoding="UTF-8"?>
<svg width="10px" height="10px" viewBox="0 0 10 10" version="1.1" xmlns="http://www.w3.org/2000/svg" xmlns:xlink="http://www.w3.org/1999/xlink">
    <title>icon-refresh-type03</title>
    <g id="icon-set最新整理" stroke="none" stroke-width="1" fill="none" fill-rule="evenodd">
        <g id="images/h5/icon-set" transform="translate(-175.000000, -556.000000)" fill="#FFFFFF" fill-rule="nonzero">
            <g id="icon-refresh-type03" transform="translate(175.000000, 556.000000)">
                <path d="M7.3129032,2.52580645 C6.682621,1.93564516 5.8646774,1.6121371 4.9969355,1.61290323 C3.4352823,1.61427419 2.0870968,2.68504032 1.7148589,4.1703629 C1.6877621,4.2784879 1.5914315,4.35483871 1.4799597,4.35483871 L0.3246573,4.35483871 C0.1734879,4.35483871 0.0586492,4.21760081 0.0866129,4.06903226 C0.5228427,1.7525 2.5567137,0 5,0 C6.3396774,0 7.5562702,0.52693548 8.4539315,1.38477823 L9.1739919,0.66471774 C9.4788105,0.35989919 10,0.57578629 10,1.006875 L10,3.70967742 C10,3.97691532 9.7833669,4.19354839 9.516129,4.19354839 L6.8133266,4.19354839 C6.3822379,4.19354839 6.1663508,3.67235887 6.4711694,3.36752016 L7.3129032,2.52580645 Z M0.483871,5.8064516 L3.1866734,5.8064516 C3.6177621,5.8064516 3.8336492,6.3276411 3.5288306,6.6324798 L2.6870968,7.4742137 C3.317379,8.0643952 4.1353831,8.3879032 5.0031452,8.3871169 C6.5639919,8.3857056 7.9127218,7.3156653 8.2851411,5.8296774 C8.3122379,5.7215524 8.4085685,5.6452016 8.5200403,5.6452016 L9.6753629,5.6452016 C9.8265323,5.6452016 9.941371,5.7824395 9.9134073,5.9310081 C9.4771573,8.2475 7.4432863,10 5,10 C3.6603226,10 2.4437298,9.4730645 1.5460685,8.6152218 L0.8260081,9.3352823 C0.5211895,9.6401008 0,9.4242137 0,8.993125 L0,6.2903226 C0,6.0230847 0.2166331,5.8064516 0.483871,5.8064516 Z" id="Shape"></path>
            </g>
        </g>
    </g>
</svg>