<?xml version="1.0" encoding="UTF-8"?>
<svg width="31px" height="25px" viewBox="0 0 31 25" version="1.1" xmlns="http://www.w3.org/2000/svg" xmlns:xlink="http://www.w3.org/1999/xlink">
    <title>icon-add-card</title>
    <g id="icon-set最新整理" stroke="none" stroke-width="1" fill="none" fill-rule="evenodd">
        <g id="images/h5/icon-set" transform="translate(-684.000000, -847.000000)" fill="#FFFFFF" fill-rule="nonzero">
            <g id="icon-add-card" transform="translate(684.000000, 847.000000)">
                <path d="M25.5434783,15.2173913 C28.2435055,15.2206853 30.4314886,17.4086684 30.4347826,20.1086957 C30.4347826,22.8100885 28.2448711,25 25.5434783,25 C22.8420855,25 20.6521739,22.8100885 20.6521739,20.1086957 C20.6521739,17.4073029 22.8420855,15.2173913 25.5434783,15.2173913 Z M25.5434783,17.3913043 C25.2433235,17.3913043 25,17.6346279 25,17.9347826 L25,17.9347826 L25,19.5652174 L23.3695652,19.5652174 C23.0694105,19.5652174 22.826087,19.8085409 22.826087,20.1086957 C22.826087,20.4088504 23.0694105,20.6521739 23.3695652,20.6521739 L23.3695652,20.6521739 L25,20.6521739 L25,22.2826087 C25,22.5827635 25.2433235,22.826087 25.5434783,22.826087 C25.843633,22.826087 26.0869565,22.5827635 26.0869565,22.2826087 L26.0869565,22.2826087 L26.0869565,20.6521739 L27.7173913,20.6521739 C28.0175461,20.6521739 28.2608696,20.4088504 28.2608696,20.1086957 C28.2608696,19.8085409 28.0175461,19.5652174 27.7173913,19.5652174 L27.7173913,19.5652174 L26.0869565,19.5652174 L26.0869565,17.9347826 C26.0869565,17.6346279 25.843633,17.3913043 25.5434783,17.3913043 Z M27.7173913,0 C28.6178556,0 29.3478261,0.729970517 29.3478261,1.63043478 L29.3478261,1.63043478 L29.3478261,15.5005435 C27.6397946,14.0880755 25.2900583,13.7375606 23.2441589,14.5900471 C21.1982595,15.4425337 19.7926433,17.3578311 19.5929348,19.5652174 L19.5929348,19.5652174 L1.63043478,19.5652174 C0.729970517,19.5652174 0,18.8352469 0,17.9347826 L0,17.9347826 L0,1.63043478 C0,0.729970517 0.729970517,0 1.63043478,0 L1.63043478,0 L27.7173913,0 Z M10.1646709,12.8418685 C9.21740921,11.8041742 7.63529016,11.6597149 6.51576087,12.5086957 C6.04896006,12.1524498 5.47850961,11.9585462 4.89130435,11.9564682 C3.39053057,11.9564682 2.17391304,13.1731393 2.17391304,14.673913 C2.17391304,16.1746868 3.39053057,17.3913579 4.89130435,17.3913579 C5.47850961,17.3892799 6.04896006,17.1953763 6.51576087,16.8391304 C7.63529016,17.6881112 9.21740921,17.5436519 10.1646709,16.5059576 C11.1119326,15.4682633 11.1119326,13.8795628 10.1646709,12.8418685 Z M4.89130435,13.0434783 C5.79176861,13.0434783 6.52173913,13.7734488 6.52173913,14.673913 C6.52173913,15.5743773 5.79176861,16.3043478 4.89130435,16.3043478 C3.99084008,16.3043478 3.26086957,15.5743773 3.26086957,14.673913 C3.26086957,13.7734488 3.99084008,13.0434783 4.89130435,13.0434783 Z M19.0217391,13.0434783 L13.5869565,13.0434783 C13.2868018,13.0434783 13.0434783,13.2868018 13.0434783,13.5869565 L13.0434783,13.5869565 L13.0434783,15.7608696 C13.0434783,16.0610243 13.2868018,16.3043478 13.5869565,16.3043478 L13.5869565,16.3043478 L19.0217391,16.3043478 C19.3218939,16.3043478 19.5652174,16.0610243 19.5652174,15.7608696 L19.5652174,15.7608696 L19.5652174,13.5869565 C19.5652174,13.2868018 19.3218939,13.0434783 19.0217391,13.0434783 L19.0217391,13.0434783 Z M7.06521739,13.3314765 C7.68052333,12.9325797 8.49836504,12.9494634 9.09446958,13.3733689 C9.69057413,13.7972745 9.93074587,14.5327718 9.69039056,15.1983058 C9.45003525,15.8638399 8.78326191,16.309585 8.03597352,16.3043014 C7.68891958,16.3024936 7.35054603,16.2020912 7.06521739,16.016258 C7.58911195,15.1891578 7.58911195,14.1585767 7.06521739,13.3314765 Z M18.4782609,14.1304348 L18.4782609,15.2173913 L14.1304348,15.2173913 L14.1304348,14.1304348 L18.4782609,14.1304348 Z M22.826087,8.69565217 L20.6521739,8.69565217 L20.6521739,9.7826087 L22.826087,9.7826087 L22.826087,8.69565217 Z M27.173913,8.69565217 L25,8.69565217 L25,9.7826087 L27.173913,9.7826087 L27.173913,8.69565217 Z M18.4782609,8.69565217 L16.3043478,8.69565217 L16.3043478,9.7826087 L18.4782609,9.7826087 L18.4782609,8.69565217 Z M14.1304348,8.69565217 L11.9565217,8.69565217 L11.9565217,9.7826087 L14.1304348,9.7826087 L14.1304348,8.69565217 Z M7.06521739,2.17391304 L3.80434783,2.17391304 C2.90388356,2.17391304 2.17391304,2.90388356 2.17391304,3.80434783 L2.17391304,3.80434783 L2.17391304,5.97826087 C2.17391304,6.87872514 2.90388356,7.60869565 3.80434783,7.60869565 L3.80434783,7.60869565 L7.06521739,7.60869565 C7.96568166,7.60869565 8.69565217,6.87872514 8.69565217,5.97826087 L8.69565217,5.97826087 L8.69565217,3.80434783 C8.69565217,2.90388356 7.96568166,2.17391304 7.06521739,2.17391304 L7.06521739,2.17391304 Z M7.60869565,5.43478261 L7.60869565,5.97826087 C7.60869565,6.27841562 7.36537215,6.52173913 7.06521739,6.52173913 L7.06521739,6.52173913 L6.52173913,6.52173913 L6.52173913,5.43478261 L7.60869565,5.43478261 Z M5.43478261,3.26086957 L5.43478261,6.52173913 L3.80434783,6.52173913 C3.50419307,6.52173913 3.26086957,6.27841562 3.26086957,5.97826087 L3.26086957,5.97826087 L3.26086957,3.80434783 C3.26086957,3.50419307 3.50419307,3.26086957 3.80434783,3.26086957 L3.80434783,3.26086957 L5.43478261,3.26086957 Z M27.173913,3.26086957 L26.0869565,3.26086957 L26.0869565,5.43478261 L27.173913,5.43478261 L27.173913,3.26086957 Z M25,3.26086957 L23.9130435,3.26086957 L23.9130435,5.43478261 L25,5.43478261 L25,3.26086957 Z M22.826087,3.26086957 L21.7391304,3.26086957 L21.7391304,5.43478261 L22.826087,5.43478261 L22.826087,3.26086957 Z M20.6521739,3.26086957 L19.5652174,3.26086957 L19.5652174,5.43478261 L20.6521739,5.43478261 L20.6521739,3.26086957 Z M18.4782609,3.26086957 L17.3913043,3.26086957 L17.3913043,5.43478261 L18.4782609,5.43478261 L18.4782609,3.26086957 Z M16.3043478,3.26086957 L15.2173913,3.26086957 L15.2173913,5.43478261 L16.3043478,5.43478261 L16.3043478,3.26086957 Z M7.06521739,3.26086957 C7.36537215,3.26086957 7.60869565,3.50419307 7.60869565,3.80434783 L7.60869565,3.80434783 L7.60869565,4.34782609 L6.52173913,4.34782609 L6.52173913,3.26086957 L7.06521739,3.26086957 Z" id="形状结合"></path>
            </g>
        </g>
    </g>
</svg>