<?xml version="1.0" encoding="UTF-8"?>
<svg width="40px" height="40px" viewBox="0 0 40 40" version="1.1" xmlns="http://www.w3.org/2000/svg" xmlns:xlink="http://www.w3.org/1999/xlink">
    <title>theme-icon/leftmenu/sports/icon-awcmbc</title>
    <g id="theme-icon/leftmenu/sports/icon-awcmbc" stroke="none" stroke-width="1" fill="none" fill-rule="evenodd">
        <path d="M10.6635198,8 C12.4075674,9.10601656 14.2156034,9.11839206 15.9869188,9.15410424 C17.1470722,9.17779449 18.3439462,9.05121075 19.4713783,8.7824855 C23.0663632,7.9250398 26.3759453,8.07213151 29.7320645,9.38145994 C32.7947822,10.7339258 34.2414292,12.1708988 35.6157256,14.3984897 C36.1116357,15.2234055 36.4319413,16.0688293 36.6420851,16.9149602 C36.6453572,16.9174353 36.995112,18.1337707 37,19.9052358 L37,19.951202 C36.9980206,22.550058 36.239249,26.320344 32.5664599,29.2384881 C32.5246493,29.2731395 32.4821116,29.306023 32.4399374,29.3399672 C32.3697683,29.3940658 32.3017806,29.4488717 32.2297937,29.5022631 C31.5328291,30.0400672 30.7849646,30.5029111 29.9789288,30.8837231 C29.974566,30.8861982 29.9709303,30.8883197 29.9665674,30.8907948 C29.5350093,31.0926923 29.0914533,31.2740818 28.6304459,31.4314276 C24.2290616,32.9327531 18.5959006,31.375561 15.8153135,27.7661566 C14.4551964,26.0003488 12.8587584,24.3374345 10.3024943,23.8841374 C10.9805533,23.1387785 11.7255092,22.8682853 12.5388164,22.859092 C12.8872623,22.8551319 13.2357664,22.8731223 13.5843753,22.8980827 L14.6305624,22.9788926 L15.1539788,23.0068909 C16.3370372,23.0479069 16.9583791,22.6041566 17.2201499,21.5837079 C17.4342929,20.7485381 17.0976266,19.6647974 16.0476351,19.22034 C13.6146214,18.1903444 12.7453244,19.0672373 9.84584979,18.1942338 C7.47973309,17.4817583 6.14143014,15.7364585 5.2895845,14.3146898 C4.40283609,12.8352866 4.05162701,10.9354698 4,10.0819135 C7.80803723,13.7224335 10.6238906,13.8567961 13.7909531,12.054569 C12.4610123,11.0037119 11.2590483,9.87435863 10.6635198,8 Z M30.7535157,13.0825845 L22.1230796,13.0825845 C21.9376587,13.0825845 21.7584184,13.1147609 21.5842682,13.1791135 C21.4104815,13.2434661 21.2519647,13.3336305 21.108718,13.4492531 C20.9654712,13.5648756 20.8425844,13.6999454 20.7400575,13.8544625 C20.6371671,14.0086259 20.5651801,14.1726897 20.5240966,14.3463004 L17.8467636,25.6536225 C17.8042259,25.8335977 17.7976816,26.0008438 17.8274944,26.1550072 C17.8569436,26.3091707 17.9162056,26.4428261 18.0052803,26.55562 C18.0943551,26.6680603 18.2106977,26.7564568 18.354308,26.8208094 C18.4975548,26.885162 18.6618886,26.9173384 18.8473096,26.9173384 L28.6382627,26.9173384 C29.2137947,26.9173384 29.7238841,26.8158592 30.1685308,26.6132545 C30.6131775,26.4106498 30.9952901,26.1581895 31.3148686,25.8558736 C31.6348106,25.5539113 31.8907642,25.2257836 32.0838201,24.8718442 C32.2765125,24.5182583 32.4095793,24.1869484 32.482657,23.8782679 L32.5968181,23.3959768 C32.7124335,22.9073212 32.7622427,22.460035 32.745882,22.0548257 C32.7295213,21.6496163 32.6633515,21.28613 32.5477361,20.9647205 C32.4317571,20.6429573 32.2757853,20.3600886 32.0790937,20.1157608 C31.8824021,19.8710794 31.6588062,19.6624637 31.4093969,19.4884995 C31.8544072,19.0320202 32.2139784,18.5479611 32.4870198,18.036676 C32.7600612,17.5253908 32.9494815,17.0476963 33.0545533,16.6039461 L33.166533,16.1312018 C33.2988727,15.571829 33.3068712,15.0987311 33.1898015,14.7129689 C33.0727318,14.3272068 32.8858566,14.0135761 32.6288123,13.7724305 C32.371768,13.531285 32.0743673,13.3559064 31.7366103,13.2462948 C31.3988533,13.1373903 31.0709128,13.0825845 30.7535157,13.0825845 Z M30.1598051,15.5909226 C30.5168314,15.5909226 30.6524431,15.7712514 30.5673677,16.1312018 L30.4553879,16.6039461 C30.3775839,16.9317202 30.2568785,17.2262572 30.0925446,17.4864964 C29.9285743,17.7470892 29.728247,17.9705554 29.4922897,18.1572488 C29.2563325,18.3435885 28.9912896,18.4867908 28.6964339,18.586502 C28.4015783,18.6862132 28.0856355,18.7360688 27.7482421,18.7360688 L24.6433502,18.7360688 L24.0449132,21.2638541 L28.3106857,21.2638541 C28.6477155,21.2638541 28.9400262,21.3137097 29.1876177,21.4134209 C29.4352092,21.5131321 29.6326279,21.6559808 29.7806011,21.8426741 C29.9278472,22.0290139 30.0238298,22.2524801 30.0678218,22.5130729 C30.1118138,22.7736657 30.0954532,23.0678491 30.0176491,23.3959768 L29.9082144,23.8588207 C29.8762202,23.9938905 29.8311374,24.1003198 29.7733297,24.177048 C29.7151584,24.2544833 29.6558965,24.3089355 29.5951802,24.3411118 C29.5348275,24.3736417 29.4708391,24.3927353 29.403215,24.3990999 C29.3352273,24.405818 29.2785103,24.4086467 29.2323368,24.4086467 L20.7207883,24.4086467 L22.8087736,15.5909226 L30.1598051,15.5909226 Z M6.48609496,22.2701948 C6.85497673,22.4188853 7.2363065,22.4002716 7.60805309,22.3622386 L7.88472195,22.3323834 C8.47878629,22.2698212 9.03300103,22.253607 9.4528301,22.9183177 C8.39883927,23.2849862 7.39792973,23.4341994 6.48609496,22.2701948 Z" id="Combined-Shape" fill="#000000"></path>
    </g>
</svg>