<svg width="119" height="119" viewBox="0 0 119 119" fill="none" xmlns="http://www.w3.org/2000/svg">
<path d="M94.4574 118.958C93.8616 118.939 93.268 118.87 92.684 118.75C90.984 118.47 83.2926 114.772 74.7836 110.15C66.7116 105.664 59.4832 102.05 58.8832 102.05C58.1832 102.05 50.5612 105.907 41.8832 110.65C32.1412 115.865 25.598 118.857 23.932 118.858C23.8832 118.858 23.8358 118.855 23.7875 118.848C23.4699 118.82 23.1607 118.725 22.8832 118.568C22.6057 118.411 22.3659 118.195 22.1781 117.938C21.3661 116.846 21.0777 114.709 21.2777 111.211C21.7088 106.023 22.4119 100.862 23.3832 95.7473C24.5369 90.0611 25.4043 84.3203 25.9828 78.5471C25.9828 76.2121 23.6102 73.2701 13.8832 63.5471C6.05718 55.5951 1.31718 50.6365 0.883181 49.9465C0.471133 49.2399 0.205859 48.4581 0.101931 47.6467C-0.00199736 46.8354 0.0570692 46.0115 0.277712 45.2239C0.376878 44.807 0.562508 44.416 0.822634 44.0754C1.08276 43.7349 1.41134 43.4527 1.78748 43.2473C2.53948 42.7473 8.00565 41.7261 18.9886 40.0471C26.9006 38.9291 35.4389 37.5671 36.6879 37.0471C38.2639 36.3601 41.0955 31.5359 46.7875 19.8469C53.9355 4.85892 56.8751 0.0471191 58.8871 0.0471191C59.7916 0.39867 60.5864 0.985788 61.1879 1.74731C63.6529 4.82931 67.5126 12.2209 72.9886 24.3469C76.5546 32.1589 79.0441 36.4321 80.3871 37.0471C81.6271 37.4621 89.8026 38.8631 98.4886 40.0471C107.329 41.2531 115.313 42.7583 116.287 43.2473C116.829 43.653 117.267 44.1824 117.563 44.7913C117.859 45.4001 118.005 46.0707 117.989 46.7473C117.989 48.7683 114.708 52.7291 104.489 63.0471C96.8886 70.7471 90.9886 76.9467 90.9886 77.1467C90.9886 77.3467 92.1045 83.2569 93.2875 89.5149L93.3871 90.0491C96.5671 106.784 97.3743 113.496 96.5883 116.649C96.1363 118.352 95.7504 118.958 94.4574 118.958ZM58.9847 96.053C59.6647 96.053 67.109 99.8096 75.684 104.653C84.143 109.274 91.0059 112.759 91.6449 112.759C91.6584 112.761 91.6721 112.758 91.684 112.751C91.873 112.464 90.9292 105.219 89.3832 95.9514C87.7782 86.3234 86.6836 78.163 86.7836 76.551C86.8386 75.322 87.5727 73.9433 89.3207 71.7903C91.0687 69.6373 93.9458 66.5899 98.9808 61.5559C105.823 54.7129 110.981 49.0349 110.981 48.3499C110.981 47.8499 110.27 47.3873 106.731 46.6653C103.223 45.9503 97.0178 44.982 87.4828 43.551C81.7148 42.689 76.0126 41.3812 75.2836 40.7512C74.6566 40.0202 71.0828 32.829 67.4828 25.051C64.0468 17.407 60.3108 9.97763 59.4828 9.15063C59.0728 8.73963 58.7832 8.5647 58.5082 8.5647C57.7642 8.5647 57.0688 9.89761 55.4828 13.6516C54.8458 15.0136 53.8715 17.1368 52.6625 19.7698L52.5629 19.9797C51.0489 23.2797 49.3327 27.0229 47.7777 30.3499C47.3887 31.1609 47.0414 31.8976 46.7054 32.6116L46.6332 32.761C42.2722 42.033 42.2725 42.033 25.1625 44.469C23.9085 44.648 22.5454 44.842 21.0804 45.054C12.7804 46.191 6.37506 47.263 6.18006 47.554C5.85806 47.882 12.0296 54.5233 18.2816 60.9543C19.0946 61.7783 19.8475 62.5348 20.5765 63.2668L20.9847 63.679C32.1847 74.936 32.183 74.9359 29.141 92.3479C28.891 93.7719 28.6413 95.1813 28.3773 96.7483C26.8423 105.358 25.9887 112.365 26.2777 112.648C26.2966 112.662 26.3206 112.669 26.3441 112.666C27.1441 112.666 34.1437 109.145 42.2777 104.649C50.4767 100.072 58.2797 96.053 58.9847 96.053ZM69.6996 78.7424C69.3576 78.7424 68.9281 78.3856 68.3871 77.6516C67.6081 76.5646 67.1295 71.293 66.9965 66.552C66.8635 61.811 67.0625 56.5364 67.7875 55.4524C68.282 54.7503 68.9801 54.2166 69.7875 53.9241C70.7002 53.5803 71.6697 53.4107 72.6449 53.4241C73.8985 53.4254 75.141 53.6601 76.309 54.1155C77.4515 54.5413 78.472 55.2398 79.2816 56.1516C80.2857 57.4918 80.8571 59.1061 80.9203 60.7795C81.0555 62.3563 80.6552 63.9332 79.7836 65.2542C78.4474 66.518 76.7862 67.3838 74.9847 67.7542C71.8397 68.5392 71.484 68.9966 71.184 72.6536C70.903 76.9766 70.4726 78.7424 69.6996 78.7424ZM73.3051 58.0696C72.7096 58.0479 72.1285 58.256 71.682 58.6506C71.3758 59.1036 71.1633 59.6133 71.057 60.1497C70.9507 60.686 70.9545 61.2382 71.0648 61.7737C71.0836 62.1188 71.1754 62.4561 71.3344 62.7629C71.4933 63.0698 71.7157 63.3395 71.9867 63.554C72.4222 63.81 72.919 63.9419 73.4242 63.9358C73.9389 63.9289 74.446 63.8153 74.9144 63.6018C75.3828 63.3883 75.802 63.0795 76.1449 62.6956C76.3855 62.4364 76.5675 62.1291 76.6781 61.7932C76.7887 61.4574 76.825 61.1016 76.7855 60.7502C76.5962 59.9749 76.1483 59.287 75.516 58.8C74.8836 58.3131 74.105 58.0555 73.307 58.0706L73.3051 58.0696ZM44.7855 78.136C43.3265 78.136 41.5029 74.6424 38.6859 66.4514C35.7069 57.7854 34.7855 55.0107 35.2855 54.3167C35.3455 54.2442 35.4228 54.1885 35.5101 54.1536C35.5975 54.1186 35.6921 54.1063 35.7855 54.1174C36.0894 54.1349 36.3912 54.1814 36.6859 54.2571C37.6859 54.4571 39.3777 57.1229 40.9867 61.0569C42.5047 64.7029 43.9951 67.5569 44.3851 67.5569C44.7751 67.5569 46.3855 64.6569 47.7855 61.0569C49.5145 56.9959 51.1955 54.4571 52.2855 54.2571C52.5155 54.2055 52.7511 54.1762 52.9867 54.1692C53.0919 54.1569 53.1979 54.1696 53.2972 54.2063C53.3966 54.243 53.485 54.3025 53.557 54.3801C53.789 54.6801 53.7451 55.3222 53.3851 56.7522C52.4771 60.3752 46.2813 77.0582 45.5863 77.7522C45.4857 77.8664 45.362 77.9595 45.225 78.0256C45.0879 78.0918 44.9395 78.1293 44.7875 78.137L44.7855 78.136ZM59.8676 77.9924C59.3973 77.9852 58.9314 77.9033 58.4867 77.7502C57.2637 77.2402 56.9867 75.0922 56.9867 66.2502C56.9867 60.1422 57.2949 55.0497 57.6879 54.6497C58.1685 54.3144 58.7509 54.1607 59.3344 54.2151C59.5529 54.2151 59.7716 54.2279 59.9887 54.2532C61.2957 54.5532 61.4894 56.3004 61.2894 65.9534C61.2592 69.9294 61.0244 73.9006 60.5883 77.8528C60.3654 77.9627 60.1174 78.0117 59.8695 77.9934L59.8676 77.9924Z" fill="white"/>
</svg>
