<svg width="43" height="42" viewBox="0 0 43 42" fill="none" xmlns="http://www.w3.org/2000/svg">
<path d="M2.82921 16.1646C3.91013 11.7524 6.56963 7.88886 10.3052 5.30399C14.0408 2.71911 18.5938 1.59194 23.1039 2.13545C27.6139 2.67895 31.7688 4.85549 34.7833 8.25381C37.7979 11.6521 39.4634 16.0369 39.4652 20.5796C39.4652 20.753 39.4652 20.9265 39.4652 21.1002C39.7323 21.5874 39.9726 22.0887 40.185 22.6021C40.3007 22.8953 40.4042 23.1885 40.5032 23.4858C41.2069 18.2848 39.8197 13.0169 36.6458 8.83696C33.4718 4.657 28.7701 1.90601 23.5711 1.18701C18.3722 0.468013 13.1003 1.83968 8.91099 5.00132C4.72173 8.16297 1.95693 12.8566 1.22266 18.0534C1.67944 17.3613 2.21894 16.7275 2.82921 16.166V16.1646Z" fill="white"/>
<path d="M17.2751 38.8094C13.4409 38.0488 9.94497 36.0966 7.28616 33.2312C6.47462 33.0419 5.69048 32.75 4.95264 32.3626C6.64259 34.6482 8.8043 36.5436 11.2912 37.9203C13.778 39.297 16.5318 40.1228 19.3659 40.3417C18.6244 39.8953 17.9249 39.3824 17.2762 38.8094H17.2751Z" fill="white"/>
<path d="M8.44287 20.3152C8.43021 20.263 8.40404 20.2151 8.367 20.1763C8.32995 20.1375 8.28333 20.1091 8.23184 20.094C8.18034 20.079 8.12578 20.0777 8.07364 20.0904C8.0215 20.1031 7.97363 20.1293 7.93484 20.1664C7.78605 20.3067 7.63342 20.4473 7.48874 20.5793C7.44503 20.6218 7.415 20.6763 7.4025 20.7359C7.39 20.7955 7.3956 20.8575 7.4186 20.9139C7.44152 20.9709 7.48085 21.0197 7.53159 21.0542C7.58233 21.0888 7.64219 21.1075 7.70357 21.1079C7.78309 21.1048 7.85905 21.0741 7.9184 21.0211L8.35683 20.6081C8.39614 20.5714 8.42493 20.5249 8.4402 20.4733C8.45547 20.4218 8.45668 20.3671 8.44369 20.3149L8.44287 20.3152Z" fill="white"/>
<path d="M6.61334 21.4592L6.20039 21.9012C6.15405 21.9509 6.12533 22.0144 6.11868 22.082C6.11202 22.1497 6.1278 22.2176 6.16357 22.2754C6.19934 22.3332 6.25313 22.3776 6.31663 22.4017C6.38013 22.4259 6.44982 22.4285 6.51496 22.4092C6.56471 22.3923 6.6099 22.3642 6.64704 22.327L7.05998 21.885C7.1084 21.8256 7.13274 21.7502 7.12817 21.6737C7.1236 21.5972 7.09046 21.5253 7.03532 21.4721C6.97963 21.4172 6.90527 21.3855 6.82716 21.3832C6.74905 21.3809 6.67296 21.4083 6.61416 21.4597L6.61334 21.4592Z" fill="white"/>
<path d="M5.34916 22.8097L4.93622 23.2681C4.90086 23.3096 4.87694 23.3596 4.8668 23.4132C4.85666 23.4668 4.86066 23.5221 4.8784 23.5736C4.8976 23.6223 4.92915 23.6652 4.96994 23.698C5.01073 23.7308 5.05936 23.7524 5.11104 23.7607C5.16273 23.769 5.21568 23.7637 5.26468 23.7453C5.31369 23.7269 5.35707 23.6961 5.39054 23.6558C5.52262 23.507 5.65496 23.3544 5.80348 23.2056C5.85242 23.1467 5.87747 23.0716 5.87366 22.9952C5.86986 22.9187 5.83748 22.8464 5.78293 22.7927C5.72186 22.739 5.64215 22.7116 5.561 22.7162C5.47984 22.7208 5.40376 22.7571 5.34916 22.8173V22.8097Z" fill="white"/>
<path d="M8.95082 19.8444C9.00373 19.8604 9.05998 19.862 9.11371 19.849C9.16743 19.8359 9.21669 19.8087 9.25634 19.7702L9.71066 19.3572C9.76901 19.3022 9.80376 19.2268 9.80759 19.1467C9.81142 19.0666 9.78405 18.9881 9.73121 18.9278C9.67708 18.8743 9.60535 18.8423 9.52938 18.8378C9.45341 18.8333 9.37838 18.8565 9.31827 18.9032C9.16537 19.0402 9.00863 19.1717 8.85573 19.3161C8.81507 19.3517 8.78458 19.3975 8.76737 19.4487C8.75016 19.4999 8.74685 19.5548 8.75777 19.6077C8.76869 19.6607 8.79345 19.7097 8.82953 19.75C8.86561 19.7902 8.91172 19.8201 8.96315 19.8367L8.95082 19.8444Z" fill="white"/>
<path d="M11.7669 17.4988C11.8171 17.5188 11.8716 17.5255 11.9251 17.5182C11.9786 17.511 12.0294 17.49 12.0724 17.4574L12.564 17.1064C12.6255 17.0589 12.6665 16.9897 12.6788 16.913C12.691 16.8363 12.6736 16.7578 12.6301 16.6935C12.5963 16.6493 12.5524 16.6139 12.5021 16.5902C12.4523 16.5696 12.398 16.5622 12.3444 16.5688C12.2909 16.5753 12.24 16.5955 12.1966 16.6274L11.7009 16.999C11.658 17.0303 11.6244 17.0724 11.6033 17.1211C11.5822 17.1697 11.5746 17.2232 11.5811 17.2758C11.5928 17.3248 11.6156 17.3704 11.6478 17.4091C11.6801 17.4478 11.7208 17.4785 11.7669 17.4988Z" fill="white"/>
<path d="M10.3339 18.6426C10.384 18.6615 10.4383 18.6669 10.4912 18.6581C10.5441 18.6494 10.5938 18.627 10.6353 18.593L11.1143 18.2047C11.1719 18.1537 11.2082 18.0829 11.2158 18.0063C11.2235 17.9298 11.202 17.8531 11.1556 17.7918C11.1058 17.7327 11.0351 17.695 10.9583 17.6865C10.8814 17.678 10.8042 17.6994 10.7427 17.7463L10.247 18.1025C10.1881 18.1523 10.1503 18.2226 10.1411 18.2992C10.1319 18.3758 10.152 18.4531 10.1974 18.5154C10.2326 18.5601 10.2803 18.5932 10.3344 18.6105L10.3339 18.6426Z" fill="white"/>
<path d="M12.5727 24.8005L12.1597 25.2424C12.1292 25.3002 12.1179 25.3662 12.1277 25.4308C12.1374 25.4954 12.1676 25.5552 12.2138 25.6014C12.2599 25.6476 12.3197 25.6777 12.3843 25.6875C12.4489 25.6972 12.5149 25.6859 12.5727 25.6554C12.713 25.5151 12.8535 25.3704 12.9856 25.2424C13.0062 25.1391 13.0229 25.0317 13.0476 24.9287C13.0354 24.8824 13.0144 24.839 12.9856 24.8007C12.9293 24.749 12.8557 24.7203 12.7792 24.7203C12.7028 24.7202 12.6291 24.7488 12.5727 24.8005Z" fill="white"/>
<path d="M8.5619 28.5381L8.07881 28.9217C8.03647 28.954 8.00372 28.9972 7.98408 29.0467C7.96443 29.0961 7.95862 29.15 7.96729 29.2026C7.97283 29.2425 7.98622 29.2809 8.00668 29.3157C8.02715 29.3504 8.05429 29.3808 8.08654 29.405C8.11878 29.4291 8.1555 29.4467 8.19457 29.4567C8.23365 29.4666 8.2743 29.4687 8.31419 29.4629C8.36862 29.454 8.41985 29.4312 8.46298 29.3968L8.94196 29.0086C8.99958 28.9576 9.03585 28.8867 9.04352 28.8102C9.05119 28.7336 9.0297 28.657 8.98334 28.5956C8.93378 28.534 8.86255 28.4938 8.78425 28.483C8.70594 28.4723 8.62649 28.4919 8.56218 28.5378L8.5619 28.5381Z" fill="white"/>
<path d="M10.2514 27.2784C10.1997 27.262 10.1447 27.2596 10.0919 27.2712C10.039 27.2827 9.99004 27.308 9.94996 27.3444C9.80117 27.4814 9.64854 27.617 9.49153 27.7573C9.45964 27.784 9.43344 27.8168 9.41449 27.8538C9.39553 27.8908 9.38421 27.9313 9.38119 27.9727C9.37817 28.0142 9.38352 28.0558 9.39691 28.0952C9.41031 28.1346 9.43148 28.1708 9.45917 28.2018C9.48686 28.2328 9.5205 28.258 9.55809 28.2757C9.59568 28.2935 9.63646 28.3035 9.678 28.3052C9.71954 28.3069 9.76099 28.3002 9.7999 28.2855C9.8388 28.2709 9.87437 28.2485 9.90447 28.2199L10.367 27.8069C10.4072 27.7708 10.4373 27.7249 10.4545 27.6736C10.4716 27.6224 10.4753 27.5676 10.4651 27.5146C10.4519 27.4605 10.4255 27.4106 10.3882 27.3694C10.3508 27.3281 10.3038 27.2969 10.2514 27.2784Z" fill="white"/>
<path d="M7.427 29.6286C7.37682 29.6086 7.32233 29.6019 7.2688 29.6091C7.21528 29.6164 7.16453 29.6373 7.12147 29.6699L6.62989 30.0333C6.5863 30.065 6.55188 30.1077 6.53012 30.157C6.50837 30.2064 6.50006 30.2606 6.50603 30.3142C6.51633 30.3942 6.5575 30.4671 6.62077 30.5173C6.68403 30.5675 6.76439 30.5909 6.84471 30.5827C6.89891 30.5784 6.95066 30.5583 6.99351 30.5249L7.49331 30.1574C7.53472 30.1238 7.56689 30.0803 7.5868 30.0308C7.6067 29.9814 7.61368 29.9277 7.60707 29.8748C7.60046 29.8219 7.58049 29.7716 7.54903 29.7285C7.51757 29.6855 7.47567 29.6512 7.42727 29.6288L7.427 29.6286Z" fill="white"/>
<path d="M11.2829 26.0848L10.8445 26.4977C10.8159 26.5261 10.7931 26.5599 10.7776 26.5971C10.7621 26.6344 10.7542 26.6743 10.7542 26.7146C10.7542 26.7549 10.7621 26.7948 10.7776 26.8321C10.7931 26.8693 10.8159 26.9031 10.8445 26.9315C10.8732 26.9603 10.9074 26.9832 10.945 26.9988C10.9826 27.0144 11.023 27.0224 11.0637 27.0224C11.1044 27.0224 11.1447 27.0144 11.1824 26.9988C11.22 26.9832 11.2541 26.9603 11.2829 26.9315L11.7249 26.5185C11.7554 26.4608 11.7667 26.3948 11.757 26.3302C11.7472 26.2656 11.7171 26.2058 11.6709 26.1596C11.6247 26.1134 11.5649 26.0833 11.5003 26.0735C11.4357 26.0638 11.3697 26.075 11.312 26.1056L11.2829 26.0848Z" fill="white"/>
<path d="M13.0062 25.2339C12.8691 25.3827 12.7294 25.523 12.5932 25.6469C12.5348 25.7027 12.4571 25.7339 12.3763 25.7339C12.2955 25.7339 12.2178 25.7027 12.1594 25.6469C12.1078 25.5905 12.0791 25.5168 12.0791 25.4404C12.0791 25.3639 12.1078 25.2903 12.1594 25.2339L12.5724 24.7955C12.6283 24.7429 12.7021 24.7137 12.7789 24.7137C12.8556 24.7137 12.9294 24.7429 12.9853 24.7955C13.0173 24.8317 13.0387 24.876 13.0473 24.9235C13.3363 23.5634 13.8292 22.2548 14.5094 21.042C13.3407 22.3299 12.143 23.6109 10.8833 24.8665C8.85563 26.8819 6.75338 28.8065 4.65112 30.5866C4.85362 30.7269 5.06407 30.8592 5.27478 30.9995L5.62169 30.7559C5.68776 30.7146 5.76696 30.6998 5.84349 30.7143C5.92003 30.7288 5.98828 30.7717 6.03463 30.8343C6.07689 30.9001 6.09231 30.9795 6.07774 31.0564C6.06316 31.1332 6.01968 31.2015 5.95626 31.2472L5.86529 31.305C7.00926 31.8436 8.25805 32.1228 9.52245 32.1228C10.7868 32.1228 12.0356 31.8436 13.1796 31.305C12.6297 29.3281 12.5561 27.2489 12.9648 25.238L13.0062 25.2339ZM7.50089 30.1569C7.33648 30.2808 7.17043 30.4035 7.00109 30.5244C6.93676 30.5679 6.85826 30.5853 6.78155 30.5731C6.70484 30.5608 6.63568 30.5198 6.58814 30.4583C6.55541 30.4166 6.53535 30.3664 6.53033 30.3136C6.52347 30.26 6.53138 30.2055 6.5532 30.156C6.57503 30.1065 6.60994 30.0639 6.65418 30.0328L7.12905 29.6653C7.19369 29.616 7.27528 29.5944 7.35585 29.6052C7.43643 29.6161 7.5094 29.6585 7.55871 29.7231C7.60802 29.7878 7.62963 29.8694 7.61878 29.9499C7.60794 30.0305 7.56553 30.1035 7.50089 30.1528V30.1569ZM8.95455 29.0088L8.47557 29.4214C8.41417 29.4678 8.33754 29.4893 8.26099 29.4816C8.18444 29.4739 8.1136 29.4377 8.06262 29.3801C8.02898 29.3365 8.00633 29.2854 7.99659 29.2313C7.98804 29.1781 7.99388 29.1237 8.01349 29.0736C8.0331 29.0235 8.06578 28.9795 8.10811 28.9463C8.26512 28.8224 8.42186 28.6904 8.57887 28.5627C8.60897 28.5369 8.64385 28.5173 8.68152 28.505C8.71919 28.4928 8.75891 28.488 8.79841 28.4911C8.83792 28.4941 8.87643 28.505 8.91175 28.5229C8.94708 28.5409 8.97852 28.5656 9.00428 28.5957C9.03005 28.6258 9.04963 28.6607 9.06191 28.6983C9.0742 28.736 9.07894 28.7757 9.07588 28.8152C9.07281 28.8547 9.06199 28.8932 9.04404 28.9286C9.02609 28.9639 9.00136 28.9953 8.97126 29.0211L8.95455 29.0088ZM10.3586 27.8031L9.89607 28.2158C9.83429 28.2674 9.75484 28.2931 9.67451 28.2872C9.59419 28.2814 9.51929 28.2445 9.46565 28.1844C9.41201 28.1243 9.38384 28.0458 9.38711 27.9653C9.39037 27.8848 9.4248 27.8088 9.48312 27.7532C9.64014 27.6212 9.79276 27.4847 9.94155 27.3403C9.98164 27.3039 10.0306 27.2786 10.0834 27.267C10.1363 27.2555 10.1913 27.2579 10.243 27.2742C10.2935 27.2933 10.3387 27.3242 10.3747 27.3645C10.4107 27.4048 10.4364 27.4532 10.4496 27.5055C10.4616 27.5587 10.4595 27.6141 10.4435 27.6662C10.4276 27.7184 10.3983 27.7657 10.3586 27.8031ZM11.7133 26.5393L11.2672 26.9523C11.2095 26.9828 11.1435 26.9941 11.0789 26.9843C11.0143 26.9746 10.9545 26.9445 10.9083 26.8983C10.8621 26.8521 10.832 26.7923 10.8222 26.7277C10.8125 26.6631 10.8238 26.5971 10.8543 26.5393L11.3045 26.0891C11.3629 26.0333 11.4406 26.0021 11.5214 26.0021C11.6022 26.0021 11.6799 26.0333 11.7383 26.0891C11.7899 26.1455 11.8186 26.2191 11.8186 26.2956C11.8186 26.372 11.7899 26.4457 11.7383 26.5021C11.7311 26.5151 11.7225 26.5276 11.7133 26.5393Z" fill="white"/>
<path d="M14.5381 16.5489C14.3315 16.4086 14.1251 16.2722 13.9103 16.136L13.5511 16.3755C13.5135 16.3931 13.4728 16.403 13.4314 16.4044C13.3899 16.4058 13.3486 16.3987 13.31 16.3836C13.2714 16.3686 13.2362 16.3458 13.2067 16.3167C13.1771 16.2876 13.1538 16.2528 13.1381 16.2144C13.1145 16.1567 13.1085 16.0933 13.121 16.0323C13.1335 15.9712 13.1639 15.9153 13.2083 15.8716L13.2993 15.8096C11.6981 15.0417 9.89818 14.7892 8.14749 15.0867C6.3968 15.3843 4.78143 16.2174 3.52389 17.4712C2.26635 18.725 1.42849 20.3379 1.12572 22.0877C0.822958 23.8375 1.07017 25.6381 1.83333 27.2416L1.89525 27.1547C1.91803 27.1216 1.9471 27.0934 1.98081 27.0715C2.01452 27.0497 2.0522 27.0347 2.0917 27.0274C2.1312 27.0201 2.17175 27.0206 2.21104 27.029C2.25033 27.0374 2.28758 27.0535 2.32066 27.0762C2.35375 27.099 2.38203 27.1281 2.40388 27.1618C2.42573 27.1955 2.44073 27.2332 2.44802 27.2727C2.45531 27.3122 2.45475 27.3527 2.44637 27.392C2.43798 27.4313 2.42195 27.4686 2.39917 27.5016C2.31696 27.6173 2.23805 27.737 2.15557 27.8579C2.28353 28.0686 2.41588 28.2708 2.56851 28.4815C4.36094 26.3625 6.26992 24.292 8.29545 22.2701C10.3212 20.2413 12.4103 18.3289 14.5381 16.5489ZM11.7006 16.9619L12.1963 16.5944C12.2398 16.5625 12.2907 16.5423 12.3442 16.5358C12.3977 16.5292 12.452 16.5366 12.5019 16.5572C12.5417 16.5712 12.5782 16.5933 12.6091 16.6221C12.64 16.651 12.6645 16.6859 12.6812 16.7247C12.6979 16.7635 12.7063 16.8053 12.706 16.8476C12.7057 16.8898 12.6967 16.9315 12.6794 16.9701C12.6581 17.0299 12.6174 17.0808 12.5638 17.1148L12.0815 17.4658C12.0157 17.5142 11.9334 17.5349 11.8525 17.5233C11.7716 17.5118 11.6984 17.469 11.6486 17.4042C11.5989 17.3393 11.5766 17.2575 11.5865 17.1763C11.5963 17.0952 11.6376 17.0212 11.7015 16.9701L11.7006 16.9619ZM10.247 18.1018L10.726 17.7135C10.7875 17.6667 10.8647 17.6453 10.9415 17.6537C11.0184 17.6622 11.0891 17.6999 11.1389 17.759C11.1853 17.8204 11.2068 17.897 11.1991 17.9736C11.1914 18.0501 11.1552 18.121 11.0975 18.1719L10.6186 18.5556C10.5563 18.6005 10.4796 18.6208 10.4033 18.6123C10.327 18.6039 10.2566 18.5675 10.2056 18.5101C10.1758 18.4756 10.1546 18.4346 10.1437 18.3903C10.1334 18.3373 10.1376 18.2825 10.1558 18.2316C10.174 18.1808 10.2055 18.1363 10.247 18.1018ZM8.84293 19.3075C8.99583 19.1672 9.15257 19.0348 9.30547 18.8945C9.36748 18.8454 9.44575 18.8216 9.52461 18.8277C9.60347 18.8339 9.67709 18.8696 9.73074 18.9277C9.75958 18.9564 9.78245 18.9906 9.79806 19.0282C9.81367 19.0658 9.8217 19.1062 9.8217 19.1469C9.8217 19.1876 9.81367 19.2279 9.79806 19.2656C9.78245 19.3032 9.75958 19.3373 9.73074 19.3661L9.27643 19.779C9.23471 19.814 9.1849 19.838 9.13153 19.8488C9.07817 19.8597 9.02295 19.857 8.9709 19.841C8.89455 19.8155 8.83134 19.7609 8.79501 19.689C8.75869 19.6172 8.75218 19.534 8.77689 19.4573C8.78536 19.404 8.80819 19.354 8.84293 19.3127V19.3075ZM3.47386 26.023L3.12285 26.5146C3.09056 26.5576 3.04777 26.5916 2.99859 26.6133C2.94941 26.6349 2.89548 26.6436 2.84198 26.6385C2.76115 26.6292 2.68723 26.5884 2.63621 26.5251C2.58519 26.4617 2.56117 26.3808 2.56933 26.2998C2.57616 26.2462 2.59601 26.1951 2.62715 26.151L2.99461 25.6553C3.03004 25.6141 3.07467 25.5818 3.12488 25.561C3.1751 25.5402 3.22949 25.5315 3.28369 25.5356C3.33619 25.5434 3.38579 25.5646 3.42772 25.5972C3.46966 25.6297 3.50253 25.6725 3.52318 25.7214C3.54424 25.7718 3.55075 25.8272 3.54199 25.8812C3.53322 25.9352 3.50953 25.9857 3.47359 26.0269L3.47386 26.023ZM4.60966 24.5941L4.22138 25.0648C4.17947 25.1175 4.12132 25.1549 4.05597 25.1712C3.99062 25.1874 3.92173 25.1816 3.86002 25.1547C3.7983 25.1277 3.74721 25.0812 3.71469 25.0222C3.68217 24.9632 3.67004 24.8952 3.68019 24.8286C3.68856 24.7748 3.70981 24.7237 3.74212 24.6798C3.8742 24.5228 4.00244 24.3494 4.13451 24.205C4.1838 24.1452 4.25418 24.1068 4.33106 24.0975C4.40794 24.0883 4.48543 24.109 4.54746 24.1554C4.59213 24.1914 4.62637 24.2387 4.64665 24.2924C4.66803 24.342 4.67585 24.3965 4.6693 24.4502C4.66275 24.5038 4.64208 24.5548 4.60938 24.5979L4.60966 24.5941ZM5.80327 23.2147C5.66626 23.3634 5.53474 23.5161 5.39033 23.669C5.35262 23.7079 5.30559 23.7366 5.2537 23.7522C5.2018 23.7679 5.14677 23.77 5.09382 23.7584C5.04087 23.7468 4.99176 23.7219 4.95115 23.686C4.91053 23.6501 4.87976 23.6045 4.86175 23.5533C4.84306 23.5026 4.83857 23.4477 4.84876 23.3946C4.85895 23.3415 4.88343 23.2922 4.91957 23.2519C5.05164 23.0977 5.18929 22.9449 5.33251 22.7935C5.3871 22.7333 5.46319 22.6969 5.54434 22.6923C5.6255 22.6877 5.70521 22.7152 5.76628 22.7688C5.82083 22.8226 5.85321 22.8948 5.85701 22.9713C5.86082 23.0478 5.83577 23.1229 5.78683 23.1818L5.80327 23.2147ZM7.04237 21.8849L6.62943 22.3233C6.57353 22.3758 6.49969 22.4051 6.42296 22.4051C6.34623 22.4051 6.27239 22.3758 6.21649 22.3233C6.18786 22.2949 6.16514 22.2611 6.14964 22.2239C6.13414 22.1866 6.12615 22.1467 6.12615 22.1064C6.12615 22.0661 6.13414 22.0262 6.14964 21.9889C6.16514 21.9517 6.18786 21.9179 6.21649 21.8895L6.62861 21.4473C6.68591 21.4012 6.75791 21.3773 6.83138 21.3801C6.90485 21.3828 6.97487 21.4119 7.02859 21.4621C7.08232 21.5123 7.11614 21.5802 7.12385 21.6533C7.13157 21.7264 7.11266 21.7999 7.0706 21.8602L7.04237 21.8849ZM7.69069 21.1127C7.62954 21.1137 7.56952 21.0961 7.51862 21.0621C7.46772 21.0282 7.42834 20.9796 7.40572 20.9228C7.38273 20.8664 7.37712 20.8044 7.38962 20.7448C7.40212 20.6852 7.43215 20.6306 7.47587 20.5882C7.62055 20.4435 7.77317 20.3032 7.92196 20.1753C7.96144 20.1392 8.00947 20.1138 8.0615 20.1016C8.11354 20.0893 8.16784 20.0905 8.21927 20.1051C8.25822 20.1164 8.29452 20.1354 8.32606 20.1609C8.3576 20.1864 8.38375 20.2179 8.40298 20.2536C8.42221 20.2893 8.43414 20.3285 8.43807 20.3689C8.442 20.4092 8.43786 20.45 8.42588 20.4887C8.41069 20.5393 8.38231 20.5849 8.34367 20.6208L7.90525 21.0338C7.84554 21.0862 7.7698 21.1168 7.69042 21.1206L7.69069 21.1127Z" fill="white"/>
<path d="M16.2655 18.1471C16.1457 18.0024 16.0219 17.8662 15.8895 17.7341L3.74292 29.835C3.87993 29.9588 4.01968 30.0868 4.15586 30.2024C6.291 28.4142 8.40969 26.4854 10.4541 24.4207C12.4986 22.356 14.4685 20.274 16.2655 18.1471Z" fill="white"/>
<path d="M15.0379 16.9248C12.9069 18.7171 10.7841 20.6418 8.72318 22.7065C6.6623 24.7713 4.73323 26.8615 2.94116 28.9843C3.05954 29.1275 3.18339 29.2651 3.31273 29.3972L15.459 17.2964C15.3229 17.1684 15.1826 17.0481 15.0379 16.9248Z" fill="white"/>
<path d="M30.5504 14.3592C30.8077 13.6958 30.9772 13.0016 31.0543 12.2942C28.8529 11.9791 26.8188 10.9406 25.2726 9.34223C23.669 7.79811 22.6256 5.76374 22.3072 3.56049C20.4419 3.72756 18.6939 4.54209 17.3662 5.86287C16.0385 7.18365 15.2149 8.92739 15.0381 10.7918C17.2391 11.1089 19.2726 12.1474 20.8198 13.7446C21.1482 14.0763 21.4559 14.428 21.7411 14.7976C24.5541 13.7036 27.6474 13.5586 30.5504 14.3847V14.3592Z" fill="white"/>
<path d="M31.0831 11.3118C31.0206 9.26704 30.1787 7.32354 28.7298 5.87931C27.2809 4.43509 25.3348 3.59942 23.2898 3.54346C23.5986 5.49123 24.5393 7.28343 25.9669 8.64399C27.3372 10.0655 29.1331 11.002 31.0831 11.3118Z" fill="white"/>
<path d="M20.1223 14.4633C18.752 13.04 16.9561 12.1007 15.0054 11.787C15.0628 13.831 15.9059 15.7743 17.3594 17.2125C17.4049 17.2621 17.4586 17.3035 17.5082 17.3495C18.4964 16.4871 19.6001 15.7668 20.7874 15.2095C20.5802 14.9482 20.3582 14.6991 20.1223 14.4633Z" fill="white"/>
<path d="M21.9595 15.9539C18.9676 17.1578 16.5317 19.4332 15.127 22.3362C13.7223 25.2392 13.4498 28.5615 14.3625 31.6546C15.2751 34.7478 17.3076 37.3899 20.0633 39.0653C22.8189 40.7407 26.0999 41.3293 29.2661 40.7161C32.4323 40.1029 35.2563 38.332 37.1872 35.7489C39.1181 33.1658 40.0172 29.956 39.7092 26.7457C39.4011 23.5355 37.9079 20.5552 35.521 18.3865C33.1341 16.2178 30.0247 15.0163 26.7997 15.0165C25.1408 15.0124 23.4969 15.3308 21.9595 15.9539ZM17.1659 33.2462C16.5441 32.8661 15.9724 32.4096 15.4642 31.8874C14.6907 29.716 14.5545 27.3687 15.0718 25.1225C15.311 24.6472 15.5871 24.1915 15.8977 23.7595C15.9928 23.6225 16.0794 23.4869 16.1827 23.3466L19.0736 25.0647V25.1348C19.066 26.6886 19.221 28.2389 19.5361 29.7605L17.3018 33.2917C17.2527 33.2668 17.2057 33.2379 17.1615 33.2051L17.1659 33.2462ZM25.81 39.1924C26.3069 39.4478 26.8234 39.6633 27.3546 39.8366C25.0735 39.9356 22.8107 39.3903 20.8251 38.2632L25.6943 39.1263L25.81 39.1924ZM25.7768 38.3375L20.0567 37.2962C19.3738 36.4884 18.7655 35.6203 18.2395 34.7026C18.1074 34.4714 17.9586 34.2442 17.8265 33.9965L20.0978 30.4902L20.2622 30.5357C21.6724 30.9008 23.1024 31.1844 24.5451 31.3851C24.6273 31.3851 24.698 31.4098 24.7599 31.4098L27.4568 36.0681C26.9915 36.7343 26.5166 37.3841 26.0319 38.0174C25.941 38.1043 25.8544 38.2073 25.7634 38.3106L25.7768 38.3375ZM35.3378 36.3221C34.8888 36.7735 34.4041 37.1879 33.8882 37.5612C33.804 36.8913 33.6572 36.2308 33.4498 35.5883L36.3407 30.2192C37.1368 29.8713 37.8963 29.4452 38.6082 28.9472C38.6955 28.8872 38.7723 28.8132 38.8353 28.728C38.6236 31.6 37.3809 34.2987 35.3364 36.3267L35.3378 36.3221ZM35.2098 29.3878L35.5444 30.0033L32.7607 35.1698H32.7111C31.2125 35.4456 29.6919 35.5838 28.1682 35.5828L25.3789 30.8385C25.8374 30.0372 26.2503 29.2525 26.6633 28.4271C26.9523 27.8818 27.2332 27.3368 27.5182 26.7751L33.2725 26.2092C33.9771 27.2314 34.6225 28.2931 35.2054 29.3892L35.2098 29.3878ZM34.0285 23.263C33.7518 23.9774 33.4627 24.6879 33.1736 25.3981L27.5815 25.9736C27.5158 25.8832 27.4455 25.7963 27.3708 25.7133L25.3759 23.4707L24.5747 22.6736L26.1262 18.0107C26.2361 17.9821 26.3479 17.9614 26.4608 17.9487C27.2866 17.8619 28.1542 17.7671 29.0006 17.7175C29.5246 17.6844 30.0501 17.6844 30.574 17.7175L34.4231 22.0373C34.3121 22.4297 34.1801 22.8553 34.0272 23.2641L34.0285 23.263ZM35.3378 19.3396C36.3731 20.3658 37.2124 21.5723 37.8143 22.8999C37.0956 22.4058 36.3257 21.9903 35.5181 21.6608L35.1345 21.5162L31.3139 17.2755C31.3406 17.0907 31.3572 16.9045 31.3635 16.7179C32.8494 17.3186 34.2002 18.2103 35.3367 19.3405L35.3378 19.3396ZM22.9476 16.491C22.9565 16.5017 22.9679 16.5102 22.9808 16.5156C23.8364 16.8148 24.646 17.2318 25.3863 17.7547L23.913 22.1406C23.6157 22.2645 23.3142 22.376 23.0208 22.5081C21.8101 23.0449 20.6421 23.6731 19.5268 24.3873L16.6606 22.6939C16.6606 22.6048 16.6775 22.5164 16.7102 22.4336C16.9001 21.9214 17.0902 21.4052 17.3089 20.9054C17.4784 20.5216 17.6673 20.1466 17.8747 19.7819C18.0117 19.6331 18.1556 19.4805 18.2877 19.3399C19.6051 18.0263 21.2097 17.0369 22.975 16.4496L22.9476 16.491Z" fill="white"/>
</svg>
