<svg width="43" height="42" viewBox="0 0 43 42" fill="none" xmlns="http://www.w3.org/2000/svg">
<path d="M40.1494 27.2941C41.4442 23.1242 41.302 18.6403 39.7457 14.5608C38.1894 10.4813 35.3089 7.04213 31.5657 4.79422" stroke="white" stroke-width="2" stroke-miterlimit="10" stroke-linecap="round"/>
<path d="M6.83838 34.313C8.54435 36.2751 10.6265 37.8753 12.9617 39.0187C15.2969 40.1621 17.8376 40.8257 20.4337 40.97C23.0298 41.1144 25.6285 40.7366 28.076 39.8591C30.5236 38.9816 32.7703 37.6221 34.6833 35.8612" stroke="white" stroke-width="2" stroke-miterlimit="10" stroke-linecap="round" stroke-linejoin="round"/>
<path d="M21.8871 2.00009H21.5177C16.3452 1.99788 11.3835 4.04994 7.72364 7.70509C4.06374 11.3602 2.00523 16.3192 2.00073 21.4918C2.00655 22.7441 2.13154 23.9931 2.37401 25.2217" stroke="white" stroke-width="2" stroke-miterlimit="10" stroke-linecap="round" stroke-linejoin="round"/>
<path d="M34.59 28.0677C33.8771 27.2212 33.1286 27.5418 32.2139 26.7549C31.1982 25.8642 32.3684 25.5995 31.1654 24.9178C29.4117 23.9288 28.531 22.0696 27.5448 20.3825C27.4357 20.2027 27.3913 19.9911 27.4188 19.7826C27.4463 19.5741 27.5442 19.3813 27.6962 19.2359C27.8178 19.1161 27.9763 19.0407 28.146 19.0219C28.3157 19.003 28.4868 19.0419 28.6317 19.1321C29.0771 19.3726 29.4574 19.6053 29.888 19.043C30.3186 18.4808 30.4344 17.9945 29.9715 17.4481C29.7903 17.2312 29.7577 16.5573 29.4368 16.854C29.0626 17.1925 28.5739 17.0233 28.2073 17.4689C27.7619 18.0064 27.0518 17.4007 26.4489 17.3384C26.0837 17.3028 26.0984 17.0414 26.0984 16.7622C26.0984 15.384 26.0427 14 26.0984 12.6219C26.1282 11.823 26.0659 11.1369 25.2077 10.6915C26.1263 10.7686 26.6036 10.1746 26.7943 9.548C26.985 8.92142 27.351 8.42539 27.6199 7.86394C27.6678 7.83061 27.7069 7.7862 27.7339 7.73448C27.761 7.68276 27.7751 7.62528 27.7751 7.56694C27.7751 7.50859 27.761 7.45111 27.7339 7.39939C27.7069 7.34768 27.6678 7.30326 27.6199 7.26993C27.0259 5.95414 25.9498 5.26799 24.727 5.38406C24.1983 5.44537 23.7095 5.69543 23.3505 6.08828C22.9914 6.48113 22.7862 6.99037 22.7726 7.5224C22.7103 8.83513 22.0767 8.61829 21.3174 8.56485C19.9868 8.46993 18.8166 8.69846 17.7118 9.60729C16.0812 10.9467 14.5427 12.3694 13.0457 13.8514C12.5618 14.3751 12.2624 15.0426 12.1934 15.7523C12.1655 15.7523 12.143 15.7701 12.1163 15.808C12.0895 15.8458 12.1163 15.8823 12.2023 15.9149C12.7896 17.7607 12.7799 19.7447 12.1744 21.5847C11.9607 21.941 12.0645 22.3182 12.1062 22.6895C10.9817 24.0048 9.20493 24.4114 8.01078 25.6262C7.23138 26.3221 6.54941 27.1794 5.66451 27.6727C3.64781 28.8103 3.60522 28.7388 4.50905 30.8685C5.10306 32.2644 5.51587 32.5347 6.95636 32.4395C7.19408 32.4395 7.52672 32.5406 7.61858 32.2049C7.68984 31.9466 7.40174 31.8514 7.25671 31.6969C6.43389 30.8356 6.44948 29.885 7.25671 29.0002C7.76546 28.3986 8.4367 27.9563 9.19018 27.7261C9.65364 27.8272 10.0809 27.649 10.4909 27.4973C12.074 26.9331 13.5025 26.0301 15.1509 25.6323C15.8666 25.4631 16.0865 25.5641 16.0183 26.3452C15.9485 27.6821 15.6533 28.9976 15.1451 30.2361C14.6193 31.4241 14.7946 31.742 15.9707 32.3516C16.5663 32.6595 17.1992 32.8891 17.8538 33.0347C18.1928 33.1132 18.5468 33.0988 18.8784 32.9932C19.5762 32.6962 19.5913 32.218 19.1754 31.6626C18.6514 31.0091 18.2982 30.2354 18.1477 29.4113C19.4101 30.0468 20.7821 30.1509 22.1126 30.4181C23.0034 30.6795 22.6056 31.229 22.4096 31.7367C22.0533 32.2358 22.2315 32.5595 22.7512 32.7666C23.0216 32.8477 23.3088 32.855 23.5829 32.7875C24.5015 32.4727 25.6428 31.006 25.5938 30.1152C25.5225 28.8679 24.5126 28.5798 23.5503 28.2322C24.4711 28.2322 25.3146 27.9143 26.1847 27.7481C26.5695 27.7258 26.9553 27.7258 27.3402 27.7481C27.7125 27.7276 28.084 27.8001 28.4213 27.9591C29.8529 28.7432 29.3421 28.4551 30.7974 29.1886C31.2427 29.4143 31.6202 29.9491 32.1814 29.8152C32.9713 29.6935 33.0309 29.3637 33.6962 29.9251C33.8557 30.058 34.044 30.1519 34.2461 30.1994C34.4482 30.2468 34.6586 30.2465 34.8605 30.1985M17.0457 21.9477C16.9419 22.4615 16.4962 22.5773 15.8577 22.91C16.119 22.2327 16.1783 21.7843 16.6983 21.7219C16.7696 21.6969 17.1111 21.6226 17.0457 21.9463V21.9477ZM18.4695 18.1119C18.6 18.0585 18.6418 18.0259 18.6627 18.0348C19.1467 18.2547 19.5746 18.525 19.5534 19.1396C19.5534 19.2078 19.4318 19.3178 19.3513 19.3345C19.1286 19.3938 18.8673 19.0108 18.4692 18.1097L18.4695 18.1119ZM22.116 24.2987C21.3705 24.8482 20.4052 24.7441 19.6063 25.1338C19.5707 25.1516 19.4671 25.0781 19.4309 25.0238C19.2639 24.7655 20.2359 22.9211 20.5388 22.9122C21.201 22.9924 21.611 23.5271 22.1485 23.8358C22.3 23.9304 22.2938 24.1473 22.116 24.2987ZM23.2205 16.1484C23.0047 15.9431 22.7501 15.783 22.4717 15.6774C22.1932 15.5718 21.8964 15.5229 21.5988 15.5335L21.37 15.5572C21.073 15.774 20.776 15.97 20.4792 16.2077C19.9417 16.665 19.3744 16.4861 19.0268 15.8394C18.813 15.4444 19.1634 15.5037 19.2792 15.4177C19.6595 15.1474 20.0664 14.9167 20.4673 14.6692L21.3107 14.6247L22.9413 14.0307C23.4048 13.8731 23.7485 13.8637 23.672 14.5267C23.6274 14.9306 23.6394 15.3406 23.6274 15.7473C23.7967 15.9611 23.9423 16.2403 23.711 16.4304C23.4796 16.6205 23.3457 16.2937 23.206 16.1481L23.2205 16.1484ZM23.957 17.6334C23.6213 17.2437 23.5857 16.9593 23.7936 16.591C24.1945 16.8643 24.1441 17.1792 23.9423 17.6487L23.957 17.6334Z" fill="white"/>
<path d="M33.5652 29.5822C34.3196 29.8118 34.9915 30.2548 35.4998 30.8577C36.3226 31.7484 36.3348 32.6931 35.4998 33.5544C35.3514 33.7089 35.0633 33.8049 35.1346 34.0624C35.2267 34.3981 35.5593 34.2823 35.7998 34.297C37.2373 34.392 37.6531 34.1217 38.2441 32.726C39.1348 30.5966 39.107 30.6678 37.0828 29.5449C36.0943 29.0373 35.1608 28.4292 34.297 27.7303" fill="white"/>
</svg>
