<?xml version="1.0" encoding="UTF-8"?>
<svg width="21.4350288px" height="21.4350288px" viewBox="0 0 21.4350288 21.4350288" version="1.1"
	 xmlns="http://www.w3.org/2000/svg">
    <title>Icon</title>
    <g id="Referral" stroke="none" stroke-width="1" fill="none" fill-rule="evenodd">
        <g id="BJ-Referral-Program" transform="translate(-176, -792)" fill="#000000" fill-rule="nonzero">
            <g id="Icon" transform="translate(176, 792)">
                <path d="M15.8781635,5.71751442 L11.8743687,5.71751442 L11.8743687,7.64191951 L15.8781635,7.64191951 C17.5892077,7.64191951 18.9580117,9.05084775 18.9580117,10.7347022 C18.9580117,12.4185567 17.5549758,13.8274849 15.8781635,13.8274849 L11.8743687,13.8274849 L11.8743687,15.7175144 L15.8781635,15.7175144 C18.6158107,15.7175144 20.8743687,13.4838467 20.8743687,10.7003266 C20.8743687,7.9511821 18.6158107,5.71751442 15.8781635,5.71751442 L15.8781635,5.71751442 Z M6.71751442,11.4601551 L14.7175144,11.4601551 L14.7175144,9.46015511 L6.71751442,9.46015511 L6.71751442,11.4601551 Z M2.47701711,10.6832566 C2.47701711,8.97091286 3.88005299,7.60106911 5.55686531,7.60106911 L9.56066017,7.60106911 L9.56066017,5.71751442 L5.55686531,5.71751442 C2.78498631,5.71751442 0.560660172,7.94353005 0.560660172,10.7175144 C0.560660172,13.457241 2.78498631,15.7175144 5.55686531,15.7175144 L9.56066017,15.7175144 L9.56066017,13.7654441 L5.55686531,13.7654441 C3.84582118,13.7654441 2.47701711,12.3956004 2.47701711,10.6832566 L2.47701711,10.6832566 Z" id="Fill-1" transform="translate(10.7175, 10.7175) rotate(-45) translate(-10.7175, -10.7175)"></path>
            </g>
        </g>
    </g>
</svg>