<svg width="32" height="32" viewBox="0 0 32 32" fill="none" xmlns="http://www.w3.org/2000/svg">
<g clip-path="url(#clip0_92_83)">
<path d="M29.0933 32H2.90667C1.30667 32 0 30.6933 0 29.0933V8.72533C0 7.12533 1.30667 5.816 2.90667 5.816H11.6373L10.0373 1.888C9.89247 1.46449 9.89247 1.00484 10.0373 0.581333C10.1813 0.434667 10.472 0.144 10.7627 0.144H11.3467C11.5698 0.14677 11.7867 0.217751 11.9684 0.347409C12.15 0.477068 12.2876 0.659196 12.3627 0.869333L14.5467 5.816H17.4533L19.6373 0.872C19.928 0.293333 20.3627 0 20.944 0C21.3813 0 21.672 0.293333 21.9627 0.581333C22.0916 0.771258 22.1723 0.989732 22.1979 1.21786C22.2235 1.446 22.1931 1.67692 22.1093 1.89067L20.3627 5.81867H29.0907C30.6907 5.81867 32 7.12533 32 8.72533V29.0907C32 30.6907 30.6933 32 29.0933 32ZM12.944 13.0933H12.6507C12.5067 13.2373 12.36 13.3813 12.36 13.528V23.272C12.36 23.4187 12.5067 23.7093 12.6533 23.7093H12.944C13.088 23.7093 13.088 23.7093 13.2347 23.5627L20.9413 18.6187C21.088 18.472 21.2347 18.3253 21.2347 18.1813C21.2347 18.0373 21.088 17.8907 20.9413 17.7467L13.384 12.8C13.0933 13.0933 12.9493 13.0933 12.9493 13.0933H12.944Z" fill="#F23B3B"/>
</g>
<defs>
<clipPath id="clip0_92_83">
<rect width="32" height="32" fill="white"/>
</clipPath>
</defs>
</svg>
