<?xml version="1.0" encoding="UTF-8"?>
<svg id="Layer_1" data-name="Layer 1" xmlns="http://www.w3.org/2000/svg" xmlns:xlink="http://www.w3.org/1999/xlink" viewBox="0 0 100 100">
  <defs>
    <style>
      .cls-1 {
        fill: #fff;
        fill-rule: evenodd;
      }

      .cls-1, .cls-2 {
        stroke-width: 0px;
      }

      .cls-2 {
        fill: url(#Degradado_sin_nombre_5);
      }
    </style>
    <linearGradient id="Degradado_sin_nombre_5" data-name="Degradado sin nombre 5" x1="16.77" y1="16.77" x2="83.23" y2="83.23" gradientUnits="userSpaceOnUse">
      <stop offset="0" stop-color="#ff4c3c"/>
      <stop offset=".96" stop-color="#ee053d"/>
      <stop offset="1" stop-color="#ee023e"/>
    </linearGradient>
  </defs>
  <circle class="cls-2" cx="50" cy="50" r="47"/>
  <path class="cls-1" d="M46.79,58.78c-.04.15-.08.27-.11.39-1.86,7.29-2.07,8.91-3.98,12.29-.91,1.61-1.94,3.13-3.07,4.59-.13.16-.25.38-.5.33-.28-.06-.3-.31-.33-.54-.31-2.21-.47-4.43-.4-6.67.1-2.91.46-3.91,4.21-19.7.05-.24,0-.44-.09-.66-.9-2.42-1.08-4.88-.29-7.38,1.7-5.38,7.8-5.8,8.87-1.35.66,2.75-1.08,6.34-2.42,11.66-1.11,4.39,4.06,7.5,8.47,4.3,4.07-2.95,5.65-10.03,5.35-15.04-.59-10-11.55-12.16-18.51-8.94-7.97,3.69-9.79,13.57-6.19,18.09.46.57.81.93.66,1.51-.23.9-.44,1.82-.69,2.72-.19.67-.75.91-1.42.64-1.33-.54-2.43-1.38-3.33-2.49-3.06-3.79-3.93-11.27.11-17.61,4.48-7.02,12.81-9.86,20.41-9,9.08,1.03,14.83,7.24,15.9,14.28.49,3.21.14,11.12-4.37,16.71-5.18,6.42-13.58,6.85-17.45,2.91-.3-.3-.54-.66-.83-1.02Z"/>
</svg>