<svg width="100" height="100" viewBox="0 0 100 100" fill="none" xmlns="http://www.w3.org/2000/svg">
<path d="M24.31 31.42V43.29H16.89V48.01H4.32996V31.42H24.31Z" stroke="white" stroke-width="3" stroke-miterlimit="10"/>
<path d="M40.8 45.38C38.19 49.48 35.28 55 33.03 61.9C30.23 70.48 29.52 78.75 29.43 84.13H15.09C15.78 77.54 17.44 68.11 21.37 58.54C23.46 53.47 25.83 49.09 28.1 45.39H40.8V45.38Z" stroke="white" stroke-width="3" stroke-miterlimit="10"/>
<path d="M95.23 31.42V44.19C92.46 48.38 89.19 54.31 86.72 61.89C83.92 70.47 83.21 78.74 83.12 84.12H68.78C69.47 77.53 71.13 68.1 75.06 58.53C77.55 52.46 80.44 47.37 83.12 43.29H72.6C73.24 42.2 73.88 41.18 74.52 40.23V31.41H95.23V31.42Z" stroke="white" stroke-width="3" stroke-miterlimit="10"/>
<path d="M74.5199 22.98V40.23C73.8799 41.18 73.2399 42.2 72.5999 43.29C71.9399 44.38 71.2699 45.52 70.5899 46.73C70.3499 47.16 70.1399 47.58 69.8999 48.01C67.4599 52.56 65.0399 57.94 63.0299 64.15C59.2899 75.71 58.3099 86.88 58.1999 94.13H38.8399C39.7599 85.24 41.9899 72.52 47.2999 59.6C50.6399 51.52 54.4599 44.74 58.0299 39.29C58.0799 39.2 58.1499 39.12 58.1999 39.03H41.2599V44.65C41.0899 44.89 40.9499 45.12 40.8099 45.38H24.3199V22.99H74.5299L74.5199 22.98Z" stroke="white" stroke-width="3" stroke-miterlimit="10"/>
</svg>
