<svg width="25" height="25" viewBox="0 0 25 25" fill="none" xmlns="http://www.w3.org/2000/svg">
<g clip-path="url(#clip0_3188_2)">
<path fill-rule="evenodd" clip-rule="evenodd" d="M18.7803 3.47859L24.0303 9.47859C24.1533 9.61797 24.2201 9.79805 24.2179 9.98391C24.2156 10.1698 24.1444 10.3482 24.0181 10.4845L13.5181 21.7345C13.4479 21.8098 13.363 21.8698 13.2687 21.9108C13.1743 21.9518 13.0725 21.9729 12.9697 21.9729C12.8668 21.9729 12.765 21.9518 12.6707 21.9108C12.5763 21.8698 12.4914 21.8098 12.4212 21.7345L1.92123 10.4845C1.79438 10.3486 1.72252 10.1705 1.71958 9.98463C1.71663 9.79877 1.78282 9.61843 1.90529 9.47859L7.15529 3.47859C7.22549 3.39842 7.31196 3.33413 7.40896 3.29C7.50595 3.24586 7.61123 3.22291 7.71779 3.22266H18.2178C18.3244 3.22291 18.4296 3.24586 18.5266 3.29C18.6236 3.33413 18.7101 3.39842 18.7803 3.47859ZM17.8428 9.22266H21.815L17.8775 4.72266H14.4678L17.8428 9.22266ZM10.7844 17.7848L7.95967 10.7227H4.19373L10.7844 17.7848ZM21.7419 10.7227H17.9759L15.1512 17.7848L21.7419 10.7227ZM11.4678 4.72266H8.05811L4.12061 9.22266H8.09279L11.4678 4.72266ZM13 8.71938L12.2933 10.2308H13.7067L13 8.71938ZM16 13.7308V7.26923C16 7.19783 15.9713 7.12935 15.9201 7.07886C15.869 7.02837 15.7996 7 15.7273 7H10.2727C10.2004 7 10.131 7.02837 10.0799 7.07886C10.0287 7.12935 10 7.19783 10 7.26923V13.7308C10 13.8022 10.0287 13.8707 10.0799 13.9211C10.131 13.9716 10.2004 14 10.2727 14H15.7273C15.7996 14 15.869 13.9716 15.9201 13.9211C15.9713 13.8707 16 13.8022 16 13.7308ZM11.4579 11.8294C11.39 11.854 11.3151 11.8511 11.2494 11.8212C11.1838 11.7913 11.1329 11.7369 11.1079 11.6699C11.0829 11.603 11.0859 11.529 11.1161 11.4642L12.7525 7.96418C12.7744 7.91756 12.8093 7.87808 12.8531 7.85041C12.897 7.82274 12.948 7.80804 13 7.80804C13.052 7.80804 13.103 7.82274 13.1469 7.85041C13.1907 7.87808 13.2256 7.91756 13.2475 7.96418L14.8839 11.4642C14.9114 11.5286 14.9125 11.601 14.8869 11.6661C14.8613 11.7312 14.8111 11.784 14.7469 11.8133C14.6826 11.8426 14.6093 11.846 14.5425 11.823C14.4757 11.7999 14.4206 11.7521 14.3889 11.6897L13.9583 10.7692H12.0417L11.6111 11.6897C11.5808 11.7544 11.5257 11.8047 11.4579 11.8294ZM15.3747 12.4635C15.4258 12.514 15.4545 12.5824 15.4545 12.6538C15.4545 12.7253 15.4258 12.7937 15.3747 12.8442C15.3235 12.8947 15.2542 12.9231 15.1818 12.9231H10.8182C10.7458 12.9231 10.6765 12.8947 10.6253 12.8442C10.5742 12.7937 10.5455 12.7253 10.5455 12.6538C10.5455 12.5824 10.5742 12.514 10.6253 12.4635C10.6765 12.413 10.7458 12.3846 10.8182 12.3846H15.1818C15.2542 12.3846 15.3235 12.413 15.3747 12.4635Z" fill="white"/>
</g>
<defs>
<clipPath id="clip0_3188_2">
<rect width="24" height="24" fill="white" transform="translate(0.967773 0.222656)"/>
</clipPath>
</defs>
</svg>
