<svg width="32" height="32" viewBox="0 0 32 32" fill="none" xmlns="http://www.w3.org/2000/svg">
<g clip-path="url(#clip0_3573_45425)">
<path fill-rule="evenodd" clip-rule="evenodd" d="M32 2.672C32 1.19733 30.8 0 29.328 0H2.672C1.19733 0 0 1.2 0 2.672V29.328C0 29.6789 0.0691133 30.0263 0.203394 30.3505C0.337674 30.6747 0.534493 30.9693 0.782611 31.2174C1.03073 31.4655 1.32529 31.6623 1.64947 31.7966C1.97365 31.9309 2.32111 32 2.672 32H29.328C30.8027 32 32 30.8 32 29.328V2.672ZM29.03 8L24.8642 19.9618H17.7923L21.9779 8H29.03ZM17.0782 20.9239H16.9988L11.8893 20.924L10.4007 20.9242L4.30009 20.924L4.21082 21.172C3.81408 22.263 4.05212 23.1855 4.93487 23.9293C5.81762 24.6832 7.0872 25.0501 8.7436 25.0501L18.2486 25.05C19.905 25.05 21.244 24.6731 22.2854 23.9292C23.3269 23.1754 24.041 22.2629 24.4377 21.1718L24.527 20.9239H17.0782ZM15.6229 8L11.4274 19.9618H4.40503L8.57082 8H15.6229Z" fill="#C73A54"/>
</g>
<defs>
<clipPath id="clip0_3573_45425">
<rect width="32" height="32" fill="white"/>
</clipPath>
</defs>
</svg>
