<svg width="87" height="87" viewBox="0 0 87 87" fill="none" xmlns="http://www.w3.org/2000/svg">
<circle cx="43.5" cy="43.5" r="43.5" fill="#D4FF8E"/>
<circle cx="43.5" cy="43.5" r="43.5" fill="url(#paint0_linear_1585_171)"/>
<path d="M54.9479 16.3454C54.8824 16.1411 54.7574 15.961 54.5889 15.8281C54.4204 15.6953 54.2161 15.6157 54.0021 15.5997L51.0337 15.3651L49.8919 12.6603C49.8085 12.4644 49.6693 12.2974 49.4917 12.18C49.3141 12.0626 49.1059 12 48.8931 12C48.6802 12 48.472 12.0626 48.2944 12.18C48.1168 12.2974 47.9776 12.4644 47.8942 12.6603L46.7524 15.3651L43.784 15.5997C43.5709 15.6154 43.3672 15.6943 43.199 15.8262C43.0309 15.9581 42.9058 16.1371 42.8398 16.3404C42.7737 16.5437 42.7697 16.762 42.8283 16.9675C42.8868 17.1731 43.0053 17.3566 43.1685 17.4945L45.4233 19.3974L44.7354 22.2412C44.6854 22.4472 44.6976 22.6633 44.7706 22.8623C44.8436 23.0613 44.9739 23.2342 45.1452 23.359C45.3181 23.4864 45.5249 23.5597 45.7395 23.5696C45.9541 23.5794 46.1667 23.5255 46.3506 23.4144L48.8931 21.8836L51.4363 23.4152C51.6203 23.5259 51.8329 23.5798 52.0474 23.5699C52.2619 23.56 52.4686 23.4869 52.6417 23.3598C52.8127 23.2347 52.9428 23.0618 53.0156 22.8629C53.0884 22.6639 53.1006 22.4479 53.0507 22.242L52.3628 19.3982L54.6176 17.4954C54.7809 17.3584 54.8996 17.1757 54.9584 16.9709C55.0172 16.766 55.0136 16.5482 54.9479 16.3454ZM51.2298 18.6694C51.1386 18.7465 51.0706 18.8474 51.0336 18.961C50.9965 19.0745 50.9919 19.1962 51.0201 19.3122L51.6854 22.0612L49.2249 20.5818C49.1248 20.5216 49.0103 20.4898 48.8935 20.4898C48.7767 20.4898 48.6621 20.5216 48.562 20.5818L46.1015 22.0628L46.7668 19.3122C46.7949 19.1961 46.7901 19.0744 46.753 18.9609C46.7158 18.8473 46.6477 18.7464 46.5563 18.6694L44.3931 16.8421L47.2474 16.6163C47.3648 16.6069 47.4775 16.5655 47.573 16.4965C47.6685 16.4275 47.7432 16.3335 47.789 16.2249L48.8931 13.5997L50.0012 16.2249C50.0469 16.3335 50.1216 16.4275 50.2171 16.4965C50.3126 16.5655 50.4253 16.6069 50.5428 16.6163L53.3978 16.8421L51.2298 18.6694ZM42.7924 20.6124L38.098 25.3116C37.9774 25.4323 37.8138 25.5 37.6432 25.5C37.4726 25.5 37.309 25.4323 37.1884 25.3116C37.0678 25.191 37 25.0274 37 24.8568C37 24.6862 37.0678 24.5226 37.1884 24.402L41.8852 19.7052C42.0058 19.5845 42.1694 19.5168 42.34 19.5168C42.5106 19.5168 42.6742 19.5845 42.7948 19.7052C42.9155 19.8258 42.9832 19.9894 42.9832 20.16C42.9832 20.3306 42.9155 20.4942 42.7948 20.6148L42.7924 20.6124ZM43.6611 24.6198C43.7815 24.7403 43.8492 24.9038 43.8492 25.0742C43.8492 25.2446 43.7815 25.4081 43.6611 25.5286L39.3837 29.8116C39.324 29.8713 39.2531 29.9187 39.175 29.951C39.097 29.9834 39.0134 30 38.9289 30C38.8444 30 38.7608 29.9834 38.6828 29.951C38.6047 29.9187 38.5338 29.8713 38.4741 29.8116C38.4144 29.7519 38.367 29.681 38.3347 29.6029C38.3023 29.5249 38.2857 29.4413 38.2857 29.3568C38.2857 29.2723 38.3023 29.1887 38.3347 29.1106C38.367 29.0326 38.4144 28.9617 38.4741 28.902L42.7547 24.6222C42.8752 24.5017 43.0386 24.434 43.2091 24.434C43.3795 24.434 43.5429 24.5017 43.6635 24.6222L43.6611 24.6198ZM49.5271 24.5394C49.5868 24.5991 49.6342 24.67 49.6666 24.7481C49.6989 24.8261 49.7156 24.9097 49.7156 24.9942C49.7156 25.0787 49.6989 25.1624 49.6666 25.2404C49.6342 25.3184 49.5868 25.3893 49.5271 25.449L45.1653 29.8108C45.0447 29.9314 44.8811 29.9992 44.7105 29.9992C44.5399 29.9992 44.3763 29.9314 44.2557 29.8108C44.1351 29.6902 44.0673 29.5266 44.0673 29.356C44.0673 29.1854 44.1351 29.0218 44.2557 28.9012L48.6182 24.5394C48.678 24.4792 48.7492 24.4314 48.8276 24.3989C48.9059 24.3663 48.99 24.3496 49.0748 24.3497C49.1597 24.3497 49.2437 24.3666 49.322 24.3993C49.4003 24.432 49.4714 24.4799 49.5311 24.5402L49.5271 24.5394Z" fill="black"/>
<path d="M27.9492 21.8906C27.8867 21.7056 27.7687 21.5425 27.6101 21.4219C27.4515 21.3013 27.2594 21.2286 27.0579 21.2129L23.3702 20.9264L21.9463 17.6108C21.8693 17.4301 21.7383 17.2756 21.5698 17.1668C21.4014 17.0581 21.2031 17 21.0003 17C20.7975 17 20.5993 17.0581 20.4308 17.1668C20.2624 17.2756 20.1313 17.4301 20.0543 17.6108L18.6317 20.9258L14.9421 21.2129C14.7403 21.2294 14.5481 21.3028 14.3894 21.4239C14.2308 21.5451 14.1128 21.7087 14.0503 21.8941C13.9878 22.0796 13.9834 22.2787 14.0379 22.4665C14.0924 22.6543 14.2032 22.8225 14.3565 22.9499L17.1691 25.2869L16.3122 28.7813C16.2643 28.9711 16.276 29.1704 16.3459 29.3538C16.4158 29.5372 16.5407 29.6965 16.7048 29.8114C16.8689 29.9263 17.0648 29.9917 17.2675 29.9993C17.4702 30.0068 17.6707 29.9562 17.8436 29.8538L21 27.9832L24.1583 29.8538C24.3312 29.955 24.5313 30.0046 24.7334 29.9965C24.9355 29.9884 25.1306 29.9229 25.2942 29.8082C25.4577 29.6935 25.5823 29.5348 25.6524 29.3521C25.7224 29.1694 25.7348 28.9708 25.6878 28.7813L24.8278 25.2863L27.6404 22.9493C27.795 22.8221 27.9068 22.6536 27.9617 22.4651C28.0167 22.2766 28.0124 22.0767 27.9492 21.8906ZM26.9904 22.2198L23.9465 24.7476C23.877 24.8053 23.8254 24.8801 23.7972 24.9641C23.769 25.048 23.7652 25.1379 23.7864 25.2237L24.7165 29.0034C24.7189 29.0086 24.7192 29.0145 24.7172 29.0199C24.7152 29.0252 24.7112 29.0297 24.7059 29.0323C24.6946 29.0407 24.6915 29.0389 24.6821 29.0323L21.2619 27.007C21.1831 26.9604 21.0925 26.9357 21 26.9357C20.9075 26.9357 20.8169 26.9604 20.7381 27.007L17.3179 29.0335C17.3085 29.0389 17.306 29.0407 17.2941 29.0335C17.2889 29.0309 17.2848 29.0264 17.2828 29.0211C17.2809 29.0157 17.2811 29.0098 17.2835 29.0046L18.2136 25.2249C18.2348 25.1391 18.2311 25.0492 18.2028 24.9653C18.1746 24.8813 18.123 24.8065 18.0536 24.7488L15.0096 22.221C15.0021 22.215 14.9952 22.2096 15.0015 22.1909C15.0077 22.1723 15.0127 22.1747 15.0221 22.1735L19.0174 21.8629C19.109 21.8554 19.1967 21.8236 19.2708 21.7711C19.3449 21.7187 19.4026 21.6476 19.4374 21.5656L20.9763 17.9779C20.9813 17.9677 20.9831 17.9629 20.9981 17.9629C21.0131 17.9629 21.015 17.9677 21.02 17.9779L22.5626 21.5656C22.5978 21.6476 22.6558 21.7186 22.7302 21.7709C22.8047 21.8232 22.8927 21.8546 22.9845 21.8617L26.9798 22.1723C26.9892 22.1723 26.9948 22.1723 27.0004 22.1897C27.006 22.2072 27.0004 22.2138 26.9904 22.2198Z" fill="black"/>
<path d="M71.971 17.6334C71.9353 17.5338 71.8678 17.4459 71.7772 17.381C71.6866 17.3161 71.5768 17.2769 71.4617 17.2685L69.3544 17.1142L68.5408 15.3289C68.4968 15.2316 68.4219 15.1484 68.3256 15.0898C68.2294 15.0313 68.1161 15 68.0002 15C67.8843 15 67.771 15.0313 67.6748 15.0898C67.5785 15.1484 67.5036 15.2316 67.4596 15.3289L66.6467 17.1139L64.5384 17.2685C64.4231 17.2773 64.3132 17.3169 64.2225 17.3821C64.1319 17.4474 64.0645 17.5354 64.0287 17.6353C63.993 17.7352 63.9905 17.8424 64.0217 17.9435C64.0528 18.0446 64.1161 18.1352 64.2037 18.2038L65.8109 19.4622L65.3213 21.3438C65.2939 21.446 65.3006 21.5533 65.3405 21.6521C65.3805 21.7508 65.4519 21.8366 65.5456 21.8985C65.6394 21.9603 65.7513 21.9955 65.8671 21.9996C65.983 22.0037 66.0976 21.9764 66.1963 21.9213L68 20.914L69.8048 21.9213C69.9036 21.9758 70.0179 22.0025 70.1334 21.9981C70.2489 21.9938 70.3604 21.9585 70.4538 21.8967C70.5473 21.835 70.6185 21.7495 70.6585 21.6511C70.6985 21.5527 70.7056 21.4458 70.6788 21.3438L70.1873 19.4619L71.7945 18.2035C71.8828 18.135 71.9467 18.0442 71.9781 17.9427C72.0096 17.8413 72.0071 17.7336 71.971 17.6334ZM71.4231 17.8107L69.6837 19.1718C69.644 19.2028 69.6145 19.2431 69.5984 19.2884C69.5823 19.3336 69.5801 19.3819 69.5923 19.4281L70.1237 21.4634C70.1251 21.4662 70.1252 21.4693 70.1241 21.4722C70.123 21.4751 70.1207 21.4775 70.1176 21.4789C70.1112 21.4834 70.1094 21.4825 70.1041 21.4789L68.1497 20.3884C68.1046 20.3633 68.0528 20.35 68 20.35C67.9472 20.35 67.8954 20.3633 67.8504 20.3884L65.8959 21.4796C65.8906 21.4825 65.8892 21.4834 65.8824 21.4796C65.8794 21.4782 65.877 21.4758 65.8759 21.4729C65.8748 21.47 65.8749 21.4668 65.8763 21.464L66.4078 19.4288C66.4199 19.3826 66.4178 19.3342 66.4016 19.289C66.3855 19.2438 66.356 19.2035 66.3163 19.1725L64.5769 17.8113C64.5726 17.8081 64.5687 17.8052 64.5723 17.7951C64.5759 17.7851 64.5787 17.7864 64.5841 17.7857L66.8671 17.6185C66.9194 17.6144 66.9696 17.5973 67.0119 17.5691C67.0542 17.5408 67.0872 17.5025 67.1071 17.4584L67.9864 15.5266C67.9893 15.5211 67.9904 15.5185 67.9989 15.5185C68.0075 15.5185 68.0086 15.5211 68.0114 15.5266L68.8929 17.4584C68.913 17.5026 68.9462 17.5408 68.9887 17.5689C69.0313 17.5971 69.0815 17.614 69.134 17.6179L71.417 17.7851C71.4224 17.7851 71.4256 17.7851 71.4288 17.7945C71.432 17.8039 71.4288 17.8074 71.4231 17.8107Z" fill="black"/>
<path d="M78.971 42.6334C78.9353 42.5338 78.8678 42.4459 78.7772 42.381C78.6866 42.3161 78.5768 42.2769 78.4617 42.2685L76.3544 42.1142L75.5408 40.3289C75.4968 40.2316 75.4219 40.1484 75.3256 40.0898C75.2294 40.0313 75.1161 40 75.0002 40C74.8843 40 74.771 40.0313 74.6748 40.0898C74.5785 40.1484 74.5036 40.2316 74.4596 40.3289L73.6467 42.1139L71.5384 42.2685C71.4231 42.2773 71.3132 42.3169 71.2225 42.3821C71.1319 42.4474 71.0645 42.5354 71.0287 42.6353C70.993 42.7352 70.9905 42.8424 71.0217 42.9435C71.0528 43.0446 71.1161 43.1352 71.2037 43.2038L72.8109 44.4622L72.3213 46.3438C72.2939 46.446 72.3006 46.5533 72.3405 46.6521C72.3805 46.7508 72.4519 46.8366 72.5456 46.8985C72.6394 46.9603 72.7513 46.9955 72.8671 46.9996C72.983 47.0037 73.0976 46.9764 73.1963 46.9213L75 45.914L76.8048 46.9213C76.9036 46.9758 77.0179 47.0025 77.1334 46.9981C77.2489 46.9938 77.3604 46.9585 77.4538 46.8967C77.5473 46.835 77.6185 46.7495 77.6585 46.6511C77.6985 46.5527 77.7056 46.4458 77.6788 46.3438L77.1873 44.4619L78.7945 43.2035C78.8828 43.135 78.9467 43.0442 78.9781 42.9427C79.0096 42.8413 79.0071 42.7336 78.971 42.6334ZM78.4231 42.8107L76.6837 44.1718C76.644 44.2028 76.6145 44.2431 76.5984 44.2884C76.5823 44.3336 76.5801 44.3819 76.5923 44.4281L77.1237 46.4634C77.1251 46.4662 77.1252 46.4693 77.1241 46.4722C77.123 46.4751 77.1207 46.4775 77.1176 46.4789C77.1112 46.4834 77.1094 46.4825 77.1041 46.4789L75.1497 45.3884C75.1046 45.3633 75.0528 45.35 75 45.35C74.9472 45.35 74.8954 45.3633 74.8504 45.3884L72.8959 46.4796C72.8906 46.4825 72.8892 46.4834 72.8824 46.4796C72.8794 46.4782 72.877 46.4758 72.8759 46.4729C72.8748 46.47 72.8749 46.4668 72.8763 46.464L73.4078 44.4288C73.4199 44.3826 73.4178 44.3342 73.4016 44.289C73.3855 44.2438 73.356 44.2035 73.3163 44.1725L71.5769 42.8113C71.5726 42.8081 71.5687 42.8052 71.5723 42.7951C71.5759 42.7851 71.5787 42.7864 71.5841 42.7857L73.8671 42.6185C73.9194 42.6144 73.9696 42.5973 74.0119 42.5691C74.0542 42.5408 74.0872 42.5025 74.1071 42.4584L74.9864 40.5266C74.9893 40.5211 74.9904 40.5185 74.9989 40.5185C75.0075 40.5185 75.0086 40.5211 75.0114 40.5266L75.8929 42.4584C75.913 42.5026 75.9462 42.5408 75.9887 42.5689C76.0313 42.5971 76.0815 42.614 76.134 42.6179L78.417 42.7851C78.4224 42.7851 78.4256 42.7851 78.4288 42.7945C78.432 42.8039 78.4288 42.8074 78.4231 42.8107Z" fill="black"/>
<path d="M16.971 56.6334C16.9353 56.5338 16.8678 56.4459 16.7772 56.381C16.6866 56.3161 16.5768 56.2769 16.4617 56.2685L14.3544 56.1142L13.5408 54.3289C13.4968 54.2316 13.4219 54.1484 13.3256 54.0898C13.2294 54.0313 13.1161 54 13.0002 54C12.8843 54 12.771 54.0313 12.6748 54.0898C12.5785 54.1484 12.5036 54.2316 12.4596 54.3289L11.6467 56.1139L9.53835 56.2685C9.42305 56.2773 9.31319 56.3169 9.22254 56.3821C9.13188 56.4474 9.06447 56.5354 9.02873 56.6353C8.993 56.7352 8.99054 56.8424 9.02166 56.9435C9.05278 57.0446 9.1161 57.1352 9.20369 57.2038L10.8109 58.4622L10.3213 60.3438C10.2939 60.446 10.3006 60.5533 10.3405 60.6521C10.3805 60.7508 10.4519 60.8366 10.5456 60.8985C10.6394 60.9603 10.7513 60.9955 10.8671 60.9996C10.983 61.0037 11.0976 60.9764 11.1963 60.9213L13 59.914L14.8048 60.9213C14.9036 60.9758 15.0179 61.0025 15.1334 60.9981C15.2489 60.9938 15.3604 60.9585 15.4538 60.8967C15.5473 60.835 15.6185 60.7495 15.6585 60.6511C15.6985 60.5527 15.7056 60.4458 15.6788 60.3438L15.1873 58.4619L16.7945 57.2035C16.8828 57.135 16.9467 57.0442 16.9781 56.9427C17.0096 56.8413 17.0071 56.7336 16.971 56.6334ZM16.4231 56.8107L14.6837 58.1718C14.644 58.2028 14.6145 58.2431 14.5984 58.2884C14.5823 58.3336 14.5801 58.3819 14.5923 58.4281L15.1237 60.4634C15.1251 60.4662 15.1252 60.4693 15.1241 60.4722C15.123 60.4751 15.1207 60.4775 15.1176 60.4789C15.1112 60.4834 15.1094 60.4825 15.1041 60.4789L13.1497 59.3884C13.1046 59.3633 13.0528 59.35 13 59.35C12.9472 59.35 12.8954 59.3633 12.8504 59.3884L10.8959 60.4796C10.8906 60.4825 10.8892 60.4834 10.8824 60.4796C10.8794 60.4782 10.877 60.4758 10.8759 60.4729C10.8748 60.47 10.8749 60.4668 10.8763 60.464L11.4078 58.4288C11.4199 58.3826 11.4178 58.3342 11.4016 58.289C11.3855 58.2438 11.356 58.2035 11.3163 58.1725L9.57693 56.8113C9.57264 56.8081 9.56871 56.8052 9.57228 56.7951C9.57585 56.7851 9.57871 56.7864 9.58407 56.7857L11.8671 56.6185C11.9194 56.6144 11.9696 56.5973 12.0119 56.5691C12.0542 56.5408 12.0872 56.5025 12.1071 56.4584L12.9864 54.5266C12.9893 54.5211 12.9904 54.5185 12.9989 54.5185C13.0075 54.5185 13.0086 54.5211 13.0114 54.5266L13.8929 56.4584C13.913 56.5026 13.9462 56.5408 13.9887 56.5689C14.0313 56.5971 14.0815 56.614 14.134 56.6179L16.417 56.7851C16.4224 56.7851 16.4256 56.7851 16.4288 56.7945C16.432 56.8039 16.4288 56.8074 16.4231 56.8107Z" fill="black"/>
<path d="M56.4818 31H30.5182C27.1993 31.0038 24.0174 32.3579 21.6706 34.7653C19.3237 37.1728 18.0037 40.4369 18 43.8415V66.6707C18 67.5537 18.3419 68.4005 18.9506 69.0249C19.5592 69.6492 20.3847 70 21.2455 70H65.7545C66.6153 70 67.4408 69.6492 68.0494 69.0249C68.6581 68.4005 69 67.5537 69 66.6707V43.8415C68.9963 40.4369 67.6763 37.1728 65.3294 34.7653C62.9826 32.3579 59.8007 31.0038 56.4818 31ZM66.2182 43.8415V46.2195H57.8727V33.9583C60.1886 34.3037 62.3061 35.4922 63.8383 37.3068C65.3705 39.1213 66.2153 41.4408 66.2182 43.8415ZM45.8182 53.8293H41.1818V45.2683H45.8182V53.8293ZM39.7909 56.6829H47.2091C47.578 56.6829 47.9318 56.5326 48.1926 56.265C48.4535 55.9974 48.6 55.6345 48.6 55.2561V49.0732H55.0909V67.1463H31.9091V49.0732H38.4V55.2561C38.4 55.6345 38.5465 55.9974 38.8074 56.265C39.0682 56.5326 39.422 56.6829 39.7909 56.6829ZM48.6 46.2195V43.8415C48.6 43.463 48.4535 43.1001 48.1926 42.8325C47.9318 42.565 47.578 42.4146 47.2091 42.4146H39.7909C39.422 42.4146 39.0682 42.565 38.8074 42.8325C38.5465 43.1001 38.4 43.463 38.4 43.8415V46.2195H31.9091V33.8537H55.0909V46.2195H48.6ZM29.1273 33.9583V46.2195H20.7818V43.8415C20.7847 41.4408 21.6295 39.1213 23.1617 37.3068C24.6939 35.4922 26.8114 34.3037 29.1273 33.9583ZM20.7818 66.6707V49.0732H29.1273V67.1463H21.2455C21.1225 67.1463 21.0046 67.0962 20.9176 67.007C20.8307 66.9178 20.7818 66.7969 20.7818 66.6707ZM65.7545 67.1463H57.8727V49.0732H66.2182V66.6707C66.2182 66.7969 66.1693 66.9178 66.0824 67.007C65.9954 67.0962 65.8775 67.1463 65.7545 67.1463Z" fill="black"/>
<defs>
<linearGradient id="paint0_linear_1585_171" x1="2.22207" y1="78.5806" x2="68.0815" y2="30.871" gradientUnits="userSpaceOnUse">
<stop stop-color="#FFDE1A"/>
<stop offset="1" stop-color="#BAA000"/>
</linearGradient>
</defs>
</svg>
