<?xml version="1.0" encoding="UTF-8"?>
<svg width="18px" height="12px" viewBox="0 0 18 12" version="1.1" xmlns="http://www.w3.org/2000/svg">
    <title>crown</title>
    <g id="Referral" stroke="none" stroke-width="1" fill="none" fill-rule="evenodd">
        <g id="BJ-Referral-Activity" transform="translate(-64, -1561)" fill="#FFDE1A" fill-rule="nonzero">
            <path d="M81.2917757,1564.88786 C81.2945346,1564.93843 81.2909009,1564.98989 81.2784523,1565.041 L80.168172,1569.57535 C80.1121869,1569.80379 79.9116636,1569.96441 79.681129,1569.96565 L73.0194467,1570 C73.018572,1570 73.0177645,1570 73.0168897,1570 L66.3551402,1570 C66.1233944,1570 65.9214579,1569.83882 65.8654729,1569.60922 L64.7551925,1565.05769 C64.7424075,1565.00521 64.7387065,1564.95231 64.7419364,1564.90044 C64.3124262,1564.76227 64,1564.35192 64,1563.86832 C64,1563.27164 64.4754019,1562.78626 65.0598131,1562.78626 C65.6442243,1562.78626 66.1196262,1563.27164 66.1196262,1563.86832 C66.1196262,1564.20434 65.9688299,1564.50498 65.7327103,1564.7036 L67.1227813,1566.13357 C67.4741009,1566.49502 67.961615,1566.70222 68.4603664,1566.70222 C69.0500935,1566.70222 69.6123664,1566.41628 69.9664449,1565.93722 L72.2509308,1562.84672 C72.0590206,1562.65092 71.9401869,1562.38037 71.9401869,1562.08206 C71.9401869,1561.48538 72.4155888,1561 73,1561 C73.5844112,1561 74.0598131,1561.48538 74.0598131,1562.08206 C74.0598131,1562.37144 73.9473047,1562.63408 73.7654206,1562.82844 C73.7660262,1562.82927 73.7667664,1562.82995 73.767372,1562.83085 L76.0353047,1565.92987 C76.3892486,1566.41353 76.9535402,1566.70229 77.5449495,1566.70229 C78.0482766,1566.70229 78.5215925,1566.50216 78.8774879,1566.13873 L80.2763065,1564.71054 C80.0352075,1564.51199 79.8803738,1564.20847 79.8803738,1563.86832 C79.8803738,1563.27164 80.3557757,1562.78626 80.9401869,1562.78626 C81.5245981,1562.78626 82,1563.27164 82,1563.86832 C82,1564.339 81.7035888,1564.73933 81.2917757,1564.88786 Z M80,1571.45455 C80,1571.20352 79.7750622,1571 79.4976077,1571 L66.5023923,1571 C66.2249378,1571 66,1571.20352 66,1571.45455 L66,1572.54545 C66,1572.79648 66.2249378,1573 66.5023923,1573 L79.4976077,1573 C79.7750622,1573 80,1572.79648 80,1572.54545 L80,1571.45455 Z" id="crown"></path>
        </g>
    </g>
</svg>