<svg id="facebook-messenger" data-name="facebook-messenger" xmlns="http://www.w3.org/2000/svg" viewBox="0 0 40 40"><defs><style>.cls-1{fill:#4a4a4a;}.cls-2{fill:#898afd;}.cls-3{fill:#fff;}</style></defs><path class="cls-1" d="M20,40A20,20,0,1,1,40,20,20,20,0,0,1,20,40Z"/><circle id="color" class="cls-2" cx="26.44" cy="14.5" r="5.2"/><path class="cls-3" d="M20,7.44a12.5,12.5,0,0,0-9.7,20.38,7.53,7.53,0,0,1-2.51,3.26.58.58,0,0,0,.16,1,8.56,8.56,0,0,0,2.8.46,8.65,8.65,0,0,0,4.31-1.14A12.5,12.5,0,1,0,20,7.44Zm0,23.83a11.36,11.36,0,0,1-4.74-1,.59.59,0,0,0-.55,0,7.49,7.49,0,0,1-4,1.13,7.12,7.12,0,0,1-1.39-.13,8.65,8.65,0,0,0,2.15-3.38.57.57,0,0,0-.11-.57A11.34,11.34,0,1,1,20,31.27Z"/><path class="cls-3" d="M23.34,16.25H21.7v-.54a.2.2,0,0,1,0-.09h1.6a.58.58,0,0,0,.58-.58v-2.4a.58.58,0,0,0-.58-.58H21.15a3.3,3.3,0,0,0-3.53,3.51v.69h-.81a.58.58,0,0,0-.58.58v2.8a.58.58,0,0,0,.58.58h.82v6.42a.58.58,0,0,0,.58.58H21a.58.58,0,0,0,.58-.58V20.21h1.5a.59.59,0,0,0,.58-.53l.25-2.8a.56.56,0,0,0-.15-.44A.54.54,0,0,0,23.34,16.25Zm-.78,2.8H21a.58.58,0,0,0-.58.58V26H18.79V19.63a.58.58,0,0,0-.58-.58h-.82V17.41h.81a.58.58,0,0,0,.58-.58V15.56a2.16,2.16,0,0,1,2.36-2.35h1.59v1.23h-1a1.18,1.18,0,0,0-1.2,1.26v1.12a.58.58,0,0,0,.58.58h1.59Z"/></svg>