<?xml version="1.0" encoding="UTF-8"?>
<svg width="14px" height="17px" viewBox="0 0 14 17" version="1.1" xmlns="http://www.w3.org/2000/svg" xmlns:xlink="http://www.w3.org/1999/xlink">
    <title>Combined Shape</title>
    <g id="Crimson" stroke="none" stroke-width="1" fill="none" fill-rule="evenodd">
        <g id="My-VIP--藍優化--改版" transform="translate(-301.000000, -313.000000)" fill="#000000" fill-rule="nonzero">
            <path d="M308.555556,313 C308.755941,313 308.94812,313.081412 309.089814,313.226327 L314.378703,318.635417 C314.520397,318.780332 314.6,318.976878 314.6,319.181818 L314.6,327.681818 C314.6,328.962115 313.585179,330 312.333333,330 L303.266667,330 C302.014821,330 301,328.962115 301,327.681818 L301,315.318182 C301,314.037885 302.014821,313 303.266667,313 L308.555556,313 Z M307.8,319.8 L306.467687,322.499561 L303.488544,322.932456 L305.644272,325.033772 L305.135374,328.000877 L307.8,326.6 L310.464626,328.000877 L309.955728,325.033772 L312.111456,322.932456 L309.132313,322.499561 L307.8,319.8 Z M308.555556,314.931818 L308.555556,318.409091 C308.555556,318.835856 308.893829,319.181818 309.311111,319.181818 L309.311111,319.181818 L312.711111,319.181818 L308.555556,314.931818 Z" id="Combined-Shape"></path>
        </g>
    </g>
</svg>