<?xml version="1.0" encoding="UTF-8"?>
<svg width="12px" height="12px" viewBox="0 0 12 12" version="1.1" xmlns="http://www.w3.org/2000/svg" xmlns:xlink="http://www.w3.org/1999/xlink">
    <title>icon-unconfirm</title>
    <g id="icon-set最新整理" stroke="none" stroke-width="1" fill="none" fill-rule="evenodd">
        <g id="images/h5/icon-set" transform="translate(-70.000000, -401.000000)">
            <g id="icon-unconfirm" transform="translate(70.000000, 401.000000)">
                <rect id="Rectangle" x="6.26521057e-12" y="0" width="12" height="12"></rect>
                <path d="M11.7601142,8.7732535 L7.556009,1.41203677 C6.86932202,0.195987742 5.13284378,0.195987742 4.4486269,1.41203677 L0.242051593,8.7732535 C-0.444635392,9.98930254 0.410018193,11.5 1.79574265,11.5 L10.1916026,11.5 C11.577327,11.5 12.4468012,9.97432041 11.7601142,8.7732535 Z M6.00083061,9.86694853 C5.58677362,9.86694853 5.24265869,9.51908282 5.24265869,9.1005127 C5.24265869,8.68194258 5.58677362,8.33407687 6.00083061,8.33407687 C6.4148876,8.33407687 6.75900253,8.68194258 6.74221643,9.12030993 C6.76180021,9.51908282 6.3981015,9.86694853 6.00083061,9.86694853 Z M6.69185815,4.91198332 C6.65828596,5.50590038 6.62191609,6.09698926 6.5883439,6.69090633 C6.57155781,6.88322233 6.57155781,7.05856927 6.57155781,7.2480571 C6.55477171,7.56198469 6.31137335,7.80520787 6.00083061,7.80520787 C5.69028787,7.80520787 5.44968719,7.57895375 5.43010341,7.26502616 C5.37974513,6.34021244 5.32658916,5.43236779 5.27623088,4.50755408 C5.25944479,4.2643309 5.24265869,4.01827954 5.22307492,3.77505637 C5.22307492,3.3734553 5.4468895,3.04255865 5.81058821,2.93791612 C6.17428691,2.85024265 6.53518794,3.0255896 6.69185815,3.3734553 C6.74501411,3.49506689 6.76180021,3.61667848 6.76180021,3.75808731 C6.74501411,4.14554749 6.70864424,4.53017949 6.69185815,4.91198332 Z" id="Shape" fill="#FFAE12" fill-rule="nonzero"></path>
            </g>
        </g>
    </g>
</svg>