<?xml version="1.0" encoding="UTF-8"?>
<svg width="39px" height="39px" viewBox="0 0 39 39" version="1.1" xmlns="http://www.w3.org/2000/svg" xmlns:xlink="http://www.w3.org/1999/xlink">
    <title>icon-total</title>
    <g id="Symbols" stroke="none" stroke-width="1" fill="none" fill-rule="evenodd">
        <g id="icon-total" fill-rule="nonzero">
            <circle id="Oval" fill="#4A4A4A" cx="19.3548387" cy="19.3548387" r="19.3548387"></circle>
            <path d="M25.4688058,25.1624702 C21.8629231,25.1624702 18.9381517,22.2376987 18.9381517,18.6318161 C18.9381517,15.0259334 21.8629231,12.1011619 25.4688058,12.1011619 C29.0746885,12.1011619 31.99946,15.0259334 31.99946,18.6318161 C32.0395253,22.2376987 29.0746885,25.1624702 25.4688058,25.1624702 Z" id="Path" fill="#238FFF"></path>
            <path d="M25.0416667,19.0833333 C28.327,19.0833333 31,21.7563333 31,25.0416667 C31,28.327 28.327,31 25.0416667,31 C21.7563333,31 19.0833333,28.327 19.0833333,25.0416667 C19.0833333,21.7563333 21.7563333,19.0833333 25.0416667,19.0833333 Z M25.0416667,20 C22.2614167,20 20,22.2623333 20,25.0416667 C20,27.821 22.2614167,30.0833333 25.0416667,30.0833333 C27.8219167,30.0833333 30.0833333,27.821 30.0833333,25.0416667 C30.0833333,22.2623333 27.8219167,20 25.0416667,20 Z M25.4766318,21.5583333 L25.4766318,22.017884 C25.9241185,22.0211602 26.363228,22.1358088 26.7518303,22.35083 L26.5055851,22.9741147 C26.1322366,22.7588877 25.7049956,22.6472862 25.2705899,22.6515162 C24.516778,22.6515162 24.2315859,23.0885458 24.2315859,23.4683599 C24.2315859,23.9619965 24.5940437,24.2091191 25.4471075,24.5511952 C26.4565873,24.9498783 26.9666667,25.4441235 26.9666667,26.289575 C26.9504657,27.1317093 26.2831983,27.827292 25.4175832,27.9043935 L25.4175832,28.43029 L24.8000857,28.4333333 L24.8000857,27.9360447 C24.2697012,27.9342202 23.7503018,27.7894335 23.3,27.517884 L23.534938,26.8812085 C23.9554506,27.1458324 24.4456699,27.2876145 24.947079,27.2896304 C25.6430986,27.2896304 26.1136029,26.9000775 26.1136029,26.3589641 C26.1136029,25.8367198 25.7310433,25.5135126 25.0054994,25.2286521 C24.0060705,24.848838 23.3885729,24.4118083 23.3885729,23.5852258 C23.4011664,22.7819065 24.0420352,22.1195512 24.8685569,22.055622 L24.8685569,21.5583333 L25.4766318,21.5583333 Z M16.7916667,9 C17.899,9 18.8239167,9.78833333 19.0375,10.8333333 L20.4583333,10.8333333 C20.7113333,10.8333333 20.9166667,11.0386667 20.9166667,11.2916667 L20.916,11.75 L22.2916667,11.75 C23.5548333,11.75 24.5833333,12.7775833 24.5833333,14.0416667 L24.5833333,16.7916667 C24.5833333,17.0446667 24.378,17.25 24.125,17.25 C23.872,17.25 23.6666667,17.0446667 23.6666667,16.7916667 L23.6666667,14.0416667 C23.6666667,13.2835833 23.04975,12.6666667 22.2916667,12.6666667 L20.916,12.666 L20.9166667,13.125 C20.9166667,13.8830833 20.29975,14.5 19.5416667,14.5 L14.0416667,14.5 C13.2835833,14.5 12.6666667,13.8830833 12.6666667,13.125 L12.666,12.666 L11.2916667,12.6666667 C10.5335833,12.6666667 9.91666667,13.2835833 9.91666667,14.0416667 L9.91666667,25.9583333 C9.91666667,26.7164167 10.5335833,27.3333333 11.2916667,27.3333333 L17.7083333,27.3333333 C17.9613333,27.3333333 18.1666667,27.5386667 18.1666667,27.7916667 C18.1666667,28.0446667 17.9613333,28.25 17.7083333,28.25 L11.2916667,28.25 C10.0285,28.25 9,27.2224167 9,25.9583333 L9,14.0416667 C9,12.7775833 10.0285,11.75 11.2916667,11.75 L12.666,11.75 L12.6666667,11.2916667 C12.6666667,11.0386667 12.872,10.8333333 13.125,10.8333333 L14.5458333,10.8333333 C14.7594167,9.78833333 15.6843333,9 16.7916667,9 Z M16.7916667,21.8333333 C17.0446667,21.8333333 17.25,22.0386667 17.25,22.2916667 C17.25,22.5446667 17.0446667,22.75 16.7916667,22.75 L12.2083333,22.75 C11.9553333,22.75 11.75,22.5446667 11.75,22.2916667 C11.75,22.0386667 11.9553333,21.8333333 12.2083333,21.8333333 L16.7916667,21.8333333 Z M18.625,19.0833333 C18.878,19.0833333 19.0833333,19.2886667 19.0833333,19.5416667 C19.0833333,19.7946667 18.878,20 18.625,20 L12.2083333,20 C11.9553333,20 11.75,19.7946667 11.75,19.5416667 C11.75,19.2886667 11.9553333,19.0833333 12.2083333,19.0833333 L18.625,19.0833333 Z M21.375,16.3333333 C21.628,16.3333333 21.8333333,16.5386667 21.8333333,16.7916667 C21.8333333,17.0446667 21.628,17.25 21.375,17.25 L12.2083333,17.25 C11.9553333,17.25 11.75,17.0446667 11.75,16.7916667 C11.75,16.5386667 11.9553333,16.3333333 12.2083333,16.3333333 L21.375,16.3333333 Z M16.7916667,9.91666667 C16.0335833,9.91666667 15.4166667,10.5335833 15.4166667,11.2916667 C15.4166667,11.5446667 15.2113333,11.75 14.9583333,11.75 L13.5833333,11.75 L13.5833333,13.125 C13.5833333,13.3770833 13.7886667,13.5833333 14.0416667,13.5833333 L19.5416667,13.5833333 C19.7946667,13.5833333 20,13.3770833 20,13.125 L20,11.75 L18.625,11.75 C18.372,11.75 18.1666667,11.5446667 18.1666667,11.2916667 C18.1666667,10.5335833 17.54975,9.91666667 16.7916667,9.91666667 Z" id="Combined-Shape" fill="#FFFFFF"></path>
        </g>
    </g>
</svg>