<?xml version="1.0" encoding="UTF-8"?>
<svg width="41px" height="41px" viewBox="0 0 41 41" version="1.1" xmlns="http://www.w3.org/2000/svg" xmlns:xlink="http://www.w3.org/1999/xlink">
    <!-- Generator: Sketch 54.1 (76490) - https://sketchapp.com -->
    <title>icon1</title>
    <desc>Created with Sketch.</desc>
    <g id="Page-1" stroke="none" stroke-width="1" fill="none" fill-rule="evenodd">
        <g id="21.黑版-會員選單" transform="translate(-52.000000, -155.000000)">
            <g id="box" transform="translate(10.000000, 110.000000)">
                <g id="icon1" transform="translate(42.453457, 45.750000)">
                    <circle id="Oval" fill="#4A4A4A" cx="20" cy="20" r="20"></circle>
                    <path d="M28.4376238,30.5497183 L21.1510698,30.5497183 C18.9154225,30.5497183 17.1351849,28.7280798 17.1351849,26.5338335 L17.1351849,25.3332081 C17.1351849,23.0975608 18.9568234,21.3173232 21.1510698,21.3173232 L28.4376238,21.3173232 C30.673271,21.3173232 32.4535086,23.1389617 32.4535086,25.3332081 L32.4535086,26.5338335 C32.4535086,28.7280798 30.6318701,30.5497183 28.4376238,30.5497183 Z" id="Path" fill="#ED1F23" fill-rule="nonzero"></path>
                    <path d="M14.4522827,15.1767981 L14.4522827,15.4666042 C14.4522827,15.7150094 14.2452784,15.8806129 14.038274,15.8806129 C13.7898687,15.8806129 13.6242652,15.7150094 13.6242652,15.4666042 L13.6242652,15.1767981 L13.2930582,15.1767981 C13.044653,15.1767981 12.8790495,15.0111946 12.8790495,14.7627893 C12.8790495,14.5143841 13.044653,14.3487806 13.2930582,14.3487806 L13.6242652,14.3487806 L13.6242652,14.0175736 C13.6242652,13.7691683 13.7898687,13.6035648 14.038274,13.6035648 C14.2866792,13.6035648 14.4522827,13.7691683 14.4522827,14.0175736 L14.4522827,14.3487806 L14.7420889,14.3487806 C14.9904941,14.3487806 15.1560976,14.5143841 15.1560976,14.7627893 C15.1560976,15.0111946 14.9904941,15.1767981 14.7420889,15.1767981 L14.4522827,15.1767981 Z M28.1145715,17.9092558 L11.8854285,17.9092558 L11.8854285,18.6958724 C11.8854285,19.0270794 11.6370232,19.2754847 11.3058162,19.2754847 C10.9746092,19.2754847 10.726204,19.0270794 10.726204,18.6958724 L10.726204,14.1831771 C10.726204,12.8583491 11.8026267,11.7405254 13.1688556,11.7405254 L26.8311444,11.7405254 C28.1559724,11.7405254 29.273796,12.8169482 29.273796,14.1831771 L29.273796,25.8168229 C29.2323951,27.1830518 28.1559724,28.2594746 26.8311444,28.2594746 L13.1688556,28.2594746 C11.8440276,28.2594746 10.726204,27.1830518 10.726204,25.8168229 L10.726204,23.3741713 C10.726204,23.0429643 10.9746092,22.7945591 11.3058162,22.7945591 C11.6370232,22.7945591 11.8854285,23.0429643 11.8854285,23.3741713 L11.8854285,25.8168229 C11.8854285,26.5206378 12.4650407,27.1002501 13.1688556,27.1002501 L26.8311444,27.1002501 C27.5349593,27.1002501 28.1145715,26.5206378 28.1145715,25.8168229 L28.1145715,17.9092558 Z M28.1145715,16.7500313 L28.1145715,14.1831771 C28.1145715,13.4793622 27.5349593,12.8997499 26.8311444,12.8997499 L13.1688556,12.8997499 C12.4650407,12.8997499 11.8854285,13.4793622 11.8854285,14.1831771 L11.8854285,16.7500313 L28.1145715,16.7500313 Z M11.3058162,22.2977486 C10.9746092,22.2977486 10.726204,22.0493433 10.726204,21.7181363 L10.726204,20.3105066 C10.726204,19.9792996 10.9746092,19.7308943 11.3058162,19.7308943 C11.6370232,19.7308943 11.8854285,19.9792996 11.8854285,20.3105066 L11.8854285,21.7181363 C11.8854285,22.0493433 11.5956224,22.2977486 11.3058162,22.2977486 Z M25.5063164,24.9474046 L19.2961851,24.9474046 C18.9649781,24.9474046 18.7165729,24.6989993 18.7165729,24.3677923 C18.7165729,24.0365853 18.9649781,23.7881801 19.2961851,23.7881801 L25.5063164,23.7881801 C25.8375234,23.7881801 26.0859286,24.0365853 26.0859286,24.3677923 C26.0859286,24.6989993 25.8375234,24.9474046 25.5063164,24.9474046 Z" id="Combined-Shape" fill="#FFFFFF" fill-rule="nonzero"></path>
                </g>
            </g>
        </g>
    </g>
</svg>