<?xml version="1.0" encoding="UTF-8"?>
<svg width="39px" height="39px" viewBox="0 0 39 39" version="1.1" xmlns="http://www.w3.org/2000/svg" xmlns:xlink="http://www.w3.org/1999/xlink">
    <title>Fill 1</title>
    <defs>
        <polygon id="path-1" points="0 0.288457422 38.437721 0.288457422 38.437721 38.7257812 0 38.7257812"></polygon>
    </defs>
    <g id="推薦好友" stroke="none" stroke-width="1" fill="none" fill-rule="evenodd">
        <g id="Group-20" transform="translate(0.000000, -1.000000)">
            <g id="Group-3" transform="translate(0.000000, 0.704909)">
                <mask id="mask-2" fill="white">
                    <use xlink:href="#path-1"></use>
                </mask>
                <g id="Clip-2"></g>
                <path d="M19.2188109,0.288457422 C29.8326538,0.288457422 38.437721,8.89253164 38.437721,19.5063746 C38.437721,30.1212105 29.8326538,38.7262777 19.2188109,38.7262777 C8.60496789,38.7262777 -9.9296875e-05,30.1212105 -9.9296875e-05,19.5063746 C-9.9296875e-05,8.89253164 8.60496789,0.288457422 19.2188109,0.288457422" id="Fill-1" fill="#4A4A4A" mask="url(#mask-2)"></path>
            </g>
            <path d="M24.300748,8.79605992 C21.9047145,8.79605992 19.9555168,10.7452576 19.9555168,13.1412912 C19.9555168,15.5373248 21.9047145,17.4875154 24.300748,17.4875154 C26.6967816,17.4875154 28.6469723,15.5373248 28.6469723,13.1412912 C28.6469723,10.7452576 26.6967816,8.79605992 24.300748,8.79605992 M24.300748,18.579781 C21.3019824,18.579781 18.8632512,16.1400568 18.8632512,13.1412912 C18.8632512,10.1425255 21.3019824,7.7037943 24.300748,7.7037943 C27.2995137,7.7037943 29.7392379,10.1425255 29.7392379,13.1412912 C29.7392379,16.1400568 27.2995137,18.579781 24.300748,18.579781" id="Fill-4" fill="#FFFFFF"></path>
            <path d="M21.8178297,20.0863132 C18.4367711,21.0018304 16.0486813,23.6669585 16.0486813,26.5713921 C16.0486813,28.004246 19.7494758,29.118357 24.4839508,29.118357 C29.2174328,29.118357 32.9172344,28.004246 32.9172344,26.5713921 C32.9172344,23.6272398 30.5698563,21.0018304 27.1490789,20.0863132 C26.8700547,20.2858999 26.6317422,20.4050562 26.352718,20.5242124 C24.8811383,21.2004241 23.1702531,21.0018304 21.8178297,20.0863132 M24.5236695,30.1123187 C22.1365727,30.1123187 19.9083508,29.8332945 18.2371844,29.3169507 C15.6514938,28.5205898 15.0944383,27.4064788 15.0944383,26.5713921 C15.0944383,23.0711773 17.8002781,20.0465945 21.8178297,19.0526327 C21.9767047,19.012914 22.0968539,19.0526327 22.2160102,19.1320702 C23.2894094,19.967157 24.7222633,20.1270249 25.9952492,19.6096882 C26.2732805,19.489539 26.5523047,19.330664 26.7906172,19.1320702 C26.9097734,19.0526327 27.0696414,19.012914 27.1887977,19.0526327 C31.1269117,20.0465945 33.9121891,23.110896 33.9121891,26.5713921 C33.9121891,29.1977945 28.8599641,30.1123187 24.5236695,30.1123187" id="Fill-6" fill="#FFFFFF"></path>
            <path d="M21.1996073,23.0825964 C21.0804511,23.0428777 20.9205831,23.0825964 20.8014269,23.1620339 C20.5631144,23.3606277 20.2850831,23.5195027 20.0060589,23.6396519 C18.733073,24.1569886 17.301212,23.9981136 16.2268198,23.1620339 C16.1076636,23.0825964 15.9875144,23.0428777 15.8286394,23.0825964 C11.8100948,24.0775511 9.10524797,27.1011409 9.10524797,30.6013558 C9.10524797,31.4374355 9.66230344,32.5505534 12.2479941,33.3469144 C13.9191605,33.8632581 16.1473823,34.1432753 18.5334862,34.1432753 C22.8707737,34.1432753 27.9229987,33.2277581 27.9229987,30.6013558 C27.9229987,27.1408597 25.1377214,24.0775511 21.1996073,23.0825964" id="Fill-8" fill="#4A4A4A"></path>
            <path d="M21.1996073,23.0825964 C21.0804511,23.0428777 20.9205831,23.0825964 20.8014269,23.1620339 C20.5631144,23.3606277 20.2850831,23.5195027 20.0060589,23.6396519 C18.733073,24.1569886 17.301212,23.9981136 16.2268198,23.1620339 C16.1076636,23.0825964 15.9875144,23.0428777 15.8286394,23.0825964 C11.8100948,24.0775511 9.10524797,27.1011409 9.10524797,30.6013558 C9.10524797,31.4374355 9.66230344,32.5505534 12.2479941,33.3469144 C13.9191605,33.8632581 16.1473823,34.1432753 18.5334862,34.1432753 C22.8707737,34.1432753 27.9229987,33.2277581 27.9229987,30.6013558 C27.9229987,27.1408597 25.1377214,24.0775511 21.1996073,23.0825964 Z" id="Stroke-10" stroke="#4A4A4A" stroke-width="2"></path>
            <path d="M16.3458768,22.4067819 C17.0220885,22.6848131 17.738019,22.8039694 18.4549424,22.8039694 C19.2503104,22.8039694 20.0059596,22.6450944 20.7218901,22.3263514 C23.1487057,21.2529522 23.5071674,19.1041678 23.8646362,16.6376334 C23.9053479,16.398328 23.9450666,16.1600155 23.9847854,15.8819842 C24.0245041,15.8422655 24.0245041,15.7231092 24.0642229,15.60296 C24.5805666,13.3350194 24.6609971,12.4602139 24.2628166,12.0223147 C23.5071674,11.1475092 17.5394252,11.3063842 16.147283,11.8634397 C14.7541479,12.4999327 13.6807487,13.5733319 13.1236932,15.0061858 C12.5666377,16.4380467 12.5666377,17.9910498 13.2031307,19.3821991 C13.8396237,20.7743412 14.9140159,21.8487334 16.3458768,22.4067819" id="Fill-12" fill="#4A4A4A"></path>
            <path d="M16.3458768,22.4067819 C17.0220885,22.6848131 17.738019,22.8039694 18.4549424,22.8039694 C19.2503104,22.8039694 20.0059596,22.6450944 20.7218901,22.3263514 C23.1487057,21.2529522 23.5071674,19.1041678 23.8646362,16.6376334 C23.9053479,16.398328 23.9450666,16.1600155 23.9847854,15.8819842 C24.0245041,15.8422655 24.0245041,15.7231092 24.0642229,15.60296 C24.5805666,13.3350194 24.6609971,12.4602139 24.2628166,12.0223147 C23.5071674,11.1475092 17.5394252,11.3063842 16.147283,11.8634397 C14.7541479,12.4999327 13.6807487,13.5733319 13.1236932,15.0061858 C12.5666377,16.4380467 12.5666377,17.9910498 13.2031307,19.3821991 C13.8396237,20.7743412 14.9140159,21.8487334 16.3458768,22.4067819 Z" id="Stroke-14" stroke="#4A4A4A" stroke-width="2"></path>
            <path d="M12.1703439,22.9769445 C8.98787906,22.9769445 6.40119547,20.3912539 6.40119547,17.2077961 C6.40119547,14.0253313 8.98787906,11.4396406 12.1703439,11.4396406 C15.3538017,11.4396406 17.9394923,14.0253313 17.9394923,17.2077961 C17.9394923,20.3912539 15.3538017,22.9769445 12.1703439,22.9769445" id="Fill-16" fill="#FF9F5D"></path>
            <path d="M16.7438587,27.7371374 L19.8071673,27.7371374 C19.6085735,27.0609257 19.0117993,26.5833077 18.2948759,26.5833077 C17.5789454,26.5833077 16.9424524,27.0609257 16.7438587,27.7371374 M20.324504,28.6923734 L16.1868032,28.6923734 C15.908772,28.6923734 15.7091852,28.4937796 15.7091852,28.2147554 C15.7091852,26.7828945 16.8630149,25.6290648 18.2551571,25.6290648 C19.6482923,25.6290648 20.801129,26.7828945 20.801129,28.2147554 C20.801129,28.4540609 20.6025352,28.6923734 20.324504,28.6923734 M18.1360009,20.0197843 C17.8182509,20.0197843 17.5392266,19.7407601 17.5392266,19.4230101 C17.5392266,19.1042671 17.7785321,18.8252429 18.1360009,18.8252429 C18.2154384,18.8252429 18.9720805,18.7855241 19.4089868,18.1897429 C19.8071673,17.6714132 19.7674485,17.075632 19.7277298,16.916757 C19.688011,16.598014 19.8866048,16.279271 20.2450665,16.2395523 C20.5628165,16.1998335 20.8815595,16.3984273 20.9212782,16.7171702 C20.960997,16.9961945 21.0801532,18.0308679 20.3642227,18.9453921 C19.5688548,19.9393538 18.3753063,20.0197843 18.1360009,20.0197843 M15.8293345,24.1167734 C12.4472829,25.0312976 10.060186,27.6974187 10.060186,30.6018523 C10.060186,32.0337132 13.7599876,33.1478241 18.4944626,33.1478241 C23.2289376,33.1478241 26.9287391,32.0337132 26.9287391,30.6018523 C26.9287391,27.6576999 24.581361,25.0312976 21.1595907,24.1167734 C20.8815595,24.3163601 20.642254,24.4355163 20.3642227,24.5546726 C18.892643,25.2308843 17.1807649,25.0312976 15.8293345,24.1167734 M18.5341813,34.1427788 C16.1470845,34.1427788 13.9188626,33.8637546 12.2486891,33.3464179 C9.66200555,32.5510499 9.10495008,31.437932 9.10495008,30.6018523 C9.10495008,27.1006445 11.8107899,24.0770546 15.8293345,23.0830929 C15.9882095,23.0423812 16.1073657,23.0830929 16.226522,23.1625304 C17.3009141,23.9976171 18.7327751,24.1574851 20.005761,23.6391554 C20.2847852,23.5199991 20.5628165,23.3611241 20.801129,23.1625304 C20.9212782,23.0830929 21.0801532,23.0423812 21.1993095,23.0830929 C25.1384165,24.0770546 27.9227009,27.1403632 27.9227009,30.6018523 C27.9227009,33.2272616 22.8704759,34.1427788 18.5341813,34.1427788 M20.164636,12.6191882 C18.7327751,12.6191882 17.2611954,12.7393374 16.6644212,12.9776499 C15.5503102,13.4542749 14.7152235,14.3300734 14.2773243,15.4441843 C13.8394251,16.5582952 13.8791438,17.7508507 14.3567618,18.8649616 C14.8343798,19.9800655 15.7091852,20.8141593 16.8232962,21.2530515 C17.9374071,21.6899577 19.1706743,21.6899577 20.2450665,21.2133327 C22.0751079,20.4169718 22.3134204,18.8252429 22.6718821,16.438146 C22.7116009,16.1998335 22.7513196,15.9218023 22.7910384,15.642778 C22.7910384,15.6030593 22.8307571,15.483903 22.8704759,15.2853093 C23.2686563,13.7332991 23.3083751,13.0968062 23.3083751,12.8187749 C22.8307571,12.6986257 21.5180524,12.6191882 20.164636,12.6191882 M18.4547438,22.8040687 C17.7378204,22.8040687 17.0218899,22.6849124 16.3456782,22.4068812 C14.9138173,21.8488327 13.8394251,20.7744405 13.2029321,19.3822984 C12.5664391,17.9911491 12.5664391,16.438146 13.1234946,15.0062851 C13.6805501,13.5744241 14.7549423,12.500032 16.1470845,11.863539 C17.5392266,11.3064835 23.5069688,11.1476085 24.262618,12.022414 C24.6607985,12.4603132 24.581361,13.3351187 24.0640243,15.6030593 C24.0243055,15.7222155 24.0243055,15.8423648 23.9845868,15.8820835 C23.944868,16.1601148 23.9051493,16.3984273 23.8644376,16.6377327 C23.5069688,19.1042671 23.1495001,21.2530515 20.7216915,22.3264507 C20.005761,22.6451937 19.2501118,22.8040687 18.4547438,22.8040687" id="Fill-18" fill="#FFFFFF"></path>
        </g>
    </g>
</svg>