<?xml version="1.0" encoding="UTF-8"?>
<svg width="20px" height="16px" viewBox="0 0 20 16" version="1.1" xmlns="http://www.w3.org/2000/svg" xmlns:xlink="http://www.w3.org/1999/xlink">
    <title>Combined Shape</title>
    <g id="Crimson" stroke="none" stroke-width="1" fill="none" fill-rule="evenodd">
        <g id="My-VIP--藍優化--改版" transform="translate(-298.000000, -107.000000)" fill="#000000" fill-rule="nonzero">
            <path d="M314.358123,107 C314.778455,107 315.094354,107.171847 315.32428,107.525358 C315.897446,108.406586 316.483117,109.295658 317.049515,110.155439 C317.289403,110.519592 317.529291,110.883799 317.768801,111.248171 C318.103106,111.756855 318.076687,112.147006 317.677685,112.594861 C314.708725,115.927083 311.739547,119.259031 308.769774,122.590431 C308.52745,122.862216 308.266827,123 307.995051,123 C307.729555,123 307.478244,122.869017 307.247938,122.610781 L307.247938,122.610781 L305.258156,120.378716 C307.166258,119.349333 308.480471,117.45295 309.191595,114.790499 L309.191595,114.790499 L311.338709,114.985043 C311.44811,114.994993 311.558011,114.972387 311.654603,114.920067 C311.92523,114.773479 312.025783,114.435259 311.879195,114.164632 L311.879195,114.164632 L308.97572,108.804319 C308.945512,108.74855 308.906005,108.698347 308.858902,108.655873 C308.630329,108.449763 308.277949,108.467973 308.071839,108.696545 L308.071839,108.696545 L303.824712,113.406549 C303.744019,113.496037 303.694504,113.609269 303.68359,113.729271 C303.655715,114.035783 303.881594,114.306858 304.188107,114.334734 L304.188107,114.334734 L306.698769,114.563712 C306.103552,116.481701 305.124996,117.657025 303.752922,118.201348 C303.6483,118.242852 303.551423,118.297832 303.463429,118.363784 L298.313067,112.584549 C297.930415,112.155014 297.899881,111.750163 298.214101,111.271866 C298.491291,110.849956 298.768914,110.428321 299.046536,110.006685 L299.046536,110.006685 L299.068787,109.972952 C299.600591,109.165333 300.150531,108.330179 300.693757,107.498372 C300.909283,107.168336 301.217548,107.000987 301.609945,107.000987 C303.20162,107.004882 304.817224,107.004443 306.379609,107.004059 L306.379609,107.004059 L307.995213,107.00373 L307.995213,107.00373 L309.105975,107.003785 L309.580013,107.004169 C311.148137,107.004772 312.765744,107.00554 314.358123,107 Z" id="Combined-Shape"></path>
        </g>
    </g>
</svg>