<svg width="192" height="192" viewBox="0 0 192 192" fill="none" xmlns="http://www.w3.org/2000/svg">
<g style="mix-blend-mode:multiply">
<path d="M183.14 96.8649C183.14 145.216 143.954 184.402 95.5368 184.402C47.1857 184.402 8 145.216 8 96.8649C8 48.5138 47.1857 9.26172 95.5368 9.26172C143.954 9.26172 183.14 48.5138 183.14 96.8649Z" fill="#7F7F7F"/>
</g>
<path d="M183.14 95.5368C183.14 143.888 143.954 183.14 95.5368 183.14C47.1857 183.14 8 143.888 8 95.5368C8 47.1857 47.1857 8 95.5368 8C143.954 8 183.14 47.1857 183.14 95.5368Z" fill="white"/>
<path d="M183.14 96.068C183.14 144.419 143.954 183.671 95.5368 183.671C47.1857 183.671 8 144.419 8 96.068C8 47.7169 47.1857 8.53125 95.5368 8.53125C143.954 8.53125 183.14 47.7169 183.14 96.068Z" fill="url(#paint0_linear_1149_535)"/>
<path d="M155.777 35.8954C188.985 69.1036 188.985 123.034 155.777 156.242C122.502 189.516 68.6388 189.516 35.3642 156.242C2.15596 123.034 2.15596 69.1036 35.3642 35.8954C68.6388 2.6208 122.502 2.6208 155.777 35.8954Z" fill="url(#paint1_linear_1149_535)"/>
<path d="M21.2168 96.068C21.2168 55.0227 54.4914 21.6816 95.5367 21.6816C136.648 21.6816 169.923 55.0227 169.923 96.068C169.923 137.113 136.648 170.454 95.5367 170.454C54.4914 170.454 21.2168 137.113 21.2168 96.068Z" fill="url(#paint2_linear_1149_535)"/>
<path d="M45.1926 146.411C52.2328 153.451 60.6677 159.03 70.0988 162.617C67.2429 153.916 70.0324 150.861 63.5236 140.566C52.0999 138.84 38.551 126.221 29.5848 122.9C33.1713 131.8 38.551 139.77 45.1926 146.411ZM29.5848 122.9C38.551 126.221 52.0999 138.84 63.5236 140.566C57.4797 131.003 46.6538 121.571 46.6538 110.148C33.3705 110.148 35.1638 96.0675 24.3379 96.0675C24.3379 105.565 26.1976 114.598 29.5848 122.9ZM24.3379 96.0675C35.1638 96.0675 33.3705 110.148 46.6538 110.148C46.6538 100.916 50.9709 78.4008 55.8193 67.2428C42.9345 68.7704 37.3555 71.5599 27.858 73.9509C25.5998 80.9246 24.3379 88.3632 24.3379 96.0675ZM27.858 73.9509C37.3555 71.5599 42.9345 68.7704 55.8193 67.2428C61.1326 55.0886 66.7115 39.7464 70.0988 29.5183C60.6677 33.1712 52.2328 38.6838 45.1926 45.7239C37.3555 53.561 31.378 63.1914 27.858 73.9509ZM70.0988 162.617C78.0023 165.605 86.57 167.266 95.5363 167.266C95.6027 157.038 104.502 145.481 104.502 132.995C93.8758 132.995 73.1539 142.028 63.5236 140.566C70.0324 150.861 67.2429 153.916 70.0988 162.617ZM63.5236 140.566C73.1539 142.028 93.8758 132.995 104.502 132.995C104.502 121.372 100.783 115.063 100.783 102.178C88.6289 102.244 57.6789 110.148 46.6538 110.148C46.6538 121.571 57.4797 131.003 63.5236 140.566ZM46.6538 110.148C57.6789 110.148 88.6289 102.244 100.783 102.178C100.783 91.7505 95.6027 75.412 95.6027 65.7152C84.5111 65.7816 66.6451 65.9809 55.8193 67.2428C50.9709 78.4008 46.6538 100.916 46.6538 110.148ZM55.8193 67.2428C66.6451 65.9809 84.5111 65.7816 95.6027 65.7152C95.6027 50.7715 95.6027 36.8905 95.5363 24.8691C86.57 24.8691 78.0023 26.5296 70.0988 29.5183C66.7115 39.7464 61.1326 55.0886 55.8193 67.2428ZM95.5363 167.266C103.108 167.266 110.347 166.137 117.188 163.945C119.38 154.846 129.342 146.079 135.386 134.523C127.15 135.519 113.469 132.995 104.502 132.995C104.502 145.481 95.6027 157.038 95.5363 167.266ZM104.502 132.995C113.469 132.995 127.15 135.519 135.386 134.523C140.699 124.361 144.087 110.148 144.087 98.3921C134.589 98.3921 110.945 102.244 100.717 102.178C100.783 115.063 104.502 121.372 104.502 132.995ZM100.783 102.178C110.945 102.244 134.589 98.3921 144.087 98.3921C144.087 88.8281 142.958 78.2679 135.054 66.7115C126.486 65.9809 104.901 65.7816 95.6027 65.7152C95.6027 75.412 100.717 91.7505 100.717 102.178H100.783ZM95.6691 65.7152C104.967 65.7816 126.553 65.9809 135.12 66.7115C126.752 54.6237 119.845 38.8166 117.254 28.19C110.414 25.9982 103.174 24.8691 95.6027 24.8691C95.6691 36.8905 95.6691 50.7715 95.6691 65.7152ZM117.254 163.945C128.213 160.491 138.043 154.381 146.013 146.411C152.654 139.77 158.034 131.8 161.621 122.9C151.392 126.685 148.669 132.862 135.453 134.523C129.409 146.079 119.446 154.846 117.254 163.945ZM135.453 134.523C148.669 132.862 151.392 126.685 161.621 122.9C165.008 114.598 166.867 105.565 166.867 96.0675C154.647 96.0675 159.429 98.3921 144.153 98.3921C144.153 110.148 140.766 124.361 135.453 134.523ZM144.153 98.3921C159.429 98.3921 154.647 96.0675 166.867 96.0675C166.867 88.3632 165.606 80.9246 163.347 73.9509C154.049 70.1651 148.869 67.907 135.12 66.7115C143.024 78.2679 144.153 88.8281 144.153 98.3921ZM135.12 66.7115C148.869 67.907 154.049 70.1651 163.347 73.9509C159.827 63.1914 153.85 53.561 146.013 45.7239C138.043 37.7539 128.213 31.71 117.254 28.19C119.845 38.8166 126.752 54.6237 135.12 66.7115Z" fill="url(#paint3_linear_1149_535)"/>
<g style="mix-blend-mode:multiply">
<path d="M95.5372 25.8654C134.723 25.8654 166.47 57.4796 166.736 96.5324C166.736 96.3553 166.736 96.1782 166.736 96.0011C166.736 56.6826 134.856 24.8027 95.5372 24.8027C56.2187 24.8027 24.3389 56.6826 24.3389 96.0011C24.3389 96.1782 24.3389 96.3553 24.3389 96.5324C24.6709 57.4796 56.418 25.8654 95.5372 25.8654Z" fill="#7F7F7F"/>
</g>
<path d="M95.5363 166.204C56.417 166.204 24.67 134.656 24.4043 95.5371C24.36 95.7142 24.3379 95.8913 24.3379 96.0684C24.3379 135.387 56.2178 167.267 95.5363 167.267C134.921 167.267 166.801 135.387 166.801 96.0684C166.801 95.8913 166.779 95.7142 166.735 95.5371C166.469 134.656 134.722 166.204 95.5363 166.204Z" fill="white"/>
<path style="mix-blend-mode:multiply" d="M45.1926 146.411C52.2328 153.451 60.6677 159.03 70.0988 162.617C78.0023 165.605 86.57 167.266 95.5363 167.266C103.108 167.266 110.347 166.137 117.188 163.945C128.147 160.491 137.976 154.381 145.946 146.411C152.588 139.77 157.968 131.8 161.554 122.9C164.941 114.598 166.801 105.565 166.801 96.0675C166.801 88.3632 165.539 80.9246 163.281 73.9509C159.761 63.1914 153.783 53.561 145.946 45.7239C137.976 37.7539 128.147 31.71 117.188 28.19C110.347 25.9982 103.108 24.8691 95.5363 24.8691C86.57 24.8691 78.0023 26.5296 70.0988 29.5183C60.6677 33.1712 52.2328 38.6838 45.1926 45.7239C37.3555 53.561 31.378 63.1914 27.858 73.9509C25.5998 80.9246 24.3379 88.3632 24.3379 96.0675C24.3379 105.565 26.1976 114.598 29.5848 122.9C33.1713 131.8 38.551 139.77 45.1926 146.411Z" fill="url(#paint4_radial_1149_535)"/>
<path d="M86.7033 150.264C86.5705 149.202 86.172 147.94 85.7071 146.678C85.6185 146.368 85.5078 146.058 85.375 145.748C85.2422 145.438 85.1093 145.128 84.9765 144.818C84.6665 144.198 84.3566 143.601 84.0467 143.025C83.781 142.494 83.4489 141.962 83.1168 141.431C83.0283 141.298 82.9397 141.165 82.8512 141.033L82.6519 140.833L82.5191 140.634C82.342 140.368 82.1649 140.103 81.9878 139.837C81.7664 139.616 81.5671 139.394 81.39 139.173C81.3015 139.04 81.1908 138.929 81.0579 138.841C80.9694 138.752 80.8808 138.642 80.7923 138.509C80.3938 138.155 80.0174 137.867 79.6632 137.645C79.4639 138.907 79.5968 140.368 79.8624 141.896C80.0395 142.649 80.2831 143.401 80.593 144.154C80.7258 144.553 80.8587 144.929 80.9915 145.283C81.1686 145.637 81.3457 145.97 81.5228 146.279C81.8328 146.855 82.187 147.386 82.5855 147.873C82.984 148.361 83.4046 148.803 83.8474 149.202C84.0688 149.379 84.2902 149.556 84.5116 149.733C84.6001 149.777 84.6665 149.822 84.7108 149.866L84.3123 149.733C83.9802 149.667 83.6482 149.6 83.3161 149.467L81.1908 148.803C80.5266 148.582 79.8624 148.338 79.1983 148.073C79.0212 148.028 78.844 147.984 78.6669 147.94L78.202 147.741L77.405 147.409C77.405 147.364 77.405 147.32 77.405 147.276C77.4714 146.213 77.3386 144.951 77.1394 143.689C77.0065 143.025 76.8737 142.361 76.6744 141.763C76.5859 141.409 76.4973 141.077 76.4088 140.767C76.3202 140.457 76.2317 140.147 76.1431 139.837C75.966 139.261 75.7446 138.686 75.4789 138.11C75.3461 137.845 75.2133 137.557 75.0805 137.247C74.9476 136.937 74.7926 136.649 74.6155 136.383C74.4827 136.118 74.3277 135.874 74.1506 135.653C74.0178 135.387 73.8628 135.144 73.6857 134.922C73.5529 134.701 73.3979 134.502 73.2208 134.325C73.1322 134.28 73.0658 134.214 73.0215 134.125C72.933 134.037 72.8444 133.97 72.7559 133.926C72.6673 134.192 72.5788 134.502 72.4902 134.856C72.4459 135.166 72.4017 135.498 72.3574 135.852C72.2688 136.516 72.2467 137.247 72.291 138.044C72.291 138.774 72.4238 139.571 72.5566 140.368C72.6895 141.099 72.8887 141.896 73.1544 142.56C73.3315 143.136 73.575 143.711 73.885 144.287C74.0178 144.553 74.1728 144.796 74.3499 145.018C74.527 145.283 74.7041 145.527 74.8812 145.748C75.1469 146.058 75.3904 146.346 75.6118 146.612C73.5307 145.637 71.494 144.553 69.5015 143.357C69.3244 143.224 69.1472 143.091 68.9701 142.959C68.9701 142.914 68.9923 142.87 69.0366 142.826C69.2358 141.83 69.3686 140.568 69.3022 139.306C69.3022 138.642 69.2801 138 69.2358 137.38C69.1915 136.716 69.1251 136.073 69.0366 135.454C68.948 134.878 68.8152 134.28 68.6381 133.66C68.5052 133.063 68.306 132.398 68.1067 131.867C67.9075 131.336 67.7082 130.738 67.4426 130.273C67.2212 129.83 66.9776 129.454 66.712 129.144C66.1142 130.207 65.7822 131.535 65.5829 133.063C65.5386 133.417 65.4944 133.793 65.4501 134.192C65.4501 134.546 65.4501 134.922 65.4501 135.321C65.4501 135.719 65.4722 136.096 65.5165 136.45C65.5165 136.848 65.5608 137.225 65.6493 137.579C65.8486 138.708 66.2471 139.97 66.8448 140.966C66.9776 141.188 67.1105 141.409 67.2433 141.63C67.3319 141.763 67.3983 141.874 67.4426 141.962C65.76 140.811 64.1439 139.549 62.5942 138.177C62.2399 137.911 61.9079 137.623 61.5979 137.313C61.5979 137.269 61.6201 137.225 61.6643 137.18C62.0628 136.251 62.3285 135.055 62.5277 133.793C62.6163 133.173 62.6827 132.553 62.727 131.934C62.7713 131.624 62.7934 131.314 62.7934 131.004C62.7934 130.649 62.8156 130.34 62.8598 130.074C62.8598 129.454 62.8377 128.834 62.7934 128.214C62.727 127.616 62.6606 127.019 62.5277 126.421C62.5277 126.288 62.5056 126.133 62.4613 125.956C62.4613 125.912 62.4392 125.845 62.3949 125.757C62.3949 125.713 62.3949 125.646 62.3949 125.558C62.3064 125.292 62.2178 125.026 62.1293 124.761C62.085 124.539 62.0186 124.318 61.93 124.096C61.8857 124.008 61.8193 123.919 61.7308 123.831C61.6865 123.698 61.6422 123.609 61.5979 123.565C61.4208 123.786 61.2658 124.03 61.133 124.296C60.9559 124.561 60.8009 124.849 60.6681 125.159C60.3581 125.779 60.0925 126.443 59.8711 127.152C59.7825 127.506 59.694 127.86 59.6054 128.214C59.5169 128.568 59.4505 128.945 59.4062 129.343C59.3619 129.698 59.3176 130.074 59.2733 130.472C59.2291 130.827 59.2291 131.181 59.2733 131.535C59.2733 132.731 59.4726 133.926 59.8711 134.989C60.0039 135.387 60.1589 135.764 60.336 136.118C58.5649 134.435 56.9045 132.62 55.3548 130.672C55.3991 130.627 55.4433 130.583 55.4876 130.539C56.0189 129.742 56.4839 128.613 56.8159 127.484C57.0373 126.864 57.2144 126.244 57.3473 125.624C57.4358 125.314 57.5022 125.026 57.5465 124.761C57.6351 124.451 57.7015 124.141 57.7458 123.831C57.8343 123.255 57.9007 122.68 57.945 122.104C57.9893 121.794 58.0114 121.484 58.0114 121.174C58.0114 120.864 58.0114 120.576 58.0114 120.311C58.0114 120.001 58.0114 119.713 58.0114 119.447C57.9672 119.182 57.9229 118.916 57.8786 118.65C57.8343 118.119 57.7236 117.676 57.5465 117.322C56.7495 118.119 55.9525 119.248 55.3548 120.576C55.1777 120.886 55.0227 121.218 54.8899 121.573C54.757 121.927 54.6463 122.281 54.5578 122.635C54.2921 123.299 54.1593 124.03 54.0264 124.761C53.9379 125.292 53.8936 125.868 53.8936 126.487C53.8936 126.753 53.9158 127.041 53.96 127.351C54.0043 127.616 54.0486 127.882 54.0929 128.148C54.1371 128.413 54.1814 128.679 54.2257 128.945C54.27 129.078 54.3143 129.188 54.3585 129.277C54.3585 129.321 54.3585 129.365 54.3585 129.41C52.8974 127.462 51.5912 125.447 50.44 123.366C50.4842 123.322 50.5285 123.277 50.5728 123.233C51.237 122.502 51.8347 121.506 52.366 120.444C52.6317 119.912 52.8974 119.314 53.163 118.783C53.3844 118.207 53.5837 117.632 53.7608 117.056C53.96 116.525 54.1593 115.994 54.2921 115.396C54.3364 115.13 54.3807 114.842 54.4249 114.532C54.5135 114.267 54.5799 113.979 54.6242 113.669C54.7128 113.093 54.757 112.562 54.757 112.075C54.757 111.588 54.7128 111.145 54.6242 110.747C54.1814 111.101 53.7165 111.499 53.2295 111.942C52.831 112.407 52.366 113.005 51.9675 113.536C51.1705 114.732 50.5064 116.06 50.0415 117.388C49.9529 117.654 49.8865 117.92 49.8422 118.185C49.7537 118.451 49.6872 118.739 49.643 119.049C49.5987 119.58 49.5766 120.134 49.5766 120.709C49.5766 120.975 49.5987 121.241 49.643 121.506C49.643 121.683 49.6651 121.838 49.7094 121.971C48.6024 119.89 47.6283 117.743 46.7871 115.529C46.8313 115.484 46.8978 115.44 46.9863 115.396C47.6505 114.798 48.4475 113.935 49.1116 113.005C49.4659 112.518 49.7979 112.009 50.1079 111.477C50.4621 110.99 50.772 110.481 51.0377 109.95C51.5026 109.02 51.9675 107.824 52.2996 106.762C52.366 106.496 52.4325 106.23 52.4989 105.965C52.5874 105.743 52.6538 105.5 52.6981 105.234C52.7424 105.013 52.7645 104.791 52.7645 104.57C52.7645 104.349 52.7645 104.149 52.7645 103.972C52.4989 104.061 52.2332 104.194 51.9675 104.371C51.7462 104.548 51.5026 104.725 51.237 104.902C50.7499 105.301 50.2629 105.743 49.7758 106.23C48.846 107.293 47.9826 108.489 47.3848 109.684C47.2963 109.817 47.2298 109.95 47.1856 110.083C47.1413 110.171 47.0749 110.282 46.9863 110.415C46.8978 110.68 46.8092 110.946 46.7206 111.212C46.5878 111.743 46.455 112.274 46.3886 112.806C46.3443 113.293 46.3222 113.758 46.3222 114.2C45.7465 112.518 45.2373 110.835 44.7946 109.153L44.4625 107.426C44.5068 107.426 44.5732 107.404 44.6617 107.359C45.4587 106.895 46.3221 106.164 47.1191 105.301C47.9161 104.504 48.7131 103.574 49.3773 102.644C49.6872 102.245 49.9972 101.78 50.3071 101.249C50.44 101.028 50.5728 100.784 50.7056 100.519C50.8385 100.253 50.9713 100.009 51.1041 99.788C51.3255 99.2567 51.5026 98.7696 51.6355 98.3268C51.8126 97.8841 51.9011 97.4634 51.9011 97.0649C51.4141 97.242 50.8827 97.4856 50.3071 97.7955C50.0415 97.9726 49.7758 98.1497 49.5101 98.3268C49.2445 98.504 48.9788 98.7032 48.7131 98.9246C47.6505 99.7216 46.6542 100.784 45.8572 101.847C45.5473 102.29 45.2816 102.755 45.0602 103.242C44.8388 103.773 44.6396 104.282 44.4625 104.769C44.4182 105.035 44.3739 105.278 44.3297 105.5C44.2411 105.721 44.1968 105.943 44.1968 106.164L44.1304 105.965L43.9976 104.902C43.8647 104.171 43.7983 103.441 43.6655 102.777L43.5327 101.648C43.4884 101.293 43.4662 100.939 43.4662 100.585L43.3998 99.5223L43.3334 99.3231C43.422 99.3231 43.5105 99.3009 43.5991 99.2567C44.0419 99.0796 44.4846 98.8582 44.9274 98.5925C45.3702 98.3268 45.813 98.0169 46.2557 97.6627C47.1856 96.9985 48.049 96.2015 48.846 95.4045C49.5766 94.6739 50.3071 93.7441 50.9049 92.8143C51.2148 92.3715 51.4584 91.9287 51.6355 91.486C51.8569 91.0875 52.0118 90.689 52.1004 90.2905C51.569 90.4233 51.0156 90.6004 50.44 90.8218C50.1743 90.9103 49.8865 91.0432 49.5766 91.2203C49.3109 91.3531 49.0231 91.5081 48.7131 91.6852C48.1375 91.9951 47.5841 92.3715 47.0527 92.8143C46.5214 93.2128 46.0343 93.6556 45.5916 94.1426C45.503 94.2312 45.4145 94.3197 45.3259 94.4083C45.2374 94.5411 45.1488 94.6518 45.0602 94.7404C44.8831 94.9617 44.7282 95.1831 44.5953 95.4045C44.4182 95.6259 44.2632 95.8473 44.1304 96.0687C43.9976 96.2901 43.8869 96.5115 43.7983 96.7328C43.6212 97.2199 43.4662 97.6627 43.3334 98.0612C43.3334 98.0612 43.3334 98.0833 43.3334 98.1276L43.267 96.2679C43.267 95.9137 43.267 95.5595 43.267 95.2053V94.6739C43.267 94.4526 43.267 94.2533 43.267 94.0762L43.3334 93.0135L43.3998 92.4822V91.9509C43.4441 91.7295 43.4662 91.5302 43.4662 91.3531C43.5548 91.3531 43.6434 91.3531 43.7319 91.3531C44.1747 91.2203 44.6175 91.0653 45.0602 90.8882C45.5473 90.6668 46.0343 90.4233 46.5214 90.1576C47.0085 89.892 47.4955 89.6042 47.9826 89.2942C48.4253 88.9843 48.8681 88.6522 49.3109 88.298C49.7094 88.0323 50.1079 87.6338 50.5064 87.3017C50.7278 87.0803 50.927 86.8811 51.1041 86.704C51.2812 86.4826 51.4584 86.2833 51.6355 86.1062C52.366 85.3092 52.8974 84.5122 53.163 83.8481C52.1004 83.9145 50.9049 84.1801 49.7094 84.6451C48.5139 85.1764 47.3184 85.8406 46.3222 86.6376C45.5252 87.3017 44.7946 88.0987 44.2632 88.8957C43.9976 89.3385 43.7762 89.7591 43.5991 90.1576C43.5991 90.1576 43.5991 90.1798 43.5991 90.224C43.8205 88.0544 44.1747 85.8848 44.6617 83.7152C44.706 83.7595 44.7946 83.7595 44.9274 83.7152C45.7908 83.6488 46.7871 83.3832 47.7833 82.9847C48.049 82.8961 48.2925 82.7854 48.5139 82.6526C48.7796 82.564 49.0452 82.4533 49.3109 82.3205C49.7979 82.0991 50.2629 81.8556 50.7056 81.5899C51.1484 81.3242 51.5912 81.0364 52.034 80.7265C52.2553 80.5494 52.4767 80.3944 52.6981 80.2616C52.9195 80.0845 53.1188 79.9074 53.2959 79.7303C53.6944 79.3982 54.0264 79.0661 54.3585 78.734C54.4914 78.5569 54.6242 78.3798 54.757 78.2027C54.8456 78.0256 54.9341 77.8706 55.0227 77.7378C54.5578 77.6713 53.96 77.6713 53.4287 77.7378C52.8531 77.8263 52.2553 77.937 51.6355 78.0698C51.3255 78.1584 51.0156 78.247 50.7056 78.3355C50.3957 78.4683 50.0857 78.579 49.7758 78.6676C49.1781 78.9333 48.5803 79.1989 48.049 79.531C47.6062 79.7967 47.1856 80.0845 46.7871 80.3944C46.4328 80.7486 46.1008 81.1029 45.7908 81.4571C45.4366 81.8556 45.1709 82.2098 44.9938 82.5197C44.9495 82.6083 44.9053 82.6747 44.861 82.719C45.3923 80.6379 46.0343 78.5569 46.7871 76.4758C46.8756 76.5644 46.9642 76.6087 47.0527 76.6087C47.9161 76.6087 48.9124 76.4758 49.9086 76.2102C50.44 76.0774 50.9713 75.9445 51.5026 75.8117C51.9897 75.6346 52.4767 75.4353 52.9638 75.2139C53.4066 75.0368 53.8715 74.8376 54.3585 74.6162C54.8456 74.3505 55.2884 74.0849 55.6869 73.8192C56.5503 73.2214 57.2808 72.6237 57.6793 72.0924C57.1923 71.9595 56.661 71.8931 56.0854 71.8931C55.5098 71.8931 54.912 71.9153 54.2921 71.9595C53.0302 72.1588 51.7683 72.4909 50.6392 72.9558C49.7758 73.2879 48.846 73.8856 48.1818 74.4834C47.7169 74.8819 47.3848 75.3468 47.1191 75.6789C47.1634 75.5017 47.2298 75.3025 47.3184 75.0811C48.0711 73.31 48.8902 71.561 49.7758 69.8342C49.8422 69.9006 49.9086 69.967 50.0415 69.967C50.8385 70.0999 51.8347 70.0999 52.8974 69.967C53.3844 69.9228 53.8936 69.8564 54.4249 69.7678C54.6906 69.7235 54.9563 69.6792 55.2219 69.635C55.4433 69.5464 55.6869 69.48 55.9525 69.4357C56.3953 69.3029 56.8602 69.1479 57.3473 68.9708C57.8343 68.7937 58.2992 68.5944 58.742 68.373C59.2291 68.1517 59.6497 67.9081 60.0039 67.6425C60.181 67.5539 60.336 67.4432 60.4688 67.3104C60.646 67.1776 60.7788 67.0447 60.8673 66.9119C59.9375 66.5798 58.8084 66.447 57.6129 66.447C57.303 66.447 56.993 66.447 56.6831 66.447C56.3732 66.4913 56.0632 66.5355 55.7533 66.5798C55.1777 66.6241 54.5799 66.7348 53.96 66.9119C53.5173 67.0447 53.0745 67.2218 52.6317 67.4432C52.4103 67.5318 52.1889 67.6425 51.9675 67.7753C51.7904 67.8639 51.5912 67.9746 51.3698 68.1074C51.0156 68.3731 50.6835 68.6387 50.3735 68.9044C50.285 68.9929 50.1964 69.0815 50.1079 69.17C50.4621 68.5502 50.8163 67.9303 51.1706 67.3104C51.9233 66.1149 52.6981 64.9415 53.4951 63.7903C53.5615 63.9232 53.628 63.9896 53.7608 64.056C54.1593 64.1445 54.5799 64.211 55.0227 64.2552C55.4655 64.3438 55.9525 64.3881 56.4839 64.3881C57.4801 64.3881 58.5428 64.3216 59.539 64.1888C59.9818 64.1445 60.4467 64.056 60.9338 63.9232C61.4208 63.7903 61.9079 63.6575 62.3949 63.5246C63.3247 63.1926 64.1217 62.7941 64.5867 62.3292C64.1882 62.1521 63.7232 61.9749 63.1919 61.7978C62.6606 61.665 62.1071 61.5543 61.5315 61.4657C61.2216 61.4657 60.9116 61.4436 60.6017 61.3993C60.2917 61.3993 60.0039 61.3993 59.7383 61.3993C59.1184 61.3993 58.5206 61.4436 57.945 61.5322C57.458 61.5764 56.993 61.6871 56.5503 61.8642C56.3289 61.9085 56.1075 61.9749 55.8861 62.0635C55.6647 62.152 55.4655 62.2627 55.2884 62.3956C54.8899 62.5727 54.5356 62.7719 54.2257 62.9933C54.0929 63.1262 53.9822 63.2369 53.8936 63.3254C54.6463 62.2627 55.4212 61.2444 56.2182 60.2703C56.7495 59.6504 57.2809 59.0526 57.8122 58.477C57.8122 58.6098 57.8786 58.6763 58.0114 58.7427C58.742 59.0748 59.6054 59.274 60.6017 59.4068C61.0887 59.4511 61.5758 59.4954 62.0628 59.5397C62.3285 59.5397 62.5942 59.5618 62.8598 59.6061C63.0812 59.6061 63.3247 59.6061 63.5904 59.6061C64.0332 59.5618 64.4981 59.5175 64.9852 59.4733C65.4722 59.429 65.9593 59.3404 66.4463 59.2076C66.5349 59.2076 66.6456 59.1855 66.7784 59.1412C66.867 59.0969 66.9777 59.0748 67.1105 59.0748C67.3319 58.9862 67.5311 58.9198 67.7082 58.8755C67.9296 58.7869 68.1067 58.6984 68.2396 58.6098C68.4167 58.5213 68.5716 58.4327 68.7045 58.3442C68.306 58.1228 67.8632 57.9014 67.3761 57.68C66.8891 57.5029 66.3578 57.3479 65.7822 57.2151C65.5165 57.1265 65.2508 57.0601 64.9852 57.0159C64.6752 56.9716 64.3874 56.9273 64.1217 56.883C63.5019 56.8387 62.9041 56.8166 62.3285 56.8166C61.8857 56.8166 61.4429 56.8609 61.0002 56.9494C60.7788 56.9937 60.5574 57.0601 60.336 57.1487C60.1146 57.193 59.8932 57.2594 59.6718 57.3479C59.2733 57.4808 58.9191 57.6357 58.6092 57.8128C58.4321 57.9014 58.2771 57.99 58.1443 58.0785C59.4726 56.6616 60.8452 55.3112 62.2621 54.0271C62.3506 53.9828 62.4392 53.9164 62.5277 53.8279C62.5277 53.9607 62.5942 54.0935 62.727 54.1599C63.3912 54.5584 64.2546 54.8241 65.118 55.0898C65.5829 55.2226 66.1142 55.289 66.5792 55.4219C67.0662 55.5104 67.5311 55.5768 67.9739 55.6211C68.9037 55.6875 69.9 55.6875 70.7634 55.5547C71.0291 55.5547 71.2726 55.5326 71.494 55.4883C71.6711 55.444 71.8703 55.3997 72.0917 55.3554C72.4902 55.2669 72.8223 55.134 73.088 54.9569C72.4238 54.4256 71.494 53.8943 70.4313 53.4958C69.9 53.3187 69.3465 53.1637 68.7709 53.0309C68.5052 52.9866 68.2396 52.9423 67.9739 52.898C67.6639 52.8537 67.3761 52.8095 67.1105 52.7652C66.6677 52.7209 66.2249 52.7209 65.7822 52.7652C65.3394 52.8095 64.8966 52.8759 64.4538 52.9644C64.2767 53.0087 64.0775 53.0751 63.8561 53.1637C63.679 53.208 63.524 53.2744 63.3912 53.363C63.1255 53.4515 62.9263 53.5401 62.7934 53.6286C64.1217 52.5217 65.4943 51.459 66.9112 50.4406C66.9112 50.4406 66.9334 50.4406 66.9776 50.4406C67.2433 50.4849 67.5533 50.4628 67.9075 50.3742C68.0846 50.3742 68.2617 50.3299 68.4388 50.2414C68.6159 50.1971 68.8152 50.1528 69.0366 50.1085C69.4793 49.9757 69.9 49.8207 70.2985 49.6436C70.7412 49.4665 71.1619 49.2673 71.5604 49.0459C71.826 48.9131 72.0917 48.7581 72.3574 48.581C72.5788 48.4481 72.8223 48.2932 73.088 48.116C73.6193 47.8061 74.1285 47.474 74.6155 47.1198C75.5454 46.3892 76.4088 45.6586 76.9401 44.9281C76.5416 44.8395 76.0767 44.7952 75.5454 44.7952C75.324 44.8395 75.0804 44.8617 74.8148 44.8617C74.5491 44.9059 74.2613 44.9723 73.9514 45.0609C72.8887 45.2602 71.7596 45.6586 70.9626 46.1236C70.4756 46.3892 70.0328 46.677 69.6343 46.987C69.1915 47.2969 68.793 47.629 68.4388 47.9832C67.7746 48.6474 67.1769 49.378 66.8448 50.1085C66.8448 50.175 66.8448 50.3078 66.9112 50.4406C65.4501 51.459 64.0332 52.5217 62.6606 53.6286C62.8377 53.4958 62.9927 53.3187 63.1255 53.0973C63.2141 52.9202 63.3247 52.7431 63.4576 52.5659C63.5461 52.3888 63.6347 52.2117 63.7232 52.0346C63.9004 51.6361 64.0775 51.2155 64.2546 50.7727C64.4317 50.3299 64.5867 49.8872 64.7195 49.4444C64.7638 49.1787 64.808 48.8909 64.8523 48.581C64.9409 48.3153 65.0073 48.0275 65.0516 47.7176C65.1844 47.1419 65.273 46.5442 65.3172 45.9243C65.4501 44.7288 65.5165 43.5997 65.3837 42.7363C65.0294 42.9577 64.6974 43.2677 64.3874 43.6662C64.2103 43.8433 64.0332 44.0425 63.8561 44.2639C63.7232 44.4853 63.5683 44.7067 63.3912 44.9281C62.7934 45.9243 62.3285 46.987 62.1293 47.9168C61.9964 48.4481 61.8857 48.9573 61.7972 49.4444C61.7529 49.9757 61.7308 50.4849 61.7308 50.972C61.7972 51.9682 61.93 52.898 62.1957 53.5622C62.2621 53.695 62.3949 53.8279 62.4613 53.8279C62.4171 53.8721 62.3506 53.9386 62.2621 54.0271C60.7566 55.3112 59.3398 56.6838 58.0114 58.1449C58.1 57.9678 58.2107 57.7686 58.3435 57.5472C58.4763 57.2372 58.6313 56.8609 58.8084 56.4181C58.8527 56.241 58.9191 56.0417 59.0077 55.8204C59.052 55.599 59.1184 55.3554 59.2069 55.0898C59.3398 54.647 59.4283 54.1821 59.4726 53.695C59.5612 53.1194 59.6276 52.5217 59.6718 51.9018C59.6718 51.5918 59.6718 51.2819 59.6718 50.972C59.7161 50.662 59.7383 50.3521 59.7383 50.0421C59.7383 49.4222 59.7161 48.8245 59.6718 48.2489C59.5833 47.7175 59.4947 47.2084 59.4062 46.7213C59.2291 46.8541 59.052 47.0091 58.8748 47.1862C58.742 47.4076 58.6092 47.629 58.4764 47.8504C58.2992 48.0275 58.1443 48.2489 58.0114 48.5146C57.9672 48.6474 57.9007 48.7581 57.8122 48.8466C57.7679 48.9795 57.7015 49.1123 57.6129 49.2451C57.3915 49.7765 57.1923 50.3078 57.0152 50.8391C56.8381 51.4147 56.7274 51.9461 56.6831 52.4331C56.6388 52.6988 56.5945 52.9644 56.5503 53.2301C56.5503 53.4958 56.5503 53.7614 56.5503 54.0271C56.5503 54.5584 56.5945 55.0898 56.6831 55.6211C56.8159 56.6173 57.0816 57.5472 57.4137 58.2113C57.4801 58.3442 57.6129 58.4106 57.7458 58.4106C57.1702 58.9862 56.6388 59.5839 56.1518 60.2038C55.3105 61.1779 54.5135 62.1963 53.7608 63.259C53.8051 63.1262 53.8493 62.9712 53.8936 62.7941C54.0264 62.4399 54.1593 62.0414 54.2921 61.5986C54.3364 61.3772 54.3807 61.1558 54.4249 60.9344C54.4692 60.6687 54.4914 60.4252 54.4914 60.2038C54.5799 59.7168 54.6242 59.2297 54.6242 58.7427C54.6242 58.1228 54.6021 57.4808 54.5578 56.8166C54.5578 56.5067 54.5356 56.1967 54.4914 55.8868C54.4914 55.5768 54.4692 55.2669 54.4249 54.9569C54.3585 54.2928 54.2257 53.695 54.1593 53.1637C54.0265 52.5881 53.8715 52.0789 53.6944 51.6361C53.0966 52.2339 52.5653 53.2965 52.2332 54.4256C52.0118 55.0012 51.8568 55.5768 51.7683 56.1524C51.6355 56.6838 51.6355 57.2815 51.6355 57.8128C51.569 58.8755 51.7019 60.0046 51.9675 61.0008C52.1004 61.5322 52.2553 61.9971 52.4325 62.3956C52.6538 62.8383 52.8752 63.2368 53.0966 63.5911C53.163 63.6575 53.2959 63.7239 53.3623 63.7239C52.5653 64.8751 51.7904 66.0485 51.0377 67.244C50.6835 67.8639 50.3293 68.4837 49.9751 69.1036C50.0193 68.9708 50.0415 68.838 50.0415 68.7051C50.13 68.3509 50.1964 67.9303 50.2407 67.4432C50.285 67.2218 50.3071 66.9783 50.3071 66.7126C50.3071 66.4913 50.3293 66.2477 50.3735 65.9821C50.3735 65.495 50.3293 64.9858 50.2407 64.4545C50.1964 63.8346 50.1079 63.2147 49.9751 62.5948C49.9308 62.2406 49.8644 61.9085 49.7758 61.5986C49.7315 61.2886 49.6651 60.9787 49.5766 60.6688C49.3109 59.4068 48.9124 58.2113 48.4475 57.3479C48.3146 57.525 48.1818 57.7243 48.049 57.9457C47.9604 58.1671 47.8497 58.4106 47.7169 58.6763C47.5398 59.2076 47.3848 59.7832 47.252 60.4031C47.1634 60.9787 47.097 61.5764 47.0527 62.1963C46.9863 62.7941 47.0527 63.3918 47.0527 63.9232C47.097 64.1888 47.1413 64.4545 47.1856 64.7201C47.2298 65.0301 47.2963 65.3179 47.3848 65.5836C47.5176 66.1149 47.6726 66.6462 47.8497 67.1776C48.2482 68.1738 48.7796 69.0372 49.3109 69.635C49.4437 69.7014 49.5101 69.7678 49.643 69.7678C48.7131 71.4503 47.8719 73.1993 47.1191 75.0147C47.0306 75.2361 46.942 75.4353 46.8535 75.6124C46.942 75.1697 46.9642 74.6162 46.9199 73.952C46.9199 73.0222 46.7871 71.9595 46.5214 70.9633C46.2557 69.7014 45.8572 68.3731 45.3923 67.1111C45.1267 66.5134 44.861 65.9156 44.5953 65.3843C44.3297 64.853 44.064 64.3659 43.7983 63.9232C43.3334 64.7201 43.0677 65.9156 42.9349 67.1776C42.9349 67.7974 42.9349 68.4173 42.9349 69.0372C43.0235 69.6571 43.112 70.2327 43.2006 70.764C43.3334 71.3397 43.5105 71.8931 43.7319 72.4245C43.9533 73.0001 44.1968 73.5314 44.4625 74.0184C44.9938 74.9483 45.658 75.7453 46.2557 76.2766C46.3886 76.343 46.455 76.4094 46.5878 76.4094C45.7908 78.4905 45.1267 80.5937 44.5953 82.719C44.5953 82.6304 44.5953 82.5419 44.5953 82.4533C44.551 82.0548 44.4846 81.612 44.3961 81.125C44.3518 80.6379 44.2632 80.1288 44.1304 79.5974C43.9976 79.0661 43.8205 78.5569 43.5991 78.0698C43.3777 77.45 43.112 76.8301 42.8021 76.2102C42.6692 75.9002 42.5364 75.5903 42.4036 75.2804C42.2265 74.9704 42.0715 74.6605 41.9387 74.3505C41.5844 73.7749 41.2302 73.2214 40.876 72.6901C40.5661 72.1588 40.234 71.716 39.8798 71.3618C39.7912 71.5832 39.7026 71.8046 39.6141 72.0259C39.5698 72.2916 39.5255 72.5794 39.4813 72.8894C39.4148 73.4871 39.4148 74.0849 39.4813 74.749C39.4813 75.059 39.5034 75.3689 39.5477 75.6789C39.592 76.0331 39.6584 76.3652 39.7469 76.6751C39.8798 77.295 40.0347 77.8706 40.2118 78.4019C40.4332 78.9333 40.6989 79.4646 41.0088 79.9959C41.1417 80.2616 41.2745 80.5051 41.4073 80.7265C41.5844 80.9922 41.7616 81.2357 41.9387 81.4571C42.6028 82.3869 43.3334 83.1175 44.064 83.5824C44.1525 83.6267 44.2411 83.6488 44.3297 83.6488C43.8426 85.8184 43.4884 88.0323 43.267 90.2905C43.2227 90.2019 43.2006 90.1355 43.2006 90.0912C43.112 89.6927 43.0013 89.2499 42.8685 88.7629C42.6028 87.7666 42.1379 86.704 41.6066 85.7741C40.9424 84.6451 40.2118 83.3832 39.3484 82.2541C38.5514 81.125 37.688 80.1287 36.8246 79.4646C36.6254 80.3944 36.6918 81.6563 36.9574 82.9847C37.0017 83.2946 37.0681 83.6267 37.1567 83.9809C37.2452 84.2908 37.3559 84.6008 37.4888 84.9107C37.7102 85.5306 37.9537 86.0841 38.2194 86.5711C38.5293 87.1025 38.8614 87.6117 39.2156 88.0987C39.5477 88.5636 39.9462 89.0285 40.3447 89.427C40.7875 89.8698 41.2081 90.2462 41.6066 90.5561C42.0494 90.8661 42.47 91.1096 42.8685 91.2867C42.9571 91.331 43.0456 91.331 43.1342 91.2867C43.1342 91.5081 43.112 91.7073 43.0677 91.8845L43.0013 92.4822V93.0135L42.9349 94.0762C42.9349 94.2533 42.9349 94.4304 42.9349 94.6075V95.2053C42.8906 95.5595 42.8685 95.9137 42.8685 96.2679L42.9349 98.1276C42.9349 98.1276 42.9349 98.1054 42.9349 98.0612C42.8021 97.6627 42.6028 97.2199 42.3372 96.7328C42.2486 96.5115 42.1379 96.2901 42.0051 96.0687C41.8723 95.803 41.7394 95.5595 41.6066 95.3381C41.4738 95.1167 41.3188 94.8732 41.1417 94.6075C41.0531 94.519 40.9867 94.4083 40.9424 94.2754C40.8539 94.1869 40.7653 94.0762 40.6768 93.9434C40.2783 93.412 39.8355 92.8586 39.3484 92.2829C38.8614 91.7516 38.3743 91.2203 37.8873 90.689C37.6216 90.4233 37.3781 90.1798 37.1567 89.9584C36.891 89.6927 36.6475 89.4713 36.4261 89.2942C35.8948 88.8514 35.4077 88.4751 34.9649 88.1651C34.8985 88.6965 34.9649 89.2942 35.0314 89.892C35.1642 90.4897 35.297 91.1539 35.5627 91.7516C35.9612 93.0135 36.6254 94.2754 37.3559 95.2053C38.0865 96.2015 39.0163 97.1314 39.9462 97.8619C40.4332 98.2162 40.8981 98.5039 41.3409 98.7253C41.828 98.991 42.2929 99.1903 42.7357 99.3231C42.8242 99.3674 42.9128 99.3674 43.0013 99.3231V99.5223L43.0677 100.651C43.0677 101.006 43.0899 101.36 43.1342 101.714L43.267 102.777C43.3334 103.507 43.3998 104.238 43.5327 104.968L43.7319 106.031L43.7983 106.23C43.754 106.23 43.7319 106.23 43.7319 106.23C43.6434 106.053 43.5327 105.854 43.3998 105.633C43.3113 105.411 43.1784 105.19 43.0013 104.968C42.7357 104.57 42.4036 104.105 42.0051 103.64C41.6951 103.197 41.3188 102.777 40.876 102.378C39.8798 101.382 38.7507 100.386 37.6216 99.5223C37.3117 99.2567 37.0239 99.0353 36.7582 98.8582C36.4482 98.6368 36.1604 98.4375 35.8948 98.2604C35.3192 97.9062 34.7878 97.6184 34.3008 97.397C34.3008 97.9283 34.4336 98.4597 34.6329 99.0574C34.8321 99.6552 35.0978 100.319 35.3634 100.917C35.5406 101.227 35.7177 101.537 35.8948 101.847C36.0719 102.157 36.2711 102.445 36.4925 102.71C36.891 103.242 37.2895 103.729 37.688 104.171C38.6179 105.101 39.6805 105.832 40.7432 106.43C41.8058 107.027 42.8685 107.426 43.7983 107.559C43.8426 107.559 43.909 107.537 43.9976 107.492L44.3961 109.219C44.7946 110.99 45.2816 112.717 45.8572 114.4C45.5916 114.045 45.2816 113.669 44.9274 113.271C44.5732 112.872 44.1747 112.474 43.7319 112.075C43.5105 111.898 43.2891 111.699 43.0677 111.477C42.9792 111.389 42.8685 111.3 42.7357 111.212C42.6471 111.123 42.5364 111.035 42.4036 110.946C41.2745 110.083 39.8798 109.286 38.6178 108.555C37.9537 108.156 37.3117 107.824 36.6918 107.559C36.3818 107.426 36.0719 107.293 35.7619 107.16C35.4963 107.072 35.2306 106.983 34.9649 106.895C35.0092 107.16 35.0756 107.426 35.1642 107.692C35.2528 107.957 35.3856 108.245 35.5627 108.555C35.6955 108.865 35.8505 109.153 36.0276 109.418C36.2269 109.75 36.3597 110.016 36.6254 110.282C37.4224 111.477 38.4186 112.54 39.4813 113.271C40.0126 113.669 40.5439 114.023 41.0753 114.333C41.6509 114.643 42.2486 114.887 42.8685 115.064C43.9976 115.529 45.1267 115.728 46.0565 115.728C46.145 115.728 46.2336 115.706 46.3222 115.662C47.1634 117.964 48.1375 120.178 49.2445 122.303C49.1116 122.17 48.9567 122.037 48.7796 121.905C48.6024 121.728 48.4032 121.55 48.1818 121.373C47.739 121.019 47.2741 120.687 46.7871 120.377C46.5214 120.2 46.2779 120.045 46.0565 119.912C45.7908 119.735 45.5252 119.58 45.2595 119.447C43.9312 118.783 42.5364 118.119 41.0753 117.588C40.3447 117.322 39.6805 117.056 38.9499 116.857C38.2858 116.68 37.6659 116.547 37.0903 116.459C37.2895 116.99 37.5552 117.521 37.9537 118.053C38.3522 118.65 38.8171 119.182 39.282 119.713C39.5477 119.979 39.8133 120.222 40.079 120.444C40.3447 120.709 40.6325 120.931 40.9424 121.108C41.518 121.55 42.0715 121.927 42.6028 122.237C43.2227 122.547 43.8426 122.812 44.4625 123.034C45.0824 123.255 45.7244 123.432 46.3886 123.565C47.5841 123.831 48.7796 123.831 49.7094 123.698C49.7979 123.654 49.8644 123.631 49.9086 123.631C51.1041 125.757 52.4546 127.816 53.96 129.808C53.9158 129.764 53.8493 129.742 53.7608 129.742C53.6722 129.653 53.5837 129.565 53.4951 129.476C53.2737 129.343 53.0302 129.21 52.7645 129.078C52.5432 128.945 52.2996 128.812 52.034 128.679C51.7683 128.546 51.5026 128.413 51.237 128.281C50.6614 128.015 50.0857 127.794 49.5101 127.616C48.8017 127.395 48.0711 127.174 47.3184 126.952C46.9199 126.819 46.5214 126.709 46.1229 126.62C45.7244 126.532 45.348 126.443 44.9938 126.355C43.4662 126.022 42.0051 125.823 40.8096 125.89C41.0753 126.421 41.4738 126.886 41.9387 127.417C42.1601 127.639 42.4036 127.882 42.6693 128.148C42.9349 128.369 43.2227 128.591 43.5327 128.812C43.8426 129.033 44.1525 129.233 44.4625 129.41C44.6396 129.543 44.7946 129.653 44.9274 129.742C45.1045 129.83 45.2595 129.919 45.3923 130.007C46.0565 130.362 46.6985 130.627 47.3184 130.804C47.4955 130.893 47.6505 130.959 47.7833 131.004C47.9604 131.048 48.1375 131.092 48.3146 131.137C48.6246 131.225 48.9567 131.292 49.3109 131.336C49.9751 131.469 50.6392 131.557 51.3034 131.601C52.5653 131.601 53.7608 131.469 54.6906 131.137C54.7792 131.137 54.8456 131.114 54.8899 131.07C56.4396 133.063 58.1221 134.922 59.9375 136.649C59.539 136.472 59.1184 136.295 58.6756 136.118C57.6129 135.719 56.4174 135.387 55.1555 135.188C54.8013 135.144 54.4249 135.077 54.0264 134.989C53.6279 134.944 53.2295 134.9 52.831 134.856C52.4325 134.812 52.0118 134.789 51.569 134.789C51.1705 134.745 50.772 134.701 50.3735 134.657C49.5765 134.612 48.8238 134.612 48.1154 134.657C47.7169 134.657 47.3627 134.679 47.0527 134.723C46.6985 134.767 46.3664 134.812 46.0565 134.856C46.145 134.989 46.2557 135.122 46.3886 135.254C46.4771 135.343 46.5878 135.431 46.7206 135.52C46.942 135.741 47.1856 135.963 47.4512 136.184C47.7612 136.406 48.0711 136.605 48.3811 136.782C48.4253 136.826 48.4917 136.893 48.5803 136.981C48.6689 137.025 48.7574 137.07 48.846 137.114C49.0231 137.203 49.1781 137.291 49.3109 137.38C50.0415 137.712 50.7056 138.044 51.4362 138.243C52.1447 138.509 52.831 138.686 53.4951 138.774C53.8051 138.863 54.1371 138.907 54.4914 138.907C54.8456 138.952 55.1998 138.974 55.554 138.974C56.2625 138.974 56.9488 138.952 57.6129 138.907C58.9413 138.708 60.0703 138.376 61.0002 137.911C61.0444 137.867 61.0887 137.822 61.133 137.778C61.443 138.088 61.775 138.398 62.1293 138.708C63.7232 140.081 65.3837 141.365 67.1105 142.56C66.9777 142.516 66.8448 142.494 66.712 142.494C66.4463 142.405 66.1585 142.339 65.8486 142.294C64.7195 142.095 63.3912 141.896 62.1293 141.896C61.7308 141.896 61.3323 141.918 60.9338 141.962C60.5353 141.962 60.1368 141.962 59.7383 141.962C59.2955 142.007 58.8749 142.051 58.4764 142.095C58.0779 142.14 57.6794 142.184 57.2809 142.228C55.6204 142.361 54.0929 142.693 52.9638 143.091C53.3623 143.49 53.8936 143.888 54.5578 144.221C55.1555 144.553 55.8861 144.818 56.6167 145.084C57.3473 145.35 58.1443 145.549 58.8748 145.615C59.6718 145.748 60.4024 145.815 61.0666 145.815C61.7308 145.815 62.4613 145.748 63.1919 145.682C63.9004 145.593 64.5645 145.438 65.1844 145.217C66.5127 144.885 67.6418 144.287 68.4388 143.689C68.4831 143.645 68.5274 143.601 68.5716 143.556C68.7488 143.689 68.948 143.822 69.1694 143.955C71.1619 145.195 73.2429 146.324 75.4125 147.342C75.014 147.298 74.5934 147.276 74.1506 147.276C73.8407 147.276 73.5307 147.276 73.2208 147.276C72.9108 147.276 72.6009 147.298 72.291 147.342C71.6268 147.342 70.9848 147.409 70.3649 147.541C69.5679 147.674 68.7709 147.807 67.9075 148.006C67.1105 148.206 66.2471 148.471 65.4501 148.67C64.6531 148.892 63.9004 149.135 63.1919 149.401C62.8377 149.534 62.5056 149.689 62.1957 149.866C61.8857 149.999 61.5758 150.154 61.2658 150.331C61.3987 150.375 61.5315 150.442 61.6643 150.53C61.7972 150.619 61.9521 150.685 62.1293 150.729C62.4392 150.862 62.7713 150.995 63.1255 151.128C63.4354 151.261 63.7897 151.371 64.1882 151.46C64.5424 151.548 64.9187 151.615 65.3172 151.659C65.7157 151.703 66.1142 151.748 66.5127 151.792C66.9112 151.836 67.3097 151.858 67.7082 151.858C68.5052 151.858 69.2358 151.792 69.9 151.659C70.0771 151.659 70.2763 151.637 70.4977 151.593C70.6748 151.549 70.8519 151.504 71.029 151.46C71.3833 151.371 71.7153 151.261 72.0253 151.128C72.7337 150.906 73.3979 150.641 74.0178 150.331C75.2797 149.733 76.2759 149.003 77.0065 148.206C77.0508 148.206 77.0729 148.183 77.0729 148.139L77.8699 148.471L78.4013 148.67C78.5784 148.715 78.7555 148.781 78.9326 148.87C79.5968 149.135 80.2831 149.379 80.9915 149.6L83.0504 150.264C83.3825 150.397 83.781 150.464 84.1131 150.597L84.578 150.729C84.4894 150.729 84.3787 150.729 84.2459 150.729C83.9802 150.774 83.6924 150.818 83.3825 150.862C82.8069 150.951 82.187 151.061 81.5228 151.194C80.903 151.371 80.2831 151.571 79.6632 151.792C79.2647 151.925 78.8662 152.08 78.4677 152.257C78.0692 152.39 77.6707 152.545 77.2722 152.722C76.4752 153.054 75.6782 153.386 74.9476 153.785C73.42 154.515 71.9589 155.312 71.029 156.176C71.5604 156.375 72.2245 156.574 72.9551 156.64C73.1322 156.685 73.3315 156.707 73.5529 156.707C73.73 156.751 73.9292 156.773 74.1506 156.773C74.5491 156.818 74.9476 156.818 75.3461 156.773C75.7446 156.773 76.1431 156.751 76.5416 156.707H76.8737L77.1394 156.64C77.3607 156.64 77.56 156.618 77.7371 156.574C78.5341 156.441 79.2647 156.242 79.9288 155.976C80.6373 155.755 81.3236 155.467 81.9878 155.113C82.2977 154.936 82.6076 154.759 82.9176 154.582C83.2275 154.36 83.5375 154.161 83.8474 153.984C84.9765 153.12 85.8399 152.191 86.4376 151.261C86.4819 151.261 86.5041 151.239 86.5041 151.194C88.8951 151.726 91.3303 152.124 93.8099 152.39L93.8763 151.46C91.441 151.239 89.05 150.862 86.7033 150.331C86.7033 150.287 86.7033 150.264 86.7033 150.264Z" fill="#656563"/>
<path d="M149.998 107.492C150.086 107.537 150.175 107.559 150.264 107.559C151.127 107.426 152.19 107.027 153.252 106.43C154.315 105.832 155.378 105.101 156.307 104.171C156.706 103.729 157.104 103.242 157.503 102.71C157.724 102.445 157.924 102.157 158.101 101.847C158.278 101.537 158.455 101.227 158.632 100.917C158.898 100.319 159.163 99.6552 159.429 99.0574C159.562 98.4597 159.695 97.9283 159.695 97.397C159.208 97.6184 158.676 97.9062 158.101 98.2604C157.835 98.4375 157.547 98.6368 157.237 98.8582C156.972 99.0353 156.684 99.2567 156.374 99.5223C155.245 100.386 154.116 101.382 153.119 102.378C152.677 102.777 152.3 103.197 151.99 103.64C151.592 104.105 151.26 104.57 150.994 104.968C150.817 105.19 150.684 105.411 150.596 105.633C150.463 105.854 150.352 106.053 150.264 106.23V106.031L150.463 104.968C150.596 104.238 150.662 103.507 150.728 102.777L150.861 101.714C150.906 101.36 150.928 101.006 150.928 100.651L150.994 99.5223V99.3231C151.083 99.3674 151.171 99.3674 151.26 99.3231C151.703 99.1903 152.167 98.991 152.655 98.7253C153.142 98.5039 153.606 98.2162 154.049 97.8619C154.979 97.1314 155.909 96.2015 156.639 95.2053C157.37 94.2754 158.034 93.0135 158.433 91.7516C158.698 91.1539 158.831 90.4897 158.964 89.892C159.03 89.2942 159.097 88.6965 159.03 88.1651C158.588 88.4751 158.101 88.8514 157.569 89.2942C157.348 89.4713 157.104 89.6927 156.839 89.9584C156.617 90.1798 156.374 90.4233 156.108 90.689C155.621 91.2203 155.134 91.7516 154.647 92.2829C154.16 92.8586 153.717 93.412 153.319 93.9434C153.23 94.0762 153.142 94.1869 153.053 94.2754C153.009 94.4083 152.942 94.519 152.854 94.6075C152.677 94.8732 152.522 95.1167 152.389 95.3381C152.256 95.5595 152.123 95.803 151.99 96.0687C151.858 96.2901 151.747 96.5115 151.658 96.7328C151.437 97.2199 151.238 97.6627 151.061 98.0612C151.061 98.1054 151.061 98.1276 151.061 98.1276L151.127 96.2679C151.127 95.9137 151.105 95.5595 151.061 95.2053V94.6075C151.061 94.4304 151.061 94.2533 151.061 94.0762L150.994 93.0135V92.4822L150.928 91.8845C150.928 91.7073 150.906 91.5081 150.861 91.2867C150.95 91.331 151.038 91.331 151.127 91.2867C151.525 91.1096 151.946 90.8661 152.389 90.5561C152.832 90.2462 153.252 89.8698 153.651 89.427C154.049 89.0285 154.448 88.5636 154.78 88.0987C155.134 87.6117 155.466 87.1025 155.776 86.5711C156.086 86.0841 156.33 85.5306 156.507 84.9107C156.64 84.6008 156.75 84.2908 156.839 83.9809C156.927 83.6267 156.994 83.2946 157.038 82.9847C157.304 81.6563 157.37 80.3944 157.171 79.4646C156.307 80.1287 155.444 81.125 154.647 82.2541C153.784 83.3832 153.053 84.6451 152.389 85.7741C151.858 86.704 151.393 87.7666 151.127 88.7629C150.994 89.2499 150.883 89.6927 150.795 90.0912C150.795 90.1355 150.795 90.2019 150.795 90.2905C150.529 88.0323 150.153 85.8184 149.666 83.6488C149.754 83.6488 149.843 83.6267 149.931 83.5824C150.662 83.1175 151.393 82.3869 152.057 81.4571C152.234 81.2357 152.411 80.9922 152.588 80.7265C152.721 80.5051 152.876 80.2616 153.053 79.9959C153.319 79.4646 153.562 78.9333 153.784 78.4019C153.961 77.8706 154.116 77.295 154.248 76.6751C154.337 76.3652 154.403 76.0331 154.448 75.6789C154.492 75.3689 154.514 75.059 154.514 74.749C154.581 74.0849 154.581 73.4871 154.514 72.8894C154.47 72.5794 154.426 72.2916 154.381 72.0259C154.293 71.8046 154.226 71.5832 154.182 71.3618C153.784 71.716 153.429 72.1588 153.119 72.6901C152.765 73.2214 152.433 73.7749 152.123 74.3505C151.946 74.6605 151.791 74.9704 151.658 75.2804C151.481 75.5903 151.326 75.9002 151.193 76.2102C150.883 76.8301 150.618 77.45 150.396 78.0698C150.175 78.5569 150.02 79.0661 149.931 79.5974C149.754 80.1288 149.644 80.6379 149.599 81.125C149.511 81.612 149.444 82.0548 149.4 82.4533C149.4 82.5419 149.4 82.6304 149.4 82.719C148.869 80.5937 148.205 78.4905 147.408 76.4094C147.54 76.4094 147.607 76.343 147.74 76.2766C148.337 75.7453 149.002 74.9483 149.533 74.0184C149.799 73.5314 150.042 73.0001 150.264 72.4245C150.485 71.8931 150.662 71.3397 150.795 70.764C150.883 70.2327 150.972 69.6571 151.061 69.0372C151.061 68.4173 151.061 67.7974 151.061 67.1776C150.928 65.9156 150.662 64.7201 150.264 63.9232C149.954 64.3659 149.666 64.853 149.4 65.3843C149.134 65.9156 148.869 66.5134 148.603 67.1111C148.138 68.3731 147.74 69.7014 147.474 70.9633C147.208 71.9595 147.076 73.0222 147.076 73.952C147.031 74.6162 147.053 75.1697 147.142 75.6124C147.053 75.4353 146.965 75.2361 146.876 75.0147C146.124 73.1993 145.282 71.4503 144.352 69.7678C144.485 69.7678 144.552 69.7014 144.685 69.635C145.216 69.0372 145.747 68.1738 146.146 67.1776C146.323 66.6462 146.478 66.1149 146.611 65.5836C146.699 65.3179 146.766 65.0301 146.81 64.7201C146.854 64.4545 146.898 64.1888 146.943 63.9232C147.009 63.3918 147.009 62.7941 146.943 62.1963C146.898 61.5764 146.832 60.9787 146.743 60.4031C146.611 59.7832 146.456 59.2076 146.279 58.6763C146.146 58.4106 146.035 58.1671 145.946 57.9457C145.814 57.7243 145.681 57.525 145.548 57.3479C145.083 58.2113 144.685 59.4068 144.419 60.6688C144.33 60.9787 144.264 61.2886 144.22 61.5986C144.131 61.9085 144.065 62.2406 144.02 62.5948C143.888 63.2147 143.799 63.8346 143.755 64.4545C143.666 64.9858 143.644 65.495 143.688 65.9821C143.688 66.2477 143.688 66.4913 143.688 66.7126C143.688 66.9783 143.71 67.2218 143.755 67.4432C143.799 67.9303 143.865 68.3509 143.954 68.7051C143.954 68.838 143.976 68.9708 144.02 69.1036C143.666 68.4837 143.312 67.8639 142.958 67.244C142.205 66.0485 141.43 64.8751 140.633 63.7239C140.7 63.7239 140.832 63.6575 140.899 63.5911C141.12 63.2368 141.342 62.8383 141.563 62.3956C141.74 61.9971 141.895 61.5322 142.028 61.0008C142.294 60.0046 142.426 58.8755 142.426 57.8128C142.36 57.2815 142.36 56.6838 142.227 56.1524C142.139 55.5768 141.984 55.0012 141.762 54.4256C141.43 53.2965 140.899 52.2339 140.301 51.6361C140.124 52.0789 139.969 52.5881 139.836 53.1637C139.77 53.695 139.637 54.2928 139.57 54.9569C139.526 55.2669 139.504 55.5768 139.504 55.8868C139.46 56.1967 139.438 56.5067 139.438 56.8166C139.393 57.4808 139.371 58.1228 139.371 58.7427C139.371 59.2297 139.416 59.7168 139.504 60.2038C139.504 60.4252 139.526 60.6687 139.57 60.9344C139.615 61.1558 139.681 61.3772 139.77 61.5986C139.858 62.0414 139.969 62.4399 140.102 62.7941C140.146 62.9712 140.213 63.1262 140.301 63.259C139.504 62.1963 138.685 61.1779 137.844 60.2038C137.357 59.5839 136.825 58.9862 136.25 58.4106C136.383 58.4106 136.515 58.3442 136.582 58.2113C136.914 57.5472 137.179 56.6173 137.379 55.6211C137.423 55.0898 137.445 54.5584 137.445 54.0271C137.445 53.7614 137.445 53.4958 137.445 53.2301C137.401 52.9644 137.357 52.6988 137.312 52.4331C137.268 51.9461 137.157 51.4147 136.98 50.8391C136.803 50.3078 136.604 49.7765 136.382 49.2451C136.294 49.1123 136.228 48.9795 136.183 48.8466C136.095 48.7581 136.028 48.6474 135.984 48.5146C135.851 48.2489 135.696 48.0275 135.519 47.8504C135.386 47.629 135.253 47.4076 135.121 47.1862C134.943 47.0091 134.766 46.8541 134.589 46.7213C134.501 47.2084 134.434 47.7175 134.39 48.2489C134.301 48.8245 134.257 49.4222 134.257 50.0421C134.257 50.3521 134.279 50.662 134.324 50.972C134.324 51.2819 134.324 51.5918 134.324 51.9018C134.368 52.5217 134.434 53.1194 134.523 53.695C134.567 54.1821 134.656 54.647 134.789 55.0898C134.877 55.3554 134.943 55.599 134.988 55.8204C135.076 56.0417 135.143 56.241 135.187 56.4181C135.364 56.8609 135.541 57.2372 135.718 57.5472C135.807 57.7686 135.895 57.9678 135.984 58.1449C134.656 56.6838 133.239 55.3112 131.733 54.0271C131.645 53.9386 131.578 53.8721 131.534 53.8279C131.601 53.8279 131.733 53.695 131.8 53.5622C132.065 52.898 132.198 51.9682 132.265 50.972C132.265 50.4849 132.243 49.9757 132.198 49.4444C132.11 48.9573 131.999 48.4481 131.866 47.9168C131.667 46.987 131.202 45.9243 130.604 44.9281C130.471 44.7067 130.316 44.4853 130.139 44.2639C129.962 44.0425 129.807 43.8433 129.674 43.6662C129.32 43.2677 128.966 42.9577 128.612 42.7363C128.479 43.5997 128.545 44.7288 128.678 45.9243C128.722 46.5442 128.811 47.1419 128.944 47.7176C128.988 48.0275 129.055 48.3153 129.143 48.581C129.187 48.8909 129.254 49.1787 129.342 49.4444C129.431 49.8872 129.564 50.3299 129.741 50.7727C129.918 51.2155 130.095 51.6361 130.272 52.0346C130.361 52.2117 130.471 52.3888 130.604 52.5659C130.693 52.7431 130.781 52.9202 130.87 53.0973C131.003 53.3187 131.158 53.4958 131.335 53.6286C129.962 52.5217 128.545 51.459 127.084 50.4406C127.151 50.3078 127.151 50.175 127.151 50.1085C126.819 49.378 126.221 48.6474 125.557 47.9832C125.202 47.629 124.804 47.2969 124.361 46.987C123.963 46.677 123.542 46.3892 123.099 46.1236C122.236 45.6586 121.107 45.2602 120.044 45.0609C119.734 44.9723 119.446 44.9059 119.181 44.8617C118.915 44.8617 118.671 44.8395 118.45 44.7952C117.919 44.7952 117.454 44.8395 117.055 44.9281C117.587 45.6586 118.45 46.3892 119.38 47.1198C119.867 47.474 120.376 47.8061 120.907 48.116C121.173 48.2932 121.417 48.4481 121.638 48.581C121.904 48.7581 122.169 48.9131 122.435 49.0459C122.834 49.2673 123.254 49.4665 123.697 49.6436C124.14 49.8207 124.56 49.9757 124.959 50.1085C125.18 50.1528 125.38 50.1971 125.557 50.2414C125.734 50.3299 125.911 50.3742 126.088 50.3742C126.442 50.4628 126.752 50.4849 127.018 50.4406C127.062 50.4406 127.084 50.4406 127.084 50.4406C128.501 51.459 129.896 52.5217 131.268 53.6286C131.091 53.5401 130.87 53.4515 130.604 53.363C130.471 53.2744 130.316 53.208 130.139 53.1637C129.918 53.0751 129.719 53.0087 129.542 52.9644C129.099 52.8759 128.656 52.8095 128.213 52.7652C127.771 52.7209 127.328 52.7209 126.885 52.7652C126.619 52.8095 126.331 52.8537 126.022 52.898C125.756 52.9423 125.49 52.9866 125.225 53.0309C124.649 53.1637 124.095 53.3187 123.564 53.4958C122.501 53.8943 121.572 54.4256 120.907 54.9569C121.173 55.134 121.505 55.2669 121.904 55.3554C122.125 55.3997 122.324 55.444 122.501 55.4883C122.723 55.5326 122.966 55.5547 123.232 55.5547C124.162 55.6875 125.158 55.6875 126.022 55.6211C126.464 55.5768 126.929 55.5104 127.416 55.4219C127.881 55.289 128.413 55.2226 128.877 55.0898C129.807 54.8241 130.671 54.5584 131.268 54.1599C131.401 54.0935 131.534 53.9607 131.468 53.8279C131.556 53.9164 131.645 53.9828 131.733 54.0271C133.15 55.3112 134.523 56.6616 135.851 58.0785C135.718 57.99 135.586 57.9014 135.453 57.8128C135.098 57.6357 134.722 57.4808 134.324 57.3479C134.102 57.2594 133.881 57.193 133.659 57.1487C133.482 57.0601 133.261 56.9937 132.995 56.9494C132.552 56.8609 132.11 56.8166 131.667 56.8166C131.091 56.8166 130.516 56.8387 129.94 56.883C129.63 56.9273 129.32 56.9716 129.01 57.0159C128.745 57.0601 128.479 57.1265 128.213 57.2151C127.638 57.3479 127.106 57.5029 126.619 57.68C126.132 57.9014 125.689 58.1228 125.291 58.3442C125.424 58.4327 125.579 58.5213 125.756 58.6098C125.933 58.6984 126.11 58.7869 126.287 58.8755C126.464 58.9198 126.664 58.9862 126.885 59.0748C127.018 59.0748 127.128 59.0969 127.217 59.1412C127.35 59.1855 127.461 59.2076 127.549 59.2076C128.036 59.3404 128.523 59.429 129.01 59.4733C129.497 59.5175 129.962 59.5618 130.405 59.6061C130.671 59.6061 130.914 59.6061 131.136 59.6061C131.401 59.5618 131.667 59.5397 131.933 59.5397C132.42 59.4954 132.907 59.4511 133.394 59.4068C134.39 59.274 135.253 59.0748 135.984 58.7427C136.117 58.6763 136.183 58.6098 136.183 58.477C136.759 59.0526 137.29 59.6504 137.777 60.2703C138.574 61.2444 139.349 62.2627 140.102 63.3254C140.013 63.2369 139.903 63.1262 139.77 62.9933C139.46 62.7719 139.106 62.5727 138.707 62.3956C138.53 62.2627 138.331 62.152 138.109 62.0635C137.888 61.9749 137.667 61.9085 137.445 61.8642C137.002 61.6871 136.537 61.5764 136.05 61.5322C135.475 61.4436 134.877 61.3993 134.257 61.3993C133.992 61.3993 133.704 61.3993 133.394 61.3993C133.084 61.4436 132.774 61.4657 132.464 61.4657C131.888 61.5543 131.335 61.665 130.804 61.7978C130.272 61.9749 129.807 62.1521 129.409 62.3292C129.874 62.7941 130.671 63.1926 131.601 63.5246C132.088 63.6575 132.575 63.7903 133.062 63.9232C133.549 64.056 134.014 64.1445 134.456 64.1888C135.453 64.3216 136.515 64.3881 137.512 64.3881C138.043 64.3881 138.53 64.3438 138.973 64.2552C139.46 64.211 139.88 64.1445 140.235 64.056C140.367 63.9896 140.5 63.9232 140.5 63.7903C141.297 64.9415 142.072 66.1149 142.825 67.3104C143.179 67.9303 143.533 68.5502 143.888 69.17C143.799 69.0815 143.71 68.9929 143.622 68.9044C143.312 68.6387 142.98 68.3731 142.626 68.1074C142.404 67.9746 142.205 67.8639 142.028 67.7753C141.806 67.6425 141.585 67.5318 141.364 67.4432C140.921 67.2218 140.478 67.0447 140.035 66.9119C139.416 66.7348 138.818 66.6241 138.242 66.5798C137.932 66.5355 137.622 66.4913 137.312 66.447C137.002 66.447 136.692 66.447 136.382 66.447C135.187 66.447 134.058 66.5798 133.128 66.9119C133.261 67.0447 133.394 67.1776 133.527 67.3104C133.659 67.4432 133.814 67.5539 133.991 67.6425C134.346 67.9081 134.766 68.1517 135.253 68.373C135.696 68.5944 136.161 68.7937 136.648 68.9708C137.135 69.1479 137.6 69.3029 138.043 69.4357C138.309 69.48 138.552 69.5464 138.773 69.635C139.039 69.6792 139.305 69.7235 139.57 69.7678C140.102 69.8564 140.611 69.9228 141.098 69.967C142.161 70.0999 143.157 70.0999 143.954 69.967C144.087 69.967 144.153 69.9006 144.22 69.8342C145.105 71.561 145.924 73.31 146.677 75.0811C146.766 75.3025 146.832 75.5017 146.876 75.6789C146.611 75.3468 146.279 74.8819 145.814 74.4834C145.149 73.8856 144.22 73.2879 143.356 72.9558C142.227 72.4909 140.965 72.1588 139.703 71.9595C139.083 71.9153 138.486 71.8931 137.91 71.8931C137.334 71.8931 136.825 71.9595 136.382 72.0924C136.715 72.6237 137.445 73.2214 138.309 73.8192C138.707 74.0849 139.15 74.3505 139.637 74.6162C140.124 74.8376 140.589 75.0368 141.032 75.2139C141.519 75.4353 142.006 75.6346 142.493 75.8117C143.024 75.9445 143.555 76.0774 144.087 76.2102C145.083 76.4758 146.079 76.6087 146.943 76.6087C147.031 76.6087 147.12 76.5644 147.208 76.4758C147.961 78.5569 148.603 80.6379 149.134 82.719C149.09 82.6747 149.046 82.6083 149.002 82.5197C148.824 82.2098 148.581 81.8556 148.271 81.4571C147.917 81.1029 147.563 80.7486 147.208 80.3944C146.81 80.0845 146.389 79.7967 145.946 79.531C145.415 79.1989 144.817 78.9333 144.22 78.6676C143.91 78.579 143.6 78.4683 143.29 78.3355C142.98 78.247 142.67 78.1584 142.36 78.0698C141.784 77.937 141.209 77.8263 140.633 77.7378C140.035 77.6713 139.438 77.6713 138.973 77.7378C139.061 77.8706 139.15 78.0256 139.238 78.2027C139.371 78.3798 139.504 78.5569 139.637 78.734C139.969 79.0661 140.301 79.3982 140.7 79.7303C140.921 79.9074 141.12 80.0845 141.297 80.2616C141.519 80.3944 141.74 80.5494 141.961 80.7265C142.404 81.0364 142.847 81.3242 143.29 81.5899C143.733 81.8556 144.197 82.0991 144.685 82.3205C144.95 82.4533 145.216 82.564 145.482 82.6526C145.703 82.7854 145.946 82.8961 146.212 82.9847C147.208 83.3832 148.205 83.6488 149.068 83.7152C149.201 83.7595 149.289 83.7595 149.334 83.7152C149.821 85.8848 150.175 88.0544 150.396 90.224C150.396 90.1798 150.396 90.1576 150.396 90.1576C150.219 89.7591 149.998 89.3385 149.732 88.8957C149.201 88.0987 148.47 87.3017 147.673 86.6376C146.677 85.8406 145.482 85.1764 144.286 84.6451C143.091 84.1801 141.895 83.9145 140.832 83.8481C141.098 84.5122 141.629 85.3092 142.36 86.1062C142.537 86.2833 142.714 86.4826 142.891 86.704C143.068 86.8811 143.268 87.0803 143.489 87.3017C143.888 87.6338 144.286 88.0323 144.685 88.298C145.127 88.6522 145.57 88.9843 146.013 89.2942C146.5 89.6042 146.987 89.892 147.474 90.1576C147.961 90.4233 148.448 90.6668 148.935 90.8882C149.378 91.0653 149.821 91.2203 150.264 91.3531C150.352 91.3531 150.441 91.3531 150.529 91.3531C150.529 91.5302 150.551 91.7295 150.596 91.9509V92.4822L150.662 93.0135L150.728 94.0762C150.728 94.2533 150.728 94.4526 150.728 94.6739V95.2053C150.728 95.5595 150.728 95.9137 150.728 96.2679L150.662 98.1276C150.662 98.0833 150.662 98.0612 150.662 98.0612C150.573 97.6627 150.419 97.2199 150.197 96.7328C150.109 96.5115 149.998 96.2901 149.865 96.0687C149.732 95.8473 149.577 95.6259 149.4 95.4045C149.267 95.1831 149.112 94.9617 148.935 94.7404C148.847 94.6518 148.758 94.5411 148.67 94.4083C148.581 94.3197 148.492 94.2312 148.404 94.1426C147.961 93.6556 147.474 93.2128 146.943 92.8143C146.411 92.3715 145.858 91.9951 145.282 91.6852C144.972 91.5081 144.685 91.3531 144.419 91.2203C144.109 91.0432 143.821 90.9103 143.555 90.8218C142.98 90.6004 142.426 90.4233 141.895 90.2905C141.984 90.689 142.139 91.0875 142.36 91.486C142.537 91.9287 142.781 92.3715 143.091 92.8143C143.688 93.7441 144.419 94.6739 145.149 95.4045C145.946 96.2015 146.81 96.9985 147.74 97.6627C148.182 98.0169 148.625 98.3268 149.068 98.5925C149.511 98.8582 149.954 99.0796 150.396 99.2567C150.485 99.3009 150.573 99.3231 150.662 99.3231L150.596 99.5223L150.529 100.585C150.529 100.939 150.507 101.293 150.463 101.648L150.33 102.777C150.197 103.441 150.197 104.171 149.998 104.902L149.865 105.965L149.799 106.164C149.799 105.943 149.776 105.721 149.732 105.5C149.644 105.278 149.577 105.035 149.533 104.769C149.356 104.282 149.157 103.773 148.935 103.242C148.714 102.755 148.448 102.29 148.138 101.847C147.341 100.784 146.345 99.7216 145.282 98.9246C145.017 98.7032 144.751 98.504 144.485 98.3268C144.22 98.1497 143.954 97.9726 143.688 97.7955C143.113 97.4856 142.581 97.242 142.094 97.0649C142.094 97.4634 142.183 97.8841 142.36 98.3268C142.493 98.7696 142.67 99.2567 142.891 99.788C143.024 100.009 143.157 100.253 143.29 100.519C143.423 100.784 143.555 101.028 143.688 101.249C143.998 101.78 144.308 102.245 144.618 102.644C145.282 103.574 146.079 104.504 146.876 105.301C147.673 106.164 148.537 106.895 149.334 107.359C149.422 107.404 149.489 107.426 149.533 107.426L149.201 109.153C148.758 110.835 148.249 112.518 147.673 114.2C147.718 113.758 147.695 113.293 147.607 112.806C147.54 112.274 147.408 111.743 147.275 111.212C147.186 110.946 147.098 110.68 147.009 110.415C146.965 110.282 146.898 110.171 146.81 110.083C146.766 109.95 146.721 109.817 146.677 109.684C146.013 108.489 145.216 107.293 144.22 106.23C143.733 105.743 143.246 105.301 142.758 104.902C142.493 104.725 142.249 104.548 142.028 104.371C141.762 104.194 141.497 104.061 141.231 103.972C141.231 104.149 141.231 104.349 141.231 104.57C141.275 104.791 141.297 105.013 141.297 105.234C141.342 105.5 141.408 105.743 141.497 105.965C141.563 106.23 141.629 106.496 141.696 106.762C142.028 107.824 142.493 109.02 142.958 109.95C143.223 110.481 143.533 110.99 143.888 111.477C144.198 112.009 144.53 112.518 144.884 113.005C145.548 113.935 146.345 114.798 147.009 115.396C147.098 115.44 147.164 115.484 147.208 115.529C146.367 117.743 145.393 119.89 144.286 121.971C144.33 121.838 144.375 121.683 144.419 121.506C144.419 121.241 144.419 120.975 144.419 120.709C144.419 120.134 144.397 119.58 144.352 119.049C144.308 118.739 144.242 118.451 144.153 118.185C144.109 117.92 144.043 117.654 143.954 117.388C143.489 116.06 142.825 114.732 142.028 113.536C141.629 113.005 141.164 112.407 140.766 111.942C140.323 111.499 139.858 111.101 139.371 110.747C139.283 111.145 139.238 111.588 139.238 112.075C139.238 112.562 139.283 113.093 139.371 113.669C139.416 113.979 139.482 114.267 139.57 114.532C139.615 114.842 139.659 115.13 139.703 115.396C139.836 115.994 140.035 116.525 140.235 117.056C140.412 117.632 140.611 118.207 140.832 118.783C141.098 119.314 141.364 119.912 141.629 120.444C142.161 121.506 142.758 122.502 143.423 123.233C143.467 123.277 143.511 123.322 143.555 123.366C142.404 125.447 141.098 127.462 139.637 129.41C139.637 129.365 139.637 129.321 139.637 129.277C139.681 129.188 139.725 129.078 139.77 128.945C139.814 128.679 139.858 128.413 139.903 128.148C139.947 127.882 139.991 127.616 140.035 127.351C140.08 127.041 140.102 126.753 140.102 126.487C140.102 125.868 140.058 125.292 139.969 124.761C139.836 124.03 139.703 123.299 139.438 122.635C139.349 122.281 139.238 121.927 139.106 121.573C138.973 121.218 138.818 120.886 138.641 120.576C138.043 119.248 137.246 118.119 136.449 117.322C136.272 117.676 136.161 118.119 136.117 118.65C136.073 118.916 136.05 119.182 136.05 119.447C136.006 119.713 135.984 120.001 135.984 120.311C135.984 120.576 135.984 120.864 135.984 121.174C135.984 121.484 136.006 121.794 136.05 122.104C136.095 122.68 136.161 123.255 136.25 123.831C136.294 124.141 136.36 124.451 136.449 124.761C136.493 125.026 136.56 125.314 136.648 125.624C136.781 126.244 136.958 126.864 137.179 127.484C137.512 128.613 137.976 129.742 138.508 130.539C138.552 130.583 138.596 130.627 138.641 130.672C137.091 132.62 135.431 134.435 133.659 136.118C133.837 135.764 133.992 135.387 134.124 134.989C134.523 133.926 134.722 132.731 134.789 131.535C134.789 131.181 134.766 130.827 134.722 130.472C134.678 130.074 134.634 129.698 134.589 129.343C134.545 128.945 134.479 128.568 134.39 128.214C134.301 127.86 134.213 127.506 134.124 127.152C133.903 126.443 133.637 125.779 133.327 125.159C133.195 124.849 133.062 124.561 132.929 124.296C132.752 124.03 132.575 123.786 132.398 123.565C132.353 123.609 132.309 123.698 132.265 123.831C132.22 123.919 132.154 124.008 132.065 124.096C131.977 124.318 131.91 124.539 131.866 124.761C131.778 125.026 131.711 125.292 131.667 125.558C131.623 125.646 131.601 125.713 131.601 125.757C131.601 125.845 131.578 125.912 131.534 125.956C131.49 126.133 131.468 126.288 131.468 126.421C131.335 127.019 131.268 127.616 131.202 128.214C131.158 128.834 131.136 129.454 131.136 130.074C131.18 130.34 131.202 130.649 131.202 131.004C131.202 131.314 131.224 131.624 131.268 131.934C131.313 132.553 131.379 133.173 131.468 133.793C131.667 135.055 131.933 136.251 132.331 137.18C132.375 137.225 132.398 137.269 132.398 137.313C132.088 137.623 131.755 137.911 131.401 138.177C129.852 139.549 128.235 140.811 126.553 141.962C126.641 141.874 126.708 141.763 126.752 141.63C126.885 141.409 127.018 141.188 127.151 140.966C127.748 139.97 128.147 138.708 128.346 137.579C128.435 137.225 128.479 136.848 128.479 136.45C128.523 136.096 128.545 135.719 128.545 135.321C128.545 134.922 128.545 134.546 128.545 134.192C128.501 133.793 128.457 133.417 128.413 133.063C128.213 131.535 127.881 130.207 127.283 129.144C127.018 129.454 126.774 129.83 126.553 130.273C126.287 130.738 126.088 131.336 125.889 131.867C125.689 132.398 125.49 133.063 125.357 133.66C125.18 134.28 125.07 134.878 125.025 135.454C124.937 136.073 124.848 136.716 124.76 137.38C124.715 138 124.693 138.642 124.693 139.306C124.693 140.568 124.76 141.83 124.959 142.826C125.003 142.87 125.025 142.914 125.025 142.959C124.848 143.091 124.671 143.224 124.494 143.357C122.501 144.553 120.465 145.637 118.384 146.612C118.605 146.346 118.849 146.058 119.114 145.748C119.291 145.527 119.468 145.283 119.646 145.018C119.823 144.796 119.978 144.553 120.11 144.287C120.42 143.711 120.664 143.136 120.841 142.56C121.107 141.896 121.306 141.099 121.439 140.368C121.572 139.571 121.704 138.774 121.704 138.044C121.749 137.247 121.727 136.516 121.638 135.852C121.594 135.498 121.55 135.166 121.505 134.856C121.417 134.502 121.328 134.192 121.24 133.926C121.151 133.97 121.085 134.037 121.04 134.125C120.952 134.214 120.863 134.28 120.775 134.325C120.598 134.502 120.443 134.701 120.31 134.922C120.133 135.144 119.978 135.387 119.845 135.653C119.668 135.874 119.513 136.118 119.38 136.383C119.203 136.649 119.048 136.937 118.915 137.247C118.782 137.557 118.649 137.845 118.516 138.11C118.251 138.686 118.029 139.261 117.852 139.837C117.764 140.147 117.675 140.457 117.587 140.767C117.498 141.077 117.41 141.409 117.321 141.763C117.122 142.361 116.989 143.025 116.856 143.689C116.657 144.951 116.524 146.213 116.59 147.276C116.59 147.32 116.59 147.364 116.59 147.409L115.793 147.741L115.329 147.94C115.151 147.984 114.974 148.028 114.797 148.073C114.133 148.338 113.469 148.604 112.805 148.87L110.746 149.467C110.347 149.6 110.015 149.667 109.683 149.733L109.285 149.866C109.329 149.822 109.395 149.777 109.484 149.733C109.705 149.556 109.927 149.379 110.148 149.202C110.591 148.803 111.011 148.361 111.41 147.873C111.808 147.386 112.163 146.855 112.473 146.279C112.65 145.97 112.827 145.637 113.004 145.283C113.137 144.929 113.292 144.553 113.469 144.154C113.735 143.401 113.956 142.649 114.133 141.896C114.399 140.368 114.532 138.907 114.332 137.645C113.978 137.867 113.602 138.155 113.203 138.509C113.115 138.642 113.026 138.752 112.938 138.841C112.849 138.929 112.738 139.04 112.605 139.173C112.428 139.394 112.229 139.616 112.008 139.837C111.831 140.103 111.653 140.368 111.476 140.634L111.344 140.833L111.211 141.033C111.078 141.165 110.967 141.298 110.879 141.431C110.547 141.962 110.214 142.494 109.949 143.025C109.639 143.601 109.329 144.198 109.019 144.818C108.886 145.128 108.753 145.438 108.62 145.748C108.488 146.058 108.377 146.368 108.288 146.678C107.823 147.94 107.425 149.202 107.292 150.264C107.292 150.264 107.314 150.287 107.359 150.331C104.968 150.862 102.554 151.239 100.119 151.46L100.186 152.39C102.665 152.124 105.1 151.726 107.491 151.194C107.536 151.239 107.558 151.261 107.558 151.261C108.156 152.191 109.019 153.12 110.148 153.984C110.458 154.161 110.768 154.36 111.078 154.582C111.388 154.759 111.698 154.936 112.008 155.113C112.672 155.467 113.358 155.755 114.067 155.976C114.731 156.242 115.461 156.441 116.258 156.574C116.435 156.618 116.635 156.64 116.856 156.64L117.122 156.707H117.454C117.852 156.751 118.251 156.773 118.649 156.773C119.092 156.818 119.513 156.818 119.911 156.773C120.088 156.773 120.265 156.751 120.443 156.707C120.664 156.707 120.863 156.685 121.04 156.64C121.771 156.574 122.435 156.375 123.033 156.176C122.037 155.312 120.575 154.515 119.114 153.785C118.317 153.386 117.52 153.054 116.723 152.722C116.325 152.545 115.926 152.39 115.528 152.257C115.129 152.08 114.753 151.925 114.399 151.792C113.779 151.571 113.137 151.371 112.473 151.194C111.808 151.061 111.189 150.951 110.613 150.862C110.303 150.818 110.015 150.774 109.75 150.729C109.617 150.729 109.506 150.729 109.417 150.729L109.882 150.597C110.281 150.464 110.613 150.397 110.945 150.264L113.07 149.6C113.735 149.379 114.421 149.135 115.129 148.87C115.262 148.781 115.417 148.715 115.594 148.67L116.125 148.471L116.922 148.139C116.922 148.183 116.945 148.206 116.989 148.206C117.719 149.003 118.716 149.733 119.978 150.331C120.598 150.641 121.262 150.906 121.97 151.128C122.28 151.261 122.612 151.371 122.966 151.46C123.144 151.504 123.343 151.549 123.564 151.593C123.741 151.637 123.918 151.659 124.095 151.659C124.76 151.792 125.49 151.858 126.287 151.858C126.686 151.858 127.084 151.836 127.483 151.792C127.881 151.748 128.28 151.703 128.678 151.659C129.077 151.615 129.453 151.548 129.807 151.46C130.206 151.371 130.56 151.261 130.87 151.128C131.224 150.995 131.556 150.862 131.866 150.729C132.043 150.685 132.198 150.619 132.331 150.53C132.464 150.442 132.597 150.375 132.73 150.331C132.464 150.154 132.154 149.999 131.8 149.866C131.49 149.689 131.158 149.534 130.804 149.401C130.095 149.135 129.342 148.892 128.545 148.67C127.748 148.471 126.885 148.206 126.088 148.006C125.225 147.807 124.428 147.674 123.631 147.541C123.011 147.409 122.369 147.342 121.704 147.342C121.395 147.298 121.085 147.276 120.775 147.276C120.465 147.276 120.155 147.276 119.845 147.276C119.402 147.276 119.004 147.298 118.649 147.342C120.775 146.324 122.856 145.195 124.892 143.955C125.07 143.822 125.247 143.689 125.424 143.556C125.468 143.601 125.512 143.645 125.557 143.689C126.354 144.287 127.483 144.885 128.811 145.217C129.431 145.438 130.095 145.593 130.804 145.682C131.534 145.748 132.265 145.815 132.929 145.815C133.593 145.815 134.324 145.748 135.121 145.615C135.851 145.549 136.648 145.35 137.379 145.084C138.109 144.818 138.84 144.553 139.438 144.221C140.102 143.888 140.633 143.49 141.032 143.091C139.903 142.693 138.375 142.361 136.781 142.228C136.338 142.184 135.918 142.14 135.519 142.095C135.121 142.051 134.7 142.007 134.257 141.962C133.859 141.962 133.46 141.962 133.062 141.962C132.663 141.918 132.265 141.896 131.866 141.896C130.604 141.896 129.276 142.095 128.147 142.294C127.837 142.339 127.549 142.405 127.283 142.494C127.151 142.494 127.04 142.516 126.951 142.56C128.634 141.365 130.272 140.081 131.866 138.708C132.22 138.398 132.552 138.088 132.862 137.778C132.907 137.822 132.951 137.867 132.995 137.911C133.925 138.376 135.121 138.708 136.382 138.907C137.047 138.952 137.733 138.974 138.441 138.974C138.796 138.974 139.15 138.952 139.504 138.907C139.858 138.907 140.19 138.863 140.5 138.774C141.164 138.708 141.829 138.509 142.559 138.243C143.29 138.044 143.954 137.712 144.685 137.38C144.862 137.291 145.017 137.203 145.149 137.114C145.238 137.07 145.327 137.025 145.415 136.981C145.504 136.893 145.57 136.826 145.614 136.782C145.924 136.605 146.234 136.406 146.544 136.184C146.81 135.963 147.053 135.741 147.275 135.52C147.408 135.431 147.518 135.343 147.607 135.254C147.74 135.122 147.85 134.989 147.939 134.856C147.629 134.812 147.297 134.767 146.943 134.723C146.633 134.679 146.279 134.657 145.88 134.657C145.172 134.612 144.419 134.612 143.622 134.657C143.223 134.701 142.825 134.745 142.426 134.789C142.028 134.789 141.607 134.812 141.164 134.856C140.766 134.9 140.367 134.944 139.969 134.989C139.615 135.077 139.238 135.144 138.84 135.188C137.578 135.387 136.382 135.719 135.32 136.118C134.877 136.295 134.456 136.472 134.058 136.649C135.873 134.922 137.556 133.063 139.106 131.07C139.15 131.114 139.216 131.137 139.305 131.137C140.235 131.469 141.43 131.601 142.692 131.601C143.356 131.557 144.02 131.469 144.685 131.336C145.039 131.292 145.371 131.225 145.681 131.137C145.858 131.092 146.035 131.048 146.212 131.004C146.345 130.959 146.5 130.893 146.677 130.804C147.297 130.627 147.939 130.362 148.603 130.007C148.736 129.919 148.891 129.83 149.068 129.742C149.245 129.653 149.4 129.543 149.533 129.41C149.843 129.233 150.153 129.033 150.463 128.812C150.773 128.591 151.061 128.369 151.326 128.148C151.592 127.882 151.835 127.639 152.057 127.417C152.522 126.886 152.92 126.421 153.186 125.89C151.99 125.823 150.529 126.022 149.002 126.355C148.647 126.443 148.271 126.532 147.873 126.62C147.474 126.709 147.076 126.819 146.677 126.952C145.924 127.174 145.194 127.395 144.485 127.616C143.91 127.794 143.334 128.015 142.758 128.281C142.493 128.413 142.227 128.546 141.961 128.679C141.696 128.812 141.452 128.945 141.231 129.078C140.965 129.21 140.722 129.343 140.5 129.476C140.412 129.565 140.323 129.653 140.235 129.742C140.19 129.742 140.124 129.764 140.035 129.808C141.541 127.816 142.891 125.757 144.087 123.631C144.131 123.631 144.197 123.654 144.286 123.698C145.216 123.831 146.411 123.831 147.673 123.565C148.293 123.432 148.913 123.255 149.533 123.034C150.153 122.812 150.773 122.547 151.393 122.237C151.924 121.927 152.477 121.55 153.053 121.108C153.363 120.931 153.651 120.709 153.916 120.444C154.182 120.222 154.448 119.979 154.713 119.713C155.178 119.182 155.643 118.65 156.042 118.053C156.44 117.521 156.706 116.99 156.905 116.459C156.33 116.547 155.71 116.68 155.046 116.857C154.381 117.056 153.651 117.322 152.92 117.588C151.525 118.119 150.064 118.783 148.736 119.447C148.47 119.58 148.205 119.735 147.939 119.912C147.718 120.045 147.474 120.2 147.208 120.377C146.721 120.687 146.256 121.019 145.814 121.373C145.592 121.55 145.393 121.728 145.216 121.905C145.039 122.037 144.884 122.17 144.751 122.303C145.858 120.178 146.832 117.964 147.673 115.662C147.762 115.706 147.85 115.728 147.939 115.728C148.869 115.728 149.998 115.529 151.127 115.064C151.747 114.887 152.345 114.643 152.92 114.333C153.496 114.023 154.027 113.669 154.514 113.271C155.577 112.54 156.573 111.477 157.436 110.282C157.636 110.016 157.769 109.75 157.968 109.418C158.145 109.153 158.3 108.865 158.433 108.555C158.61 108.245 158.743 107.957 158.831 107.692C158.92 107.426 159.008 107.16 159.097 106.895C158.787 106.983 158.499 107.072 158.233 107.16C157.924 107.293 157.614 107.426 157.304 107.559C156.684 107.824 156.042 108.156 155.378 108.555C154.116 109.286 152.721 110.083 151.592 110.946C151.503 111.035 151.393 111.123 151.26 111.212C151.127 111.3 151.016 111.389 150.928 111.477C150.706 111.699 150.485 111.898 150.264 112.075C149.821 112.474 149.422 112.872 149.068 113.271C148.714 113.669 148.404 114.045 148.138 114.4C148.714 112.717 149.201 110.99 149.599 109.219L149.998 107.492Z" fill="#656563"/>
<path d="M96.8644 71.9583C93.8093 71.9583 91.8832 73.6188 91.8832 77.9358V84.4446H82.917V78.5336C82.917 68.8368 87.7654 63.3242 97.0637 63.3242C106.428 63.3242 111.277 68.8368 111.277 78.5336C111.277 97.5951 92.3481 104.702 92.3481 114.664C92.3481 115.063 92.3481 115.527 92.4145 115.926H110.413V124.627H82.917V117.188C82.917 99.3219 101.779 96.3996 101.779 78.8656C101.779 73.4195 99.8532 71.9583 96.8644 71.9583Z" fill="white"/>
<path d="M96.8644 71.3607C93.8093 71.3607 91.8832 72.9547 91.8832 77.3382V83.7806H82.917V77.9359C82.917 68.2391 87.7654 62.6602 97.0637 62.6602C106.428 62.6602 111.277 68.2391 111.277 77.9359C111.277 96.931 92.3481 104.038 92.3481 114C92.3481 114.465 92.3481 114.863 92.4145 115.328H110.413V123.962H82.917V116.524C82.917 98.7242 101.779 95.7355 101.779 78.268C101.779 72.8219 99.8532 71.3607 96.8644 71.3607Z" fill="url(#paint5_linear_1149_535)"/>
<defs>
<linearGradient id="paint0_linear_1149_535" x1="-27.6218" y1="176.07" x2="15.5668" y2="-27.1171" gradientUnits="userSpaceOnUse">
<stop stop-color="#898989"/>
<stop offset="0.24" stop-color="#E7E7E7"/>
<stop offset="0.389" stop-color="#B4B4B4"/>
<stop offset="0.733" stop-color="#B7B7B7"/>
<stop offset="1" stop-color="white"/>
</linearGradient>
<linearGradient id="paint1_linear_1149_535" x1="65.8812" y1="235.729" x2="-44.0911" y2="66.3865" gradientUnits="userSpaceOnUse">
<stop stop-color="#898989"/>
<stop offset="0.24" stop-color="#E7E7E7"/>
<stop offset="0.389" stop-color="#B4B4B4"/>
<stop offset="0.524" stop-color="#B7B7B7"/>
<stop offset="0.707" stop-color="white"/>
<stop offset="1" stop-color="#898989"/>
</linearGradient>
<linearGradient id="paint2_linear_1149_535" x1="200.182" y1="28.132" x2="163.505" y2="200.688" gradientUnits="userSpaceOnUse">
<stop stop-color="#898989"/>
<stop offset="0.24" stop-color="#E7E7E7"/>
<stop offset="0.389" stop-color="#B4B4B4"/>
<stop offset="0.524" stop-color="#B7B7B7"/>
<stop offset="1" stop-color="white"/>
</linearGradient>
<linearGradient id="paint3_linear_1149_535" x1="70.1134" y1="29.5316" x2="166.787" y2="96.0703" gradientUnits="userSpaceOnUse">
<stop stop-color="white"/>
<stop offset="1" stop-color="#8C8C8C"/>
</linearGradient>
<radialGradient id="paint4_radial_1149_535" cx="0" cy="0" r="1" gradientUnits="userSpaceOnUse" gradientTransform="translate(96.1141 120.135) scale(100.945 100.945)">
<stop offset="0.621" stop-color="white"/>
<stop offset="0.93" stop-color="#808080"/>
</radialGradient>
<linearGradient id="paint5_linear_1149_535" x1="30.9375" y1="123.976" x2="30.9375" y2="62.6801" gradientUnits="userSpaceOnUse">
<stop stop-color="#5F5F5D"/>
<stop offset="1" stop-color="#747371"/>
</linearGradient>
</defs>
</svg>
