<svg width="192" height="192" viewBox="0 0 192 192" fill="none" xmlns="http://www.w3.org/2000/svg">
<g style="mix-blend-mode:multiply">
<path d="M183.54 96.8649C183.54 145.216 144.355 184.402 96.0036 184.402C47.6525 184.402 8.40039 145.216 8.40039 96.8649C8.40039 48.5138 47.6525 9.26172 96.0036 9.26172C144.355 9.26172 183.54 48.5138 183.54 96.8649Z" fill="#836662"/>
</g>
<path d="M183.54 95.5368C183.54 143.888 144.355 183.14 96.0036 183.14C47.6525 183.14 8.40039 143.888 8.40039 95.5368C8.40039 47.1857 47.6525 8 96.0036 8C144.355 8 183.54 47.1857 183.54 95.5368Z" fill="#D5AC83"/>
<path d="M183.54 96.0681C183.54 144.419 144.355 183.671 96.0036 183.671C47.6525 183.671 8.40039 144.419 8.40039 96.0681C8.40039 47.7169 47.6525 8.53125 96.0036 8.53125C144.355 8.53125 183.54 47.7169 183.54 96.0681Z" fill="url(#paint0_linear_1149_573)"/>
<path d="M156.176 35.8954C189.451 69.1036 189.451 123.034 156.176 156.242C122.968 189.517 69.0382 189.517 35.83 156.242C2.55537 123.034 2.55537 69.1036 35.83 35.8954C69.0382 2.6208 122.968 2.6208 156.176 35.8954Z" fill="url(#paint1_linear_1149_573)"/>
<path d="M21.6172 96.068C21.6172 55.0227 54.8918 21.6816 96.0035 21.6816C137.049 21.6816 170.39 55.0227 170.39 96.068C170.39 137.113 137.049 170.454 96.0035 170.454C54.8918 170.454 21.6172 137.113 21.6172 96.068Z" fill="url(#paint2_linear_1149_573)"/>
<path d="M45.6594 146.411C52.6331 153.451 61.1344 159.03 70.5656 162.617C67.6432 153.916 70.4991 150.861 63.9903 140.566C52.5667 138.84 39.0178 126.221 29.9852 122.9C33.6381 131.8 38.9514 139.77 45.6594 146.411ZM29.9852 122.9C39.0178 126.221 52.5667 138.84 63.9903 140.566C57.9464 131.003 47.0541 121.571 47.0541 110.148C33.8373 110.148 35.5641 96.0675 24.8047 96.0675C24.8047 105.565 26.5979 114.598 29.9852 122.9ZM24.8047 96.0675C35.5641 96.0675 33.8373 110.148 47.0541 110.148C47.0541 100.916 51.4376 78.4008 56.286 67.2428C43.4013 68.7704 37.7559 71.5599 28.2583 73.9509C26.0002 80.9246 24.8047 88.3632 24.8047 96.0675ZM28.2583 73.9509C37.7559 71.5599 43.4013 68.7704 56.286 67.2428C61.5329 55.0886 67.1783 39.7464 70.5656 29.5183C61.1344 33.1712 52.6331 38.6838 45.6594 45.7239C37.8223 53.561 31.7784 63.1914 28.2583 73.9509ZM70.5656 162.617C78.4691 165.605 87.0369 167.266 96.0031 167.266C96.0031 157.038 104.969 145.481 104.969 132.995C94.3427 132.995 73.5543 142.028 63.9903 140.566C70.4991 150.861 67.6432 153.916 70.5656 162.617ZM63.9903 140.566C73.5543 142.028 94.3427 132.995 104.969 132.995C104.969 121.372 101.184 115.063 101.184 102.178C89.0293 102.244 58.1457 110.148 47.0541 110.148C47.0541 121.571 57.9464 131.003 63.9903 140.566ZM47.0541 110.148C58.1457 110.148 89.0293 102.244 101.184 102.178C101.184 91.7505 96.0031 75.412 96.0031 65.7152C84.9779 65.7816 67.1119 65.9809 56.286 67.2428C51.4376 78.4008 47.0541 100.916 47.0541 110.148ZM56.286 67.2428C67.1119 65.9809 84.9779 65.7816 96.0031 65.7152C96.0031 50.7715 96.0031 36.8905 96.0031 24.8691C87.0369 24.8691 78.4691 26.5296 70.5656 29.5183C67.1783 39.7464 61.5329 55.0886 56.286 67.2428ZM96.0031 167.266C103.508 167.266 110.814 166.137 117.588 163.945C119.78 154.846 129.743 146.079 135.787 134.523C127.551 135.519 113.869 132.995 104.969 132.995C104.969 145.481 96.0031 157.038 96.0031 167.266ZM104.969 132.995C113.869 132.995 127.551 135.519 135.787 134.523C141.1 124.361 144.487 110.148 144.487 98.3921C135.056 98.3921 111.345 102.244 101.184 102.178C101.184 115.063 104.969 121.372 104.969 132.995ZM101.184 102.178C111.345 102.244 135.056 98.3921 144.487 98.3921C144.487 88.8281 143.358 78.2679 135.454 66.7115C126.887 65.9809 105.301 65.7816 96.0031 65.7152C96.0031 75.412 101.184 91.7505 101.184 102.178ZM96.0031 65.7152C105.301 65.7816 126.887 65.9809 135.454 66.7115C127.086 54.6237 120.179 38.8166 117.588 28.19C110.814 25.9982 103.508 24.8691 96.0031 24.8691C96.0031 36.8905 96.0031 50.7715 96.0031 65.7152ZM117.588 163.945C128.614 160.491 138.377 154.381 146.347 146.411C152.988 139.77 158.368 131.8 161.955 122.9C151.793 126.685 149.003 132.862 135.787 134.523C129.743 146.079 119.78 154.846 117.588 163.945ZM135.787 134.523C149.003 132.862 151.793 126.685 161.955 122.9C165.342 114.598 167.201 105.565 167.201 96.0675C154.981 96.0675 159.763 98.3921 144.487 98.3921C144.487 110.148 141.1 124.361 135.787 134.523ZM144.487 98.3921C159.763 98.3921 154.981 96.0675 167.201 96.0675C167.201 88.3632 166.006 80.9246 163.681 73.9509C154.45 70.1651 149.269 67.907 135.454 66.7115C143.358 78.2679 144.487 88.8281 144.487 98.3921ZM135.454 66.7115C149.269 67.907 154.45 70.1651 163.681 73.9509C160.161 63.1914 154.184 53.561 146.347 45.7239C138.377 37.7539 128.614 31.71 117.588 28.19C120.179 38.8166 127.086 54.6237 135.454 66.7115Z" fill="url(#paint3_linear_1149_573)"/>
<path d="M96.0031 166.204C56.8174 166.204 25.0704 134.656 24.8047 95.5371C24.8047 95.7142 24.8047 95.8913 24.8047 96.0684C24.8047 135.387 56.6846 167.267 96.0031 167.267C135.322 167.267 167.201 135.387 167.201 96.0684C167.201 95.8913 167.201 95.7142 167.201 95.5371C166.936 134.656 135.122 166.204 96.0031 166.204Z" fill="#D5AC83"/>
<path style="mix-blend-mode:multiply" d="M45.6594 146.411C52.6331 153.451 61.1344 159.03 70.5656 162.617C78.4691 165.605 87.0369 167.266 96.0031 167.266C103.508 167.266 110.814 166.137 117.588 163.945C128.614 160.491 138.377 154.381 146.347 146.411C153.055 139.77 158.368 131.8 161.955 122.9C165.342 114.598 167.201 105.565 167.201 96.0675C167.201 88.3632 166.006 80.9246 163.681 73.9509C160.228 63.1914 154.184 53.561 146.347 45.7239C138.377 37.7539 128.614 31.71 117.588 28.19C110.814 25.9982 103.508 24.8691 96.0031 24.8691C87.0369 24.8691 78.4691 26.5296 70.5656 29.5183C61.1344 33.1712 52.6331 38.6838 45.6594 45.7239C37.8223 53.561 31.7784 63.1914 28.2583 73.9509C26.0002 80.9246 24.8047 88.3632 24.8047 96.0675C24.8047 105.565 26.6643 114.598 29.9852 122.9C33.6381 131.8 38.9514 139.77 45.6594 146.411Z" fill="url(#paint4_radial_1149_573)"/>
<path d="M86.5724 150.862C86.4396 149.799 86.1076 148.538 85.6427 147.342C85.5098 147.032 85.3769 146.722 85.2441 146.412C85.1113 146.102 84.9785 145.792 84.8456 145.482C84.58 144.863 84.2922 144.265 83.9823 143.689C83.7166 143.158 83.3845 142.56 82.986 142.029C82.8975 141.896 82.8089 141.763 82.7203 141.63L82.5874 141.431L82.4546 141.232C82.2775 140.966 82.0783 140.723 81.8569 140.501C81.6798 140.235 81.4805 139.992 81.2591 139.771C81.1706 139.682 81.0821 139.571 80.9935 139.439C80.905 139.35 80.8164 139.261 80.7278 139.173C80.3293 138.774 79.9308 138.487 79.5323 138.309C79.3995 139.505 79.4659 140.966 79.798 142.56C79.9751 143.313 80.1965 144.066 80.4622 144.818C80.595 145.172 80.7499 145.527 80.927 145.881C81.1041 146.235 81.2813 146.589 81.4584 146.944C81.7683 147.475 82.1226 147.984 82.521 148.471C82.9195 148.958 83.3402 149.401 83.783 149.799C84.0044 150.021 84.2258 150.22 84.4471 150.397C84.4914 150.441 84.5579 150.486 84.6464 150.53L84.2479 150.397C83.8494 150.331 83.5173 150.198 83.1852 150.132L81.1263 149.467C80.4622 149.246 79.7759 149.002 79.0674 148.737C78.9346 148.693 78.7796 148.626 78.6025 148.538L78.0712 148.338L77.2741 148.006C77.3184 147.962 77.3406 147.918 77.3406 147.873C77.407 146.811 77.2742 145.615 77.0085 144.287C76.8757 143.689 76.7428 143.025 76.61 142.361C76.5214 142.051 76.4329 141.741 76.3444 141.431C76.2558 141.121 76.1451 140.811 76.0123 140.501C75.8352 139.926 75.6138 139.35 75.3481 138.774C75.2153 138.464 75.0824 138.177 74.9496 137.911C74.8167 137.601 74.6839 137.313 74.5511 137.048C74.374 136.782 74.219 136.516 74.0862 136.251C73.9091 136.029 73.7541 135.808 73.6212 135.586C73.4441 135.365 73.2892 135.166 73.1564 134.989C73.0678 134.9 72.9792 134.812 72.8907 134.723C72.8021 134.679 72.7357 134.612 72.6915 134.524C72.5586 134.834 72.4701 135.144 72.4258 135.454C72.3372 135.763 72.2929 136.096 72.2929 136.45C72.2044 137.158 72.1601 137.889 72.1601 138.642C72.2265 139.439 72.293 140.169 72.4258 140.966C72.625 141.763 72.7579 142.494 73.0236 143.224C73.2449 143.8 73.4885 144.353 73.7541 144.885C73.9312 145.15 74.1083 145.416 74.2854 145.682C74.4625 145.947 74.6397 146.191 74.8168 146.412C75.0382 146.722 75.2817 146.988 75.5473 147.209C73.422 146.235 71.3853 145.15 69.4371 143.955C69.2599 143.822 69.0607 143.689 68.8393 143.556C68.8836 143.556 68.9057 143.512 68.9057 143.423C69.1714 142.427 69.2378 141.232 69.2378 139.97C69.2378 139.306 69.1935 138.642 69.105 137.977C69.0607 137.357 68.9942 136.738 68.9057 136.118C68.8171 135.498 68.6843 134.878 68.5072 134.258C68.3744 133.66 68.2416 133.063 68.0423 132.465C67.7767 131.933 67.5774 131.402 67.3782 130.937C67.1125 130.45 66.8468 130.052 66.5811 129.742C66.0498 130.804 65.6513 132.199 65.4521 133.66C65.4078 134.059 65.3857 134.435 65.3857 134.789C65.3414 135.188 65.3414 135.564 65.3857 135.918C65.3857 136.317 65.3857 136.715 65.3857 137.114C65.4299 137.468 65.4742 137.845 65.5185 138.243C65.7177 139.372 66.1827 140.568 66.714 141.564C66.8468 141.829 67.0018 142.073 67.1789 142.294C67.2232 142.383 67.2896 142.472 67.3782 142.56C65.6513 141.409 64.013 140.169 62.4633 138.841C62.1534 138.531 61.8213 138.221 61.4671 137.911C61.5114 137.867 61.5335 137.822 61.5335 137.778C61.9984 136.848 62.2641 135.719 62.3969 134.457C62.5298 133.837 62.6183 133.195 62.6625 132.531C62.6625 132.221 62.6847 131.911 62.729 131.601C62.729 131.291 62.729 130.981 62.729 130.672C62.729 130.096 62.7068 129.498 62.6625 128.878C62.5961 128.281 62.5297 127.616 62.4633 127.019C62.4191 126.886 62.3747 126.753 62.3304 126.62C62.3304 126.532 62.3304 126.465 62.3304 126.421C62.2862 126.332 62.264 126.266 62.264 126.222C62.2198 125.912 62.1534 125.646 62.0648 125.425C61.9763 125.159 61.8877 124.938 61.7992 124.76C61.7549 124.628 61.7106 124.517 61.6663 124.428C61.622 124.34 61.5778 124.251 61.5335 124.163C61.3564 124.384 61.1792 124.65 61.0021 124.96C60.825 125.225 60.6701 125.513 60.5372 125.823C60.2716 126.399 60.0281 127.063 59.8067 127.816C59.6738 128.17 59.5853 128.524 59.541 128.878C59.4524 129.233 59.386 129.587 59.3417 129.941C59.2532 130.339 59.2089 130.716 59.2089 131.07C59.1646 131.469 59.1425 131.845 59.1425 132.199C59.1425 133.328 59.3418 134.59 59.7403 135.653C59.8731 136.051 60.028 136.428 60.2052 136.782C58.4341 135.055 56.7958 133.24 55.2903 131.336C55.3346 131.291 55.3567 131.247 55.3567 131.203C55.9545 130.339 56.353 129.277 56.7515 128.081C56.9286 127.506 57.1057 126.908 57.2828 126.288C57.3271 125.978 57.3935 125.668 57.4821 125.358C57.5264 125.048 57.5927 124.76 57.6813 124.495C57.7699 123.919 57.8363 123.321 57.8806 122.702C57.8806 122.392 57.8806 122.104 57.8806 121.838C57.9249 121.528 57.947 121.218 57.947 120.908C57.947 120.643 57.9249 120.355 57.8806 120.045C57.8806 119.779 57.8585 119.514 57.8142 119.248C57.7256 118.761 57.6149 118.34 57.4821 117.986C56.6851 118.783 55.8881 119.912 55.2239 121.24C55.0911 121.55 54.9583 121.882 54.8254 122.237C54.6926 122.547 54.5598 122.879 54.427 123.233C54.2277 123.963 54.0284 124.694 53.962 125.358C53.8734 125.934 53.8292 126.509 53.8292 127.085C53.8292 127.395 53.8292 127.683 53.8292 127.948C53.8735 128.258 53.9177 128.546 53.962 128.812C54.0063 129.078 54.0727 129.343 54.1613 129.609C54.1613 129.697 54.1834 129.808 54.2277 129.941C54.2277 129.985 54.2498 130.007 54.2941 130.007C52.8329 128.103 51.5046 126.089 50.3091 123.963C50.3534 123.919 50.3977 123.875 50.442 123.831C51.1061 123.1 51.7038 122.104 52.3016 121.041C52.5673 120.51 52.8329 119.979 53.0322 119.381C53.2978 118.805 53.5192 118.252 53.6963 117.72C53.8956 117.189 54.0284 116.591 54.1613 116.06C54.2498 115.75 54.3162 115.462 54.3605 115.197C54.4048 114.887 54.4491 114.599 54.4934 114.333C54.5819 113.757 54.6262 113.204 54.6262 112.673C54.6704 112.186 54.6262 111.765 54.4934 111.411C54.0506 111.721 53.6078 112.119 53.165 112.606C52.7001 113.071 52.2352 113.603 51.9031 114.2C51.1061 115.329 50.3755 116.658 49.977 117.986C49.8885 118.252 49.7999 118.539 49.7113 118.849C49.6671 119.115 49.6228 119.381 49.5785 119.646C49.49 120.222 49.4457 120.775 49.4457 121.307C49.49 121.572 49.5121 121.838 49.5121 122.104C49.5564 122.281 49.5785 122.458 49.5785 122.635C48.4716 120.51 47.4975 118.34 46.6562 116.126C46.7448 116.126 46.8112 116.104 46.8555 116.06C47.5861 115.462 48.3166 114.599 49.0472 113.603C49.4014 113.115 49.7335 112.628 50.0434 112.141C50.3534 111.61 50.6412 111.101 50.9069 110.614C51.3718 109.618 51.9031 108.488 52.1688 107.426C52.3016 107.16 52.3681 106.894 52.4345 106.629C52.4787 106.363 52.523 106.12 52.5673 105.898C52.6115 105.633 52.6337 105.389 52.6337 105.168C52.6337 104.946 52.6337 104.747 52.6337 104.57C52.4123 104.703 52.1688 104.858 51.9031 105.035C51.6374 105.168 51.3939 105.345 51.1725 105.566C50.6412 105.965 50.1541 106.407 49.7113 106.894C48.7151 107.891 47.9181 109.086 47.254 110.282C47.2097 110.415 47.1432 110.547 47.0547 110.68C47.0104 110.813 46.9662 110.946 46.9219 111.079C46.8333 111.344 46.7448 111.61 46.6562 111.876C46.4569 112.407 46.3241 112.938 46.2577 113.47C46.2134 113.957 46.1913 114.4 46.1913 114.798C45.6157 113.16 45.1286 111.477 44.7301 109.75L44.3316 108.024C44.4202 108.024 44.5087 108.001 44.5973 107.957C45.3943 107.492 46.1913 106.762 46.9883 105.965C47.8517 105.168 48.6487 104.238 49.2465 103.308C49.6007 102.865 49.9106 102.4 50.1763 101.913C50.3534 101.648 50.4862 101.404 50.5748 101.183C50.7519 100.917 50.8847 100.651 50.9733 100.386C51.2389 99.8986 51.4382 99.4337 51.571 98.9909C51.7039 98.5039 51.7924 98.0832 51.8367 97.729C51.3054 97.9061 50.774 98.1496 50.2427 98.4596C49.977 98.5924 49.7114 98.7474 49.4457 98.9245C49.1801 99.1459 48.9144 99.3451 48.6487 99.5223C47.586 100.386 46.5234 101.448 45.7928 102.511C45.4829 102.954 45.1951 103.419 44.9294 103.906C44.708 104.393 44.5309 104.88 44.398 105.367C44.3095 105.633 44.2431 105.876 44.1988 106.097C44.1545 106.319 44.1102 106.54 44.0659 106.762V106.629L43.8667 105.5C43.7339 104.836 43.6675 104.105 43.6011 103.374L43.4683 102.312C43.424 101.958 43.3797 101.603 43.3354 101.249L43.269 100.12V99.9208C43.3575 99.965 43.4461 99.965 43.5347 99.9208C43.9332 99.7436 44.3538 99.5223 44.7966 99.2566C45.2836 98.9466 45.7485 98.6367 46.1913 98.3268C47.1211 97.5962 47.9845 96.7992 48.7151 96.0686C49.4457 95.2716 50.2427 94.3418 50.7741 93.4784C51.084 92.9913 51.3496 92.5485 51.571 92.15C51.7924 91.7073 51.9252 91.3088 51.9695 90.9545C51.4382 91.0431 50.9068 91.1981 50.3755 91.4195C50.0656 91.5523 49.7778 91.6851 49.5121 91.818C49.2022 91.9508 48.9144 92.1058 48.6487 92.2829C48.0731 92.6371 47.5196 93.0134 46.9883 93.4119C46.4569 93.8547 45.9478 94.2975 45.4607 94.7403C45.3722 94.8731 45.2836 94.9838 45.1951 95.0724C45.1065 95.1609 45.0179 95.2495 44.9294 95.338C44.7966 95.5594 44.6416 95.7808 44.4645 96.0022C44.3317 96.2236 44.1988 96.445 44.0659 96.6664C43.9331 96.8877 43.8224 97.1313 43.7339 97.3969C43.5125 97.8397 43.3354 98.2603 43.2026 98.6588C43.2026 98.7031 43.2026 98.7253 43.2026 98.7253L43.1362 96.932C43.1362 96.5335 43.1583 96.1572 43.2026 95.8029V95.2716C43.2026 95.0945 43.2026 94.9174 43.2026 94.7403L43.269 93.6776V93.0799L43.3354 92.5485C43.3354 92.3714 43.3575 92.1722 43.4018 91.9508C43.4461 91.9951 43.5346 92.0172 43.6675 92.0172C44.066 91.8844 44.5087 91.7073 44.9958 91.4859C45.4828 91.3088 45.9699 91.0874 46.457 90.8217C46.944 90.5118 47.4089 90.2018 47.8517 89.8919C48.3388 89.5819 48.8037 89.272 49.2465 88.962C49.5785 88.63 50.0435 88.2979 50.442 87.8994C50.6191 87.7223 50.8183 87.523 51.0397 87.3016C51.2168 87.1245 51.3939 86.9474 51.571 86.7703C52.2352 85.9069 52.8329 85.1763 53.0322 84.4457C52.0359 84.5121 50.8404 84.8442 49.6449 85.3091C48.4494 85.7741 47.254 86.5046 46.2577 87.3016C45.3943 87.8994 44.7302 88.7628 44.1324 89.5598C43.911 89.9583 43.7118 90.3568 43.5347 90.7553C43.4904 90.7996 43.4683 90.8438 43.4683 90.8881C43.6896 88.6742 44.0439 86.4825 44.5309 84.3129C44.6195 84.3572 44.708 84.3793 44.7966 84.3793C45.66 84.3129 46.6562 83.9808 47.6524 83.5823C47.9181 83.4938 48.1838 83.4052 48.4495 83.3167C48.7152 83.1838 48.9587 83.051 49.1801 82.9182C49.6671 82.6968 50.1541 82.4532 50.6412 82.1876C51.084 81.9662 51.5267 81.6784 51.9695 81.3242C52.1466 81.1913 52.3459 81.0364 52.5673 80.8592C52.7887 80.6821 52.9879 80.5272 53.165 80.3943C53.5635 79.9958 53.962 79.6638 54.2277 79.3317C54.4048 79.1546 54.5376 78.9996 54.6262 78.8668C54.759 78.6896 54.8697 78.5125 54.9582 78.3354C54.4269 78.3354 53.8956 78.3354 53.2978 78.4018C52.7222 78.4461 52.1245 78.5568 51.5046 78.7339C51.1947 78.8225 50.8847 78.911 50.5748 78.9996C50.2648 79.0881 49.977 79.1988 49.7113 79.3317C49.1136 79.5973 48.5159 79.863 47.9845 80.1951C47.5417 80.4165 47.1211 80.7043 46.7226 81.0585C46.3241 81.4127 45.9699 81.7669 45.66 82.1212C45.35 82.4754 45.0844 82.8296 44.863 83.1838C44.8187 83.2281 44.7966 83.2945 44.7966 83.3831C45.2836 81.2577 45.9256 79.1767 46.7226 77.1399C46.7669 77.1842 46.8554 77.2063 46.9883 77.2063C47.7853 77.2728 48.848 77.0735 49.8442 76.8743C50.3755 76.7414 50.8847 76.5865 51.3717 76.4094C51.9031 76.2322 52.4123 76.0551 52.8994 75.878C53.3421 75.7009 53.7849 75.4795 54.2277 75.2139C54.7147 74.9925 55.1796 74.7268 55.6224 74.4169C56.4858 73.8855 57.15 73.2878 57.5485 72.69C57.0614 72.6015 56.5301 72.5351 55.9545 72.4908C55.3789 72.4908 54.7812 72.5351 54.1613 72.6236C52.9658 72.7565 51.7039 73.0885 50.5748 73.5534C49.6449 73.9519 48.7816 74.4833 48.1174 75.1474C47.6525 75.5459 47.2539 75.9444 46.9883 76.3429C47.0768 76.1215 47.1654 75.9223 47.254 75.7452C47.9624 73.9298 48.7815 72.1808 49.7113 70.4983C49.7778 70.5647 49.8442 70.6311 49.977 70.6311C50.774 70.764 51.7703 70.764 52.7666 70.6311C53.2979 70.5868 53.8292 70.5204 54.3605 70.4319C54.5819 70.3433 54.8255 70.2769 55.0911 70.2326C55.3568 70.1883 55.6003 70.1219 55.8217 70.0334C56.3087 69.9448 56.7958 69.7898 57.2828 69.5685C57.7699 69.3913 58.2348 69.1921 58.6775 68.9707C59.1203 68.7493 59.5189 68.5279 59.8731 68.3066C60.0502 68.1737 60.2273 68.0409 60.4044 67.9081C60.5373 67.8195 60.6701 67.7088 60.8029 67.576C59.8731 67.2439 58.744 67.0446 57.5485 67.0446C57.2386 67.0446 56.9286 67.0668 56.6187 67.1111C56.3087 67.1111 55.9988 67.1332 55.6888 67.1775C55.0689 67.266 54.4712 67.3767 53.8956 67.5095C53.4528 67.6424 53.01 67.8195 52.5673 68.0409C52.3459 68.1294 52.1245 68.2401 51.9031 68.373C51.6817 68.5058 51.4825 68.6386 51.3053 68.7715C50.9068 69.0371 50.5748 69.3028 50.3091 69.5685C50.2205 69.657 50.132 69.7456 50.0434 69.8341C50.3976 69.2142 50.7519 68.5944 51.1061 67.9745C51.8146 66.779 52.5894 65.6056 53.4307 64.4544C53.4307 64.5208 53.4971 64.6537 53.6299 64.6537C54.0284 64.7865 54.4712 64.875 54.9582 64.9193C55.401 64.9636 55.8659 64.9857 56.353 64.9857C57.4156 65.0521 58.4119 64.9857 59.4082 64.8529C59.8952 64.7643 60.3823 64.6536 60.8693 64.5208C61.3564 64.4323 61.8213 64.2994 62.264 64.1223C63.1939 63.7902 63.9909 63.3917 64.5222 62.9932C64.0794 62.7719 63.5924 62.5947 63.0611 62.4619C62.5298 62.2848 61.9763 62.1741 61.4007 62.1298C61.135 62.0855 60.8472 62.0634 60.5372 62.0634C60.2273 62.0191 59.9173 61.997 59.6074 61.997C58.9875 62.0413 58.3898 62.0855 57.8142 62.1298C57.3714 62.2184 56.9286 62.3291 56.4859 62.4619C56.2645 62.5505 56.0431 62.639 55.8217 62.7276C55.6003 62.8161 55.3789 62.9047 55.1575 62.9932C54.759 63.2146 54.4048 63.436 54.0949 63.6574C54.0063 63.746 53.8956 63.8345 53.7628 63.9231C54.5155 62.9047 55.3125 61.9084 56.1538 60.9343C56.6408 60.3144 57.15 59.7167 57.6813 59.1411C57.6813 59.2075 57.8142 59.3403 57.8806 59.4067C58.6112 59.6724 59.541 59.8717 60.5372 60.0045C61.0243 60.0931 61.5113 60.1595 61.9984 60.2037C62.264 60.2037 62.5076 60.2037 62.729 60.2037C62.9947 60.2037 63.2382 60.2037 63.4596 60.2037C63.9466 60.2037 64.4337 60.1816 64.9207 60.1373C65.4078 60.0488 65.8727 59.9602 66.3154 59.8717C66.4483 59.8274 66.559 59.8053 66.6475 59.8053C66.7803 59.761 66.891 59.7167 66.9796 59.6724C67.201 59.6281 67.4224 59.5617 67.6438 59.4732C67.8209 59.4289 67.998 59.3625 68.1751 59.2739C68.3522 59.1854 68.5072 59.0968 68.64 59.0083C68.2415 58.7426 67.7987 58.5212 67.3117 58.3441C66.8246 58.1227 66.2934 57.9456 65.7177 57.8128C65.4521 57.7685 65.1642 57.7021 64.8543 57.6135C64.5886 57.5692 64.3008 57.5471 63.9909 57.5471C63.4153 57.4585 62.8397 57.4143 62.264 57.4143C61.8213 57.4585 61.3564 57.525 60.8693 57.6135C60.6479 57.6578 60.4265 57.7021 60.2052 57.7463C59.9838 57.8349 59.7845 57.9013 59.6074 57.9456C59.1646 58.1227 58.7883 58.2998 58.4783 58.4769C58.3455 58.5655 58.2127 58.654 58.0799 58.7426C59.3639 57.3257 60.7365 55.9752 62.1976 54.6912C62.2862 54.6026 62.3527 54.5362 62.3969 54.4919C62.3969 54.5584 62.4633 54.6912 62.5961 54.824C63.2603 55.1561 64.1238 55.4882 65.0536 55.7538C65.5185 55.8203 65.9834 55.9531 66.4483 56.0195C66.9354 56.1081 67.4224 56.1745 67.9094 56.2188C68.7729 56.3516 69.7691 56.2852 70.699 56.2188C70.9204 56.1745 71.1418 56.1302 71.3631 56.0859C71.5845 56.0859 71.7837 56.0638 71.9608 56.0195C72.3593 55.8867 72.7136 55.7539 73.0236 55.621C72.293 55.0233 71.3631 54.5584 70.3004 54.1599C69.8134 53.9827 69.2821 53.8278 68.7065 53.6949C68.4408 53.6064 68.153 53.54 67.843 53.4957C67.5774 53.4514 67.3117 53.4293 67.0461 53.4293C66.6033 53.385 66.1383 53.385 65.6513 53.4293C65.2085 53.4736 64.7879 53.54 64.3894 53.6285C64.168 53.6728 63.9688 53.7171 63.7917 53.7614C63.6145 53.8499 63.4374 53.9163 63.2603 53.9606C63.0389 54.0492 62.8396 54.1599 62.6625 54.2927C63.9909 53.1415 65.3635 52.0567 66.7804 51.0383C66.8247 51.0826 66.8689 51.1047 66.9132 51.1047C67.1346 51.1047 67.4224 51.0826 67.7766 51.0383C67.9538 50.994 68.153 50.9497 68.3744 50.9054C68.5515 50.8612 68.7507 50.8169 68.9721 50.7726C69.3706 50.6398 69.7912 50.4848 70.234 50.3077C70.6768 50.1306 71.0974 49.9314 71.4959 49.71C71.7173 49.5329 71.9608 49.3779 72.2265 49.245C72.4922 49.1122 72.7579 48.9572 73.0236 48.7801C73.5106 48.4259 73.9976 48.0717 74.4847 47.7175C75.4145 47.0533 76.2779 46.2563 76.8757 45.5257C76.4772 45.4814 76.0123 45.4593 75.4809 45.4593C75.2153 45.4593 74.9496 45.4814 74.684 45.5257C74.4183 45.57 74.1526 45.6143 73.8869 45.6586C72.7578 45.8578 71.6952 46.3227 70.8318 46.7876C70.389 47.009 69.9462 47.2747 69.5035 47.5846C69.105 47.8946 68.7286 48.2267 68.3744 48.5809C67.6438 49.3115 67.1125 50.042 66.7804 50.7062C66.714 50.839 66.714 50.9719 66.7804 51.0383C65.3192 52.0567 63.9245 53.1415 62.5961 54.2927C62.729 54.1156 62.884 53.9163 63.0611 53.6949C63.1496 53.5621 63.2381 53.4071 63.3267 53.23C63.4153 53.0529 63.5038 52.8537 63.5924 52.6323C63.8138 52.2781 64.013 51.8796 64.1901 51.4368C64.323 50.994 64.4558 50.5512 64.5886 50.1085C64.6772 49.7985 64.7436 49.5107 64.7879 49.245C64.8322 48.9351 64.8985 48.6473 64.9871 48.3816C65.0757 47.7617 65.1642 47.164 65.2528 46.5884C65.3856 45.3929 65.3856 44.2638 65.2528 43.334C64.9428 43.5996 64.6108 43.9096 64.2565 44.2638C64.0794 44.4852 63.9245 44.7066 63.7917 44.928C63.6145 45.1494 63.4595 45.3707 63.3267 45.5921C62.7289 46.522 62.264 47.651 61.9984 48.5809C61.8655 49.0679 61.777 49.5771 61.7328 50.1085C61.6885 50.5955 61.6663 51.1047 61.6663 51.636C61.6663 52.6323 61.7992 53.4957 62.1312 54.2263C62.1312 54.3591 62.2641 54.4255 62.3969 54.4255C62.3084 54.5141 62.2198 54.5805 62.1312 54.6248C60.6701 55.9531 59.2532 57.3257 57.8806 58.7426C58.0134 58.6098 58.1241 58.4326 58.2127 58.2113C58.3898 57.857 58.5447 57.4807 58.6775 57.0822C58.7661 56.8608 58.8326 56.6394 58.8768 56.418C58.9654 56.1966 59.0318 55.9752 59.0761 55.7538C59.2089 55.2668 59.2974 54.8019 59.3417 54.3591C59.4303 53.7392 59.4967 53.1193 59.541 52.4994C59.5853 52.1895 59.6074 51.8796 59.6074 51.5696C59.6074 51.2597 59.6074 50.9497 59.6074 50.6398C59.6074 50.0642 59.5853 49.4886 59.541 48.913C59.4967 48.3373 59.4081 47.8282 59.2753 47.3854C59.1425 47.5182 58.9875 47.6732 58.8104 47.8503C58.6776 48.0274 58.5226 48.2267 58.3455 48.448C58.2126 48.6694 58.0798 48.8908 57.947 49.1122C57.8584 49.245 57.7921 49.3779 57.7478 49.5107C57.6592 49.6435 57.5928 49.7764 57.5485 49.9092C57.2828 50.4405 57.0614 50.9719 56.8843 51.5032C56.7515 52.0345 56.6408 52.5659 56.5523 53.0972C56.508 53.3629 56.4859 53.6285 56.4859 53.8942C56.4859 54.1599 56.4859 54.4255 56.4859 54.6912C56.4859 55.2225 56.508 55.7317 56.5523 56.2188C56.6851 57.2814 56.9507 58.1448 57.3492 58.8754C57.4156 58.9418 57.5485 59.0747 57.6149 59.0747C57.0836 59.6503 56.5522 60.2259 56.0209 60.8015C55.1796 61.8199 54.3826 62.8604 53.6299 63.9231C53.6742 63.746 53.7406 63.591 53.8292 63.4582C53.962 63.1039 54.0727 62.6833 54.1613 62.1962C54.2056 61.9748 54.2498 61.7535 54.2941 61.5321C54.3384 61.3107 54.3827 61.0672 54.427 60.8015C54.4712 60.3144 54.4934 59.8274 54.4934 59.3403C54.5376 58.7205 54.5376 58.1006 54.4934 57.4807C54.4491 57.1707 54.427 56.8387 54.427 56.4844C54.3827 56.1745 54.3605 55.8645 54.3605 55.5546C54.2941 54.9568 54.1612 54.3591 54.0284 53.7614C53.9398 53.23 53.7849 52.7208 53.5635 52.2338C53.0322 52.8979 52.5009 53.8942 52.1024 55.0233C51.9253 55.5989 51.7924 56.1745 51.7038 56.7501C51.571 57.3478 51.5046 57.8792 51.5046 58.4105C51.5046 59.4732 51.6374 60.6687 51.9031 61.6649C52.0359 62.152 52.1909 62.6169 52.368 63.0597C52.5451 63.5024 52.7665 63.8788 53.0322 64.1887C53.0986 64.3216 53.165 64.388 53.2978 64.388C52.4566 65.5392 51.6817 66.7126 50.9733 67.9081C50.5748 68.5279 50.1984 69.1478 49.8442 69.7677C49.8885 69.6349 49.9327 69.502 49.977 69.3692C50.0656 68.9707 50.132 68.5501 50.1763 68.1073C50.1763 67.8416 50.1984 67.5981 50.2427 67.3767C50.2427 67.1111 50.2427 66.8675 50.2427 66.6461C50.2427 66.1148 50.2206 65.6056 50.1763 65.1186C50.0877 64.4987 49.9992 63.8566 49.9106 63.1925C49.8221 62.8825 49.7556 62.5726 49.7113 62.2627C49.6671 61.9084 49.6007 61.5764 49.5121 61.2664C49.1801 60.0045 48.8479 58.8754 48.3166 58.012C48.1838 58.1891 48.0731 58.3884 47.9845 58.6098C47.8517 58.8311 47.741 59.0747 47.6524 59.3403C47.4753 59.8717 47.3204 60.4251 47.1876 61.0007C47.0547 61.6206 46.9662 62.2405 46.9219 62.8604C46.9219 63.4581 46.9219 63.9895 46.9883 64.5208C47.0326 64.8308 47.0769 65.1186 47.1212 65.3842C47.1654 65.6499 47.2097 65.9156 47.254 66.1812C47.3868 66.7568 47.5639 67.2882 47.7853 67.7752C48.1838 68.7715 48.7151 69.6349 49.2465 70.2326C49.3129 70.3655 49.4457 70.3655 49.5121 70.3655C48.5823 72.0923 47.741 73.8634 46.9883 75.6788C46.944 75.8559 46.8776 76.0551 46.7891 76.2765C46.8334 75.7895 46.8555 75.236 46.8555 74.6161C46.7891 73.6199 46.7227 72.5572 46.457 71.561C46.1913 70.3655 45.7264 69.0371 45.2615 67.7752C45.0622 67.1775 44.7966 66.5797 44.5309 66.0484C44.2652 65.4728 43.9774 64.9857 43.6675 64.5872C43.2025 65.3842 42.9369 66.5797 42.8705 67.8416C42.8262 68.4615 42.8262 69.0814 42.8705 69.7013C42.9148 70.3212 43.0033 70.8968 43.1362 71.4281C43.269 72.0037 43.4461 72.5572 43.6675 73.0885C43.8888 73.6199 44.1102 74.1291 44.3316 74.6161C44.9294 75.6124 45.5271 76.4094 46.1913 76.9407C46.2577 77.0071 46.3906 77.0071 46.457 77.0071C45.7043 79.0881 45.0401 81.2135 44.4645 83.3831C44.4645 83.2945 44.4645 83.1838 44.4645 83.051C44.4645 82.6525 44.4202 82.2097 44.3316 81.7227C44.2431 81.2356 44.1324 80.7486 43.9995 80.2615C43.8667 79.7302 43.7118 79.221 43.5347 78.7339C43.269 78.114 43.0033 77.4942 42.7376 76.8743C42.6048 76.5643 42.4498 76.2544 42.2727 75.9444C42.1399 75.6345 41.985 75.3245 41.8078 75.0146C41.4979 74.3947 41.1658 73.8191 40.8116 73.2878C40.4574 72.8007 40.1031 72.358 39.7489 71.9595C39.6603 72.1808 39.594 72.4244 39.5497 72.69C39.5054 72.9557 39.4611 73.2435 39.4168 73.5534C39.3504 74.0848 39.3504 74.7489 39.3504 75.4131C39.3947 75.723 39.439 76.033 39.4833 76.3429C39.5276 76.6529 39.5718 76.9628 39.6161 77.2728C39.7489 77.8927 39.926 78.4683 40.1474 78.9996C40.3688 79.5752 40.6123 80.1287 40.878 80.66C41.0108 80.8814 41.1658 81.1249 41.3429 81.3906C41.4757 81.612 41.6307 81.8555 41.8078 82.1212C42.472 82.9846 43.269 83.7152 43.9995 84.1801C44.0881 84.2243 44.1767 84.2465 44.2652 84.2465C43.7339 86.4604 43.3576 88.6964 43.1362 90.9545C43.1362 90.866 43.1362 90.7774 43.1362 90.6889C43.0476 90.2904 42.9147 89.8476 42.7376 89.3605C42.4719 88.4307 42.0071 87.368 41.5422 86.4382C40.878 85.2427 40.081 84.0472 39.284 82.9182C38.487 81.7891 37.5571 80.7264 36.7601 80.0623C36.5609 81.0585 36.561 82.3204 36.8266 83.6487C36.9152 83.9587 37.0037 84.2686 37.0922 84.5786C37.1808 84.8885 37.2693 85.1985 37.3579 85.5084C37.5793 86.1283 37.8228 86.7039 38.0885 87.2352C38.3984 87.7666 38.7305 88.2757 39.0847 88.7628C39.4832 89.2277 39.8817 89.6926 40.2802 90.0911C40.6787 90.4896 41.0994 90.8438 41.5422 91.1538C41.9407 91.4637 42.3391 91.7073 42.7376 91.8844C42.8704 91.9287 42.9811 91.9508 43.0697 91.9508C43.0254 92.1279 43.0033 92.3271 43.0033 92.5485L42.9369 93.0799L42.8705 93.6112V94.7403C42.8262 94.9174 42.8041 95.0945 42.8041 95.2716V95.8029C42.8041 96.1572 42.8041 96.5335 42.8041 96.932V98.7917C42.8041 98.7474 42.8041 98.7253 42.8041 98.7253C42.6713 98.2825 42.4941 97.8397 42.2727 97.3969C42.1399 97.1755 42.0071 96.932 41.8742 96.6664C41.7857 96.445 41.6529 96.2014 41.4758 95.9358C41.3429 95.7144 41.21 95.493 41.0772 95.2716C40.9886 95.1388 40.9002 95.0281 40.8116 94.9395C40.723 94.8067 40.6345 94.696 40.5459 94.6074C40.1474 94.0318 39.7046 93.4784 39.2176 92.947C38.7748 92.3714 38.3099 91.818 37.8229 91.2866C37.5572 91.0652 37.2915 90.8217 37.0258 90.556C36.8044 90.3347 36.5609 90.1133 36.2953 89.8919C35.8082 89.4491 35.3211 89.0949 34.8341 88.8292C34.8341 89.2941 34.8341 89.8919 34.9669 90.4896C35.0333 91.0874 35.2326 91.7515 35.4318 92.4157C35.8968 93.6776 36.5609 94.9395 37.2251 95.8694C37.9557 96.8656 38.8855 97.729 39.8154 98.4596C40.3024 98.8138 40.7894 99.1238 41.2765 99.3894C41.7193 99.6551 42.162 99.8543 42.6048 99.9872C42.6934 99.9872 42.7819 99.9872 42.8705 99.9872V100.186L42.9369 101.249C42.9812 101.603 43.0254 101.98 43.0697 102.378L43.2026 103.441C43.269 104.171 43.3354 104.902 43.4683 105.566L43.6675 106.695V106.894C43.5789 106.673 43.4682 106.474 43.3354 106.297C43.2025 106.075 43.0697 105.854 42.9369 105.633C42.6712 105.168 42.2727 104.769 41.9406 104.304C41.5864 103.861 41.2101 103.441 40.8116 103.042C39.8154 102.046 38.6863 101.05 37.4908 100.12C37.2251 99.8986 36.9373 99.6772 36.6273 99.4558C36.3617 99.2787 36.096 99.1016 35.8303 98.9245C35.2547 98.526 34.7013 98.2161 34.1699 97.9947C34.2363 98.526 34.3028 99.1238 34.502 99.7215C34.7013 100.319 34.9669 100.917 35.299 101.581C35.4318 101.891 35.5868 102.179 35.7639 102.445C35.9853 102.755 36.1845 103.042 36.3617 103.308C36.7602 103.884 37.1808 104.393 37.6236 104.836C38.487 105.699 39.5497 106.496 40.6123 107.094C41.675 107.691 42.7376 108.024 43.6675 108.156C43.756 108.156 43.8446 108.156 43.9331 108.156L44.2652 109.883C44.6637 111.61 45.1507 113.315 45.7264 114.997C45.505 114.643 45.2172 114.289 44.863 113.935C44.5088 113.492 44.1102 113.093 43.6675 112.739C43.4461 112.518 43.2247 112.318 43.0033 112.141C42.8705 112.053 42.7598 111.964 42.6712 111.876C42.5384 111.787 42.4056 111.699 42.2727 111.61C41.1437 110.747 39.8153 109.883 38.5534 109.153C37.8893 108.798 37.2472 108.466 36.6273 108.156C36.3174 108.024 36.0074 107.913 35.6975 107.824C35.3875 107.691 35.0998 107.581 34.8341 107.492C34.8784 107.758 34.9448 108.046 35.0333 108.356C35.1662 108.621 35.299 108.887 35.4318 109.153C35.5647 109.463 35.7197 109.773 35.8968 110.082C36.096 110.348 36.2953 110.68 36.4945 110.946C37.3579 112.075 38.3541 113.138 39.3504 113.868C39.8817 114.267 40.4352 114.621 41.0108 114.931C41.5864 115.241 42.162 115.506 42.7376 115.728C43.9331 116.126 44.9958 116.392 45.992 116.392C46.0806 116.392 46.147 116.37 46.1913 116.326C47.0326 118.584 48.0288 120.798 49.1801 122.967C49.0029 122.834 48.8479 122.679 48.7151 122.502C48.4937 122.37 48.2945 122.215 48.1174 122.037C47.6746 121.683 47.2096 121.329 46.7226 120.975C46.4569 120.842 46.1913 120.687 45.9256 120.51C45.7042 120.377 45.4607 120.244 45.1951 120.111C43.8667 119.381 42.4056 118.717 40.9444 118.185C40.2138 117.92 39.5497 117.72 38.8855 117.521C38.2213 117.3 37.5793 117.167 36.9594 117.123C37.1587 117.588 37.4908 118.185 37.8229 118.717C38.2214 119.248 38.6863 119.779 39.2176 120.311C39.439 120.576 39.7046 120.842 40.0146 121.108C40.2802 121.329 40.5459 121.55 40.8116 121.772C41.3872 122.215 41.9628 122.569 42.5384 122.834C43.1583 123.144 43.7781 123.41 44.398 123.631C45.0179 123.897 45.6378 124.074 46.2577 124.163C47.5196 124.428 48.6487 124.495 49.6449 124.296C49.6892 124.296 49.7557 124.273 49.8442 124.229C51.0397 126.399 52.368 128.48 53.8292 130.472C53.7849 130.428 53.7406 130.384 53.6963 130.339C53.6078 130.295 53.4971 130.229 53.3642 130.14C53.1428 130.007 52.9215 129.875 52.7001 129.742C52.4344 129.565 52.1688 129.41 51.9031 129.277C51.6374 129.144 51.3718 129.033 51.1061 128.945C50.5748 128.679 50.0213 128.436 49.4457 128.214C48.693 127.993 47.9403 127.771 47.1876 127.55C46.7891 127.461 46.4127 127.373 46.0584 127.284C45.6599 127.196 45.2615 127.107 44.863 127.019C43.4018 126.687 41.8742 126.487 40.6787 126.554C40.9444 127.019 41.3429 127.55 41.8078 128.015C42.0735 128.281 42.3391 128.524 42.6048 128.745C42.8705 128.967 43.1583 129.188 43.4683 129.41C43.7339 129.631 44.0438 129.852 44.398 130.074C44.5309 130.162 44.6859 130.251 44.863 130.339C44.9958 130.472 45.1508 130.561 45.3279 130.605C45.992 130.959 46.6341 131.247 47.254 131.469C47.3868 131.513 47.5417 131.557 47.7188 131.601C47.896 131.646 48.051 131.69 48.1838 131.734C48.538 131.823 48.8922 131.911 49.2465 132C49.9106 132.088 50.5527 132.155 51.1725 132.199C52.5009 132.266 53.6963 132.133 54.6262 131.801C54.6704 131.756 54.7148 131.712 54.759 131.668C56.3088 133.66 57.9913 135.542 59.8067 137.313C59.4525 137.136 59.0539 136.959 58.6111 136.782C57.5485 136.383 56.2866 135.985 55.0911 135.786C54.6926 135.741 54.2941 135.697 53.8956 135.653C53.4971 135.608 53.0986 135.564 52.7001 135.52C52.3016 135.476 51.9031 135.431 51.5046 135.387C51.1061 135.343 50.7076 135.321 50.3091 135.321C49.5121 135.276 48.7372 135.276 47.9845 135.321C47.6303 135.321 47.2761 135.343 46.9219 135.387C46.6119 135.431 46.302 135.476 45.992 135.52C46.0806 135.608 46.1692 135.719 46.2577 135.852C46.3905 135.941 46.5012 136.051 46.5898 136.184C46.8112 136.405 47.0768 136.627 47.3868 136.848C47.6524 137.025 47.9403 137.225 48.2502 137.446C48.3388 137.49 48.4273 137.535 48.5159 137.579C48.5602 137.623 48.6265 137.667 48.7151 137.712C48.8922 137.8 49.0693 137.889 49.2465 137.977C49.9106 138.309 50.6412 138.642 51.3053 138.907C52.0581 139.129 52.7443 139.306 53.3642 139.439C53.7185 139.483 54.0727 139.527 54.427 139.571C54.7812 139.616 55.1354 139.638 55.4896 139.638C56.1981 139.638 56.8622 139.593 57.4821 139.505C58.8104 139.372 60.0059 139.04 60.8693 138.509C60.9136 138.509 60.9578 138.487 61.0021 138.442C61.3563 138.752 61.7106 139.062 62.0648 139.372C63.6146 140.745 65.2528 142.029 66.9796 143.224C66.8468 143.18 66.7139 143.136 66.5811 143.091C66.3154 143.047 66.0498 142.981 65.7842 142.892C64.5887 142.693 63.3268 142.56 62.0648 142.56C61.6663 142.56 61.2678 142.56 60.8693 142.56C60.4708 142.56 60.0502 142.582 59.6074 142.626C59.2089 142.626 58.7882 142.649 58.3455 142.693C57.947 142.737 57.5485 142.781 57.15 142.826C55.556 143.025 54.0284 143.291 52.833 143.756C53.2315 144.154 53.8292 144.486 54.427 144.818C55.0911 145.15 55.7553 145.482 56.5523 145.682C57.2828 145.947 58.0134 146.147 58.8104 146.279C59.541 146.412 60.2716 146.479 60.9357 146.479C61.6663 146.479 62.3969 146.412 63.0611 146.279C63.7695 146.191 64.4558 146.058 65.12 145.881C66.4483 145.482 67.5774 144.951 68.3744 144.287C68.4187 144.287 68.4408 144.265 68.4408 144.22C68.6622 144.353 68.8615 144.464 69.0386 144.553C71.0311 145.837 73.112 146.988 75.2816 148.006C74.8831 147.962 74.4847 147.918 74.0862 147.873C73.7763 147.873 73.4663 147.873 73.1564 147.873C72.8464 147.918 72.5143 147.94 72.1601 147.94C71.5402 147.984 70.8982 148.05 70.234 148.139C69.437 148.338 68.64 148.471 67.843 148.67C66.9796 148.87 66.1827 149.069 65.3857 149.268C64.5887 149.49 63.8359 149.755 63.1275 150.065C62.729 150.198 62.3748 150.331 62.0648 150.464C61.7549 150.641 61.4671 150.796 61.2014 150.929C61.3342 151.017 61.4671 151.106 61.5999 151.194C61.7327 151.238 61.8655 151.305 61.9984 151.393C62.3083 151.526 62.6404 151.659 62.9946 151.792C63.3488 151.881 63.7031 151.969 64.0573 152.058C64.4558 152.146 64.8543 152.235 65.2528 152.323C65.6513 152.368 66.0498 152.412 66.4483 152.456C66.8468 152.456 67.2453 152.456 67.6438 152.456C68.4408 152.456 69.1714 152.39 69.8355 152.323C70.0126 152.279 70.1898 152.235 70.3669 152.19C70.544 152.146 70.7211 152.102 70.8982 152.058C71.2524 151.969 71.6066 151.881 71.9608 151.792C72.6693 151.571 73.3334 151.305 73.9533 150.995C75.1488 150.397 76.2115 149.6 76.9421 148.87C76.9421 148.825 76.9643 148.781 77.0085 148.737L77.8055 149.069L78.2704 149.268C78.4475 149.357 78.6246 149.423 78.8017 149.467C79.5102 149.733 80.1965 149.999 80.8606 150.264L82.9195 150.929C83.318 150.995 83.6502 151.128 83.9823 151.194L84.4471 151.327C84.3586 151.327 84.27 151.327 84.1815 151.327C83.9158 151.371 83.628 151.416 83.3181 151.46C82.6982 151.548 82.0783 151.681 81.4584 151.858C80.7942 151.991 80.1522 152.168 79.5323 152.39C79.1338 152.523 78.7354 152.678 78.3369 152.855C77.9384 152.987 77.562 153.142 77.2077 153.32C76.4107 153.652 75.6138 154.05 74.8168 154.382C73.2892 155.113 71.8944 155.91 70.8982 156.773C71.4295 157.039 72.1601 157.172 72.8907 157.305C73.0678 157.305 73.2449 157.327 73.422 157.371C73.6434 157.415 73.8427 157.437 74.0198 157.437C74.4183 157.437 74.8167 157.437 75.2152 157.437C75.6137 157.437 76.0344 157.415 76.4772 157.371L76.7429 157.305H77.0749C77.252 157.26 77.4513 157.216 77.6727 157.172C78.4697 157.039 79.2002 156.84 79.8644 156.64C80.5728 156.375 81.2591 156.065 81.9233 155.711C82.2332 155.533 82.5432 155.356 82.8531 155.179C83.1631 155.002 83.4509 154.803 83.7166 154.581C84.8457 153.718 85.7755 152.788 86.3732 151.925C86.3732 151.881 86.3732 151.836 86.3732 151.792C88.8085 152.368 91.2438 152.766 93.679 152.987L93.7454 152.124C91.3544 151.903 88.9634 151.526 86.5724 150.995C86.5724 150.951 86.5724 150.906 86.5724 150.862Z" fill="#E7CAB3"/>
<path d="M149.933 108.156C149.978 108.156 150.044 108.156 150.133 108.156C151.062 108.024 152.125 107.691 153.188 107.094C154.25 106.496 155.313 105.699 156.177 104.836C156.619 104.393 157.04 103.884 157.438 103.308C157.616 103.042 157.815 102.755 158.036 102.445C158.213 102.179 158.368 101.891 158.501 101.581C158.833 100.917 159.099 100.319 159.298 99.7215C159.497 99.1238 159.63 98.526 159.63 97.9947C159.099 98.2161 158.568 98.526 158.036 98.9245C157.726 99.1016 157.438 99.2787 157.173 99.4558C156.863 99.6772 156.575 99.8986 156.309 100.12C155.114 101.05 154.051 102.046 152.989 103.042C152.59 103.441 152.214 103.861 151.859 104.304C151.527 104.769 151.195 105.168 150.863 105.633C150.73 105.854 150.598 106.075 150.465 106.297C150.376 106.474 150.265 106.673 150.133 106.894L150.199 106.695L150.332 105.566C150.465 104.902 150.531 104.171 150.664 103.441L150.73 102.378C150.775 101.98 150.819 101.603 150.863 101.249L150.93 100.186V99.9872C151.018 99.9872 151.107 99.9872 151.195 99.9872C151.638 99.8543 152.103 99.6551 152.59 99.3894C153.033 99.1238 153.498 98.8138 153.985 98.4596C154.915 97.729 155.844 96.8656 156.575 95.8694C157.306 94.9395 157.903 93.6776 158.368 92.4157C158.568 91.7515 158.767 91.0874 158.833 90.4896C158.966 89.8919 158.966 89.2941 158.966 88.8292C158.479 89.0949 157.992 89.4491 157.505 89.8919C157.239 90.1133 156.996 90.3347 156.774 90.556C156.509 90.8217 156.265 91.0652 156.044 91.2866C155.512 91.818 155.025 92.3714 154.583 92.947C154.095 93.4784 153.653 94.0318 153.254 94.6074C153.166 94.696 153.077 94.8067 152.989 94.9395C152.9 95.0281 152.811 95.1388 152.723 95.2716C152.59 95.493 152.457 95.7144 152.324 95.9358C152.147 96.2014 152.014 96.445 151.926 96.6664C151.793 96.932 151.66 97.1755 151.527 97.3969C151.306 97.8397 151.129 98.2825 150.996 98.7253C150.996 98.7253 150.996 98.7474 150.996 98.7917V96.932C150.996 96.5335 150.996 96.1572 150.996 95.8029V95.2716C150.996 95.0945 150.974 94.9174 150.93 94.7403V93.6112L150.863 93.0799L150.797 92.5485C150.797 92.3271 150.797 92.1279 150.797 91.9508C150.885 91.9508 150.974 91.9287 151.063 91.8844C151.461 91.7073 151.882 91.4637 152.324 91.1538C152.723 90.8438 153.121 90.4896 153.52 90.0911C153.918 89.6926 154.317 89.2277 154.715 88.7628C155.07 88.2757 155.402 87.7666 155.712 87.2352C155.977 86.7039 156.221 86.1283 156.442 85.5084C156.531 85.1985 156.619 84.8885 156.708 84.5786C156.796 84.2686 156.885 83.9587 156.974 83.6487C157.239 82.3204 157.239 81.0585 157.04 80.0623C156.243 80.7264 155.38 81.7891 154.516 82.9182C153.719 84.0472 152.922 85.2427 152.258 86.4382C151.793 87.368 151.328 88.4307 151.063 89.3605C150.885 89.8476 150.753 90.2904 150.664 90.6889C150.664 90.7774 150.664 90.866 150.664 90.9545C150.443 88.6964 150.066 86.4604 149.535 84.2465C149.623 84.2465 149.712 84.2243 149.801 84.1801C150.531 83.7152 151.328 82.9846 151.992 82.1212C152.169 81.8555 152.324 81.612 152.457 81.3906C152.634 81.1249 152.789 80.8814 152.922 80.66C153.232 80.1287 153.476 79.5752 153.653 78.9996C153.874 78.4683 154.051 77.8927 154.184 77.2728C154.228 76.9628 154.273 76.6529 154.317 76.3429C154.361 76.033 154.405 75.723 154.45 75.4131C154.45 74.7489 154.45 74.0848 154.383 73.5534C154.339 73.2435 154.295 72.9557 154.25 72.69C154.206 72.4244 154.14 72.1808 154.051 71.9595C153.697 72.358 153.343 72.8007 152.989 73.2878C152.634 73.8191 152.302 74.3947 151.992 75.0146C151.815 75.3245 151.66 75.6345 151.527 75.9444C151.35 76.2544 151.195 76.5643 151.063 76.8743C150.797 77.4942 150.531 78.114 150.265 78.7339C150.088 79.221 149.933 79.7302 149.801 80.2615C149.668 80.7486 149.557 81.2356 149.469 81.7227C149.38 82.2097 149.336 82.6525 149.336 83.051C149.336 83.1838 149.336 83.2945 149.336 83.3831C148.804 81.2135 148.14 79.0881 147.343 77.0071C147.41 77.0071 147.542 77.0071 147.609 76.9407C148.273 76.4094 148.871 75.6124 149.469 74.6161C149.734 74.1291 149.956 73.6199 150.133 73.0885C150.354 72.5572 150.531 72.0037 150.664 71.4281C150.797 70.8968 150.885 70.3212 150.93 69.7013C150.974 69.0814 150.974 68.4615 150.93 67.8416C150.863 66.5797 150.598 65.3842 150.133 64.5872C149.823 64.9857 149.535 65.4728 149.269 66.0484C149.004 66.5797 148.738 67.1775 148.539 67.7752C148.074 69.0371 147.675 70.3655 147.343 71.561C147.077 72.5572 147.011 73.6199 146.945 74.6161C146.945 75.236 146.967 75.7895 147.011 76.2765C146.967 76.0551 146.9 75.8559 146.812 75.6788C146.059 73.8634 145.218 72.0923 144.288 70.3655C144.354 70.3655 144.487 70.3655 144.554 70.2326C145.151 69.6349 145.616 68.7715 146.015 67.7752C146.236 67.2882 146.413 66.7568 146.546 66.1812C146.59 65.9156 146.657 65.6499 146.745 65.3842C146.79 65.1186 146.812 64.8308 146.812 64.5208C146.878 63.9895 146.878 63.4581 146.878 62.8604C146.834 62.2405 146.745 61.6206 146.613 61.0007C146.524 60.4251 146.369 59.8717 146.148 59.3403C146.059 59.0747 145.948 58.8311 145.816 58.6098C145.727 58.3884 145.616 58.1891 145.484 58.012C145.019 58.8754 144.62 60.0045 144.288 61.2664C144.244 61.5764 144.177 61.9084 144.089 62.2627C144.045 62.5726 143.978 62.8825 143.89 63.1925C143.801 63.8566 143.712 64.4987 143.624 65.1186C143.58 65.6056 143.557 66.1148 143.557 66.6461C143.557 66.8675 143.557 67.1111 143.557 67.3767C143.602 67.5981 143.624 67.8416 143.624 68.1073C143.668 68.5501 143.735 68.9707 143.823 69.3692C143.867 69.502 143.912 69.6349 143.956 69.7677C143.602 69.1478 143.225 68.5279 142.827 67.9081C142.118 66.7126 141.344 65.5392 140.502 64.388C140.635 64.388 140.702 64.3216 140.834 64.1887C141.056 63.8788 141.255 63.5024 141.432 63.0597C141.609 62.6169 141.764 62.152 141.897 61.6649C142.163 60.6687 142.362 59.4732 142.295 58.4105C142.295 57.8792 142.229 57.3478 142.163 56.7501C142.03 56.1745 141.875 55.5989 141.698 55.0233C141.299 53.8942 140.768 52.8979 140.237 52.2338C140.059 52.7208 139.905 53.23 139.772 53.7614C139.639 54.3591 139.572 54.9568 139.506 55.5546C139.462 55.8645 139.417 56.1745 139.373 56.4844C139.373 56.8387 139.351 57.1707 139.307 57.4807C139.262 58.1006 139.262 58.7205 139.307 59.3403C139.307 59.8274 139.329 60.3144 139.373 60.8015C139.417 61.0672 139.462 61.3107 139.506 61.5321C139.55 61.7535 139.595 61.9748 139.639 62.1962C139.727 62.6833 139.838 63.1039 139.971 63.4582C140.059 63.591 140.126 63.746 140.17 63.9231C139.417 62.8604 138.621 61.8199 137.779 60.8015C137.248 60.2259 136.717 59.6503 136.185 59.0747C136.318 59.0747 136.384 58.9418 136.451 58.8754C136.849 58.1448 137.115 57.2814 137.248 56.2188C137.336 55.7317 137.381 55.2225 137.381 54.6912C137.381 54.4255 137.359 54.1599 137.314 53.8942C137.314 53.6285 137.292 53.3629 137.248 53.0972C137.159 52.5659 137.049 52.0345 136.916 51.5032C136.739 50.9719 136.517 50.4405 136.252 49.9092C136.207 49.7764 136.141 49.6435 136.052 49.5107C136.008 49.3779 135.942 49.245 135.853 49.1122C135.72 48.8908 135.587 48.6694 135.455 48.448C135.322 48.2267 135.167 48.0274 134.99 47.8503C134.857 47.6732 134.702 47.5182 134.525 47.3854C134.392 47.8282 134.303 48.3373 134.259 48.913C134.215 49.4886 134.193 50.0642 134.193 50.6398C134.193 50.9497 134.193 51.2597 134.193 51.5696C134.193 51.8796 134.215 52.1895 134.259 52.4994C134.303 53.1193 134.37 53.7392 134.458 54.3591C134.503 54.8019 134.591 55.2668 134.724 55.7538C134.768 55.9752 134.835 56.1966 134.923 56.418C134.968 56.6394 135.034 56.8608 135.123 57.0822C135.255 57.4807 135.41 57.857 135.587 58.2113C135.676 58.4326 135.787 58.6098 135.92 58.7426C134.547 57.3257 133.13 55.9531 131.669 54.6248C131.58 54.5805 131.492 54.5141 131.403 54.4255C131.536 54.4255 131.669 54.3591 131.669 54.2263C132.001 53.4957 132.134 52.6323 132.134 51.636C132.178 51.1047 132.156 50.5955 132.067 50.1085C132.023 49.5771 131.935 49.0679 131.802 48.5809C131.536 47.651 131.071 46.522 130.473 45.5921C130.341 45.3707 130.186 45.1494 130.008 44.928C129.876 44.7066 129.721 44.4852 129.544 44.2638C129.189 43.9096 128.857 43.5996 128.547 43.334C128.415 44.2638 128.415 45.3929 128.547 46.5884C128.636 47.164 128.724 47.7617 128.813 48.3816C128.902 48.6473 128.968 48.9351 129.012 49.245C129.101 49.5107 129.167 49.7985 129.212 50.1085C129.344 50.5512 129.499 50.994 129.676 51.4368C129.809 51.8796 129.986 52.2781 130.208 52.6323C130.296 52.8537 130.385 53.0529 130.473 53.23C130.562 53.4071 130.65 53.5621 130.739 53.6949C130.916 53.9163 131.071 54.1156 131.204 54.2927C129.876 53.1415 128.481 52.0567 127.02 51.0383C127.086 50.9719 127.086 50.839 127.02 50.7062C126.688 50.042 126.156 49.3115 125.426 48.5809C125.071 48.2267 124.695 47.8946 124.297 47.5846C123.854 47.2747 123.411 47.009 122.968 46.7876C122.105 46.3227 121.042 45.8578 119.913 45.6586C119.648 45.6143 119.382 45.57 119.116 45.5257C118.85 45.4814 118.585 45.4593 118.319 45.4593C117.788 45.4593 117.323 45.4814 116.924 45.5257C117.522 46.2563 118.386 47.0533 119.315 47.7175C119.802 48.0717 120.29 48.4259 120.777 48.7801C121.042 48.9572 121.308 49.1122 121.574 49.245C121.839 49.3779 122.083 49.5329 122.304 49.71C122.703 49.9314 123.123 50.1306 123.566 50.3077C124.009 50.4848 124.43 50.6398 124.828 50.7726C125.049 50.8169 125.249 50.8612 125.426 50.9054C125.647 50.9497 125.846 50.994 126.023 51.0383C126.378 51.0826 126.666 51.1047 126.887 51.1047C126.931 51.1047 126.975 51.0826 127.02 51.0383C128.437 52.0567 129.809 53.1415 131.138 54.2927C130.96 54.1599 130.761 54.0492 130.54 53.9606C130.363 53.9163 130.186 53.8499 130.008 53.7614C129.831 53.7171 129.632 53.6728 129.411 53.6285C129.012 53.54 128.592 53.4736 128.149 53.4293C127.662 53.385 127.197 53.385 126.754 53.4293C126.488 53.4293 126.223 53.4514 125.957 53.4957C125.647 53.54 125.359 53.6064 125.094 53.6949C124.518 53.8278 123.987 53.9827 123.5 54.1599C122.437 54.5584 121.507 55.0233 120.777 55.621C121.087 55.7539 121.441 55.8867 121.839 56.0195C122.016 56.0638 122.216 56.0859 122.437 56.0859C122.658 56.1302 122.88 56.1745 123.101 56.2188C124.031 56.2852 125.027 56.3516 125.891 56.2188C126.378 56.1745 126.865 56.1081 127.352 56.0195C127.817 55.9531 128.282 55.8203 128.747 55.7538C129.676 55.4882 130.54 55.1561 131.204 54.824C131.337 54.6912 131.403 54.5584 131.403 54.4919C131.447 54.5362 131.514 54.6026 131.602 54.6912C133.064 55.9752 134.436 57.3257 135.72 58.7426C135.632 58.654 135.499 58.5655 135.322 58.4769C135.012 58.2998 134.636 58.1227 134.193 57.9456C134.016 57.9013 133.816 57.8349 133.595 57.7463C133.374 57.7021 133.152 57.6578 132.931 57.6135C132.444 57.525 131.979 57.4585 131.536 57.4143C130.96 57.4143 130.385 57.4585 129.809 57.5471C129.499 57.5471 129.211 57.5692 128.946 57.6135C128.636 57.7021 128.348 57.7685 128.082 57.8128C127.507 57.9456 126.975 58.1227 126.488 58.3441C126.001 58.5212 125.581 58.7426 125.227 59.0083C125.359 59.0968 125.492 59.1854 125.625 59.2739C125.802 59.3625 125.979 59.4289 126.156 59.4732C126.378 59.5617 126.599 59.6281 126.821 59.6724C126.909 59.7167 127.02 59.761 127.153 59.8053C127.241 59.8053 127.352 59.8274 127.485 59.8717C127.927 59.9602 128.414 60.0488 128.946 60.1373C129.433 60.1816 129.898 60.2037 130.341 60.2037C130.562 60.2037 130.805 60.2037 131.071 60.2037C131.337 60.2037 131.58 60.2037 131.802 60.2037C132.289 60.1595 132.798 60.0931 133.329 60.0045C134.259 59.8717 135.189 59.6724 135.92 59.4067C136.052 59.3403 136.119 59.2075 136.119 59.1411C136.65 59.7167 137.181 60.3144 137.713 60.9343C138.51 61.9084 139.285 62.9047 140.037 63.9231C139.949 63.8345 139.838 63.746 139.705 63.6574C139.395 63.436 139.041 63.2146 138.643 62.9932C138.421 62.9047 138.2 62.8161 137.978 62.7276C137.801 62.639 137.58 62.5505 137.314 62.4619C136.871 62.3291 136.429 62.2184 135.986 62.1298C135.41 62.0855 134.813 62.0413 134.193 61.997C133.883 61.997 133.573 62.0191 133.263 62.0634C132.997 62.0634 132.709 62.0855 132.399 62.1298C131.824 62.1741 131.27 62.2848 130.739 62.4619C130.208 62.5947 129.721 62.7719 129.278 62.9932C129.809 63.3917 130.606 63.7902 131.536 64.1223C131.979 64.2994 132.444 64.4323 132.931 64.5208C133.418 64.6536 133.905 64.7643 134.392 64.8529C135.388 64.9857 136.384 65.0521 137.447 64.9857C137.934 64.9857 138.421 64.9636 138.908 64.9193C139.351 64.875 139.772 64.7865 140.17 64.6537C140.303 64.6537 140.369 64.5208 140.436 64.4544C141.233 65.6056 141.986 66.779 142.694 67.9745C143.092 68.5944 143.447 69.2142 143.757 69.8341C143.668 69.7456 143.58 69.657 143.491 69.5685C143.225 69.3028 142.893 69.0371 142.495 68.7715C142.318 68.6386 142.118 68.5058 141.897 68.373C141.72 68.2401 141.521 68.1294 141.299 68.0409C140.856 67.8195 140.392 67.6424 139.905 67.5095C139.329 67.3767 138.731 67.266 138.111 67.1775C137.801 67.1332 137.491 67.1111 137.181 67.1111C136.872 67.0668 136.562 67.0446 136.252 67.0446C135.056 67.0446 133.927 67.2439 133.064 67.576C133.152 67.7088 133.263 67.8195 133.396 67.9081C133.573 68.0409 133.75 68.1737 133.927 68.3066C134.281 68.5279 134.68 68.7493 135.123 68.9707C135.565 69.1921 136.03 69.3913 136.517 69.5685C137.004 69.7898 137.491 69.9448 137.978 70.0334C138.2 70.1219 138.443 70.1883 138.709 70.2326C138.975 70.2769 139.218 70.3433 139.44 70.4319C139.971 70.5204 140.502 70.5868 141.034 70.6311C142.03 70.764 143.026 70.764 143.823 70.6311C143.956 70.6311 144.089 70.5647 144.089 70.4983C145.019 72.1808 145.86 73.9298 146.613 75.7452C146.657 75.9223 146.723 76.1215 146.812 76.3429C146.546 75.9444 146.148 75.5459 145.749 75.1474C145.019 74.4833 144.155 73.9519 143.225 73.5534C142.096 73.0885 140.834 72.7565 139.639 72.6236C139.019 72.5351 138.421 72.4908 137.846 72.4908C137.27 72.5351 136.739 72.6015 136.252 72.69C136.65 73.2878 137.381 73.8855 138.178 74.4169C138.62 74.7268 139.085 74.9925 139.572 75.2139C140.015 75.4795 140.458 75.7009 140.901 75.878C141.388 76.0551 141.897 76.2322 142.428 76.4094C142.915 76.5865 143.425 76.7414 143.956 76.8743C145.019 77.0735 146.015 77.2728 146.812 77.2063C146.945 77.2063 147.055 77.1842 147.144 77.1399C147.897 79.1767 148.539 81.2577 149.07 83.3831C149.026 83.2945 148.981 83.2281 148.937 83.1838C148.716 82.8296 148.45 82.4754 148.14 82.1212C147.83 81.7669 147.476 81.4127 147.078 81.0585C146.679 80.7043 146.258 80.4165 145.816 80.1951C145.284 79.863 144.687 79.5973 144.089 79.3317C143.823 79.1988 143.535 79.0881 143.225 78.9996C142.915 78.911 142.605 78.8225 142.295 78.7339C141.676 78.5568 141.078 78.4461 140.502 78.4018C139.905 78.3354 139.373 78.3354 138.842 78.3354C138.93 78.5125 139.041 78.6896 139.174 78.8668C139.263 78.9996 139.395 79.1546 139.572 79.3317C139.838 79.6638 140.237 79.9958 140.635 80.3943C140.812 80.5272 141.011 80.6821 141.233 80.8592C141.454 81.0364 141.676 81.1913 141.897 81.3242C142.296 81.6784 142.716 81.9662 143.159 82.1876C143.646 82.4532 144.133 82.6968 144.62 82.9182C144.886 83.051 145.129 83.1838 145.351 83.3167C145.616 83.4052 145.882 83.4938 146.148 83.5823C147.144 83.9808 148.14 84.3129 149.004 84.3793C149.092 84.3793 149.181 84.3572 149.269 84.3129C149.756 86.4825 150.11 88.6742 150.332 90.8881C150.332 90.8438 150.31 90.7996 150.265 90.7553C150.133 90.3568 149.933 89.9583 149.668 89.5598C149.07 88.7628 148.406 87.8994 147.609 87.3016C146.546 86.5046 145.351 85.7741 144.222 85.3091C142.96 84.8442 141.764 84.5121 140.768 84.4457C140.967 85.1763 141.565 85.9069 142.229 86.7703C142.406 86.9474 142.605 87.1245 142.827 87.3016C143.004 87.523 143.181 87.7223 143.358 87.8994C143.757 88.2979 144.222 88.63 144.62 88.962C145.019 89.272 145.461 89.5819 145.948 89.8919C146.435 90.2018 146.923 90.5118 147.41 90.8217C147.897 91.0874 148.362 91.3088 148.804 91.4859C149.291 91.7073 149.756 91.8844 150.199 92.0172C150.288 92.0172 150.376 91.9951 150.465 91.9508C150.465 92.1722 150.465 92.3714 150.465 92.5485L150.531 93.0799V93.6776L150.598 94.7403C150.598 94.9174 150.598 95.0945 150.598 95.2716V95.8029C150.642 96.1572 150.664 96.5335 150.664 96.932L150.598 98.7253C150.598 98.7253 150.598 98.7031 150.598 98.6588C150.465 98.2603 150.288 97.8397 150.066 97.3969C149.978 97.1313 149.867 96.8877 149.734 96.6664C149.601 96.445 149.468 96.2236 149.336 96.0022C149.159 95.7808 149.004 95.5594 148.871 95.338C148.782 95.2495 148.694 95.1609 148.605 95.0724C148.517 94.9838 148.428 94.8731 148.339 94.7403C147.852 94.2975 147.365 93.8547 146.878 93.4119C146.303 93.0134 145.727 92.6371 145.151 92.2829C144.886 92.1058 144.62 91.9508 144.354 91.818C144.044 91.6851 143.757 91.5523 143.491 91.4195C142.915 91.1981 142.362 91.0431 141.831 90.9545C141.875 91.3088 142.008 91.7073 142.229 92.15C142.45 92.5485 142.716 92.9913 143.026 93.4784C143.624 94.3418 144.354 95.2716 145.085 96.0686C145.882 96.7992 146.745 97.5962 147.609 98.3268C148.096 98.6367 148.561 98.9466 149.004 99.2566C149.446 99.5223 149.867 99.7436 150.265 99.9208C150.354 99.965 150.443 99.965 150.531 99.9208V100.12L150.465 101.249C150.42 101.603 150.376 101.958 150.332 102.312L150.199 103.374C150.133 104.105 150.066 104.836 149.933 105.5L149.734 106.629V106.762C149.69 106.54 149.646 106.319 149.601 106.097C149.557 105.876 149.491 105.633 149.402 105.367C149.269 104.88 149.092 104.393 148.871 103.906C148.605 103.419 148.317 102.954 148.007 102.511C147.277 101.448 146.214 100.386 145.151 99.5223C144.93 99.3451 144.664 99.1459 144.354 98.9245C144.089 98.7474 143.823 98.5924 143.557 98.4596C143.026 98.1496 142.495 97.9061 141.963 97.729C142.008 98.0832 142.096 98.5039 142.229 98.9909C142.362 99.4337 142.561 99.8986 142.827 100.386C142.96 100.651 143.093 100.917 143.225 101.183C143.358 101.404 143.491 101.648 143.624 101.913C143.889 102.4 144.199 102.865 144.554 103.308C145.218 104.238 145.948 105.168 146.812 105.965C147.609 106.762 148.406 107.492 149.203 107.957C149.291 108.001 149.38 108.024 149.469 108.024L149.07 109.75C148.672 111.477 148.184 113.16 147.609 114.798C147.609 114.4 147.587 113.957 147.542 113.47C147.476 112.938 147.343 112.407 147.144 111.876C147.055 111.61 146.967 111.344 146.878 111.079C146.834 110.946 146.79 110.813 146.745 110.68C146.657 110.547 146.59 110.415 146.546 110.282C145.882 109.086 145.085 107.891 144.089 106.894C143.646 106.407 143.159 105.965 142.628 105.566C142.406 105.345 142.163 105.168 141.897 105.035C141.631 104.858 141.388 104.703 141.166 104.57C141.166 104.747 141.166 104.946 141.166 105.168C141.166 105.389 141.189 105.633 141.233 105.898C141.277 106.12 141.321 106.363 141.366 106.629C141.432 106.894 141.565 107.16 141.631 107.426C141.897 108.488 142.428 109.618 142.893 110.614C143.159 111.101 143.447 111.61 143.757 112.141C144.067 112.628 144.399 113.115 144.753 113.603C145.484 114.599 146.214 115.462 146.945 116.06C146.989 116.104 147.055 116.126 147.144 116.126C146.303 118.34 145.329 120.51 144.222 122.635C144.266 122.458 144.288 122.281 144.288 122.104C144.332 121.838 144.354 121.572 144.354 121.307C144.354 120.775 144.31 120.222 144.222 119.646C144.177 119.381 144.133 119.115 144.089 118.849C144 118.539 143.912 118.252 143.823 117.986C143.425 116.658 142.694 115.329 141.897 114.2C141.565 113.603 141.1 113.071 140.635 112.606C140.192 112.119 139.75 111.721 139.307 111.411C139.218 111.765 139.174 112.186 139.174 112.673C139.174 113.204 139.218 113.757 139.307 114.333C139.351 114.599 139.395 114.887 139.44 115.197C139.484 115.462 139.55 115.75 139.639 116.06C139.772 116.591 139.905 117.189 140.104 117.72C140.281 118.252 140.502 118.805 140.768 119.381C140.967 119.979 141.299 120.51 141.565 121.041C142.096 122.104 142.694 123.1 143.358 123.831C143.402 123.875 143.447 123.919 143.491 123.963C142.296 126.045 140.989 128.059 139.572 130.007C139.572 130.007 139.572 129.985 139.572 129.941C139.617 129.808 139.639 129.697 139.639 129.609C139.727 129.343 139.794 129.078 139.838 128.812C139.882 128.546 139.927 128.258 139.971 127.948C139.971 127.683 139.971 127.395 139.971 127.085C140.015 126.509 139.993 125.934 139.905 125.358C139.772 124.694 139.572 123.963 139.373 123.233C139.24 122.879 139.108 122.547 138.975 122.237C138.842 121.882 138.709 121.55 138.576 121.24C137.912 119.912 137.181 118.783 136.318 117.986C136.185 118.34 136.074 118.761 135.986 119.248C135.942 119.514 135.92 119.779 135.92 120.045C135.92 120.355 135.897 120.643 135.853 120.908C135.853 121.218 135.875 121.528 135.92 121.838C135.92 122.104 135.92 122.392 135.92 122.702C135.964 123.321 136.052 123.919 136.185 124.495C136.23 124.76 136.274 125.048 136.318 125.358C136.407 125.668 136.473 125.978 136.517 126.288C136.694 126.908 136.871 127.506 137.049 128.081C137.447 129.277 137.912 130.339 138.443 131.203C138.443 131.247 138.488 131.291 138.576 131.336C137.026 133.24 135.366 135.055 133.595 136.782C133.772 136.428 133.927 136.051 134.06 135.653C134.458 134.59 134.658 133.328 134.658 132.199C134.658 131.845 134.635 131.469 134.591 131.07C134.591 130.716 134.547 130.339 134.458 129.941C134.414 129.587 134.348 129.233 134.259 128.878C134.215 128.524 134.126 128.17 133.993 127.816C133.772 127.063 133.529 126.399 133.263 125.823C133.13 125.513 132.975 125.225 132.798 124.96C132.621 124.65 132.444 124.384 132.267 124.163C132.222 124.251 132.178 124.34 132.134 124.428C132.09 124.517 132.045 124.628 132.001 124.76C131.912 124.938 131.824 125.159 131.735 125.425C131.647 125.646 131.58 125.912 131.536 126.222C131.536 126.266 131.514 126.332 131.47 126.421C131.47 126.465 131.47 126.532 131.47 126.62C131.425 126.753 131.381 126.886 131.337 127.019C131.27 127.616 131.204 128.281 131.138 128.878C131.093 129.498 131.071 130.096 131.071 130.672C131.071 130.981 131.071 131.291 131.071 131.601C131.115 131.911 131.138 132.221 131.138 132.531C131.182 133.195 131.27 133.837 131.403 134.457C131.602 135.719 131.868 136.848 132.267 137.778C132.267 137.822 132.289 137.867 132.333 137.911C131.979 138.221 131.647 138.531 131.337 138.841C129.787 140.169 128.171 141.409 126.488 142.56C126.533 142.472 126.599 142.383 126.688 142.294C126.82 142.073 126.953 141.829 127.086 141.564C127.617 140.568 128.082 139.372 128.282 138.243C128.326 137.845 128.37 137.468 128.414 137.114C128.414 136.715 128.437 136.317 128.481 135.918C128.481 135.564 128.459 135.188 128.414 134.789C128.414 134.435 128.392 134.059 128.348 133.66C128.149 132.199 127.75 130.804 127.219 129.742C126.953 130.052 126.688 130.45 126.422 130.937C126.223 131.402 126.024 131.933 125.824 132.465C125.559 133.063 125.426 133.66 125.293 134.258C125.116 134.878 124.983 135.498 124.894 136.118C124.806 136.738 124.739 137.357 124.695 137.977C124.607 138.642 124.562 139.306 124.562 139.97C124.562 141.232 124.629 142.427 124.894 143.423C124.894 143.512 124.917 143.556 124.961 143.556C124.739 143.689 124.54 143.822 124.363 143.955C122.415 145.15 120.378 146.235 118.253 147.209C118.518 146.988 118.762 146.722 118.983 146.412C119.205 146.191 119.382 145.947 119.515 145.682C119.692 145.416 119.869 145.15 120.046 144.885C120.356 144.353 120.599 143.8 120.777 143.224C121.042 142.494 121.242 141.763 121.374 140.966C121.507 140.169 121.574 139.439 121.64 138.642C121.64 137.889 121.618 137.158 121.574 136.45C121.529 136.096 121.463 135.763 121.374 135.454C121.33 135.144 121.264 134.834 121.175 134.524C121.087 134.612 120.998 134.679 120.909 134.723C120.821 134.812 120.732 134.9 120.644 134.989C120.511 135.166 120.356 135.365 120.179 135.586C120.046 135.808 119.891 136.029 119.714 136.251C119.581 136.516 119.426 136.782 119.249 137.048C119.116 137.313 118.983 137.601 118.851 137.911C118.718 138.177 118.585 138.464 118.452 138.774C118.186 139.35 117.965 139.926 117.788 140.501C117.699 140.811 117.589 141.121 117.456 141.431C117.367 141.741 117.279 142.051 117.19 142.361C117.057 143.025 116.924 143.689 116.792 144.287C116.526 145.615 116.393 146.811 116.46 147.873C116.504 147.918 116.526 147.962 116.526 148.006L115.729 148.338L115.198 148.538C115.065 148.626 114.91 148.693 114.733 148.737C114.024 149.002 113.338 149.246 112.674 149.467L110.615 150.132C110.283 150.198 109.951 150.331 109.552 150.397L109.154 150.53C109.242 150.486 109.309 150.441 109.353 150.397C109.574 150.22 109.796 150.021 110.017 149.799C110.46 149.401 110.903 148.958 111.345 148.471C111.744 147.984 112.076 147.475 112.342 146.944C112.563 146.589 112.74 146.235 112.873 145.881C113.05 145.527 113.205 145.172 113.338 144.818C113.604 144.066 113.825 143.313 114.002 142.56C114.334 140.966 114.401 139.505 114.268 138.309C113.869 138.487 113.493 138.774 113.139 139.173C113.006 139.261 112.895 139.35 112.807 139.439C112.718 139.571 112.63 139.682 112.541 139.771C112.32 139.992 112.12 140.235 111.943 140.501C111.766 140.723 111.567 140.966 111.345 141.232L111.213 141.431L111.08 141.63C110.991 141.763 110.903 141.896 110.814 142.029C110.416 142.56 110.084 143.158 109.818 143.689C109.508 144.265 109.22 144.863 108.955 145.482C108.822 145.792 108.689 146.102 108.556 146.412C108.423 146.722 108.29 147.032 108.157 147.342C107.693 148.538 107.361 149.799 107.228 150.862C107.228 150.906 107.228 150.951 107.228 150.995C104.837 151.526 102.446 151.903 100.055 152.124L100.121 152.987C102.556 152.766 104.992 152.368 107.427 151.792C107.427 151.836 107.449 151.881 107.493 151.925C108.025 152.788 108.954 153.718 110.084 154.581C110.349 154.803 110.637 155.002 110.947 155.179C111.257 155.356 111.589 155.533 111.943 155.711C112.563 156.065 113.227 156.375 113.936 156.64C114.6 156.84 115.33 157.039 116.127 157.172C116.349 157.216 116.548 157.26 116.725 157.305H117.057L117.323 157.371C117.766 157.415 118.186 157.437 118.585 157.437C118.983 157.437 119.382 157.437 119.78 157.437C120.002 157.437 120.201 157.415 120.378 157.371C120.555 157.327 120.732 157.305 120.909 157.305C121.64 157.172 122.371 157.039 122.902 156.773C121.906 155.91 120.511 155.113 118.983 154.382C118.253 154.05 117.456 153.652 116.659 153.32C116.26 153.142 115.862 152.987 115.463 152.855C115.065 152.678 114.666 152.523 114.268 152.39C113.648 152.168 113.028 151.991 112.408 151.858C111.744 151.681 111.102 151.548 110.482 151.46C110.216 151.416 109.929 151.371 109.619 151.327C109.53 151.327 109.442 151.327 109.353 151.327L109.818 151.194C110.15 151.128 110.482 150.995 110.881 150.929L112.939 150.264C113.648 149.999 114.334 149.733 114.998 149.467C115.175 149.423 115.353 149.357 115.53 149.268L115.995 149.069L116.792 148.737C116.836 148.781 116.88 148.825 116.924 148.87C117.589 149.6 118.651 150.397 119.913 150.995C120.489 151.305 121.131 151.571 121.839 151.792C122.194 151.881 122.548 151.969 122.902 152.058C123.079 152.102 123.256 152.146 123.433 152.19C123.61 152.235 123.787 152.279 123.965 152.323C124.629 152.39 125.426 152.456 126.156 152.456C126.555 152.456 126.953 152.456 127.352 152.456C127.75 152.412 128.149 152.368 128.547 152.323C128.946 152.235 129.344 152.146 129.743 152.058C130.097 151.969 130.451 151.881 130.806 151.792C131.16 151.659 131.492 151.526 131.802 151.393C131.935 151.305 132.067 151.238 132.2 151.194C132.333 151.106 132.466 151.017 132.599 150.929C132.333 150.796 132.045 150.641 131.735 150.464C131.425 150.331 131.093 150.198 130.739 150.065C129.986 149.755 129.211 149.49 128.414 149.268C127.617 149.069 126.82 148.87 125.957 148.67C125.16 148.471 124.363 148.338 123.566 148.139C122.902 148.05 122.26 147.984 121.64 147.94C121.33 147.94 120.998 147.918 120.644 147.873C120.334 147.873 120.046 147.873 119.78 147.873C119.338 147.918 118.917 147.962 118.518 148.006C120.688 146.988 122.769 145.837 124.762 144.553C124.939 144.464 125.138 144.353 125.359 144.22C125.359 144.265 125.381 144.287 125.426 144.287C126.289 144.951 127.418 145.482 128.68 145.881C129.344 146.058 130.031 146.191 130.739 146.279C131.403 146.412 132.134 146.479 132.864 146.479C133.529 146.479 134.259 146.412 134.99 146.279C135.787 146.147 136.517 145.947 137.248 145.682C138.045 145.482 138.709 145.15 139.373 144.818C139.971 144.486 140.569 144.154 140.967 143.756C139.838 143.291 138.244 143.025 136.65 142.826C136.252 142.781 135.853 142.737 135.455 142.693C135.012 142.649 134.591 142.626 134.193 142.626C133.794 142.582 133.374 142.56 132.931 142.56C132.532 142.56 132.134 142.56 131.735 142.56C130.473 142.56 129.211 142.693 128.016 142.892C127.75 142.981 127.485 143.047 127.219 143.091C127.086 143.136 126.953 143.18 126.821 143.224C128.547 142.029 130.186 140.745 131.735 139.372C132.089 139.062 132.444 138.752 132.798 138.442C132.842 138.487 132.887 138.509 132.931 138.509C133.794 139.04 134.99 139.372 136.318 139.505C136.982 139.593 137.646 139.638 138.311 139.638C138.665 139.638 139.019 139.616 139.373 139.571C139.727 139.527 140.082 139.483 140.436 139.439C141.034 139.306 141.764 139.106 142.495 138.907C143.159 138.642 143.89 138.309 144.554 137.977C144.731 137.889 144.908 137.8 145.085 137.712C145.174 137.667 145.24 137.623 145.284 137.579C145.373 137.535 145.461 137.49 145.55 137.446C145.86 137.225 146.148 137.025 146.413 136.848C146.723 136.627 146.989 136.405 147.21 136.184C147.343 136.051 147.454 135.941 147.542 135.852C147.631 135.719 147.72 135.608 147.808 135.52C147.498 135.476 147.188 135.431 146.878 135.387C146.524 135.343 146.17 135.321 145.816 135.321C145.063 135.276 144.288 135.276 143.491 135.321C143.093 135.321 142.694 135.343 142.295 135.387C141.897 135.431 141.499 135.476 141.1 135.52C140.702 135.564 140.303 135.608 139.905 135.653C139.506 135.697 139.107 135.741 138.709 135.786C137.514 135.985 136.318 136.383 135.189 136.782C134.746 136.959 134.348 137.136 133.993 137.313C135.809 135.542 137.491 133.66 139.041 131.668C139.085 131.712 139.13 131.756 139.174 131.801C140.104 132.133 141.299 132.266 142.628 132.199C143.247 132.155 143.912 132.088 144.62 132C144.93 131.911 145.262 131.823 145.616 131.734C145.749 131.69 145.904 131.646 146.081 131.601C146.258 131.557 146.435 131.513 146.613 131.469C147.188 131.247 147.808 130.959 148.472 130.605C148.649 130.561 148.804 130.472 148.937 130.339C149.114 130.251 149.291 130.162 149.469 130.074C149.778 129.852 150.066 129.631 150.332 129.41C150.642 129.188 150.93 128.967 151.195 128.745C151.505 128.524 151.771 128.281 151.992 128.015C152.457 127.55 152.856 127.019 153.121 126.554C151.926 126.487 150.465 126.687 148.937 127.019C148.539 127.107 148.14 127.196 147.742 127.284C147.387 127.373 147.011 127.461 146.613 127.55C145.86 127.771 145.107 127.993 144.354 128.214C143.779 128.436 143.225 128.679 142.694 128.945C142.428 129.033 142.163 129.144 141.897 129.277C141.631 129.41 141.366 129.565 141.1 129.742C140.879 129.875 140.657 130.007 140.436 130.14C140.303 130.229 140.192 130.295 140.104 130.339C140.06 130.384 140.015 130.428 139.971 130.472C141.432 128.48 142.76 126.399 143.956 124.229C144.044 124.273 144.111 124.296 144.155 124.296C145.151 124.495 146.28 124.428 147.542 124.163C148.162 124.074 148.782 123.897 149.402 123.631C150.022 123.41 150.642 123.144 151.262 122.834C151.837 122.569 152.413 122.215 152.989 121.772C153.254 121.55 153.52 121.329 153.786 121.108C154.096 120.842 154.361 120.576 154.583 120.311C155.114 119.779 155.579 119.248 155.977 118.717C156.309 118.185 156.641 117.588 156.841 117.123C156.221 117.167 155.579 117.3 154.915 117.521C154.25 117.72 153.586 117.92 152.856 118.185C151.395 118.717 149.933 119.381 148.605 120.111C148.384 120.244 148.14 120.377 147.874 120.51C147.609 120.687 147.365 120.842 147.144 120.975C146.613 121.329 146.125 121.683 145.683 122.037C145.506 122.215 145.306 122.37 145.085 122.502C144.952 122.679 144.819 122.834 144.686 122.967C145.793 120.798 146.768 118.584 147.609 116.326C147.653 116.37 147.72 116.392 147.808 116.392C148.804 116.392 149.867 116.126 151.063 115.728C151.638 115.506 152.214 115.241 152.789 114.931C153.365 114.621 153.918 114.267 154.45 113.868C155.446 113.138 156.442 112.075 157.306 110.946C157.505 110.68 157.704 110.348 157.903 110.082C158.08 109.773 158.235 109.463 158.368 109.153C158.501 108.887 158.634 108.621 158.767 108.356C158.855 108.046 158.922 107.758 158.966 107.492C158.7 107.581 158.413 107.691 158.103 107.824C157.837 107.913 157.527 108.024 157.173 108.156C156.553 108.466 155.911 108.798 155.247 109.153C153.985 109.883 152.656 110.747 151.527 111.61C151.395 111.699 151.284 111.787 151.195 111.876C151.062 111.964 150.93 112.053 150.797 112.141C150.575 112.318 150.354 112.518 150.133 112.739C149.734 113.093 149.336 113.492 148.937 113.935C148.583 114.289 148.295 114.643 148.074 114.997C148.649 113.315 149.136 111.61 149.535 109.883L149.933 108.156Z" fill="#E7CAB3"/>
<path d="M100.918 78.9985C100.918 73.5523 98.9919 72.0248 95.9367 72.0248C92.948 72.0248 91.0219 73.6852 91.0219 78.0022V81.9208H82.0557V78.6664C82.0557 68.9696 86.904 63.3906 96.2023 63.3906C105.567 63.3906 110.415 68.9696 110.415 78.6664V80.194C110.415 86.7028 108.357 90.7542 103.774 92.6803C108.489 94.7392 110.415 99.2555 110.415 105.366V110.148C110.415 119.845 105.567 125.357 96.2023 125.357C86.904 125.357 82.0557 119.845 82.0557 110.148V105.1H91.0219V110.746C91.0219 115.063 92.948 116.723 95.9367 116.723C98.9919 116.723 100.918 115.262 100.918 109.882V105.1C100.918 99.5211 98.9918 97.3958 94.6748 97.3958H91.4868V88.7617H95.2061C98.7261 88.7617 100.918 87.2341 100.918 82.3857V78.9985Z" fill="#E7CAB3"/>
<defs>
<linearGradient id="paint0_linear_1149_573" x1="-27.1941" y1="176.07" x2="15.9944" y2="-27.1171" gradientUnits="userSpaceOnUse">
<stop stop-color="#984F35"/>
<stop offset="0.24" stop-color="#C48E67"/>
<stop offset="0.389" stop-color="#AD6A46"/>
<stop offset="0.524" stop-color="#AD6C48"/>
<stop offset="1" stop-color="#D5AC83"/>
</linearGradient>
<linearGradient id="paint1_linear_1149_573" x1="66.3085" y1="235.729" x2="-43.6638" y2="66.3865" gradientUnits="userSpaceOnUse">
<stop stop-color="#984F35"/>
<stop offset="0.24" stop-color="#C48E67"/>
<stop offset="0.389" stop-color="#AD6A46"/>
<stop offset="0.524" stop-color="#AD6C48"/>
<stop offset="0.707" stop-color="#D5AC83"/>
<stop offset="1" stop-color="#984F35"/>
</linearGradient>
<linearGradient id="paint2_linear_1149_573" x1="200.611" y1="28.132" x2="163.933" y2="200.688" gradientUnits="userSpaceOnUse">
<stop stop-color="#984F35"/>
<stop offset="0.24" stop-color="#C48E67"/>
<stop offset="0.389" stop-color="#AD6A46"/>
<stop offset="0.524" stop-color="#AD6C48"/>
<stop offset="1" stop-color="#D5AC83"/>
</linearGradient>
<linearGradient id="paint3_linear_1149_573" x1="70.541" y1="29.5316" x2="167.215" y2="96.0703" gradientUnits="userSpaceOnUse">
<stop stop-color="#D1A57E"/>
<stop offset="1" stop-color="#995237"/>
</linearGradient>
<radialGradient id="paint4_radial_1149_573" cx="0" cy="0" r="1" gradientUnits="userSpaceOnUse" gradientTransform="translate(96.5457 120.135) scale(100.945 100.945)">
<stop offset="0.621" stop-color="white"/>
<stop offset="0.93" stop-color="#984F35"/>
</radialGradient>
</defs>
</svg>
