<svg width="100" height="100" viewBox="0 0 100 100" fill="none" xmlns="http://www.w3.org/2000/svg">
<path d="M25.436 4.11791C23.8808 4.58254 22.7507 5.60682 22.2584 7.02182C22.0235 7.66596 22.0235 7.75043 22.0458 19.4717L22.0794 31.2668L22.4374 31.9849C23.0864 33.2732 24.3842 34.2341 25.8164 34.4875C26.1632 34.5509 28.6023 34.5931 31.7127 34.5931H37.0161V37.3387C37.0161 39.4189 37.0497 40.1686 37.1727 40.4326C37.2622 40.6544 38.0119 41.3302 39.2874 42.3545L41.2565 43.9385V45.9659L41.2677 48.0039H37.2734H33.2679L32.6861 47.7399C31.9029 47.402 30.247 46.9057 29.0722 46.6734C27.752 46.3989 24.2947 46.3989 22.885 46.6628C19.7522 47.2647 16.9327 48.6375 14.6838 50.6755C12.144 52.9564 10.4881 55.9237 10.007 59.0388C9.90629 59.6829 9.39162 66.5784 8.86576 74.3714C7.92592 88.3208 7.91474 88.5531 8.08256 89.4929C8.55248 92.0483 10.2643 94.2342 12.6587 95.3535C14.4488 96.1877 14.4936 96.1983 19.1368 96.2405C22.9857 96.2722 23.299 96.2617 24.2276 96.0505C26.6779 95.5014 28.759 93.9913 29.9002 91.9322C30.1128 91.552 31.5449 87.9934 33.1001 84.0124C34.6553 80.0314 36.1434 76.1983 36.4231 75.4802L36.9266 74.1919H49.8829H62.8392L63.3427 75.4908C63.6224 76.1983 65.1105 80.0314 66.6657 84.0124C68.2209 87.9934 69.653 91.552 69.8656 91.9322C71.0068 93.9913 73.0879 95.5014 75.5382 96.0505C76.4668 96.2617 76.7801 96.2722 80.629 96.2405C85.2722 96.1983 85.317 96.1877 87.1071 95.3535C89.5015 94.2342 91.2133 92.0483 91.6832 89.4929C91.8511 88.5531 91.8399 88.3208 90.9 74.3714C90.3742 66.5784 89.8707 59.7252 89.7812 59.1444C89.535 57.6132 89.1211 56.3566 88.3714 54.91C86.2121 50.7283 82.0835 47.7294 77.127 46.7156C75.8179 46.4517 73.0991 46.3461 71.7789 46.515C70.4027 46.684 68.881 47.0747 67.5496 47.571L66.4195 48.0039H62.4588H58.4981L58.5093 45.9659V43.9385L60.4784 42.3545C61.7539 41.3302 62.5036 40.6544 62.5931 40.4326C62.7161 40.1686 62.7497 39.4189 62.7497 37.3387V34.5931H68.0531C71.1635 34.5931 73.6026 34.5509 73.9494 34.4875C75.3816 34.2341 76.6794 33.2732 77.3284 31.9849L77.6864 31.2668L77.72 19.4717C77.7423 7.75043 77.7423 7.66596 77.5074 7.02182C77.0822 5.80746 76.2319 4.92045 74.9564 4.35022L74.218 4.02287L50.0507 4.00175C30.7505 3.99119 25.794 4.01231 25.436 4.11791ZM73.7704 7.42309C74.3522 7.83492 74.3298 7.31749 74.3298 19.2922V30.4643L74.0949 30.76C73.9718 30.9184 73.7368 31.119 73.5914 31.1824C73.3788 31.288 68.2657 31.3196 49.8829 31.3196C31.5002 31.3196 26.387 31.288 26.1744 31.1824C26.029 31.119 25.794 30.9184 25.6709 30.76C25.436 30.4643 25.436 30.4326 25.4024 19.6195C25.38 13.6533 25.4024 8.57409 25.436 8.33122C25.5143 7.82436 25.9842 7.32805 26.4653 7.24357C26.6331 7.2119 37.2846 7.20134 50.1291 7.2119C72.2152 7.24357 73.5131 7.25413 73.7704 7.42309ZM48.1822 41.2669L48.1487 47.9511L46.448 47.9828L44.7362 48.0145V45.4907C44.7362 43.9173 44.6914 42.8402 44.6131 42.6291C44.5236 42.3967 43.8859 41.8054 42.4873 40.6544L40.4845 39.0176V36.8001V34.5931H44.3446H48.2046L48.1822 41.2669ZM59.2813 36.8001V39.0176L57.2785 40.6544C55.88 41.8054 55.2422 42.3967 55.1527 42.6291C55.0744 42.8402 55.0296 43.9173 55.0296 45.4907V48.0145L53.329 47.9828L51.6171 47.9511L51.5836 41.2669L51.5612 34.5931H55.4212H59.2813V36.8001ZM28.5464 49.9152C33.3127 50.8234 37.0385 54.1074 38.314 58.5108C38.5937 59.4506 38.6272 59.7463 38.6272 61.3091C38.6384 63.2415 38.4594 64.1497 37.7881 65.7231C36.5574 68.627 33.8833 71.0979 30.6946 72.2806C25.022 74.3714 18.5215 72.439 15.2432 67.6977C10.8685 61.3514 13.9454 52.9987 21.6319 50.3376C23.5675 49.6724 26.387 49.4928 28.5464 49.9152ZM76.1648 49.8519C80.9311 50.7072 84.7687 53.9701 86.0666 58.2679C87.2414 62.1539 86.1449 66.3355 83.1688 69.3239C78.2123 74.2764 69.8432 74.4031 64.7077 69.5879C62.2127 67.2331 60.9372 64.118 61.105 60.7811C61.3735 55.5013 65.5133 51.024 71.1411 49.9152C72.4949 49.6512 74.8557 49.6196 76.1648 49.8519ZM61.7763 51.2352C61.8211 51.2774 61.6197 51.5414 61.34 51.8371C59.7624 53.495 58.4869 55.9765 57.9163 58.4897C57.5918 59.9469 57.5694 62.5868 57.8715 64.0546C58.3526 66.3989 59.4827 68.7748 60.926 70.4644L61.3064 70.9184H49.8829H38.4706L38.9181 70.3693C40.2831 68.7537 41.3125 66.5784 41.8495 64.213C42.1964 62.703 42.1852 60.0103 41.8495 58.4897C41.2789 55.9765 40.0034 53.495 38.4259 51.8371C38.1461 51.5414 37.9447 51.2774 37.9895 51.2352C38.079 51.1507 61.6868 51.1507 61.7763 51.2352ZM13.4754 70.9079C13.8335 71.3408 14.5607 72.0483 15.0866 72.4707C17.9173 74.8149 21.2067 76.1032 25.0444 76.3567C27.1142 76.4939 30.1687 76.0293 32.0708 75.269C32.5183 75.1001 32.8763 74.9945 32.8763 75.0473C32.8763 75.1001 31.9701 77.4865 30.8512 80.3482C29.7436 83.1993 28.4457 86.5151 27.987 87.7083C27.517 88.9016 27.0247 90.1054 26.8681 90.3799C26.2863 91.4887 24.9549 92.5024 23.6794 92.8192C23.064 92.9776 22.4598 92.9987 19.1145 92.967L15.2544 92.9354L14.4041 92.5447C12.8377 91.816 11.7524 90.4961 11.4839 88.9649C11.3832 88.4053 11.4727 86.6946 11.9985 79.2078C12.3454 74.213 12.6251 70.0842 12.6251 70.0209C12.6251 69.9047 12.5915 69.873 13.4754 70.9079ZM87.7673 79.155C88.2931 86.6946 88.3826 88.4053 88.2819 88.9649C88.0134 90.4961 86.9281 91.816 85.3617 92.5447L84.5114 92.9354L80.6514 92.967C77.306 92.9987 76.7018 92.9776 76.0864 92.8192C74.8109 92.5024 73.4795 91.4887 72.8977 90.3799C72.7411 90.1054 72.2488 88.9016 71.7789 87.7083C71.3201 86.5151 70.0223 83.1993 68.9146 80.3377C67.7957 77.476 66.8895 75.1001 66.8895 75.0473C66.8895 74.9945 67.2475 75.1001 67.695 75.269C69.5971 76.0293 72.6516 76.4939 74.7214 76.3567C76.0641 76.2722 77.8207 75.9554 78.9395 75.6069C81.7702 74.7305 84.6904 72.8403 86.4134 70.7812C86.7827 70.3376 87.0959 69.9892 87.1071 70.0103C87.1183 70.0209 87.4204 74.1391 87.7673 79.155Z" fill="white"/>
<path d="M24.2592 56.9253V59.7236H21.1823H18.1055V61.3604V62.9971H21.1823H24.2592V65.7954V68.5938H25.9934C27.3248 68.5938 27.7276 68.5621 27.7164 68.4565C27.7052 68.3931 27.7052 67.126 27.7164 65.6582L27.7276 62.9971H30.7485H33.7694V61.3604V59.7236H30.7261H27.6717V56.957V54.1798L25.971 54.1481L24.2592 54.1164V56.9253Z" fill="white"/>
<path d="M72.6632 52.2784C72.0591 52.479 71.4773 52.9436 71.0857 53.5455C70.7724 54.0207 70.75 54.1369 70.75 55.0133C70.75 55.7525 70.7948 56.0693 70.9626 56.3861C71.6563 57.6955 73.3457 58.3396 74.845 57.875C75.7065 57.6005 76.5457 56.7874 76.7918 55.9743C77.4072 53.989 75.9527 52.12 73.8268 52.1305C73.4241 52.1305 72.9094 52.1939 72.6632 52.2784Z" fill="white"/>
<path d="M66.4109 58.4675C64.9228 58.6787 63.8711 59.872 63.8711 61.3609C63.8711 64.0642 67.1829 65.363 69.208 63.4623C69.6556 63.0399 69.8234 62.7864 69.98 62.3113C70.6513 60.0937 68.8276 58.1296 66.4109 58.4675Z" fill="white"/>
<path d="M80.0554 58.4669C78.5562 58.6887 77.5268 59.8714 77.5156 61.3603C77.5156 62.5852 78.1757 63.5884 79.3058 64.0952C80.0778 64.4332 81.3085 64.4015 82.0582 64.0319C83.5015 63.3138 84.1392 61.7616 83.5574 60.336C82.998 58.9738 81.6106 58.2346 80.0554 58.4669Z" fill="white"/>
<path d="M73.1641 64.8033C71.6872 65.0778 70.7026 66.2394 70.6914 67.6966C70.6914 70.8012 75.0661 71.836 76.5989 69.0799C76.8451 68.6259 76.901 68.4041 76.901 67.6966C76.901 66.9574 76.8563 66.7779 76.5654 66.2816C75.9053 65.1517 74.5179 64.5498 73.1641 64.8033Z" fill="white"/>
<path d="M43.5039 65.0586V66.6953H45.5738H47.6437V65.0586V63.4218H45.5738H43.5039V65.0586Z" fill="white"/>
<path d="M52.1172 65.0586V66.6953H54.1871H56.2569V65.0586V63.4218H54.1871H52.1172V65.0586Z" fill="white"/>
<path d="M49.75 9C47.8216 9 45.9366 9.57183 44.3332 10.6432C42.7298 11.7145 41.4801 13.2373 40.7422 15.0188C40.0042 16.8004 39.8111 18.7608 40.1873 20.6521C40.5636 22.5434 41.4922 24.2807 42.8557 25.6443C44.2193 27.0079 45.9566 27.9365 47.8479 28.3127C49.7392 28.6889 51.6996 28.4958 53.4812 27.7578C55.2627 27.0199 56.7855 25.7702 57.8568 24.1668C58.9282 22.5634 59.5 20.6784 59.5 18.75C59.4973 16.165 58.4692 13.6866 56.6413 11.8587C54.8134 10.0308 52.335 9.00273 49.75 9ZM49.75 27C48.1183 27 46.5233 26.5161 45.1665 25.6096C43.8098 24.7031 42.7524 23.4146 42.128 21.9071C41.5036 20.3996 41.3402 18.7408 41.6585 17.1405C41.9769 15.5402 42.7626 14.0702 43.9164 12.9164C45.0702 11.7626 46.5402 10.9768 48.1405 10.6585C49.7409 10.3402 51.3997 10.5036 52.9071 11.128C54.4146 11.7524 55.7031 12.8098 56.6096 14.1665C57.5162 15.5233 58 17.1183 58 18.75C57.9975 20.9373 57.1275 23.0343 55.5809 24.5809C54.0343 26.1275 51.9373 26.9975 49.75 27ZM54.2725 18.1144L48.2725 14.3644C48.159 14.2934 48.0286 14.2542 47.8948 14.2506C47.761 14.2471 47.6287 14.2794 47.5116 14.3443C47.3945 14.4092 47.2969 14.5042 47.2289 14.6195C47.161 14.7348 47.1251 14.8662 47.125 15V22.5C47.1251 22.6338 47.161 22.7652 47.2289 22.8805C47.2969 22.9958 47.3945 23.0908 47.5116 23.1557C47.6287 23.2206 47.761 23.2529 47.8948 23.2494C48.0286 23.2458 48.159 23.2066 48.2725 23.1356L54.2725 19.3856C54.3802 19.3182 54.469 19.2245 54.5306 19.1133C54.5921 19.0021 54.6244 18.8771 54.6244 18.75C54.6244 18.6229 54.5921 18.4979 54.5306 18.3867C54.469 18.2755 54.3802 18.1818 54.2725 18.1144ZM48.625 21.1472V16.3528L52.4603 18.75L48.625 21.1472Z" fill="white"/>
</svg>
