<svg width="100" height="100" viewBox="0 0 100 100" fill="none" xmlns="http://www.w3.org/2000/svg">
<path d="M89.7364 84.4706H79.9273V17.2843C79.9273 15.8828 79.3708 14.5387 78.3803 13.5477C77.3897 12.5567 76.0463 12 74.6455 12H26.3545C24.9537 12 23.6103 12.5567 22.6197 13.5477C21.6292 14.5387 21.0727 15.8828 21.0727 17.2843V84.4706H11.2636C10.6633 84.4706 10.0875 84.7092 9.663 85.1339C9.23849 85.5586 9 86.1347 9 86.7353C9 87.3359 9.23849 87.912 9.663 88.3367C10.0875 88.7614 10.6633 89 11.2636 89H89.7364C90.3367 89 90.9125 88.7614 91.337 88.3367C91.7615 87.912 92 87.3359 92 86.7353C92 86.1347 91.7615 85.5586 91.337 85.1339C90.9125 84.7092 90.3367 84.4706 89.7364 84.4706ZM75.4 17.2843V84.4706H67.8545V16.5294H74.6455C74.8456 16.5294 75.0375 16.6089 75.179 16.7505C75.3205 16.8921 75.4 17.0841 75.4 17.2843ZM25.6 17.2843C25.6 17.0841 25.6795 16.8921 25.821 16.7505C25.9625 16.6089 26.1544 16.5294 26.3545 16.5294H63.3273V84.4706H25.6V17.2843ZM55.7818 52.0098C55.7818 52.7563 55.5606 53.4861 55.146 54.1068C54.7314 54.7275 54.1422 55.2113 53.4529 55.497C52.7635 55.7827 52.0049 55.8574 51.2731 55.7118C50.5412 55.5661 49.869 55.2067 49.3414 54.6788C48.8137 54.1509 48.4544 53.4784 48.3089 52.7462C48.1633 52.014 48.238 51.2551 48.5235 50.5654C48.8091 49.8757 49.2927 49.2862 49.9131 48.8714C50.5335 48.4567 51.2629 48.2353 52.0091 48.2353C53.0097 48.2353 53.9693 48.633 54.6768 49.3408C55.3843 50.0487 55.7818 51.0087 55.7818 52.0098Z" fill="white"/>
<path d="M37.5 42C35.8189 42 34.1755 42.4985 32.7777 43.4325C31.3798 44.3665 30.2904 45.694 29.647 47.2472C29.0037 48.8004 28.8354 50.5094 29.1633 52.1583C29.4913 53.8071 30.3008 55.3217 31.4896 56.5104C32.6783 57.6992 34.1929 58.5087 35.8417 58.8367C37.4906 59.1646 39.1996 58.9963 40.7528 58.353C42.306 57.7096 43.6335 56.6202 44.5675 55.2223C45.5015 53.8245 46 52.1811 46 50.5C45.9974 48.2465 45.101 46.086 43.5075 44.4925C41.914 42.899 39.7535 42.0026 37.5 42ZM37.5 58C36.0166 58 34.5666 57.5601 33.3332 56.736C32.0999 55.9119 31.1386 54.7406 30.5709 53.3701C30.0032 51.9997 29.8547 50.4917 30.1441 49.0368C30.4335 47.582 31.1478 46.2456 32.1967 45.1967C33.2456 44.1478 34.582 43.4335 36.0368 43.1441C37.4917 42.8547 38.9997 43.0032 40.3701 43.5709C41.7406 44.1386 42.9119 45.0999 43.736 46.3332C44.5601 47.5666 45 49.0166 45 50.5C44.9978 52.4884 44.2069 54.3948 42.8009 55.8009C41.3948 57.2069 39.4884 57.9978 37.5 58ZM38.3333 46.5V54.5C38.3333 54.6326 38.2807 54.7598 38.1869 54.8536C38.0931 54.9473 37.9659 55 37.8333 55C37.7007 55 37.5736 54.9473 37.4798 54.8536C37.386 54.7598 37.3333 54.6326 37.3333 54.5V47.4342L36.1108 48.25C36.0003 48.3236 35.8651 48.3503 35.7349 48.3242C35.6047 48.2981 35.4903 48.2213 35.4167 48.1108C35.3431 48.0003 35.3164 47.8651 35.3425 47.7349C35.3686 47.6047 35.4453 47.4903 35.5558 47.4167L37.5558 46.0833C37.6312 46.0331 37.7188 46.0042 37.8092 45.9998C37.8997 45.9955 37.9897 46.0158 38.0695 46.0586C38.1493 46.1013 38.2161 46.165 38.2625 46.2428C38.309 46.3205 38.3335 46.4094 38.3333 46.5Z" fill="white"/>
</svg>
