<svg width="100" height="100" viewBox="0 0 100 100" fill="none" xmlns="http://www.w3.org/2000/svg">
<path d="M89.7364 83.4706H79.9273V16.2843C79.9273 14.8828 79.3708 13.5387 78.3803 12.5477C77.3897 11.5567 76.0463 11 74.6455 11H26.3545C24.9537 11 23.6103 11.5567 22.6197 12.5477C21.6292 13.5387 21.0727 14.8828 21.0727 16.2843V83.4706H11.2636C10.6633 83.4706 10.0875 83.7092 9.663 84.1339C9.23849 84.5586 9 85.1347 9 85.7353C9 86.3359 9.23849 86.912 9.663 87.3367C10.0875 87.7614 10.6633 88 11.2636 88H89.7364C90.3367 88 90.9125 87.7614 91.337 87.3367C91.7615 86.912 92 86.3359 92 85.7353C92 85.1347 91.7615 84.5586 91.337 84.1339C90.9125 83.7092 90.3367 83.4706 89.7364 83.4706ZM75.4 16.2843V83.4706H67.8545V15.5294H74.6455C74.8456 15.5294 75.0375 15.6089 75.179 15.7505C75.3205 15.8921 75.4 16.0841 75.4 16.2843ZM25.6 16.2843C25.6 16.0841 25.6795 15.8921 25.821 15.7505C25.9625 15.6089 26.1544 15.5294 26.3545 15.5294H63.3273V83.4706H25.6V16.2843ZM55.7818 51.0098C55.7818 51.7563 55.5606 52.4861 55.146 53.1068C54.7314 53.7275 54.1422 54.2113 53.4529 54.497C52.7635 54.7827 52.0049 54.8574 51.2731 54.7118C50.5412 54.5661 49.869 54.2067 49.3414 53.6788C48.8137 53.1509 48.4544 52.4784 48.3089 51.7462C48.1633 51.014 48.238 50.2551 48.5235 49.5654C48.8091 48.8757 49.2927 48.2862 49.9131 47.8714C50.5335 47.4567 51.2629 47.2353 52.0091 47.2353C53.0097 47.2353 53.9693 47.633 54.6768 48.3408C55.3843 49.0487 55.7818 50.0087 55.7818 51.0098Z" fill="white"/>
<path d="M37.5625 40C35.6712 40 33.8224 40.5608 32.2499 41.6116C30.6773 42.6623 29.4517 44.1558 28.7279 45.9031C28.0041 47.6504 27.8148 49.5731 28.1837 51.4281C28.5527 53.283 29.4635 54.9869 30.8008 56.3242C32.1381 57.6615 33.842 58.5723 35.697 58.9413C37.5519 59.3102 39.4746 59.1209 41.2219 58.3971C42.9692 57.6733 44.4627 56.4477 45.5134 54.8751C46.5642 53.3026 47.125 51.4538 47.125 49.5625C47.122 47.0273 46.1136 44.5968 44.3209 42.8041C42.5283 41.0114 40.0977 40.003 37.5625 40ZM37.5625 58C35.8937 58 34.2624 57.5051 32.8749 56.578C31.4873 55.6509 30.4059 54.3331 29.7673 52.7914C29.1287 51.2496 28.9616 49.5531 29.2871 47.9164C29.6127 46.2797 30.4163 44.7763 31.5963 43.5963C32.7763 42.4163 34.2797 41.6127 35.9164 41.2871C37.5531 40.9616 39.2496 41.1287 40.7914 41.7673C42.3331 42.4059 43.6509 43.4873 44.578 44.8749C45.5052 46.2624 46 47.8937 46 49.5625C45.9975 51.7995 45.1078 53.9442 43.526 55.526C41.9442 57.1078 39.7995 57.9975 37.5625 58ZM39.8125 49.0047L36.4375 53.5047H39.8125C39.9617 53.5047 40.1048 53.564 40.2103 53.6694C40.3157 53.7749 40.375 53.918 40.375 54.0672C40.375 54.2164 40.3157 54.3594 40.2103 54.4649C40.1048 54.5704 39.9617 54.6297 39.8125 54.6297H35.3125C35.208 54.6297 35.1056 54.6006 35.0168 54.5457C34.9279 54.4908 34.8561 54.4122 34.8094 54.3187C34.7627 54.2253 34.7429 54.1207 34.7523 54.0167C34.7617 53.9126 34.7998 53.8133 34.8625 53.7297L38.9097 48.3334C39.0538 48.139 39.1544 47.9158 39.2047 47.679C39.2549 47.4422 39.2537 47.1974 39.2009 46.9611C39.1482 46.7249 39.0453 46.5027 38.8991 46.3098C38.753 46.1168 38.5671 45.9576 38.3539 45.8428C38.1408 45.7281 37.9055 45.6605 37.6639 45.6447C37.4224 45.629 37.1803 45.6653 36.954 45.7514C36.7278 45.8374 36.5227 45.9711 36.3527 46.1435C36.1827 46.3158 36.0518 46.5226 35.9688 46.75C35.9455 46.8213 35.9081 46.8872 35.859 46.9439C35.8098 47.0006 35.7498 47.0468 35.6825 47.0799C35.6152 47.1131 35.542 47.1324 35.4671 47.1368C35.3922 47.1412 35.3172 47.1306 35.2465 47.1056C35.1758 47.0806 35.1108 47.0417 35.0553 46.9912C34.9999 46.9407 34.9551 46.8796 34.9236 46.8115C34.8921 46.7434 34.8745 46.6698 34.8719 46.5948C34.8693 46.5198 34.8817 46.4451 34.9084 46.375C35.0453 45.9948 35.2625 45.6486 35.5452 45.3599C35.8279 45.0712 36.1695 44.8468 36.5468 44.702C36.924 44.5572 37.328 44.4953 37.7313 44.5207C38.1346 44.5461 38.5277 44.6581 38.8838 44.849C39.2399 45.04 39.5507 45.3054 39.795 45.6273C40.0393 45.9492 40.2113 46.3199 40.2995 46.7143C40.3876 47.1086 40.3897 47.5173 40.3057 47.9126C40.2217 48.3078 40.0534 48.6803 39.8125 49.0047Z" fill="white"/>
</svg>
