<svg width="100" height="100" viewBox="0 0 100 100" fill="none" xmlns="http://www.w3.org/2000/svg">
<path d="M37.1105 26.8076C36.9221 26.8076 36.7345 26.8162 36.5475 26.8336C36.8656 25.9492 36.9653 25.0017 36.8381 24.0709C36.7109 23.1402 36.3607 22.2535 35.8168 21.4855C35.2729 20.7176 34.5514 20.0909 33.713 19.6584C32.8746 19.2258 31.9439 19 30.9995 19C30.055 19 29.1243 19.2258 28.2859 19.6584C27.4476 20.0909 26.726 20.7176 26.1821 21.4855C25.6383 22.2535 25.288 23.1402 25.1608 24.0709C25.0336 25.0017 25.1333 25.9492 25.4514 26.8336C25.2659 26.8162 25.0782 26.8076 24.8895 26.8076C23.9814 26.808 23.0857 27.0172 22.2723 27.4187C21.4589 27.8203 20.7498 28.4034 20.2005 29.1225C19.6511 29.8416 19.2763 30.6773 19.1054 31.5642C18.9344 32.4512 18.9719 33.3654 19.2149 34.2356C19.4579 35.1058 19.8998 35.9083 20.5062 36.5805C21.1126 37.2528 21.867 37.7766 22.7106 38.1109C23.5541 38.4453 24.464 38.5813 25.3691 38.5082C26.2742 38.4352 27.1501 38.155 27.9284 37.6897L26.8808 41.1622C26.8516 41.2595 26.8456 41.3621 26.8633 41.4621C26.8811 41.562 26.922 41.6564 26.983 41.7378C27.0439 41.8192 27.1232 41.8853 27.2144 41.9308C27.3056 41.9763 27.4062 42 27.5083 42H34.4917C34.5938 42 34.6944 41.9763 34.7856 41.9308C34.8768 41.8853 34.9561 41.8192 35.017 41.7378C35.078 41.6564 35.1189 41.562 35.1367 41.4621C35.1544 41.3621 35.1484 41.2595 35.1192 41.1622L34.0716 37.6897C34.8499 38.155 35.7258 38.4352 36.6309 38.5082C37.536 38.5813 38.4459 38.4453 39.2894 38.1109C40.133 37.7766 40.8874 37.2528 41.4938 36.5805C42.1002 35.9083 42.5421 35.1058 42.7851 34.2356C43.0281 33.3654 43.0656 32.4512 42.8946 31.5642C42.7237 30.6773 42.3489 29.8416 41.7995 29.1225C41.2502 28.4034 40.5411 27.8203 39.7277 27.4187C38.9143 27.0172 38.0186 26.808 37.1105 26.8076ZM37.1105 37.2252C36.3522 37.2261 35.6055 37.0393 34.9377 36.6819C34.2699 36.3244 33.7019 35.8075 33.2849 35.1775C33.1984 35.0476 33.0679 34.9529 32.9171 34.9105C32.7664 34.8682 32.6053 34.881 32.4632 34.9467C32.3212 35.0123 32.2075 35.1265 32.1428 35.2684C32.0781 35.4103 32.0668 35.5706 32.1108 35.7201L33.6123 40.6978H28.3877L29.8892 35.7234C29.9332 35.5738 29.9219 35.4136 29.8572 35.2716C29.7925 35.1297 29.6788 35.0156 29.5368 34.9499C29.3947 34.8843 29.2336 34.8714 29.0829 34.9138C28.9321 34.9562 28.8016 35.0509 28.7151 35.1808C28.2415 35.8942 27.5756 36.4607 26.7937 36.8157C26.0117 37.1707 25.1451 37.2998 24.2928 37.1883C23.4406 37.0768 22.6371 36.7292 21.974 36.1851C21.311 35.6411 20.8151 34.9226 20.5431 34.1116C20.2712 33.3007 20.234 32.43 20.4359 31.599C20.6378 30.7681 21.0706 30.0103 21.6849 29.4124C22.2992 28.8144 23.0702 28.4003 23.9099 28.2173C24.7496 28.0344 25.624 28.09 26.4335 28.3778C26.5633 28.4241 26.7045 28.4284 26.837 28.3901C26.9694 28.3518 27.0863 28.2729 27.171 28.1646C27.2557 28.0563 27.3038 27.9242 27.3085 27.7871C27.3133 27.65 27.2743 27.5149 27.1973 27.4012C26.7338 26.7153 26.4666 25.917 26.4242 25.0917C26.3817 24.2664 26.5657 23.4451 26.9565 22.7158C27.3472 21.9865 27.93 21.3766 28.6424 20.9513C29.3548 20.526 30.1702 20.3013 31.0011 20.3013C31.832 20.3013 32.6473 20.526 33.3598 20.9513C34.0722 21.3766 34.655 21.9865 35.0457 22.7158C35.4364 23.4451 35.6204 24.2664 35.578 25.0917C35.5356 25.917 35.2684 26.7153 34.8049 27.4012C34.7279 27.5149 34.6889 27.65 34.6936 27.7871C34.6984 27.9242 34.7465 28.0563 34.8312 28.1646C34.9158 28.2729 35.0328 28.3518 35.1652 28.3901C35.2976 28.4284 35.4389 28.4241 35.5687 28.3778C36.198 28.1531 36.8692 28.0681 37.535 28.1288C38.2009 28.1894 38.8453 28.3942 39.4232 28.7288C40.001 29.0634 40.4982 29.5197 40.8799 30.0656C41.2616 30.6116 41.5186 31.234 41.6328 31.8892C41.7469 32.5444 41.7156 33.2165 41.5409 33.8584C41.3662 34.5003 41.0524 35.0963 40.6214 35.6048C40.1905 36.1132 39.653 36.5218 39.0464 36.8017C38.4399 37.0816 37.7792 37.2262 37.1105 37.2252Z" fill="white"/>
<path d="M77.029 20.6211H63.4074C62.5607 20.6211 61.7486 20.9575 61.1499 21.5562C60.5512 22.1549 60.2148 22.9669 60.2148 23.8137V37.4353C60.2148 38.282 60.5512 39.094 61.1499 39.6928C61.7486 40.2915 62.5607 40.6278 63.4074 40.6278H77.029C77.8758 40.6278 78.6878 40.2915 79.2865 39.6928C79.8852 39.094 80.2216 38.282 80.2216 37.4353V23.8137C80.2216 22.9669 79.8852 22.1549 79.2865 21.5562C78.6878 20.9575 77.8758 20.6211 77.029 20.6211ZM78.9446 37.4353C78.9446 37.9433 78.7428 38.4305 78.3835 38.7898C78.0243 39.149 77.5371 39.3508 77.029 39.3508H63.4074C62.8994 39.3508 62.4122 39.149 62.0529 38.7898C61.6937 38.4305 61.4919 37.9433 61.4919 37.4353V23.8137C61.4919 23.3056 61.6937 22.8184 62.0529 22.4592C62.4122 22.0999 62.8994 21.8981 63.4074 21.8981H77.029C77.5371 21.8981 78.0243 22.0999 78.3835 22.4592C78.7428 22.8184 78.9446 23.3056 78.9446 23.8137V37.4353ZM67.4513 26.7934C67.4513 27.0039 67.3889 27.2096 67.272 27.3846C67.155 27.5596 66.9888 27.696 66.7944 27.7766C66.5999 27.8571 66.386 27.8782 66.1795 27.8371C65.9731 27.7961 65.7835 27.6947 65.6346 27.5459C65.4858 27.3971 65.3845 27.2074 65.3434 27.001C65.3023 26.7946 65.3234 26.5806 65.404 26.3861C65.4845 26.1917 65.6209 26.0255 65.7959 25.9085C65.9709 25.7916 66.1767 25.7292 66.3871 25.7292C66.6694 25.7292 66.9401 25.8413 67.1396 26.0409C67.3392 26.2405 67.4513 26.5112 67.4513 26.7934ZM71.2824 30.6245C71.2824 30.8349 71.22 31.0407 71.1031 31.2157C70.9861 31.3907 70.8199 31.5271 70.6255 31.6077C70.431 31.6882 70.217 31.7093 70.0106 31.6682C69.8042 31.6272 69.6146 31.5258 69.4657 31.377C69.3169 31.2281 69.2155 31.0385 69.1745 30.8321C69.1334 30.6257 69.1545 30.4117 69.235 30.2172C69.3156 30.0228 69.452 29.8566 69.627 29.7396C69.802 29.6227 70.0077 29.5603 70.2182 29.5603C70.5005 29.5603 70.7711 29.6724 70.9707 29.872C71.1703 30.0716 71.2824 30.3422 71.2824 30.6245ZM75.1135 26.7934C75.1135 27.0039 75.0511 27.2096 74.9341 27.3846C74.8172 27.5596 74.651 27.696 74.4565 27.7766C74.2621 27.8571 74.0481 27.8782 73.8417 27.8371C73.6353 27.7961 73.4456 27.6947 73.2968 27.5459C73.148 27.3971 73.0466 27.2074 73.0056 27.001C72.9645 26.7946 72.9856 26.5806 73.0661 26.3861C73.1467 26.1917 73.2831 26.0255 73.4581 25.9085C73.6331 25.7916 73.8388 25.7292 74.0493 25.7292C74.3315 25.7292 74.6022 25.8413 74.8018 26.0409C75.0014 26.2405 75.1135 26.5112 75.1135 26.7934ZM67.4513 34.4556C67.4513 34.666 67.3889 34.8718 67.272 35.0468C67.155 35.2218 66.9888 35.3582 66.7944 35.4387C66.5999 35.5193 66.386 35.5404 66.1795 35.4993C65.9731 35.4582 65.7835 35.3569 65.6346 35.208C65.4858 35.0592 65.3845 34.8696 65.3434 34.6632C65.3023 34.4567 65.3234 34.2428 65.404 34.0483C65.4845 33.8539 65.6209 33.6876 65.7959 33.5707C65.9709 33.4538 66.1767 33.3914 66.3871 33.3914C66.6694 33.3914 66.9401 33.5035 67.1396 33.7031C67.3392 33.9026 67.4513 34.1733 67.4513 34.4556ZM75.1135 34.4556C75.1135 34.666 75.0511 34.8718 74.9341 35.0468C74.8172 35.2218 74.651 35.3582 74.4565 35.4387C74.2621 35.5193 74.0481 35.5404 73.8417 35.4993C73.6353 35.4582 73.4456 35.3569 73.2968 35.208C73.148 35.0592 73.0466 34.8696 73.0056 34.6632C72.9645 34.4567 72.9856 34.2428 73.0661 34.0483C73.1467 33.8539 73.2831 33.6876 73.4581 33.5707C73.6331 33.4538 73.8388 33.3914 74.0493 33.3914C74.3315 33.3914 74.6022 33.5035 74.8018 33.7031C75.0014 33.9026 75.1135 34.1733 75.1135 34.4556Z" fill="white"/>
<path d="M41.2105 62.7502C40.0658 61.6362 38.5151 61.0099 36.8979 61.0083C35.2808 61.0068 33.7288 61.63 32.5818 62.7417L31.0027 64.1751L29.4235 62.7417C28.2774 61.6255 26.7235 60.999 25.1037 61C23.4839 61.001 21.9308 61.6294 20.7861 62.747C19.6415 63.8645 18.999 65.3797 19 66.9592C19.001 68.5387 19.6455 70.0531 20.7916 71.1692L30.537 80.8102C30.5979 80.8703 30.6704 80.9181 30.7503 80.9506C30.8302 80.9832 30.916 81 31.0027 81C31.0893 81 31.1751 80.9832 31.255 80.9506C31.335 80.9181 31.4075 80.8703 31.4683 80.8102L41.2105 71.1735C41.7778 70.6205 42.2279 69.9639 42.5349 69.2412C42.842 68.5186 43 67.744 43 66.9618C43 66.1796 42.842 65.4051 42.5349 64.6824C42.2279 63.9598 41.7778 63.3032 41.2105 62.7502ZM40.2813 70.2738L31.0027 79.4533L21.7208 70.2707C20.8261 69.3922 20.325 68.2037 20.3271 66.9657C20.3293 65.7276 20.8346 64.5408 21.7323 63.6653C22.63 62.7898 23.847 62.2969 25.1167 62.2946C26.3864 62.2923 27.6053 62.7808 28.5063 63.653C28.5116 63.6585 28.5175 63.6635 28.5238 63.6679L30.5566 65.514C30.6777 65.624 30.8371 65.6852 31.0027 65.6852C31.1682 65.6852 31.3276 65.624 31.4487 65.514L33.4815 63.6668C33.4879 63.6624 33.4937 63.6575 33.499 63.6519C33.9443 63.2152 34.4736 62.8684 35.0566 62.6316C35.6396 62.3947 36.2648 62.2724 36.8964 62.2717C37.5279 62.2709 38.1534 62.3918 38.737 62.6273C39.3206 62.8628 39.8508 63.2083 40.2971 63.644C40.7434 64.0797 41.0972 64.597 41.338 65.1664C41.5789 65.7357 41.7021 66.3457 41.7006 66.9616C41.6992 67.5774 41.573 68.1869 41.3295 68.7551C41.0859 69.3234 40.7297 69.8391 40.2813 70.2728V70.2738Z" fill="white"/>
<path d="M81.579 68.469L71.533 58.4246C71.2588 58.1526 70.8881 58 70.5018 58C70.1156 58 69.7449 58.1526 69.4707 58.4246L59.4247 68.469C59.1527 68.7432 59 69.1138 59 69.5C59 69.8862 59.1527 70.2568 59.4247 70.531L69.4707 80.5754C69.7449 80.8474 70.1156 81 70.5018 81C70.8881 81 71.2588 80.8474 71.533 80.5754L81.5727 70.531C81.7082 70.3956 81.8156 70.2349 81.8889 70.058C81.9623 69.8811 82 69.6915 82 69.5C82 69.3085 81.9623 69.1189 81.8889 68.942C81.8156 68.7651 81.7082 68.6044 81.5727 68.469H81.579ZM80.6911 69.6443L70.6462 79.6887C70.6073 79.7257 70.5556 79.7464 70.5018 79.7464C70.4481 79.7464 70.3964 79.7257 70.3575 79.6887L60.3126 69.6443C60.2755 69.6054 60.2548 69.5537 60.2548 69.5C60.2548 69.4463 60.2755 69.3946 60.3126 69.3557L70.3575 59.3113C70.3964 59.2743 70.4481 59.2536 70.5018 59.2536C70.5556 59.2536 70.6073 59.2743 70.6462 59.3113L80.6911 69.3557C80.7282 69.3946 80.7489 69.4463 80.7489 69.5C80.7489 69.5537 80.7282 69.6054 80.6911 69.6443Z" fill="white"/>
<path d="M86 7C86 7 15.8565 7 14 7C12.1435 7 10.363 7.7375 9.05025 9.05025C7.7375 10.363 7 12.1435 7 14V86C7 87.8565 7.7375 89.637 9.05025 90.9498C10.363 92.2625 12.1435 93 14 93H86C87.8565 93 89.637 92.2625 90.9498 90.9498C92.2625 89.637 93 87.8565 93 86V14C93 12.1435 92.2625 10.363 90.9498 9.05025C89.637 7.7375 87.8565 7 86 7ZM89 12V47H52V11H88C88.2652 11 88.5196 11.1054 88.7071 11.2929C88.8946 11.4804 89 11.7348 89 12ZM12 11H49V47H11V12C11 11.7348 11.1054 11.4804 11.2929 11.2929C11.4804 11.1054 11.7348 11 12 11ZM11 88V51H49V89H12C11.7348 89 11.4804 88.8946 11.2929 88.7071C11.1054 88.5196 11 88.2652 11 88ZM88 89H52V51H89V88C89 88.2652 88.8946 88.5196 88.7071 88.7071C88.5196 88.8946 88.2652 89 88 89Z" fill="white"/>
</svg>
