<svg width="100" height="100" viewBox="0 0 100 100" fill="none" xmlns="http://www.w3.org/2000/svg">
<path d="M24.3081 31.4199V43.2899H16.8881V48.0099H4.32812V31.4199H24.3081Z" stroke="white" stroke-width="4" stroke-miterlimit="10"/>
<path d="M40.7998 45.3809C38.1898 49.4809 35.2798 55.0009 33.0298 61.9009C30.2298 70.4809 29.5198 78.7509 29.4298 84.1309H15.0898C15.7798 77.5409 17.4398 68.1109 21.3698 58.5409C23.4598 53.4709 25.8298 49.0909 28.0998 45.3909H40.7998V45.3809Z" stroke="white" stroke-width="4" stroke-miterlimit="10"/>
<path d="M95.2313 31.4202V44.1902C92.4613 48.3802 89.1913 54.3102 86.7213 61.8902C83.9213 70.4702 83.2113 78.7402 83.1213 84.1202H68.7812C69.4712 77.5302 71.1312 68.1002 75.0612 58.5302C77.5512 52.4602 80.4413 47.3702 83.1213 43.2902H72.6012C73.2412 42.2002 73.8812 41.1802 74.5212 40.2302V31.4102H95.2313V31.4202Z" stroke="white" stroke-width="4" stroke-miterlimit="10"/>
<path d="M74.5303 22.9905L74.5203 40.2302C73.8803 41.1802 73.2403 42.2002 72.6003 43.2902C71.9403 44.3802 71.2703 45.5202 70.5903 46.7302C70.3503 47.1602 70.1403 47.5802 69.9003 48.0102C67.4603 52.5602 65.0403 57.9402 63.0303 64.1502C59.2903 75.7102 58.3103 86.8802 58.2003 94.1302H38.8403C39.7603 85.2402 41.9903 72.5202 47.3003 59.6002C50.6403 51.5202 54.4603 44.7402 58.0303 39.2902C58.0803 39.2002 58.1503 39.1202 58.2003 39.0302H41.2603V44.6502C41.0903 44.8902 40.9503 45.1202 40.8103 45.3802H24.3203V22.9902L74.5303 22.9905Z" stroke="white" stroke-width="4" stroke-miterlimit="10"/>
</svg>
