<svg width="100" height="100" viewBox="0 0 100 100" fill="none" xmlns="http://www.w3.org/2000/svg">
<path d="M95 19.1736V37.8264L68.9382 51H32.0618L6 37.8264V19.1736L32.0618 6H68.9382L95 19.1736Z" stroke="white" stroke-width="4" stroke-miterlimit="10"/>
<path d="M95 38V50.782L68.9382 64H32.0618L6 50.782V38L32.0618 51.1982H68.9382L95 38Z" stroke="white" stroke-width="4" stroke-miterlimit="10"/>
<path d="M68 29.6382C67.7438 30.3916 67.5763 31.1649 67.2314 31.8885C64.8959 36.6766 58.2443 38.005 53.7606 35.8935C53.6916 35.8637 53.6128 35.8538 53.4847 35.8241V40.1859C54.2435 40.1859 54.9924 40.1859 55.7413 40.1859C57.2293 40.2057 58.3133 41.0285 58.2936 42.119C58.2739 43.1896 57.2096 43.9926 55.7512 43.9926C52.5978 44.0025 49.4346 44.0025 46.2812 43.9926C44.7933 43.9926 43.7093 43.1499 43.729 42.0694C43.7487 41.0087 44.8228 40.2057 46.2615 40.1859C47.0105 40.1859 47.7594 40.1859 48.5379 40.1859V35.834C48.3901 35.8736 48.2521 35.9034 48.124 35.953C42.7928 38.114 36.6044 36.1413 34.6631 31.6605C33.2638 28.4189 34.1408 25.4945 36.7128 22.818C38.792 20.6569 41.3935 18.9022 43.9852 17.1476C45.759 15.9481 47.5327 14.7387 49.3262 13.5491C50.4102 12.8354 51.573 12.8056 52.6274 13.5293C56.1749 15.9679 59.752 18.3967 63.1813 20.9344C65.3788 22.5602 67.0934 24.4933 67.7438 26.8824C67.8128 27.1302 67.9015 27.3681 67.9803 27.606V29.6382H68Z" stroke="white" stroke-width="3" stroke-miterlimit="10"/>
<path d="M55.99 83.515C55.99 83.7144 55.99 83.9338 55.97 84.1333C55.65 86.8658 53.33 89 50.5 89C47.67 89 45.39 86.9057 45.05 84.233C45.03 84.0136 45 83.7643 45 83.515C45 82.2883 45.39 81.1514 46.06 80.2638C47.07 78.8876 48.67 78 50.5 78C52.33 78 54 78.9075 54.99 80.3336C55.63 81.2212 56 82.3282 56 83.505L55.99 83.515Z" stroke="white" stroke-width="4" stroke-miterlimit="10"/>
<path d="M40 72V64" stroke="white" stroke-width="4" stroke-miterlimit="10"/>
<path d="M44.9166 83.0643C44.9166 83.3193 44.9368 83.5642 44.9672 83.7988C44.542 84.9006 44.2686 85.5842 43.7218 86.2167C41.2209 89.0733 37.2112 92.5828 33.5155 93.6744C31.6626 94.2253 29.5464 94.1233 27.9668 93.0113C22.5802 89.2569 29.759 84.2681 31.6828 81.0137C33.2219 78.4121 34.6394 74.0253 37.3732 72.4337C38.406 71.8318 39.7021 71.9236 40.8361 72.3011C44.3192 73.4437 45.7874 76.2595 46 79.7486C45.3216 80.6566 44.9267 81.8094 44.9267 83.0745L44.9166 83.0643Z" stroke="white" stroke-width="4" stroke-miterlimit="10"/>
<path d="M57.0292 83.0643C57.0292 83.3193 57.01 83.5642 56.9811 83.7988C57.3851 84.9006 57.6449 85.5842 58.1643 86.2167C60.5402 89.0733 64.3493 92.5828 67.8603 93.6744C69.6206 94.2253 71.6309 94.1233 73.1315 93.0113C78.2488 89.2569 71.4289 84.2681 69.6013 81.0137C68.1392 78.4121 66.7926 74.0253 64.1954 72.4337C63.2143 71.8318 61.983 71.9236 60.9057 72.3011C57.5968 73.4437 56.202 76.2595 56 79.7486C56.6445 80.6566 57.0196 81.8094 57.0196 83.0745L57.0292 83.0643Z" stroke="white" stroke-width="4" stroke-miterlimit="10"/>
<path d="M60 72V64" stroke="white" stroke-width="4" stroke-miterlimit="10"/>
</svg>
