<svg width="22" height="22" viewBox="0 0 22 22" fill="none" xmlns="http://www.w3.org/2000/svg">
<path fill-rule="evenodd" clip-rule="evenodd" d="M11 22C17.0751 22 22 17.0751 22 11C22 4.92487 17.0751 0 11 0C4.92487 0 0 4.92487 0 11C0 17.0751 4.92487 22 11 22ZM8.48921 14.0963V21.7046H12.2069L12.2442 14.075H15.4507L15.9657 10.9878H12.2666V8.73489C12.2666 7.88647 12.572 7.37314 13.7567 7.37314H15.9657V4.5213C15.1316 4.43822 14.4462 4.39776 13.6076 4.4001C10.0389 4.4001 8.48921 6.3037 8.48921 8.37128V11.0021H5.86667V14.0963H8.48921Z" fill="#FFB80C"/>
</svg>
