<?xml version="1.0" encoding="UTF-8"?>
<svg viewBox="0 0 15 15" version="1.1" xmlns="http://www.w3.org/2000/svg" xmlns:xlink="http://www.w3.org/1999/xlink">
    <title>Combined Shape</title>
    <g id="首頁" stroke="none" stroke-width="1" fill="none" fill-rule="evenodd">
        <g id="LeftMenu_未登入" transform="translate(-36.000000, -127.000000)" fill="#FFD259">
            <g id="theme-icon/login_w" transform="translate(36.625000, 127.000000)">
                <path d="M10.1302841,0 C10.9387617,0 11.5941624,0.666070095 11.5941624,1.4877092 L11.5941624,1.4877092 L11.5941624,3.43173256 L10.4962536,3.43173256 L10.4962536,1.4877092 C10.4962536,1.28229942 10.3324035,1.1157819 10.1302841,1.1157819 L10.1302841,1.1157819 L3.25374637,1.1157819 L6.25223664,1.95965056 C6.9472713,2.28157083 7.4085775,2.49410071 7.4085775,3.3004641 L7.4085775,3.3004641 L7.4085775,11.982935 L10.1302841,11.982935 C10.3324035,11.982935 10.4962536,11.8164175 10.4962536,11.6110077 L10.4962536,11.6110077 L10.4962536,9.66698434 L11.5941624,9.66698434 L11.5941624,11.6110077 C11.5924664,12.431426 10.9375622,13.0955933 10.1302841,13.0955915 L10.1302841,13.0955915 L7.4085775,13.0955915 L7.40847823,13.5897381 C7.38911827,13.9823549 7.23695355,14.3582017 6.97494968,14.6520603 C6.7335043,14.8874163 6.40814966,15.0126801 6.07386491,14.9989841 L6.07386491,14.9989841 L5.9416238,14.9989841 L1.24245135,13.0893406 L1.19632073,13.0549607 L1.11636099,12.9987028 C0.584321181,12.7767966 0,12.4705036 0,11.6110077 L0,11.6110077 L0,1.4877092 C0,0.666070095 0.655400651,0 1.46387833,0 L1.46387833,0 Z M5.41265936,6.9728555 C5.00670991,6.9728555 4.69917244,7.51043109 4.69917244,8.16989882 C4.69917244,8.82936656 5.01901141,9.36381671 5.41265936,9.36381671 C5.5876244,9.3536318 5.74793496,9.26119475 5.84628718,9.11378155 C5.92096171,9.03907339 5.97413235,8.94505037 6.00005592,8.84186831 C6.08261716,8.62783231 6.1243641,8.39978963 6.1230709,8.16989882 C6.1230709,7.51043109 5.81860881,6.9728555 5.41265936,6.9728555 Z M10.9852382,4.46625303 C11.0905812,4.36666676 11.2435507,4.33907807 11.3761862,4.39569187 C11.5088218,4.45230568 11.5965178,4.58263976 11.6003131,4.72878995 L11.6003131,4.72878995 L11.6003131,5.30387081 L13.3840304,5.30387081 C13.5861498,5.30387081 13.75,5.47038834 13.75,5.67579811 L13.75,5.67579811 L13.75,7.42291879 C13.75,7.62832856 13.5861498,7.79484609 13.3840304,7.79484609 L13.3840304,7.79484609 L11.6003131,7.79484609 L11.6003131,8.38242871 C11.5971875,8.52588201 11.5117961,8.65422075 11.3819615,8.71059986 C11.3388555,8.73182895 11.2914658,8.74253142 11.2435697,8.7418845 C11.1467337,8.74094099 11.0540625,8.70169939 10.9852382,8.63246387 L10.9852382,8.63246387 L9.19537016,6.81345809 C9.12606854,6.74362013 9.08708596,6.64854362 9.08708596,6.54935845 C9.08708596,6.45017328 9.12606854,6.35509677 9.19537016,6.28525881 L9.19537016,6.28525881 Z" id="Combined-Shape"></path>
            </g>
        </g>
    </g>
</svg>