<?xml version="1.0" encoding="UTF-8"?>
<svg viewBox="0 0 30 30" version="1.1" xmlns="http://www.w3.org/2000/svg" xmlns:xlink="http://www.w3.org/1999/xlink">
    <title>leftmenu/other/icon-logout</title>
    <defs>
        <linearGradient x1="50%" y1="1.33055874e-13%" x2="50%" y2="104.53891%" id="linearGradient-1">
            <stop stop-color="#2254BA" stop-opacity="0.7" offset="0%"></stop>
            <stop stop-color="#2254BA" stop-opacity="0.995478029" offset="100%"></stop>
            <stop stop-color="#FFFFFF" offset="100%"></stop>
            <stop stop-color="#2254BA" stop-opacity="0.995478029" offset="100%"></stop>
        </linearGradient>
        <path d="M20.6819503,2 C22.0931114,2 23.2370834,3.1545215 23.2370834,4.57869594 L23.2370834,7.94833644 L21.3207336,7.94833644 L21.3207336,4.57869594 C21.3207336,4.22265233 21.0347406,3.93402196 20.6819503,3.93402196 L8.67926638,3.93402196 L13.9129949,5.39672764 C15.1261463,5.95472277 15.9313353,6.3231079 15.9313353,7.72080444 L15.9313353,22.7704207 L20.6819503,22.7704207 C21.0347406,22.7704207 21.3207336,22.4817903 21.3207336,22.1257467 L21.3207336,18.7561062 L23.2370834,18.7561062 L23.2370834,22.1257467 C23.2341232,23.547805 22.0910177,24.6990283 20.6819503,24.6990252 L15.9313353,24.6990252 L15.9313353,25.2624378 C15.9693422,26.047048 15.6971043,26.8147846 15.1744576,27.3969046 C14.7530257,27.8048549 14.1851339,28.0219788 13.6016551,27.9982391 L13.3708343,27.9982391 L5.16864236,24.6881903 L5.08812346,24.6285986 L4.94855737,24.5310849 C4.01990606,24.1464475 3,23.6155395 3,22.1257467 L3,4.57869594 C3,3.1545215 4.14397205,2 5.55513308,2 Z M12.4475509,14.0862829 C11.7389846,14.0862829 11.2021919,15.0180806 11.2021919,16.161158 C11.2021919,17.3042354 11.7604563,18.2306156 12.4475509,18.2306156 C12.7529444,18.2129618 13.0327592,18.0527376 13.2044285,17.7972214 C13.3347695,17.6677272 13.4275765,17.504754 13.4728249,17.3259051 C13.6169318,16.9549093 13.6897992,16.5596354 13.6875419,16.161158 C13.6875419,15.0180806 13.1561172,14.0862829 12.4475509,14.0862829 Z M23.2359557,9.56888905 C23.4049784,9.57052447 23.5667318,9.63854324 23.6868615,9.75855147 L26.8109949,12.9114948 C26.9319577,13.0325473 27,13.1973466 27,13.3692675 C27,13.5411885 26.9319577,13.7059878 26.8109949,13.8270402 L23.6868615,16.9799836 C23.5029902,17.1525998 23.2359889,17.2004202 23.0044795,17.1022896 C22.7729702,17.004159 22.6199008,16.7782466 22.6132762,16.5249196 L22.6132762,15.5281128 L19.4998788,15.5281128 C19.1470885,15.5281128 18.8610955,15.2394824 18.8610955,14.8834388 L18.8610955,11.8550963 C18.8610955,11.4990527 19.1470885,11.2104223 19.4998788,11.2104223 L22.6132762,11.2104223 L22.6132762,10.1919457 C22.6187319,9.94329336 22.7677786,9.72083954 22.994399,9.62311576 C23.0696387,9.58631866 23.1523552,9.56776772 23.2359557,9.56888905 Z" id="path-2"></path>
        <filter x="-16.7%" y="-7.7%" width="133.3%" height="130.8%" filterUnits="objectBoundingBox" id="filter-3">
            <feOffset dx="0" dy="2" in="SourceAlpha" result="shadowOffsetOuter1"></feOffset>
            <feGaussianBlur stdDeviation="1" in="shadowOffsetOuter1" result="shadowBlurOuter1"></feGaussianBlur>
            <feColorMatrix values="0 0 0 0 0   0 0 0 0 0   0 0 0 0 0  0 0 0 0.05 0" type="matrix" in="shadowBlurOuter1"></feColorMatrix>
        </filter>
    </defs>
    <g id="leftmenu/other/icon-logout" stroke="none" stroke-width="1" fill="none" fill-rule="evenodd">
        <g id="Combined-Shape">
            <use fill="black" fill-opacity="1" filter="url(#filter-3)" xlink:href="#path-2"></use>
            <use fill="url(#linearGradient-1)" fill-rule="evenodd" xlink:href="#path-2"></use>
        </g>
    </g>
</svg>
