<?xml version="1.0" encoding="UTF-8"?>
<svg id="Layer_1" data-name="Layer 1" xmlns="http://www.w3.org/2000/svg" xmlns:xlink="http://www.w3.org/1999/xlink" viewBox="0 0 100 100">
  <defs>
    <style>
      .cls-1 {
        fill: url(#Degradado_sin_nombre_8);
      }

      .cls-1, .cls-2, .cls-3 {
        stroke-width: 0px;
      }

      .cls-2, .cls-3 {
        fill: #fff;
      }

      .cls-3 {
        fill-rule: evenodd;
      }
    </style>
    <linearGradient id="Degradado_sin_nombre_8" data-name="Degradado sin nombre 8" x1="21.72" y1="21.72" x2="78.28" y2="78.28" gradientUnits="userSpaceOnUse">
      <stop offset="0" stop-color="#00fb73"/>
      <stop offset="1" stop-color="#00b25b"/>
    </linearGradient>
  </defs>
  <circle class="cls-1" cx="50" cy="50" r="40"/>
  <g>
    <path class="cls-2" d="M29.4,70.65l2.96-11.05c-1.68-3.02-2.56-6.41-2.56-9.85,0-11.25,9.15-20.39,20.39-20.39s20.4,9.15,20.4,20.39-9.15,20.4-20.4,20.4c-3.38,0-6.71-.85-9.69-2.47l-11.1,2.97ZM41.06,63.53l.7.42c2.57,1.53,5.49,2.34,8.44,2.34,9.12,0,16.54-7.42,16.54-16.54s-7.42-16.54-16.54-16.54-16.54,7.42-16.54,16.54c0,3.01.84,5.98,2.42,8.58l.43.7-1.65,6.17,6.2-1.66Z"/>
    <path class="cls-3" d="M57.79,52.58c-.84-.5-1.93-1.06-2.92-.66-.76.31-1.24,1.5-1.73,2.1-.25.31-.55.36-.94.2-2.85-1.13-5.03-3.04-6.6-5.66-.27-.41-.22-.73.1-1.11.47-.56,1.07-1.19,1.2-1.95.13-.75-.22-1.63-.54-2.3-.4-.86-.84-2.08-1.7-2.56-.79-.45-1.83-.2-2.53.38-1.21.99-1.8,2.54-1.78,4.07,0,.44.06.87.16,1.29.25,1.01.71,1.96,1.24,2.86.4.68.83,1.34,1.29,1.97,1.52,2.07,3.42,3.87,5.61,5.21,1.1.67,2.28,1.26,3.5,1.66,1.37.45,2.59.92,4.07.64,1.55-.29,3.08-1.25,3.69-2.75.18-.44.27-.94.17-1.4-.21-.97-1.52-1.54-2.3-2.01Z"/>
  </g>
</svg>