<svg width="120" height="120" viewBox="0 0 120 120" fill="none" xmlns="http://www.w3.org/2000/svg">
<g clip-path="url(#clip0_773_301)">
<path d="M36.7846 19.9989C46.1424 14.1348 57.4002 11.9453 68.4307 13.8441C79.4612 15.7429 89.5005 21.5985 96.6518 30.3045C103.803 39.0105 107.571 49.964 107.244 61.0953C106.917 72.2266 102.517 82.7649 94.8757 90.7189C94.5839 91.0224 94.2919 91.3261 93.9996 91.6302C93.6576 92.9421 93.2436 94.2329 92.7596 95.4966C92.4731 96.2086 92.1649 96.8999 91.8416 97.5903C101.852 89.6971 108.236 78.0917 109.593 65.3183C110.951 52.5449 107.171 39.6455 99.0835 29.4479C90.9955 19.2503 79.2589 12.5865 66.4465 10.9171C53.6341 9.24778 40.7912 12.7092 30.733 20.5425C32.7146 20.1165 34.7461 19.9347 36.7823 20.0013L36.7846 19.9989Z" fill="white"/>
<path d="M21.4449 82.6894C15.9161 74.7888 13.0127 65.3616 13.1491 55.7534C12.0271 54.031 11.1279 52.1744 10.4733 50.2283C9.59806 57.1555 10.2246 64.2004 12.3103 70.8851C14.3961 77.5699 17.8923 83.7381 22.5618 88.9716C22.0009 86.9149 21.6277 84.8128 21.4469 82.6913L21.4449 82.6894Z" fill="#EBC700"/>
<path d="M70.0856 102.652C60.6039 104.409 50.8213 103.143 42.1339 99.0361C40.1014 99.3432 38.0391 99.3919 35.9967 99.1809C41.938 102.849 48.6088 105.199 55.5568 106.072C62.5047 106.945 69.5673 106.32 76.2656 104.24C74.1614 103.898 72.0938 103.366 70.0881 102.651L70.0856 102.652Z" fill="#EBC700"/>
<path fill-rule="evenodd" clip-rule="evenodd" d="M41.8509 79.7368C36.5715 85.8355 36.3449 86.1634 37.0154 86.7648C37.6855 87.366 37.988 87.1062 43.4789 81.1973L49.1673 74.998L47.3983 73.4111L41.8509 79.7368ZM49.9447 81.2508C48.0471 83.3662 47.6103 84.3927 48.3303 85.0386L48.3318 85.0368C48.4287 85.1217 48.5348 85.1958 48.6481 85.257C49.3063 85.6558 49.7582 85.3715 51.8702 83.2306C53.2899 81.7847 54.2717 80.4323 54.313 79.8666C54.3442 79.6762 54.3342 79.4811 54.2833 79.295C54.2324 79.1088 54.1422 78.9361 54.0185 78.788C53.3813 78.2164 51.8202 79.1601 49.9447 81.2508ZM37.2419 74.8372C37.3388 75.0232 37.467 75.1912 37.6209 75.3337L37.6224 75.3319C37.7337 75.4453 37.8725 75.5277 38.0253 75.5711C38.178 75.6144 38.3399 75.6175 38.4941 75.5795C38.9626 75.4487 39.9924 74.5332 41.1159 73.2616C42.2395 71.9899 43.0658 70.8031 43.22 70.2391C43.383 69.5278 43.3373 69.0342 43.0896 68.812C42.8034 68.5552 42.2749 68.6526 41.5612 69.0922C40.6097 69.734 39.7501 70.5024 39.0059 71.3762C38.3152 72.0723 37.6996 72.8391 37.1694 73.664C37.061 73.8439 37.0101 74.0527 37.023 74.2623C37.036 74.4719 37.1123 74.672 37.2419 74.8372ZM34.0973 57.8451C34.149 57.9368 34.2165 58.0188 34.2965 58.0874L34.298 58.0857C35.0767 58.7842 37.5018 59.2134 41.9201 59.4402C44.3916 59.5437 46.2658 59.6926 46.3783 59.7935C46.3801 59.7948 46.3817 59.7966 46.3826 59.7986C46.3834 59.8005 46.3835 59.8027 46.3832 59.8048C46.244 60.406 46.0701 60.999 45.8629 61.5804L45.786 61.8219C45.0711 64.105 45.4932 64.6883 52.2273 70.7292L57.3575 75.3314L60.3703 75.0328L63.419 74.7665L63.6169 77.1789C64.0326 81.7757 64.7284 85.0239 65.4317 85.6549C65.461 85.6816 65.4932 85.7049 65.5276 85.7246C65.8652 85.9305 66.1943 85.8755 67.152 85.0106C68.1258 84.1295 69.7213 82.4387 72.7155 79.2106C79.0159 72.3339 79.1375 72.2006 79.8688 69.6002C80.2203 68.4627 80.3841 67.2754 80.3555 66.0853C80.2553 64.3733 80.0265 62.6716 79.6711 60.994C79.3909 59.5346 79.6256 58.8384 81.2358 56.3317C83.2573 53.2227 84.859 49.86 85.999 46.3312C87.0489 43.1023 87.5744 39.7261 87.5558 36.3309C87.5307 34.0199 87.219 31.8783 86.8596 31.5558C86.3964 31.1404 84.7184 30.9869 82.3727 31.1468C80.1873 31.2784 78.0243 31.6596 75.9257 32.2832C73.4552 33.1339 71.0639 34.1986 68.7786 35.4653C66.5309 36.6567 64.3932 38.0456 62.391 39.6149C60.8452 40.9024 59.4497 41.8931 59.2147 41.8738C59.1102 41.865 58.8151 41.8206 58.4051 41.7587L58.361 41.7522L58.2957 41.7423C57.8335 41.6723 57.1658 41.5712 56.5001 41.4827C54.9017 41.2506 53.2755 41.2866 51.6888 41.5883C50.1545 41.8431 48.6798 42.3751 47.3365 43.159C45.9649 43.984 42.4424 47.5786 39.5571 50.7786C36.6719 53.9786 33.8647 57.4053 34.0973 57.8451ZM58.2531 65.9675L58.2692 65.982L58.2714 65.9796C59.4545 66.9976 60.5758 68.086 61.629 69.2379C62.3167 70.038 62.5862 70.5875 62.5094 71.0147C62.4326 71.442 62.0114 71.7647 61.059 72.1325C60.239 72.4418 59.3617 72.5698 58.4876 72.5077C57.9698 72.3452 55.6783 70.6261 53.2168 68.418C49.3737 64.9705 48.9247 64.44 48.863 63.2353C48.8165 62.5084 49.0143 61.7868 49.425 61.1853C49.732 60.864 50.0174 60.5222 50.2787 60.1627C50.4056 60.0212 50.945 60.1223 51.5362 60.3972C52.0726 60.6926 54.6431 62.7979 57.3857 65.1944C57.7427 65.5096 58.0181 65.7567 58.2531 65.9675ZM76.604 63.3453C76.9234 63.1338 77.163 63.1072 77.3399 63.2659L77.3404 63.2626C77.6029 63.4981 77.7353 64.1552 77.7557 65.3369C77.8125 69.4923 77.5266 70.0774 72.6679 75.7783C69.7058 79.2305 68.3217 80.7498 67.4987 80.8039C67.4213 80.8103 67.3437 80.8003 67.2703 80.7748C67.1969 80.7494 67.1296 80.7087 67.0729 80.6557C66.5871 80.2199 66.394 78.8071 66.154 76.703C65.922 74.8896 65.8063 73.9151 65.9333 73.2482C66.0604 72.5812 66.4483 72.2184 67.1245 71.6354C67.9305 70.9504 70.2798 68.9005 72.3278 67.0445C74.3759 65.1885 76.3085 63.5323 76.604 63.3453ZM54.7442 43.7961C55.097 43.7842 55.4448 43.8833 55.7384 44.0794L55.739 44.0787C56.1572 44.4538 55.7935 45.2475 54.4437 46.9087C52.9675 48.7754 51.6009 50.7258 50.3512 52.7512L48.0606 56.4432L45.9693 56.3555C42.1104 56.2653 40.377 56.0848 39.9878 55.7357C39.9634 55.7159 39.9427 55.6914 39.9277 55.6637C39.9127 55.636 39.9037 55.6057 39.9005 55.5744C39.8863 55.312 41.7163 53.0526 44.065 50.4344C48.1127 45.9223 48.4638 45.702 51.0257 44.7381C52.577 44.1726 54.21 43.7587 54.7442 43.7961ZM80.8333 33.9319C82.5918 33.6756 83.5373 33.776 84.0956 34.2769C84.897 34.9964 84.9303 36.6068 84.7177 39.1401C84.517 41.3142 84.1698 43.0155 83.8935 43.1897C83.5214 43.391 80.4088 40.999 77.8741 38.7252C76.18 37.2055 75.1972 36.1453 75.1802 35.8197C75.1604 35.4431 75.5597 35.1324 76.44 34.8366C77.8791 34.4223 79.3475 34.1196 80.8333 33.9319ZM63.8281 50.1324C64.5843 48.2298 66.603 47.0649 68.6914 47.4551C71.0641 47.8984 72.6282 50.1813 72.1848 52.554C71.7415 54.9267 69.4586 56.4908 67.0859 56.0475C66.0791 55.8594 65.2179 55.34 64.5939 54.6232C63.7473 53.6506 63.3372 52.3145 63.5925 50.9486C63.6456 50.6642 63.7251 50.3915 63.8281 50.1324Z" fill="white"/>
</g>
<defs>
<clipPath id="clip0_773_301">
<rect width="120" height="120" fill="white"/>
</clipPath>
</defs>
</svg>
