<svg width="120" height="120" viewBox="0 0 120 120" fill="none" xmlns="http://www.w3.org/2000/svg">
<path d="M58.5 60C65.4036 60 71 54.4036 71 47.5C71 40.5964 65.4036 35 58.5 35C51.5964 35 46 40.5964 46 47.5C46 54.4036 51.5964 60 58.5 60Z" fill="#EBC700"/>
<path d="M70.1364 108.462C69.658 108.479 69.1879 108.334 68.8029 108.049C68.2201 107.655 67.7848 107.078 67.5655 106.41L66.5079 102.633C66.4087 102.281 66.3804 101.912 66.4248 101.549C66.4692 101.186 66.5853 100.835 66.7663 100.518C66.9474 100.2 67.1899 99.9209 67.4796 99.6976C67.7693 99.4742 68.1006 99.3106 68.4541 99.2164L69.5117 98.9518C83.5388 95.1436 94.5822 84.6075 98.3266 71.4487C101.118 61.74 100.152 51.3361 95.6202 42.3076C91.0884 33.2791 83.3233 26.2879 73.8702 22.7254L73.4575 24.9467C73.3606 25.4432 73.1286 25.9034 72.7871 26.2766C72.4456 26.6498 72.0078 26.9216 71.5218 27.0621C71.2633 27.1502 70.9902 27.1873 70.7175 27.1716C70.336 27.173 69.9582 27.0966 69.6073 26.947C69.2563 26.7973 68.9396 26.5776 68.6766 26.3013L57.9391 15.1701C57.6861 14.9145 57.4868 14.6109 57.3529 14.2771C57.219 13.9434 57.1532 13.5862 57.1593 13.2267C57.1238 12.8768 57.1629 12.5233 57.2741 12.1896C57.3853 11.8559 57.566 11.5497 57.8043 11.291C58.067 10.9922 58.3935 10.7563 58.7597 10.6007C59.1258 10.4451 59.5222 10.3737 59.9197 10.3919C64.3387 10.406 68.7348 11.029 72.9838 12.2434C73.094 12.242 73.2029 12.2676 73.301 12.3178H73.3964C85.376 15.7597 95.6322 23.5633 102.144 34.191C108.656 44.8187 110.952 57.4999 108.58 69.7362C104.951 87.8992 90.3852 102.962 71.4818 108.114L71.006 108.272C70.7289 108.382 70.436 108.446 70.1385 108.462L70.1364 108.462ZM73.5003 21.0543C83.5337 24.5592 91.8415 31.7773 96.7136 41.2226C101.586 50.668 102.651 61.6218 99.6909 71.8291C95.7978 85.4539 84.3529 96.3935 69.8185 100.39L68.7608 100.644C68.581 100.697 68.4139 100.786 68.2701 100.906C68.1263 101.026 68.0088 101.175 67.9249 101.342C67.8651 101.477 67.8342 101.623 67.8342 101.771C67.8342 101.918 67.8651 102.064 67.9249 102.199L68.9826 106.018C69.1047 106.369 69.339 106.67 69.6493 106.875C69.8284 106.981 70.0334 107.036 70.2417 107.033C70.3682 107.049 70.4962 107.049 70.6228 107.033L71.0776 106.885C89.3037 101.861 103.479 87.2338 107.064 69.5341C109.391 57.653 107.163 45.3314 100.823 35.0175C94.5932 24.6589 84.6475 17.0662 73.0132 13.7868H72.6111L72.484 13.6597C68.3986 12.4818 64.1694 11.8767 59.9176 11.8616C59.7378 11.8544 59.5584 11.8845 59.3909 11.9501C59.2233 12.0157 59.0712 12.1153 58.9441 12.2427C58.826 12.3752 58.7376 12.5314 58.6847 12.7009C58.6318 12.8703 58.6157 13.0491 58.6374 13.2253C58.6322 13.4058 58.6643 13.5854 58.7316 13.7529C58.799 13.9204 58.9003 14.0722 59.029 14.1987L69.7448 25.358C69.8683 25.496 70.0179 25.6081 70.185 25.6879C70.3521 25.7678 70.5333 25.8138 70.7182 25.8233C70.7877 25.8374 70.8593 25.8374 70.9288 25.8233C71.1806 25.7318 71.4074 25.5826 71.5911 25.3876C71.7748 25.1926 71.9102 24.9572 71.9864 24.7004L72.7269 20.8922L73.5003 21.0543Z" fill="#EBC700"/>
<path d="M59.9176 10.7943C64.3155 10.8044 68.6907 11.4239 72.9185 12.6352C72.9645 12.6292 73.0113 12.6337 73.0553 12.6484C73.0993 12.6632 73.1394 12.6877 73.1726 12.7201H73.3417C85.2209 16.1368 95.3913 23.8756 101.852 34.4137C108.312 44.9519 110.594 57.5263 108.25 69.6627C104.642 87.6452 90.2126 102.613 71.4271 107.744L70.9302 107.913C70.6883 108 70.4356 108.053 70.1792 108.072C69.8005 108.079 69.4295 107.964 69.1216 107.744C68.6184 107.4 68.2457 106.897 68.0639 106.316L67.0062 102.539C66.923 102.236 66.9007 101.92 66.9405 101.608C66.9803 101.296 67.0814 100.995 67.238 100.723C67.3946 100.451 67.6035 100.212 67.8529 100.021C68.1022 99.8294 68.3869 99.6895 68.6906 99.6088L69.7483 99.3548C83.9255 95.4946 95.0722 84.8519 98.8488 71.5976C101.715 61.6934 100.696 51.069 95.9993 41.8901C91.303 32.7113 83.283 25.6689 73.574 22.1985L73.0666 24.8746C72.989 25.3106 72.7897 25.7159 72.4916 26.0435C72.1936 26.3711 71.809 26.6077 71.3822 26.7261C71.1674 26.7965 70.9411 26.8254 70.7154 26.811C70.3863 26.8117 70.0606 26.7444 69.7587 26.6134C69.4567 26.4823 69.1851 26.2904 68.9608 26.0495L58.2255 14.8993C58.0071 14.6798 57.8347 14.419 57.7184 14.132C57.6021 13.8451 57.5442 13.5378 57.5482 13.2282C57.525 12.9218 57.5657 12.6138 57.6677 12.3239C57.7696 12.034 57.9307 11.7683 58.1405 11.5438C58.3631 11.2955 58.6379 11.0993 58.9451 10.9695C59.2523 10.8397 59.5844 10.7794 59.9176 10.7928M70.7183 26.2172C70.8032 26.2172 71.0565 26.2172 71.1394 26.1323C71.4419 26.0264 71.7145 25.849 71.9337 25.6151C72.1529 25.3812 72.3124 25.0978 72.3985 24.789L73.0652 21.35L73.4035 21.4349C83.3473 24.9056 91.5791 32.0615 96.3997 41.4256C101.22 50.7897 102.262 61.6472 99.3092 71.7569C95.4589 85.2548 84.1297 96.087 69.6915 100.011L68.6338 100.265C68.4132 100.319 68.2063 100.418 68.0258 100.556C67.8454 100.694 67.6954 100.868 67.5852 101.067C67.4749 101.265 67.4069 101.484 67.3853 101.71C67.3637 101.936 67.389 102.165 67.4596 102.38L68.4646 106.157C68.6243 106.589 68.9169 106.96 69.3005 107.215C69.5429 107.361 69.8209 107.438 70.1041 107.437C70.2553 107.453 70.4077 107.453 70.5589 107.437L71.0664 107.268C89.5992 102.233 103.859 87.4761 107.455 69.7048C109.811 57.713 107.568 45.274 101.172 34.8604C94.8899 24.3792 84.8387 16.696 73.0764 13.384H72.8224L72.7375 13.2991C68.5712 12.0897 64.2559 11.4707 59.9176 11.4603C59.6842 11.4547 59.4522 11.4968 59.2357 11.584C59.0192 11.6713 58.8228 11.8019 58.6585 11.9677C58.507 12.138 58.3921 12.3377 58.3211 12.5543C58.2501 12.771 58.2245 12.9999 58.2458 13.2268C58.2295 13.465 58.2635 13.7038 58.3455 13.928C58.4274 14.1522 58.5556 14.3566 58.7217 14.5281L69.4381 25.6375C69.5979 25.8144 69.7918 25.9572 70.0082 26.0572C70.2245 26.1572 70.4589 26.2123 70.6972 26.2193M59.9176 10.0005C59.4691 9.99075 59.0239 10.0806 58.6142 10.2634C58.2045 10.4463 57.8405 10.7177 57.5482 11.0581C57.2691 11.3537 57.0535 11.7034 56.915 12.0856C56.7764 12.4678 56.7177 12.8744 56.7425 13.2802C56.7557 14.0957 57.0825 14.8748 57.6549 15.4559L68.3804 26.5976C68.6786 26.9163 69.0393 27.17 69.44 27.3429C69.8407 27.5158 70.2727 27.6042 70.7091 27.6027C71.0404 27.6226 71.3722 27.5722 71.6826 27.4546C72.2202 27.2749 72.6998 26.9545 73.0717 26.5267C73.4436 26.0989 73.6941 25.5794 73.7972 25.022L74.125 23.2674C83.4025 26.8444 91.0043 33.7658 95.4331 42.6682C99.8618 51.5707 100.796 61.8088 98.0529 71.366C94.3507 84.3662 83.4125 94.7963 69.4914 98.5835L68.4338 98.827H68.3811C67.5725 99.0541 66.8868 99.5925 66.4744 100.324C66.0619 101.056 65.9564 101.921 66.1808 102.731L67.2385 106.497C67.4719 107.273 67.9746 107.941 68.6562 108.38C69.0994 108.705 69.6405 108.869 70.1898 108.845C70.551 108.837 70.9085 108.769 71.2474 108.644L71.7443 108.475C90.7853 103.303 105.425 88.112 109.082 69.8037C111.469 57.4769 109.156 44.7033 102.598 33.9962C96.0405 23.289 85.7133 15.4236 73.6484 11.9474H73.4688C73.3607 11.903 73.2467 11.8744 73.1305 11.8625C68.8329 10.6365 64.3866 10.01 59.9176 10.0005ZM70.7604 25.427C70.6256 25.4219 70.4935 25.388 70.3731 25.3274C70.2526 25.2669 70.1465 25.1811 70.062 25.076L59.2937 13.9252C59.2013 13.8346 59.1291 13.7257 59.0817 13.6053C59.0343 13.485 59.0128 13.356 59.0185 13.2268C59.0185 12.7931 59.0929 12.645 59.2087 12.5285C59.2969 12.4359 59.4039 12.3633 59.5226 12.3158C59.6413 12.2684 59.7689 12.2471 59.8966 12.2534C64.0974 12.2628 68.2767 12.8532 72.3156 14.008L72.4848 14.1771H72.9606C84.4762 17.4532 94.3118 24.9922 100.467 35.2612C106.772 45.4988 108.988 57.7355 106.676 69.5342C103.122 87.041 89.0637 101.544 70.8481 106.495L70.3512 106.653H70.0971C69.959 106.657 69.8228 106.62 69.7055 106.547C69.475 106.382 69.3015 106.149 69.2086 105.881L68.2141 102.157C68.1773 102.074 68.1583 101.984 68.1583 101.893C68.1583 101.802 68.1773 101.711 68.2141 101.628C68.272 101.506 68.356 101.398 68.4602 101.312C68.5644 101.227 68.6862 101.165 68.817 101.131L69.8746 100.877C84.5888 96.7727 96.1509 85.7292 100.118 71.9668C103.117 61.6597 102.045 50.5947 97.1244 41.0545C92.2037 31.5142 83.8091 24.2264 73.6723 20.6944L73.334 20.6095L72.5304 20.4088L72.3613 21.2236L71.7057 24.6297C71.6483 24.812 71.5483 24.978 71.4141 25.114C71.2799 25.2501 71.1152 25.3523 70.9337 25.4122H70.8488L70.7604 25.427Z" fill="#EBC700"/>
<path d="M59.8122 109.636C55.3958 109.586 51.0045 108.964 46.7481 107.785C46.6703 107.773 46.5951 107.748 46.5257 107.711H46.4302C34.4341 104.297 24.1594 96.4983 17.6444 85.8627C11.1293 75.227 8.84985 62.531 11.2581 50.2932C14.8866 32.0145 29.4421 16.9192 48.3666 11.8323L48.8403 11.6723C49.0773 11.6023 49.3231 11.5666 49.5702 11.5663C50.1666 11.5648 50.7491 11.7467 51.2387 12.0873C51.7283 12.4279 52.1014 12.9107 52.3074 13.4704L53.3651 17.5221C53.4684 17.875 53.5008 18.2448 53.4603 18.6102C53.4198 18.9757 53.3073 19.3294 53.1293 19.6511C52.9512 19.9728 52.7112 20.256 52.423 20.4844C52.1349 20.7127 51.8043 20.8817 51.4505 20.9815L50.3928 21.2356C36.3075 24.9792 25.2633 35.4731 21.5387 48.632C18.6652 58.3159 19.5798 68.7301 24.0973 77.7649C28.6148 86.7998 36.3974 93.7799 45.8687 97.2914L46.2814 95.07C46.3755 94.5868 46.5952 94.137 46.9183 93.7656C47.2415 93.3943 47.6568 93.1146 48.1223 92.9547C48.3844 92.8664 48.6613 92.8304 48.9372 92.8487C49.3186 92.8468 49.6964 92.9227 50.0475 93.0719C50.3985 93.221 50.7154 93.4403 50.9788 93.7162L61.8005 104.875C62.0544 105.131 62.2544 105.435 62.3888 105.769C62.5232 106.104 62.5893 106.461 62.5831 106.822C62.6175 107.181 62.5718 107.544 62.4492 107.884C62.3267 108.224 62.1303 108.532 61.8742 108.787C61.6105 109.062 61.2935 109.281 60.9425 109.43C60.5915 109.579 60.2139 109.656 59.8326 109.654L59.8122 109.636ZM47.118 106.357C51.2591 107.478 55.5222 108.085 59.8115 108.166C59.9913 108.173 60.1707 108.143 60.3382 108.077C60.5058 108.012 60.6579 107.912 60.785 107.785C60.903 107.652 60.9914 107.496 61.0443 107.326C61.0972 107.157 61.1133 106.978 61.0917 106.802C61.0969 106.622 61.0648 106.442 60.9974 106.274C60.9301 106.107 60.8288 105.955 60.7001 105.829L49.9738 94.6693C49.8503 94.5313 49.7006 94.4192 49.5336 94.3394C49.3665 94.2595 49.1853 94.2135 49.0003 94.204C48.9309 94.1899 48.8593 94.1899 48.7898 94.204C48.538 94.2955 48.3112 94.4447 48.1275 94.6397C47.9438 94.8347 47.8084 95.0701 47.7321 95.3269L46.9917 99.0607L46.2512 98.8705C36.2279 95.4437 27.9143 88.2797 23.0443 78.8726C18.1743 69.4654 17.1238 58.5414 20.1118 48.3786C23.9516 34.6801 35.4288 23.7741 49.9843 19.8838L51.042 19.6298C51.2224 19.5754 51.3902 19.4857 51.5355 19.3658C51.6809 19.2459 51.8008 19.0982 51.8884 18.9314C51.9497 18.795 51.9815 18.6472 51.9815 18.4977C51.9815 18.3482 51.9497 18.2003 51.8884 18.0639L50.8307 14.0017C50.7551 13.7206 50.5866 13.4733 50.3527 13.3C50.1188 13.1268 49.8331 13.0376 49.5422 13.0472C49.4031 13.0491 49.2646 13.0667 49.1295 13.0998L48.6536 13.2584C30.3005 18.1011 16.2419 32.7331 12.7404 50.4933C10.379 62.3534 12.5616 74.6678 18.8552 84.9939C25.1488 95.32 35.0937 102.903 46.7173 106.24C46.8692 106.243 47.0181 106.283 47.151 106.356L47.118 106.357Z" fill="#EBC700"/>
<path d="M49.6047 11.9679C50.1169 11.9753 50.6145 12.1394 51.0306 12.4382C51.4467 12.7369 51.7613 13.156 51.932 13.6389L52.9897 17.6689C53.0746 17.9711 53.0985 18.287 53.0603 18.5985C53.022 18.91 52.9222 19.2108 52.7668 19.4834C52.6113 19.756 52.4032 19.995 52.1546 20.1865C51.906 20.3781 51.6219 20.5183 51.3186 20.5991L50.2609 20.8532C36.0858 24.6326 24.9385 35.1869 21.1598 48.5261C18.2087 58.3834 19.1584 68.9978 23.8127 78.1746C28.467 87.3513 36.4698 94.3886 46.1664 97.8312L46.6738 95.1551C46.7496 94.73 46.9392 94.3334 47.2223 94.0075C47.5054 93.6815 47.8715 93.4382 48.2817 93.3036C48.5003 93.2338 48.73 93.205 48.959 93.2187C49.2881 93.218 49.6139 93.2853 49.9158 93.4163C50.2177 93.5473 50.4893 93.7393 50.7136 93.9802L61.5353 105.13C61.7518 105.35 61.9222 105.611 62.0367 105.898C62.1512 106.185 62.2074 106.492 62.2021 106.801C62.2335 107.107 62.1977 107.416 62.0972 107.707C61.9967 107.998 61.8339 108.264 61.6202 108.485C61.3933 108.725 61.1193 108.916 60.8153 109.045C60.5113 109.174 60.184 109.239 59.8537 109.236C55.4623 109.189 51.0957 108.57 46.864 107.395C46.7999 107.386 46.7405 107.356 46.6949 107.31H46.4843C34.6044 103.904 24.4359 96.1628 17.991 85.6179C11.5461 75.0729 9.29433 62.4928 11.6814 50.367C15.2889 32.1725 29.7889 17.2471 48.4937 12.2114L49.0011 12.0528C49.1965 11.9935 49.4006 11.9649 49.6047 11.9679ZM46.6535 106.643H46.7384C46.8307 106.638 46.9213 106.669 46.9925 106.728C51.175 107.861 55.4805 108.479 59.813 108.569C60.0466 108.576 60.2792 108.535 60.4959 108.447C60.7127 108.36 60.9089 108.229 61.0721 108.061C61.2273 107.893 61.3451 107.694 61.4177 107.477C61.4903 107.26 61.516 107.03 61.4932 106.802C61.5 106.57 61.4583 106.339 61.371 106.124C61.2836 105.909 61.1524 105.715 60.9858 105.554L50.2602 94.3957C49.9271 94.0596 49.4743 93.8693 49.0011 93.8665C48.9162 93.8665 48.6628 93.8665 48.58 93.9514C48.2774 94.0573 48.0049 94.2347 47.7857 94.4686C47.5665 94.7025 47.407 94.9859 47.3209 95.2947L46.6542 98.6481L46.3159 98.5632C36.3725 95.1599 28.1314 88.0417 23.3182 78.6991C18.5049 69.3565 17.4928 58.514 20.4937 48.4419C24.344 34.8598 35.6626 24.1118 50.1114 20.2615L51.1691 20.018C51.3897 19.9637 51.5966 19.8646 51.7771 19.7267C51.9575 19.5887 52.1075 19.4151 52.2177 19.2165C52.328 19.0179 52.396 18.7987 52.4176 18.5727C52.4392 18.3466 52.4139 18.1185 52.3433 17.9026L51.2856 13.8832C51.1859 13.5197 50.9671 13.2001 50.6642 12.9757C50.3614 12.7512 49.992 12.6348 49.6152 12.6451C49.4442 12.6456 49.2738 12.6668 49.1078 12.7083L48.6004 12.8774C30.1321 17.7545 15.8847 32.5108 12.3166 50.4941C9.95527 62.4534 12.1689 74.8635 18.5195 85.2689C24.87 95.6743 34.8949 103.317 46.6107 106.685M49.5626 11.2169C49.2875 11.2156 49.0134 11.2513 48.7478 11.3229L48.2824 11.4632C29.2415 16.5832 14.594 31.7942 10.9445 50.2218C8.51856 62.5403 10.8052 75.3208 17.3519 86.034C23.8986 96.7472 34.2283 104.613 46.2969 108.074H46.4661C46.541 108.107 46.6191 108.131 46.6991 108.148C50.9806 109.327 55.3963 109.949 59.8369 110C60.2732 110.005 60.7059 109.921 61.1082 109.752C61.5104 109.583 61.8735 109.333 62.1747 109.017C62.4696 108.717 62.6953 108.356 62.836 107.959C62.9768 107.563 63.0292 107.14 62.9895 106.721C62.9865 105.906 62.6637 105.125 62.0905 104.546L51.2442 93.4201C50.9453 93.1036 50.5844 92.8519 50.184 92.6809C49.7836 92.5098 49.3523 92.4229 48.9169 92.4256C48.5788 92.4064 48.2403 92.4568 47.9224 92.5737C47.3964 92.7627 46.9295 93.0872 46.5692 93.5145C46.2088 93.9417 45.9677 94.4566 45.8702 95.007L45.5425 96.7616C36.2848 93.2008 28.7107 86.2796 24.332 77.3796C19.9532 68.4796 19.0921 58.2556 21.9206 48.7486C25.6122 35.6845 36.5399 25.3288 50.4603 21.6154L51.5179 21.3718C52.3285 21.147 53.0167 20.6096 53.4313 19.8776C53.8458 19.1456 53.9528 18.279 53.7287 17.4682L52.6711 13.4487V13.3856C52.4458 12.7475 52.0297 12.1942 51.4793 11.8006C50.9289 11.407 50.2708 11.1922 49.5942 11.1853L49.5626 11.2169ZM49.3401 13.4698H49.6363C49.8397 13.4616 50.04 13.5217 50.2053 13.6405C50.3707 13.7593 50.4915 13.9299 50.5487 14.1253L51.6064 18.1448V18.2297C51.6434 18.3148 51.6624 18.4067 51.6624 18.4995C51.6624 18.5924 51.6434 18.6842 51.6064 18.7694C51.5473 18.8906 51.4629 18.9976 51.3589 19.0834C51.2549 19.1691 51.1337 19.2315 51.0035 19.2663L49.9458 19.5099C35.2001 23.424 23.6485 34.4359 19.7238 48.2292C16.6937 58.4902 17.7415 69.5249 22.6489 79.0321C27.5563 88.5394 35.9444 95.7853 46.0639 99.2587H46.1699L46.5082 99.3437L47.3118 99.5444L47.4704 98.7296L48.1372 95.4183C48.1922 95.2335 48.2912 95.0649 48.4257 94.9268C48.5601 94.7887 48.726 94.6852 48.9092 94.6252H48.9941C49.1289 94.6302 49.2609 94.6642 49.3814 94.7247C49.5019 94.7853 49.608 94.871 49.6924 94.9761L60.4082 106.126C60.5035 106.214 60.5785 106.323 60.6278 106.443C60.6771 106.564 60.6996 106.694 60.6938 106.824C60.6938 107.258 60.6201 107.406 60.5036 107.522C60.4139 107.616 60.3051 107.689 60.1845 107.736C60.064 107.784 59.9346 107.805 59.8053 107.797C55.5801 107.715 51.381 107.114 47.302 106.01C47.1379 105.916 46.9515 105.867 46.7623 105.869C35.2568 102.546 25.4167 95.0277 19.1875 84.7995C12.9582 74.5714 10.7931 62.3784 13.1202 50.6309C16.5866 32.9761 30.5848 18.4739 48.7688 13.6712L49.3401 13.4698Z" fill="#EBC700"/>
<path d="M85.8141 47.4362C84.2563 45.8386 82.389 44.5756 80.3264 43.7244C78.2638 42.8731 76.0493 42.4515 73.8182 42.4854H44.305C39.8272 42.5021 35.5385 44.2927 32.3781 47.4649C29.2177 50.6371 27.4432 54.9325 27.4433 59.4103C27.4278 61.6423 27.8598 63.8547 28.7138 65.9168C29.5677 67.979 30.8263 69.8491 32.4151 71.4167C33.9736 73.0133 35.8411 74.2757 37.9035 75.1269C39.9659 75.978 42.1801 76.4002 44.411 76.3675C48.516 76.3469 52.4754 74.8442 55.5605 72.1361H62.8596C66.0609 75.0037 70.2449 76.526 74.5405 76.3861C78.836 76.2462 82.9121 74.4549 85.92 71.3852C87.5173 69.8294 88.7803 67.9639 89.6316 65.9031C90.4828 63.8422 90.9045 61.6293 90.8708 59.3998C90.8238 54.9022 89.0071 50.6041 85.8141 47.4362ZM54.8727 61.5257C54.8791 61.6686 54.8518 61.8111 54.7931 61.9415C54.7343 62.072 54.6457 62.1868 54.5344 62.2766C54.3291 62.4704 54.0646 62.5896 53.7834 62.6149H47.4359V68.9617C47.4425 69.2374 47.3526 69.5067 47.1819 69.7232C46.9751 69.9131 46.7108 70.0285 46.4309 70.051H42.2002C42.0612 70.051 41.9236 70.0238 41.7952 69.9706C41.6668 69.9175 41.5501 69.8396 41.4519 69.7414C41.3536 69.6432 41.2756 69.5266 41.2224 69.3982C41.1692 69.2698 41.1418 69.1322 41.1418 68.9933V62.5412H34.7951C34.652 62.5488 34.5092 62.522 34.3786 62.4632C34.2479 62.4043 34.1333 62.3151 34.0441 62.203C33.8503 61.9976 33.7312 61.7332 33.7058 61.452V57.2206C33.6994 57.0777 33.7266 56.9352 33.7854 56.8048C33.8442 56.6743 33.9328 56.5595 34.0441 56.4696C34.248 56.2737 34.5132 56.1542 34.7951 56.1313H41.1418V49.9551C41.1347 49.8116 41.1605 49.6683 41.2173 49.5363C41.2742 49.4043 41.3604 49.2871 41.4696 49.1936C41.6813 49.0049 41.9485 48.8899 42.2311 48.8659H46.4632C46.6053 48.8582 46.7471 48.8838 46.8775 48.9407C47.0079 48.9976 47.1232 49.0842 47.2142 49.1936C47.4101 49.4017 47.5294 49.6702 47.5524 49.9551V56.3019H53.9027C54.1821 56.3032 54.4497 56.415 54.6469 56.6129C54.8442 56.8108 54.9551 57.0787 54.9555 57.3581V57.4431L54.8705 61.558L54.8727 61.5257ZM72.6124 66.5509C71.9167 67.2375 71.0047 67.6621 70.0314 67.7525C69.0581 67.8428 68.0835 67.5935 67.2732 67.0467C66.463 66.4999 65.867 65.6895 65.5866 64.7531C65.3061 63.8167 65.3586 62.812 65.735 61.9099C66.1113 61.0078 66.7884 60.2638 67.6512 59.8043C68.514 59.3449 69.5093 59.1983 70.4679 59.3895C71.4265 59.5807 72.2893 60.098 72.9098 60.8533C73.5302 61.6086 73.8701 62.5555 73.8715 63.5329C73.8868 64.0964 73.7826 64.6567 73.5655 65.1769C73.3485 65.6971 73.0236 66.1654 72.6124 66.5509ZM81.0752 58.173C80.3896 58.8386 79.4953 59.2473 78.5433 59.3301C77.5912 59.4128 76.6398 59.1645 75.8496 58.6271C75.0595 58.0897 74.4789 57.2961 74.206 56.3803C73.9332 55.4644 73.9846 54.4825 74.3518 53.6003C74.7189 52.718 75.3793 51.9894 76.2213 51.5376C77.0633 51.0857 78.0355 50.9383 78.9736 51.1201C79.9118 51.3019 80.7585 51.8019 81.3707 52.5356C81.983 53.2693 82.3234 54.1918 82.3343 55.1473C82.3683 55.7143 82.2724 56.2815 82.0541 56.8058C81.8358 57.3301 81.5015 57.7977 81.0752 58.173Z" fill="white"/>
</svg>
