<svg width="120" height="120" viewBox="0 0 120 120" fill="none" xmlns="http://www.w3.org/2000/svg">
<path d="M53.9272 51.4543C61.1771 51.4543 67.0544 45.5771 67.0544 38.3272C67.0544 31.0772 61.1771 25.2 53.9272 25.2C46.6773 25.2 40.8 31.0772 40.8 38.3272C40.8 45.5771 46.6773 51.4543 53.9272 51.4543Z" fill="#EBC700"/>
<path d="M9.73878 47.686C12.6874 35.9064 19.9424 25.5916 30.1328 18.6906C40.3233 11.7896 52.7434 8.78036 65.0466 10.2314C77.3498 11.6824 88.6839 17.4932 96.9074 26.566C105.131 35.6387 109.674 47.3449 109.679 59.4729C109.679 59.9357 109.679 60.399 109.679 60.8628C110.408 62.1634 111.063 63.5019 111.643 64.8725C111.958 65.6552 112.241 66.438 112.511 67.2318C114.43 53.3462 110.646 39.2823 101.988 28.1228C93.3298 16.9633 80.5036 9.61884 66.3213 7.69928C52.1389 5.77973 37.7575 9.44175 26.3295 17.8826C14.9014 26.3234 7.35924 38.8544 5.3562 52.7286C6.60226 50.8808 8.07399 49.1887 9.73878 47.6897V47.686Z" fill="white"/>
<path d="M45.3545 109.068C34.9511 107.019 25.4655 101.759 18.2513 94.0393C16.0494 93.5291 13.9218 92.7427 11.9198 91.699C16.5052 97.8569 22.3705 102.964 29.1181 106.673C35.8657 110.382 43.3377 112.607 51.0273 113.197C49.0153 111.994 47.1176 110.612 45.3574 109.068H45.3545Z" fill="#EBC700"/>
<path d="M99.1233 87.824C92.9461 96.4421 84.2273 102.894 74.2114 106.259C72.8343 108.051 71.2367 109.662 69.457 111.051C76.9617 109.431 84.0404 106.21 90.2129 101.607C96.3855 97.0038 101.508 91.1263 105.232 84.3729C103.303 85.7053 101.259 86.8595 99.1245 87.8213L99.1233 87.824Z" fill="#EBC700"/>
<path d="M58.208 72.4509C59.1441 72.1879 60.0958 71.9801 61.0565 71.8294L61.2064 71.804L61.2097 71.803C65.2758 71.1165 67.3155 70.7726 68.3498 71.6146C69.3663 72.4448 69.4293 74.4106 69.5519 78.329L69.56 78.542C69.573 78.9222 69.586 79.2776 69.5981 79.612L69.6015 79.8294C69.7303 83.4595 69.7602 84.3224 69.9614 84.4681C69.9848 84.4822 70.0112 84.4907 70.0385 84.4923C70.0658 84.4939 70.0932 84.4885 70.1181 84.4772C70.1537 84.4665 70.1934 84.451 70.2317 84.4352L70.2427 84.4318C70.2889 84.4136 70.3426 84.3915 70.3996 84.3743C70.9638 84.204 71.777 83.0982 72.58 81.4103C73.376 79.758 73.9432 78.0052 74.2647 76.2001C75.0499 71.3194 75.6041 70.5102 78.8329 69.5356C82.1858 68.5236 86.643 66.1872 88.7681 64.3247C89.3714 63.7465 90.05 63.2521 90.7858 62.855C91.6947 62.5807 95.9242 55.2115 96.5887 52.7456L97.2159 50.3435L95.4691 49.4573C91.2704 47.259 77.0554 45.6195 69.6888 46.4836C68.1094 46.7015 66.4071 46.8974 65.2806 47.0267L65.2718 47.0293C64.8265 47.0801 64.4416 47.1241 64.2264 47.1516C63.7673 47.1806 63.3094 47.0737 62.9111 46.844C62.5128 46.6143 62.1917 46.272 61.9876 45.8606C61.0711 44.2738 57.3793 40.0834 55.8282 38.7472C54.1491 37.3869 50.0877 35.1942 49.3949 35.4033C49.3647 35.4125 49.3373 35.4283 49.3138 35.4493C49.2903 35.4703 49.2712 35.4965 49.2587 35.5254C49.0777 35.9033 49.4354 37.1002 50.5381 39.7929C51.4677 42.069 52.7967 45.6163 53.4309 47.7081L54.5404 51.3679L51.7618 53.3745C50.1007 54.5476 46.4186 56.9322 44.3714 58.2477L39.7597 61.1148L36.5443 59.4428C34.6716 58.4433 33.8922 58.1505 33.4594 58.2811C33.3496 58.3225 33.2512 58.3908 33.1744 58.4794C33.0975 58.5679 33.0446 58.6741 33.0191 58.7885C32.9256 59.5898 33.0647 60.4011 33.4198 61.1258C34.4445 63.0837 34.0308 63.9528 31.2038 65.7894C30.5371 66.2984 29.794 66.6993 29.0023 66.9779C27.431 67.4521 25.5774 67.0895 20.2555 65.838C18.4526 65.418 16.8303 65.2592 16.2176 65.4442C16.127 65.4613 16.0456 65.5125 15.9914 65.5868C15.8051 65.9331 16.8059 67.4341 18.4795 69.3227C20.9179 71.93 21.3804 72.7721 21.7786 75.3327C22.0778 77.0775 22.3904 77.9054 22.8534 78.1916C22.9595 78.2537 23.0782 78.2918 23.2008 78.3022C23.3234 78.3126 23.4458 78.2956 23.561 78.2523C24.1392 78.0778 24.9333 77.4478 26.2146 76.1472C27.6078 74.659 29.3535 73.5446 31.2913 72.9056C33.5181 72.2335 35.5924 72.5417 37.1331 73.7747C37.5692 74.1224 38.0078 75.0349 38.3745 76.342C38.7577 77.7633 38.9831 79.2223 39.0465 80.6927C39.1413 82.3074 39.3561 83.5028 39.5787 83.6661C39.6281 83.6907 39.6819 83.7053 39.737 83.7084C39.7922 83.7115 39.8475 83.7034 39.8994 83.6846C40.8405 83.4005 42.4706 80.6777 43.534 77.6145C44.4236 75.026 44.6758 74.4017 45.7952 74.0639C46.3024 73.9318 46.8175 73.8311 47.3372 73.7629L47.3527 73.7582C49.2796 73.4458 50.2637 73.4751 50.9864 73.866C51.8111 74.3134 52.2517 75.2983 52.6585 76.64C53.1118 78.1355 53.6115 78.8839 54.0668 78.7464C54.4448 78.6323 54.7511 77.9198 54.9509 76.6875C55.3982 74.1127 55.9327 73.1377 58.208 72.4509ZM76.624 65.2887C76.2099 65.4137 75.7271 65.2359 75.1908 64.7587C74.1952 63.8755 73.0815 61.9873 72.2836 59.8307C71.4342 57.5329 71.0932 55.3961 71.3493 53.976C71.4589 53.4031 71.6978 52.8628 72.0476 52.3956C72.3119 52.0203 72.6849 51.7351 73.1167 51.5778C73.3252 51.5045 73.5523 51.5056 73.76 51.5811C73.9676 51.6567 74.1426 51.8017 74.2549 51.9917C74.556 52.347 74.6543 53.7669 74.6176 55.0169C74.5465 56.9478 74.8276 57.9965 76.0535 60.3601C77.3169 62.6263 77.7296 63.9047 77.433 64.6365C77.3586 64.8009 77.246 64.9461 77.1053 65.0594C76.9647 65.1728 76.8007 65.2509 76.624 65.2887ZM70.9249 67.0089C70.4877 67.1409 69.9402 66.8839 69.2947 66.2454C68.1782 65.1425 66.9072 63.0108 65.9784 60.6823C64.9789 58.1797 64.6074 56.0569 64.9593 54.8574C65.2508 53.8709 65.6835 53.2866 66.2443 53.1174C66.5044 53.0629 66.7738 53.066 67.0325 53.1267C67.2912 53.1875 67.5327 53.3042 67.7412 53.4686C68.3632 53.8954 68.6353 54.7928 68.8165 57.0157C68.8914 58.9451 69.4409 60.8266 70.4162 62.4943C71.5263 64.5493 71.9 65.7645 71.6205 66.4389C71.5572 66.5811 71.4624 66.7067 71.342 66.8056C71.2215 66.9045 71.0792 66.9737 70.9271 67.0082L70.9249 67.0089ZM65.2259 68.1145C64.9482 68.1601 64.664 68.1455 64.3926 68.0713C64.1211 67.9971 63.8691 67.8652 63.6535 67.6846C61.7485 66.4159 59.3141 62.7151 59.0243 59.8459C58.9049 58.6118 59.0442 57.3665 59.4335 56.1892C59.8194 55.0144 60.3688 54.2174 60.9036 54.056C61.23 54.0295 61.5587 54.0789 61.8627 54.2004C62.1667 54.3219 62.4377 54.5123 62.6555 54.7563C63.3757 55.4744 63.5054 56.1982 63.1879 57.7303C62.8972 59.4264 63.1663 60.6865 64.4893 63.8518C65.5628 66.4605 65.8284 67.388 65.6229 67.8212C65.5824 67.8964 65.526 67.9615 65.4571 68.0123C65.3883 68.063 65.3086 68.0977 65.2247 68.1142L65.2259 68.1145ZM83.8252 54.5112C83.5868 54.5978 83.3306 54.6284 83.0785 54.5991C82.8265 54.5699 82.5854 54.4821 82.3731 54.3433C81.8001 53.9441 81.4626 53.1293 81.399 51.987C81.4148 51.6476 81.5441 51.3237 81.7671 51.0669C81.9901 50.8101 82.2939 50.6351 82.6283 50.5711C82.981 50.4399 83.3662 50.4238 83.7289 50.5239C84.0917 50.6241 84.4135 50.8358 84.6485 51.1292C84.892 51.4405 85.0584 51.805 85.1345 52.1925C85.2105 52.58 85.1931 52.9797 85.0854 53.3596C84.9836 53.6386 84.8165 53.889 84.597 54.0892C84.3774 54.2895 84.1123 54.4335 83.8247 54.5096L83.8252 54.5112Z" fill="white"/>
</svg>
