<svg width="120" height="120" viewBox="0 0 120 120" fill="none" xmlns="http://www.w3.org/2000/svg">
<path d="M51.8708 25.1966C48.123 25.9976 42.7159 28.0574 42.7159 28.6868C42.7159 29.259 45.4052 33.5217 45.6913 33.3787C50.2115 31.4047 53.9592 30.3461 56.534 30.3461H57.5925V27.4853V24.6244L55.9618 24.653C55.0463 24.653 53.2154 24.9105 51.8708 25.1966Z" fill="white"/>
<path d="M59.8812 27.3995V30.2604L61.8266 30.432C64.4586 30.6895 67.9203 31.605 70.1518 32.6349C71.1531 33.1212 72.0114 33.4932 72.04 33.4932C72.2116 33.4932 74.7578 28.9444 74.7578 28.6869C74.7578 28.2291 70.3234 26.3696 67.4053 25.6257C65.8605 25.2252 63.5432 24.7961 62.2558 24.7103L59.8812 24.5386V27.3995Z" fill="white"/>
<path d="M37.8236 31.6336C35.0772 33.6649 32.8171 35.9822 30.8145 38.8144C29.7273 40.3307 29.5557 40.7598 29.8704 40.9601C30.9003 41.6467 34.4764 43.5635 34.5336 43.4777C36.622 40.4738 39.9979 36.9549 42.1435 35.4958C42.6871 35.1239 43.2021 34.7806 43.2593 34.752C43.4023 34.6376 40.6559 29.7741 40.4556 29.7741C40.3698 29.7741 39.1682 30.6037 37.8236 31.6336Z" fill="white"/>
<path d="M75.5015 32.2058C74.7291 33.5504 74.1569 34.6948 74.2141 34.7234C74.2714 34.7806 74.9866 35.267 75.759 35.8391C77.3611 37.0121 81.1661 40.8457 82.196 42.3619C82.5679 42.9055 82.9112 43.4205 82.9398 43.4777C83.0829 43.6207 87.9178 40.8457 87.9178 40.6168C87.9178 40.3021 84.8566 36.3827 83.512 34.9523C82.3391 33.7221 77.4469 29.7741 77.1036 29.7741C76.9892 29.7741 76.274 30.8612 75.5015 32.2058Z" fill="white"/>
<path d="M53.1581 33.1212C48.3233 34.1512 43.8603 36.6115 40.1411 40.3593C36.3362 44.1356 33.9044 48.57 32.8745 53.5765C32.3023 56.4088 32.2737 61.5012 32.8745 64.3334C34.9343 74.4324 43.2595 82.7575 53.3584 84.8174C56.1907 85.4181 61.283 85.4181 64.1153 84.8174C74.2428 82.7575 82.5108 74.461 84.5992 64.3334C85.2 61.5012 85.2 56.4088 84.5992 53.5765C83.5693 48.57 81.1376 44.1356 77.3326 40.3593C73.5562 36.5543 69.1219 34.1225 64.1153 33.0926C61.3403 32.5205 55.876 32.5205 53.1581 33.1212ZM60.9111 37.9275C62.9996 39.2721 63.3143 42.1616 61.5691 43.964C61.0542 44.5075 60.4534 44.9367 60.2531 44.9367C59.967 44.9367 59.8812 45.9094 59.8812 49.3138V53.7196L61.0542 54.2345C62.2557 54.7781 63.3715 56.0083 63.7434 57.1526C63.9151 57.8106 64.0009 57.8106 68.2636 57.8106H72.6121L73.0985 56.9524C74.157 55.0928 76.6174 54.4348 78.4197 55.5219C81.109 57.1526 81.109 60.7001 78.4197 62.4167C76.5888 63.561 73.499 62.5597 72.8696 60.6143C72.7266 60.1566 72.326 60.0993 68.3494 60.0993H64.0009L63.4859 61.2437C62.971 62.4167 61.6836 63.5896 60.5392 63.9615C59.8812 64.1332 59.8812 64.219 59.8812 68.5389C59.8812 72.5442 59.9384 72.9447 60.3962 73.0877C62.3416 73.7171 63.3429 76.8069 62.1985 78.6379C61.4547 79.7822 59.9956 80.6977 58.8799 80.6977C56.8201 80.6977 54.7316 78.6951 54.7316 76.7211C54.7316 75.4337 55.6185 73.946 56.7342 73.3166L57.5925 72.8303V68.5389V64.2476L56.2193 63.5324C55.218 63.0174 54.6744 62.4739 54.1595 61.4726L53.4442 60.0993H49.0957C45.6912 60.0993 44.7185 60.1852 44.7185 60.4713C44.7185 60.6715 44.2894 61.2723 43.7458 61.7873C42.4012 63.1033 40.4558 63.3321 38.9968 62.3308C36.3934 60.5857 36.4506 57.1526 39.0826 55.4933C40.885 54.349 43.9747 55.3503 44.6041 57.2957C44.7472 57.7534 45.1477 57.8106 49.0957 57.8106H53.4442L54.1595 56.4374C54.6744 55.4361 55.218 54.8925 56.2193 54.3776L57.5925 53.6624V49.371V45.0797L56.7342 44.5934C56.2765 44.3359 55.6185 43.6779 55.3038 43.1629C53.2154 39.7299 57.5067 35.696 60.9111 37.9275Z" fill="white"/>
<path d="M57.5923 40.0732C56.877 40.7884 56.8484 41.8469 57.535 42.4477C58.6508 43.449 60.4531 42.7052 60.4531 41.2748C60.4531 40.4737 59.4804 39.501 58.7366 39.501C58.4219 39.501 57.907 39.7585 57.5923 40.0732Z" fill="white"/>
<path d="M57.5637 56.323C56.9915 56.6091 56.3908 57.2385 56.0761 57.8679C55.6183 58.7834 55.6183 59.0122 55.9616 59.8705C56.5624 61.3009 57.3921 61.9017 58.7653 61.9017C61.3687 61.9017 62.7133 58.7548 60.8537 56.9524C59.738 55.8939 58.7939 55.7222 57.5637 56.323Z" fill="white"/>
<path d="M39.8551 57.8106C39.5404 58.1253 39.283 58.6403 39.283 58.955C39.283 59.7274 40.2843 60.6715 41.0853 60.6715C42.5158 60.6715 43.2596 58.6689 42.2011 57.7248C41.4858 57.0668 40.5417 57.124 39.8551 57.8106Z" fill="white"/>
<path d="M75.2439 57.7534C74.2426 58.8692 74.9864 60.6715 76.4169 60.6715C77.2179 60.6715 78.1906 59.6988 78.1906 58.955C78.1906 58.1825 77.1893 57.2385 76.3883 57.2385C76.0164 57.2385 75.5014 57.4673 75.2439 57.7534Z" fill="white"/>
<path d="M57.5066 75.491C57.2205 75.777 57.0203 76.292 57.0203 76.6353C57.0203 77.4364 57.993 78.4091 58.7368 78.4091C59.5092 78.4091 60.4533 77.4077 60.4533 76.6067C60.4533 75.1763 58.4507 74.4324 57.5066 75.491Z" fill="white"/>
<path d="M27.1812 45.1942C25.8366 48.1123 24.7208 52.4322 24.492 55.4361L24.3203 57.8107H27.1812H30.0421L30.2137 55.8653C30.4712 53.2333 31.3867 49.7716 32.4166 47.5401C32.903 46.5388 33.2749 45.7091 33.2749 45.6519C33.2749 45.5089 28.6975 42.9341 28.4686 42.9341C28.3255 42.9341 27.7248 43.964 27.1812 45.1942Z" fill="white"/>
<path d="M86.4875 44.2501C85.3145 44.9367 84.3418 45.5947 84.3418 45.7091C84.3418 45.8522 84.7709 46.9679 85.3145 48.2267C86.3158 50.6012 87.3457 54.8926 87.3457 56.7235V57.8107H90.2066H93.0675V56.4088C93.0675 54.5779 92.3523 50.9159 91.494 48.2839C90.6071 45.5089 89.3769 42.9341 88.9478 42.9627C88.7762 42.9627 87.6604 43.5635 86.4875 44.2501Z" fill="white"/>
<path d="M24.492 62.4453C24.5778 63.7613 25.0069 66.0786 25.4074 67.6235C26.1513 70.5416 28.0108 74.976 28.4686 74.976C28.7261 74.976 33.2749 72.4298 33.2749 72.2581C33.2749 72.2295 32.903 71.3712 32.4166 70.3699C31.3867 68.1384 30.4712 64.6768 30.2137 62.0448L30.0421 60.0994H27.1812H24.3203L24.492 62.4453Z" fill="white"/>
<path d="M87.2599 62.0447C87.0024 64.6767 86.0869 68.1384 85.057 70.3699C84.5706 71.3712 84.1987 72.2009 84.1987 72.2581C84.1987 72.5156 88.8906 75.0045 89.1767 74.8901C89.6344 74.7184 91.5226 69.9408 92.2378 67.1085C92.5525 65.8497 92.8958 63.7613 92.9816 62.4453L93.1533 60.0993H90.2924H87.4315L87.2599 62.0447Z" fill="white"/>
<path d="M31.9304 75.7767C30.6144 76.5206 29.5559 77.2072 29.5559 77.293C29.5559 77.6077 32.6457 81.5843 33.9617 82.9575C35.1632 84.2163 40.0267 88.1357 40.3986 88.1357C40.6275 88.1357 43.4026 83.3009 43.2595 83.1578C40.7992 81.4127 39.8551 80.6116 37.9669 78.6376C36.7081 77.3216 35.4207 75.834 35.1346 75.319C34.8199 74.804 34.5052 74.4035 34.4194 74.4035C34.3336 74.4035 33.2178 75.0043 31.9304 75.7767Z" fill="white"/>
<path d="M82.3389 75.3193C81.5664 76.6353 77.4754 80.8408 75.7875 82.0423C74.9864 82.6145 74.2712 83.1295 74.214 83.1867C74.1282 83.2439 76.5885 87.7069 76.9318 88.1074C77.1893 88.3935 80.6224 85.7043 83.0541 83.2725C85.4859 80.8408 88.1751 77.4077 87.889 77.1502C87.6029 76.9214 83.1972 74.4038 83.0541 74.4038C82.9683 74.4038 82.6536 74.8043 82.3389 75.3193Z" fill="white"/>
<path d="M44.0319 86.7341C43.3167 88.0215 42.7159 89.1658 42.7159 89.2803C42.7159 89.6808 47.2934 91.569 50.0684 92.2842C51.6133 92.6847 53.9306 93.1139 55.2466 93.1997L57.5925 93.3713V90.5105V87.6496L55.6471 87.4779C53.0151 87.2204 49.5534 86.305 47.322 85.275C46.3207 84.7887 45.4624 84.4168 45.4338 84.4168C45.3766 84.4168 44.7472 85.4753 44.0319 86.7341Z" fill="white"/>
<path d="M71.4678 84.6743C70.4093 85.6184 63.4001 87.5638 60.9684 87.5638H59.8812V90.4246V93.2855H61.3403C62.1413 93.2855 64.1153 93.028 65.6888 92.6847C68.7786 92.084 74.4431 89.9955 74.672 89.3947C74.815 89.0514 72.2402 84.4168 71.9255 84.4168C71.8111 84.4168 71.6108 84.5312 71.4678 84.6743Z" fill="white"/>
<path d="M12.1576 47.1887C15.0009 35.8301 21.9965 25.884 31.8228 19.2296C41.649 12.5753 53.6253 9.67353 65.4888 11.0727C77.3522 12.4719 88.2813 18.075 96.2109 26.8235C104.141 35.5719 108.522 46.8598 108.526 58.5543C108.526 59.0006 108.526 59.4474 108.526 59.8946C109.229 61.1487 109.861 62.4394 110.42 63.761C110.724 64.5157 110.996 65.2705 111.257 66.0359C113.108 52.6467 109.459 39.0853 101.11 28.3247C92.7611 17.564 80.3934 10.482 66.7179 8.63109C53.0424 6.78014 39.1749 10.3113 28.1553 18.4504C17.1357 26.5896 9.8631 38.6727 7.93164 52.0511C9.13317 50.2693 10.5523 48.6377 12.1576 47.1922V47.1887Z" fill="#EBC700"/>
<path d="M40.404 107.106C30.6063 104.183 21.9844 98.2632 15.7688 90.1904C13.702 89.4984 11.732 88.5481 9.90625 87.3624C13.742 93.6944 18.903 99.135 25.0392 103.315C31.1753 107.495 38.1431 110.317 45.47 111.59C43.6493 110.25 41.9546 108.75 40.4069 107.106L40.404 107.106Z" fill="#EBC700"/>
<path d="M80.5276 107.106C90.3253 104.183 98.9472 98.2632 105.163 90.1904C107.23 89.4984 109.2 88.5481 111.025 87.3624C107.19 93.6944 102.029 99.135 95.8925 103.315C89.7563 107.495 82.7885 110.317 75.4616 111.59C77.2824 110.25 78.977 108.75 80.5247 107.106L80.5276 107.106Z" fill="#EBC700"/>
</svg>
