<svg width="120" height="120" viewBox="0 0 120 120" fill="none" xmlns="http://www.w3.org/2000/svg">
<g clip-path="url(#clip0_773_441)">
<path d="M13.1935 47.4413C16.015 36.2566 22.957 26.4628 32.7079 19.9103C42.4588 13.3578 54.3432 10.5005 66.1157 11.8783C77.8882 13.256 88.7334 18.7734 96.6022 27.3879C104.471 36.0024 108.818 47.1175 108.823 58.6329C108.823 59.0724 108.823 59.5123 108.823 59.9527C109.52 61.1876 110.148 62.4585 110.702 63.7599C111.004 64.5031 111.274 65.2463 111.532 66C113.369 52.8157 109.749 39.4621 101.464 28.8662C93.1789 18.2702 80.906 11.2967 67.3354 9.47406C53.7648 7.65145 40.0037 11.1285 29.0686 19.1431C18.1335 27.1576 10.9166 39.0558 9 52.2293C10.1923 50.4748 11.6006 48.8681 13.1935 47.4448V47.4413Z" fill="#EBC700"/>
<path d="M38.3977 50.5069C36.4154 50.9446 33.3757 52.346 31.7178 53.6325C29.7424 55.169 27.4947 58.515 26.6956 61.1076C24.2997 69.0981 28.3203 77.1902 36.3156 80.3659L38.3411 81.1685L60.4944 81.0301L82.6476 80.8917L84.6629 80.0638C90.9562 77.4724 94.8204 71.8831 94.7799 65.3966C94.7394 58.9102 90.8056 53.3696 84.4804 50.857L82.4549 50.0544L61.1874 50.1164C49.4902 50.154 39.2475 50.3598 38.3977 50.5069ZM47.6377 65.6912L47.6843 73.1347L42.5801 73.1666C38.2558 73.1936 37.4401 73.1278 37.2598 72.6327C37.1515 72.3143 37.0259 69.2313 37.0042 65.7576C36.9825 62.284 37.0695 59.1996 37.1739 58.8799C37.348 58.3826 38.1628 58.3066 42.4871 58.2796L47.5912 58.2477L47.6377 65.6912ZM59.6891 65.6159L59.7359 73.0948L54.5247 73.021L49.2782 72.9475L49.1287 66.0363C49.0695 62.2439 49.0844 58.9473 49.1537 58.6987C49.2933 58.3434 50.6395 58.2286 54.5031 58.2045L59.6426 58.1724L59.6891 65.6159ZM71.5633 65.5417L71.6087 72.808L66.3989 72.9469L61.1537 73.086L61.1069 65.607L61.0602 58.1281L66.3068 58.2016L71.5179 58.2754L71.5633 65.5417ZM83.5362 58.5902C83.8242 59.2974 83.9013 71.6323 83.6222 72.343C83.448 72.8403 82.6332 72.9163 78.3089 72.9433L73.2048 72.9752L73.1583 65.5317L73.1118 58.0882L78.2159 58.0563C82.5402 58.0293 83.3559 58.0951 83.5362 58.5902Z" fill="white"/>
<path d="M35.6984 44.0016C32.3007 44.8381 28.3098 47.1671 25.6328 49.8778C22.9206 52.6241 21.3058 55.1509 20.0174 58.8454C19.2163 61.119 19.1153 61.9703 19.1397 65.8693C19.164 69.7683 19.2757 70.6183 20.1051 72.8817C22.1607 78.5049 26.0882 83.053 30.9956 85.5744C36.045 88.1305 35.4422 88.0988 60.3956 87.9429C84.8883 87.7899 85.0653 87.7533 89.3408 85.5998C101.177 79.4999 105.376 65.0824 98.5354 53.7822C95.7058 49.0855 89.9371 44.8679 84.6834 43.6601C81.4533 42.9359 38.8481 43.2021 35.6984 44.0016ZM60.9123 45.8291C60.8505 47.2828 60.6762 47.7447 60.2158 47.8185C59.6848 47.9281 59.5767 47.6452 59.5663 45.9793C59.5552 44.2071 59.6248 43.9939 60.2982 43.9897C60.9362 43.9857 61.0082 44.1625 60.9123 45.8291ZM37.1673 46.5092C37.1066 48.1401 36.9323 48.602 36.472 48.6758C35.9409 48.7854 35.8328 48.5025 35.8226 46.872C35.8102 44.8871 35.9496 44.4963 36.7648 44.4912C37.1547 44.4888 37.2287 44.9846 37.1673 46.5092ZM84.6653 46.4251C84.7831 48.2676 84.7135 48.4807 84.1458 48.3779C83.6489 48.2747 83.469 47.8504 83.3879 46.2204C83.27 44.3779 83.3396 44.1648 83.9074 44.2676C84.4043 44.3708 84.5842 44.795 84.6653 46.4251ZM82.7317 48.9893C88.9074 50.2623 94.3633 55.4743 95.7835 61.5268C96.2567 63.5088 96.2802 67.266 95.8318 69.2538C94.9013 73.5132 91.3149 78.1791 87.4645 80.2945C83.5783 82.3747 82.622 82.487 60.5042 82.6252C38.3864 82.7634 37.4287 82.6631 33.5169 80.6316C29.6403 78.5645 25.9958 73.9438 25.0123 69.6963C24.5391 67.7143 24.5156 63.9571 24.964 61.9692C26.3089 55.9704 31.6634 50.6199 37.7163 49.2706C41.0083 48.5411 79.3243 48.2662 82.7317 48.9893ZM37.4079 85.0027C37.5257 86.8452 37.4561 87.0583 36.8884 86.9555C36.3915 86.8523 36.2116 86.428 36.1305 84.798C36.0126 82.9555 36.0822 82.7424 36.65 82.8452C37.1469 82.9484 37.3268 83.3726 37.4079 85.0027ZM84.9031 84.4932C84.8424 86.1242 84.6681 86.5861 84.2077 86.6598C83.6767 86.7695 83.5686 86.4866 83.5584 84.8561C83.546 82.8712 83.6853 82.4804 84.5006 82.4753C84.8905 82.4729 84.9645 82.9687 84.9031 84.4932ZM61.1595 85.386C61.2762 87.0512 61.2064 87.2289 60.5684 87.2329C59.895 87.2371 59.8227 87.0249 59.8117 85.2526C59.8013 83.5867 59.9058 83.3025 60.4382 83.4055C60.8994 83.4735 61.0795 83.9332 61.1595 85.386Z" fill="white"/>
<path d="M42.1608 62.819C42.0212 63.1743 41.4592 63.9931 40.8604 64.5994L39.7687 65.7405L40.8387 66.7972C41.445 67.396 42.0524 68.1721 42.1614 68.5967C42.3781 69.2334 42.5192 69.1262 43.3967 67.7383C43.9228 66.8489 44.5914 66.0649 44.8741 65.9213C45.2629 65.7416 45.2624 65.6707 44.8714 65.496C44.587 65.3559 43.9087 64.5804 43.3714 63.6976C42.5126 62.3914 42.3345 62.2507 42.1608 62.819Z" fill="#EBC700"/>
<path d="M53.3975 62.8197C53.0455 63.2118 52.4119 63.9247 51.9894 64.3882C50.4398 65.9929 51.4462 68.2198 53.3917 67.5696C54.1702 67.352 54.1702 67.352 53.5734 68.2774L52.9766 69.2027L54.4298 69.1936L55.8831 69.1846L55.3104 68.302C54.738 67.4548 54.7378 67.4194 55.767 67.6256C57.7189 68.0034 58.5519 65.1624 56.6686 64.4298C56.3844 64.3252 56.1343 64.0078 56.1328 63.7597C56.1292 63.1925 54.9881 62.1008 54.421 62.1044C54.1729 62.1059 53.7141 62.4278 53.3975 62.8197Z" fill="#EBC700"/>
<path d="M63.5739 63.2879C62.9053 64.0719 63.4458 65.4864 65.051 67.1069L66.4427 68.5869L67.7099 67.1612C69.1532 65.557 69.6775 64.384 69.3891 63.606C69.1009 62.8634 67.5747 62.5539 66.9046 63.0898C66.5169 63.4467 66.2688 63.4483 65.9835 63.1665C65.3771 62.5677 64.1016 62.6465 63.5739 63.2879Z" fill="#EBC700"/>
<path d="M76.5477 63.384C75.4568 64.6669 74.9307 65.5564 74.9349 66.2299C74.9424 67.435 75.7267 68.139 76.895 67.919C77.78 67.7363 78.1013 68.0887 77.4305 68.5183C76.6538 69.0194 77.1524 69.4062 78.5702 69.3973C79.9526 69.3887 79.9878 69.353 79.4524 68.7538C78.7029 67.9432 78.6653 67.589 79.3757 67.8326C80.1575 68.1468 81.5725 67.6771 81.8168 67.073C82.1303 66.1849 81.162 64.3832 79.6285 62.904L78.2023 61.5659L76.5477 63.384Z" fill="#EBC700"/>
<path d="M77.1356 102.865C66.6445 106.176 55.2544 105.948 44.5908 102.212C42.3292 102.839 39.986 103.165 37.6178 103.18C45.0686 106.753 53.1091 108.67 61.194 108.802C69.2789 108.933 77.2191 107.276 84.4761 103.943C82.0133 103.811 79.5573 103.45 77.1383 102.863L77.1356 102.865Z" fill="#EBC700"/>
</g>
<defs>
<clipPath id="clip0_773_441">
<rect width="120" height="120" fill="white"/>
</clipPath>
</defs>
</svg>
