<?xml version="1.0" encoding="UTF-8"?>
<svg viewBox="0 0 28 28" version="1.1" xmlns="http://www.w3.org/2000/svg" xmlns:xlink="http://www.w3.org/1999/xlink">
    <title>icon/footer/gamcare</title>
    <g id="icon/footer/gamcare" stroke="none" stroke-width="1" fill="none" fill-rule="evenodd">
        <path d="M6.44765798,25.1851053 C6.40005224,26.2848501 5.68095497,27.0000341 4.7189849,27.0000341 C4.21436403,27.0000341 3.78090121,26.8006702 3.43813987,26.4065509 C3.15233838,26.0805362 3,25.6572292 3,25.1803261 C3,24.698473 3.18090182,24.2557075 3.52850726,23.9054551 C3.8570704,23.5693698 4.26196977,23.4039728 4.75706949,23.4039728 C5.44760331,23.4039728 5.98095467,23.7497873 6.24286977,24.3480499 L5.63819332,24.3480499 C5.41436281,24.0563435 5.09999787,23.9054551 4.7189849,23.9054551 C4.3999429,23.9054551 4.1047873,24.0315937 3.88095679,24.265266 C3.64276104,24.5132761 3.509632,24.8541407 3.509632,25.1851053 C3.509632,25.5500369 3.63323989,25.8808309 3.85239335,26.1145032 C4.085745,26.3625133 4.404787,26.5038432 4.7189849,26.5038432 C5.2286169,26.5038432 5.62850513,26.226304 5.88574318,25.6717377 L4.35233716,25.6717377 L4.35233716,25.1851053 L6.44765798,25.1851053 Z M8.01762855,24.1243116 L7.5317159,25.4379289 L8.49385301,25.4379289 L8.01762855,24.1243116 Z M6.9746452,26.9319636 L6.45549205,26.9319636 L7.7794328,23.4722823 L8.25565726,23.4722823 L9.57943098,26.9319636 L9.04140257,26.9319636 L8.66991074,25.9249026 L7.35565817,25.9249026 L6.9746452,26.9319636 Z M9.76410785,26.9319978 L9.76410785,23.4721457 L10.4925592,23.4721457 L11.4735716,26.1485384 L12.454584,23.4721457 L13.1736812,23.4721457 L13.1736812,26.9319978 L12.711822,26.9319978 L12.7450625,23.9295904 L11.6451193,26.9319978 L11.2975139,26.9319978 L10.2022477,23.9295904 L10.2354882,26.9319978 L9.76410785,26.9319978 Z M15.3388906,23.4041094 C16.129313,23.4041094 16.8053145,23.9346086 17.024468,24.7860019 L16.129313,24.7860019 C15.9484112,24.4453081 15.6768079,24.2654026 15.3435677,24.2654026 C14.8386127,24.2654026 14.4435686,24.6641305 14.4435686,25.1705627 C14.4435686,25.7203497 14.8626662,26.1436567 15.3293695,26.1436567 C15.6482444,26.1436567 15.9293689,25.9685305 16.1102707,25.6472951 L17.0102698,25.6472951 C16.7864393,26.4891299 16.1435112,27 15.3293695,27 C14.8290916,27 14.405317,26.8103653 14.0720768,26.450213 C13.7530348,26.1049105 13.5910082,25.6764828 13.5910082,25.1657834 C13.5910082,24.6888803 13.767233,24.2508941 14.1053173,23.9151502 C14.4387245,23.5790649 14.8579891,23.4041094 15.3388906,23.4041094 Z M18.9183246,23.4721457 L20.218379,26.9319978 L19.3040147,26.9319978 L19.1373111,26.4308569 L18.0184926,26.4308569 L17.8469449,26.9319978 L16.9421017,26.9319978 L18.2421561,23.4721457 L18.9183246,23.4721457 Z M18.5800733,24.6060282 L18.2421561,25.7153315 L18.9136476,25.7153315 L18.5800733,24.6060282 Z M21.2742076,25.0682521 C21.683784,25.0682521 21.8835611,24.9610599 21.8835611,24.6497244 C21.8835611,24.3624559 21.7076704,24.2460465 21.3408556,24.2460465 L21.112181,24.2460465 L21.112181,25.0682521 L21.2742076,25.0682521 Z M20.283674,26.9319978 L20.283674,23.4721457 L21.4075036,23.4721457 C21.7646302,23.4721457 22.0360665,23.4965541 22.2649081,23.6619511 C22.5649078,23.8759943 22.7219232,24.2020089 22.7219232,24.6302659 C22.7219232,25.1899529 22.4361217,25.6083099 21.9552202,25.7445192 L22.7837272,26.9319978 L21.7597861,26.9319978 L21.112181,25.8177445 L21.112181,26.9319978 L20.283674,26.9319978 Z M23.1590943,26.9319978 L23.1590943,23.4721457 L24.9971771,23.4721457 L24.9971771,24.2363173 L23.9876012,24.2363173 L23.9876012,24.7956629 L24.9971771,24.7956629 L24.9971771,25.564443 L23.9876012,25.564443 L23.9876012,26.1679969 L24.9971771,26.1679969 L24.9971771,26.9319978 L23.1590943,26.9319978 Z M24.3971944,13.9696031 C24.3063259,13.9172018 24.2061033,13.8816987 24.098698,13.8665074 C24.0733083,13.8622402 24.0482526,13.8612161 24.0226959,13.8586557 C24.0089988,13.857973 23.9959698,13.8545592 23.9821057,13.8545592 L23.943687,13.8545592 C23.9096113,13.8537058 23.8755357,13.8519989 23.841794,13.8545592 L17.2210881,13.8545592 C16.7525473,13.8545592 16.3727036,14.2425338 16.3727036,14.7211438 C16.3727036,15.1999245 16.7525473,15.5880697 17.2210881,15.5880697 L19.7933015,15.5880697 C19.8781566,15.5887525 19.9468091,15.6592467 19.9468091,15.7461271 C19.9468091,15.7963094 19.9209183,15.837616 19.8850052,15.8664623 C18.4747059,16.6360959 16.6606766,17.1027578 14.6759347,17.1027578 C14.1928617,17.1027578 13.7206462,17.0739115 13.2609584,17.0211688 L13.2609584,18.989205 C13.6615148,19.0190754 14.0679175,19.0361443 14.4806677,19.0361443 C17.24297,19.0361443 19.755885,18.3460514 21.6394021,17.2186551 L21.6399032,17.2212155 C21.6632885,17.2087552 21.6895134,17.2015863 21.7175757,17.2015863 C21.8097805,17.2015863 21.8844464,17.277884 21.8844464,17.3721039 C21.8844464,17.3893435 21.8812726,17.4057295 21.8762615,17.4217742 L21.48389,18.5107657 C21.2772643,19.0835956 21.5640681,19.7188975 22.1248136,19.9298683 C22.2482545,19.9766369 22.374535,19.998485 22.498811,19.998485 C22.9389553,19.998485 23.3525406,19.7219699 23.513732,19.2751079 L24.9335524,15.3369872 C25.1263139,14.80205 24.8857796,14.2172719 24.3971944,13.9696031 M14.6758846,6.53365222 C16.676328,6.53348154 18.5073952,7.0042399 19.9225385,7.78496823 C19.9225385,7.78496823 20.8212013,8.44587337 21.2488178,7.81142492 C21.7394075,7.08343927 20.7597315,6.63026181 20.7597315,6.63026181 C19.0036642,5.78654949 16.8316731,5.28762756 14.4806176,5.28762756 C14.0678674,5.28762756 13.6614647,5.30469639 13.2609083,5.33473753 L13.2609083,6.61541193 C13.7205961,6.56266924 14.1928116,6.53365222 14.6758846,6.53365222 M13.2608582,2 L13.2608582,5.33473753 C7.99549606,5.7280034 3.90574519,8.63363051 3.90574519,12.1619286 C3.90574519,15.690056 7.99549606,18.5958538 13.2608582,18.9891196 L13.2608582,18.9891196 L13.2608582,21.7372014 L4.50958645,21.7372014 C3.68358505,21.7372014 3.01359687,21.0530827 3.01359687,20.2086876 L3.01359687,20.2086876 L3.01359687,3.52868451 C3.01359687,2.68446013 3.68358505,2 4.50958645,2 L4.50958645,2 L13.2608582,2 Z M13.2608582,6.61541193 L13.2608582,17.0212541 C9.45122955,16.5851455 6.55579818,14.4223539 6.55579818,11.818333 C6.55579818,9.21397077 9.45122955,7.05134987 13.2608582,6.61541193 L13.2608582,6.61541193 Z" id="Combined-Shape" fill="#FFFFFF"></path>
    </g>
</svg>