<?xml version="1.0" encoding="UTF-8"?>
<svg viewBox="0 0 28 28" version="1.1" xmlns="http://www.w3.org/2000/svg" xmlns:xlink="http://www.w3.org/1999/xlink">
    <title>icon/footer/responsible-gambling</title>
    <g id="icon/footer/responsible-gambling" stroke="none" stroke-width="1" fill="none" fill-rule="evenodd">
        <path d="M8.29921234,1.50006561 C12.1115465,1.52250741 15.9241538,1.52002134 19.7365562,1.50158296 C20.6868059,1.49702516 21.3383101,1.85736763 21.8159615,2.70850234 C23.7252014,6.11062415 25.6723393,9.49106189 27.6026791,12.8810986 C27.7214945,13.0897906 27.8448166,13.3031095 27.9165838,13.5302399 C28.0362869,13.9088136 28.0431837,14.2813102 27.83075,14.6549117 C25.8231119,18.185895 23.8106938,21.714254 21.8339887,25.262847 C21.3457532,26.1393258 20.681548,26.5152062 19.7023456,26.4995302 C17.8022558,26.4692139 15.9013467,26.4906908 14.000779,26.4906908 C12.0774724,26.4906908 10.1540293,26.4757053 8.23092765,26.4971132 C7.30724068,26.5074027 6.6698714,26.1440908 6.20539895,25.3188527 C4.28639435,21.9091345 2.33119888,18.5202718 0.400722458,15.117045 C0.229805883,14.8157468 0.108190853,14.4748786 0.0244055408,14.1369798 C-0.0551461209,13.8164836 0.0712488369,13.5191907 0.237931761,13.2263865 C2.22474305,9.73649253 4.21503686,6.24846309 6.16934463,2.73992354 C6.65717044,1.86406622 7.31939535,1.49433192 8.29921234,1.50006561 Z M19.5198206,3.01120832 C17.6876058,3.0296201 15.8551179,3.01850183 14.0227666,3.01857088 C12.1448694,3.01857088 10.2669722,3.0232668 8.38914328,3.01497989 C7.96099828,3.01311533 7.65924824,3.16372992 7.43943983,3.5505905 C5.54611028,6.88310227 3.64492799,10.2109872 1.73964862,13.5365241 C1.55302657,13.8621997 1.5586942,14.1480981 1.74476998,14.4727378 C3.63345617,17.7680966 5.52036696,21.0644912 7.39007,24.3708302 C7.64402076,24.8198426 7.96837303,24.9889646 8.46548556,24.9874558 C12.1415917,24.976258 15.8176979,24.9759127 19.4938041,24.9874558 C20.0304535,24.9891027 20.3779543,24.7940151 20.6493176,24.3137886 C22.5009935,21.0367991 24.3706283,17.7700993 26.2429261,14.5050567 C26.4417029,14.1583877 26.4510579,13.8587468 26.2494132,13.5073818 C24.3644144,10.2230723 22.4824884,6.93682907 20.6201601,3.6393295 C20.3586297,3.17616029 20.0302486,3.00620958 19.5198206,3.01120832 Z M19.2436227,3.98153054 C19.5980885,3.9802875 19.8010306,4.09692576 19.9761808,4.40575127 C21.7303462,7.50015249 23.4955737,10.5882004 25.2646251,13.6739004 C25.3944343,13.9004093 25.4015359,14.084724 25.271317,14.3122687 C23.4872429,17.4289755 21.7078122,20.5484446 19.933298,23.6706761 C19.7914707,23.9201121 19.6133843,24.0174142 19.3278177,24.0158259 C17.5410806,24.0055363 15.7542751,24.0105775 13.9674697,24.0106466 C12.2148749,24.0106466 10.4622118,24.003948 8.70968526,24.0168975 C8.39659996,24.0191406 8.20765623,23.912792 8.05271827,23.6398764 C6.29083675,20.5367739 4.52260475,17.4374005 2.74809056,14.3416872 C2.60353187,14.089627 2.61370629,13.8913627 2.75655786,13.642272 C4.51550314,10.5772203 6.26987335,7.50947527 8.01058662,4.4338577 C8.19966692,4.09975712 8.41722194,3.97952787 8.79613367,3.98103294 C12.2785845,3.99492771 15.7611719,3.99423713 19.2436227,3.98153054 Z M14.5155226,5.98413138 C14.1279387,5.96237824 13.8042693,6.21043308 13.7064856,6.63106281 C13.6653782,6.80785022 13.6564329,6.99547968 13.6560915,7.17820604 C13.6526773,9.07784203 13.654043,10.977478 13.6539064,12.877114 C13.6539064,12.9692368 13.648785,13.0615668 13.6536333,13.1534134 C13.6644222,13.359205 13.5696431,13.4360661 13.3684081,13.4429028 C12.9705132,13.4564381 12.9237382,13.4205972 12.9234651,13.0005199 C12.9225091,11.4693061 12.9278353,9.93802328 12.9180706,8.40687855 C12.9165,8.15799503 12.8807872,7.89985778 12.80663,7.66333556 C12.7072075,7.34643031 12.4557833,7.18704541 12.1245342,7.19284625 C11.7966312,7.19857803 11.5509429,7.35354324 11.4511789,7.67673273 C11.3909518,7.87168229 11.3476593,8.08092676 11.3461571,8.28402511 C11.334617,9.87276386 11.3310662,11.4615026 11.3355047,13.0502414 C11.3362558,13.31487 11.2817646,13.4498776 10.9792634,13.4487727 C10.6833859,13.4477368 10.6473999,13.3036136 10.649585,13.0622574 C10.6570963,12.2218266 10.6608519,11.3812577 10.6478778,10.540965 C10.6428931,10.2208831 10.6118918,9.89693402 10.5509819,9.58299825 C10.4833118,9.23432651 10.2246494,9.06996946 9.88745956,9.03675277 C9.55580083,9.00401947 9.24271554,9.18419071 9.12977266,9.5078636 C9.059576,9.70909739 9.02591165,9.93318925 9.02420453,10.1474059 C9.01464468,11.379186 9.01956117,12.6111042 9.01956117,13.8430224 C9.01956117,15.063408 9.01088902,16.2838627 9.02249742,17.5041102 C9.03082815,18.3874948 9.19751107,19.2438088 9.55689339,20.0528184 C10.1195592,21.3193344 11.1535943,21.9133678 12.4595389,22.1240624 C14.8886301,22.5159642 16.9154562,21.7845063 18.246598,19.5886133 C19.356907,17.7568609 20.617374,16.0186125 21.7906416,14.225049 C21.9218847,14.0244367 21.9998658,13.720238 21.9625141,13.4869615 C21.8380311,12.7095112 20.9805803,12.4244415 20.3894398,12.962262 C19.7300145,13.5623033 19.1100578,14.2064725 18.4601242,14.817563 C18.3505272,14.920666 18.176333,14.9535374 18.0319792,15.0187968 C17.9909401,14.8731544 17.9148027,14.72765 17.9141881,14.5818004 L17.9085802,11.6633148 L17.9085802,11.6633148 L17.9084522,8.74477731 C17.9083839,8.59512952 17.9115933,8.44465305 17.8974583,8.29611019 C17.8562144,7.86512182 17.5349349,7.52231998 17.1177838,7.45312428 C16.7345018,7.38952224 16.3060837,7.61955305 16.1549014,8.01214541 C16.0786957,8.20999539 16.0437339,8.43588274 16.0423682,8.64940878 C16.0329449,10.1230285 16.0334912,11.5967174 16.0407977,13.0704062 C16.0420951,13.3281291 15.9699864,13.4423503 15.6935017,13.4478749 C15.3928443,13.4538829 15.2999771,13.3458078 15.3014794,13.0463051 C15.3113806,11.066148 15.306669,9.08585271 15.3060544,7.10562652 C15.3059861,6.97911303 15.3118586,6.85094216 15.2946509,6.72643133 C15.2372235,6.31098092 14.9124615,6.00643698 14.5155226,5.98413138 Z" id="Combined-Shape" fill="#FFFFFF"></path>
    </g>
</svg>