<?xml version="1.0" encoding="UTF-8"?>
<svg width="35px" height="35px" viewBox="0 0 35 35" version="1.1" xmlns="http://www.w3.org/2000/svg" xmlns:xlink="http://www.w3.org/1999/xlink">
    <g stroke="none" stroke-width="1" fill="none" fill-rule="evenodd">
        <g id="icon-total" transform="translate(-0.000000, 0.000000)" fill="#FFFFFF" fill-rule="nonzero">
            <path d="M22.6418403,17.2545139 C25.6123292,17.2545139 28.0291667,19.6713514 28.0291667,22.6418403 C28.0291667,25.6123292 25.6123292,28.0291667 22.6418403,28.0291667 C19.6713514,28.0291667 17.2545139,25.6123292 17.2545139,22.6418403 C17.2545139,19.6713514 19.6713514,17.2545139 22.6418403,17.2545139 Z M22.6418403,18.0833333 C20.1280309,18.0833333 18.0833333,20.1288597 18.0833333,22.6418403 C18.0833333,25.1548208 20.1280309,27.2003472 22.6418403,27.2003472 C25.1556497,27.2003472 27.2003472,25.1548208 27.2003472,22.6418403 C27.2003472,20.1288597 25.1556497,18.0833333 22.6418403,18.0833333 Z M23.0351213,19.4923264 L23.0351213,19.9078368 C23.4397238,19.910799 23.836752,20.0144605 24.1881132,20.2088755 L23.9654665,20.7724287 C23.6278973,20.5778276 23.2416002,20.4769213 22.848825,20.4807459 C22.1672535,20.4807459 21.9093923,20.8758935 21.9093923,21.2193088 C21.9093923,21.6656385 22.2371145,21.8890785 23.0084264,22.1983723 C23.9211644,22.5588483 24.3823612,23.0057283 24.3823612,23.7701574 C24.3677127,24.5315872 23.7643918,25.1605099 22.9817315,25.2302225 L22.9817315,25.7057206 L22.4234108,25.7084722 L22.4234108,25.2588404 C21.9438548,25.2571908 21.4742312,25.1262795 21.0670833,24.8807535 L21.2795065,24.3050927 C21.6597199,24.5443568 22.1029599,24.6725515 22.5563173,24.6743742 C23.185635,24.6743742 23.6110493,24.3221534 23.6110493,23.8328967 C23.6110493,23.3607008 23.2651517,23.0684677 22.6091391,22.8109063 C21.7054888,22.467491 21.147168,22.0723433 21.147168,21.324975 C21.1585546,20.5986405 21.7380068,19.9997609 22.4853202,19.9419582 L22.4853202,19.4923264 L23.0351213,19.4923264 Z M15.1824653,8.1375 C16.1836792,8.1375 17.019958,8.85028472 17.2130729,9.79513886 L18.497743,9.79513886 C18.7264972,9.79513886 18.9121528,9.98079448 18.9121528,10.2095486 L18.91155,10.6239583 L20.155382,10.6239583 C21.2974951,10.6239583 22.2274305,11.5530649 22.2274305,12.696007 L22.2274305,15.1824653 C22.2274305,15.4112195 22.041775,15.596875 21.8130208,15.596875 C21.5842667,15.596875 21.3986112,15.4112195 21.3986112,15.1824653 L21.3986112,12.696007 C21.3986112,12.0105732 20.8408156,11.4527778 20.155382,11.4527778 L18.91155,11.452175 L18.9121528,11.8671875 C18.9121528,12.5526212 18.3543573,13.1104167 17.6689237,13.1104167 L12.696007,13.1104167 C12.0105732,13.1104167 11.4527778,12.5526212 11.4527778,11.8671875 L11.452175,11.452175 L10.2095486,11.4527778 C9.52411491,11.4527778 8.96631945,12.0105732 8.96631945,12.696007 L8.96631945,23.4706597 C8.96631945,24.1560934 9.52411491,24.7138889 10.2095486,24.7138889 L16.0112847,24.7138889 C16.2400389,24.7138889 16.4256945,24.8995445 16.4256945,25.1282987 C16.4256945,25.3570528 16.2400389,25.5427083 16.0112847,25.5427083 L10.2095486,25.5427083 C9.06743542,25.5427083 8.1375,24.6136018 8.1375,23.4706597 L8.1375,12.696007 C8.1375,11.5530649 9.06743542,10.6239583 10.2095486,10.6239583 L11.452175,10.6239583 L11.4527778,10.2095486 C11.4527778,9.98079448 11.6384333,9.79513886 11.8671875,9.79513886 L13.1518576,9.79513886 C13.3449726,8.85028472 14.1812514,8.1375 15.1824653,8.1375 Z M15.1824653,19.7409722 C15.4112195,19.7409722 15.596875,19.9266278 15.596875,20.155382 C15.596875,20.3841362 15.4112195,20.5697917 15.1824653,20.5697917 L11.038368,20.5697917 C10.8096139,20.5697917 10.6239583,20.3841362 10.6239583,20.155382 C10.6239583,19.9266278 10.8096139,19.7409722 11.038368,19.7409722 L15.1824653,19.7409722 Z M16.8401042,17.2545139 C17.0688583,17.2545139 17.2545139,17.4401695 17.2545139,17.6689237 C17.2545139,17.8976778 17.0688583,18.0833333 16.8401042,18.0833333 L11.038368,18.0833333 C10.8096139,18.0833333 10.6239583,17.8976778 10.6239583,17.6689237 C10.6239583,17.4401695 10.8096139,17.2545139 11.038368,17.2545139 L16.8401042,17.2545139 Z M19.3265625,14.7680555 C19.5553167,14.7680555 19.7409722,14.9537111 19.7409722,15.1824653 C19.7409722,15.4112195 19.5553167,15.596875 19.3265625,15.596875 L11.038368,15.596875 C10.8096139,15.596875 10.6239583,15.4112195 10.6239583,15.1824653 C10.6239583,14.9537111 10.8096139,14.7680555 11.038368,14.7680555 L19.3265625,14.7680555 Z M15.1824653,8.96631945 C14.4970316,8.96631945 13.9392361,9.52411491 13.9392361,10.2095486 C13.9392361,10.4383028 13.7535805,10.6239583 13.5248264,10.6239583 L12.2815972,10.6239583 L12.2815972,11.8671875 C12.2815972,12.0951128 12.4672528,12.2815972 12.696007,12.2815972 L17.6689237,12.2815972 C17.8976778,12.2815972 18.0833333,12.0951128 18.0833333,11.8671875 L18.0833333,10.6239583 L16.8401042,10.6239583 C16.61135,10.6239583 16.4256945,10.4383028 16.4256945,10.2095486 C16.4256945,9.52411491 15.867899,8.96631945 15.1824653,8.96631945 Z"></path>
        </g>
    </g>
</svg>