<?xml version="1.0" encoding="UTF-8"?>
<svg width="35px" height="35px" viewBox="0 0 35 35" version="1.1" xmlns="http://www.w3.org/2000/svg" xmlns:xlink="http://www.w3.org/1999/xlink">
    <g stroke="none" stroke-width="1" fill="none" fill-rule="evenodd">
        <path d="M23.4988995,10.7916667 C24.658124,10.7916667 25.6362197,11.7335366 25.6362197,12.9289868 L25.6362197,23.108427 C25.5999939,24.3038773 24.658124,25.2457472 23.4988995,25.2457472 L11.5443969,25.2457472 C10.3851724,25.2457472 9.40707669,24.3038773 9.40707669,23.108427 L9.40707669,20.9711068 C9.40707669,20.6813007 9.62443128,20.4639461 9.91423741,20.4639461 C10.2040435,20.4639461 10.4213981,20.6813007 10.4213981,20.9711068 L10.4213981,23.108427 C10.4213981,23.724265 10.9285588,24.2314257 11.5443969,24.2314257 L23.4988995,24.2314257 C24.1147375,24.2314257 24.6218983,23.724265 24.6218983,23.108427 L24.6210767,16.1886667 L10.4210767,16.1886667 L10.4213981,16.8775953 C10.4213981,17.1674014 10.2040435,17.384756 9.91423741,17.384756 C9.62443128,17.384756 9.40707669,17.1674014 9.40707669,16.8775953 L9.40707669,12.9289868 C9.40707669,11.7697623 10.3489466,10.7916667 11.5443969,10.7916667 L23.4988995,10.7916667 Z M22.339675,21.3333645 C22.6294812,21.3333645 22.8468357,21.5507191 22.8468357,21.8405252 C22.8468357,22.1303313 22.6294812,22.3476859 22.339675,22.3476859 L16.9058102,22.3476859 C16.6160041,22.3476859 16.3986495,22.1303313 16.3986495,21.8405252 C16.3986495,21.5507191 16.6160041,21.3333645 16.9058102,21.3333645 L22.339675,21.3333645 Z M9.91423741,17.7832394 C10.2040435,17.7832394 10.4213981,18.000594 10.4213981,18.2904002 L10.4213981,19.5220762 C10.4213981,19.8118823 10.1678178,20.0292369 9.91423741,20.0292369 C9.62443128,20.0292369 9.40707669,19.8118823 9.40707669,19.5220762 L9.40707669,18.2904002 C9.40707669,18.000594 9.62443128,17.7832394 9.91423741,17.7832394 Z M23.4988995,11.8059881 L11.5443969,11.8059881 C10.9285588,11.8059881 10.4213981,12.3131488 10.4213981,12.9289868 L10.4210767,15.1746667 L24.6210767,15.1746667 L24.6218983,12.9289868 C24.6218983,12.3131488 24.1147375,11.8059881 23.4988995,11.8059881 Z M12.3051379,12.4218261 C12.5224925,12.4218261 12.6673956,12.5667292 12.6673956,12.7840838 L12.6670767,13.0736667 L12.920976,13.0738899 C13.1383306,13.0738899 13.2832336,13.218793 13.2832336,13.4361476 C13.2832336,13.6535022 13.1383306,13.7984052 12.920976,13.7984052 L12.6670767,13.7976667 L12.6673956,14.0519856 C12.6673956,14.2693402 12.4862668,14.4142432 12.3051379,14.4142432 C12.0877833,14.4142432 11.9428803,14.2693402 11.9428803,14.0519856 L11.9420767,13.7976667 L11.6530742,13.7984052 C11.4357196,13.7984052 11.2908165,13.6535022 11.2908165,13.4361476 C11.2908165,13.218793 11.4357196,13.0738899 11.6530742,13.0738899 L11.9420767,13.0736667 L11.9428803,12.7840838 C11.9428803,12.5667292 12.0877833,12.4218261 12.3051379,12.4218261 Z" fill="#FFFFFF" fill-rule="nonzero"></path>
    </g>
</svg>