<?xml version="1.0" encoding="utf-8"?>
<!-- Generator: Adobe Illustrator 25.4.1, SVG Export Plug-In . SVG Version: 6.00 Build 0)  -->
<svg version="1.1" id="email" xmlns="http://www.w3.org/2000/svg" xmlns:xlink="http://www.w3.org/1999/xlink" x="0px" y="0px"
	 viewBox="0 0 40 40" style="enable-background:new 0 0 40 40;" xml:space="preserve">
<style type="text/css">
	.st0{fill:none;stroke:#000000;stroke-linecap:round;stroke-linejoin:round;}
</style>
<path id="Shape" class="st0" d="M11.1,15.3l7.9,4.3c0.6,0.3,1.3,0.3,1.9,0l7.9-4.2c0.5-0.3,1-1.4,0.1-1.4H11.1
	C10.1,13.9,10.6,15,11.1,15.3z M29.1,17.6L21,21.9c-0.6,0.3-1.3,0.3-1.9,0l-8.1-4.2c-0.4-0.2-0.4,0-0.4,0.2v7.7
	c0.1,0.5,0.5,1,1.1,1.1h16.9c0.5-0.1,1-0.5,1.1-1.1v-7.7C29.5,17.6,29.5,17.4,29.1,17.6L29.1,17.6z"/>
</svg>
