<?xml version="1.0" encoding="utf-8"?>
<!-- Generator: Adobe Illustrator 25.4.1, SVG Export Plug-In . SVG Version: 6.00 Build 0)  -->
<svg version="1.1" id="facebook-messenger" xmlns="http://www.w3.org/2000/svg" xmlns:xlink="http://www.w3.org/1999/xlink" x="0px"
	 y="0px" viewBox="0 0 40 40" style="enable-background:new 0 0 40 40;" xml:space="preserve">
<path d="M20,7.4C13.1,7.4,7.5,13,7.5,19.9c0,2.9,1,5.6,2.8,7.9c-0.5,1.3-1.4,2.4-2.5,3.3c-0.3,0.2-0.3,0.6-0.1,0.8
	C7.8,32,7.8,32,7.9,32.1c0.9,0.3,1.8,0.5,2.8,0.5c1.5,0,3-0.4,4.3-1.1c6.3,2.8,13.7-0.1,16.5-6.5c2.8-6.3-0.1-13.7-6.5-16.5
	C23.5,7.8,21.7,7.4,20,7.4z M20,31.3c-1.6,0-3.3-0.3-4.7-1c-0.2-0.1-0.4-0.1-0.6,0c-1.2,0.7-2.6,1.1-4,1.1c-0.5,0-0.9,0-1.4-0.1
	c1-0.9,1.7-2.1,2.1-3.4c0.1-0.2,0-0.4-0.1-0.6c-4.1-4.8-3.5-11.9,1.2-16s11.9-3.5,16,1.2s3.5,11.9-1.2,16
	C25.3,30.3,22.7,31.3,20,31.3z"/>
<path d="M23.3,16.2h-1.6v-0.5v-0.1h1.6c0.3,0,0.6-0.3,0.6-0.6v-2.4c0-0.3-0.3-0.6-0.6-0.6h-2.2c-1.8-0.1-3.4,1.2-3.5,3.1
	c0,0.2,0,0.3,0,0.5v0.7h-0.8c-0.3,0-0.6,0.3-0.6,0.6v2.8c0,0.3,0.3,0.6,0.6,0.6h0.8v6.4c0,0.3,0.3,0.6,0.6,0.6H21
	c0.3,0,0.6-0.3,0.6-0.6v-6.4h1.5c0.3,0,0.5-0.2,0.6-0.5l0.2-2.8c0-0.2,0-0.3-0.1-0.4C23.7,16.3,23.5,16.2,23.3,16.2z M22.6,19H21
	c-0.3,0-0.6,0.3-0.6,0.6V26h-1.6v-6.4c0-0.3-0.3-0.6-0.6-0.6h-0.8v-1.6h0.8c0.3,0,0.6-0.3,0.6-0.6v-1.3c-0.1-1.2,0.8-2.2,2-2.4
	c0.1,0,0.3,0,0.4,0h1.6v1.2h-1c-0.7,0-1.2,0.5-1.2,1.2v0.1v1.1c0,0.3,0.3,0.6,0.6,0.6h1.6L22.6,19z"/>
</svg>
