<?xml version="1.0" encoding="utf-8"?>
<!-- Generator: Adobe Illustrator 25.2.1, SVG Export Plug-In . SVG Version: 6.00 Build 0)  -->
<svg version="1.1" xmlns="http://www.w3.org/2000/svg" xmlns:xlink="http://www.w3.org/1999/xlink" x="0px" y="0px"
	 viewBox="0 0 35 35" style="enable-background:new 0 0 35 35;" xml:space="preserve">
<style type="text/css">
	.st0{fill-rule:evenodd;clip-rule:evenodd;fill:#FFFFFF;}
</style>
<g>
	<path id="Fill-18" class="st0" d="M13,23.3h2.8c-0.2-0.6-0.7-1-1.4-1C13.7,22.3,13.1,22.7,13,23.3 M16.2,24.2h-3.8
		c-0.3,0-0.4-0.2-0.4-0.4c0-1.3,1-2.3,2.3-2.3c1.3,0,2.3,1,2.3,2.3C16.6,24,16.5,24.2,16.2,24.2 M14.2,16.3c-0.3,0-0.5-0.3-0.5-0.5
		c0-0.3,0.2-0.5,0.5-0.5c0.1,0,0.8,0,1.2-0.6c0.4-0.5,0.3-1,0.3-1.2c0-0.3,0.1-0.6,0.5-0.6c0.3,0,0.6,0.1,0.6,0.4
		c0,0.3,0.1,1.2-0.5,2C15.5,16.3,14.4,16.3,14.2,16.3 M12.1,20c-3.1,0.8-5.2,3.3-5.2,5.9c0,1.3,3.4,2.3,7.7,2.3s7.7-1,7.7-2.3
		c0-2.7-2.1-5.1-5.2-5.9c-0.3,0.2-0.5,0.3-0.7,0.4C14.9,21.1,13.4,20.9,12.1,20 M14.6,29.1c-2.2,0-4.2-0.3-5.7-0.7
		C6.5,27.7,6,26.7,6,25.9c0-3.2,2.5-5.9,6.1-6.8c0.1,0,0.3,0,0.4,0.1c1,0.8,2.3,0.9,3.4,0.4c0.3-0.1,0.5-0.3,0.7-0.4
		c0.1-0.1,0.3-0.1,0.4-0.1c3.6,0.9,6.1,3.7,6.1,6.8C23.1,28.3,18.5,29.1,14.6,29.1 M16.1,9.6c-1.3,0-2.6,0.1-3.2,0.3
		c-1,0.4-1.8,1.2-2.2,2.2c-0.4,1-0.4,2.1,0.1,3.1c0.4,1,1.2,1.8,2.2,2.2c1,0.4,2.1,0.4,3.1,0c1.7-0.7,1.9-2.2,2.2-4.3
		c0-0.2,0.1-0.5,0.1-0.7c0,0,0-0.1,0.1-0.3c0.4-1.4,0.4-2,0.4-2.2C18.5,9.7,17.3,9.6,16.1,9.6 M14.5,18.9c-0.7,0-1.3-0.1-1.9-0.4
		c-1.3-0.5-2.3-1.5-2.9-2.7c-0.6-1.3-0.6-2.7-0.1-4c0.5-1.3,1.5-2.3,2.7-2.9c1.3-0.5,6.7-0.6,7.4,0.1c0.4,0.4,0.3,1.2-0.2,3.3
		c0,0.1,0,0.2-0.1,0.3c0,0.3-0.1,0.5-0.1,0.7c-0.3,2.2-0.6,4.2-2.9,5.2C15.9,18.7,15.2,18.9,14.5,18.9"/>
	<path class="st0" d="M16.8,7.6c0.7-0.9,1.8-1.5,3-1.5c2.2,0,3.9,1.8,3.9,3.9c0,2-1.6,3.7-3.5,3.9c-0.1,0.3-0.1,0.7-0.2,1
		c2.6-0.1,4.7-2.3,4.7-4.9c0-2.7-2.2-4.9-4.9-4.9c-1.8,0-3.4,1-4.3,2.5C16,7.6,16.4,7.6,16.8,7.6z"/>
	<path class="st0" d="M22.4,15.5c-0.1,0-0.3,0-0.4,0.1c-0.2,0.2-0.5,0.3-0.7,0.4c-0.5,0.2-1.1,0.3-1.6,0.3c-0.1,0.3-0.2,0.6-0.4,0.9
		c0.8,0.1,1.6,0,2.4-0.3c0.3-0.1,0.5-0.2,0.7-0.4c3.1,0.8,5.2,3.2,5.2,5.9c0,0.9-1.5,1.6-3.8,2c0.1,0.3,0.1,0.6,0.2,0.9
		c2.5-0.4,4.6-1.3,4.6-2.9C28.5,19.1,26,16.4,22.4,15.5z"/>
</g>
</svg>
