<?xml version="1.0" encoding="utf-8"?>
<!-- Generator: Adobe Illustrator 25.4.1, SVG Export Plug-In . SVG Version: 6.00 Build 0)  -->
<svg version="1.1" id="instagram" xmlns="http://www.w3.org/2000/svg" xmlns:xlink="http://www.w3.org/1999/xlink" x="0px" y="0px"
	 viewBox="0 0 40 40" style="enable-background:new 0 0 40 40;" xml:space="preserve">
<style type="text/css">
	.st0{fill:none;stroke:#000000;stroke-miterlimit:10;}
</style>
<circle cx="26" cy="14.1" r="1.4"/>
<path d="M20,14.5c-3.1,0-5.7,2.5-5.7,5.7s2.5,5.7,5.7,5.7s5.7-2.5,5.7-5.7C25.7,17,23.1,14.5,20,14.5z M20,23.8
	c-2,0-3.6-1.6-3.6-3.6s1.6-3.6,3.6-3.6s3.6,1.6,3.6,3.6c0,0,0,0,0,0C23.6,22.2,22,23.8,20,23.8z"/>
<path class="st0" d="M15.4,10.7h9.1c2.6,0,4.8,2.1,4.8,4.8v9.1c0,2.6-2.1,4.8-4.8,4.8h-9.1c-2.6,0-4.8-2.1-4.8-4.8v-9.1
	C10.7,12.8,12.8,10.7,15.4,10.7z"/>
</svg>
