<?xml version="1.0" encoding="UTF-8"?>
<svg width="35px" height="35px" viewBox="0 0 35 35" version="1.1" xmlns="http://www.w3.org/2000/svg" xmlns:xlink="http://www.w3.org/1999/xlink">
    <g stroke="none" stroke-width="1" fill="none" fill-rule="evenodd">
        <g transform="translate(7.884222, 10.329744)" fill="#FFFFFF" fill-rule="nonzero">
            <path d="M16.6105885,0.379605028 L3.5555095,0.379605028 C2.5330383,0.379605028 1.70121329,1.16350168 1.70121329,2.12671348 L1.70121329,10.7852273 C1.70121329,11.7484217 2.53301982,12.5323358 3.5555095,12.5323358 L16.6105701,12.5323358 C17.6330043,12.5323358 18.4648663,11.7484217 18.4648663,10.7852273 L18.4648663,2.12671348 C18.4648663,1.16350168 17.6330413,0.379605028 16.6105885,0.379605028 Z M3.53832977,1.38315814 L16.6032979,1.38315814 C17.0160217,1.38315814 17.3524439,1.71006188 17.3524439,2.11216536 L17.3524439,2.14559747 L10.7989611,6.78090453 C10.4110178,7.05518465 9.7305729,7.0554727 9.34264808,6.78059847 L2.78918384,2.14529141 L2.78918384,2.11216536 C2.78918384,1.71004387 3.12556904,1.38315814 3.53832977,1.38315814 Z M3.53832977,11.6704614 C3.12556904,11.6704614 2.78918384,11.335239 2.78918384,10.9228436 L2.80960592,3.31166753 L8.69144036,7.42105528 C9.07810766,7.70168428 9.57478901,7.8423311 10.0708231,7.8423311 C10.5668572,7.8423311 11.0635386,7.70199814 11.4501689,7.4213876 L17.3728659,3.31201831 L17.3524439,10.9228251 C17.3524439,11.335202 17.0160217,11.6704614 16.6032979,11.6704614 L3.53832977,11.6704614 Z" id="Shape"></path>
        </g>
    </g>
</svg>