<?xml version="1.0" encoding="UTF-8"?>
<svg width="35px" height="35px" viewBox="0 0 35 35" version="1.1" xmlns="http://www.w3.org/2000/svg" xmlns:xlink="http://www.w3.org/1999/xlink">
    <g stroke="none" stroke-width="1" fill="none" fill-rule="evenodd">
        <path d="M19.8168737,18.1576454 C23.4032245,19.0632895 25.9390281,21.8526735 25.9390281,25.0043151 C25.9390281,27.3952156 21.3383559,28.2284083 17.3897474,28.2284083 C15.2162015,28.2284083 13.1875586,27.9748279 11.6660765,27.5038929 C9.31140169,26.7793776 8.80424097,25.7650562 8.80424097,25.0043151 C8.80424097,21.8164477 11.267593,19.0632895 14.9263954,18.1576454 C15.0712984,18.1214196 15.1799757,18.1576454 15.288653,18.2300969 C16.2667487,18.990838 17.5708763,19.1357411 18.7301008,18.6648061 C18.9836811,18.5561288 19.2372615,18.4112258 19.4546161,18.2300969 C19.5632934,18.1576454 19.7081964,18.1214196 19.8168737,18.1576454 Z M19.780648,19.0995153 C19.5270676,19.2806441 19.309713,19.3893214 19.0561327,19.4979987 C17.7157793,20.1138368 16.1580714,19.9327079 14.9263954,19.0995153 C11.8472053,19.9327079 9.67365935,22.3598342 9.67365935,25.0043151 C9.67365935,26.3084427 13.0426556,27.3227641 17.3535217,27.3227641 C21.6643878,27.3227641 25.033384,26.3084427 25.033384,25.0043151 C25.033384,22.3236085 22.8960638,19.9327079 19.780648,19.0995153 Z M17.1361671,20.4760944 C18.4040689,20.4760944 19.4546161,21.5266416 19.4546161,22.8307692 C19.4546161,23.0481238 19.2734872,23.2654784 19.0199069,23.2654784 L15.2524273,23.2654784 C14.9988469,23.2654784 14.8177181,23.0843495 14.8177181,22.8307692 C14.8177181,21.5266416 15.8682653,20.4760944 17.1361671,20.4760944 Z M17.1723928,21.3455128 C16.5203291,21.3455128 15.9407168,21.780222 15.759588,22.39606 L18.5489719,22.39606 C18.3678431,21.780222 17.8244566,21.3455128 17.1723928,21.3455128 Z M22.6062577,8.08688255 C22.9685153,8.48536598 22.8960638,9.28233282 22.4251289,11.3472015 C22.3889031,11.4558788 22.3889031,11.5645561 22.3526773,11.6007818 C22.3164516,11.8543622 22.2802258,12.0717168 22.244,12.2890714 C21.9179681,14.5350688 21.5919362,16.4912602 19.3821645,17.4693559 C18.7301008,17.759162 18.0418112,17.904065 17.3172959,17.904065 C16.6652321,17.904065 16.0131683,17.7953877 15.3973303,17.5418074 C14.0932028,17.0346467 13.1151071,16.056551 12.5354948,14.7886492 C11.9558826,13.5207474 11.9558826,12.1079425 12.4630433,10.803815 C12.970204,9.49968741 13.9482997,8.52159174 15.2162015,7.94197949 C16.4841033,7.43481877 21.9179681,7.28991571 22.6062577,8.08688255 Z M18.8750038,8.63026904 C17.5708763,8.63026904 16.2305229,8.73894634 15.6871364,8.95630093 C14.672815,9.39101012 13.9120739,10.187977 13.5135905,11.2022984 C13.1151071,12.2166198 13.1513328,13.3033928 13.586042,14.3177142 C14.0207512,15.3320357 14.8177181,16.0927768 15.8320395,16.4912602 C16.8463609,16.8897436 17.9693597,16.8897436 18.9474554,16.4550344 C20.6138406,15.7305191 20.8311952,14.2814885 21.1572271,12.1079425 C21.1934528,11.8905879 21.2296786,11.6370076 21.2659044,11.3834272 C21.2659044,11.3472015 21.3021301,11.2385242 21.3383559,11.0573953 C21.7006135,9.64459048 21.7368393,9.06497823 21.7368393,8.81139787 C21.3021301,8.70272057 20.1066799,8.63026904 18.8750038,8.63026904 Z M19.5632934,12.3615229 C19.5995191,12.6151033 19.7081964,13.5569732 19.0561327,14.3901658 C18.3316173,15.2958099 17.2448444,15.3682615 17.0274898,15.3682615 C16.7376836,15.3682615 16.4841033,15.1146811 16.4841033,14.824875 C16.4841033,14.5350688 16.7014579,14.2814885 17.0274898,14.2814885 C17.0999413,14.2814885 17.7882309,14.2452627 18.1867143,13.7018762 C18.5489719,13.2309413 18.5127462,12.6875548 18.4765204,12.5426517 C18.4402946,12.2528456 18.6214235,11.9630395 18.9474554,11.9268137 C19.2372615,11.8905879 19.5270676,12.0717168 19.5632934,12.3615229 Z" fill="#FFFFFF" fill-rule="nonzero"></path>
    </g>
</svg>