<?xml version="1.0" encoding="UTF-8"?>
<svg width="35px" height="35px" viewBox="0 0 35 35" version="1.1" xmlns="http://www.w3.org/2000/svg" xmlns:xlink="http://www.w3.org/1999/xlink">
    <g stroke="none" stroke-width="1" fill="none" fill-rule="evenodd">
        <path d="M17.8064024,6.19021252 C21.3489284,6.19021252 24.2323798,9.07366392 24.2323798,12.6161899 L24.2323798,12.6161899 L24.2323798,14.4286451 L25.6329134,14.4286451 C25.8800664,14.4286451 26.1272193,14.5934137 26.044835,14.8405667 L26.044835,14.8405667 L26.044835,26.3743723 C26.044835,27.3629842 25.2209918,28.1868275 24.2323798,28.1868275 L24.2323798,28.1868275 L11.380425,28.1868275 C10.3918131,28.1868275 9.56796987,27.3629842 9.56796987,26.3743723 L9.56796987,26.3743723 L9.56796987,14.922951 C9.56796987,14.5934137 9.81512285,14.4286451 10.0622758,14.4286451 L10.0622758,14.4286451 L11.380425,14.4286451 L11.380425,12.6161899 C11.380425,9.07366392 14.2638764,6.19021252 17.8064024,6.19021252 Z M25.2209918,15.3348727 L10.5565818,15.3348727 L10.5565818,26.291988 C10.5565818,26.7862939 10.9685034,27.1982156 11.4628094,27.1982156 L11.4628094,27.1982156 L24.3147642,27.1982156 C24.8090701,27.1982156 25.2209918,26.7862939 25.2209918,26.291988 L25.2209918,26.291988 L25.2209918,15.3348727 Z M17.7240181,18.0535554 C18.71263,18.0535554 19.5364733,18.8773987 19.5364733,19.8660106 C19.5364733,20.4427009 19.2893203,21.0193911 18.7950143,21.3489284 L18.7950143,21.3489284 L19.1245516,23.9852269 C19.206936,24.0676112 19.1245516,24.2323798 19.0421673,24.3147642 C18.959783,24.3971485 18.8773987,24.4795328 18.71263,24.4795328 L18.71263,24.4795328 L16.9001749,24.4795328 C16.8177905,24.4795328 16.6530219,24.3971485 16.5706376,24.3147642 C16.4882532,24.2323798 16.4882532,24.1499955 16.4882532,23.9852269 L16.4882532,23.9852269 L16.8177905,21.3489284 C16.3234846,21.0193911 15.9939473,20.5250852 15.9115629,19.8660106 C15.9115629,18.8773987 16.7354062,18.0535554 17.7240181,18.0535554 Z M17.8887868,18.959783 C17.3944808,18.959783 16.9825592,19.3717046 16.9825592,19.8660106 C16.9825592,20.1955479 17.1473278,20.5250852 17.4768651,20.6898538 C17.6416338,20.7722382 17.7240181,21.0193911 17.7240181,21.1841598 L17.7240181,21.1841598 L17.4768651,23.5733052 L18.3007084,23.5733052 L18.0535554,21.1841598 C18.0535554,20.9370068 18.1359397,20.7722382 18.3007084,20.6898538 C18.6302457,20.5250852 18.7950143,20.1955479 18.7950143,19.8660106 C18.7950143,19.3717046 18.3830927,18.959783 17.8887868,18.959783 Z M17.8887868,7.0964401 C14.8405667,7.0964401 12.3690369,9.56796987 12.3690369,12.6161899 L12.3690369,12.6161899 L12.2866526,12.6161899 L12.2866526,14.4286451 L13.1928802,14.4286451 L13.1928802,12.6161899 C13.1928802,10.0622758 15.2524883,8.00266768 17.8064024,8.00266768 C20.3603165,8.00266768 22.4199247,10.0622758 22.4199247,12.6161899 L22.4199247,12.6161899 L22.4199247,14.4286451 L23.4085366,14.4286451 L23.4085366,12.6161899 C23.4085366,9.56796987 20.9370068,7.0964401 17.8887868,7.0964401 Z M17.8064024,8.99127959 C15.8291786,8.99127959 14.1814921,10.5565818 14.1814921,12.6161899 L14.1814921,12.6161899 L14.1814921,14.4286451 L21.5136971,14.4286451 L21.5136971,12.6161899 C21.5136971,10.5565818 19.7836263,8.99127959 17.8064024,8.99127959 Z" fill="#FFFFFF" fill-rule="nonzero"></path>
    </g>
</svg>