<?xml version="1.0" encoding="utf-8"?>
<!-- Generator: Adobe Illustrator 25.4.1, SVG Export Plug-In . SVG Version: 6.00 Build 0)  -->
<svg version="1.1" id="pinterest" xmlns="http://www.w3.org/2000/svg" xmlns:xlink="http://www.w3.org/1999/xlink" x="0px" y="0px"
	 viewBox="0 0 40 40" style="enable-background:new 0 0 40 40;" xml:space="preserve">
<style type="text/css">
	.st0{stroke:#000000;stroke-width:0.25;stroke-miterlimit:10;}
</style>
<path d="M29.4,11.2c-4.9-4.9-12.8-4.9-17.7-0.1C9.3,13.5,8,16.7,8,20c0,1.4,0.2,2.8,0.7,4.2c0.1,0.2,0.3,0.3,0.5,0.2
	c0.2-0.1,0.3-0.3,0.2-0.5c-2.2-6.1,1-12.8,7.1-15s12.8,1,15,7.1s-1,12.8-7.1,15C19,33,13,30.7,10.2,25.7c-0.1-0.2-0.3-0.3-0.5-0.2
	c-0.2,0.1-0.3,0.3-0.2,0.5c3.4,6,11,8.2,17,4.8s8.2-11,4.8-17C30.8,12.9,30.1,12,29.4,11.2L29.4,11.2z"/>
<path class="st0" d="M15.2,29.1c0.1,0.3,0.4,0.6,0.8,0.7c0.2,0.1,0.3,0.1,0.5,0.1l0,0c0.6,0,1.1-0.4,1.3-0.9c0-0.1,0.6-1.6,1.3-3.5
	c0.7,0.3,1.4,0.5,2.1,0.6c1.7,0.1,3.5-0.6,4.7-1.8c1.4-1.4,2.3-3.2,2.6-5.2c0.3-1.9-0.3-3.8-1.4-5.4c-1.1-1.4-2.7-2.5-4.5-2.9
	c-1.7-0.4-3.5-0.3-5.1,0.3c-1.5,0.6-2.7,1.5-3.7,2.8c-1.9,2.5-2.1,5.9-0.5,8.6c0.4,0.7,1.3,0.8,1.9,0.4c0.6-0.4,0.8-1.2,0.5-1.9
	c-1-1.8-0.8-3.9,0.4-5.5c1.4-1.8,3.7-2.6,5.9-2c2.4,0.5,4.1,2.7,3.8,5.1c-0.2,1.4-0.8,2.6-1.7,3.6c-0.6,0.7-1.5,1.1-2.4,1
	c-0.6,0-1.1-0.2-1.5-0.5c0.4-1.3,0.7-2.4,0.9-3.4c0.4-1.8,0.4-2.8,0-3.5c-0.2-0.5-0.7-0.8-1.2-0.9c-0.9-0.1-1.8,0.2-2.3,1
	c-0.6,0.9-1,1.9-1.2,3c-0.2,1.2-0.1,2.5,0.4,3.7c0.1,0.2,0.2,0.4,0.2,0.5c-0.8,2.5-1.7,4.7-1.7,4.7C15,28.4,15,28.8,15.2,29.1z
	 M15.9,28.3c0,0,0.9-2.3,1.8-4.9c0-0.1,0-0.2,0-0.3c-0.1-0.2-0.2-0.4-0.3-0.6c-0.4-1-0.5-2.2-0.3-3.3c0.1-0.9,0.4-1.8,1-2.6
	c0.3-0.4,0.8-0.7,1.4-0.8h0.2c0.3,0.1,0.5,0.2,0.6,0.5c0.3,0.5,0.2,1.4-0.1,2.9c-0.2,0.9-0.5,2.1-1,3.5c0,0.1,0,0.3,0.1,0.4
	c0.6,0.5,1.4,0.8,2.2,0.9c1.2,0,2.3-0.4,3-1.3c1.1-1.1,1.8-2.5,2-4c0.3-2.8-1.6-5.5-4.4-6c-2.5-0.7-5.2,0.2-6.7,2.3
	C14,17,13.8,19.5,15,21.5c0.2,0.3,0.1,0.7-0.2,0.9c-0.3,0.2-0.7,0.1-0.9-0.2c0,0,0,0,0-0.1c-1.4-2.4-1.2-5.5,0.5-7.8
	c0.8-1.1,2-2,3.3-2.5c1.5-0.5,3.1-0.6,4.7-0.2c1.6,0.4,3,1.3,4,2.6c1,1.4,1.5,3.1,1.2,4.7c-0.2,1.8-1,3.5-2.3,4.8
	c-1.6,1.8-4.2,2.1-6.3,0.9c-0.1,0-0.2,0-0.3,0c-0.1,0-0.2,0.1-0.2,0.2c-0.7,2.1-1.4,3.9-1.5,4c-0.1,0.2-0.3,0.4-0.6,0.4l0,0
	c-0.1,0-0.1,0-0.2,0c-0.2-0.1-0.3-0.2-0.4-0.3C15.8,28.8,15.8,28.5,15.9,28.3z"/>
</svg>
