<?xml version="1.0" encoding="UTF-8"?>
<svg width="35px" height="35px" viewBox="0 0 35 35" version="1.1" xmlns="http://www.w3.org/2000/svg" xmlns:xlink="http://www.w3.org/1999/xlink">
    <g stroke="none" stroke-width="1" fill="none" fill-rule="evenodd">
        <path d="M24.5504892,16.2739768 L22.0621611,16.2739768 L22.0621611,9.43074999 C22.0621611,8.74397904 21.5044868,8.18686708 20.8180403,8.18686708 L9.6201528,8.18686708 C8.93307906,8.18686708 8.37601037,8.74397904 8.37601037,9.43074999 L8.37601037,24.9831252 C8.37601037,25.6702638 8.93307906,26.2273758 9.6201528,26.2273758 L24.5504892,26.2273758 C25.5796292,26.2273758 26.416757,25.3902263 26.416757,24.3610864 L26.416757,18.1402661 C26.416757,17.1111046 25.5796292,16.2739984 24.5504892,16.2739984 L24.5504892,16.2739768 Z M21.0996098,25.3742099 L9.33858335,25.3742099 L9.33858335,9.03968695 L21.0996098,9.03968695 L21.0996098,25.3742099 L21.0996098,25.3742099 Z M25.6275991,24.6936468 C25.6275991,25.068522 25.3072908,25.3742099 24.9145165,25.3742099 L22.0621611,25.3742099 L22.0621611,17.2071214 L24.9145165,17.2071214 C25.3073156,17.2071214 25.6275991,17.5122178 25.6275991,17.8877555 L25.6275991,24.6936231 L25.6275991,24.6936468 Z M11.704361,11.2969961 L18.3478508,11.2969961 L18.3478508,12.3567872 L11.704361,12.3567872 L11.704361,11.2969961 Z M11.704361,14.7378279 L16.5357304,14.7378279 L16.5357304,15.797619 L11.704361,15.797619 L11.704361,14.7378279 Z M11.704361,18.1786598 L18.951751,18.1786598 L18.951751,19.4227589 L11.704361,19.4227589 L11.704361,18.1786598 Z" fill="#FFFFFF" fill-rule="nonzero"></path>
    </g>
</svg>