<?xml version="1.0" encoding="UTF-8"?>
<svg width="35px" height="35px" viewBox="0 0 35 35" version="1.1" xmlns="http://www.w3.org/2000/svg" xmlns:xlink="http://www.w3.org/1999/xlink">
    <g stroke="none" stroke-width="1" fill="none" fill-rule="evenodd">
        <path d="M16.9775968,8.75905644 C22.049204,8.75905644 26.1789413,12.8887937 26.1789413,17.9604009 C26.1427155,23.0320081 22.0129783,27.1617454 16.9413711,27.1617454 C11.8697639,27.1617454 7.7400266,23.0320081 7.7400266,17.9604009 C7.7400266,15.6781777 8.57321921,13.5046317 10.0947014,11.8020208 C10.2758302,11.5846662 10.6018621,11.5846662 10.8192167,11.765795 C11.0365713,11.9469238 11.0365713,12.2729557 10.8554424,12.4903103 C9.47886335,14.0117925 8.75434803,15.931758 8.75434803,17.9604009 C8.75434803,22.4886216 12.4131504,26.147424 16.9413711,26.147424 C21.4695918,26.147424 25.1283941,22.4886216 25.1283941,17.9604009 C25.1283941,13.4321802 21.4695918,9.77337788 16.9413711,9.77337788 C16.2168558,9.77337788 15.5285662,9.88205518 14.8402767,10.063184 C14.5866963,10.1356355 14.2968902,9.99073247 14.2244386,9.70092635 C14.1519871,9.44734599 14.2968902,9.15753986 14.5866963,9.08508833 C15.3474374,8.86773374 16.1444042,8.75905644 16.9775968,8.75905644 Z M16.9413711,12.9849421 C17.2311772,12.9849421 17.4485318,13.2864851 17.4485318,13.6885424 L17.4485318,22.2322595 C17.4485318,22.6343167 17.2311772,22.9358597 16.9413711,22.9358597 C16.6515649,22.9358597 16.4342104,22.6343167 16.4342104,22.2322595 L16.4342104,13.6885424 C16.4342104,13.2864851 16.6515649,12.9849421 16.9413711,12.9849421 Z M13.7459544,17.7005208 C14.0357605,17.7005208 14.2531151,17.8591675 14.2531151,18.0706963 L14.2531151,22.5656842 C14.2531151,22.7772131 14.0357605,22.9358597 13.7459544,22.9358597 C13.4561482,22.9358597 13.2387936,22.7772131 13.2387936,22.5656842 L13.2387936,18.0706963 C13.2387936,17.8591675 13.4561482,17.7005208 13.7459544,17.7005208 Z M20.1367878,14.8475138 C20.4265939,14.8475138 20.6439485,15.0926152 20.6439485,15.4194171 L20.6439485,22.3639565 C20.6439485,22.6907583 20.4265939,22.9358597 20.1367878,22.9358597 C19.8469817,22.9358597 19.6296271,22.6907583 19.6296271,22.3639565 L19.6296271,15.4194171 C19.6296271,15.0926152 19.8469817,14.8475138 20.1367878,14.8475138 Z M13.6810522,9.91828094 C13.8259552,10.1718613 13.7172779,10.4616674 13.4636976,10.6065705 C12.8840853,10.8963766 12.4131504,11.149957 12.2320215,11.29486 C12.1233442,11.3310858 12.0146669,11.3673116 11.9059896,11.3673116 C11.7610866,11.3673116 11.5799578,11.29486 11.5075062,11.149957 C11.3626032,10.9326024 11.3988289,10.6065705 11.6161835,10.4254417 C11.9422154,10.2080871 12.630505,9.88205518 12.9927626,9.70092635 C13.246343,9.59224905 13.5361491,9.66470058 13.6810522,9.91828094 Z" fill="#FFFFFF" fill-rule="nonzero"></path>
    </g>
</svg>