<?xml version="1.0" encoding="utf-8"?>
<!-- Generator: Adobe Illustrator 25.4.1, SVG Export Plug-In . SVG Version: 6.00 Build 0)  -->
<svg version="1.1" id="twitter" xmlns="http://www.w3.org/2000/svg" xmlns:xlink="http://www.w3.org/1999/xlink" x="0px" y="0px"
	 viewBox="0 0 40 40" style="enable-background:new 0 0 40 40;" xml:space="preserve">
<style type="text/css">
	.st0{fill:none;stroke:#000000;stroke-linecap:round;stroke-linejoin:round;}
	.st1{fill:none;stroke:#FFFFFF;stroke-linecap:round;stroke-linejoin:round;}
</style>
<path class="st0" d="M30.8,13.2c-0.7,0.3-1.5,0.5-2.2,0.6c0.4-0.1,0.9-0.7,1.1-1c0.3-0.4,0.6-0.8,0.7-1.3c0,0,0-0.1,0-0.1
	c0,0-0.1,0-0.1,0c-0.8,0.4-1.7,0.8-2.6,1c-0.1,0-0.1,0-0.2,0c-0.1-0.1-0.1-0.2-0.2-0.2c-0.4-0.3-0.8-0.6-1.2-0.8
	c-0.6-0.3-1.3-0.4-2-0.3c-0.6,0-1.3,0.2-1.9,0.5c-0.6,0.3-1.1,0.7-1.5,1.2c-0.4,0.5-0.7,1.1-0.9,1.8c-0.1,0.6-0.2,1.3,0,1.9
	c0,0.1,0,0.1-0.1,0.1c-3.5-0.4-6.7-2-9-4.6c-0.1-0.1-0.2-0.1-0.2,0c-1,1.8-0.6,4,0.8,5.4c0.2,0.2,0.4,0.3,0.6,0.5
	c-0.6,0-1.2-0.2-1.7-0.5c-0.1-0.1-0.1,0-0.2,0.1c0,0.2,0,0.3,0,0.5c0.2,1.6,1.3,3.1,2.8,3.7c0.2,0.1,0.4,0.1,0.6,0.2
	c-0.6,0.1-1.1,0.1-1.7,0c-0.1,0-0.2,0-0.1,0.2c0.6,1.5,1.9,2.7,3.6,3c0.2,0,0.3,0,0.5,0.1l0,0c-0.7,0.7-1.6,1.1-2.5,1.3
	c-1.2,0.4-2.5,0.6-3.7,0.5c-0.2,0-0.2,0-0.3,0S9,27,9,27c0.3,0.2,0.5,0.3,0.8,0.5c0.8,0.4,1.6,0.8,2.5,1c4.5,1.4,9.4,0.2,12.8-3
	c2.6-2.6,3.6-6.2,3.6-9.8c0-0.1,0.2-0.2,0.3-0.3c0.7-0.5,1.2-1.1,1.7-1.8C30.8,13.4,30.8,13.3,30.8,13.2L30.8,13.2
	C30.9,13.1,30.9,13.1,30.8,13.2z"/>
<path class="st1" d="M15.5,28.9"/>
<path class="st1" d="M15.5,28.9"/>
<path class="st0" d="M16.2,28.9C16.2,28.9,16.6,28.9,16.2,28.9C16.2,28.9,16.3,28.9,16.2,28.9z"/>
<path class="st0" d="M24,11c0,0-0.1,0-0.1,0H24z"/>
</svg>
