<?xml version="1.0" encoding="UTF-8"?>
<svg width="35px" height="35px" viewBox="0 0 35 35" version="1.1" xmlns="http://www.w3.org/2000/svg" xmlns:xlink="http://www.w3.org/1999/xlink">
    <g stroke="none" stroke-width="1" fill="none" fill-rule="evenodd">
        <path d="M18,6 C18.2237805,6 18.4337337,6.10792996 18.5636712,6.28965259 L18.5636712,6.28965259 L22.7077973,12.0876612 L29.5157366,14.2278824 C29.7292054,14.2949411 29.8969242,14.4609045 29.9661117,14.6732104 C30.0352524,14.8855163 29.9972836,15.1181175 29.8642054,15.297502 L29.8642054,15.297502 L25.6174699,21.02111 L25.6808918,28.1418686 C25.6828606,28.3650704 25.5765481,28.5755057 25.3955168,28.7067239 C25.2757042,28.7935635 25.1329229,28.8387097 24.9885479,28.8387097 C24.9147198,28.8387097 24.8405635,28.8269058 24.7687978,28.8029162 L24.7687978,28.8029162 L18,26.542326 L11.2312474,28.802963 C11.0190911,28.8738563 10.7856066,28.8380355 10.6045284,28.7067706 C10.4234503,28.5755525 10.3171846,28.3651171 10.3191534,28.1419154 L10.3191534,28.1419154 L10.3825753,21.0211568 L6.13583976,15.2975487 C6.00271472,15.1181175 5.96474596,14.8855163 6.03388661,14.6732572 C6.10307413,14.4609513 6.27079292,14.2950347 6.48426173,14.2279292 L6.48426173,14.2279292 L13.2921542,12.0876612 L17.4363271,6.28965259 C17.5662647,6.10792996 17.7762179,6 18,6 Z M17.9999992,7.88026335 L14.2849669,13.0778298 C14.1976857,13.2000226 14.0728106,13.2905098 13.9293731,13.3355897 L13.9293731,13.3355897 L7.82638709,15.2542458 L11.6333881,20.3851276 C11.7228725,20.5057304 11.7705913,20.6521467 11.7692319,20.8021637 L11.7692319,20.8021637 L11.7123725,27.1855568 L17.7802022,25.1590642 C17.8514991,25.1352617 17.9257491,25.123337 17.9999992,25.123337 C18.0742961,25.123337 18.1484992,25.1352149 18.2197961,25.1590642 L18.2197961,25.1590642 L24.2876258,27.1855568 L24.2308133,20.8021637 C24.2295008,20.6521467 24.2772196,20.5057304 24.3666571,20.3851276 L24.3666571,20.3851276 L28.1736112,15.2542926 L22.0706252,13.3356365 C21.9271408,13.2905098 21.8023596,13.2000226 21.7150314,13.0778765 L21.7150314,13.0778765 L17.9999992,7.88026335 Z M18,16.0645161 C18.4275914,16.0645161 18.7741935,16.3717289 18.7741935,16.7507268 L18.7741935,16.7507268 L18.7741935,20.4105635 C18.7741935,20.789515 18.4275914,21.0967742 18,21.0967742 C17.5724611,21.0967742 17.2258065,20.7895615 17.2258065,20.4105635 L17.2258065,20.4105635 L17.2258065,16.7507268 C17.2258065,16.3717753 17.5724086,16.0645161 18,16.0645161 Z M22.150527,16.0645161 C23.0636352,16.0645161 23.8064516,16.7827397 23.8064516,17.6656744 C23.8064516,18.548609 23.0635871,19.2668791 22.150527,19.2668791 L22.150527,19.2668791 L20.967758,19.2668791 L20.967758,20.4105635 C20.967758,20.7895615 20.6499503,21.0967742 20.2580485,21.0967742 C19.8661467,21.0967742 19.5483871,20.7895615 19.5483871,20.4105635 L19.5483871,20.4105635 L19.5483871,16.7507268 C19.5483871,16.3717753 19.8660986,16.0645161 20.2580485,16.0645161 L20.2580485,16.0645161 Z M12.6541828,16.1084001 C13.0212085,15.9753359 13.4301786,16.1550469 13.5677832,16.5099622 L13.5677832,16.5099622 L14.3225906,18.4563048 L15.077398,16.5099622 C15.2150026,16.1550934 15.6239727,15.9754289 15.9909984,16.1084001 C16.3579761,16.2414643 16.5439153,16.6369865 16.4061665,16.9918553 L16.4061665,16.9918553 L14.9869749,20.6515388 C14.8831468,20.9193398 14.6183156,21.0967742 14.3225426,21.0967742 C14.0267695,21.0967742 13.7619864,20.9193398 13.6581103,20.6515388 L13.6581103,20.6515388 L12.2389186,16.9918553 C12.101314,16.6369865 12.2872532,16.2414643 12.6541828,16.1084001 Z M22.150527,17.4369375 L20.967758,17.4369375 L20.967758,17.8944113 L22.150527,17.8944113 C22.2809847,17.8944113 22.3871288,17.7918212 22.3870808,17.6656744 C22.3870808,17.5395276 22.2809847,17.4369375 22.150527,17.4369375 L22.150527,17.4369375 Z" fill="#FFFFFF" fill-rule="nonzero"></path>
    </g>
</svg>