<?xml version="1.0" encoding="UTF-8"?>
<svg width="35px" height="35px" viewBox="0 0 35 35" version="1.1" xmlns="http://www.w3.org/2000/svg" xmlns:xlink="http://www.w3.org/1999/xlink">
    <g stroke="none" stroke-width="1" fill="none" fill-rule="evenodd">
        <g id="purse" transform="translate(8.000000, 6.000000)" fill="#FFFFFF" fill-rule="nonzero">
            <path d="M10.060241,11.7039587 C9.73914458,11.7039587 9.47791165,11.4414389 9.47791165,11.1187608 C9.47791165,10.7960826 9.73914458,10.5335628 10.060241,10.5335628 C10.3813373,10.5335628 10.6425703,10.7960826 10.6425703,11.1187608 C10.6425703,11.4419461 10.9032985,11.7039587 11.2248996,11.7039587 C11.5465007,11.7039587 11.8072289,11.4419461 11.8072289,11.1187608 C11.8072289,10.3558577 11.3203628,9.70539071 10.6425703,9.463821 L10.6425703,8.77796902 C10.6425703,8.45478371 10.381842,8.19277108 10.060241,8.19277108 C9.73863989,8.19277108 9.47791165,8.45478371 9.47791165,8.77796902 L9.47791165,9.463821 C8.80011914,9.70539071 8.31325301,10.3558577 8.31325301,11.1187608 C8.31325301,12.0867952 9.09695181,12.8743546 10.060241,12.8743546 C10.3813373,12.8743546 10.6425703,13.1368744 10.6425703,13.4595525 C10.6425703,13.7822306 10.3813373,14.0447504 10.060241,14.0447504 C9.73914458,14.0447504 9.47791165,13.7822306 9.47791165,13.4595525 C9.47791165,13.1363672 9.2171834,12.8743546 8.89558233,12.8743546 C8.57398126,12.8743546 8.31325301,13.1363672 8.31325301,13.4595525 C8.31325301,14.2224555 8.80011914,14.8729225 9.47791165,15.1144923 L9.47791165,15.8003442 C9.47791165,16.1235295 9.73863989,16.3855422 10.060241,16.3855422 C10.381842,16.3855422 10.6425703,16.1235295 10.6425703,15.8003442 L10.6425703,15.1144923 C11.3203628,14.8729225 11.8072289,14.2224555 11.8072289,13.4595525 C11.8072289,12.4915181 11.0235301,11.7039587 10.060241,11.7039587 Z"></path>
            <path d="M19.3903906,10.03875 C19.4999609,9.92925781 19.5965625,9.80394531 19.6769531,9.66429687 C19.9961328,9.11007813 19.9952344,8.44929688 19.6745703,7.89675781 C18.1815234,5.32367188 15.7180078,3.48285156 12.8974219,2.72613281 C12.9182813,2.59992188 12.9296875,2.47199219 12.9296875,2.34375 C12.9296875,1.05140625 11.8782813,0 10.5859375,0 C10.1594922,0 9.7596875,0.115039062 9.41480469,0.314882812 C9.06089844,0.11015625 8.65753906,0 8.2421875,0 C6.94984375,0 5.8984375,1.05140625 5.8984375,2.34375 C5.8984375,2.59707031 5.93832031,2.84382812 6.01546875,3.07808594 C3.65417969,3.97710937 1.62316406,5.66023437 0.325390625,7.89675781 C0.0047265625,8.44933594 0.0038671875,9.11011719 0.323007812,9.66433594 C0.4034375,9.80398438 0.5,9.92929688 0.609609375,10.03875 C0.205117188,11.1371875 0,12.2913672 0,13.4765625 C0,15.905625 0.886015625,17.8300391 3.09328125,18.9129688 C5.04558594,19.8708594 7.68023438,20 10,20 C12.3197656,20 14.9544141,19.8708594 16.9067578,18.9129688 C19.1138672,17.8300781 20,15.9057813 20,13.4765625 C20,12.2913672 19.7948828,11.1371484 19.3903906,10.03875 Z M10.5859375,1.171875 C11.2798828,1.171875 11.8316406,1.77722656 11.7498438,2.48210938 C11.1757031,2.39101563 10.5908984,2.34375 10,2.34375 C9.8040625,2.34375 9.60886719,2.34910156 9.41441406,2.35929688 C9.41433594,2.35414063 9.4140625,2.34894531 9.4140625,2.34375 C9.4140625,1.69757813 9.93976562,1.171875 10.5859375,1.171875 Z M8.2421875,1.171875 C8.3421875,1.171875 8.44074219,1.18488281 8.53585938,1.20945313 C8.321875,1.59460938 8.22023438,2.03039062 8.24671875,2.48265625 C7.86980469,2.54257813 7.4975,2.62144531 7.13121094,2.71867188 C7.09101562,2.59929688 7.0703125,2.47324219 7.0703125,2.34375 C7.0703125,1.69757812 7.59601563,1.171875 8.2421875,1.171875 Z M1.33894531,8.48492187 C3.11757813,5.41976563 6.43632813,3.515625 10,3.515625 C13.5636719,3.515625 16.8824219,5.41976563 18.6610547,8.48492187 C18.8163672,8.75253906 18.7130859,8.98988281 18.6614844,9.07949219 C18.4415625,9.46144531 17.893125,9.49855469 17.6267578,9.04421875 C16.0513281,6.35691406 13.1289453,4.6875 10,4.6875 C6.87105469,4.6875 3.94867188,6.35691406 2.37332031,9.04417969 C2.10664063,9.49894531 1.55820313,9.46097656 1.33855469,9.07949219 C1.28691406,8.98988281 1.18367188,8.75253906 1.33894531,8.48492187 Z M16.4453516,17.8298828 C14.9200391,18.6055469 12.7176562,18.828125 10,18.828125 C7.235625,18.828125 5.004375,18.5978125 3.47660156,17.789375 C1.9921875,17.0039062 1.171875,15.6726172 1.171875,13.4765625 C1.171875,12.4642969 1.34148437,11.4781641 1.67550781,10.5377734 C2.39152344,10.6061719 3.0290625,10.2426953 3.38421875,9.636875 C4.75015625,7.30683594 7.28519531,5.859375 10,5.859375 C12.7148047,5.859375 15.2498437,7.30683594 16.6157813,9.63691406 C16.9692969,10.2399219 17.6053906,10.6064453 18.3244531,10.5377734 C18.6585156,11.4781641 18.828125,12.4642969 18.828125,13.4765625 C18.828125,15.7108203 17.9790234,17.0499219 16.4453516,17.8298828 Z"></path>
        </g>
    </g>
</svg>