<?xml version="1.0" encoding="UTF-8"?>
<svg width="35px" height="35px" viewBox="0 0 35 35" version="1.1" xmlns="http://www.w3.org/2000/svg" xmlns:xlink="http://www.w3.org/1999/xlink">
    <g stroke="none" stroke-width="1" fill="none" fill-rule="evenodd">
        <g id="icon-withdrawal" fill="#FFFFFF" fill-rule="nonzero">
            <path d="M23.7168228,23.9397591 C24.3326609,23.9397591 24.8398216,23.4325983 24.8398216,22.8167603 L24.8398216,15.8976391 L10.6393214,15.8976391 L10.6393214,16.5859286 C10.6393214,16.8757347 10.4219668,17.0930894 10.1321607,17.0930894 C9.84235455,17.0930894 9.625,16.8757347 9.625,16.5859286 L9.625,12.6373202 C9.625,11.4780957 10.5668699,10.5 11.7623201,10.5 L23.7168228,10.5 C24.8760473,10.5 25.854143,11.4418699 25.854143,12.6373202 L25.854143,22.8167603 C25.8179172,24.0122106 24.8760473,24.9540806 23.7168228,24.9540806 L23.7168228,23.9397591 Z M11.7623201,24.9540806 C10.6030957,24.9540806 9.625,24.0122106 9.625,22.8167603 L9.625,16.3044402 C9.625,16.014634 10.6393214,16.014634 10.6393214,16.3044402 L10.6393214,22.8167603 C10.6393214,23.4325983 11.1464821,23.9397591 11.7623201,23.9397591 M24.8398216,14.8833177 L24.8398216,12.6373202 C24.8398216,12.0214822 24.3326609,11.5143214 23.7168228,11.5143214 L11.7623202,11.5143214 C11.1464821,11.5143214 10.6393214,12.0214822 10.6393214,12.6373202 L10.6393214,14.8833177 L24.8398216,14.8833177 Z M17.6307194,20.8685446 C17.9137963,20.87372 18.1426227,21.0692045 18.1426227,21.3110398 L18.1426227,26.6392684 L19.3832373,25.5793087 C19.5819944,25.4094941 19.9072069,25.4094941 20.1059155,25.5793087 C20.2083107,25.6616387 20.2564554,25.7748139 20.2564554,25.8880306 C20.2564554,26.0012266 20.2083107,26.1144433 20.1059155,26.1967525 L18.0158186,27.9824952 C17.9220514,28.0738501 17.7843779,28.1314554 17.6307194,28.1314554 C17.477061,28.1314554 17.3393874,28.0738501 17.2456202,27.9824952 L15.1555232,26.1967525 C14.9567661,26.0269379 14.9567661,25.7490819 15.1555232,25.5793087 C15.3542804,25.4095355 15.6794929,25.4094941 15.8782015,25.5793087 L17.1188162,26.6392684 L17.1188162,21.3059058 C17.1188162,21.0640498 17.3476426,20.8685446 17.6307194,20.8685446 Z M14.2395715,23.9473554 C14.6908763,23.9473554 14.9165286,24.1151429 14.9165286,24.450718 C14.9165286,24.786293 14.6908763,24.9540806 14.2395715,24.9540806 L14.2395715,24.9540806 L11.6145715,24.9540806 L11.6145715,23.9473554 L14.2395715,23.9473554 Z M23.9809644,23.9473554 L23.9809644,24.9540806 L21.3559644,24.9540806 C20.9046596,24.9540806 20.6790073,24.786293 20.6790073,24.450718 C20.6790073,24.1151429 20.9046596,23.9473554 21.3559644,23.9473554 L21.3559644,23.9473554 L23.9809644,23.9473554 Z M17.3075983,17.5416979 C17.5974045,17.5416979 17.814759,17.7590524 17.814759,18.0488585 C17.814759,18.3386647 17.5974045,18.5560193 17.3075983,18.5560193 L11.8737335,18.5560193 C11.5839273,18.5560193 11.3665728,18.3386647 11.3665728,18.0488585 C11.3665728,17.7590524 11.5839273,17.5416979 11.8737335,17.5416979 L17.3075983,17.5416979 Z"></path>
        </g>
    </g>
</svg>