<?xml version="1.0" encoding="utf-8"?>
<!-- Generator: Adobe Illustrator 25.4.1, SVG Export Plug-In . SVG Version: 6.00 Build 0)  -->
<svg version="1.1" id="yputube" xmlns="http://www.w3.org/2000/svg" xmlns:xlink="http://www.w3.org/1999/xlink" x="0px" y="0px"
	 viewBox="0 0 40 40" style="enable-background:new 0 0 40 40;" xml:space="preserve">
<path d="M23.6,27.9c-1.1,0-2.4,0.1-3.6,0.1c-2.8,0-5.7-0.1-8.5-0.4c-1.9-0.3-2.6-1.1-2.8-3.3c-0.2-2.8-0.2-5.6,0-8.4
	c0.2-2.2,1-3,2.8-3.3c0.3,0,0.6-0.1,1-0.1c0.3,0,0.5-0.3,0.4-0.6s-0.3-0.5-0.6-0.4c-0.4,0-0.8,0.1-1.1,0.1c-1,0.1-1.9,0.5-2.6,1.2
	c-0.7,0.9-1.1,1.9-1.1,3c-0.3,2.9-0.3,5.7,0,8.6c0,1.1,0.4,2.1,1.1,3c0.7,0.7,1.6,1.1,2.6,1.2c2.9,0.3,5.8,0.5,8.7,0.4
	c1.3,0,2.5,0,3.6-0.1c0.3,0,0.5-0.2,0.5-0.5c0,0,0,0,0,0C24.1,28.1,23.9,27.9,23.6,27.9C23.6,27.9,23.6,27.9,23.6,27.9z"/>
<path d="M32.3,15.7c0-1.1-0.4-2.1-1.1-3c-0.7-0.7-1.6-1.1-2.6-1.2c-2.9-0.3-5.8-0.5-8.7-0.4c-1.3,0-2.5,0-3.6,0.1
	c-0.3,0-0.5,0.2-0.5,0.5c0,0,0,0,0,0c0,0.3,0.2,0.5,0.5,0.5c0,0,0,0,0,0c1.1,0,2.4-0.1,3.6-0.1c2.8,0,5.7,0.1,8.5,0.4
	c1.9,0.3,2.6,1.1,2.8,3.3c0.2,2.8,0.2,5.6,0,8.4c-0.2,2.1-1,3-2.8,3.3c-0.3,0-0.6,0.1-1,0.1c-0.3,0-0.5,0.3-0.4,0.5c0,0,0,0,0,0
	c0,0.3,0.2,0.4,0.5,0.4h0c0.4,0,0.8-0.1,1.1-0.1c1-0.1,1.9-0.5,2.6-1.2c0.7-0.8,1-1.9,1.1-3C32.6,21.4,32.6,18.6,32.3,15.7z"/>
<path d="M24,19.6l-6-3.7c-0.2-0.1-0.3-0.1-0.5,0c-0.2,0.1-0.3,0.3-0.2,0.4v7.5c0,0.2,0.1,0.3,0.2,0.4c0.1,0,0.1,0.1,0.2,0.1
	c0.1,0,0.2,0,0.3-0.1l6-3.7c0.2-0.1,0.3-0.4,0.2-0.7C24.1,19.7,24.1,19.6,24,19.6L24,19.6z M18.2,22.9v-5.7l4.6,2.9L18.2,22.9z"/>
<path d="M14.4,12.2L14.4,12.2c0.3,0,0.5-0.2,0.5-0.5c0,0,0,0,0,0c0-0.3-0.2-0.5-0.5-0.5c0,0,0,0,0,0l0,0c-0.3,0-0.5,0.2-0.5,0.5
	c0,0,0,0,0,0C13.9,12,14.2,12.2,14.4,12.2z"/>
<path d="M25.5,27.8c-0.3,0-0.5,0.2-0.5,0.5s0.2,0.5,0.5,0.5l0,0l0,0c0.3,0,0.5-0.2,0.5-0.5c0,0,0,0,0,0C26,28,25.8,27.8,25.5,27.8z"
	/>
</svg>
