<svg width="40" height="40" viewBox="0 0 40 40" fill="none" xmlns="http://www.w3.org/2000/svg">
<path d="M25.2947 19.6138C28.4271 19.6138 30.9756 22.1623 30.9756 25.2947C30.9756 28.4271 28.4271 30.9756 25.2947 30.9756C22.1623 30.9756 19.6138 28.4271 19.6138 25.2947C19.6138 22.1623 22.1623 19.6138 25.2947 19.6138ZM25.2947 20.4878C22.6439 20.4878 20.4878 22.6448 20.4878 25.2947C20.4878 27.9446 22.6439 30.1016 25.2947 30.1016C27.9455 30.1016 30.1016 27.9446 30.1016 25.2947C30.1016 22.6448 27.9455 20.4878 25.2947 20.4878ZM25.7094 21.9736V22.4117C26.1361 22.4148 26.5547 22.5241 26.9252 22.7292L26.6904 23.3234C26.3345 23.1182 25.9271 23.0118 25.513 23.0158C24.7943 23.0158 24.5223 23.4325 24.5223 23.7947C24.5223 24.2653 24.8679 24.5009 25.6813 24.8271C26.6437 25.2072 27.1301 25.6784 27.1301 26.4845C27.1146 27.2874 26.4784 27.9506 25.6531 28.0241V28.5255L25.0644 28.5284V28.0543C24.5587 28.0526 24.0635 27.9145 23.6341 27.6556L23.8581 27.0486C24.2591 27.3009 24.7265 27.4361 25.2045 27.438C25.8681 27.438 26.3167 27.0666 26.3167 26.5507C26.3167 26.0527 25.952 25.7446 25.2602 25.473C24.3073 25.1108 23.7186 24.6942 23.7186 23.9061C23.7306 23.1402 24.3416 22.5086 25.1296 22.4477V21.9736H25.7094ZM17.4289 10C18.4846 10 19.3665 10.7516 19.5701 11.748H20.9248C21.166 11.748 21.3618 11.9437 21.3618 12.185L21.3611 12.6219H22.6727C23.8771 12.6219 24.8577 13.6017 24.8577 14.8069V17.4289C24.8577 17.6701 24.6619 17.8658 24.4207 17.8658C24.1795 17.8658 23.9837 17.6701 23.9837 17.4289V14.8069C23.9837 14.0841 23.3955 13.4959 22.6727 13.4959L21.3611 13.4953L21.3618 13.9329C21.3618 14.6557 20.7736 15.2439 20.0508 15.2439H14.8069C14.0841 15.2439 13.4959 14.6557 13.4959 13.9329L13.4953 13.4953L12.185 13.4959C11.4622 13.4959 10.874 14.0841 10.874 14.8069V26.1687C10.874 26.8915 11.4622 27.4797 12.185 27.4797H18.3028C18.5441 27.4797 18.7398 27.6754 18.7398 27.9166C18.7398 28.1579 18.5441 28.3536 18.3028 28.3536H12.185C10.9806 28.3536 10 27.3739 10 26.1687V14.8069C10 13.6017 10.9806 12.6219 12.185 12.6219H13.4953L13.4959 12.185C13.4959 11.9437 13.6917 11.748 13.9329 11.748H15.2876C15.4912 10.7516 16.3731 10 17.4289 10ZM17.4289 22.2358C17.6701 22.2358 17.8658 22.4315 17.8658 22.6727C17.8658 22.914 17.6701 23.1097 17.4289 23.1097H13.0589C12.8177 23.1097 12.6219 22.914 12.6219 22.6727C12.6219 22.4315 12.8177 22.2358 13.0589 22.2358H17.4289ZM19.1768 19.6138C19.418 19.6138 19.6138 19.8096 19.6138 20.0508C19.6138 20.292 19.418 20.4878 19.1768 20.4878H13.0589C12.8177 20.4878 12.6219 20.292 12.6219 20.0508C12.6219 19.8096 12.8177 19.6138 13.0589 19.6138H19.1768ZM21.7988 16.9919C22.04 16.9919 22.2358 17.1876 22.2358 17.4289C22.2358 17.6701 22.04 17.8658 21.7988 17.8658H13.0589C12.8177 17.8658 12.6219 17.6701 12.6219 17.4289C12.6219 17.1876 12.8177 16.9919 13.0589 16.9919H21.7988ZM17.4289 10.874C16.7061 10.874 16.1179 11.4622 16.1179 12.185C16.1179 12.4262 15.9221 12.6219 15.6809 12.6219H14.3699V13.9329C14.3699 14.1733 14.5657 14.3699 14.8069 14.3699H20.0508C20.292 14.3699 20.4878 14.1733 20.4878 13.9329V12.6219H19.1768C18.9356 12.6219 18.7398 12.4262 18.7398 12.185C18.7398 11.4622 18.1516 10.874 17.4289 10.874Z" fill="white"/>
</svg>
