<svg width="40" height="40" viewBox="0 0 40 40" fill="none" xmlns="http://www.w3.org/2000/svg">
<path d="M19.9781 10.0001C18.092 10.0006 16.2447 10.5344 14.6502 11.5396C13.0557 12.5448 11.7793 13.9803 10.9687 15.6797C10.1582 17.3792 9.84674 19.273 10.0705 21.1418C10.2943 23.0107 11.044 24.778 12.233 26.239C11.8195 27.2738 11.1256 28.1732 10.2289 28.8366C10.1642 28.8876 10.1143 28.9548 10.0843 29.0314C10.0544 29.108 10.0454 29.1912 10.0584 29.2724C10.0715 29.3536 10.106 29.4299 10.1584 29.4934C10.2108 29.5568 10.2792 29.6052 10.3566 29.6334C11.0762 29.8789 11.8318 30.0027 12.5923 30C13.7993 30.0024 14.9858 29.6892 16.0337 29.0916C17.3953 29.6834 18.872 29.9646 20.3563 29.9145C21.8406 29.8645 23.295 29.4845 24.6135 28.8023C25.9319 28.12 27.0812 27.1528 27.9775 25.9711C28.8738 24.7893 29.4945 23.4229 29.7944 21.9713C30.0943 20.5198 30.0658 19.0198 29.711 17.5806C29.3562 16.1415 28.684 14.7995 27.7435 13.6525C26.803 12.5055 25.6178 11.5824 24.2744 10.9505C22.931 10.3187 21.4632 9.99397 19.9781 10.0001ZM19.9781 28.988C18.6738 28.9971 17.3828 28.7253 16.1934 28.1912C16.1257 28.1556 16.0503 28.137 15.9738 28.137C15.8973 28.137 15.8219 28.1556 15.7542 28.1912C14.796 28.786 13.6888 29.0982 12.5604 29.0916C12.1879 29.0934 11.8162 29.0587 11.4505 28.988C12.226 28.2367 12.814 27.3142 13.1672 26.2948C13.1947 26.2182 13.201 26.1356 13.1856 26.0557C13.1701 25.9758 13.1334 25.9015 13.0794 25.8406C11.7342 24.2782 10.9644 22.3041 10.8975 20.2453C10.8305 18.1865 11.4705 16.1667 12.7113 14.5206C13.9521 12.8745 15.7192 11.7008 17.7199 11.1941C19.7206 10.6874 21.8347 10.8781 23.712 11.7345C25.5892 12.591 27.1169 14.0618 28.0418 15.9033C28.9668 17.7447 29.2335 19.8463 28.7977 21.8597C28.362 23.8732 27.25 25.6776 25.6459 26.974C24.0419 28.2704 22.0422 28.981 19.9781 28.988Z" fill="white"/>
<path d="M22.5527 17.3215H21.2719V16.8943C21.2666 16.8709 21.2666 16.8465 21.2719 16.8231H22.5214C22.6416 16.8231 22.7568 16.7748 22.8417 16.6887C22.9267 16.6027 22.9744 16.486 22.9744 16.3643V14.4656C22.9744 14.3439 22.9267 14.2272 22.8417 14.1411C22.7568 14.0551 22.6416 14.0068 22.5214 14.0068H20.8424C20.4749 13.9799 20.106 14.0332 19.7605 14.1631C19.4151 14.2929 19.1012 14.4962 18.8399 14.7594C18.5786 15.0226 18.3761 15.3394 18.246 15.6886C18.1159 16.0378 18.0611 16.4111 18.0855 16.7836V17.3294H17.453C17.3328 17.3294 17.2176 17.3778 17.1327 17.4638C17.0477 17.5499 17 17.6666 17 17.7883V20.0034C17 20.1251 17.0477 20.2418 17.1327 20.3278C17.2176 20.4139 17.3328 20.4622 17.453 20.4622H18.0934V25.5412C18.0934 25.6628 18.1411 25.7796 18.226 25.8656C18.311 25.9517 18.4262 26 18.5463 26H20.7252C20.8454 26 20.9606 25.9517 21.0455 25.8656C21.1305 25.7796 21.1782 25.6628 21.1782 25.5412V20.4543H22.3496C22.4628 20.453 22.5715 20.4095 22.655 20.3322C22.7386 20.2548 22.7911 20.1491 22.8026 20.035L22.9978 17.8199C23.0041 17.7568 22.9968 17.693 22.9766 17.633C22.9564 17.5729 22.9237 17.518 22.8807 17.4718C22.8404 17.4238 22.79 17.3854 22.7333 17.3594C22.6766 17.3334 22.6149 17.3205 22.5527 17.3215ZM21.9435 19.5366H20.7252C20.6051 19.5366 20.4899 19.585 20.4049 19.671C20.32 19.7571 20.2723 19.8738 20.2723 19.9955V25.0348H18.9993V19.9955C18.9993 19.8738 18.9516 19.7571 18.8666 19.671C18.7817 19.585 18.6665 19.5366 18.5463 19.5366H17.9059V18.2392H18.5385C18.6586 18.2392 18.7739 18.1909 18.8588 18.1048C18.9437 18.0188 18.9915 17.902 18.9915 17.7804V16.7756C18.9684 16.525 19.0004 16.2723 19.085 16.0356C19.1696 15.7989 19.3047 15.584 19.4808 15.4064C19.6569 15.2288 19.8696 15.0928 20.1036 15.0081C20.3376 14.9234 20.5872 14.8921 20.8346 14.9165H22.0763V15.8896H21.2953C21.1676 15.8871 21.0407 15.9116 20.9227 15.9614C20.8048 16.0112 20.6984 16.0854 20.6103 16.1791C20.5221 16.2729 20.4542 16.3842 20.4108 16.5059C20.3674 16.6277 20.3495 16.7572 20.3582 16.8864V17.7724C20.3582 17.8941 20.4059 18.0108 20.4908 18.0969C20.5758 18.1829 20.691 18.2313 20.8111 18.2313H22.0529L21.9435 19.5366Z" fill="white"/>
</svg>
