<svg width="40" height="40" viewBox="0 0 40 40" fill="none" xmlns="http://www.w3.org/2000/svg">
<path d="M27.4798 13.1792H11.8909C10.67 13.1792 9.67676 14.1092 9.67676 15.2518V25.5236C9.67676 26.6663 10.67 27.5963 11.8909 27.5963H27.4798C28.7007 27.5963 29.694 26.6663 29.694 25.5236V15.2518C29.694 14.1092 28.7007 13.1792 27.4798 13.1792ZM11.6427 14.1932H27.6646C28.1707 14.1932 28.5501 14.8839 28.5501 15.3513C28.5501 15.3513 25.8822 17.0568 20.5466 20.4677C20.0708 20.7865 19.2364 20.7869 18.7607 20.4674L10.7103 15.3513C10.7103 14.8839 11.1365 14.1932 11.6427 14.1932ZM11.6414 26.5074C11.1359 26.5074 10.724 26.1035 10.724 25.6065L10.749 16.435L17.9519 21.3868C18.4254 21.725 19.0337 21.8945 19.6411 21.8945C20.2486 21.8945 20.8568 21.7254 21.3303 21.3872L28.5833 16.4354L28.5583 25.6065C28.5583 26.1034 28.1463 26.5074 27.6409 26.5074L11.6414 26.5074Z" fill="white"/>
</svg>
