<svg width="40" height="40" viewBox="0 0 40 40" fill="none" xmlns="http://www.w3.org/2000/svg">
<path d="M19.4743 23.0935L19.18 25.3707C19.18 25.513 19.18 25.5841 19.2536 25.6553C19.3272 25.7265 19.4743 25.7976 19.5479 25.7976H21.1665C21.3136 25.7976 21.3872 25.7265 21.4608 25.6553C21.5343 25.5841 21.6079 25.4418 21.5343 25.3707L21.24 23.0935C21.6815 22.8089 21.9022 22.3107 21.9022 21.8126C21.9022 20.9587 21.1665 20.2471 20.2836 20.2471C19.4008 20.2471 18.665 20.9587 18.665 21.8126C18.7386 22.3819 19.0329 22.8089 19.4743 23.0935ZM20.4308 21.0298C20.8722 21.0298 21.24 21.3856 21.24 21.8126C21.24 22.0973 21.0929 22.3819 20.7986 22.5242C20.6515 22.5954 20.5779 22.7377 20.5779 22.9512L20.7986 25.0149H20.0629L20.2836 22.9512C20.2836 22.8089 20.21 22.5954 20.0629 22.5242C19.7686 22.3819 19.6215 22.0973 19.6215 21.8126C19.6215 21.3856 19.9893 21.0298 20.4308 21.0298Z" fill="white"/>
<path d="M27.3465 17.1161H26.0958V15.5506C26.0958 12.4906 23.5208 10 20.3572 10C17.1936 10 14.6186 12.4906 14.6186 15.5506V17.1161H13.4414C13.2207 17.1161 13 17.2584 13 17.5431V27.4345C13 28.2884 13.7357 29 14.6186 29H26.0958C26.9786 29 27.7143 28.2884 27.7143 27.4345V17.4719C27.7879 17.2584 27.5672 17.1161 27.3465 17.1161ZM15.5014 15.5506C15.5014 12.9176 17.7086 10.7828 20.4307 10.7828C23.1529 10.7828 25.36 12.9176 25.36 15.5506V17.1161H24.4772V15.5506C24.4772 13.3446 22.6379 11.5655 20.3572 11.5655C18.0764 11.5655 16.2372 13.3446 16.2372 15.5506V17.1161H15.4279V15.5506H15.5014ZM23.6679 15.5506V17.1161H17.12V15.5506C17.12 13.7715 18.5914 12.4195 20.3572 12.4195C22.1229 12.4195 23.6679 13.7715 23.6679 15.5506ZM26.9786 27.3633C26.9786 27.7903 26.6108 28.1461 26.1693 28.1461H14.6921C14.2507 28.1461 13.8829 27.7903 13.8829 27.3633V17.8989H26.9786V27.3633Z" fill="white"/>
</svg>
