<svg width="40" height="40" viewBox="0 0 40 40" fill="none" xmlns="http://www.w3.org/2000/svg">
<path d="M13.4989 12.5984C13.3454 12.3622 13.3838 12.0079 13.6141 11.811C13.9596 11.5748 14.6889 11.2205 15.0728 11.0236C15.3415 10.9055 15.6485 10.9842 15.8021 11.2598C15.9556 11.5354 15.8405 11.8504 15.5718 12.0079C14.9576 12.3228 14.4586 12.5984 14.2667 12.7559C14.1515 12.7953 14.0363 12.8346 13.9212 12.8346C13.7676 12.8346 13.5757 12.7559 13.4989 12.5984ZM19.2568 29.9999C13.8828 29.9999 9.50684 25.5118 9.50684 20C9.50684 17.5197 10.3897 15.1575 12.0019 13.3071C12.1938 13.0709 12.5393 13.0709 12.7696 13.2677C12.9999 13.4646 12.9999 13.8189 12.808 14.0551C11.3493 15.7086 10.5816 17.7952 10.5816 20C10.5816 24.9212 14.4586 28.8976 19.2568 28.8976C24.055 28.8976 27.932 24.9212 27.932 20C27.932 15.0787 24.055 11.1024 19.2568 11.1024C18.4891 11.1024 17.7598 11.2205 17.0304 11.4173C16.7617 11.4961 16.4546 11.3386 16.3779 11.0236C16.3011 10.748 16.4546 10.4331 16.7617 10.3543C17.5678 10.1181 18.4123 10 19.2952 10C24.6692 10 29.0451 14.4882 29.0451 20C29.0068 25.5118 24.6308 29.9999 19.2568 29.9999ZM19.2568 25.4073C18.9497 25.4073 18.7194 25.0795 18.7194 24.6426V15.3573C18.7194 14.9204 18.9497 14.5927 19.2568 14.5927C19.5639 14.5927 19.7942 14.9204 19.7942 15.3573V24.6426C19.7942 25.0795 19.5639 25.4073 19.2568 25.4073ZM15.8709 25.4073C15.5638 25.4073 15.3335 25.2348 15.3335 25.005V20.1198C15.3335 19.8899 15.5638 19.7175 15.8709 19.7175C16.1779 19.7175 16.4083 19.8899 16.4083 20.1198V25.005C16.4083 25.2348 16.1779 25.4073 15.8709 25.4073ZM22.6427 25.4073C22.3356 25.4073 22.1053 25.1409 22.1053 24.7857V17.2384C22.1053 16.8833 22.3356 16.6169 22.6427 16.6169C22.9498 16.6169 23.1801 16.8833 23.1801 17.2384V24.7857C23.1801 25.1409 22.9498 25.4073 22.6427 25.4073Z" fill="white"/>
</svg>
