<svg width="40" height="40" viewBox="0 0 40 40" fill="none" xmlns="http://www.w3.org/2000/svg">
<path d="M11 29L12.2228 24.5C11.2328 22.7835 10.8365 20.788 11.0954 18.823C11.3544 16.858 12.2541 15.0336 13.6548 13.6328C15.0556 12.2321 16.8791 11.3333 18.8423 11.0761C20.8056 10.8189 22.7987 11.2176 24.5124 12.2104C26.2262 13.2031 27.5646 14.7343 28.32 16.5664C29.0753 18.3985 29.2055 20.4289 28.6901 22.3426C28.1747 24.2563 27.0427 25.9461 25.4698 27.1499C23.8968 28.3537 21.9709 29.004 19.9909 29C18.4104 28.9992 16.8586 28.5767 15.4954 27.776L11 29Z" stroke="white" stroke-miterlimit="10"/>
<path d="M16.3385 16C16.2229 16.008 16.11 16.0375 16.0061 16.087C15.9081 16.1388 15.82 16.2065 15.7456 16.287C15.6595 16.3667 15.5813 16.4541 15.512 16.548C15.1793 16.9669 14.9993 17.4807 15 18.0092C15.0113 18.425 15.1123 18.8338 15.2964 19.2095C15.7428 20.1019 16.3513 20.9092 17.093 21.5928C17.2906 21.7841 17.4703 21.9668 17.6769 22.1408C18.6694 22.9846 19.85 23.5948 21.1263 23.9238L21.6384 23.9934C21.8029 24.0022 21.9679 24.0022 22.1324 23.9934C22.3966 23.9845 22.655 23.916 22.887 23.7934C23.0038 23.7325 23.1205 23.6716 23.2283 23.602L23.3451 23.5237C23.4502 23.4468 23.5492 23.3625 23.6415 23.2715C23.7165 23.1933 23.7799 23.1055 23.8302 23.0105C23.9114 22.8063 23.9657 22.593 23.9919 22.3756C24.0027 22.2657 24.0027 22.155 23.9919 22.0451C23.9823 21.9976 23.962 21.9527 23.9325 21.9136C23.903 21.8746 23.865 21.8422 23.8212 21.8189L23.3002 21.5928L22.0336 21.0535C21.9836 21.0406 21.9309 21.0406 21.8809 21.0535C21.8187 21.0406 21.7544 21.0406 21.6923 21.0535C21.6367 21.074 21.585 21.1034 21.5395 21.1405C21.2862 21.3983 21.0463 21.6683 20.8209 21.9494C20.789 22.0018 20.7393 22.0417 20.6803 22.0624C20.6212 22.083 20.5566 22.083 20.4975 22.0625C20.4391 22.0503 20.3819 22.0328 20.3269 22.0103L20.0933 21.9146C19.5804 21.6955 19.1049 21.4022 18.683 21.0448C18.5662 20.9491 18.4674 20.8448 18.3596 20.7404C18.0095 20.4136 17.7073 20.0419 17.4613 19.6357L17.4074 19.5575C17.3657 19.5014 17.3325 19.4399 17.3086 19.3748C17.3026 19.335 17.3051 19.2943 17.3159 19.2554C17.3268 19.2166 17.3457 19.1802 17.3715 19.1487C17.3715 19.1487 17.5871 18.9138 17.6859 18.792C17.7719 18.6875 17.8499 18.577 17.9194 18.4615C17.9705 18.3968 18.0053 18.3214 18.0209 18.2413C18.0365 18.1613 18.0325 18.0788 18.0093 18.0005C17.7577 17.4207 17.4972 16.8408 17.2278 16.2609C17.1924 16.1995 17.1419 16.1475 17.0808 16.1096C17.0197 16.0717 16.9498 16.0489 16.8774 16.0435H16.7247L16.3385 16Z" fill="white"/>
</svg>
