<svg width="40" height="40" viewBox="0 0 40 40" fill="none" xmlns="http://www.w3.org/2000/svg">
<path d="M27.1049 27.3597C27.8088 27.3597 28.3884 26.7801 28.3884 26.0763V18.1687H12.1592V18.9553C12.1592 19.2866 11.9108 19.535 11.5796 19.535C11.2484 19.535 11 19.2866 11 18.9553V14.4427C11 13.1178 12.0764 12 13.4427 12H27.1049C28.4298 12 29.5476 13.0764 29.5476 14.4427V26.0763C29.5062 27.4425 28.4298 28.5189 27.1049 28.5189V27.3597ZM13.4427 28.5189C12.1178 28.5189 11 27.4425 11 26.0763V18.6336C11 18.3024 12.1592 18.3024 12.1592 18.6336V26.0763C12.1592 26.7801 12.7388 27.3597 13.4427 27.3597M28.3884 17.0095V14.4427C28.3884 13.7388 27.8088 13.1592 27.1049 13.1592H13.4427C12.7388 13.1592 12.1592 13.7388 12.1592 14.4427V17.0095H28.3884ZM20.1494 23.8498C20.4729 23.8557 20.7344 24.0791 20.7344 24.3555V30.4449L22.1523 29.2335C22.3794 29.0394 22.7511 29.0394 22.9782 29.2335C23.0952 29.3276 23.1502 29.4569 23.1502 29.5863C23.1502 29.7157 23.0952 29.8451 22.9782 29.9391L20.5895 31.98C20.4823 32.0844 20.325 32.1502 20.1494 32.1502C19.9738 32.1502 19.8164 32.0844 19.7093 31.98L17.3206 29.9391C17.0934 29.7451 17.0934 29.4275 17.3206 29.2335C17.5477 29.0395 17.9194 29.0394 18.1465 29.2335L19.5644 30.4449V24.3496C19.5644 24.0732 19.8259 23.8498 20.1494 23.8498ZM16.2738 27.3684C16.7896 27.3684 17.0475 27.5602 17.0475 27.9437C17.0475 28.3272 16.7896 28.5189 16.2738 28.5189H13.2738V27.3684H16.2738ZM27.4068 27.3684V28.5189H24.4068C23.891 28.5189 23.6332 28.3272 23.6332 27.9437C23.6332 27.5602 23.891 27.3684 24.4068 27.3684H27.4068ZM19.7801 20.0477C20.1113 20.0477 20.3597 20.2961 20.3597 20.6273C20.3597 20.9585 20.1113 21.2069 19.7801 21.2069H13.57C13.2388 21.2069 12.9904 20.9585 12.9904 20.6273C12.9904 20.2961 13.2388 20.0477 13.57 20.0477H19.7801Z" fill="white"/>
</svg>
