<svg xmlns="http://www.w3.org/2000/svg" xml:space="preserve" id="圖層_1" x="0" y="0" style="enable-background:new 0 0 53 52" version="1.1" viewBox="0 0 53 52"><style>.st1{fill-rule:evenodd;clip-rule:evenodd}</style><g id="casino"><g id="casino---VK---egame" transform="translate(-316 -66)"><g id="nav" transform="translate(0 39)"><g id="egame" transform="translate(316 5.24)"><g id="hover-egame" transform="translate(0 22.28)"><linearGradient id="Rectangle_00000074434034952004059840000013940338336727039918_" x1="-217.97" x2="-218.479" y1="271.813" y2="271.195" gradientTransform="matrix(52 0 0 -50 11373.5 13601.5)" gradientUnits="userSpaceOnUse"><stop offset="0" style="stop-color:#8f7249"/><stop offset=".32" style="stop-color:#cdae74"/><stop offset=".659" style="stop-color:#ffe0a7"/><stop offset="1" style="stop-color:#906f40"/></linearGradient><linearGradient id="Rectangle_00000016759816998990923510000011531826414022765185_" x1="-217.907" x2="-218.553" y1="271.187" y2="271.894" gradientTransform="matrix(52 0 0 -50 11373.5 13601.5)" gradientUnits="userSpaceOnUse"><stop offset="0" style="stop-color:#946f3b"/><stop offset=".531" style="stop-color:#ffe0a7"/><stop offset="1" style="stop-color:#946f3b"/></linearGradient><path id="Rectangle" d="M31 .5c6 0 11.3 2.4 15.2 6.3s6.3 9.3 6.3 15.2v25.6c0 .8-.3 1.5-.8 2s-1.2.8-2 .8H22c-6 0-11.3-2.4-15.2-6.3S.5 34.9.5 29V3.3c0-.8.3-1.5.8-2s1.2-.8 2-.8H31z" style="fill-rule:evenodd;clip-rule:evenodd;fill:url(#Rectangle_00000074434034952004059840000013940338336727039918_);stroke:url(#Rectangle_00000016759816998990923510000011531826414022765185_)"/><g id="Group-34" transform="translate(9 13.72)"><path id="Fill-15" d="M12.6 11.8c-1.5 0-2.7 1.2-2.7 2.7 0 1.5 1.2 2.7 2.7 2.7 1.5 0 2.7-1.2 2.7-2.7.1-1.5-1.2-2.7-2.7-2.7" class="st1"/><path id="Fill-19" d="M25.1 14.5c0-1.5-1.2-2.7-2.7-2.7-1.5 0-2.7 1.2-2.7 2.7 0 1.5 1.2 2.7 2.7 2.7 1.5 0 2.7-1.2 2.7-2.7z" class="st1"/><g id="Group-25"><defs><filter id="Adobe_OpacityMaskFilter" width="38" height="25.2" x="-1.5" y="-1" filterUnits="userSpaceOnUse"><feColorMatrix values="1 0 0 0 0 0 1 0 0 0 0 0 1 0 0 0 0 0 1 0"/></filter></defs><mask id="mask-4_00000000222391116431128500000017687839350189017737_" width="38" height="25.2" x="-1.5" y="-1" maskUnits="userSpaceOnUse"><g style="filter:url(#Adobe_OpacityMaskFilter)"><path id="path-3_00000179618282409436441500000006405205606029340311_" d="M-1.5-1h38v25.2h-38z" style="fill-rule:evenodd;clip-rule:evenodd;fill:#fff"/></g></mask><path id="Fill-23" d="M30.5 7.7c-.8 0-1.4-.6-1.4-1.4s.6-1.4 1.4-1.4c.8 0 1.4.6 1.4 1.4s-.6 1.4-1.4 1.4zm-2.8 2.8c-.8 0-1.4-.6-1.4-1.4 0-.8.6-1.4 1.4-1.4s1.4.6 1.4 1.4c.1.8-.6 1.4-1.4 1.4zm-2.8-2.8c-.8 0-1.4-.6-1.4-1.4s.6-1.4 1.4-1.4c.8 0 1.4.6 1.4 1.4s-.6 1.4-1.4 1.4zm2.8-5.6c.8 0 1.4.6 1.4 1.4 0 .8-.6 1.4-1.4 1.4-.8 0-1.4-.6-1.4-1.4 0-.8.6-1.4 1.4-1.4zM11.1 6.6c0 .5-.4.9-.9.9H8.5v1.7c0 .5-.4.9-.9.9h-.7c-.5.1-.9-.4-.9-.8V7.5H4.3c-.5 0-.9-.4-.9-.9V6c0-.5.4-.9.9-.9H6V3.4c0-.5.4-.9.9-.9h.7c.5 0 .9.4.9.9v1.7h1.7c.5 0 .9.4.9.9v.6zm23.5-1.5c-.7-4-4.4-6.7-8.4-6-1.5.3-3 1-4 2.1h-9.3C10-1.7 5.4-1.7 2.5 1.1 1.4 2.2.6 3.6.4 5.1l-1.9 14c0 2.8 2.3 5.1 5.1 5.1 1.7 0 3.3-.8 4.2-2.3l2.1-3.4C8.3 18.3 7 16.9 7 15.2c0-1.9 1.6-3.5 3.5-3.5.6-.4 1.3-.7 2.1-.7 1.9 0 3.5 1.5 3.5 3.5h2.7c0-1.9 1.6-3.5 3.5-3.5 1.6-1.1 3.8-.7 4.9.9 1.1 1.6.7 3.8-.9 4.9-.6.4-1.3.6-2 .6l2.8 4.6c1.6 2.3 4.7 3 7.1 1.4 1.4-.9 2.3-2.5 2.3-4.2L34.6 5.1z" style="mask:url(#mask-4_00000000222391116431128500000017687839350189017737_);fill-rule:evenodd;clip-rule:evenodd"/></g></g></g></g></g></g></g></svg>