<svg width="100" height="100" viewBox="0 0 100 100" fill="none" xmlns="http://www.w3.org/2000/svg">
<path d="M7.87937 60.4908C8.03937 58.9708 8.16937 57.4408 8.35937 55.9208C9.21937 49.0508 10.6794 42.3208 13.3594 35.9008C14.8794 32.2708 16.8694 28.9808 19.6494 26.1708C23.1094 22.6708 27.2994 21.4308 32.0894 22.1808C34.4094 22.5408 36.7394 22.9708 38.9894 23.6308C42.2994 24.6108 45.6294 25.4508 49.0594 25.7408C50.4794 25.8608 51.9594 25.6608 53.3694 25.4108C55.6594 25.0008 57.9194 24.4408 60.1894 23.9308C62.9794 23.3008 65.7394 22.5108 68.5494 22.0708C71.4394 21.6108 74.3394 21.9508 76.8994 23.4808C79.0694 24.7708 80.9094 26.4808 82.4794 28.4908C84.9294 31.6508 86.5094 35.2508 87.8094 38.9908C90.2694 46.0508 91.6494 53.3308 92.0294 60.7908C92.2194 64.4108 92.1194 68.0408 91.0994 71.5608C90.5794 73.3808 89.7494 75.0408 88.2994 76.3108C85.8894 78.4308 83.1094 78.4008 80.2494 77.5808C77.2294 76.7108 74.6394 75.0108 72.1294 73.1708C70.8094 72.2008 69.5294 71.1608 68.2694 70.0908C67.4394 69.3908 66.6794 68.6008 65.8994 67.8408C63.2594 65.2908 60.0094 63.9908 56.4894 63.3108C51.4994 62.3408 46.5194 62.4408 41.5894 63.7608C38.9094 64.4808 36.4394 65.6208 34.3894 67.5408C31.8194 69.9608 29.2094 72.3408 26.2494 74.2808C23.7694 75.9108 21.2294 77.4308 18.2494 77.9508C14.1494 78.6708 10.9094 76.8408 9.31937 72.9608C8.49937 70.9608 8.19937 68.8508 8.02937 66.7108C7.99937 66.2808 7.91937 65.8508 7.85938 65.4308C7.85938 63.7808 7.85938 62.1408 7.85938 60.4908H7.87937ZM11.7894 63.2908C11.7894 63.5408 11.7894 63.7808 11.7894 64.0308C11.8294 66.4208 11.9794 68.8008 12.7894 71.0808C13.3594 72.6708 14.2994 73.9408 16.1094 74.0908C16.9794 74.1608 17.9294 74.0108 18.7694 73.7308C21.5694 72.8008 24.0594 71.3108 26.2694 69.3208C28.3094 67.4908 30.4494 65.7808 32.5494 64.0108C34.2494 62.5808 36.1894 61.5808 38.2594 60.8208C43.1794 59.0008 48.2594 58.5108 53.4594 58.9808C59.6294 59.5308 65.0794 61.6108 69.5594 66.0808C71.4094 67.9208 73.5094 69.5408 75.6094 71.0908C77.5494 72.5208 79.6594 73.7208 82.0894 74.1708C84.7094 74.6608 86.2994 73.7208 87.1594 71.2008C87.9694 68.8408 88.1894 66.3908 88.2094 63.9108C88.2594 57.0308 87.1094 50.3208 85.2594 43.7208C84.0194 39.2808 82.3994 34.9708 79.5994 31.2208C76.8094 27.4808 73.1194 25.5408 68.4294 26.2308C65.0294 26.7308 61.6394 27.4608 58.3194 28.3408C52.8994 29.7708 47.5494 29.9308 42.1094 28.4308C38.7694 27.5108 35.3594 26.7608 31.9394 26.2008C28.3294 25.6108 25.0294 26.5308 22.3094 29.1108C20.3394 30.9808 18.9194 33.2308 17.7694 35.6908C16.0394 39.3808 14.7794 43.2108 13.8494 47.1708C12.5994 52.4708 11.8194 57.8308 11.8094 63.2808L11.7894 63.2908Z" fill="white" stroke="white"/>
<path d="M30.2293 32.6094C33.1293 32.3894 35.7993 34.5094 36.4293 37.5894C36.5393 38.1394 36.7393 38.3494 37.2893 38.4494C40.5093 39.0394 42.7193 42.5194 41.9693 45.7194C41.3493 48.3494 39.7893 50.0194 37.1193 50.5494C36.6293 50.6494 36.5393 50.8694 36.4593 51.2894C35.5893 55.4394 30.9793 57.4894 27.3593 55.3194C25.8393 54.4094 24.7993 53.0894 24.5293 51.2894C24.4493 50.7794 24.2493 50.6294 23.7693 50.5394C20.8193 49.9694 18.8893 47.6594 18.7593 44.5694C18.6393 41.8294 20.5193 39.3094 23.2593 38.5194C23.4693 38.4594 23.7293 38.4994 23.8893 38.3894C24.1293 38.2394 24.4293 38.0094 24.4793 37.7694C25.1493 34.6994 27.1893 32.8494 30.2393 32.6194L30.2293 32.6094ZM30.4593 52.2994C31.5993 52.2994 32.4593 51.6194 32.6493 50.4794C32.7193 50.0794 32.6993 49.6594 32.6993 49.2494C32.7093 47.4894 33.4193 46.7994 35.1893 46.7494C35.7793 46.7294 36.3793 46.6194 36.9393 46.4394C37.9293 46.1194 38.4693 45.1094 38.3193 43.9994C38.1793 43.0294 37.3793 42.2694 36.3593 42.1994C35.8693 42.1694 35.3693 42.1994 34.8793 42.1794C33.5393 42.1394 32.7593 41.3594 32.6993 40.0194C32.6793 39.4494 32.6993 38.8594 32.5893 38.2994C32.3693 37.0894 31.4793 36.4194 30.3193 36.5094C29.1393 36.5994 28.3293 37.4594 28.2893 38.6794C28.2793 39.0594 28.2893 39.4494 28.2893 39.8294C28.2793 41.3194 27.5093 42.1094 26.0393 42.1694C25.5493 42.1894 25.0493 42.1494 24.5593 42.2094C23.3593 42.3594 22.6193 43.2294 22.6493 44.3894C22.6793 45.5094 23.5293 46.3694 24.6993 46.4594C25.0793 46.4894 25.4693 46.4694 25.8493 46.4694C27.2793 46.4694 28.2493 47.4094 28.2893 48.8494C28.2993 49.3194 28.2693 49.7794 28.2993 50.2494C28.3793 51.4394 29.2693 52.2694 30.4693 52.2794L30.4593 52.2994Z" fill="white"/>
<path d="M71.8917 36.9694C71.8817 38.9994 70.2517 40.5994 68.2117 40.5794C66.1817 40.5694 64.5817 38.9394 64.6017 36.8994C64.6117 34.6994 66.1717 33.0994 68.2817 33.1094C70.3717 33.1194 71.9117 34.7594 71.8917 36.9594V36.9694Z" fill="white"/>
<path d="M60.8211 48.2105C58.5511 48.1905 57.2312 46.4905 57.1512 44.4005C57.0712 42.4005 58.7711 40.7405 60.7811 40.7305C62.7911 40.7305 64.5011 42.3505 64.4511 44.3605C64.4011 46.4305 63.0711 48.1805 60.8211 48.2205V48.2105Z" fill="white"/>
<path d="M72.0295 44.3605C72.0495 42.3505 73.6995 40.7205 75.7095 40.7305C77.7195 40.7305 79.3995 42.3905 79.3295 44.4005C79.2495 46.5005 77.9095 48.2205 75.6595 48.2005C73.4195 48.1905 72.1195 46.4405 72.0195 44.3505L72.0295 44.3605Z" fill="white"/>
<path d="M64.6016 51.9999C64.6016 49.9799 66.2516 48.3299 68.2616 48.3399C70.2716 48.3399 71.9016 49.9999 71.9016 52.0299C71.9016 54.0499 70.2416 55.7099 68.2416 55.6999C66.2316 55.6999 64.6016 54.0399 64.6016 52.0099V51.9999Z" fill="white"/>
</svg>
