<svg width="100" height="100" viewBox="0 0 100 100" fill="none" xmlns="http://www.w3.org/2000/svg">
<path d="M4.5 35.2303C4.85 34.3303 5.58 33.9103 6.48 33.9403C9.6 34.0403 12.67 34.5403 15.53 35.8503C17.1 36.5703 18.59 37.5003 20.03 38.4703C20.95 39.0803 21.71 39.9303 22.61 40.7203C24.03 40.0103 25.66 39.1503 27.33 38.3703C28.8 37.6803 30.3 37.0603 31.81 36.4703C32.33 36.2603 32.55 36.0603 32.33 35.5003C31.43 33.2503 30.56 30.9903 29.67 28.7403C29.3 27.8203 28.9 26.9103 28.52 26.0003C28.16 25.1603 27.8 24.3103 27.45 23.4703C26.82 21.9603 27.99 20.9903 29.26 21.1003C31.16 21.2603 33.07 21.4303 34.93 21.7803C39.18 22.5903 43.44 23.3903 47.64 24.4303C51.18 25.3103 54.58 26.6603 57.68 28.6403C58.6 29.2203 59.38 30.0103 60.25 30.6703C60.49 30.8503 60.81 30.9903 61.11 31.0303C64.6 31.4103 68.04 32.0703 71.4 33.1203C74.34 34.0403 77.16 35.2403 79.86 36.7103C82.54 38.1603 85.02 39.9003 87.34 41.8603C88.6 42.9303 89.79 44.1103 90.88 45.3703C92.4 47.1203 93.79 48.9803 95.22 50.8103C95.6 51.3003 95.61 51.8903 95.27 52.3603C94.1 53.9503 92.98 55.6003 91.64 57.0403C89.92 58.8803 88.04 60.5803 86.16 62.2503C83.92 64.2503 81.34 65.7803 78.68 67.1403C75.74 68.6503 72.66 69.8003 69.47 70.6603C65.43 71.7503 61.32 72.3103 57.15 72.4103C56.33 72.4303 55.97 73.0203 55.48 73.4203C52.92 75.4903 49.95 76.6803 46.83 77.5203C43.7 78.3703 40.49 78.7903 37.25 78.9003C35.35 78.9703 34.77 78.1303 34.93 76.6103C35.1 75.0203 35.13 73.4003 35.43 71.8303C35.64 70.7303 36.19 69.6903 36.63 68.5303C31.77 66.8103 26.96 64.9003 22.52 62.3503C21.53 63.2703 20.62 64.1703 19.65 65.0003C17.75 66.6203 15.51 67.6303 13.12 68.2103C11.04 68.7203 8.89 68.9503 6.76 69.2503C5.78 69.3903 5.03 68.9303 4.53 68.0703V65.3603C4.72 64.3703 4.97 63.3803 5.1 62.3803C5.4 60.1403 6.08 58.0203 7.28 56.1003C7.89 55.1203 8.57 54.1803 9.27 53.2703C9.73 52.6703 10.3 52.1503 10.81 51.6103C10.25 51.0103 9.75 50.4603 9.23 49.9303C7.59 48.2503 6.6 46.1603 5.81 44.0203C5.26 42.5103 5.06 40.8703 4.73 39.2903C4.63 38.8003 4.59 38.3003 4.52 37.8103C4.52 36.9603 4.52 36.1003 4.52 35.2503L4.5 35.2303ZM8.38 65.8403C8.56 65.8403 8.66 65.8603 8.74 65.8403C10.47 65.3803 12.26 65.0503 13.93 64.4203C16.31 63.5103 18.33 62.0603 19.64 59.7603C20.69 57.9203 21.8 57.7603 23.11 58.6803C25.83 60.6003 28.8 62.0103 31.85 63.2103C35.57 64.6603 39.35 65.9803 43.16 67.1803C46.89 68.3503 50.73 69.1403 54.66 69.2503C60.86 69.4303 66.9 68.4803 72.68 66.1703C74.89 65.2903 77.04 64.1903 79.09 62.9903C80.88 61.9403 82.59 60.7003 84.18 59.3603C85.82 57.9803 87.31 56.4203 88.79 54.8503C89.73 53.8503 90.53 52.7003 91.4 51.6003C90.6 50.6103 89.81 49.6703 89.05 48.7003C87.58 46.8103 85.83 45.2103 84.01 43.6603C81.7 41.6903 79.17 40.0603 76.48 38.7103C71.32 36.1303 65.84 34.7103 60.09 34.1403C53.59 33.4903 47.34 34.6303 41.23 36.6203C37.37 37.8803 33.58 39.4003 29.81 40.9103C27.45 41.8603 25.18 43.0103 23.14 44.5603C22.06 45.3803 20.83 45.1303 20.04 44.0203C19.4 43.1103 18.81 42.1403 18.02 41.3803C16.67 40.0703 15.05 39.1103 13.26 38.5203C11.71 38.0103 10.11 37.6403 8.42 37.1803C8.42 37.6503 8.41 37.9003 8.42 38.1403C8.56 40.4503 9.12 42.6403 10.1 44.7403C11.2 47.0903 12.7 49.0503 15.04 50.3003C16.02 50.8203 16.03 52.4303 15.04 52.9503C12.71 54.1703 11.19 56.1003 10.15 58.4403C9.74 59.3603 9.5 60.3603 9.11 61.2903C8.49 62.7603 8.52 64.3003 8.37 65.8603L8.38 65.8403ZM32.07 24.6103C33.47 28.1003 34.8 31.4203 36.16 34.8303C42.08 32.8503 48.09 31.1303 54.42 30.6603C47.45 27.0103 39.86 25.7303 32.07 24.6103ZM38.63 75.6003C42.99 75.2303 47.2 74.4303 50.99 72.3303C47.63 71.5203 44.28 70.7003 40.93 69.8803C40.53 69.7803 40.3 69.8803 40.05 70.2103C39.36 71.0903 39.14 72.1303 38.98 73.1903C38.87 73.9503 38.76 74.7103 38.64 75.6003H38.63Z" fill="white" stroke="white"/>
<path d="M57.4688 51.5404C57.7388 49.4804 57.8387 47.3804 58.3187 45.3704C58.7687 43.5104 59.5688 41.7203 60.3288 39.9403C60.6588 39.1603 61.2387 38.4804 61.7687 37.8104C62.3987 37.0204 63.6887 36.9604 64.5587 37.6104C65.1987 38.0904 65.1887 39.1304 64.6287 40.0004C64.0987 40.8304 63.5687 41.6704 63.1787 42.5604C62.2387 44.7004 61.6887 46.9404 61.5487 49.2804C61.4987 50.2004 61.2187 51.1304 61.3187 52.0304C61.5587 54.1603 61.7987 56.3204 62.3487 58.3804C62.8087 60.1004 63.5287 61.7804 64.6287 63.2404C65.2587 64.0804 65.1887 65.1404 64.5287 65.6104C63.5787 66.2804 62.2987 66.2103 61.7188 65.3103C60.9787 64.1803 60.3187 62.9904 59.7087 61.7804C58.0987 58.5604 57.6287 55.1004 57.4688 51.5204V51.5404Z" fill="white" stroke="white"/>
<path d="M53.7807 62.8192C52.9807 62.8192 52.3207 62.3592 52.0207 61.6692C50.4907 58.0792 49.8107 54.3292 50.0107 50.4292C50.0807 49.0292 50.1407 47.5992 50.4907 46.2492C50.9707 44.3792 51.6307 42.5492 52.3607 40.7692C52.7707 39.7592 53.4507 38.8392 54.0507 37.9092C54.5507 37.1492 55.9707 36.9192 56.7607 37.4292C57.4607 37.8792 57.6907 38.8392 57.1307 39.7092C55.8507 41.6892 55.0407 43.8592 54.3907 46.0892C54.1207 47.0192 54.0107 48.0092 53.9307 48.9792C53.7107 51.5392 53.7207 54.0992 54.3007 56.6092C54.6107 57.9692 55.1407 59.2892 55.6607 60.5992C56.0807 61.6392 55.1207 62.8292 53.7807 62.8092V62.8192Z" fill="white" stroke="white"/>
<path d="M72.809 49.9891C70.629 49.9891 68.749 48.4391 68.939 46.5491C69.079 45.1391 69.949 44.3191 71.129 43.8791C73.039 43.1591 75.409 43.5991 76.459 46.0791C76.729 46.7291 76.129 48.5491 75.439 49.0391C74.609 49.6291 73.699 50.0291 72.809 49.9891Z" fill="white"/>
</svg>
