<svg width="100" height="100" viewBox="0 0 100 100" fill="none" xmlns="http://www.w3.org/2000/svg">
<mask id="mask0_2470_270" style="mask-type:luminance" maskUnits="userSpaceOnUse" x="10" y="9" width="80" height="79">
<path d="M50.0005 87.2998C71.5507 87.2998 89.0205 69.83 89.0205 48.2798C89.0205 26.7297 71.5507 9.25977 50.0005 9.25977C28.4503 9.25977 10.9805 26.7297 10.9805 48.2798C10.9805 69.83 28.4503 87.2998 50.0005 87.2998Z" fill="white"/>
</mask>
<g mask="url(#mask0_2470_270)">
<path d="M50.0008 65.7281C59.6382 65.7281 67.4508 57.9155 67.4508 48.2781C67.4508 38.6407 59.6382 30.8281 50.0008 30.8281C40.3634 30.8281 32.5508 38.6407 32.5508 48.2781C32.5508 57.9155 40.3634 65.7281 50.0008 65.7281Z" stroke="white" stroke-width="4" stroke-miterlimit="10"/>
<path d="M50.003 59.5684C53.4327 59.5684 56.213 56.7881 56.213 53.3584C56.213 49.9287 53.4327 47.1484 50.003 47.1484C46.5733 47.1484 43.793 49.9287 43.793 53.3584C43.793 56.7881 46.5733 59.5684 50.003 59.5684Z" stroke="white" stroke-width="3" stroke-miterlimit="10"/>
<path d="M50.0028 46.8982C52.1401 46.8982 53.8728 45.1656 53.8728 43.0282C53.8728 40.8909 52.1401 39.1582 50.0028 39.1582C47.8655 39.1582 46.1328 40.8909 46.1328 43.0282C46.1328 45.1656 47.8655 46.8982 50.0028 46.8982Z" stroke="white" stroke-width="3" stroke-miterlimit="10"/>
<path d="M50.0028 20.449C58.7676 20.449 65.8728 13.3438 65.8728 4.579C65.8728 -4.18576 58.7676 -11.291 50.0028 -11.291C41.238 -11.291 34.1328 -4.18576 34.1328 4.579C34.1328 13.3438 41.238 20.449 50.0028 20.449Z" stroke="white" stroke-width="4" stroke-miterlimit="10"/>
<path d="M6.11219 64.1482C14.877 64.1482 21.9822 57.043 21.9822 48.2782C21.9822 39.5135 14.877 32.4082 6.11219 32.4082C-2.65257 32.4082 -9.75781 39.5135 -9.75781 48.2782C-9.75781 57.043 -2.65257 64.1482 6.11219 64.1482Z" stroke="white" stroke-width="4" stroke-miterlimit="10"/>
<path d="M92.8934 64.1482C101.658 64.1482 108.763 57.043 108.763 48.2782C108.763 39.5135 101.658 32.4082 92.8934 32.4082C84.1286 32.4082 77.0234 39.5135 77.0234 48.2782C77.0234 57.043 84.1286 64.1482 92.8934 64.1482Z" stroke="white" stroke-width="4" stroke-miterlimit="10"/>
<path d="M50.0028 107.84C58.7676 107.84 65.8728 100.735 65.8728 91.9696C65.8728 83.2049 58.7676 76.0996 50.0028 76.0996C41.238 76.0996 34.1328 83.2049 34.1328 91.9696C34.1328 100.735 41.238 107.84 50.0028 107.84Z" stroke="white" stroke-width="4" stroke-miterlimit="10"/>
</g>
<path d="M50.0005 87.2998C71.5507 87.2998 89.0205 69.83 89.0205 48.2798C89.0205 26.7297 71.5507 9.25977 50.0005 9.25977C28.4503 9.25977 10.9805 26.7297 10.9805 48.2798C10.9805 69.83 28.4503 87.2998 50.0005 87.2998Z" stroke="white" stroke-width="4" stroke-miterlimit="10"/>
</svg>
