<?xml version="1.0" encoding="utf-8"?>
<!-- Generator: Adobe Illustrator 28.2.0, SVG Export Plug-In . SVG Version: 6.00 Build 0)  -->
<svg version="1.1" id="Layer_1" xmlns="http://www.w3.org/2000/svg" xmlns:xlink="http://www.w3.org/1999/xlink" x="0px" y="0px"
	 viewBox="0 0 121.67 121.66" style="enable-background:new 0 0 121.67 121.66;" xml:space="preserve">
<style type="text/css">
	.st0{fill:#FFDF34;}
	.st1{fill:#1F2029;}
	.st2{fill:#39AE41;}
</style>
<g>
	<path class="st0" d="M121.67,60.83c0,33.6-27.24,60.83-60.84,60.83C27.24,121.66,0,94.43,0,60.83S27.24,0,60.83,0
		C71.32,0,81.19,2.65,89.8,7.33c-2.65,3.12-4.24,7.15-4.24,11.56c0,9.88,8,17.89,17.88,17.89c4.31,0,8.27-1.52,11.36-4.06
		C119.19,41.13,121.67,50.69,121.67,60.83z"/>
	<g>
		<path class="st1" d="M60.83,36.78c-10.9,0-19.77,8.87-19.77,19.78s8.87,19.78,19.77,19.78s19.77-8.87,19.77-19.78
			S71.74,36.78,60.83,36.78z"/>
		<path class="st1" d="M89.93,49.59h-0.92c-1.36-14.36-13.48-25.63-28.18-25.63c-14.7,0-26.82,11.27-28.18,25.63h-0.92
			c-5.45,0-9.89,4.44-9.89,9.89v2.7c0,5.45,4.43,9.89,9.89,9.89h6.18V52.29c0-12.64,10.28-22.93,22.92-22.93
			s22.92,10.29,22.92,22.93v18.9l-11.43,14.7h-2.8c-1.15-3.71-4.61-6.41-8.69-6.41c-5.02,0-9.1,4.08-9.1,9.1
			c0,5.02,4.08,9.1,9.1,9.1c4.08,0,7.54-2.7,8.69-6.41h5.43L89.9,72.07h0.03c5.45,0,9.89-4.44,9.89-9.89v-2.7
			C99.82,54.03,95.38,49.59,89.93,49.59z"/>
	</g>
	<circle class="st2" cx="103.5" cy="19.3" r="12"/>
</g>
</svg>
