<svg width="427" height="427" viewBox="0 0 427 427" fill="none" xmlns="http://www.w3.org/2000/svg">
<path d="M213.35 426.7C331.18 426.7 426.7 331.18 426.7 213.35C426.7 95.5201 331.18 0 213.35 0C95.5201 0 0 95.5201 0 213.35C0 331.18 95.5201 426.7 213.35 426.7Z" fill="url(#paint0_linear_4098_219)"/>
<path d="M217.852 367.973C303.525 367.973 372.977 298.521 372.977 212.848C372.977 127.174 303.525 57.7227 217.852 57.7227C132.178 57.7227 62.7266 127.174 62.7266 212.848C62.7266 298.521 132.178 367.973 217.852 367.973Z" fill="url(#paint1_linear_4098_219)"/>
<path d="M155.992 274.286L164.818 241.299C159.831 232.28 157.197 222.164 157.197 211.881C157.197 178.303 184.43 150.992 217.91 150.992C251.391 150.992 278.623 178.303 278.623 211.881C278.623 245.458 251.391 272.769 217.91 272.769C207.852 272.769 197.934 270.212 189.052 265.379L155.992 274.258V274.286ZM190.677 253.044L192.751 254.28C200.399 258.86 209.085 261.249 217.882 261.249C245.031 261.249 267.108 239.107 267.108 211.881C267.108 184.654 245.031 162.512 217.882 162.512C190.733 162.512 168.656 184.654 168.656 211.881C168.656 220.872 171.149 229.723 175.856 237.478L177.145 239.585L172.214 257.989L190.677 253.016V253.044Z" fill="white"/>
<path fill-rule="evenodd" clip-rule="evenodd" d="M240.466 220.44C237.969 218.949 234.714 217.261 231.768 218.471C229.495 219.399 228.064 222.945 226.605 224.774C225.847 225.702 224.95 225.843 223.799 225.393C215.298 221.988 208.816 216.304 204.13 208.481C203.345 207.271 203.485 206.315 204.439 205.189C205.842 203.529 207.638 201.615 208.002 199.364C208.395 197.113 207.329 194.468 206.403 192.47C205.225 189.91 203.878 186.252 201.325 184.816C198.968 183.494 195.881 184.226 193.777 185.942C190.157 188.897 188.418 193.54 188.474 198.126C188.474 199.421 188.642 200.743 188.951 201.981C189.68 205.02 191.083 207.834 192.655 210.535C193.833 212.561 195.124 214.531 196.499 216.417C201.044 222.607 206.684 227.982 213.221 232.006C216.476 234.003 220.011 235.776 223.659 236.986C227.755 238.337 231.403 239.744 235.808 238.9C240.438 238.027 244.983 235.157 246.835 230.683C247.368 229.36 247.649 227.897 247.34 226.49C246.723 223.592 242.823 221.876 240.494 220.497L240.466 220.44Z" fill="white"/>
<path d="M359.349 202.206V313.636C359.349 328.413 353.432 342.584 342.902 353.033C332.371 363.482 318.088 369.352 303.195 369.352H224.58C221.601 369.352 218.745 368.178 216.638 366.088C214.532 363.998 213.349 361.164 213.349 358.209C213.349 355.253 214.532 352.419 216.638 350.329C218.745 348.24 221.601 347.066 224.58 347.066H303.195C312.131 347.066 320.7 343.544 327.019 337.274C333.337 331.005 336.887 322.502 336.887 313.636H334.04C325.104 313.636 316.535 310.115 310.216 303.845C303.898 297.576 300.348 289.073 300.348 280.207V224.492C300.348 215.626 303.898 207.124 310.216 200.854C316.535 194.585 325.104 191.063 334.04 191.063H336.396C334.27 167.899 325.546 145.813 311.242 127.384C296.937 108.956 277.643 94.9464 255.613 86.992C233.583 79.0376 209.727 77.4667 186.831 82.4629C163.935 87.4591 142.944 98.816 126.311 115.207C105.628 135.458 92.8703 162.343 90.3165 191.063H99.5126C108.448 191.063 117.018 194.585 123.337 200.854C129.655 207.124 133.205 215.626 133.205 224.492V280.207C133.205 289.073 129.655 297.576 123.337 303.845C117.018 310.115 108.448 313.636 99.5126 313.636H97.6146C88.6788 313.636 83.5363 310.115 77.2178 303.845C70.8993 297.576 67.3496 289.073 67.3496 280.207V202.206C67.3811 173.512 75.992 145.471 92.0924 121.634C108.193 97.7973 131.059 79.2356 157.796 68.2985C184.534 57.3613 213.94 54.5405 242.294 60.1931C270.648 65.8456 296.674 79.7174 317.079 100.053C330.551 113.484 341.219 129.421 348.472 146.951C355.726 164.48 359.422 183.257 359.349 202.206Z" fill="white"/>
<defs>
<linearGradient id="paint0_linear_4098_219" x1="62.499" y1="62.499" x2="364.201" y2="364.201" gradientUnits="userSpaceOnUse">
<stop stop-color="#00FB73"/>
<stop offset="1" stop-color="#00B25B"/>
</linearGradient>
<linearGradient id="paint1_linear_4098_219" x1="108.169" y1="103.165" x2="327.534" y2="322.53" gradientUnits="userSpaceOnUse">
<stop stop-color="#00FB73"/>
<stop offset="1" stop-color="#00B25B"/>
</linearGradient>
</defs>
</svg>
