<svg width="1492" height="551" viewBox="0 0 1492 551" fill="none" xmlns="http://www.w3.org/2000/svg">
<rect x="239.406" y="119.703" width="1251.75" height="311.229" rx="44.4612" fill="url(#paint0_linear_4076_218)"/>
<path d="M588.205 262.268C583.02 262.268 578.493 261.04 574.623 258.584C570.778 256.128 567.789 252.767 565.655 248.5C563.522 244.233 562.455 239.371 562.455 233.913C562.455 228.456 563.51 223.718 565.618 219.699C567.727 215.656 570.704 212.53 574.549 210.322C578.418 208.089 582.971 206.973 588.205 206.973C592.472 206.973 596.292 207.817 599.666 209.503C603.039 211.166 605.768 213.485 607.852 216.462C609.936 219.414 611.176 222.825 611.573 226.695H596.465C596.193 225.033 595.684 223.594 594.94 222.378C594.196 221.163 593.216 220.232 592 219.587C590.809 218.918 589.383 218.583 587.721 218.583C585.91 218.583 584.298 219.054 582.884 219.997C581.47 220.939 580.353 222.552 579.535 224.834C578.741 227.092 578.344 230.192 578.344 234.137C578.344 240.115 579.225 244.369 580.986 246.9C582.747 249.405 584.992 250.658 587.721 250.658C589.383 250.658 590.809 250.236 592 249.393C593.216 248.549 594.196 247.433 594.94 246.044C595.684 244.63 596.193 243.092 596.465 241.43H611.573C611.201 244.208 610.568 246.85 609.675 249.356C608.807 251.861 607.504 254.094 605.768 256.054C604.056 257.988 601.774 259.514 598.921 260.63C596.069 261.722 592.496 262.268 588.205 262.268ZM642.987 262.268C637.207 262.268 632.618 261.3 629.219 259.365C625.845 257.43 623.427 254.739 621.963 251.291C620.5 247.842 619.768 243.836 619.768 239.272V207.717H634.429V239.867C634.429 243.588 635.284 246.23 636.996 247.793C638.733 249.356 640.73 250.137 642.987 250.137C644.475 250.137 645.865 249.802 647.155 249.132C648.469 248.438 649.524 247.346 650.317 245.858C651.136 244.345 651.545 242.348 651.545 239.867V207.717H666.206V239.272C666.206 243.836 665.474 247.842 664.011 251.291C662.547 254.739 660.116 257.43 656.718 259.365C653.344 261.3 648.767 262.268 642.987 262.268ZM697.211 262.268C694.433 262.268 691.679 261.92 688.95 261.226C686.247 260.531 683.753 259.477 681.471 258.063C679.214 256.649 677.353 254.875 675.89 252.742C674.426 250.584 673.583 248.053 673.359 245.151H688.095C688.367 246.416 688.913 247.495 689.732 248.388C690.55 249.281 691.654 249.976 693.044 250.472C694.458 250.943 696.144 251.179 698.104 251.179C699.27 251.179 700.448 251.043 701.639 250.77C702.83 250.472 703.822 249.988 704.616 249.318C705.435 248.624 705.844 247.681 705.844 246.49C705.844 244.928 705.199 243.861 703.909 243.29C702.619 242.695 701.093 242.236 699.332 241.914L690.141 240.276C686.941 239.706 684.2 238.751 681.918 237.411C679.635 236.047 677.887 234.273 676.671 232.09C675.48 229.907 674.885 227.29 674.885 224.239C674.885 220.617 675.89 217.528 677.899 214.973C679.908 212.393 682.637 210.434 686.085 209.094C689.533 207.73 693.403 207.048 697.695 207.048C702.383 207.048 706.365 207.767 709.639 209.206C712.939 210.645 715.469 212.642 717.23 215.197C718.992 217.752 719.909 220.691 719.984 224.015H705.621C705.472 222.651 705.05 221.547 704.356 220.704C703.661 219.86 702.718 219.24 701.528 218.843C700.362 218.422 698.948 218.211 697.286 218.211C694.606 218.211 692.733 218.682 691.667 219.625C690.6 220.567 690.067 221.584 690.067 222.676C690.067 223.792 690.501 224.747 691.369 225.541C692.262 226.31 693.837 226.881 696.095 227.253L704.095 228.555C707.841 229.15 710.905 230.192 713.286 231.681C715.692 233.169 717.466 235.03 718.607 237.262C719.748 239.495 720.319 242.05 720.319 244.928C720.319 248.425 719.302 251.477 717.267 254.081C715.258 256.661 712.517 258.671 709.044 260.109C705.571 261.548 701.627 262.268 697.211 262.268ZM740.277 261.523V220.443H725.021V207.717H770.194V220.443H754.789V261.523H740.277ZM800.574 262.268C795.24 262.268 790.614 261.139 786.694 258.882C782.8 256.599 779.786 253.399 777.652 249.281C775.519 245.163 774.452 240.314 774.452 234.732C774.452 229.126 775.531 224.251 777.689 220.108C779.872 215.941 782.924 212.716 786.843 210.434C790.763 208.127 795.34 206.973 800.574 206.973C805.783 206.973 810.335 208.127 814.23 210.434C818.125 212.716 821.151 215.941 823.309 220.108C825.467 224.251 826.547 229.126 826.547 234.732C826.547 240.289 825.48 245.139 823.346 249.281C821.238 253.399 818.236 256.599 814.342 258.882C810.447 261.139 805.858 262.268 800.574 262.268ZM800.574 250.658C802.558 250.658 804.32 250.162 805.858 249.17C807.42 248.153 808.636 246.503 809.504 244.221C810.397 241.914 810.844 238.825 810.844 234.955C810.844 230.961 810.397 227.774 809.504 225.392C808.636 222.986 807.42 221.249 805.858 220.183C804.32 219.116 802.558 218.583 800.574 218.583C798.589 218.583 796.816 219.116 795.253 220.183C793.715 221.249 792.499 222.986 791.606 225.392C790.713 227.774 790.267 230.961 790.267 234.955C790.267 238.825 790.713 241.914 791.606 244.221C792.499 246.503 793.715 248.153 795.253 249.17C796.816 250.162 798.589 250.658 800.574 250.658ZM834.744 261.523V207.717H856.252L864.959 240.537L873.741 207.717H895.174V261.523H880.662V222.527L870.169 261.523H859.75L849.219 222.527V261.523H834.744ZM905.24 261.523V207.717H944.981L944.907 219.699H919.827V228.63H940.814V240.314H919.715V249.467H945.056V261.523H905.24ZM953.425 261.523V207.717H977.835C982.499 207.717 986.244 208.486 989.072 210.024C991.925 211.562 993.997 213.646 995.286 216.276C996.576 218.88 997.221 221.808 997.221 225.057C997.221 227.811 996.849 230.168 996.105 232.127C995.386 234.062 994.381 235.724 993.091 237.113C991.826 238.478 990.362 239.669 988.7 240.686L998.152 261.523H983.305L975.491 242.993H967.9V261.523H953.425ZM967.9 232.202H976.198C978.058 232.202 979.596 231.47 980.812 230.006C982.052 228.543 982.672 226.943 982.672 225.206C982.672 223.346 982.002 221.758 980.663 220.443C979.323 219.104 977.835 218.434 976.198 218.434H967.9V232.202ZM1044.17 262.268C1041.39 262.268 1038.64 261.92 1035.91 261.226C1033.2 260.531 1030.71 259.477 1028.43 258.063C1026.17 256.649 1024.31 254.875 1022.85 252.742C1021.38 250.584 1020.54 248.053 1020.32 245.151H1035.05C1035.32 246.416 1035.87 247.495 1036.69 248.388C1037.51 249.281 1038.61 249.976 1040 250.472C1041.41 250.943 1043.1 251.179 1045.06 251.179C1046.23 251.179 1047.41 251.043 1048.6 250.77C1049.79 250.472 1050.78 249.988 1051.57 249.318C1052.39 248.624 1052.8 247.681 1052.8 246.49C1052.8 244.928 1052.16 243.861 1050.87 243.29C1049.58 242.695 1048.05 242.236 1046.29 241.914L1037.1 240.276C1033.9 239.706 1031.16 238.751 1028.87 237.411C1026.59 236.047 1024.84 234.273 1023.63 232.09C1022.44 229.907 1021.84 227.29 1021.84 224.239C1021.84 220.617 1022.85 217.528 1024.86 214.973C1026.87 212.393 1029.59 210.434 1033.04 209.094C1036.49 207.73 1040.36 207.048 1044.65 207.048C1049.34 207.048 1053.32 207.767 1056.6 209.206C1059.9 210.645 1062.43 212.642 1064.19 215.197C1065.95 217.752 1066.87 220.691 1066.94 224.015H1052.58C1052.43 222.651 1052.01 221.547 1051.31 220.704C1050.62 219.86 1049.68 219.24 1048.48 218.843C1047.32 218.422 1045.9 218.211 1044.24 218.211C1041.56 218.211 1039.69 218.682 1038.62 219.625C1037.56 220.567 1037.02 221.584 1037.02 222.676C1037.02 223.792 1037.46 224.747 1038.33 225.541C1039.22 226.31 1040.79 226.881 1043.05 227.253L1051.05 228.555C1054.8 229.15 1057.86 230.192 1060.24 231.681C1062.65 233.169 1064.42 235.03 1065.56 237.262C1066.71 239.495 1067.28 242.05 1067.28 244.928C1067.28 248.425 1066.26 251.477 1064.22 254.081C1062.22 256.661 1059.47 258.671 1056 260.109C1052.53 261.548 1048.58 262.268 1044.17 262.268ZM1098.38 262.268C1092.6 262.268 1088.01 261.3 1084.61 259.365C1081.24 257.43 1078.82 254.739 1077.35 251.291C1075.89 247.842 1075.16 243.836 1075.16 239.272V207.717H1089.82V239.867C1089.82 243.588 1090.67 246.23 1092.39 247.793C1094.12 249.356 1096.12 250.137 1098.38 250.137C1099.87 250.137 1101.25 249.802 1102.54 249.132C1103.86 248.438 1104.91 247.346 1105.71 245.858C1106.53 244.345 1106.94 242.348 1106.94 239.867V207.717H1121.6V239.272C1121.6 243.836 1120.86 247.842 1119.4 251.291C1117.94 254.739 1115.51 257.43 1112.11 259.365C1108.73 261.3 1104.16 262.268 1098.38 262.268ZM1130.61 261.523V207.717H1151.89C1155.86 207.717 1159.44 208.424 1162.61 209.838C1165.81 211.252 1168.34 213.324 1170.2 216.052C1172.06 218.756 1172.99 222.056 1172.99 225.95C1172.99 229.498 1172.21 232.549 1170.65 235.104C1169.09 237.634 1166.87 239.582 1163.99 240.946C1161.11 242.311 1157.7 242.993 1153.75 242.993H1145.08V261.523H1130.61ZM1144.94 232.202H1153.31C1155.14 232.202 1156.67 231.47 1157.88 230.006C1159.1 228.543 1159.71 226.943 1159.71 225.206C1159.71 223.346 1159.04 221.758 1157.7 220.443C1156.38 219.104 1154.92 218.434 1153.31 218.434H1144.94V232.202ZM1180.25 261.523V207.717H1201.53C1205.5 207.717 1209.07 208.424 1212.25 209.838C1215.45 211.252 1217.98 213.324 1219.84 216.052C1221.7 218.756 1222.63 222.056 1222.63 225.95C1222.63 229.498 1221.85 232.549 1220.29 235.104C1218.72 237.634 1216.5 239.582 1213.63 240.946C1210.75 242.311 1207.34 242.993 1203.39 242.993H1194.72V261.523H1180.25ZM1194.57 232.202H1202.95C1204.78 232.202 1206.31 231.47 1207.52 230.006C1208.74 228.543 1209.35 226.943 1209.35 225.206C1209.35 223.346 1208.68 221.758 1207.34 220.443C1206.02 219.104 1204.56 218.434 1202.95 218.434H1194.57V232.202ZM1254.15 262.268C1248.81 262.268 1244.19 261.139 1240.27 258.882C1236.37 256.599 1233.36 253.399 1231.23 249.281C1229.09 245.163 1228.03 240.314 1228.03 234.732C1228.03 229.126 1229.1 224.251 1231.26 220.108C1233.45 215.941 1236.5 212.716 1240.42 210.434C1244.34 208.127 1248.91 206.973 1254.15 206.973C1259.36 206.973 1263.91 208.127 1267.8 210.434C1271.7 212.716 1274.72 215.941 1276.88 220.108C1279.04 224.251 1280.12 229.126 1280.12 234.732C1280.12 240.289 1279.05 245.139 1276.92 249.281C1274.81 253.399 1271.81 256.599 1267.91 258.882C1264.02 261.139 1259.43 262.268 1254.15 262.268ZM1254.15 250.658C1256.13 250.658 1257.89 250.162 1259.43 249.17C1260.99 248.153 1262.21 246.503 1263.08 244.221C1263.97 241.914 1264.42 238.825 1264.42 234.955C1264.42 230.961 1263.97 227.774 1263.08 225.392C1262.21 222.986 1260.99 221.249 1259.43 220.183C1257.89 219.116 1256.13 218.583 1254.15 218.583C1252.16 218.583 1250.39 219.116 1248.83 220.183C1247.29 221.249 1246.07 222.986 1245.18 225.392C1244.29 227.774 1243.84 230.961 1243.84 234.955C1243.84 238.825 1244.29 241.914 1245.18 244.221C1246.07 246.503 1247.29 248.153 1248.83 249.17C1250.39 250.162 1252.16 250.658 1254.15 250.658ZM1288.32 261.523V207.717H1312.73C1317.39 207.717 1321.14 208.486 1323.96 210.024C1326.82 211.562 1328.89 213.646 1330.18 216.276C1331.47 218.88 1332.11 221.808 1332.11 225.057C1332.11 227.811 1331.74 230.168 1331 232.127C1330.28 234.062 1329.27 235.724 1327.98 237.113C1326.72 238.478 1325.25 239.669 1323.59 240.686L1333.04 261.523H1318.2L1310.38 242.993H1302.79V261.523H1288.32ZM1302.79 232.202H1311.09C1312.95 232.202 1314.49 231.47 1315.7 230.006C1316.94 228.543 1317.56 226.943 1317.56 225.206C1317.56 223.346 1316.9 221.758 1315.56 220.443C1314.22 219.104 1312.73 218.434 1311.09 218.434H1302.79V232.202ZM1352.07 261.523V220.443H1336.81V207.717H1381.98V220.443H1366.58V261.523H1352.07Z" fill="white"/>
<path d="M736.127 376.707L717.004 311.18H727.879L741.157 358.49L754.48 311.18H762.728L776.141 358.49L789.464 311.18H800.385L781.126 376.707H771.836L758.604 330.258L745.19 376.707H736.127ZM810.211 376.707V311.18H821.223V338.234H852.945V311.18H863.956V376.707H852.945V347.614H821.223V376.707H810.211ZM874.93 376.707L898.449 311.18H910.413L933.932 376.707H922.875L917.029 360.257H891.924L886.032 376.707H874.93ZM894.552 350.469H914.265L904.431 321.874L894.552 350.469ZM951.409 376.707V321.104H931.017V311.18H982.133V321.104H962.466V376.707H951.409ZM1015.53 377.613C1012.26 377.613 1009.14 377.221 1006.15 376.435C1003.16 375.619 1000.42 374.426 997.944 372.855C995.497 371.254 993.473 369.275 991.871 366.919C990.27 364.532 989.288 361.753 988.926 358.581H1000.35C1000.83 360.786 1001.78 362.644 1003.2 364.154C1004.65 365.665 1006.48 366.813 1008.68 367.598C1010.89 368.384 1013.35 368.777 1016.07 368.777C1018.49 368.777 1020.74 368.414 1022.82 367.689C1024.91 366.964 1026.6 365.892 1027.9 364.472C1029.2 363.022 1029.85 361.239 1029.85 359.124C1029.85 356.738 1029 354.88 1027.31 353.55C1025.65 352.191 1023.26 351.118 1020.15 350.333L1007.32 347.297C1004 346.542 1001.1 345.439 998.624 343.989C996.176 342.539 994.273 340.635 992.914 338.279C991.554 335.892 990.874 332.977 990.874 329.533C990.874 325.605 991.947 322.207 994.092 319.337C996.267 316.467 999.213 314.261 1002.93 312.72C1006.64 311.149 1010.83 310.364 1015.48 310.364C1020.8 310.364 1025.28 311.255 1028.94 313.038C1032.6 314.79 1035.38 317.146 1037.28 320.107C1039.18 323.068 1040.15 326.315 1040.18 329.85H1029.03C1028.79 327.222 1028.02 325.152 1026.72 323.642C1025.42 322.101 1023.77 320.983 1021.78 320.288C1019.79 319.593 1017.58 319.246 1015.16 319.246C1010.87 319.246 1007.69 320.167 1005.6 322.01C1003.52 323.853 1002.48 326.013 1002.48 328.491C1002.48 330.817 1003.25 332.66 1004.79 334.019C1006.33 335.379 1008.68 336.436 1011.86 337.191L1024.05 340.046C1028.12 340.892 1031.4 342.191 1033.88 343.943C1036.36 345.696 1038.15 347.78 1039.27 350.197C1040.42 352.584 1040.99 355.227 1040.99 358.127C1040.99 361.934 1039.91 365.302 1037.73 368.233C1035.59 371.163 1032.61 373.459 1028.8 375.121C1025 376.783 1020.57 377.613 1015.53 377.613ZM1047.61 376.707L1071.13 311.18H1083.09L1106.61 376.707H1095.55L1089.71 360.257H1064.6L1058.71 376.707H1047.61ZM1067.23 350.469H1086.94L1077.11 321.874L1067.23 350.469ZM1117.6 376.707V311.18H1140.85C1145.56 311.18 1149.78 311.995 1153.49 313.627C1157.24 315.228 1160.18 317.6 1162.33 320.741C1164.47 323.883 1165.55 327.75 1165.55 332.342C1165.55 336.663 1164.56 340.363 1162.6 343.445C1160.67 346.526 1157.96 348.883 1154.49 350.514C1151.01 352.146 1146.95 352.961 1142.3 352.961H1128.79V376.707H1117.6ZM1128.7 344.125H1142.03C1145.86 344.125 1148.99 342.977 1151.41 340.681C1153.85 338.385 1155.08 335.394 1155.08 331.708C1155.08 327.962 1153.81 325.062 1151.27 323.007C1148.73 320.923 1145.55 319.88 1141.71 319.88H1128.7V344.125ZM1176.02 376.707V311.18H1199.26C1203.98 311.18 1208.19 311.995 1211.91 313.627C1215.65 315.228 1218.6 317.6 1220.74 320.741C1222.89 323.883 1223.96 327.75 1223.96 332.342C1223.96 336.663 1222.98 340.363 1221.02 343.445C1219.08 346.526 1216.38 348.883 1212.9 350.514C1209.43 352.146 1205.37 352.961 1200.71 352.961H1187.21V376.707H1176.02ZM1187.12 344.125H1200.44C1204.28 344.125 1207.41 342.977 1209.82 340.681C1212.27 338.385 1213.49 335.394 1213.49 331.708C1213.49 327.962 1212.22 325.062 1209.69 323.007C1207.15 320.923 1203.96 319.88 1200.12 319.88H1187.12V344.125Z" fill="white"/>
<path d="M275.319 509.333C404.565 509.333 509.339 404.559 509.339 275.313C509.339 146.067 404.565 41.293 275.319 41.293C146.073 41.293 41.2988 146.067 41.2988 275.313C41.2988 404.559 146.073 509.333 275.319 509.333Z" fill="url(#paint1_linear_4076_218)"/>
<path d="M154.84 396.127L172.185 331.482C162.384 313.807 157.208 293.984 157.208 273.83C157.208 208.03 210.729 154.508 276.53 154.508C342.331 154.508 395.853 208.03 395.853 273.83C395.853 339.631 342.331 393.153 276.53 393.153C256.762 393.153 237.27 388.142 219.815 378.671L154.84 396.072V396.127ZM223.008 354.499L227.083 356.921C242.116 365.897 259.185 370.577 276.475 370.577C329.832 370.577 373.222 327.187 373.222 273.83C373.222 220.474 329.832 177.084 276.475 177.084C223.119 177.084 179.729 220.474 179.729 273.83C179.729 291.451 184.629 308.796 193.88 323.993L196.413 328.123L186.722 364.19L223.008 354.444V354.499Z" fill="white"/>
<path fill-rule="evenodd" clip-rule="evenodd" d="M320.858 290.458C315.957 287.54 309.57 284.236 303.788 286.604C299.328 288.421 296.519 295.359 293.656 298.938C292.169 300.755 290.407 301.031 288.15 300.15C271.466 293.487 258.746 282.364 249.55 267.056C248.009 264.689 248.284 262.817 250.156 260.614C252.909 257.365 256.433 253.621 257.149 249.216C257.92 244.811 255.828 239.635 254.01 235.725C251.698 230.715 249.055 223.556 244.044 220.748C239.419 218.16 233.362 219.592 229.232 222.951C222.129 228.732 218.715 237.818 218.825 246.793C218.825 249.326 219.155 251.914 219.761 254.337C221.193 260.284 223.946 265.79 227.029 271.076C229.342 275.041 231.875 278.895 234.573 282.584C243.493 294.698 254.561 305.216 267.391 313.09C273.778 316.999 280.716 320.468 287.874 322.836C295.914 325.479 303.072 328.232 311.717 326.58C320.802 324.873 329.723 319.257 333.357 310.502C334.403 307.914 334.954 305.05 334.348 302.297C333.137 296.626 325.483 293.267 320.913 290.569L320.858 290.458Z" fill="white"/>
<line x1="631.008" y1="289.997" x2="1309.9" y2="289.997" stroke="white" stroke-width="1.42"/>
<defs>
<linearGradient id="paint0_linear_4076_218" x1="239.406" y1="275.317" x2="587.401" y2="275.317" gradientUnits="userSpaceOnUse">
<stop stop-color="#00F67A"/>
<stop offset="1" stop-color="#01B95D"/>
</linearGradient>
<linearGradient id="paint1_linear_4076_218" x1="109.853" y1="109.847" x2="440.785" y2="440.779" gradientUnits="userSpaceOnUse">
<stop stop-color="#00FB73"/>
<stop offset="1" stop-color="#00B25B"/>
</linearGradient>
</defs>
</svg>
