<?xml version="1.0" encoding="UTF-8"?>
<svg id="Layer_1" data-name="Layer 1" xmlns="http://www.w3.org/2000/svg" xmlns:xlink="http://www.w3.org/1999/xlink" viewBox="0 0 100 100">
  <defs>
    <style>
      .cls-1 {
        fill: #fff;
        fill-rule: evenodd;
      }

      .cls-1, .cls-2 {
        stroke-width: 0px;
      }

      .cls-2 {
        fill: url(#Degradado_sin_nombre_5);
      }
    </style>
    <linearGradient id="Degradado_sin_nombre_5" data-name="Degradado sin nombre 5" x1="21.72" y1="21.72" x2="78.28" y2="78.28" gradientUnits="userSpaceOnUse">
      <stop offset="0" stop-color="#ff4c3c"/>
      <stop offset=".96" stop-color="#ee053d"/>
      <stop offset="1" stop-color="#ee023e"/>
    </linearGradient>
  </defs>
  <circle class="cls-2" cx="50" cy="50" r="40"/>
  <path class="cls-1" d="M47.27,57.47c-.04.12-.07.23-.1.33-1.58,6.2-1.76,7.58-3.38,10.46-.78,1.37-1.65,2.67-2.62,3.91-.11.14-.21.32-.43.28-.24-.05-.26-.27-.28-.46-.26-1.88-.4-3.77-.34-5.68.08-2.48.39-3.33,3.58-16.76.05-.2,0-.38-.07-.56-.76-2.06-.92-4.16-.25-6.28,1.45-4.58,6.64-4.93,7.55-1.15.56,2.34-.92,5.4-2.06,9.92-.94,3.73,3.45,6.39,7.21,3.66,3.46-2.51,4.81-8.53,4.55-12.8-.5-8.51-9.83-10.35-15.75-7.61-6.79,3.14-8.33,11.55-5.26,15.39.39.49.69.79.56,1.28-.2.77-.37,1.55-.58,2.31-.16.57-.64.78-1.21.54-1.13-.46-2.07-1.18-2.83-2.12-2.6-3.22-3.35-9.59.09-14.99,3.81-5.98,10.9-8.4,17.37-7.66,7.73.88,12.62,6.16,13.53,12.15.42,2.73.12,9.46-3.72,14.22-4.41,5.47-11.55,5.83-14.85,2.47-.25-.26-.46-.56-.71-.87Z"/>
</svg>