<?xml version="1.0" encoding="UTF-8"?>
<svg id="Layer_1" data-name="Layer 1" xmlns="http://www.w3.org/2000/svg" xmlns:xlink="http://www.w3.org/1999/xlink" viewBox="0 0 100 100">
  <defs>
    <style>
      .cls-1 {
        fill: url(#Degradado_sin_nombre_12);
      }

      .cls-1, .cls-2 {
        stroke-width: 0px;
      }

      .cls-2 {
        fill: #fff;
      }
    </style>
    <linearGradient id="Degradado_sin_nombre_12" data-name="Degradado sin nombre 12" x1="21.72" y1="21.72" x2="78.28" y2="78.28" gradientUnits="userSpaceOnUse">
      <stop offset="0" stop-color="#2cb5e5"/>
      <stop offset=".65" stop-color="#6c6ef5"/>
      <stop offset="1" stop-color="#9146ff"/>
    </linearGradient>
  </defs>
  <circle class="cls-1" cx="50" cy="50" r="40"/>
  <path class="cls-2" d="M27.07,49.06s20.01-8.21,26.95-11.1c2.66-1.16,11.68-4.86,11.68-4.86,0,0,4.16-1.62,3.82,2.31-.12,1.62-1.04,7.29-1.97,13.42-1.39,8.68-2.89,18.16-2.89,18.16,0,0-.23,2.66-2.2,3.12-1.97.46-5.21-1.62-5.78-2.08-.46-.35-8.67-5.55-11.68-8.1-.81-.69-1.73-2.08.12-3.7,4.16-3.82,9.14-8.56,12.14-11.57,1.39-1.39,2.78-4.63-3.01-.69-8.21,5.67-16.31,10.99-16.31,10.99,0,0-1.85,1.16-5.32.12-3.47-1.04-7.52-2.43-7.52-2.43,0,0-2.78-1.73,1.97-3.59h0Z"/>
</svg>