<?xml version="1.0" encoding="UTF-8"?>
<svg width="20px" height="20px" viewBox="0 0 20 20" version="1.1" xmlns="http://www.w3.org/2000/svg" xmlns:xlink="http://www.w3.org/1999/xlink">
    <title>icon-set/icon-add</title>
    <g id="icon-set-Web最新整理" stroke="none" stroke-width="1" fill="none" fill-rule="evenodd">
        <g id="images" transform="translate(-1627.000000, -80.000000)" fill="#7293E1" fill-rule="nonzero">
            <g id="icon-set/icon-add" transform="translate(1627.000000, 80.000000)">
                <path d="M10.0390625,0 C4.54648438,0 0,4.46835938 0,9.9609375 C0,15.4535156 4.54648438,20 10.0390625,20 C15.5316406,20 20,15.4535156 20,9.9609375 C20,4.46835937 15.5316406,0 10.0390625,0 Z M15.3125,11.1328125 L11.2109375,11.1328125 L11.2109375,15.3125 C11.2109375,15.9585938 10.6847656,16.484375 10.0390625,16.484375 C9.39296875,16.484375 8.8671875,15.9585938 8.8671875,15.3125 L8.8671875,11.1328125 L4.6875,11.1328125 C4.04140625,11.1328125 3.515625,10.6070313 3.515625,9.9609375 C3.515625,9.31484375 4.04140625,8.7890625 4.6875,8.7890625 L8.8671875,8.7890625 L8.8671875,4.6875 C8.8671875,4.04140625 9.39296875,3.515625 10.0390625,3.515625 C10.6847656,3.515625 11.2109375,4.04140625 11.2109375,4.6875 L11.2109375,8.7890625 L15.3125,8.7890625 C15.9582031,8.7890625 16.484375,9.31484375 16.484375,9.9609375 C16.484375,10.6070312 15.9582031,11.1328125 15.3125,11.1328125 Z" id="Shape"></path>
            </g>
        </g>
    </g>
</svg>