<?xml version="1.0" encoding="UTF-8"?>
<svg width="61px" height="63px" viewBox="0 0 61 63" version="1.1" xmlns="http://www.w3.org/2000/svg" xmlns:xlink="http://www.w3.org/1999/xlink">
    <title>icon-set/icon-date</title>
    <g id="icon-set-Web最新整理" stroke="none" stroke-width="1" fill="none" fill-rule="evenodd">
        <g id="images" transform="translate(-48.000000, -1380.000000)" fill="#000000" fill-rule="nonzero">
            <g id="icon-set/icon-date" transform="translate(48.000000, 1380.000000)">
                <path d="M22.0372132,34.4163807 C22.0372132,33.6349192 21.4033541,33.0018268 20.6212536,33.0018268 L15.6800913,33.0018268 C14.8988855,33.0018268 14.2648985,33.6349192 14.2648985,34.4163807 L14.2648985,39.356904 C14.2648985,40.1393878 14.8988855,40.7727358 15.6800913,40.7727358 L20.6212536,40.7727358 C21.4033541,40.7727358 22.0372132,40.1393878 22.0372132,39.356904 L22.0372132,34.4163807 L22.0372132,34.4163807 Z" id="Path"></path>
                <path d="M34.3858379,34.4163807 C34.3858379,33.6349192 33.7518509,33.0018268 32.971284,33.0018268 L28.0294827,33.0018268 C27.2482769,33.0018268 26.6142899,33.6349192 26.6142899,34.4163807 L26.6142899,39.356904 C26.6142899,40.1393878 27.2482769,40.7727358 28.0294827,40.7727358 L32.971284,40.7727358 C33.7518509,40.7727358 34.3858379,40.1393878 34.3858379,39.356904 L34.3858379,34.4163807 Z" id="Path"></path>
                <path d="M46.7351015,34.4163807 C46.7351015,33.6349192 46.1011145,33.0018268 45.3199087,33.0018268 L40.3787464,33.0018268 C39.5966459,33.0018268 38.9627868,33.6349192 38.9627868,34.4163807 L38.9627868,39.356904 C38.9627868,40.1393878 39.5966459,40.7727358 40.3787464,40.7727358 L45.3199087,40.7727358 C46.1011145,40.7727358 46.7351015,40.1393878 46.7351015,39.356904 L46.7351015,34.4163807 Z" id="Path"></path>
                <path d="M22.0372132,46.7662833 C22.0372132,45.9835439 21.4033541,45.3509626 20.6212536,45.3509626 L15.6800913,45.3509626 C14.8988855,45.3509626 14.2648985,45.9835439 14.2648985,46.7662833 L14.2648985,51.7059121 C14.2648985,52.4878847 14.8988855,53.1211049 15.6800913,53.1211049 L20.6212536,53.1211049 C21.4033541,53.1211049 22.0372132,52.4877569 22.0372132,51.7059121 L22.0372132,46.7662833 L22.0372132,46.7662833 Z" id="Path"></path>
                <path d="M34.3858379,46.7662833 C34.3858379,45.9835439 33.7518509,45.3509626 32.971284,45.3509626 L28.0294827,45.3509626 C27.2482769,45.3509626 26.6142899,45.9835439 26.6142899,46.7662833 L26.6142899,51.7059121 C26.6142899,52.4878847 27.2482769,53.1211049 28.0294827,53.1211049 L32.971284,53.1211049 C33.7518509,53.1211049 34.3858379,52.4877569 34.3858379,51.7059121 L34.3858379,46.7662833 Z" id="Path"></path>
                <path d="M46.7351015,46.7662833 C46.7351015,45.9835439 46.1011145,45.3509626 45.3205476,45.3509626 L40.3787464,45.3509626 C39.5966459,45.3509626 38.9627868,45.9835439 38.9627868,46.7662833 L38.9627868,51.7059121 C38.9627868,52.4878847 39.5966459,53.1211049 40.3787464,53.1211049 L45.3205476,53.1211049 C46.1011145,53.1211049 46.7351015,52.4877569 46.7351015,51.7059121 L46.7351015,46.7662833 L46.7351015,46.7662833 Z" id="Path"></path>
                <path d="M55.5704083,6.94612532 L55.5704083,14.4923722 C55.5704083,17.903199 52.8034085,20.6517965 49.3930928,20.6517965 L45.4962646,20.6517965 C42.0856933,20.6517965 39.2820166,17.903199 39.2820166,14.4923722 L39.2820166,6.91903295 L21.7179834,6.91903295 L21.7179834,14.4923722 C21.7179834,17.903199 18.9144345,20.6517965 15.5043743,20.6517965 L11.6067794,20.6517965 C8.19659146,20.6517965 5.42971948,17.903199 5.42971948,14.4923722 L5.42971948,6.94612532 C2.44917562,7.03596464 0,9.50226468 0,12.5336706 L0,56.7582553 C0,59.8466574 2.50323256,62.3831165 5.59163472,62.3831165 L55.4083653,62.3831165 C58.4921668,62.3831165 61,59.8414179 61,56.7582553 L61,12.5336706 C61,9.50226468 58.5509522,7.03596464 55.5704083,6.94612532 Z M53.7604592,54.0042905 C53.7604592,55.338973 52.678298,56.4217732 51.3431044,56.4217732 L9.55044309,56.4217732 C8.21524941,56.4217732 7.13308822,55.338973 7.13308822,54.0042905 L7.13308822,31.160696 C7.13308822,29.8255023 8.21512161,28.7427021 9.55044309,28.7427021 L51.3429766,28.7427021 C52.6781702,28.7427021 53.7604592,29.8255023 53.7604592,31.160696 L53.7604592,54.0042905 L53.7604592,54.0042905 Z" id="Shape"></path>
                <path d="M11.5931054,16.6062158 L15.4476337,16.6062158 C16.6175895,16.6062158 17.5662058,15.6590053 17.5662058,14.4890495 L17.5662058,2.11793309 C17.5662058,0.947849496 16.6175895,0 15.4476337,0 L11.5931054,0 C10.4230218,0 9.47453334,0.947849496 9.47453334,2.11793309 L9.47453334,14.4890495 C9.47453334,15.6590053 10.4230218,16.6062158 11.5931054,16.6062158 Z" id="Path"></path>
                <path d="M45.4466805,16.6062158 L49.3012088,16.6062158 C50.4703978,16.6062158 51.4190141,15.6590053 51.4190141,14.4890495 L51.4190141,2.11793309 C51.4191419,0.947849496 50.4705256,0 49.3012088,0 L45.4466805,0 C44.2768525,0 43.3282362,0.947849496 43.3282362,2.11793309 L43.3282362,14.4890495 C43.3282362,15.6590053 44.2768525,16.6062158 45.4466805,16.6062158 Z" id="Path"></path>
            </g>
        </g>
    </g>
</svg>