<?xml version="1.0" encoding="UTF-8"?>
<svg width="20px" height="20px" viewBox="0 0 20 20" version="1.1" xmlns="http://www.w3.org/2000/svg" xmlns:xlink="http://www.w3.org/1999/xlink">
    <title>icon-set/icon-checked</title>
    <g id="icon-set-Web最新整理" stroke="none" stroke-width="1" fill="none" fill-rule="evenodd">
        <g id="images" transform="translate(-485.000000, -75.000000)" fill="#FFFFFF" fill-rule="nonzero">
            <g id="icon-set/icon-checked" transform="translate(485.000000, 75.000000)">
                <path d="M9.98963325,0 C4.48156479,0 0,4.48156479 0,9.98963325 C0,15.4977017 4.48156479,19.9792665 9.98963325,19.9792665 C15.4977017,19.9792665 19.9792665,15.4977017 19.9792665,9.98963325 C19.9792665,4.48156479 15.4977017,0 9.98963325,0 Z M15.5728117,7.3607824 L9.18845966,13.6950611 C8.81290954,14.0706112 8.21202934,14.0956479 7.81144254,13.7200978 L4.43149144,10.6405868 C4.03090465,10.2650367 4.00586797,9.6391198 4.35638142,9.23853301 C4.73193154,8.83794621 5.35784841,8.81290954 5.75843521,9.18845966 L8.43735941,11.6420538 L14.1457213,5.93369193 C14.5463081,5.53310513 15.1722249,5.53310513 15.5728117,5.93369193 C15.9733985,6.33427873 15.9733985,6.9601956 15.5728117,7.3607824 Z" id="Shape"></path>
            </g>
        </g>
    </g>
</svg>