<?xml version="1.0" encoding="UTF-8"?>
<svg width="30px" height="30px" viewBox="0 0 30 30" version="1.1" xmlns="http://www.w3.org/2000/svg" xmlns:xlink="http://www.w3.org/1999/xlink">
    <title>icon-set/icon-delete</title>
    <g id="icon-set-Web最新整理" stroke="none" stroke-width="1" fill="none" fill-rule="evenodd">
        <g id="images" transform="translate(-480.000000, -192.000000)" fill="#000000" fill-rule="nonzero">
            <g id="icon-set/icon-delete" transform="translate(480.000000, 192.000000)">
                <path d="M25.6066131,4.39338686 C22.7735138,1.56028746 19.0065765,0 15,0 C10.9934235,0 7.22648619,1.56028746 4.39338686,4.39338686 C1.56028746,7.22648619 0,10.9934235 0,15 C0,19.0068054 1.56028746,22.7735138 4.39338686,25.6066131 C7.22648619,28.4397125 10.9934235,30 15,30 C19.0065765,30 22.7735138,28.4397125 25.6066131,25.6066131 C28.4397125,22.7735138 30,19.0068054 30,15 C30,10.9934235 28.4397125,7.22648619 25.6066131,4.39338686 Z M21.4878845,19.4160462 C22.0598602,19.9882507 22.0598602,20.91568 21.4878845,21.4876556 C21.2017822,21.7737579 20.8268737,21.9168091 20.4519653,21.9168091 C20.0770569,21.9168091 19.7021484,21.7737579 19.4160462,21.4876556 L15,17.0716095 L10.5839538,21.4878845 C10.2978516,21.7737579 9.92294309,21.9168091 9.54803467,21.9168091 C9.17312625,21.9168091 8.79821777,21.7737579 8.51211551,21.4878845 C7.94013979,20.91568 7.94013979,19.9882507 8.51211551,19.416275 L12.9283905,15 L8.51211551,10.5839538 C7.94013979,10.0117493 7.94013979,9.08432004 8.51211551,8.51234438 C9.08432004,7.94013979 10.0117493,7.94013979 10.583725,8.51234438 L15,12.9283905 L19.4160462,8.51234438 C19.9882507,7.94036865 20.91568,7.94013979 21.4876556,8.51234438 C22.0598602,9.08432004 22.0598602,10.0117493 21.4876556,10.5839538 L17.0716095,15 L21.4878845,19.4160462 Z" id="Shape"></path>
            </g>
        </g>
    </g>
</svg>