<?xml version="1.0" encoding="UTF-8"?>
<svg width="11px" height="11px" viewBox="0 0 11 11" version="1.1" xmlns="http://www.w3.org/2000/svg" xmlns:xlink="http://www.w3.org/1999/xlink">
    <title>icon-set/icon-recommond</title>
    <g id="icon-set-Web最新整理" stroke="none" stroke-width="1" fill="none" fill-rule="evenodd">
        <g id="images" transform="translate(-1435.000000, -1091.000000)" fill="#FFFFFF" fill-rule="nonzero">
            <g id="icon-set/icon-recommond" transform="translate(1435.000000, 1091.960893)">
                <path d="M2.75000155,2.85721453 L2.75000155,10 L0.68750039,10 C0.30778911,10 0,9.6801789 0,9.2857215 L0,9.2857215 L0,3.57149308 C0,3.17699204 0.30778911,2.85721453 0.68750039,2.85721453 L0.68750039,2.85721453 L2.75000155,2.85721453 Z M6.8840627,0.000133922998 L6.958251,0.010758813 L7.4631341,0.141896073 C7.777011,0.223158823 8.0307949,0.446720153 8.1593658,0.755031343 C8.2879363,1.06299611 8.2718234,1.40792836 8.1147185,1.70124328 L8.1147185,1.70124328 L7.3986869,3.04086555 C7.3127491,3.20199679 7.3731742,3.34255074 7.4030509,3.39521485 C7.4329276,3.44822789 7.521886,3.57134308 7.6994681,3.57134308 L7.6994681,3.57134308 L9.7304068,3.5713343 C10.4303282,3.5713343 11,4.16319264 11,4.8903782 C11,4.99012577 10.9889221,5.08987406 10.9674377,5.18718022 L10.9674377,5.18718022 L10.2336136,8.6860308 C10.0298522,9.4592531 9.3480581,9.9994962 8.5759607,9.9994962 L8.5759607,9.9994962 L5.1562513,9.999845 C4.20858704,9.999845 3.43750035,9.1987245 3.43750035,8.2141486 L3.43750035,8.2141486 L3.43750035,4.47674328 C3.43750035,4.03520486 3.5939335,3.61110126 3.87826579,3.28221241 L3.87826579,3.28221241 L6.6195361,0.118179883 C6.7051381,0.019478083 6.8353871,-0.021327937 6.958251,0.010758813 L6.8840627,0.000133922998 Z" id="Shape"></path>
            </g>
        </g>
    </g>
</svg>