<svg width="100" height="100" viewBox="0 0 100 100" fill="none" xmlns="http://www.w3.org/2000/svg">
<path d="M50.0025 2.22461C23.5218 2.22461 2.05469 24.1133 2.05469 51.1102C2.05469 78.1072 23.5218 99.9996 50.0025 99.9996C76.4832 99.9996 97.9467 78.1109 97.9467 51.1102C97.9467 24.1096 76.4796 2.22461 50.0025 2.22461Z" fill="url(#paint0_radial_194_135)"/>
<path d="M51.3244 5.90713C51.3244 6.6896 50.7025 7.32373 49.9351 7.32373C49.1677 7.32373 48.5457 6.6896 48.5457 5.90713C48.5457 5.12466 49.1677 4.49609 49.9351 4.49609C50.7025 4.49609 51.3244 5.12652 51.3244 5.90713ZM46.349 4.63516C45.5871 4.69635 45.0161 5.3824 45.0761 6.1593C45.1361 6.9362 45.8053 7.51842 46.5672 7.45723C47.3292 7.39604 47.9002 6.7137 47.8402 5.9368C47.7802 5.15433 47.1164 4.57212 46.349 4.6333V4.63516ZM42.7866 5.06904C42.0283 5.19141 41.5082 5.91269 41.6319 6.68589C41.7501 7.45908 42.4629 7.98382 43.2176 7.8633C43.9759 7.73721 44.4905 7.01593 44.3723 6.24274C44.2541 5.46954 43.5413 4.94852 42.7866 5.06904ZM39.2642 5.78105C38.5186 5.96276 38.0586 6.72853 38.2386 7.48319C38.4168 8.24711 39.166 8.71251 39.9116 8.52895C40.6572 8.34724 41.1172 7.58702 40.939 6.82124C40.7608 6.06474 40.0098 5.59748 39.2642 5.77919V5.78105ZM35.8091 6.77674C35.0799 7.01593 34.6798 7.81509 34.9181 8.55862C35.1526 9.30215 35.9364 9.71007 36.6656 9.46717C37.3948 9.22427 37.7949 8.42882 37.5567 7.68529C37.3184 6.94177 36.5383 6.53384 35.8091 6.77674ZM32.4395 8.03944C31.7321 8.33982 31.3957 9.16864 31.6903 9.88992C31.9848 10.6112 32.7941 10.9542 33.5015 10.6538C34.2125 10.3535 34.5489 9.52836 34.2561 8.80337C33.9615 8.08209 33.1523 7.74277 32.4413 8.03944H32.4395ZM29.1789 9.57286C28.497 9.92886 28.2242 10.7799 28.5734 11.4753C28.9225 12.1706 29.7572 12.4487 30.4391 12.0927C31.1211 11.7404 31.3938 10.8893 31.0447 10.194C30.6955 9.49498 29.8609 9.22056 29.1789 9.57286ZM26.0475 11.364C25.3965 11.7719 25.1874 12.6415 25.5874 13.3053C25.9875 13.9747 26.844 14.1824 27.4968 13.7744C28.1497 13.3665 28.3533 12.4969 27.9569 11.8275C27.5568 11.1637 26.7003 10.9542 26.0475 11.364ZM23.0616 13.3962C22.4433 13.856 22.3033 14.7386 22.7542 15.3728C23.2052 16.0032 24.0745 16.1459 24.6927 15.6861C25.311 15.2263 25.451 14.34 25.0001 13.7095C24.5491 13.0791 23.6835 12.9364 23.0616 13.3962ZM20.2411 15.6639C19.661 16.1719 19.5937 17.0619 20.0884 17.6571C20.5866 18.2486 21.4649 18.3209 22.0432 17.8129C22.627 17.3048 22.6961 16.4148 22.2014 15.8196C21.7032 15.2244 20.8248 15.1558 20.2411 15.6639ZM17.6079 18.1485C17.0624 18.701 17.0624 19.5947 17.6079 20.1473C18.1499 20.698 19.0264 20.698 19.5683 20.1473C20.1084 19.5947 20.1084 18.701 19.5683 18.1485C19.0264 17.5978 18.1499 17.5978 17.6079 18.1485ZM15.1712 20.837C14.6729 21.4285 14.7402 22.3222 15.3239 22.8266C15.904 23.3346 16.7805 23.266 17.2788 22.6708C17.7771 22.0793 17.7098 21.1856 17.126 20.6776C16.5423 20.1695 15.664 20.2437 15.1712 20.8389V20.837ZM12.949 23.7073C12.498 24.3415 12.6344 25.224 13.2563 25.6839C13.8782 26.1437 14.7438 26.0047 15.1948 25.3705C15.6422 24.7364 15.5058 23.8538 14.8875 23.394C14.2656 22.9378 13.4 23.0769 12.949 23.7073ZM10.9541 26.7537C10.5541 27.4175 10.7577 28.2909 11.4106 28.7006C12.067 29.1086 12.9181 28.9009 13.32 28.2315C13.72 27.5677 13.5164 26.6944 12.8635 26.2846C12.2071 25.8767 11.356 26.0844 10.9541 26.7537ZM9.1993 29.9467C8.85015 30.642 9.12292 31.4968 9.80485 31.8491C10.4868 32.2051 11.3251 31.9269 11.6706 31.2335C12.0198 30.5344 11.747 29.6815 11.0651 29.3311C10.3831 28.9751 9.54844 29.2532 9.1993 29.9485V29.9467ZM7.69541 33.2694C7.40082 33.9906 7.73724 34.8195 8.45008 35.1198C9.15747 35.4147 9.96669 35.0753 10.2613 34.3559C10.5559 33.6346 10.2176 32.8058 9.51208 32.5054C8.80105 32.2051 7.99183 32.5499 7.69723 33.2694H7.69541ZM6.45521 36.7052C6.21699 37.4487 6.61705 38.2479 7.34627 38.487C8.07548 38.7299 8.85924 38.322 9.09382 37.5785C9.32841 36.835 8.93198 36.0414 8.20277 35.7966C7.47356 35.5537 6.68979 35.9616 6.45521 36.7052ZM5.48051 40.2281C5.30048 40.9883 5.75691 41.7486 6.50613 41.9303C7.24807 42.112 7.99728 41.6484 8.17549 40.8882C8.3537 40.128 7.89545 39.3641 7.15351 39.1805C6.40793 38.9969 5.65872 39.4661 5.47869 40.2263L5.48051 40.2281ZM4.77675 43.816C4.65855 44.5892 5.17682 45.3142 5.93149 45.4365C6.68979 45.5589 7.40082 45.0323 7.52084 44.2591C7.64086 43.4859 7.12441 42.7647 6.3661 42.6423C5.61144 42.5199 4.90041 43.0465 4.77675 43.816ZM4.36032 47.452C4.29668 48.2289 4.86768 48.9113 5.62962 48.9762C6.39702 49.0374 7.06076 48.4551 7.12441 47.6727C7.18442 46.8958 6.61342 46.2134 5.85148 46.1523C5.08408 46.0911 4.42033 46.6733 4.36032 47.4502V47.452ZM4.21484 51.1085C4.21484 51.891 4.83676 52.5251 5.60416 52.5251C6.37156 52.5251 6.99348 51.891 6.99348 51.1085C6.99348 50.326 6.37156 49.6975 5.60416 49.6975C4.83676 49.6975 4.21484 50.3279 4.21484 51.1085ZM4.36032 54.7668C4.42033 55.5437 5.08408 56.1259 5.85148 56.0647C6.61342 56.0035 7.18442 55.3268 7.12441 54.5443C7.06076 53.7674 6.3952 53.1852 5.62962 53.2464C4.86768 53.3076 4.29668 53.9899 4.36032 54.7668ZM4.77675 58.4029C4.90041 59.1761 5.61144 59.7008 6.3661 59.5803C7.12441 59.4542 7.63904 58.7329 7.52084 57.9597C7.40264 57.1865 6.68979 56.6618 5.93149 56.7879C5.17682 56.9084 4.65855 57.6297 4.77675 58.4047V58.4029ZM5.48051 61.9907C5.65872 62.7509 6.40975 63.22 7.15533 63.0365C7.89727 62.8548 8.35552 62.0908 8.17731 61.3306C7.9991 60.5741 7.24807 60.105 6.50795 60.2886C5.75873 60.4703 5.30229 61.2361 5.48232 61.9907H5.48051ZM6.45521 65.5174C6.68979 66.2553 7.47356 66.6633 8.20277 66.4204C8.93198 66.1812 9.32659 65.382 9.09382 64.6385C8.85924 63.895 8.07548 63.4926 7.34627 63.7299C6.61705 63.9728 6.21699 64.7683 6.45521 65.5155V65.5174ZM7.69541 68.9495C7.99001 69.6708 8.79923 70.0138 9.51026 69.7134C10.2176 69.4186 10.5541 68.5879 10.2595 67.8666C9.96488 67.1454 9.15565 66.8023 8.44826 67.1027C7.73724 67.4031 7.40082 68.2282 7.6936 68.9495H7.69541ZM9.1993 72.2722C9.54844 72.9712 10.3831 73.2456 11.0651 72.8933C11.747 72.5373 12.0198 71.6863 11.6706 70.9909C11.3251 70.2956 10.4868 70.0175 9.80485 70.3753C9.12292 70.7276 8.85015 71.5787 9.1993 72.274V72.2722ZM10.9541 75.4651C11.3542 76.1344 12.2071 76.3421 12.8635 75.9342C13.5164 75.5263 13.72 74.6567 13.32 73.9873C12.9199 73.3216 12.067 73.114 11.4106 73.5219C10.7596 73.9298 10.5541 74.7994 10.9541 75.4632V75.4651ZM12.949 78.5097C13.4 79.1438 14.2656 79.2829 14.8875 78.823C15.5058 78.3669 15.6422 77.4806 15.1948 76.8465C14.7438 76.216 13.8782 76.077 13.2563 76.5331C12.6344 76.9929 12.498 77.8792 12.949 78.5097ZM15.1712 81.3855C15.6658 81.9807 16.5423 82.0512 17.126 81.5413C17.7098 81.0332 17.7771 80.1432 17.2788 79.548C16.7805 78.9528 15.9022 78.8824 15.3239 79.3923C14.7402 79.9003 14.6729 80.7903 15.1712 81.3855ZM17.6079 84.0741C18.1499 84.6266 19.0264 84.6266 19.5683 84.0741C20.1084 83.5178 20.1084 82.6241 19.5683 82.0716C19.0264 81.5209 18.1499 81.5209 17.6079 82.0716C17.0624 82.6241 17.0624 83.5178 17.6079 84.0741ZM20.2411 86.5587C20.8248 87.063 21.7013 86.9926 22.2014 86.4029C22.6961 85.8077 22.627 84.9122 22.0432 84.4041C21.4631 83.8998 20.5866 83.9702 20.0884 84.5654C19.5937 85.1606 19.6628 86.0506 20.2411 86.5587ZM23.0616 88.8264C23.6835 89.2825 24.5491 89.1434 25.0001 88.513C25.451 87.8789 25.311 86.9926 24.6927 86.5327C24.0745 86.0766 23.2052 86.2157 22.7542 86.8461C22.3033 87.4802 22.4433 88.3665 23.0616 88.8264ZM26.0475 90.8604C26.6985 91.2683 27.555 91.0607 27.9569 90.3913C28.3533 89.7256 28.1497 88.8542 27.4968 88.4444C26.8458 88.0365 25.9893 88.2441 25.5874 88.9135C25.1874 89.5773 25.3965 90.4506 26.0475 90.8604ZM29.1789 92.646C29.8609 93.002 30.6955 92.7239 31.0447 92.0285C31.3938 91.3332 31.1211 90.4821 30.4391 90.1261C29.7572 89.7738 28.9225 90.0483 28.5734 90.7473C28.2242 91.4426 28.497 92.2937 29.1789 92.646ZM32.4395 94.1794C33.1505 94.4798 33.9597 94.1367 34.2543 93.4155C34.5489 92.6942 34.2107 91.8654 33.4996 91.565C32.7923 91.2702 31.983 91.6095 31.6884 92.3345C31.3938 93.0558 31.7303 93.8809 32.4376 94.1812L32.4395 94.1794ZM35.8091 95.4477C36.5383 95.6869 37.3166 95.2826 37.5567 94.5391C37.7949 93.7956 37.3948 92.9964 36.6656 92.7535C35.9364 92.5143 35.1526 92.9185 34.9181 93.6658C34.6798 94.4037 35.0799 95.2029 35.8091 95.4477ZM39.2642 96.4378C40.0098 96.6195 40.759 96.156 40.939 95.3957C41.1191 94.6355 40.6572 93.8716 39.9116 93.688C39.166 93.5045 38.4168 93.9736 38.2386 94.7338C38.0586 95.494 38.5186 96.2542 39.2642 96.4359V96.4378ZM42.7866 97.1535C43.5413 97.274 44.2523 96.7493 44.3723 95.9761C44.4924 95.2029 43.9759 94.4816 43.2176 94.3593C42.4629 94.2387 41.7519 94.7635 41.6319 95.5329C41.5082 96.3061 42.0283 97.0311 42.7866 97.1535ZM46.349 97.5837C47.1164 97.6449 47.7802 97.0627 47.8402 96.2857C47.9002 95.507 47.3292 94.8265 46.5672 94.7653C45.8053 94.7004 45.1361 95.2826 45.0761 96.0633C45.0161 96.842 45.5871 97.5225 46.349 97.5837ZM49.9351 97.7283C50.7025 97.7283 51.3244 97.0942 51.3244 96.3173C51.3244 95.5404 50.7025 94.9007 49.9351 94.9007C49.1677 94.9007 48.5457 95.5348 48.5457 96.3173C48.5457 97.0997 49.1677 97.7283 49.9351 97.7283ZM53.5229 97.5837C54.2885 97.5225 54.8613 96.842 54.7959 96.0633C54.7358 95.2826 54.0666 94.6986 53.3047 94.7653C52.5428 94.8265 51.9718 95.507 52.0318 96.2857C52.0918 97.0627 52.761 97.6449 53.5229 97.5837ZM57.0871 97.1535C57.8454 97.0311 58.3601 96.3061 58.2419 95.5329C58.1219 94.7635 57.4108 94.2387 56.6525 94.3593C55.8979 94.4816 55.3796 95.2029 55.4978 95.9761C55.616 96.7493 56.3325 97.274 57.0871 97.1535ZM60.6114 96.4378C61.3533 96.2561 61.8134 95.4959 61.6333 94.7356C61.4551 93.9754 60.7041 93.5063 59.964 93.6899C59.2148 93.8716 58.7583 94.6374 58.9383 95.3976C59.1184 96.1578 59.8621 96.6214 60.6132 96.4396L60.6114 96.4378ZM64.0628 95.4477C64.7957 95.2048 65.1921 94.4056 64.9575 93.6658C64.7193 92.9185 63.9355 92.5143 63.2063 92.7535C62.4771 92.9964 62.0825 93.7956 62.3153 94.5391C62.5535 95.2826 63.3373 95.685 64.0628 95.4477ZM67.4325 94.1794C68.1399 93.879 68.4763 93.0539 68.1817 92.3326C67.8871 91.6076 67.0779 91.2683 66.3705 91.5631C65.6631 91.8635 65.3267 92.6923 65.6213 93.4136C65.9104 94.1349 66.7251 94.4779 67.4325 94.1775V94.1794ZM70.6912 92.646C71.3731 92.2937 71.6459 91.4426 71.3004 90.7473C70.9512 90.0483 70.1165 89.7738 69.4346 90.1261C68.749 90.4821 68.4799 91.3332 68.8254 92.0285C69.1746 92.7239 70.0093 93.002 70.6912 92.646ZM73.8262 90.8604C74.4773 90.4525 74.6827 89.5792 74.2809 88.9135C73.8808 88.2441 73.0243 88.0365 72.3715 88.4444C71.7204 88.8523 71.515 89.7256 71.9168 90.3913C72.3169 91.0607 73.1698 91.2683 73.8262 90.8604ZM76.8086 88.8264C77.4305 88.3665 77.5669 87.4802 77.1159 86.8461C76.6631 86.2157 75.7993 86.0766 75.181 86.5327C74.5591 86.9926 74.4227 87.8789 74.8737 88.513C75.321 89.1434 76.1903 89.2825 76.8086 88.8264ZM79.629 86.5587C80.2127 86.0506 80.28 85.1606 79.7818 84.5654C79.2835 83.9702 78.4106 83.9016 77.8269 84.4041C77.2432 84.9122 77.1759 85.8077 77.6741 86.4029C78.1724 86.9944 79.0453 87.063 79.629 86.5587ZM82.2658 84.0741C82.8077 83.5178 82.8077 82.6241 82.2658 82.0716C81.7257 81.5209 80.8474 81.5209 80.3018 82.0716C79.7618 82.6241 79.7618 83.5178 80.3018 84.0741C80.8474 84.6266 81.7257 84.6266 82.2658 84.0741ZM84.7026 81.3855C85.2008 80.7903 85.1281 79.9003 84.5444 79.3923C83.9643 78.8842 83.0878 78.9528 82.5931 79.548C82.0949 80.1432 82.1622 81.0332 82.7459 81.5413C83.326 82.0493 84.2025 81.9807 84.7008 81.3855H84.7026ZM86.9229 78.5097C87.3739 77.8792 87.2375 76.9929 86.6156 76.5331C85.9973 76.077 85.1281 76.216 84.6807 76.8465C84.2298 77.4806 84.3661 78.3669 84.9881 78.823C85.6064 79.2829 86.4756 79.1438 86.9211 78.5097H86.9229ZM88.916 75.4651C89.3161 74.8013 89.1124 73.9317 88.4595 73.5238C87.8085 73.1158 86.952 73.3235 86.5501 73.9892C86.1501 74.6585 86.3592 75.5263 87.0102 75.9361C87.6612 76.344 88.5141 76.1363 88.9142 75.4669L88.916 75.4651ZM90.6708 72.2722C91.02 71.5769 90.7472 70.7258 90.0653 70.3735C89.3833 70.0175 88.5487 70.2956 88.1995 70.9891C87.8504 71.6844 88.1231 72.5355 88.8051 72.8915C89.487 73.2438 90.3253 72.9694 90.6708 72.2703V72.2722ZM92.1747 68.9495C92.4693 68.2282 92.1311 67.4031 91.4255 67.1027C90.7181 66.8023 89.9052 67.1472 89.6143 67.8666C89.3161 68.5879 89.6579 69.4167 90.3635 69.7134C91.0709 70.0138 91.8801 69.6708 92.1747 68.9495ZM93.4185 65.5174C93.6531 64.7701 93.2567 63.9747 92.5275 63.7318C91.7983 63.4926 91.0145 63.8968 90.7799 64.6403C90.5417 65.3839 90.9418 66.183 91.6655 66.4222C92.3984 66.6651 93.1785 66.2572 93.4167 65.5192L93.4185 65.5174ZM94.3951 61.9907C94.5733 61.2342 94.1132 60.4703 93.3676 60.2886C92.622 60.1069 91.8728 60.5741 91.6946 61.3306C91.5146 62.0908 91.9747 62.8548 92.7202 63.0365C93.4658 63.22 94.215 62.7509 94.3951 61.9907ZM95.0934 58.4029C95.2134 57.6297 94.6969 56.9084 93.9386 56.786C93.184 56.6599 92.4729 57.1847 92.3529 57.9579C92.2293 58.7311 92.7493 59.4523 93.504 59.5784C94.2623 59.6989 94.9733 59.1742 95.0934 58.401V58.4029ZM95.5153 54.7668C95.5753 53.9899 95.0043 53.3076 94.2423 53.2464C93.4767 53.1852 92.8112 53.7674 92.7512 54.5443C92.6911 55.3249 93.2622 56.0035 94.0241 56.0647C94.786 56.1259 95.4552 55.5437 95.5153 54.7668ZM95.6553 51.1085C95.6553 50.326 95.0334 49.6975 94.266 49.6975C93.4986 49.6975 92.8821 50.3279 92.8821 51.1085C92.8821 51.8891 93.5004 52.5251 94.266 52.5251C95.0315 52.5251 95.6553 51.891 95.6553 51.1085ZM95.5153 47.452C95.4552 46.6751 94.786 46.0929 94.0241 46.1541C93.2622 46.2153 92.6911 46.8976 92.7512 47.6745C92.8112 48.457 93.4749 49.0392 94.2423 48.978C95.0043 48.9131 95.5753 48.2308 95.5153 47.4539V47.452ZM95.0934 43.816C94.9733 43.0465 94.2623 42.5218 93.504 42.6423C92.7493 42.7628 92.2311 43.4841 92.3529 44.2591C92.4729 45.0323 93.184 45.5571 93.9386 45.4365C94.6969 45.316 95.2116 44.5892 95.0934 43.816ZM94.3951 40.2281C94.2168 39.4679 93.4658 38.9988 92.7202 39.1824C91.9747 39.3641 91.5146 40.1299 91.6946 40.8901C91.8728 41.6503 92.6239 42.1138 93.3676 41.9321C94.1132 41.7504 94.5733 40.9902 94.3951 40.23V40.2281ZM93.4185 36.7052C93.1803 35.9616 92.4002 35.5537 91.6673 35.7966C90.9436 36.0395 90.5435 36.835 90.7817 37.5785C91.0163 38.322 91.8001 38.7299 92.5293 38.487C93.2585 38.2479 93.6531 37.4487 93.4204 36.7052H93.4185ZM92.1747 33.2694C91.8801 32.5481 91.0709 32.2051 90.3635 32.5054C89.6561 32.8058 89.3161 33.6346 89.6143 34.3559C89.9034 35.0772 90.7181 35.4165 91.4255 35.1198C92.1329 34.8195 92.4693 33.9906 92.1747 33.2694ZM90.6708 29.9467C90.3253 29.2513 89.487 28.9732 88.8051 29.3292C88.1231 29.6815 87.8504 30.5326 88.1995 31.2316C88.5487 31.9269 89.3833 32.2051 90.0653 31.8472C90.7472 31.4949 91.02 30.6401 90.6708 29.9448V29.9467ZM88.916 26.7537C88.5159 26.0844 87.6631 25.8767 87.012 26.2846C86.361 26.6926 86.1519 27.5659 86.552 28.2315C86.952 28.9009 87.8085 29.1086 88.4614 28.7006C89.1142 28.2927 89.3179 27.4194 88.9178 26.7537H88.916ZM86.9229 23.7073C86.4756 23.0769 85.6064 22.9378 84.9899 23.394C84.368 23.8538 84.2316 24.7364 84.6826 25.3705C85.1299 26.0047 85.9991 26.1437 86.6174 25.6839C87.2394 25.224 87.3757 24.3415 86.9248 23.7073H86.9229ZM84.7026 20.837C84.2043 20.2418 83.326 20.1677 82.7477 20.6757C82.164 21.1838 82.0967 22.0793 82.5949 22.669C83.0896 23.2642 83.9661 23.3346 84.5462 22.8247C85.1299 22.3204 85.2027 21.4267 84.7044 20.8352L84.7026 20.837ZM82.2658 18.1485C81.7257 17.5978 80.8474 17.5978 80.3018 18.1485C79.7618 18.701 79.7618 19.5947 80.3018 20.1473C80.8474 20.698 81.7257 20.698 82.2658 20.1473C82.8077 19.5947 82.8077 18.701 82.2658 18.1485ZM79.629 15.6639C79.0453 15.1558 78.1724 15.2244 77.6741 15.8196C77.1759 16.4148 77.2432 17.3048 77.8269 17.8129C78.4106 18.3209 79.2835 18.2467 79.7818 17.6571C80.28 17.0619 80.2127 16.1719 79.629 15.6639ZM76.8086 13.3962C76.1903 12.9364 75.321 13.0791 74.8737 13.7095C74.4227 14.34 74.5591 15.2263 75.181 15.6861C75.7993 16.1478 76.6631 16.0032 77.1159 15.3728C77.5669 14.7386 77.4305 13.856 76.8086 13.3962ZM73.8262 11.364C73.1698 10.9561 72.3187 11.1637 71.9168 11.8275C71.5168 12.4969 71.7204 13.3665 72.3715 13.7744C73.0243 14.1824 73.8808 13.9747 74.2809 13.3053C74.6809 12.6415 74.4773 11.7719 73.8262 11.364ZM70.6912 9.57286C70.0093 9.22056 69.1746 9.49498 68.8254 10.194C68.4799 10.8893 68.749 11.7404 69.4346 12.0927C70.1165 12.4487 70.9512 12.1706 71.3004 11.4753C71.6459 10.7799 71.3731 9.92886 70.6912 9.57286ZM67.4325 8.03944C66.7251 7.74463 65.9122 8.08395 65.6213 8.80337C65.3267 9.52836 65.6649 10.3535 66.3705 10.6538C67.076 10.9542 67.8871 10.6093 68.1817 9.88992C68.4763 9.1705 68.138 8.33982 67.4325 8.03944ZM64.0628 6.77674C63.3391 6.53384 62.5553 6.94177 62.3153 7.68529C62.0807 8.42882 62.4771 9.22242 63.2063 9.46717C63.9355 9.71192 64.7193 9.30215 64.9575 8.55862C65.1921 7.81509 64.7957 7.01593 64.0628 6.77674ZM60.6114 5.78105C59.8621 5.59933 59.1166 6.06659 58.9365 6.8231C58.7583 7.58702 59.2129 8.34724 59.9622 8.5308C60.7041 8.71437 61.4533 8.24897 61.6315 7.48504C61.8115 6.72854 61.3515 5.96461 60.6095 5.7829L60.6114 5.78105ZM57.0871 5.06904C56.3325 4.94852 55.6178 5.46954 55.4978 6.24274C55.3778 7.01593 55.8979 7.73721 56.6525 7.8633C57.4108 7.98567 58.1219 7.45908 58.2419 6.68589C58.3601 5.91269 57.8454 5.19141 57.0871 5.06904ZM53.5229 4.63516C52.761 4.57397 52.0918 5.15618 52.0318 5.93865C51.9718 6.71555 52.5428 7.3979 53.3047 7.45908C54.0666 7.52027 54.7358 6.93806 54.7959 6.16115C54.8595 5.38425 54.2885 4.6982 53.5229 4.63701V4.63516Z" fill="url(#paint1_linear_194_135)"/>
<g style="mix-blend-mode:hard-light" opacity="0.16">
<path d="M50.0027 54.9099C67.682 54.9099 84.6375 52.416 100 47.6637C98.2524 21.0858 76.5052 0 50.0027 0C23.5002 0 1.7421 21.0858 0 47.6656C15.3625 52.4179 32.3216 54.9117 50.0027 54.9117V54.9099Z" fill="white"/>
</g>
<path d="M82.457 51.1091C82.457 69.3876 67.9291 84.2044 50.0026 84.2044C32.076 84.2044 17.5391 69.3876 17.5391 51.1091C17.5391 32.8305 32.0742 18.0137 50.0026 18.0137C67.9309 18.0137 82.457 32.8305 82.457 51.1091ZM50.0026 19.1299C32.6815 19.1299 18.6356 33.4479 18.6356 51.1091C18.6356 68.7702 32.6815 83.0919 50.0026 83.0919C67.3236 83.0919 81.3659 68.7702 81.3659 51.1091C81.3659 33.4479 67.3236 19.1299 50.0026 19.1299Z" fill="url(#paint2_linear_194_135)"/>
<path d="M23.8088 81.1361L27.3021 79.4284C27.4549 79.3561 27.5694 79.2782 27.6422 79.1984C27.7568 79.0724 27.7804 78.9648 27.7131 78.874C27.6458 78.7831 27.6004 78.7238 27.5785 78.6941C27.5549 78.6644 27.5131 78.6199 27.4512 78.5625L27.3585 78.4753C27.2639 78.3863 27.2294 78.3177 27.2549 78.2732C27.3003 78.2139 27.344 78.2009 27.384 78.2324L28.9788 79.7399C29.0242 79.7825 29.0224 79.8307 28.9715 79.8864C28.9333 79.929 28.8733 79.9105 28.7897 79.8326L28.6842 79.7325C28.5314 79.5878 28.3641 79.4914 28.1841 79.4413C28.0041 79.3913 27.7604 79.4413 27.4567 79.5915L23.8488 81.3734C23.7906 81.4123 23.7652 81.4587 23.7743 81.5125C23.7816 81.5662 23.7979 81.6145 23.8234 81.6534L24.0198 81.7795L22.5195 81.8351L24.5508 76.8195C24.7181 76.4079 24.6872 76.0575 24.458 75.7701C24.3453 75.6236 24.2689 75.5253 24.2289 75.4715C24.1889 75.4178 24.1562 75.3677 24.1307 75.3195C24.1798 75.2657 24.2271 75.2546 24.2725 75.2898L26.3802 77.2812C26.4165 77.3165 26.4165 77.3628 26.3802 77.4203C26.3383 77.4666 26.2165 77.3943 26.0146 77.2033C25.8128 77.0124 25.6419 76.9957 25.5 77.1496L25.4146 77.2571C25.3909 77.2831 25.3673 77.3387 25.3436 77.424L23.807 81.1305L23.8088 81.1361Z" fill="url(#paint3_linear_194_135)"/>
<path d="M26.53 84.4002L29.285 80.4433C29.2868 80.4304 29.2868 80.4211 29.285 80.4118C29.2832 80.3747 29.2777 80.3395 29.2668 80.3043C29.2541 80.2245 29.225 80.1504 29.1832 80.0836C29.1577 80.0299 29.1032 79.9613 29.0159 79.8778L28.8031 79.7239C28.7649 79.6887 28.7649 79.6405 28.8031 79.5756C28.8413 79.52 28.8849 79.5088 28.9304 79.5422L31.198 81.1832C31.2344 81.2091 31.2381 81.2536 31.209 81.3167C31.1726 81.3686 31.1199 81.3797 31.0507 81.35L30.8325 81.2332C30.7907 81.2036 30.7507 81.1739 30.7089 81.1442C30.6525 81.1257 30.6052 81.109 30.567 81.0942C30.5288 81.0812 30.4834 81.0608 30.4306 81.0385C30.3834 81.0256 30.3434 81.0181 30.3088 81.0144C30.2743 81.0107 30.2306 81.0385 30.1815 81.1016L27.4338 85.0454C27.3974 85.0974 27.3938 85.153 27.4192 85.2142L27.5738 85.4218L27.772 85.6276L27.9575 85.7927C28.0121 85.8316 28.0193 85.8872 27.9793 85.9558C27.9411 86.0115 27.8975 86.0226 27.852 85.9892L25.5844 84.3483C25.548 84.3223 25.5444 84.2759 25.5771 84.2111C25.6135 84.1573 25.6644 84.1462 25.7262 84.1758L25.919 84.3149C25.9881 84.3649 26.0645 84.3983 26.1481 84.4169L26.3864 84.4317C26.4191 84.4336 26.4536 84.428 26.4918 84.4132C26.4991 84.4132 26.5136 84.4076 26.5318 84.4002H26.53Z" fill="url(#paint4_linear_194_135)"/>
<path d="M33.6384 82.6329C34.2166 82.9574 34.6658 83.3097 34.9859 83.6879C35.3059 84.0662 35.3077 84.5483 34.995 85.1305C34.7367 85.607 34.3312 85.8036 33.7784 85.7183C33.2238 85.633 32.6473 85.4216 32.0472 85.0841L31.6926 84.8857C31.6035 84.8357 31.538 84.7986 31.4926 84.7745L30.3378 86.9142C30.2815 87.0199 30.3378 87.1423 30.5051 87.2814L30.8961 87.5892C30.9943 87.6448 31.0234 87.7097 30.9834 87.7857C30.9597 87.8302 30.9179 87.8376 30.8579 87.8042L28.4357 86.4451C28.3811 86.4154 28.3611 86.3747 28.3757 86.3227C28.4048 86.2671 28.4593 86.2486 28.5394 86.2671L28.9722 86.4117C29.1976 86.4803 29.3358 86.4692 29.3849 86.3784L31.6726 82.1397C31.729 82.034 31.7162 81.9265 31.6308 81.8171C31.5453 81.7077 31.3725 81.5797 31.1125 81.4332C31.067 81.4073 31.0561 81.3684 31.0779 81.3164C31.1107 81.2552 31.1543 81.2404 31.2089 81.2719L33.6384 82.6348V82.6329ZM31.5853 84.6002L31.7344 84.7337L32.0217 84.895C32.3818 85.0971 32.7455 85.1972 33.1128 85.1991C33.482 85.1991 33.7784 84.9914 34.0021 84.5761C34.2166 84.1793 34.2803 83.8326 34.1966 83.5378C34.113 83.2411 33.8948 82.9963 33.5456 82.7998C33.3183 82.6718 33.1219 82.594 32.9564 82.5624C32.791 82.5309 32.6782 82.5699 32.6218 82.6756L31.5835 84.6002H31.5853Z" fill="url(#paint5_linear_194_135)"/>
<path d="M39.8316 86.2942L38.8587 90.6886C38.8296 90.8184 38.8914 90.9185 39.0424 90.989L39.4334 91.1317C39.5061 91.1651 39.5352 91.217 39.5188 91.2894C39.5079 91.3357 39.4679 91.3505 39.397 91.3339L37.9095 90.9908C37.8385 90.9741 37.8076 90.9296 37.8185 90.8555C37.8331 90.7943 37.8767 90.772 37.9549 90.7887C38.075 90.8165 38.2113 90.8295 38.3641 90.8295C38.5168 90.8295 38.6078 90.7646 38.6369 90.6367L39.6861 85.9011C39.7116 85.7843 39.6879 85.7008 39.617 85.6508C39.5443 85.6026 39.4806 85.5655 39.4261 85.5414C39.3715 85.5173 39.2988 85.495 39.2115 85.4746L39.0442 85.4542C38.9787 85.4394 38.9515 85.4023 38.966 85.3411L39.0078 85.2651C39.0315 85.2391 39.0606 85.2243 39.0951 85.2188L40.6081 85.5673L41.4701 89.246L43.8486 86.3127L45.7798 86.7577C45.8344 86.7707 45.8562 86.8171 45.8453 86.8968C45.8308 86.958 45.7889 86.9895 45.7198 86.9914C45.4598 86.932 45.247 86.9023 45.0816 86.9023C44.9161 86.9023 44.8197 86.9617 44.7942 87.0785L43.7486 91.7974C43.7177 91.9365 43.8304 92.0644 44.0887 92.1757L44.5269 92.3036C44.6015 92.3333 44.6306 92.3796 44.616 92.4482C44.6069 92.4927 44.5669 92.5131 44.4978 92.5094L41.7756 91.8827C41.7155 91.8679 41.6846 91.8363 41.6846 91.7826C41.7046 91.7399 41.7228 91.714 41.7374 91.7028C41.7519 91.6917 41.7792 91.6843 41.8192 91.6824L41.9429 91.7103C42.0738 91.7399 42.172 91.7603 42.2375 91.7696C42.3011 91.7789 42.3847 91.7789 42.4884 91.7696C42.5902 91.7603 42.6593 91.6806 42.6921 91.5285L43.7395 86.7985L41.5301 89.5093L41.641 89.6317L41.7374 89.7077L41.6101 89.8116C41.4028 89.8876 41.2609 89.9488 41.1846 89.9951C41.1082 90.0415 41.0282 90.1212 40.9463 90.2306C40.8645 90.34 40.8099 90.3938 40.7827 90.3864C40.7554 90.3808 40.7245 90.3029 40.6881 90.1527L40.5335 89.3332C40.4953 89.1181 40.4499 88.8919 40.4008 88.6508C40.3499 88.4098 40.2862 88.1335 40.2044 87.8202L39.8298 86.296L39.8316 86.2942Z" fill="url(#paint6_linear_194_135)"/>
<path d="M48.6448 89.351C48.7684 89.3566 48.8812 89.3288 48.983 89.2639C49.0848 89.2008 49.1649 89.1211 49.2267 89.0265C49.2867 88.932 49.3285 88.83 49.3503 88.7224L49.3922 88.3979L49.3958 88.3127L49.5831 88.296L49.4576 90.8974L49.2721 90.8881L49.2794 90.7509L49.2721 90.3652C49.2776 90.2466 49.254 90.1131 49.1976 89.9684C49.1649 89.8294 49.1048 89.7274 49.0176 89.6607C48.943 89.5883 48.8175 89.5475 48.6429 89.5383L47.3809 89.4752L47.2554 92.0933C47.2482 92.2417 47.3191 92.3437 47.4682 92.3974C47.5464 92.4178 47.6355 92.4382 47.7392 92.4549C47.8428 92.4716 47.9647 92.4827 48.1047 92.4901C48.5429 92.5124 49.003 92.3511 49.4867 92.0062L50.7997 90.8529C50.8269 90.8529 50.8488 90.89 50.8615 90.9586L50.3323 91.9394C50.3069 91.9895 50.2032 92.1861 50.0177 92.5254C49.8759 92.7942 49.7431 93.0334 49.6195 93.2448L49.5195 93.0445C49.4504 92.8499 49.3649 92.7497 49.2631 92.7442L48.0847 92.6848L45.3315 92.5458C45.2588 92.5421 45.2206 92.505 45.2188 92.4327C45.2206 92.377 45.2624 92.3492 45.3406 92.3474C45.6261 92.3622 45.8352 92.3474 45.968 92.3047C46.0989 92.2621 46.168 92.1842 46.1735 92.0674L46.3989 87.3856C46.408 87.2131 46.3353 87.0833 46.1807 86.998C46.028 86.9127 45.8334 86.8645 45.597 86.8516C45.5133 86.8479 45.4715 86.8145 45.4752 86.7514C45.4788 86.6884 45.5243 86.6569 45.6152 86.655L48.3684 86.7941L49.514 86.8516C49.6086 86.8571 49.6958 86.7718 49.7704 86.5975L49.8322 86.5586L50.2032 87.4468L50.6506 88.5111C50.6469 88.5797 50.6251 88.6167 50.5869 88.6205C50.3141 88.2218 49.9795 87.8565 49.5849 87.5246C49.1903 87.1927 48.7521 87.0147 48.2683 86.9888C48.0556 86.9776 47.8719 87.0055 47.7192 87.0741C47.5664 87.1408 47.4864 87.2725 47.4773 87.4671L47.39 89.2861L48.6448 89.3491V89.351Z" fill="url(#paint7_linear_194_135)"/>
<path d="M51.9397 87.7491L52.4761 92.2196C52.4925 92.3512 52.5834 92.4235 52.7489 92.4384H53.1653C53.2454 92.4439 53.289 92.4847 53.2981 92.5589C53.3035 92.6053 53.2708 92.6349 53.1981 92.6442L51.6833 92.8333C51.6105 92.8426 51.5669 92.8111 51.5524 92.7369C51.5451 92.6739 51.5796 92.6368 51.6578 92.6275C51.7797 92.6127 51.9142 92.5774 52.0579 92.5255C52.2016 92.4736 52.2652 92.3809 52.2507 92.2493L51.6742 87.4302C51.6596 87.3097 51.6105 87.2392 51.5251 87.2188C51.4396 87.1966 51.3687 87.1855 51.3087 87.1799C51.2487 87.1762 51.1741 87.1799 51.085 87.191L50.9195 87.2281C50.8522 87.2355 50.8159 87.2096 50.8086 87.1484L50.8231 87.0631C50.8359 87.0297 50.8595 87.0056 50.8904 86.9889L52.4307 86.7979L54.4583 89.9649L55.7276 86.3863L57.6934 86.1416C57.7497 86.1341 57.7843 86.1712 57.8006 86.2491C57.8079 86.3121 57.7788 86.3566 57.7134 86.3807C57.4497 86.4141 57.2387 86.4586 57.0823 86.5161C56.926 86.5736 56.855 86.6607 56.8696 86.7813L57.4442 91.5836C57.4606 91.7264 57.6097 91.8061 57.8898 91.8228L58.3444 91.7913C58.4244 91.7913 58.468 91.8283 58.4753 91.897C58.4808 91.9433 58.4498 91.9748 58.3844 91.9952L55.6148 92.3401C55.553 92.3475 55.5148 92.3271 55.4966 92.2771C55.5021 92.2307 55.5094 92.1992 55.5185 92.1825C55.5276 92.1677 55.5512 92.151 55.5894 92.1343L55.7149 92.1195C55.8494 92.1028 55.9476 92.0879 56.0113 92.0731C56.0749 92.0583 56.1531 92.0305 56.2477 91.9878C56.3422 91.9433 56.3786 91.845 56.3604 91.6911L55.784 86.8777L54.6001 90.1892L54.7456 90.2671L54.8602 90.3042L54.7747 90.4451C54.6056 90.5879 54.4928 90.6936 54.4365 90.764C54.3801 90.8345 54.331 90.9365 54.291 91.0681C54.251 91.1998 54.2164 91.2684 54.1873 91.2721C54.1601 91.2758 54.1037 91.2128 54.02 91.0848L53.6036 90.3654C53.4963 90.1763 53.3781 89.9779 53.2526 89.7683C53.1253 89.5588 52.9726 89.3215 52.7944 89.0545L51.9379 87.7491H51.9397Z" fill="url(#paint8_linear_194_135)"/>
<path d="M57.4974 86.1128L60.7707 85.0967C61.2217 84.9557 61.6581 84.9316 62.08 85.0225C62.5001 85.1133 62.7838 85.4007 62.9274 85.8828C63.0038 86.1406 62.9983 86.3946 62.9074 86.6449C62.8165 86.8952 62.6292 87.1177 62.3419 87.3161C62.7219 87.2883 63.0547 87.3588 63.3439 87.5275C63.6312 87.6962 63.8348 87.9762 63.9512 88.3656C64.104 88.8755 64.0331 89.3557 63.7385 89.8044C63.4439 90.2531 63.0311 90.5591 62.4983 90.726L59.185 91.755C59.1213 91.7754 59.0777 91.7588 59.0559 91.705C59.0395 91.6512 59.0522 91.6067 59.0959 91.5752L59.3214 91.5047C59.4778 91.4565 59.6087 91.3972 59.7178 91.3267C59.8269 91.2563 59.8615 91.1561 59.8215 91.0245L58.4867 86.554C58.4285 86.3612 58.2758 86.2592 58.0248 86.2463L57.5247 86.3111C57.4683 86.3223 57.432 86.3019 57.4102 86.2518C57.4156 86.2129 57.4229 86.1851 57.4302 86.1702L57.5011 86.1109L57.4974 86.1128ZM60.1979 85.4805C59.9615 85.5546 59.776 85.6529 59.6432 85.779C59.5014 85.894 59.4578 86.046 59.5141 86.2314L60.0306 87.9577L61.2399 87.5813C61.4817 87.5052 61.6418 87.3384 61.72 87.0769C61.7981 86.8155 61.7945 86.5429 61.709 86.2574C61.6018 85.8958 61.4035 85.6492 61.118 85.5194C60.8325 85.3896 60.5252 85.3748 60.1979 85.4768V85.4805ZM61.3126 87.7945L60.0942 88.1728L60.838 90.6648C60.8798 90.8075 60.9816 90.878 61.1417 90.8762C61.2217 90.8687 61.3144 90.8558 61.4181 90.8354C61.5217 90.815 61.6418 90.7834 61.7763 90.7427C62.16 90.624 62.4364 90.3737 62.6037 89.9917C62.771 89.6097 62.7892 89.2037 62.6601 88.7698C62.5637 88.4472 62.3637 88.1876 62.06 87.9948C61.7563 87.8019 61.5072 87.7352 61.3126 87.7964V87.7945Z" fill="url(#paint9_linear_194_135)"/>
<path d="M66.4409 85.4481C66.5518 85.3943 66.6373 85.3127 66.6973 85.2089C66.7573 85.1051 66.79 84.9938 66.801 84.8826C66.8119 84.7713 66.801 84.6601 66.7682 84.5544L66.6518 84.2484L66.6155 84.1706L66.7719 84.0649L67.8793 86.4123L67.712 86.4939L67.6538 86.3715L67.4683 86.0359C67.4174 85.9283 67.3338 85.8245 67.2174 85.7225C67.1246 85.6168 67.0228 85.5556 66.9155 85.539C66.8155 85.513 66.6864 85.539 66.53 85.615L65.3916 86.1749L66.5064 88.5372C66.57 88.6707 66.6791 88.7263 66.8355 88.7003C66.9137 88.6818 67.0028 88.654 67.101 88.6188C67.1992 88.5835 67.312 88.5335 67.4392 88.4723C67.8339 88.2794 68.163 87.9123 68.4267 87.3746L69.0413 85.7225C69.0668 85.7095 69.1013 85.7318 69.1468 85.7856L69.1413 86.9036C69.1413 86.9593 69.1413 87.1836 69.1395 87.573C69.1395 87.8789 69.1359 88.1534 69.1268 88.4L68.9449 88.2739C68.7922 88.1367 68.6704 88.0903 68.5794 88.1348L67.5156 88.6558L65.0316 89.8759C64.9661 89.9074 64.9152 89.8926 64.8806 89.8314C64.857 89.7813 64.8806 89.7368 64.9479 89.6979C65.2061 89.5718 65.3825 89.4569 65.4789 89.3567C65.5753 89.2548 65.5971 89.1528 65.548 89.0489L63.5532 84.8251C63.4804 84.6693 63.3549 84.5915 63.1804 84.5896C63.0058 84.5896 62.8112 84.6415 62.5985 84.7454C62.5221 84.7824 62.4712 84.7732 62.4439 84.7157C62.4166 84.6582 62.4439 84.6082 62.5221 84.5637L65.0061 83.3455L66.039 82.8393C66.1245 82.7966 66.1609 82.6817 66.1463 82.4907L66.1809 82.4258L66.9228 83.0247L67.8139 83.7423C67.8429 83.8034 67.8411 83.8461 67.8084 83.8683C67.3811 83.6514 66.9173 83.4938 66.4154 83.3937C65.9135 83.2935 65.4444 83.351 65.0079 83.5642C64.8152 83.6588 64.6679 83.7719 64.566 83.9054C64.4642 84.0389 64.4533 84.1928 64.537 84.369L65.3116 86.0081L66.4427 85.4518L66.4409 85.4481Z" fill="url(#paint10_linear_194_135)"/>
<path d="M72.2956 80.5262C72.5738 80.9285 72.5775 81.3698 72.3083 81.8482C72.0374 82.3266 71.8646 82.5547 71.7864 82.5343L72.2392 82.7123L73.3158 83.1035L74.4832 83.5281C74.6887 83.5949 74.876 83.6078 75.0451 83.5652C75.2088 83.504 75.387 83.4039 75.5798 83.2648C75.6343 83.2259 75.6871 83.2296 75.7343 83.2797C75.7725 83.3353 75.758 83.389 75.6889 83.4373L74.3759 84.381C74.3341 84.4107 74.2195 84.394 74.0322 84.331L73.4085 84.1048L72.3229 83.7117L71.3718 83.3575L70.9772 83.1888L70.8935 83.2481L70.639 83.4317L70.4389 83.5745L71.8282 85.5825C71.8974 85.6808 72.0283 85.6845 72.2265 85.5918L72.6447 85.3749C72.7211 85.3267 72.7775 85.31 72.8157 85.323L72.8902 85.3712C72.9084 85.399 72.8939 85.4361 72.8448 85.4843L70.579 87.1141C70.5244 87.153 70.4826 87.153 70.4517 87.1104C70.4135 87.0548 70.4389 86.9806 70.5317 86.8897C70.6244 86.7989 70.7263 86.6821 70.839 86.5375C70.9499 86.4095 70.9827 86.302 70.9354 86.2148L68.2004 82.2617C68.0713 82.0744 67.7858 82.1393 67.3457 82.4545C67.3002 82.4879 67.2584 82.4823 67.2202 82.4397C67.182 82.3841 67.1875 82.3377 67.2384 82.3006L69.5079 80.6671C70.0461 80.2796 70.5517 80.0255 71.0245 79.9032C71.4973 79.7808 71.921 79.9885 72.292 80.5262H72.2956ZM71.4809 82.4063C71.5518 82.271 71.5991 82.1041 71.6191 81.9075C71.6519 81.7166 71.5682 81.4774 71.3718 81.1918C71.1154 80.8229 70.839 80.6115 70.5408 80.5577C70.2425 80.5058 69.9334 80.5948 69.6115 80.8266C69.4006 80.9786 69.2442 81.1251 69.1405 81.2641C69.0387 81.4051 69.0205 81.5237 69.0896 81.622L70.3244 83.4057L70.5099 83.3149L70.8481 83.1035L71.13 82.8699C71.2081 82.7938 71.2354 82.64 71.2136 82.41C71.2445 82.3748 71.2627 82.3433 71.2718 82.3155L71.4791 82.4082L71.4809 82.4063Z" fill="url(#paint11_linear_194_135)"/>
<path d="M76.7404 76.1981C76.7877 76.2482 76.7986 76.289 76.7749 76.3205C76.3076 76.2426 75.8202 76.2371 75.3147 76.3075C74.8092 76.378 74.38 76.5894 74.0254 76.9417C73.809 77.1586 73.6744 77.4108 73.6253 77.7C73.5762 77.9893 73.6344 78.2192 73.7981 78.3916C73.9781 78.5808 74.2782 78.6438 74.6964 78.5789C75.1147 78.514 75.5966 78.3138 76.1403 77.9707C76.6858 77.6296 77.1823 77.4905 77.6296 77.5517C78.077 77.6129 78.4479 77.7964 78.7371 78.1005C79.0826 78.4621 79.2372 78.9108 79.2026 79.4504C79.168 79.9881 78.8735 80.5332 78.3188 81.0858C78.1733 81.2304 78.0115 81.3639 77.8315 81.4863L77.3332 81.8256C77.2696 81.8905 77.2805 82.0166 77.3696 82.2076L77.4441 82.4319L75.0546 81.5827C75.0146 81.5419 75.0074 81.5048 75.0328 81.4733C75.6075 81.5493 76.1948 81.5642 76.7931 81.5178C77.3914 81.4714 77.8642 81.2749 78.2097 80.9319C78.4261 80.7149 78.5407 80.409 78.5516 80.0085C78.5625 79.6098 78.4479 79.2854 78.2097 79.035C77.9933 78.8088 77.6951 78.7069 77.3096 78.7291C76.9259 78.7514 76.4676 78.9442 75.9348 79.3095C75.402 79.6747 74.9073 79.8565 74.4491 79.849C73.9927 79.8435 73.6308 79.7007 73.3635 79.4226C73.0816 79.1278 72.9725 78.7421 73.038 78.2693C73.1034 77.7964 73.3889 77.3069 73.8963 76.8026L74.7837 75.92C74.8473 75.857 74.8437 75.7364 74.771 75.5622L74.7782 75.4824L75.6748 75.8032L76.7422 76.1944L76.7404 76.1981Z" fill="url(#paint12_linear_194_135)"/>
<g filter="url(#filter0_d_194_135)">
<path d="M27.5703 30.9199H37.4607L37.3835 41.3291C38.2848 40.1865 39.3129 39.2652 40.4259 38.6029C41.4656 37.9998 42.5777 37.6912 43.7002 37.6942C46.2243 37.6942 48.4972 39.0068 50.5191 41.632C52.7985 44.5877 53.9383 48.4338 53.9383 53.1702C53.9383 58.0535 52.7663 62.0831 50.4225 65.2592C48.5166 67.8293 46.3338 69.1144 43.874 69.1144C42.7117 69.1434 41.5586 68.8146 40.4935 68.1506C39.5019 67.5081 38.4845 66.4344 37.4414 64.9295V68.5085H27.5703V67.2694L27.6283 53.9137L27.609 44.3857L27.5703 30.9199ZM37.3835 43.5871V62.368C38.0265 63.3697 38.7102 64.3168 39.4311 65.2042C40.4613 66.3972 41.3949 66.9937 42.2321 66.9937C42.8116 66.9937 43.185 66.599 43.3525 65.8096C43.4297 65.4424 43.4748 64.5153 43.4877 63.0283V44.5235L43.5069 43.3124C43.5069 41.9172 43.42 40.9671 43.2461 40.4622C43.0722 39.9573 42.7406 39.7049 42.2512 39.705C41.633 39.705 40.9183 40.0262 40.107 40.6688C39.2958 41.3113 38.3879 42.2841 37.3835 43.5871Z" fill="white"/>
</g>
<g filter="url(#filter1_d_194_135)">
<path d="M70.2872 54.463C71.429 50.6256 72.5549 46.3618 73.6649 41.6718C73.9298 40.5452 74.1126 39.8624 74.2133 39.6233C74.2606 39.5076 74.3257 39.4137 74.4024 39.3508C74.479 39.288 74.5645 39.2583 74.6504 39.2647C74.8415 39.2589 75.0277 39.3634 75.1751 39.5593C75.2422 39.6371 75.2972 39.7388 75.3358 39.8566C75.3744 39.9743 75.3956 40.1048 75.3977 40.2379C75.38 40.5926 75.3235 40.9395 75.2307 41.2624C75.1193 41.7064 74.7247 43.1235 74.0469 45.5139L72.029 52.6083L70.1861 59.0103L68.6767 64.3631L67.0878 70.2281L61.0699 53.5654C60.6677 54.6403 60.1329 56.1674 59.4653 58.1465L55.4299 70.2279L52.4532 61.0336L50.1773 54.0674L48.2193 48.0232L45.7521 40.4679H54.7826L59.3517 54.849C60.2327 52.47 60.8431 50.7757 61.1828 49.766C61.5225 48.7563 62.7486 45.0081 64.8611 38.5215L70.2872 54.463Z" fill="url(#paint13_linear_194_135)"/>
</g>
<defs>
<filter id="filter0_d_194_135" x="27.5703" y="30.9199" width="28.3672" height="40.1953" filterUnits="userSpaceOnUse" color-interpolation-filters="sRGB">
<feFlood flood-opacity="0" result="BackgroundImageFix"/>
<feColorMatrix in="SourceAlpha" type="matrix" values="0 0 0 0 0 0 0 0 0 0 0 0 0 0 0 0 0 0 127 0" result="hardAlpha"/>
<feOffset dx="1" dy="1"/>
<feGaussianBlur stdDeviation="0.5"/>
<feComposite in2="hardAlpha" operator="out"/>
<feColorMatrix type="matrix" values="0 0 0 0 0 0 0 0 0 0 0 0 0 0 0 0 0 0 1 0"/>
<feBlend mode="normal" in2="BackgroundImageFix" result="effect1_dropShadow_194_135"/>
<feBlend mode="normal" in="SourceGraphic" in2="effect1_dropShadow_194_135" result="shape"/>
</filter>
<filter id="filter1_d_194_135" x="45.2109" y="38.5215" width="32.1875" height="33.707" filterUnits="userSpaceOnUse" color-interpolation-filters="sRGB">
<feFlood flood-opacity="0" result="BackgroundImageFix"/>
<feColorMatrix in="SourceAlpha" type="matrix" values="0 0 0 0 0 0 0 0 0 0 0 0 0 0 0 0 0 0 127 0" result="hardAlpha"/>
<feOffset dx="1" dy="1"/>
<feGaussianBlur stdDeviation="0.5"/>
<feComposite in2="hardAlpha" operator="out"/>
<feColorMatrix type="matrix" values="0 0 0 0 0 0 0 0 0 0 0 0 0 0 0 0 0 0 1 0"/>
<feBlend mode="normal" in2="BackgroundImageFix" result="effect1_dropShadow_194_135"/>
<feBlend mode="normal" in="SourceGraphic" in2="effect1_dropShadow_194_135" result="shape"/>
</filter>
<radialGradient id="paint0_radial_194_135" cx="0" cy="0" r="1" gradientUnits="userSpaceOnUse" gradientTransform="translate(50.0007 51.1121) scale(47.946 48.8875)">
<stop stop-color="#5D8BD9"/>
<stop offset="1" stop-color="#0E51BA"/>
</radialGradient>
<linearGradient id="paint1_linear_194_135" x1="4.21484" y1="51.1122" x2="95.6553" y2="51.1122" gradientUnits="userSpaceOnUse">
<stop stop-color="#FAB865"/>
<stop offset="0.25" stop-color="#FFFE9E"/>
<stop offset="0.5" stop-color="#FAB865"/>
<stop offset="0.81" stop-color="#FFFE9E"/>
<stop offset="1" stop-color="#FAB865"/>
</linearGradient>
<linearGradient id="paint2_linear_194_135" x1="17.5391" y1="51.1091" x2="82.457" y2="51.1091" gradientUnits="userSpaceOnUse">
<stop stop-color="#FAB865"/>
<stop offset="0.25" stop-color="#FFFE9E"/>
<stop offset="0.5" stop-color="#FAB865"/>
<stop offset="0.81" stop-color="#FFFE9E"/>
<stop offset="1" stop-color="#FAB865"/>
</linearGradient>
<linearGradient id="paint3_linear_194_135" x1="22.5232" y1="78.5532" x2="29.0133" y2="78.5532" gradientUnits="userSpaceOnUse">
<stop stop-color="#FAB865"/>
<stop offset="0.25" stop-color="#FFFE9E"/>
<stop offset="0.5" stop-color="#FAB865"/>
<stop offset="0.81" stop-color="#FFFE9E"/>
<stop offset="1" stop-color="#FAB865"/>
</linearGradient>
<linearGradient id="paint4_linear_194_135" x1="25.5535" y1="82.7666" x2="31.229" y2="82.7666" gradientUnits="userSpaceOnUse">
<stop stop-color="#FAB865"/>
<stop offset="0.25" stop-color="#FFFE9E"/>
<stop offset="0.5" stop-color="#FAB865"/>
<stop offset="0.81" stop-color="#FFFE9E"/>
<stop offset="1" stop-color="#FAB865"/>
</linearGradient>
<linearGradient id="paint5_linear_194_135" x1="28.3721" y1="84.539" x2="35.2277" y2="84.539" gradientUnits="userSpaceOnUse">
<stop stop-color="#FAB865"/>
<stop offset="0.25" stop-color="#FFFE9E"/>
<stop offset="0.5" stop-color="#FAB865"/>
<stop offset="0.81" stop-color="#FFFE9E"/>
<stop offset="1" stop-color="#FAB865"/>
</linearGradient>
<linearGradient id="paint6_linear_194_135" x1="37.8167" y1="88.8641" x2="45.8453" y2="88.8641" gradientUnits="userSpaceOnUse">
<stop stop-color="#FAB865"/>
<stop offset="0.25" stop-color="#FFFE9E"/>
<stop offset="0.5" stop-color="#FAB865"/>
<stop offset="0.81" stop-color="#FFFE9E"/>
<stop offset="1" stop-color="#FAB865"/>
</linearGradient>
<linearGradient id="paint7_linear_194_135" x1="45.2224" y1="89.9035" x2="50.8633" y2="89.9035" gradientUnits="userSpaceOnUse">
<stop stop-color="#FAB865"/>
<stop offset="0.25" stop-color="#FFFE9E"/>
<stop offset="0.5" stop-color="#FAB865"/>
<stop offset="0.81" stop-color="#FFFE9E"/>
<stop offset="1" stop-color="#FAB865"/>
</linearGradient>
<linearGradient id="paint8_linear_194_135" x1="50.8068" y1="89.4884" x2="58.4753" y2="89.4884" gradientUnits="userSpaceOnUse">
<stop stop-color="#FAB865"/>
<stop offset="0.25" stop-color="#FFFE9E"/>
<stop offset="0.5" stop-color="#FAB865"/>
<stop offset="0.81" stop-color="#FFFE9E"/>
<stop offset="1" stop-color="#FAB865"/>
</linearGradient>
<linearGradient id="paint9_linear_194_135" x1="57.4065" y1="88.3656" x2="64.0276" y2="88.3656" gradientUnits="userSpaceOnUse">
<stop stop-color="#FAB865"/>
<stop offset="0.25" stop-color="#FFFE9E"/>
<stop offset="0.5" stop-color="#FAB865"/>
<stop offset="0.81" stop-color="#FFFE9E"/>
<stop offset="1" stop-color="#FAB865"/>
</linearGradient>
<linearGradient id="paint10_linear_194_135" x1="62.433" y1="86.1527" x2="69.1432" y2="86.1527" gradientUnits="userSpaceOnUse">
<stop stop-color="#FAB865"/>
<stop offset="0.25" stop-color="#FFFE9E"/>
<stop offset="0.5" stop-color="#FAB865"/>
<stop offset="0.81" stop-color="#FFFE9E"/>
<stop offset="1" stop-color="#FAB865"/>
</linearGradient>
<linearGradient id="paint11_linear_194_135" x1="67.1984" y1="83.5059" x2="75.758" y2="83.5059" gradientUnits="userSpaceOnUse">
<stop stop-color="#FAB865"/>
<stop offset="0.25" stop-color="#FFFE9E"/>
<stop offset="0.5" stop-color="#FAB865"/>
<stop offset="0.81" stop-color="#FFFE9E"/>
<stop offset="1" stop-color="#FAB865"/>
</linearGradient>
<linearGradient id="paint12_linear_194_135" x1="73.0198" y1="78.9609" x2="79.2081" y2="78.9609" gradientUnits="userSpaceOnUse">
<stop stop-color="#FAB865"/>
<stop offset="0.25" stop-color="#FFFE9E"/>
<stop offset="0.5" stop-color="#FAB865"/>
<stop offset="0.81" stop-color="#FFFE9E"/>
<stop offset="1" stop-color="#FAB865"/>
</linearGradient>
<linearGradient id="paint13_linear_194_135" x1="60.3043" y1="38.5215" x2="60.3043" y2="70.2281" gradientUnits="userSpaceOnUse">
<stop stop-color="#F8F229"/>
<stop offset="1" stop-color="#FBC46F"/>
</linearGradient>
</defs>
</svg>
