<svg width="24" height="24" viewBox="0 0 24 24" fill="none" xmlns="http://www.w3.org/2000/svg">
<g clip-path="url(#clip0_3189_24)">
<path d="M7.87529 11.2483C7.87529 10.4324 8.11722 9.63488 8.57048 8.95653C9.02374 8.27817 9.66798 7.74946 10.4217 7.43725C11.1755 7.12504 12.0049 7.04335 12.805 7.20252C13.6052 7.36168 14.3402 7.75455 14.9171 8.33144C15.494 8.90833 15.8869 9.64334 16.046 10.4435C16.2052 11.2437 16.1235 12.0731 15.8113 12.8268C15.4991 13.5806 14.9704 14.2248 14.292 14.6781C13.6137 15.1313 12.8161 15.3733 12.0003 15.3733C10.9063 15.3733 9.85706 14.9387 9.08348 14.1651C8.30989 13.3915 7.87529 12.3423 7.87529 11.2483ZM19.7028 16.6089C19.5357 16.5119 19.3382 16.4813 19.1496 16.5231C18.961 16.565 18.795 16.6762 18.6847 16.8348C18.5231 17.0574 18.3503 17.2718 18.1672 17.477C17.6215 16.685 16.9282 16.0057 16.1253 15.4764C16.0568 15.431 15.9753 15.4093 15.8934 15.4148C15.8114 15.4202 15.7334 15.4524 15.6715 15.5064C14.6527 16.388 13.3504 16.8732 12.0031 16.8732C10.6558 16.8732 9.35351 16.388 8.33467 15.5064C8.27233 15.451 8.19332 15.418 8.11012 15.4126C8.02693 15.4072 7.9443 15.4296 7.87529 15.4764C7.07219 16.0047 6.37858 16.6831 5.83248 17.4742C4.66122 16.159 3.94346 14.5023 3.78498 12.7483H5.22873C5.35013 12.7502 5.47025 12.7233 5.57927 12.6699C5.68828 12.6164 5.78308 12.5379 5.85592 12.4408C5.96159 12.2963 6.01212 12.1188 5.99837 11.9403C5.98461 11.7619 5.90748 11.5942 5.78092 11.4676L3.53092 9.21763C3.46126 9.1479 3.37855 9.09258 3.2875 9.05484C3.19645 9.01709 3.09885 8.99766 3.00029 8.99766C2.90173 8.99766 2.80414 9.01709 2.71309 9.05484C2.62204 9.09258 2.53932 9.1479 2.46967 9.21763L0.219667 11.4676C0.0931004 11.5942 0.0159731 11.7619 0.00221867 11.9403C-0.0115358 12.1188 0.0389896 12.2963 0.144667 12.4408C0.217499 12.5379 0.312304 12.6164 0.421319 12.6699C0.530334 12.7233 0.650458 12.7502 0.771855 12.7483H2.27842C2.43181 14.7422 3.19465 16.6408 4.46352 18.1866C5.73238 19.7323 7.4459 20.8505 9.37175 21.3896C11.2976 21.9286 13.3426 21.8624 15.2296 21.1999C17.1165 20.5374 18.7541 19.3107 19.9203 17.6861C19.9805 17.6023 20.0227 17.507 20.0444 17.4062C20.0661 17.3054 20.0667 17.2012 20.0463 17.1001C20.0259 16.999 19.9849 16.9032 19.9258 16.8187C19.8667 16.7341 19.7907 16.6627 19.7028 16.6089ZM23.9431 11.7114C23.8864 11.5743 23.7903 11.4572 23.6669 11.3747C23.5436 11.2923 23.3986 11.2483 23.2503 11.2483H21.7222C21.5688 9.25428 20.8059 7.35571 19.5371 5.80994C18.2682 4.26416 16.5547 3.14596 14.6288 2.60693C12.703 2.0679 10.658 2.13412 8.77102 2.79661C6.88408 3.4591 5.2465 4.68582 4.08029 6.31044C3.96418 6.47206 3.91702 6.67318 3.94919 6.86957C3.98137 7.06595 4.09024 7.24151 4.25185 7.35763C4.41347 7.47374 4.61459 7.5209 4.81098 7.48873C5.00737 7.45655 5.18293 7.34768 5.29904 7.18607C6.28021 5.81998 7.65547 4.78642 9.24054 4.22389C10.8256 3.66135 12.5447 3.59673 14.1676 4.03867C15.7904 4.48061 17.2394 5.408 18.3203 6.69656C19.4013 7.98513 20.0626 9.5733 20.2156 11.2483H18.7503C18.6019 11.2481 18.4568 11.2921 18.3333 11.3745C18.2099 11.4569 18.1136 11.574 18.0568 11.7112C18 11.8483 17.9852 11.9992 18.0141 12.1447C18.0431 12.2903 18.1147 12.424 18.2197 12.5289L20.4697 14.7789C20.5393 14.8486 20.622 14.9039 20.7131 14.9417C20.8041 14.9794 20.9017 14.9988 21.0003 14.9988C21.0989 14.9988 21.1964 14.9794 21.2875 14.9417C21.3785 14.9039 21.4613 14.8486 21.5309 14.7789L23.7809 12.5289C23.8858 12.4239 23.9571 12.2902 23.986 12.1447C24.0149 11.9992 24 11.8484 23.9431 11.7114Z" fill="black"/>
<path d="M7.87529 11.2483C7.87529 10.4324 8.11722 9.63488 8.57048 8.95653C9.02374 8.27817 9.66798 7.74946 10.4217 7.43725C11.1755 7.12504 12.0049 7.04335 12.805 7.20252C13.6052 7.36168 14.3402 7.75455 14.9171 8.33144C15.494 8.90833 15.8869 9.64334 16.046 10.4435C16.2052 11.2437 16.1235 12.0731 15.8113 12.8268C15.4991 13.5806 14.9704 14.2248 14.292 14.6781C13.6137 15.1313 12.8161 15.3733 12.0003 15.3733C10.9063 15.3733 9.85706 14.9387 9.08348 14.1651C8.30989 13.3915 7.87529 12.3423 7.87529 11.2483ZM19.7028 16.6089C19.5357 16.5119 19.3382 16.4813 19.1496 16.5231C18.961 16.565 18.795 16.6762 18.6847 16.8348C18.5231 17.0574 18.3503 17.2718 18.1672 17.477C17.6215 16.685 16.9282 16.0057 16.1253 15.4764C16.0568 15.431 15.9753 15.4093 15.8934 15.4148C15.8114 15.4202 15.7334 15.4524 15.6715 15.5064C14.6527 16.388 13.3504 16.8732 12.0031 16.8732C10.6558 16.8732 9.35351 16.388 8.33467 15.5064C8.27233 15.451 8.19332 15.418 8.11012 15.4126C8.02693 15.4072 7.9443 15.4296 7.87529 15.4764C7.07219 16.0047 6.37858 16.6831 5.83248 17.4742C4.66122 16.159 3.94346 14.5023 3.78498 12.7483H5.22873C5.35013 12.7502 5.47025 12.7233 5.57927 12.6699C5.68828 12.6164 5.78308 12.5379 5.85592 12.4408C5.96159 12.2963 6.01212 12.1188 5.99837 11.9403C5.98461 11.7619 5.90748 11.5942 5.78092 11.4676L3.53092 9.21763C3.46126 9.1479 3.37855 9.09258 3.2875 9.05484C3.19645 9.01709 3.09885 8.99766 3.00029 8.99766C2.90173 8.99766 2.80414 9.01709 2.71309 9.05484C2.62204 9.09258 2.53932 9.1479 2.46967 9.21763L0.219667 11.4676C0.0931004 11.5942 0.0159731 11.7619 0.00221867 11.9403C-0.0115358 12.1188 0.0389896 12.2963 0.144667 12.4408C0.217499 12.5379 0.312304 12.6164 0.421319 12.6699C0.530334 12.7233 0.650458 12.7502 0.771855 12.7483H2.27842C2.43181 14.7422 3.19465 16.6408 4.46352 18.1866C5.73238 19.7323 7.4459 20.8505 9.37175 21.3896C11.2976 21.9286 13.3426 21.8624 15.2296 21.1999C17.1165 20.5374 18.7541 19.3107 19.9203 17.6861C19.9805 17.6023 20.0227 17.507 20.0444 17.4062C20.0661 17.3054 20.0667 17.2012 20.0463 17.1001C20.0259 16.999 19.9849 16.9032 19.9258 16.8187C19.8667 16.7341 19.7907 16.6627 19.7028 16.6089ZM23.9431 11.7114C23.8864 11.5743 23.7903 11.4572 23.6669 11.3747C23.5436 11.2923 23.3986 11.2483 23.2503 11.2483H21.7222C21.5688 9.25428 20.8059 7.35571 19.5371 5.80994C18.2682 4.26416 16.5547 3.14596 14.6288 2.60693C12.703 2.0679 10.658 2.13412 8.77102 2.79661C6.88408 3.4591 5.2465 4.68582 4.08029 6.31044C3.96418 6.47206 3.91702 6.67318 3.94919 6.86957C3.98137 7.06595 4.09024 7.24151 4.25185 7.35763C4.41347 7.47374 4.61459 7.5209 4.81098 7.48873C5.00737 7.45655 5.18293 7.34768 5.29904 7.18607C6.28021 5.81998 7.65547 4.78642 9.24054 4.22389C10.8256 3.66135 12.5447 3.59673 14.1676 4.03867C15.7904 4.48061 17.2394 5.408 18.3203 6.69656C19.4013 7.98513 20.0626 9.5733 20.2156 11.2483H18.7503C18.6019 11.2481 18.4568 11.2921 18.3333 11.3745C18.2099 11.4569 18.1136 11.574 18.0568 11.7112C18 11.8483 17.9852 11.9992 18.0141 12.1447C18.0431 12.2903 18.1147 12.424 18.2197 12.5289L20.4697 14.7789C20.5393 14.8486 20.622 14.9039 20.7131 14.9417C20.8041 14.9794 20.9017 14.9988 21.0003 14.9988C21.0989 14.9988 21.1964 14.9794 21.2875 14.9417C21.3785 14.9039 21.4613 14.8486 21.5309 14.7789L23.7809 12.5289C23.8858 12.4239 23.9571 12.2902 23.986 12.1447C24.0149 11.9992 24 11.8484 23.9431 11.7114Z" fill="url(#paint0_linear_3189_24)"/>
</g>
<defs>
<linearGradient id="paint0_linear_3189_24" x1="12.0002" y1="2.24609" x2="12.0002" y2="21.7504" gradientUnits="userSpaceOnUse">
<stop stop-color="#BB3F44"/>
<stop offset="1" stop-color="#F54F56"/>
</linearGradient>
<clipPath id="clip0_3189_24">
<rect width="24" height="24" fill="white"/>
</clipPath>
</defs>
</svg>
