<svg width="100" height="100" viewBox="0 0 100 100" fill="none" xmlns="http://www.w3.org/2000/svg">
<path d="M53.7392 90.3707H14.2592C11.0492 90.3707 8.44922 87.7707 8.44922 84.5607V20.0307C8.44922 16.8207 11.0492 14.2207 14.2592 14.2207H53.7392C56.9492 14.2207 59.5492 16.8207 59.5492 20.0307V84.5607C59.5492 87.7707 56.9492 90.3707 53.7392 90.3707Z" stroke="white" stroke-width="4" stroke-miterlimit="10"/>
<path d="M48.2188 14.2205L49.7887 11.2905C51.3087 8.46048 54.8287 7.40048 57.6587 8.92048L92.4287 27.6105C95.2587 29.1305 96.3188 32.6505 94.7988 35.4805L64.2487 92.3205C62.7287 95.1505 59.2087 96.2105 56.3787 94.6905L48.3487 90.3705" stroke="white" stroke-width="4" stroke-miterlimit="10"/>
<path d="M59.5508 35.3105C60.4008 35.3505 61.1308 35.9005 61.6008 36.9105C64.4108 42.9905 67.2208 49.0805 70.0208 55.1605C70.7608 56.7605 70.4108 57.8705 68.9008 58.7405C65.7908 60.5305 62.6708 62.3205 59.5608 64.1105" stroke="white" stroke-width="3" stroke-miterlimit="10"/>
<path d="M45.8287 52.8791C45.6387 53.5891 45.5187 54.3191 45.2587 54.9991C43.5287 59.5091 38.6187 60.7591 35.3087 58.7691C35.2587 58.7391 35.1987 58.7391 35.0987 58.7091V62.8091C35.6587 62.8091 36.2087 62.8091 36.7587 62.8091C37.8587 62.8291 38.6587 63.5991 38.6387 64.6291C38.6187 65.6291 37.8387 66.3891 36.7587 66.3891C34.4287 66.3991 32.0987 66.3891 29.7687 66.3891C28.6687 66.3891 27.8687 65.5991 27.8787 64.5791C27.8887 63.5791 28.6787 62.8291 29.7487 62.8091C30.2987 62.8091 30.8587 62.8091 31.4287 62.8091V58.7191C31.3187 58.7591 31.2187 58.7791 31.1187 58.8291C27.1787 60.8591 22.6087 59.0091 21.1787 54.7891C20.1387 51.7391 20.7987 48.9891 22.6987 46.4691C24.2387 44.4291 26.1587 42.7891 28.0787 41.1291C29.3887 39.9991 30.6987 38.8591 32.0287 37.7391C32.8287 37.0691 33.6887 37.0391 34.4687 37.7191C37.0887 40.0191 39.7287 42.2991 42.2687 44.6891C43.8887 46.2191 45.1587 48.0391 45.6387 50.2891C45.6887 50.5191 45.7587 50.7391 45.8187 50.9691V52.8791H45.8287Z" stroke="white" stroke-width="3" stroke-miterlimit="10"/>
</svg>
