<svg width="25" height="25" viewBox="0 0 25 25" fill="none" xmlns="http://www.w3.org/2000/svg">
<path d="M21.0703 4.54297H4.57034C4.17251 4.54297 3.79098 4.701 3.50968 4.98231C3.22837 5.26361 3.07034 5.64514 3.07034 6.04297V21.043C3.06861 21.329 3.14953 21.6095 3.30336 21.8506C3.4572 22.0918 3.67741 22.2833 3.93753 22.4023C4.13574 22.4946 4.35169 22.5426 4.57034 22.543C4.92247 22.5421 5.26292 22.4166 5.53128 22.1886L5.53971 22.182L8.60159 19.543H21.0703C21.4682 19.543 21.8497 19.3849 22.131 19.1036C22.4123 18.8223 22.5703 18.4408 22.5703 18.043V6.04297C22.5703 5.64514 22.4123 5.26361 22.131 4.98231C21.8497 4.701 21.4682 4.54297 21.0703 4.54297ZM15.8203 14.293H9.82034C9.62143 14.293 9.43066 14.214 9.29001 14.0733C9.14936 13.9326 9.07034 13.7419 9.07034 13.543C9.07034 13.3441 9.14936 13.1533 9.29001 13.0126C9.43066 12.872 9.62143 12.793 9.82034 12.793H15.8203C16.0193 12.793 16.21 12.872 16.3507 13.0126C16.4913 13.1533 16.5703 13.3441 16.5703 13.543C16.5703 13.7419 16.4913 13.9326 16.3507 14.0733C16.21 14.214 16.0193 14.293 15.8203 14.293ZM15.8203 11.293H9.82034C9.62143 11.293 9.43066 11.214 9.29001 11.0733C9.14936 10.9326 9.07034 10.7419 9.07034 10.543C9.07034 10.3441 9.14936 10.1533 9.29001 10.0126C9.43066 9.87199 9.62143 9.79297 9.82034 9.79297H15.8203C16.0193 9.79297 16.21 9.87199 16.3507 10.0126C16.4913 10.1533 16.5703 10.3441 16.5703 10.543C16.5703 10.7419 16.4913 10.9326 16.3507 11.0733C16.21 11.214 16.0193 11.293 15.8203 11.293Z" fill="black"/>
<path d="M21.0703 4.54297H4.57034C4.17251 4.54297 3.79098 4.701 3.50968 4.98231C3.22837 5.26361 3.07034 5.64514 3.07034 6.04297V21.043C3.06861 21.329 3.14953 21.6095 3.30336 21.8506C3.4572 22.0918 3.67741 22.2833 3.93753 22.4023C4.13574 22.4946 4.35169 22.5426 4.57034 22.543C4.92247 22.5421 5.26292 22.4166 5.53128 22.1886L5.53971 22.182L8.60159 19.543H21.0703C21.4682 19.543 21.8497 19.3849 22.131 19.1036C22.4123 18.8223 22.5703 18.4408 22.5703 18.043V6.04297C22.5703 5.64514 22.4123 5.26361 22.131 4.98231C21.8497 4.701 21.4682 4.54297 21.0703 4.54297ZM15.8203 14.293H9.82034C9.62143 14.293 9.43066 14.214 9.29001 14.0733C9.14936 13.9326 9.07034 13.7419 9.07034 13.543C9.07034 13.3441 9.14936 13.1533 9.29001 13.0126C9.43066 12.872 9.62143 12.793 9.82034 12.793H15.8203C16.0193 12.793 16.21 12.872 16.3507 13.0126C16.4913 13.1533 16.5703 13.3441 16.5703 13.543C16.5703 13.7419 16.4913 13.9326 16.3507 14.0733C16.21 14.214 16.0193 14.293 15.8203 14.293ZM15.8203 11.293H9.82034C9.62143 11.293 9.43066 11.214 9.29001 11.0733C9.14936 10.9326 9.07034 10.7419 9.07034 10.543C9.07034 10.3441 9.14936 10.1533 9.29001 10.0126C9.43066 9.87199 9.62143 9.79297 9.82034 9.79297H15.8203C16.0193 9.79297 16.21 9.87199 16.3507 10.0126C16.4913 10.1533 16.5703 10.3441 16.5703 10.543C16.5703 10.7419 16.4913 10.9326 16.3507 11.0733C16.21 11.214 16.0193 11.293 15.8203 11.293Z" fill="url(#paint0_linear_3189_16)"/>
<defs>
<linearGradient id="paint0_linear_3189_16" x1="12.8203" y1="4.54297" x2="12.8203" y2="22.543" gradientUnits="userSpaceOnUse">
<stop stop-color="#BB3F44"/>
<stop offset="1" stop-color="#F54F56"/>
</linearGradient>
</defs>
</svg>
