<svg width="24" height="24" viewBox="0 0 24 24" fill="none" xmlns="http://www.w3.org/2000/svg">
<path d="M20.9888 17.1636C20.8216 18.4339 20.1977 19.6 19.2337 20.4439C18.2696 21.2879 17.0313 21.7521 15.75 21.7498C8.30626 21.7498 2.25001 15.6936 2.25001 8.24981C2.24771 6.96852 2.7119 5.73021 3.55588 4.76615C4.39986 3.80209 5.56592 3.17822 6.83626 3.01106C7.1575 2.97184 7.4828 3.03756 7.76362 3.19841C8.04444 3.35926 8.2657 3.60662 8.39438 3.90356L10.3744 8.32387C10.374 8.32761 10.374 8.33138 10.3744 8.33512C10.4729 8.56242 10.5136 8.81058 10.4928 9.05744C10.472 9.3043 10.3904 9.54217 10.2553 9.74981C10.2384 9.77512 10.2206 9.79856 10.2019 9.822L8.25001 12.1357C8.9522 13.5626 10.4447 15.042 11.8903 15.7461L14.1722 13.8045C14.1946 13.7857 14.2181 13.7681 14.2425 13.752C14.4501 13.6135 14.6889 13.5289 14.9374 13.506C15.1859 13.4831 15.4362 13.5225 15.6656 13.6207L15.6769 13.6264L20.0925 15.6054C20.3901 15.7335 20.6383 15.9545 20.7999 16.2354C20.9614 16.5163 21.0277 16.8419 20.9888 17.1636ZM13.5 6.74981H19.5C19.6989 6.74981 19.8897 6.67079 20.0303 6.53014C20.171 6.38949 20.25 6.19872 20.25 5.99981C20.25 5.8009 20.171 5.61013 20.0303 5.46948C19.8897 5.32883 19.6989 5.24981 19.5 5.24981H13.5C13.3011 5.24981 13.1103 5.32883 12.9697 5.46948C12.829 5.61013 12.75 5.8009 12.75 5.99981C12.75 6.19872 12.829 6.38949 12.9697 6.53014C13.1103 6.67079 13.3011 6.74981 13.5 6.74981ZM13.5 10.4998H19.5C19.6989 10.4998 19.8897 10.4208 20.0303 10.2801C20.171 10.1395 20.25 9.94872 20.25 9.74981C20.25 9.5509 20.171 9.36013 20.0303 9.21948C19.8897 9.07883 19.6989 8.99981 19.5 8.99981H13.5C13.3011 8.99981 13.1103 9.07883 12.9697 9.21948C12.829 9.36013 12.75 9.5509 12.75 9.74981C12.75 9.94872 12.829 10.1395 12.9697 10.2801C13.1103 10.4208 13.3011 10.4998 13.5 10.4998Z" fill="black"/>
<path d="M20.9888 17.1636C20.8216 18.4339 20.1977 19.6 19.2337 20.4439C18.2696 21.2879 17.0313 21.7521 15.75 21.7498C8.30626 21.7498 2.25001 15.6936 2.25001 8.24981C2.24771 6.96852 2.7119 5.73021 3.55588 4.76615C4.39986 3.80209 5.56592 3.17822 6.83626 3.01106C7.1575 2.97184 7.4828 3.03756 7.76362 3.19841C8.04444 3.35926 8.2657 3.60662 8.39438 3.90356L10.3744 8.32387C10.374 8.32761 10.374 8.33138 10.3744 8.33512C10.4729 8.56242 10.5136 8.81058 10.4928 9.05744C10.472 9.3043 10.3904 9.54217 10.2553 9.74981C10.2384 9.77512 10.2206 9.79856 10.2019 9.822L8.25001 12.1357C8.9522 13.5626 10.4447 15.042 11.8903 15.7461L14.1722 13.8045C14.1946 13.7857 14.2181 13.7681 14.2425 13.752C14.4501 13.6135 14.6889 13.5289 14.9374 13.506C15.1859 13.4831 15.4362 13.5225 15.6656 13.6207L15.6769 13.6264L20.0925 15.6054C20.3901 15.7335 20.6383 15.9545 20.7999 16.2354C20.9614 16.5163 21.0277 16.8419 20.9888 17.1636ZM13.5 6.74981H19.5C19.6989 6.74981 19.8897 6.67079 20.0303 6.53014C20.171 6.38949 20.25 6.19872 20.25 5.99981C20.25 5.8009 20.171 5.61013 20.0303 5.46948C19.8897 5.32883 19.6989 5.24981 19.5 5.24981H13.5C13.3011 5.24981 13.1103 5.32883 12.9697 5.46948C12.829 5.61013 12.75 5.8009 12.75 5.99981C12.75 6.19872 12.829 6.38949 12.9697 6.53014C13.1103 6.67079 13.3011 6.74981 13.5 6.74981ZM13.5 10.4998H19.5C19.6989 10.4998 19.8897 10.4208 20.0303 10.2801C20.171 10.1395 20.25 9.94872 20.25 9.74981C20.25 9.5509 20.171 9.36013 20.0303 9.21948C19.8897 9.07883 19.6989 8.99981 19.5 8.99981H13.5C13.3011 8.99981 13.1103 9.07883 12.9697 9.21948C12.829 9.36013 12.75 9.5509 12.75 9.74981C12.75 9.94872 12.829 10.1395 12.9697 10.2801C13.1103 10.4208 13.3011 10.4998 13.5 10.4998Z" fill="url(#paint0_linear_3189_18)"/>
<defs>
<linearGradient id="paint0_linear_3189_18" x1="11.6248" y1="3" x2="11.6248" y2="21.7498" gradientUnits="userSpaceOnUse">
<stop stop-color="#BB3F44"/>
<stop offset="1" stop-color="#F54F56"/>
</linearGradient>
</defs>
</svg>
