<svg width="100" height="100" viewBox="0 0 100 100" fill="none" xmlns="http://www.w3.org/2000/svg">
<g clip-path="url(#clip0_2470_141)">
<mask id="mask0_2470_141" style="mask-type:luminance" maskUnits="userSpaceOnUse" x="0" y="0" width="100" height="100">
<path d="M100 0H0V100H100V0Z" fill="white"/>
</mask>
<g mask="url(#mask0_2470_141)">
<mask id="mask1_2470_141" style="mask-type:luminance" maskUnits="userSpaceOnUse" x="0" y="0" width="100" height="101">
<path d="M99.1924 0H0V100.008H99.1924V0Z" fill="white"/>
</mask>
<g mask="url(#mask1_2470_141)">
<path d="M33.5976 70.0433L33.2441 70.3968L14.3222 89.3228L14.3159 89.3292L14.3093 89.3353C14.1284 89.5037 13.9831 89.7072 13.8823 89.9333L13.8823 89.9334C13.7815 90.1593 13.7273 90.404 13.7229 90.6512C13.7186 90.8993 13.7642 91.1451 13.8568 91.3743C13.9497 91.604 14.0878 91.8128 14.2622 91.9866L14.2628 91.9873C14.4379 92.1625 14.6464 92.3006 14.8756 92.393L14.8767 92.3934C15.1059 92.4865 15.3514 92.532 15.5985 92.5274C15.8461 92.5227 16.0904 92.4686 16.3166 92.3681C16.5436 92.2666 16.7471 92.1216 16.9154 91.941L16.9214 91.9345L16.9277 91.9283L35.8534 73.0061L36.207 72.6526L36.5605 73.0062L45.1931 81.6389C45.1932 81.6389 45.1932 81.639 45.1933 81.639C46.125 82.5698 47.3881 83.0926 48.705 83.0926C50.022 83.0926 51.2852 82.5697 52.2169 81.6389L94.1386 39.7173C95.0694 38.7856 95.5923 37.5225 95.5923 36.2054C95.5923 34.8885 95.0694 33.6253 94.1386 32.6936L73.5567 12.1119C72.625 11.1811 71.3618 10.6582 70.0448 10.6582C68.7279 10.6582 67.4648 11.181 66.5331 12.1118L33.5976 70.0433ZM33.5976 70.0433L33.2441 69.6898L24.6114 61.0572C24.6114 61.0571 24.6113 61.0571 24.6113 61.057C23.6805 60.1253 23.1577 58.8622 23.1577 57.5453C23.1577 56.2284 23.6805 54.9653 24.6113 54.0336C24.6113 54.0336 24.6114 54.0335 24.6114 54.0334L66.533 12.1119L33.5976 70.0433ZM91.5341 37.1109L91.5333 37.1118L68.3222 60.3227L67.4686 61.1762V59.9691V40.6253C67.4686 40.1363 67.2744 39.6674 66.9287 39.3217L66.9286 39.3216C66.5829 38.9759 66.1139 38.7816 65.6249 38.7816H46.2812H45.0741L45.9276 37.9281L69.1383 14.7173C69.2573 14.5982 69.3986 14.5037 69.5542 14.4393C69.5542 14.4392 69.5543 14.4392 69.5544 14.4392L69.7456 14.9011C69.8405 14.8618 69.9422 14.8416 70.0448 14.8416L91.5341 37.1109ZM91.5341 37.1109C91.6514 36.9931 91.7462 36.8527 91.8111 36.6968L91.8125 36.6934C91.8753 36.5393 91.9083 36.3735 91.9083 36.2054C91.9083 36.0373 91.8753 35.8717 91.8125 35.7176L91.8111 35.7141C91.7462 35.5582 91.6514 35.4177 91.5339 35.2998L91.5333 35.2992M91.5341 37.1109L91.5333 35.2992M91.5333 35.2992L70.9513 14.7173L91.5333 35.2992ZM48.2142 79.3115L48.2143 79.3115L27.2167 56.639C27.0974 56.7582 27.0031 56.8995 26.9388 57.0545L26.9388 57.0546C26.8743 57.2101 26.8411 57.3769 26.8411 57.5453C26.8411 57.7137 26.8743 57.8804 26.9388 58.036L26.9388 58.0361C27.0033 58.1914 27.0976 58.3326 27.2168 58.4517C27.2168 58.4517 27.2169 58.4518 27.2169 58.4518L35.8535 67.0844L36.2071 67.4378L36.5605 67.0844L48.6906 54.9542C49.0394 54.6322 49.4991 54.457 49.974 54.4654C50.4517 54.4738 50.9074 54.6673 51.2452 55.0051C51.583 55.3429 51.7765 55.7987 51.7849 56.2762V56.2763C51.7933 56.7512 51.6181 57.2109 51.296 57.5597L39.1659 69.6898L38.8124 70.0432L39.1658 70.3968L47.7985 79.0334C47.9175 79.1525 48.0588 79.247 48.2142 79.3115ZM41.2401 42.6156L27.2171 56.6386L49.1957 79.3115C49.3513 79.2469 49.4925 79.1524 49.6113 79.0336L63.6347 65.0102L63.7812 64.8637V64.6566V42.9691V42.4691H63.2812H41.5937H41.3866L41.2401 42.6156ZM32.9081 21.5541L32.9081 21.5541L32.8206 27.3245L32.3586 27.1332C32.3586 27.1332 32.3586 27.1332 32.3586 27.1332C31.6277 28.8976 30.3901 30.4057 28.8021 31.4668C27.2142 32.5278 25.3472 33.0941 23.4374 33.0941C20.8764 33.0941 18.4203 32.0768 16.6094 30.2658L16.6094 30.2658C14.7985 28.455 13.7812 25.9989 13.7812 23.4379C13.7812 21.528 14.3475 19.6611 15.4085 18.0731C16.4695 16.4852 17.9777 15.2475 19.7421 14.5167L19.7421 14.5167C21.5065 13.7858 23.4481 13.5946 25.3213 13.9672C27.1944 14.3397 28.9149 15.2594 30.2654 16.6099C31.6158 17.9603 32.5355 19.6809 32.9081 21.5541ZM28.9518 21.1537C28.5 20.0631 27.735 19.1308 26.7535 18.4751C25.7719 17.8192 24.6179 17.4691 23.4374 17.4691C21.8544 17.4691 20.3362 18.0979 19.2169 19.2173C18.0975 20.3367 17.4686 21.8548 17.4686 23.4379C17.4686 24.6184 17.8187 25.7723 18.4746 26.7539C19.1305 27.7355 20.0626 28.5005 21.1533 28.9522C22.2439 29.404 23.444 29.5223 24.6018 29.292C25.7596 29.0617 26.8232 28.4932 27.6579 27.6584C28.4927 26.8237 29.0612 25.7601 29.2915 24.6023C29.5218 23.4445 29.4036 22.2443 28.9518 21.1537Z" fill="white" stroke="white"/>
</g>
</g>
</g>
<defs>
<clipPath id="clip0_2470_141">
<rect width="100" height="100" fill="white"/>
</clipPath>
</defs>
</svg>
