<svg width="101" height="100" viewBox="0 0 101 100" fill="none" xmlns="http://www.w3.org/2000/svg">
<g clip-path="url(#clip0_2470_168)">
<mask id="mask0_2470_168" style="mask-type:luminance" maskUnits="userSpaceOnUse" x="-1" y="20" width="102" height="61">
<path d="M100 21H0V80H100V21Z" fill="white" stroke="white"/>
</mask>
<g mask="url(#mask0_2470_168)">
<mask id="mask1_2470_168" style="mask-type:luminance" maskUnits="userSpaceOnUse" x="-1" y="20" width="102" height="61">
<path d="M99.5883 21H0V79.554H99.5883V21Z" fill="white" stroke="white"/>
</mask>
<g mask="url(#mask1_2470_168)">
<path d="M30.4744 79.5121C20.906 79.5121 16.0447 79.4383 13.1355 79.2473C10.058 79.0457 9.06445 78.7014 7.90441 78.1985C6.06167 77.4241 4.41836 76.3498 3.07043 75.0378C2.13459 73.9842 1.21918 71.7332 0.622511 69.0079C0.0471395 66.7677 -0.0831511 64.4626 0.236769 62.1865C0.30361 61.3916 0.639178 60.6294 1.20357 59.9901C1.93203 59.5107 2.81281 59.2241 3.73449 59.1664C5.91608 58.6703 7.9194 57.7294 9.56787 56.4268C12.0845 54.3766 12.4014 53.7228 12.4014 50.5972C12.4014 46.2375 9.71012 43.1446 4.81848 41.8874C0.420976 40.8338 -0.437359 39.3011 0.235141 33.6701C0.695975 29.8772 1.765 27.1008 3.505 25.1784C4.36996 24.2138 5.46789 23.4148 6.72603 22.8339C8.107 22.2119 9.60245 21.7914 11.1499 21.5896C13.969 21.1865 32.4685 21.043 47.4552 21.043C65.2169 21.043 85.5802 21.2347 88.3177 21.6576C92.6377 22.3719 95.8352 24.1445 97.5677 26.7848C98.3502 28.5139 98.8552 30.3237 99.0677 32.1659C99.4419 34.1017 99.5244 36.0693 99.3169 38.0229C98.9835 40.0387 98.3385 40.5426 93.9835 42.1672C89.9002 43.7462 88.7885 44.532 87.7335 46.5921C87.1652 47.7221 86.8827 48.9398 86.9035 50.1671C86.9244 51.3943 87.2485 52.6044 87.8552 53.7202C88.5627 54.9729 89.5677 56.09 90.8077 57.0023C92.0485 57.9145 93.4977 58.6024 95.066 59.0236C97.8377 59.8489 98.7219 60.3719 99.2327 62.2543C99.6669 63.683 99.6069 66.1389 99.066 68.8241C98.5244 71.5269 97.6194 73.8243 96.6494 74.9706C92.9827 79.2551 92.9827 79.2547 50.1538 79.4654C42.0421 79.4914 35.5869 79.5121 30.4744 79.5121ZM89.8252 25.1667H49.991C30.4519 25.1667 20.6576 25.1864 15.3051 25.3697C9.82178 25.5566 9.02895 25.9105 7.99393 26.5728C6.95227 27.2893 5.82138 29.0356 5.04471 31.1294C4.26804 33.2232 4.02411 35.1931 4.40994 36.2642C4.74328 37.0487 6.53977 38.2455 8.41062 38.9331C10.9908 39.8873 13.1853 41.4545 14.7257 43.443C16.1335 45.3028 16.91 47.4526 16.9702 49.6581C17.0402 52.0528 16.3149 54.4162 14.8754 56.4817C13.2794 58.7447 10.948 60.5761 8.15832 61.7605C6.29665 62.5141 4.75665 63.7585 4.40832 64.7854C4.14788 66.4103 4.36188 68.0638 5.03169 69.6033C5.57356 71.2522 6.557 72.7744 7.90604 74.0528L9.90637 75.8088L49.9064 75.5982L89.906 75.3876L92.0727 73.5617C93.5219 72.2736 94.4302 70.6202 94.6569 68.8556C95.0119 66.5462 94.946 65.1151 94.441 64.0707C93.936 63.0262 92.9185 62.3034 91.1594 61.7612C88.4577 60.9591 86.0194 58.9222 84.4719 56.1702C82.9325 53.5029 82.4716 50.4845 83.1599 47.5757C83.5535 45.8283 84.416 44.1795 85.681 42.7557C87.1052 41.285 88.8527 40.0597 90.8277 39.1464L94.4944 37.3198V32.9649C94.4944 29.0358 94.2544 28.4084 92.1602 26.8548L89.8252 25.1667ZM32.0564 69.831C31.0948 69.831 30.583 68.6336 30.2872 65.6963C29.9714 62.5194 29.9064 57.1859 29.9064 49.6115V31.4888H35.157L34.7404 50.1719C34.4004 65.6945 34.1325 68.9416 33.1567 69.4874C32.834 69.684 32.4534 69.803 32.0564 69.831ZM51.9067 50.4538C46.2267 50.4538 44.0815 50.1684 43.4074 49.3227C43.0524 48.8802 43.1025 48.2743 43.5734 47.2944C43.8842 46.5478 48.3652 46.1565 52.6294 46.1565C56.1727 46.1565 59.8737 46.4427 60.157 47.0825C60.3358 47.7799 60.3074 48.5038 60.074 49.1897C59.7457 50.3001 58.7542 50.4538 51.9067 50.4538ZM64.3058 37.7355C62.4533 37.7355 60.1956 37.716 56.9881 37.6704C50.2465 37.5608 47.1149 37.4889 45.4174 37.267C43.6741 37.0387 43.5291 36.6456 43.4041 35.913C43.1649 34.752 43.5949 34.3772 45.4874 34.0871C49.602 33.7823 53.7321 33.656 57.8621 33.7091C63.0479 33.7091 67.5988 33.8262 69.7371 34.0151C73.1488 34.4281 74.0715 34.6936 74.0715 35.771C74.0756 37.2938 72.7924 37.7355 64.3058 37.7355Z" fill="white" stroke="white"/>
</g>
</g>
</g>
<defs>
<clipPath id="clip0_2470_168">
<rect width="100" height="100" fill="white" transform="translate(0.5)"/>
</clipPath>
</defs>
</svg>
