<svg width="24" height="24" viewBox="0 0 24 24" fill="none" xmlns="http://www.w3.org/2000/svg">
<path d="M6.0098 13.8569C6.01234 13.9077 6.00452 13.9585 5.98682 14.0062C5.96911 14.0538 5.94189 14.0974 5.90682 14.1343C5.87174 14.1711 5.82953 14.2004 5.78277 14.2204C5.736 14.2404 5.68566 14.2507 5.6348 14.2506H1.49855C1.32927 14.2509 1.16488 14.1939 1.03211 14.0889C0.89935 13.9838 0.806018 13.837 0.767295 13.6722C0.743184 13.5594 0.744295 13.4427 0.770551 13.3304C0.796806 13.218 0.847556 13.1129 0.91917 13.0225C1.58087 12.145 2.45882 11.4541 3.4673 11.0172C3.02454 10.6135 2.68496 10.1096 2.47699 9.5477C2.26903 8.98578 2.19873 8.38222 2.272 7.78755C2.34526 7.19289 2.55995 6.62443 2.89808 6.1298C3.23622 5.63517 3.68795 5.22876 4.21545 4.94461C4.74295 4.66047 5.33085 4.50685 5.92993 4.49664C6.529 4.48642 7.1218 4.61991 7.65868 4.88591C8.19556 5.15191 8.66089 5.54268 9.01568 6.0255C9.37048 6.50832 9.60443 7.06912 9.69792 7.66094C9.70999 7.74053 9.69574 7.82188 9.65732 7.89262C9.61891 7.96336 9.55843 8.01961 9.48511 8.05282C8.44485 8.53373 7.56386 9.30217 6.94608 10.2675C6.32831 11.2327 5.99953 12.3546 5.99855 13.5006C5.99855 13.6206 5.99855 13.7388 6.0098 13.8569ZM23.0723 13.0216C22.4121 12.1451 21.5362 11.4545 20.5298 11.0172C20.9726 10.6135 21.3121 10.1096 21.5201 9.5477C21.7281 8.98578 21.7984 8.38222 21.7251 7.78755C21.6518 7.19289 21.4371 6.62443 21.099 6.1298C20.7609 5.63517 20.3091 5.22876 19.7816 4.94461C19.2541 4.66047 18.6662 4.50685 18.0672 4.49664C17.4681 4.48642 16.8753 4.61991 16.3384 4.88591C15.8015 5.15191 15.3362 5.54268 14.9814 6.0255C14.6266 6.50832 14.3927 7.06912 14.2992 7.66094C14.2871 7.74053 14.3014 7.82188 14.3398 7.89262C14.3782 7.96336 14.4387 8.01961 14.512 8.05282C15.5522 8.53373 16.4332 9.30217 17.051 10.2675C17.6688 11.2327 17.9976 12.3546 17.9985 13.5006C17.9985 13.6206 17.9985 13.7388 17.9873 13.8569C17.9848 13.9077 17.9926 13.9585 18.0103 14.0062C18.028 14.0538 18.0552 14.0974 18.0903 14.1343C18.1254 14.1711 18.1676 14.2004 18.2143 14.2204C18.2611 14.2404 18.3114 14.2507 18.3623 14.2506H22.4985C22.6678 14.2509 22.8322 14.1939 22.965 14.0889C23.0977 13.9838 23.1911 13.837 23.2298 13.6722C23.2541 13.5592 23.2529 13.4422 23.2265 13.3297C23.2001 13.2172 23.149 13.112 23.077 13.0216H23.0723ZM14.7285 17.0697C15.4753 16.4978 16.0241 15.7063 16.2978 14.8063C16.5714 13.9064 16.5562 12.9434 16.2543 12.0526C15.9524 11.1617 15.3789 10.3879 14.6145 9.83985C13.85 9.29179 12.9331 8.99705 11.9925 8.99705C11.0518 8.99705 10.1349 9.29179 9.37045 9.83985C8.60601 10.3879 8.03252 11.1617 7.73059 12.0526C7.42866 12.9434 7.41346 13.9064 7.68713 14.8063C7.96081 15.7063 8.50959 16.4978 9.25636 17.0697C7.93124 17.6438 6.82473 18.6272 6.09886 19.8756C6.03302 19.9897 5.99837 20.119 5.99838 20.2507C5.99838 20.3823 6.03305 20.5117 6.0989 20.6257C6.16475 20.7397 6.25945 20.8344 6.37349 20.9002C6.48752 20.966 6.61688 21.0007 6.74855 21.0006H17.2485C17.3802 21.0007 17.5096 20.966 17.6236 20.9002C17.7376 20.8344 17.8323 20.7397 17.8982 20.6257C17.964 20.5117 17.9987 20.3823 17.9987 20.2507C17.9987 20.119 17.9641 19.9897 17.8982 19.8756C17.1708 18.6263 16.0622 17.643 14.7351 17.0697H14.7285Z" fill="url(#paint0_linear_3189_12)"/>
<defs>
<linearGradient id="paint0_linear_3189_12" x1="11.9986" y1="4.49609" x2="11.9986" y2="21.0006" gradientUnits="userSpaceOnUse">
<stop stop-color="#BB3F44"/>
<stop offset="1" stop-color="#F54F56"/>
</linearGradient>
</defs>
</svg>
