<svg width="120" height="120" viewBox="0 0 120 120" fill="none" xmlns="http://www.w3.org/2000/svg">
<g clip-path="url(#clip0_773_341)">
<path d="M80.4305 102.976C71.0989 108.571 59.9671 110.509 49.1383 108.425C38.3095 106.341 28.5336 100.379 21.6579 91.6641C14.7822 82.9497 11.2827 72.087 11.8208 61.1284C12.3588 50.1698 16.897 39.8743 24.578 32.1872C24.8713 31.894 25.1648 31.6004 25.4587 31.3066C25.821 30.0209 26.2537 28.7575 26.755 27.522C27.0511 26.8262 27.368 26.1512 27.6999 25.4773C17.686 33.0587 11.1729 44.3668 9.58817 56.923C8.00347 69.4792 11.4765 82.2589 19.246 92.4608C27.0155 102.663 38.4475 109.454 51.036 111.347C63.6246 113.24 76.3426 110.079 86.4021 102.557C84.4419 102.939 82.4373 103.078 80.4328 102.973L80.4305 102.976Z" fill="white"/>
<path d="M96.7556 41.5194C102.049 49.4091 104.726 58.7516 104.406 68.2136C105.477 69.9319 106.327 71.7782 106.934 73.7079C107.931 66.9012 107.45 59.9494 105.525 53.3242C103.6 46.699 100.275 40.5552 95.7771 35.3095C96.2898 37.3464 96.6167 39.4242 96.7537 41.5175L96.7556 41.5194Z" fill="#EBC700"/>
<path d="M49.2288 20.9126C58.6028 19.3662 68.2146 20.8024 76.6926 25.0163C78.7007 24.7532 80.7331 24.7452 82.7408 24.9926C76.9595 21.2643 70.4339 18.82 63.6067 17.8256C56.7795 16.8312 49.8104 17.3098 43.172 19.229C45.238 19.6067 47.2645 20.1706 49.2263 20.9136L49.2288 20.9126Z" fill="#EBC700"/>
<path d="M69.6503 29.3627C63.9933 30.9908 59.4954 35.7371 58.3364 41.3389C58.1432 42.3875 57.9225 43.2705 57.8673 43.3257C57.8121 43.3809 57.2326 43.2981 56.5427 43.1877C54.6387 42.8014 50.7478 42.8566 48.485 43.2981C39.2683 45.0642 32.0385 52.2113 30.162 61.4004C29.8309 63.1112 29.7481 64.5462 29.8309 67.0297C30.0516 72.2176 31.597 76.274 34.9911 80.6064C37.5574 83.8902 42.8557 87.2292 47.1881 88.2778C61.427 91.7547 75.5004 81.0755 75.6936 66.6434C75.6936 65.2085 75.6384 63.2768 75.5004 62.3662L75.3072 60.7105L77.1561 60.3518C84.7447 58.9168 90.4292 51.4386 89.8497 43.6845C89.2978 36.7305 84.3307 30.7977 77.7356 29.2523C75.4176 28.7004 71.7199 28.7556 69.6503 29.3627ZM75.8591 43.4361C75.8591 49.5346 75.8867 49.6449 77.6528 49.9761C78.4806 50.1141 78.6186 50.252 78.6186 50.9419V51.7422H74.8105H71.0024L70.2022 50.9143L69.4019 50.0865H70.2298C70.6713 50.0865 71.3336 49.8933 71.6647 49.6449C72.2442 49.231 72.2718 49.0655 72.2718 44.9538V40.7042H70.7541C69.4295 40.7042 69.2364 40.649 69.2364 40.1523C69.2364 39.7108 69.4295 39.6004 70.1746 39.6004C71.306 39.6004 72.7409 39.1313 73.6515 38.469C74.0379 38.1931 74.6725 37.9447 75.1141 37.9447H75.8591V43.4361ZM58.9435 48.6515C69.7055 52.6528 74.2586 64.8497 68.7672 74.9219C67.2495 77.6813 63.8002 80.9375 60.9303 82.3449C50.8858 87.2016 39.2959 82.5104 35.3499 71.9416C34.4392 69.4581 34.1909 64.353 34.8532 61.6763C36.4812 55.1639 41.6415 49.8657 48.0435 48.1548C49.644 47.7133 50.7202 47.6305 53.3693 47.6857C56.2392 47.7961 56.9842 47.9065 58.9435 48.6515Z" fill="white"/>
<path d="M47.8137 55.5476C47.7033 56.0443 47.3722 58.6106 47.041 61.2597C46.4615 65.8956 46.434 66.0612 46.9307 66.4199C47.3722 66.7511 47.5377 66.6959 48.3932 65.9508C49.6074 64.8746 50.38 64.5987 52.0633 64.5987C53.2223 64.5987 53.5534 64.7367 54.4917 65.5921C55.8714 66.8339 56.2577 67.9929 56.1198 70.4764C55.9266 73.9257 54.4365 75.8574 51.7598 76.1333C49.635 76.3265 49.5522 76.2437 50.0489 74.3121C50.4076 72.9875 50.4352 72.546 50.1317 71.8561C49.7453 70.8903 48.8347 70.3936 47.4826 70.3936C46.1856 70.3936 45.7165 70.6144 45.275 71.525C44.2816 73.429 45.1922 75.2779 47.7585 76.6025C49.2762 77.3751 49.5522 77.4303 52.56 77.4303C55.4299 77.4303 55.9266 77.3475 57.2787 76.7128C60.4797 75.2227 62.0251 72.9323 62.0526 69.6761C62.0802 66.6683 60.121 64.0192 57.196 63.1638C55.3195 62.6119 51.8701 62.7498 50.1317 63.4397C49.3038 63.7708 48.5864 63.9916 48.5312 63.9364C48.476 63.8812 48.5588 62.6946 48.7519 61.3149L49.0831 58.8038H55.0987H61.142V56.7341V54.6645H54.5468H47.9517L47.8137 55.5476Z" fill="#EBC700"/>
</g>
<defs>
<clipPath id="clip0_773_341">
<rect width="120" height="120" fill="white"/>
</clipPath>
</defs>
</svg>
