<svg width="120" height="120" viewBox="0 0 120 120" fill="none" xmlns="http://www.w3.org/2000/svg">
<path d="M11.3157 48.0975C14.2193 36.4977 21.3635 26.3404 31.3984 19.5447C41.4333 12.7491 53.6639 9.78572 65.7793 11.2146C77.8947 12.6435 89.0558 18.3656 97.1538 27.2998C105.252 36.234 109.726 47.7616 109.731 59.7044C109.731 60.1602 109.731 60.6164 109.731 61.0732C110.448 62.3538 111.094 63.672 111.664 65.0216C111.975 65.7924 112.253 66.5633 112.519 67.3449C114.409 53.6713 110.683 39.8221 102.157 28.8329C93.6307 17.8438 81.0003 10.6114 67.0345 8.72114C53.0686 6.83089 38.9067 10.437 27.6531 18.749C16.3995 27.061 8.97247 39.4007 7 53.0631C8.22704 51.2435 9.67631 49.5772 11.3157 48.1011V48.0975Z" fill="white"/>
<path d="M50.4851 108.543C40.2406 106.525 30.8997 101.345 23.7957 93.7431C21.6273 93.2406 19.5322 92.4662 17.5608 91.4385C22.0762 97.5024 27.852 102.531 34.4966 106.184C41.1412 109.836 48.4991 112.027 56.0713 112.608C54.0901 111.424 52.2213 110.063 50.488 108.543H50.4851Z" fill="#EBC700"/>
<path d="M21.9967 62.5105L20.8933 63.6832C20.7695 63.815 20.6928 63.9836 20.675 64.163C20.6572 64.3425 20.6994 64.5227 20.7949 64.676C20.8905 64.8293 21.0342 64.947 21.2039 65.0112C21.3736 65.0754 21.5598 65.0823 21.7338 65.031C21.8667 64.9861 21.9875 64.9115 22.0867 64.8129L23.1901 63.6403C23.3194 63.4827 23.3845 63.2826 23.3722 63.0797C23.36 62.8768 23.2715 62.6858 23.1242 62.5447C22.9754 62.3992 22.7767 62.315 22.568 62.3089C22.3593 62.3029 22.156 62.3754 21.9989 62.512L21.9967 62.5105Z" fill="white"/>
<path d="M42.6498 70.7269C42.3396 71.064 42.0233 71.3819 41.715 71.6625C41.5828 71.789 41.407 71.8597 41.224 71.8597C41.0411 71.8597 40.8653 71.789 40.7331 71.6625C40.6161 71.5348 40.5513 71.3679 40.5513 71.1947C40.5513 71.0215 40.6161 70.8546 40.7331 70.7269L41.6679 69.7336C41.7944 69.6145 41.9615 69.5482 42.1352 69.5482C42.3089 69.5482 42.4761 69.6145 42.6026 69.7336C42.6749 69.8156 42.7234 69.9159 42.7428 70.0235C43.3971 66.942 44.5129 63.9772 46.0526 61.2295C43.4071 64.1474 40.6959 67.0497 37.8445 69.8944C33.2544 74.4605 28.4956 78.8212 23.7368 82.8541C24.1952 83.172 24.6716 83.4718 25.1486 83.7897L25.9338 83.2378C26.0834 83.1443 26.2627 83.1106 26.4359 83.1435C26.6092 83.1764 26.7637 83.2735 26.8686 83.4153C26.9643 83.5644 26.9992 83.7445 26.9662 83.9185C26.9332 84.0926 26.8348 84.2473 26.6912 84.3509L26.4853 84.4819C29.0748 85.7021 31.9017 86.3348 34.7638 86.3348C37.626 86.3348 40.4528 85.7021 43.0424 84.4819C41.7977 80.0028 41.631 75.2922 42.5561 70.7362L42.6498 70.7269ZM30.1877 81.8807C29.8156 82.1613 29.4397 82.4394 29.0563 82.7132C28.9107 82.8119 28.733 82.8513 28.5594 82.8235C28.3857 82.7957 28.2292 82.7028 28.1216 82.5636C28.0475 82.4691 28.0021 82.3553 27.9907 82.2358C27.9752 82.1142 27.9931 81.9907 28.0425 81.8786C28.0919 81.7665 28.1709 81.6699 28.2711 81.5994L29.346 80.7669C29.4923 80.6552 29.677 80.6062 29.8594 80.6308C30.0418 80.6554 30.207 80.7514 30.3186 80.8979C30.4302 81.0444 30.4791 81.2292 30.4546 81.4118C30.43 81.5943 30.3341 81.7596 30.1877 81.8714V81.8807ZM33.4783 79.2794L32.3941 80.2144C32.2551 80.3194 32.0816 80.3681 31.9083 80.3507C31.735 80.3333 31.5747 80.2512 31.4593 80.1206C31.3831 80.0219 31.3319 79.9063 31.3098 79.7835C31.2905 79.6631 31.3037 79.5398 31.3481 79.4262C31.3925 79.3127 31.4664 79.2131 31.5623 79.1379C31.9177 78.8572 32.2725 78.558 32.6279 78.2687C32.696 78.2103 32.775 78.166 32.8603 78.1381C32.9455 78.1103 33.0355 78.0995 33.1249 78.1065C33.2143 78.1134 33.3015 78.1379 33.3814 78.1786C33.4614 78.2193 33.5326 78.2753 33.5909 78.3435C33.6492 78.4117 33.6935 78.4907 33.7213 78.5761C33.7492 78.6614 33.7599 78.7514 33.753 78.8409C33.746 78.9304 33.7215 79.0177 33.6809 79.0977C33.6403 79.1777 33.5843 79.249 33.5161 79.3073L33.4783 79.2794ZM36.6566 76.5478L35.6096 77.4827C35.4697 77.5998 35.2899 77.6579 35.1081 77.6446C34.9262 77.6314 34.7567 77.5478 34.6353 77.4117C34.5138 77.2756 34.4501 77.0976 34.4575 76.9152C34.4649 76.7329 34.5428 76.5606 34.6748 76.4348C35.0302 76.1355 35.3757 75.8264 35.7126 75.4992C35.8033 75.4167 35.914 75.3595 36.0338 75.3333C36.1535 75.307 36.278 75.3126 36.3949 75.3496C36.5093 75.3926 36.6116 75.4628 36.693 75.554C36.7745 75.6453 36.8326 75.7549 36.8625 75.8735C36.8897 75.9941 36.8849 76.1196 36.8488 76.2377C36.8127 76.3558 36.7465 76.4631 36.6566 76.5478ZM39.7233 73.6845L38.7135 74.6201C38.5828 74.6893 38.4333 74.7148 38.2871 74.6928C38.1409 74.6707 38.0055 74.6024 37.901 74.4977C37.7964 74.3931 37.7281 74.2576 37.7061 74.1113C37.6841 73.9649 37.7095 73.8153 37.7787 73.6845L38.7978 72.6645C38.93 72.5379 39.1059 72.4673 39.2888 72.4673C39.4717 72.4673 39.6475 72.5379 39.7797 72.6645C39.8967 72.7922 39.9615 72.9591 39.9615 73.1323C39.9615 73.3055 39.8967 73.4724 39.7797 73.6001C39.7634 73.6297 39.7441 73.6579 39.7233 73.6845Z" fill="white"/>
<path d="M46.0526 50.8772C45.5843 50.5587 45.1167 50.2489 44.6298 49.9397L43.8156 50.4834C43.7305 50.5235 43.6382 50.5458 43.5442 50.549C43.4503 50.5521 43.3567 50.5361 43.2691 50.5019C43.1816 50.4677 43.1019 50.416 43.0349 50.3499C42.9679 50.2838 42.9151 50.2048 42.8796 50.1176C42.826 49.9868 42.8124 49.8429 42.8408 49.7043C42.8691 49.5657 42.9379 49.4387 43.0386 49.3394L43.2448 49.1988C39.6157 47.4556 35.5362 46.8822 31.5683 47.5577C27.6003 48.2333 23.9391 50.1245 21.0888 52.9709C18.2386 55.8173 16.3396 59.4788 15.6534 63.4512C14.9671 67.4236 15.5275 71.5113 17.2571 75.1515L17.3975 74.9543C17.4491 74.8792 17.515 74.815 17.5914 74.7653C17.6678 74.7157 17.7532 74.6817 17.8428 74.6651C17.9323 74.6486 18.0242 74.6499 18.1132 74.6689C18.2023 74.6879 18.2867 74.7243 18.3617 74.776C18.4367 74.8278 18.5008 74.8938 18.5503 74.9703C18.5998 75.0468 18.6338 75.1323 18.6504 75.222C18.6669 75.3117 18.6656 75.4037 18.6466 75.4929C18.6276 75.5821 18.5913 75.6667 18.5396 75.7418C18.3533 76.0043 18.1745 76.2762 17.9875 76.5505C18.2776 77.0289 18.5775 77.4879 18.9235 77.9663C22.986 73.1557 27.3127 68.4553 31.9036 63.8653C36.4951 59.2595 41.2301 54.9181 46.0526 50.8772ZM39.6215 51.8146L40.745 50.9804C40.8435 50.9079 40.9589 50.8621 41.0802 50.8472C41.2015 50.8324 41.3246 50.8492 41.4375 50.8958C41.5278 50.9277 41.6106 50.9779 41.6805 51.0433C41.7505 51.1088 41.8061 51.1881 41.844 51.2762C41.8818 51.3643 41.901 51.4593 41.9003 51.5552C41.8996 51.651 41.879 51.7458 41.84 51.8333C41.7915 51.969 41.6993 52.0845 41.5779 52.1617L40.4848 52.9586C40.3355 53.0685 40.1491 53.1154 39.9657 53.0893C39.7823 53.0631 39.6164 52.9659 39.5037 52.8187C39.3909 52.6714 39.3403 52.4857 39.3627 52.3015C39.3851 52.1173 39.4787 51.9492 39.6234 51.8333L39.6215 51.8146ZM36.3268 54.4024L37.4124 53.521C37.5519 53.4146 37.7268 53.3661 37.901 53.3853C38.0752 53.4045 38.2354 53.4901 38.3484 53.6242C38.4534 53.7636 38.5022 53.9376 38.4848 54.1113C38.4674 54.2851 38.3852 54.4459 38.2546 54.5617L37.169 55.4326C37.0279 55.5346 36.8541 55.5806 36.6811 55.5615C36.5082 55.5424 36.3485 55.4597 36.233 55.3293C36.1655 55.251 36.1174 55.1579 36.0927 55.0575C36.0694 54.9371 36.0789 54.8127 36.1201 54.6972C36.1613 54.5818 36.2327 54.4795 36.3268 54.4012V54.4024ZM33.1445 57.1395C33.491 56.821 33.8463 56.5206 34.1928 56.2021C34.3334 56.0906 34.5108 56.0364 34.6895 56.0504C34.8683 56.0644 35.0351 56.1454 35.1567 56.2773C35.2221 56.3426 35.2739 56.4202 35.3093 56.5056C35.3447 56.591 35.3629 56.6825 35.3629 56.775C35.3629 56.8674 35.3447 56.959 35.3093 57.0444C35.2739 57.1298 35.2221 57.2074 35.1567 57.2726L34.127 58.2101C34.0325 58.2895 33.9196 58.344 33.7986 58.3686C33.6777 58.3931 33.5525 58.387 33.4345 58.3507C33.2615 58.2928 33.1182 58.1689 33.0359 58.0058C32.9536 57.8427 32.9388 57.6537 32.9948 57.4798C33.014 57.3587 33.0658 57.2452 33.1445 57.1513V57.1395ZM20.9754 72.3851L20.1799 73.5011C20.1067 73.5987 20.0097 73.6758 19.8982 73.725C19.7868 73.7742 19.6645 73.794 19.5433 73.7823C19.3601 73.7612 19.1925 73.6686 19.0769 73.5248C18.9613 73.3809 18.9068 73.1972 18.9253 73.0134C18.9408 72.8918 18.9858 72.7758 19.0564 72.6756L19.8892 71.5503C19.9695 71.4568 20.0707 71.3834 20.1845 71.3362C20.2983 71.289 20.4216 71.2692 20.5444 71.2785C20.6634 71.2963 20.7758 71.3444 20.8709 71.4183C20.9659 71.4921 21.0404 71.5892 21.0872 71.7002C21.135 71.8148 21.1497 71.9405 21.1298 72.0631C21.11 72.1857 21.0563 72.3002 20.9748 72.3938L20.9754 72.3851ZM23.5497 69.1411L22.6697 70.2098C22.5747 70.3294 22.4429 70.4143 22.2948 70.4512C22.1467 70.4881 21.9905 70.4749 21.8507 70.4138C21.7108 70.3526 21.595 70.2469 21.5213 70.113C21.4476 69.9792 21.4201 69.8247 21.4431 69.6735C21.4621 69.5513 21.5102 69.4354 21.5835 69.3358C21.8828 68.9793 22.1735 68.5855 22.4728 68.2577C22.5845 68.1221 22.744 68.0348 22.9183 68.0138C23.0925 67.9929 23.2682 68.0399 23.4088 68.1451C23.51 68.2269 23.5876 68.3343 23.6336 68.4562C23.682 68.5689 23.6998 68.6925 23.6849 68.8144C23.6701 68.9362 23.6232 69.052 23.5491 69.1498L23.5497 69.1411ZM26.2551 66.0096C25.9445 66.3474 25.6464 66.6938 25.3191 67.041C25.2337 67.1293 25.1271 67.1944 25.0095 67.2299C24.8918 67.2655 24.7671 67.2703 24.6471 67.244C24.5271 67.2177 24.4158 67.1612 24.3237 67.0797C24.2317 66.9982 24.1619 66.8945 24.1211 66.7784C24.0788 66.6632 24.0686 66.5386 24.0917 66.4181C24.1148 66.2975 24.1702 66.1855 24.2522 66.0942C24.5515 65.7442 24.8635 65.3973 25.1881 65.0535C25.3118 64.9167 25.4843 64.8342 25.6682 64.8238C25.8521 64.8133 26.0328 64.8757 26.1712 64.9975C26.2949 65.1195 26.3683 65.2835 26.3769 65.4571C26.3855 65.6307 26.3287 65.8012 26.2178 65.9349L26.2551 66.0096ZM30.5329 61.2377C30.3943 61.24 30.2583 61.2 30.1429 61.123C30.0276 61.046 29.9383 60.9356 29.887 60.8066C29.8349 60.6786 29.8222 60.5378 29.8505 60.4025C29.8789 60.2671 29.947 60.1434 30.046 60.0471C30.3739 59.7186 30.7199 59.4001 31.0571 59.1096C31.1466 59.0278 31.2554 58.9702 31.3734 58.9423C31.4913 58.9144 31.6144 58.9172 31.731 58.9504C31.8192 58.9761 31.9015 59.0191 31.973 59.077C32.0445 59.1349 32.1037 59.2064 32.1473 59.2875C32.1909 59.3686 32.218 59.4575 32.2269 59.5491C32.2358 59.6408 32.2264 59.7333 32.1992 59.8213C32.1648 59.936 32.1005 60.0395 32.0129 60.1211L31.0192 61.0585C30.8839 61.1776 30.7122 61.2471 30.5323 61.2557L30.5329 61.2377Z" fill="white"/>
<path d="M48.8421 56.482C48.5754 56.1907 48.2995 55.9165 48.0047 55.6505L20.9474 80.0159C21.2526 80.2653 21.5639 80.5229 21.8672 80.7558C26.6234 77.1551 31.3429 73.2714 35.897 69.1141C40.4511 64.9567 44.8392 60.7646 48.8421 56.482Z" fill="white"/>
<path d="M47.9036 52.8611C43.1549 56.8697 38.4244 61.1743 33.832 65.7921C29.2395 70.4098 24.9408 75.0846 20.9474 79.8323C21.2112 80.1526 21.4872 80.4604 21.7754 80.7558L48.8421 53.6921C48.5387 53.4059 48.226 53.1369 47.9036 52.8611Z" fill="white"/>
<path d="M81.1748 46.3026C81.7574 44.8205 82.141 43.2695 82.3158 41.6892C77.3314 40.9853 72.7259 38.6651 69.225 35.0941C65.5943 31.6443 63.2319 27.0992 62.5109 22.1769C58.2877 22.5501 54.3299 24.3699 51.3238 27.3207C48.3178 30.2715 46.4529 34.1673 46.0526 38.3326C51.036 39.041 55.6401 41.3612 59.1433 44.9295C59.8869 45.6707 60.5835 46.4564 61.2292 47.2821C67.5982 44.838 74.602 44.5141 81.1748 46.3596V46.3026Z" fill="#EBC700"/>
<path d="M82.3158 41.7032C82.1816 36.5635 80.3735 31.6784 77.2619 28.0482C74.1504 24.4181 69.9707 22.3176 65.579 22.1769C66.2423 27.0727 68.2625 31.5776 71.3284 34.9974C74.2711 38.5705 78.1281 40.9245 82.3158 41.7032Z" fill="#EBC700"/>
<path d="M58.3958 47.0716C55.0902 44.2165 50.7582 42.3323 46.0526 41.7031C46.1911 45.8032 48.2249 49.7012 51.7311 52.5862C51.8408 52.6857 51.9704 52.7687 52.09 52.861C54.4736 51.131 57.1359 49.6861 60 48.5683C59.5002 48.0442 58.9646 47.5445 58.3958 47.0716Z" fill="#EBC700"/>
<path d="M61.6191 49.3994C54.8618 52.1184 49.36 57.2577 46.1874 63.8144C43.0149 70.3711 42.3992 77.8746 44.4606 84.8607C46.522 91.8468 51.1125 97.8142 57.3363 101.598C63.5602 105.382 70.9706 106.712 78.1217 105.327C85.2727 103.942 91.6511 99.9419 96.0121 94.1079C100.373 88.2738 102.404 81.0241 101.708 73.7736C101.012 66.523 97.6398 59.7918 92.2488 54.8937C86.8577 49.9955 79.8351 47.2818 72.5512 47.2822C68.8044 47.273 65.0916 47.9921 61.6191 49.3994ZM50.7923 88.4554C49.3881 87.597 48.0969 86.5659 46.9491 85.3864C45.202 80.4822 44.8945 75.1806 46.0628 70.1073C46.6029 69.0339 47.2266 68.0046 47.9281 67.029C48.1429 66.7195 48.3385 66.4132 48.5718 66.0963L55.101 69.9767V70.1352C55.084 73.6445 55.4341 77.1461 56.1457 80.5826L51.0993 88.5582C50.9884 88.5019 50.8824 88.4365 50.7824 88.3626L50.7923 88.4554ZM70.3157 101.885C71.4381 102.462 72.6047 102.949 73.8044 103.34C68.6524 103.564 63.5416 102.332 59.057 99.7866L70.0546 101.736L70.3157 101.885ZM70.2409 99.9543L57.3216 97.6026C55.7791 95.7781 54.4053 93.8175 53.2171 91.7448C52.9188 91.2225 52.5828 90.7094 52.2845 90.1499L57.4144 82.2307L57.7858 82.3334C60.9707 83.1581 64.2004 83.7987 67.459 84.252C67.6446 84.252 67.8043 84.3077 67.9442 84.3077L74.0352 94.8287C72.9844 96.3334 71.9116 97.801 70.817 99.2315C70.6116 99.4277 70.416 99.6604 70.2105 99.8937L70.2409 99.9543ZM91.835 95.4024C90.821 96.4221 89.7261 97.358 88.5611 98.201C88.3709 96.688 88.0394 95.1962 87.5709 93.745L94.1002 81.6186C95.8981 80.8328 97.6136 79.8705 99.2215 78.7457C99.4188 78.6103 99.5922 78.443 99.7345 78.2506C99.2562 84.7372 96.4497 90.8324 91.832 95.4129L91.835 95.4024ZM91.546 79.7409L92.3017 81.1309L86.0144 92.8H85.9024C82.5178 93.4229 79.0833 93.7351 75.6419 93.7327L69.3422 83.0173C70.3776 81.2077 71.3103 79.4352 72.243 77.5711C72.8959 76.3395 73.5302 75.1085 74.1739 73.8398L87.1705 72.5618C88.7619 74.8704 90.2195 77.2684 91.5361 79.744L91.546 79.7409ZM88.878 65.9076C88.2529 67.521 87.6 69.1258 86.9471 70.7299L74.3168 72.0296C74.1685 71.8255 74.0097 71.6292 73.8409 71.4416L69.3354 66.3767L67.5258 64.5763L71.0299 54.0448C71.2782 53.9802 71.5307 53.9334 71.7856 53.9049C73.6509 53.7087 75.6103 53.4946 77.5221 53.3826C78.7054 53.3079 79.8923 53.3079 81.0757 53.3826L89.7692 63.1393C89.5186 64.0255 89.2202 64.9867 88.8749 65.91L88.878 65.9076ZM91.835 57.0464C94.1733 59.364 96.0689 62.0891 97.4285 65.0875C95.8051 63.9714 94.0664 63.0331 92.2423 62.2889L91.3758 61.9622L82.7467 52.3843C82.8072 51.9669 82.8446 51.5464 82.8587 51.1249C86.2147 52.4818 89.2658 54.4956 91.8326 57.0482L91.835 57.0464ZM63.8508 50.6124C63.871 50.6367 63.8967 50.6558 63.9257 50.6681C65.8582 51.3437 67.6869 52.2857 69.3589 53.4667L66.0312 63.3726C65.3597 63.6523 64.6789 63.9042 64.0161 64.2025C61.2817 65.415 58.6436 66.8338 56.1247 68.4468L49.6511 64.6221C49.6512 64.4209 49.6892 64.2214 49.7631 64.0342C50.192 62.8775 50.6215 61.7115 51.1154 60.5827C51.4983 59.7158 51.9248 58.8689 52.3934 58.0452C52.7028 57.7092 53.0278 57.3645 53.3261 57.047C56.3015 54.0801 59.9257 51.8453 63.9127 50.519L63.8508 50.6124Z" fill="white"/>
</svg>
