<svg width="100" height="100" viewBox="0 0 100 100" fill="none" xmlns="http://www.w3.org/2000/svg">
<path d="M68.9393 37.1478C68.7689 36.6387 68.4473 36.1899 68.0151 35.8581C67.5828 35.5262 67.0592 35.3262 66.5102 35.2832L56.4601 34.4949L52.5797 25.372C52.3699 24.8749 52.0127 24.4497 51.5537 24.1504C51.0946 23.8512 50.5544 23.6914 50.0016 23.6914C49.4489 23.6914 48.9087 23.8512 48.4496 24.1504C47.9905 24.4497 47.6334 24.8749 47.4235 25.372L43.5466 34.4933L33.4914 35.2832C32.9415 35.3284 32.4175 35.5304 31.9852 35.8638C31.5528 36.1972 31.2313 36.6472 31.0609 37.1575C30.8904 37.6678 30.8787 38.2156 31.0271 38.7324C31.1756 39.2491 31.4776 39.7118 31.8953 40.0624L39.5606 46.4926L37.2252 56.1074C37.0946 56.6297 37.1266 57.178 37.3171 57.6827C37.5076 58.1873 37.8481 58.6256 38.2952 58.9417C38.7424 59.2579 39.2761 59.4378 39.8287 59.4586C40.3812 59.4794 40.9276 59.3401 41.3986 59.0584L50.0008 53.9115L58.6081 59.0584C59.0792 59.3367 59.6245 59.4734 60.1754 59.451C60.7262 59.4287 61.2579 59.2484 61.7035 58.9329C62.1492 58.6174 62.4889 58.1808 62.6798 57.678C62.8707 57.1752 62.9043 56.6287 62.7764 56.1074L60.4325 46.491L68.0978 40.0607C68.5189 39.7107 68.8236 39.247 68.9734 38.7285C69.1232 38.2099 69.1113 37.6598 68.9393 37.1478ZM66.3263 38.0537L58.0307 45.0089C57.8415 45.1674 57.7007 45.3734 57.6238 45.6044C57.5469 45.8354 57.5368 46.0825 57.5946 46.3188L60.1293 56.7184C60.1358 56.7328 60.1365 56.749 60.1311 56.7638C60.1257 56.7786 60.1147 56.7908 60.1003 56.7979C60.0696 56.8211 60.0611 56.8162 60.0356 56.7979L50.7145 51.2255C50.4998 51.0972 50.2528 51.0293 50.0008 51.0293C49.7488 51.0293 49.5017 51.0972 49.2871 51.2255L39.966 56.8013C39.9405 56.8162 39.9336 56.8211 39.9013 56.8013C39.8869 56.7941 39.8759 56.7819 39.8705 56.7671C39.8651 56.7523 39.8658 56.7361 39.8723 56.7218L42.407 46.3221C42.4648 46.0859 42.4546 45.8387 42.3777 45.6077C42.3008 45.3767 42.1601 45.1707 41.9709 45.0122L33.6753 38.057C33.6549 38.0404 33.6361 38.0255 33.6532 37.9742C33.6702 37.9228 33.6838 37.9295 33.7094 37.9262L44.5976 37.0717C44.8473 37.0508 45.0863 36.9635 45.2883 36.8191C45.4902 36.6748 45.6473 36.4791 45.7423 36.2536L49.9361 26.3822C49.9497 26.354 49.9548 26.3408 49.9957 26.3408C50.0366 26.3408 50.0417 26.354 50.0553 26.3822L54.2593 36.2536C54.3552 36.4792 54.5133 36.6747 54.7161 36.8184C54.919 36.9622 55.1589 37.0487 55.4091 37.0683L66.2973 37.9228C66.3228 37.9228 66.3382 37.9228 66.3535 37.9709C66.3688 38.0189 66.3535 38.0371 66.3263 38.0537Z" fill="white"/>
<path d="M74.8 7H25.2C23.5557 7 21.9787 7.65471 20.8159 8.8201C19.6532 9.9855 19 11.5661 19 13.2142V91.3359C18.9998 91.8113 19.1267 92.2782 19.3674 92.6879C19.608 93.0977 19.9538 93.4354 20.3687 93.6659C20.7835 93.8965 21.2524 94.0115 21.7267 93.9991C22.2009 93.9866 22.6631 93.8472 23.0654 93.5952L49.9956 76.728L76.9346 93.5952C77.3369 93.8472 77.7991 93.9866 78.2733 93.9991C78.7476 94.0115 79.2165 93.8965 79.6313 93.6659C80.0462 93.4354 80.392 93.0977 80.6326 92.6879C80.8733 92.2782 81.0002 91.8113 81 91.3359V13.2142C81 11.5661 80.3468 9.9855 79.1841 8.8201C78.0213 7.65471 76.4443 7 74.8 7ZM75.6857 86.5287L51.4039 71.3216C50.9816 71.0571 50.4936 70.9168 49.9956 70.9168C49.4976 70.9168 49.0096 71.0571 48.5873 71.3216L24.3143 86.5287V13.2142C24.3143 12.9788 24.4076 12.753 24.5737 12.5865C24.7398 12.42 24.9651 12.3265 25.2 12.3265H74.8C75.0349 12.3265 75.2602 12.42 75.4263 12.5865C75.5924 12.753 75.6857 12.9788 75.6857 13.2142V86.5287Z" fill="white"/>
</svg>
