<svg width="120" height="120" viewBox="0 0 120 120" fill="none" xmlns="http://www.w3.org/2000/svg">
<g clip-path="url(#clip0_773_464)">
<path d="M11.3157 46.561C14.2193 35.0505 21.3635 24.9714 31.3984 18.2281C41.4333 11.4848 53.6639 8.54424 65.7793 9.96211C77.8947 11.38 89.0558 17.0581 97.1538 25.9235C105.252 34.7889 109.726 46.2277 109.731 58.0786C109.731 58.5308 109.731 58.9836 109.731 59.4368C110.448 60.7076 111.094 62.0156 111.664 63.3548C111.975 64.1197 112.253 64.8846 112.519 65.6602C114.409 52.0919 110.683 38.3493 102.157 27.4448C93.6307 16.5403 81.0003 9.36356 67.0345 7.48787C53.0686 5.61217 38.9067 9.19052 27.6531 17.4385C16.3995 25.6865 8.97247 37.9312 7 51.4884C8.22704 49.6828 9.67631 48.0293 11.3157 46.5646V46.561Z" fill="#EBC700"/>
<path d="M77.1201 103.599C66.3235 107.007 54.6016 106.772 43.6274 102.927C41.2999 103.572 38.8885 103.907 36.4513 103.923C44.1191 107.6 52.3938 109.573 60.7142 109.709C69.0346 109.844 77.206 108.139 84.6744 104.708C82.1398 104.572 79.6123 104.201 77.1229 103.597L77.1201 103.599Z" fill="#EBC700"/>
<path d="M36.044 29.4921C32.8285 31.5312 31.5737 33.8056 30.3188 39.217C29.064 44.3148 26.7896 47.6087 24.3584 47.6087C21.2997 47.6087 23.8094 54.7456 27.8876 57.4121C28.9856 58.1179 31.1031 58.9022 32.6716 59.1375L35.495 59.608L34.0049 56.1572C33.1422 54.275 32.0442 52.628 31.5737 52.4712C30.3972 52.079 29.1424 48.7067 29.6914 47.2166C30.0051 46.5892 30.7894 46.0402 31.4952 46.0402C32.2011 46.0402 33.2206 45.099 33.6912 43.8442C34.2402 42.6678 35.1029 41.0993 35.6519 40.315C36.5145 39.1386 36.4361 38.8249 35.495 38.1975C34.8676 37.8053 34.6323 37.2564 34.946 36.9426C35.2597 36.6289 36.1224 36.9426 36.8283 37.5701C39.0242 39.5307 45.9258 42.7462 49.0629 43.2952C50.6314 43.6089 51.9647 44.3148 51.9647 44.8638C51.9647 45.4128 52.6705 46.0402 53.5332 46.2755C55.4939 46.746 55.5723 49.491 53.7685 51.3732C52.5136 52.5496 49.6118 57.9611 49.6118 58.9806C49.6118 60.0786 53.6116 59.1375 55.886 57.5689C61.0622 54.0397 63.4934 48.2361 60.0426 47.7656C57.3761 47.3734 55.4154 44.3148 54.3959 39.0602C53.3763 33.9624 51.4157 30.9038 48.0433 29.1784C44.8278 27.5314 38.7105 27.6883 36.044 29.4921Z" fill="white"/>
<path d="M35.8088 42.511C34.7892 43.8443 33.9265 45.805 33.9265 46.8245C33.9265 48.3146 33.7697 48.4715 32.7501 47.6088C32.0443 47.0598 31.3384 46.8245 31.1032 47.0598C30.2405 47.9225 31.5737 51.5301 32.6717 51.5301C33.2991 51.5301 34.005 52.5497 34.3187 53.8829C35.1029 57.3337 38.8674 60.1571 42.7104 60.1571C46.3964 60.1571 50.3962 56.7847 50.3962 53.6477C50.3962 52.3928 50.9452 51.6086 51.9647 51.2949C53.0627 50.9812 53.5333 50.1969 53.5333 48.7852C53.5333 46.9814 53.3764 46.7461 52.3569 47.6088C51.4157 48.3931 51.102 48.2362 50.3962 46.5108C50.0041 45.4128 49.0629 44.4717 48.2787 44.4717C47.4944 44.4717 44.8279 43.4522 42.3182 42.1973L37.7695 40.0014L35.8088 42.511Z" fill="white"/>
<path d="M73.6888 43.4521C72.6693 43.6874 72.434 44.2364 72.8261 45.4912C74.9437 52.1575 76.1201 54.9809 76.8259 55.2162C77.3749 55.4515 78.5513 53.0202 79.4924 49.9616C81.061 45.1775 81.1394 44.3148 80.1983 43.6874C79.0219 42.9032 76.1201 42.8247 73.6888 43.4521Z" fill="#EBC700"/>
<path d="M67.8854 48.3931C66.8658 48.7853 66.0815 49.3343 66.0815 49.5696C66.0815 49.8048 68.1206 53.5693 70.5519 57.8828C76.5123 68.2352 77.2182 68.2352 83.4923 57.4122L88.0411 49.5696L85.7667 48.4716C82.5512 46.9815 81.3748 47.6873 80.1984 51.8439C78.3161 58.5886 75.7281 58.6671 73.689 52.0008C72.1988 47.452 71.493 46.9815 67.8854 48.3931Z" fill="white"/>
<path d="M84.355 58.3533C78.0025 69.4115 78.0809 69.5684 90.5508 69.5684H99.8052V67.294C99.8052 62.4315 95.6485 54.6672 91.335 51.6086L89.1391 50.04L84.355 58.3533Z" fill="white"/>
<path d="M61.2975 53.883C60.278 55.6084 58.7094 57.5691 57.7683 58.1965C56.6703 58.9023 55.4939 61.0199 54.7097 63.4511C53.2195 68.4704 53.2195 68.7841 54.7881 68.7841C55.4155 68.7841 57.0625 69.8037 58.3173 71.0585C60.278 73.0192 60.5917 73.9603 60.5917 77.7248C60.5917 81.5677 60.7485 82.0383 62.3955 82.2736C63.6503 82.4304 64.1209 82.9794 64.0425 84.2342C64.0425 85.8028 64.3562 86.0381 66.8658 86.0381C70.2382 86.0381 71.3362 87.0576 71.7283 90.3515L71.9636 92.7043L77.4535 92.6259C80.5121 92.6259 84.0413 92.0769 85.453 91.4495L87.9627 90.3515L83.4923 82.5088C77.6887 72.4702 76.2771 71.9996 72.5126 78.9012C70.0813 83.3715 68.4344 85.4106 68.4344 83.9205C68.4344 83.6068 69.6892 81.1756 71.2577 78.6659C73.6105 74.7446 73.9243 73.725 73.2184 72.2349C72.5126 70.5879 71.8067 70.3527 65.9247 70.1174L59.4153 69.8821L65.8463 69.7253C71.493 69.5684 72.4341 69.3331 73.14 67.9214C73.9243 66.5882 73.3753 65.0981 69.6108 58.5102C67.1795 54.2751 64.7483 50.7459 64.1209 50.7459C63.4935 50.7459 62.2386 52.1576 61.2975 53.883Z" fill="white"/>
<path d="M37.8479 63.7648C37.8479 66.745 36.1225 68.392 31.809 69.4899C26.3975 70.98 25.2996 73.0976 25.2996 82.5088C25.2996 89.2535 25.5348 90.6652 26.7112 91.8416C28.0445 93.018 30.4757 93.0964 48.9061 92.9396L69.6108 92.7043L69.8461 90.1162L70.0813 87.6066H65.7679C61.6897 87.6066 60.278 86.8223 62.1602 85.6459C62.6308 85.4106 62.9445 84.5479 62.9445 83.8421C62.9445 82.9009 62.2387 83.2931 60.3564 85.0969L57.7683 87.6066H44.671C29.8483 87.6066 29.6915 87.5281 30.162 81.0971L30.3973 77.8032L34.7108 77.96C37.0636 78.0385 40.2791 78.1169 41.7692 78.1169C43.2593 78.1953 46.7101 78.0385 49.4551 77.7248L54.3175 77.2542V81.6461C54.3175 85.4106 54.5528 86.038 55.7292 86.038C58.2389 86.038 59.8074 83.4499 59.8074 79.4502C59.8074 73.176 58.0036 70.98 51.1805 69.0978C48.0434 68.3135 47.2591 67.2156 47.2591 64.0785V61.1767L42.5535 61.2551L37.8479 61.3335V63.7648Z" fill="white"/>
<path d="M74.2379 69.2546C73.6105 71.6858 74.7085 72.9407 77.0613 72.5485C81.2179 71.9996 80.7473 67.2155 76.5907 67.2155C75.2574 67.2155 74.63 67.7645 74.2379 69.2546Z" fill="#EBC700"/>
<path d="M80.5121 72.3134C80.1983 73.7251 81.061 75.9994 84.1197 81.3325C86.3941 85.2538 88.59 88.6262 88.9822 88.8615C91.5702 90.5084 99.8051 78.4307 99.8051 72.9408V70.3527H90.3938C81.061 70.3527 80.9826 70.3527 80.5121 72.3134Z" fill="white"/>
<path d="M32.1226 78.7443C31.8089 78.9796 31.5736 80.7834 31.5736 82.6657V86.1165L42.3965 85.8812L53.141 85.6459V82.1167C53.141 78.9796 52.9057 78.5875 51.3372 78.3522C50.3176 78.1953 47.808 78.5875 45.7689 79.2933C42.5534 80.3129 41.6907 80.3129 39.0242 79.3717C35.5734 78.1953 32.9069 77.8816 32.1226 78.7443Z" fill="#EBC700"/>
<path d="M76.276 26L77.9599 31.1824H83.4089L79.0005 34.3853L80.6844 39.5676L76.276 36.3647L71.8676 39.5676L73.5515 34.3853L69.1431 31.1824H74.5921L76.276 26Z" fill="#EBC700"/>
<path d="M88.276 31L89.5108 34.8004H93.5068L90.274 37.1492L91.5088 40.9496L88.276 38.6008L85.0432 40.9496L86.278 37.1492L83.0452 34.8004H87.0412L88.276 31Z" fill="#EBC700"/>
<path d="M64.276 31L65.5108 34.8004H69.5068L66.274 37.1492L67.5088 40.9496L64.276 38.6008L61.0432 40.9496L62.278 37.1492L59.0452 34.8004H63.0412L64.276 31Z" fill="#EBC700"/>
</g>
<defs>
<clipPath id="clip0_773_464">
<rect width="120" height="120" fill="white"/>
</clipPath>
</defs>
</svg>
