<svg width="120" height="120" viewBox="0 0 120 120" fill="none" xmlns="http://www.w3.org/2000/svg">
<g clip-path="url(#clip0_773_178)">
<path d="M22.9292 22.1903C22.3482 22.5034 21.5823 23.286 21.0541 24.0948C15.9043 32.0779 12.5503 41.209 11.2299 50.8879C10.6224 55.2708 10.6224 63.2017 11.2299 67.5846C12.5503 77.2114 15.9571 86.4989 21.0541 94.3777C23.0348 97.4562 26.4944 97.6127 28.5015 94.7169C29.5315 93.2037 29.3202 91.8471 27.5772 88.9773C21.8728 79.5332 19.2319 70.1152 19.2319 59.2362C19.2319 48.3312 21.8728 38.9392 27.5772 29.4951C28.8184 27.4602 29.0825 26.8341 29.0825 25.8166C29.0825 22.7643 25.6493 20.7554 22.9292 22.1903Z" fill="#EBC700"/>
<path d="M92.0686 22.0338C90.352 22.7904 89.2956 24.8253 89.6653 26.6254C89.7446 27.0428 90.484 28.4777 91.2763 29.8082C95.1849 36.1739 97.7994 43.3483 98.9878 50.914C99.6216 55.0099 99.6216 63.4627 98.9878 67.5586C97.773 75.1765 95.1321 82.403 91.2235 88.7165C89.8238 90.9601 89.6917 91.3254 89.6917 92.682C89.6917 94.2734 90.1407 95.1343 91.514 96.1257C92.5439 96.8823 95.0264 96.8823 96.0828 96.1257C97.0335 95.4213 98.6445 93.0211 100.493 89.5252C110.502 70.4283 110.502 48.0442 100.493 28.9473C98.6709 25.5036 97.0335 23.0513 96.1092 22.373C95.2113 21.7208 93.1249 21.5381 92.0686 22.0338Z" fill="#EBC700"/>
<path d="M35.236 38.8609C32.8328 39.9567 29.294 46.9745 28.132 52.8966C27.5245 55.949 27.5245 61.4798 28.132 64.5061C29.0035 68.9673 31.3275 74.4198 33.5987 77.2374C36.2924 80.6028 41.2574 79.0636 41.231 74.8372C41.231 73.9241 40.914 73.2197 39.6728 71.2109C36.8734 66.6193 35.6322 61.3233 36.2132 56.4186C36.6886 52.2966 37.6129 49.6356 39.8841 45.931C40.9933 44.1308 41.231 43.5308 41.231 42.5394C41.231 39.4871 38.0618 37.5565 35.236 38.8609Z" fill="white"/>
<path d="M80.475 38.9654C79.1017 39.722 78.3622 40.9743 78.3622 42.5396C78.3622 43.5831 78.5999 44.1571 79.894 46.2703C82.6141 50.7053 83.6441 54.7752 83.4064 60.019C83.1951 64.5323 81.9275 68.3152 79.313 72.2024C78.1774 73.8982 78.0453 75.5418 78.8904 77.0027C79.7883 78.4898 80.9767 79.1159 82.7198 79.0116C84.674 78.8811 85.4135 78.2811 87.1301 75.594C88.7939 72.959 90.1408 69.7762 91.0651 66.3325C91.963 62.8888 92.2007 57.0971 91.5669 53.4968C90.7482 48.853 88.1865 42.7744 85.9417 40.1916C84.3043 38.3132 82.3764 37.8697 80.475 38.9654Z" fill="white"/>
<path d="M57.6045 44.1047C51.9529 44.9917 46.9352 49.2963 45.1393 54.801C44.3735 57.1751 44.3735 61.2971 45.1393 63.6712C46.6975 68.4715 50.7381 72.4109 55.6238 73.8979C58.1327 74.6545 62.0413 74.6545 64.4709 73.8719C69.2774 72.3587 73.2652 68.4193 74.8234 63.6712C75.5892 61.2971 75.5892 57.1751 74.797 54.801C73.2124 49.9224 69.0397 45.8787 64.1804 44.5221C62.3318 44.0003 59.4268 43.8177 57.6045 44.1047Z" fill="white"/>
<path d="M71.0883 105.025C63.3528 107.596 55.0144 107.672 47.2634 105.241C45.5971 105.734 43.8759 106.014 42.1412 106.075C47.5419 108.457 53.4005 109.65 59.3196 109.574C65.2388 109.499 71.0801 108.156 76.4474 105.637C74.6457 105.594 72.8527 105.389 71.0903 105.023L71.0883 105.025Z" fill="#EBC700"/>
<path d="M45.6554 16.2762C53.3909 13.7049 61.7292 13.6291 69.4803 16.0596C71.1465 15.5665 72.8678 15.2864 74.6024 15.226C69.2018 12.8442 63.3432 11.6507 57.424 11.7263C51.5049 11.8019 45.6636 13.1449 40.2963 15.6641C42.0979 15.7063 43.891 15.9116 45.6534 16.2773L45.6554 16.2762Z" fill="#EBC700"/>
</g>
<defs>
<clipPath id="clip0_773_178">
<rect width="120" height="120" fill="white"/>
</clipPath>
</defs>
</svg>
