<svg width="120" height="120" viewBox="0 0 120 120" fill="none" xmlns="http://www.w3.org/2000/svg">
<g clip-path="url(#clip0_773_205)">
<path d="M69.5796 104.138C61.6279 106.781 53.0565 106.859 45.0888 104.361C43.3759 104.867 41.6066 105.155 39.8235 105.218C45.3751 107.666 51.3974 108.893 57.482 108.815C63.5666 108.737 69.5712 107.357 75.0885 104.767C73.2365 104.724 71.3933 104.513 69.5817 104.137L69.5796 104.138Z" fill="#EBC700"/>
<path d="M79.5 53C85.299 53 90 48.299 90 42.5C90 36.701 85.299 32 79.5 32C73.701 32 69 36.701 69 42.5C69 48.299 73.701 53 79.5 53Z" fill="#EBC700"/>
<path d="M81.9904 26V41.5165C81.3786 42.371 80.7668 43.2885 80.1549 44.269C79.524 45.2495 78.8835 46.2749 78.2334 47.3633C78.004 47.7501 77.8032 48.1279 77.5738 48.5147C75.2412 52.6075 72.9277 57.4468 71.0062 63.0328C67.4308 73.4311 66.4939 83.4786 66.3888 90H47.8809C48.7604 82.0034 50.8923 70.5616 55.9685 58.94C59.1615 51.672 62.8134 45.5733 66.2262 40.671C66.274 40.59 66.341 40.5181 66.3888 40.4371H50.1944V45.4923C50.0319 45.7082 49.898 45.9151 49.7642 46.149H34V26.009H82L81.9904 26Z" fill="white"/>
<path d="M19.42 41.3484C21.721 32.5184 27.3824 24.7864 35.3346 19.6134C43.2868 14.4404 52.9789 12.1846 62.5798 13.2723C72.1807 14.36 81.0253 18.7158 87.4426 25.5168C93.8599 32.3177 97.4054 41.0928 97.4091 50.1839C97.4091 50.5308 97.4091 50.8781 97.4091 51.2258C97.9778 52.2007 98.4893 53.2041 98.9415 54.2315C99.1876 54.8182 99.4081 55.405 99.6187 56C101.117 45.5914 98.1639 35.049 91.4073 26.6838C84.6507 18.3186 74.6418 12.8132 63.5745 11.3743C52.5072 9.93535 41.2845 12.6804 32.3666 19.0077C23.4487 25.335 17.5631 34.7282 16 45.1284C16.9724 43.7433 18.1208 42.4748 19.42 41.3512V41.3484Z" fill="#EBC700"/>
</g>
<defs>
<clipPath id="clip0_773_205">
<rect width="120" height="120" fill="white"/>
</clipPath>
</defs>
</svg>
