<svg width="120" height="120" viewBox="0 0 120 120" fill="none" xmlns="http://www.w3.org/2000/svg">
<path d="M13.6218 47.1439C16.374 35.8237 23.1454 25.9114 32.6566 19.2796C42.1678 12.6478 53.7602 9.75588 65.2434 11.1503C76.7265 12.5447 87.3052 18.1289 94.9806 26.8477C102.656 35.5665 106.897 46.8161 106.901 58.4709C106.901 58.9157 106.901 59.3609 106.901 59.8067C107.581 61.0565 108.193 62.3428 108.734 63.6599C109.028 64.4121 109.292 65.1644 109.544 65.9271C111.336 52.5833 107.804 39.068 99.7226 28.3438C91.6414 17.6196 79.6702 10.5617 66.4331 8.71698C53.196 6.87231 39.7731 10.3915 29.1067 18.503C18.4404 26.6146 11.4009 38.6568 9.53137 51.9898C10.6944 50.214 12.068 48.5879 13.6218 47.1474V47.1439Z" fill="white"/>
<path d="M46.8638 106.132C37.1539 104.163 28.3005 99.1079 21.5671 91.6891C19.5119 91.1988 17.5261 90.443 15.6576 89.4401C19.9373 95.3578 25.4118 100.265 31.7096 103.83C38.0075 107.394 44.9814 109.532 52.1585 110.099C50.2807 108.943 48.5094 107.615 46.8666 106.132H46.8638Z" fill="#EBC700"/>
<path d="M97.0489 85.7162C91.2835 93.9981 83.1458 100.198 73.7975 103.432C72.5122 105.155 71.021 106.702 69.36 108.037C76.3645 106.48 82.9713 103.385 88.7325 98.9613C94.4936 94.5379 99.2743 88.8897 102.75 82.3997C100.95 83.6801 99.0424 84.7893 97.0501 85.7136L97.0489 85.7162Z" fill="#EBC700"/>
<path d="M60.7096 28.9189C63.4377 28.9685 69.3281 29.3405 70.1837 29.5265C72.4034 29.973 74.4619 31.5603 75.4788 33.594C75.764 34.1768 75.9748 34.6852 75.95 34.71C75.8756 34.772 74.3131 35.2805 74.3007 35.2433C74.2883 35.2309 74.1023 34.8464 73.8667 34.3876C73.1475 32.9243 71.523 31.6967 69.8241 31.3246C69.2909 31.213 65.9923 30.9402 65.0994 30.9402H64.8018V33.594V36.2477L65.8187 36.3221C66.3891 36.3593 68.1872 36.4461 69.8241 36.5205C73.0855 36.6693 75.5656 36.9173 76.5204 37.2026C77.3265 37.4382 78.0457 37.9094 78.4674 38.4922C78.7774 38.9263 79.4346 40.8856 79.8066 42.4604L79.9678 43.1177L80.4143 43.0433C80.6623 43.0061 81.0839 42.9317 81.3567 42.8945L81.8527 42.8201L82.944 48.3136C83.7128 52.195 83.9981 53.8195 83.8989 53.8815C83.8244 53.9311 83.378 54.0303 82.9192 54.1171L82.0884 54.2659L82.2 55.1587C82.262 55.6548 82.3116 57.1057 82.324 58.4077C82.3364 60.491 82.2992 60.8507 82.076 61.5327C81.1335 64.3724 78.3806 65.9969 73.8171 66.4062C72.3166 66.5426 72.2422 66.5426 71.2378 66.2326C67.5672 65.1289 63.5493 64.7197 57.4854 64.8313C52.7111 64.9305 49.4994 65.3397 46.7092 66.2202C45.8536 66.493 45.5808 66.5302 44.6879 66.4682C39.6036 66.0961 36.4663 64.1616 35.7966 60.9747C35.623 60.1438 35.623 57.0933 35.7966 55.5432C35.871 54.8859 35.9082 54.3279 35.8834 54.3031C35.8586 54.2783 35.4494 54.1791 34.9906 54.0799C34.5317 53.9931 34.1349 53.8815 34.0977 53.8567C34.0729 53.8195 34.5317 51.3269 35.127 48.3136L36.2182 42.8201L36.7143 42.8945C36.9871 42.9317 37.4087 42.9937 37.6567 43.0433L38.1031 43.1177L38.3884 41.9644C38.8968 39.8191 39.244 38.8891 39.7152 38.3682C40.1741 37.8598 41.5009 37.153 42.4186 36.9049C43.2122 36.6941 46.5356 36.4089 50.045 36.2477L53.2692 36.0989V33.4452V30.7914L52.922 30.8658C52.7359 30.903 51.8059 30.965 50.851 31.0022C49.8962 31.0518 48.7429 31.1634 48.2717 31.2502C46.5108 31.6099 44.8863 32.8623 44.1175 34.462C43.8819 34.9456 43.6462 35.2805 43.5594 35.2433C43.4726 35.2185 43.113 35.0944 42.7534 34.9828C42.4062 34.8588 42.1086 34.6976 42.1086 34.6108C42.1086 34.2016 43.0758 32.5771 43.7455 31.8703C44.9111 30.6178 46.3868 29.7994 48.0609 29.4645C49.4126 29.2041 57.3862 28.8569 60.7096 28.9189ZM54.0752 38.3806C49.8466 38.579 47.4161 38.9511 45.8164 39.6331C45.0847 39.9555 44.7747 40.3647 43.7331 42.448C41.8978 46.1186 40.2113 51.2401 39.3804 55.7788C39.0828 57.3413 39.1076 58.5813 39.4424 59.2262C39.6656 59.6478 40.5833 60.4786 41.4513 61.0367C42.2202 61.5203 45.2831 63.0208 46.2008 63.3556C46.734 63.5416 46.7464 63.5416 46.4488 63.3308C43.3734 61.1607 42.5178 60.5034 41.6993 59.7098C40.5833 58.6185 40.6081 58.7177 40.9305 56.1756C41.2653 53.5591 42.2946 49.9133 43.6834 46.3791C44.4647 44.4074 45.68 41.9272 46.0644 41.518C46.5356 41.022 48.6189 40.5259 51.4091 40.2407C53.5544 40.0175 61.5776 39.9431 64.4298 40.1043C68.088 40.3151 69.8241 40.5755 71.1882 41.1212C71.9198 41.4064 72.1802 41.766 73.0483 43.7129C75.4416 49.0328 77.0661 54.7743 77.0909 57.9489C77.0909 58.8789 77.0661 59.003 76.7685 59.375C76.1732 60.0942 74.834 61.1855 73.0607 62.3759C72.1058 63.0208 71.3618 63.554 71.4114 63.554C71.461 63.554 72.0686 63.3184 72.763 63.0456C75.5904 61.9047 77.9713 60.5034 78.3557 59.747C78.6038 59.251 78.8518 57.0684 78.7526 56.25C78.455 53.8319 77.5497 50.4093 76.2848 47.0363C74.6479 42.6589 73.4451 40.3275 72.515 39.7323C70.6673 38.5666 62.7681 37.9838 54.0752 38.3806Z" fill="white"/>
<path d="M78.6288 67.9809C78.4056 69.6054 77.7112 71.5895 76.7439 73.3504C76.4959 73.7968 75.7271 75.0245 75.0202 76.0785C72.8253 79.4019 70.1096 82.6261 67.431 85.0938C64.5665 87.7352 63.2396 88.3428 59.9038 88.5412C57.4857 88.69 55.3156 88.3428 53.6911 87.5368C51.6574 86.5323 47.6519 82.5641 44.5518 78.4595C41.526 74.4789 39.6411 70.7462 39.3311 68.1049L39.2443 67.3981H40.1743H41.1168V67.8693C41.1168 69.221 42.4685 72.3211 44.1798 74.8633C46.8335 78.8315 51.0621 83.5934 53.4927 85.3542C54.9063 86.3835 56.3448 86.7431 58.9862 86.7431C60.7471 86.7431 62.1111 86.5447 63.0164 86.1727C65.4221 85.1682 70.3948 79.9476 73.8174 74.8137C75.5659 72.1971 76.6571 69.7914 76.8927 68.0429L76.9796 67.3981H77.8476H78.7032L78.6288 67.9809Z" fill="white"/>
<path d="M65.4714 74.6524C65.583 75.0864 65.6698 75.4708 65.6698 75.508C65.6698 75.6072 63.9337 75.9669 62.2596 76.2149C60.3251 76.5001 58.403 76.5125 56.4809 76.2645C55.2036 76.0909 52.5127 75.6072 52.4259 75.5204C52.4011 75.508 52.4879 75.1112 52.5995 74.6524L52.8103 73.8215L53.2567 73.8835C53.5047 73.9207 54.348 74.082 55.1292 74.2308C56.3321 74.4664 56.9645 74.516 59.0974 74.516C61.3668 74.516 61.8132 74.4788 63.2517 74.1812C64.1321 73.9951 64.9506 73.8463 65.0622 73.8463C65.211 73.8463 65.3226 74.0696 65.4714 74.6524Z" fill="#EBC700"/>
</svg>
