<?xml version="1.0" encoding="UTF-8"?>
<svg width="148px" height="119px" viewBox="0 0 148 119" version="1.1" xmlns="http://www.w3.org/2000/svg" xmlns:xlink="http://www.w3.org/1999/xlink">
    <g stroke="none" stroke-width="1" fill="none" fill-rule="evenodd">
        <g id="membership" transform="translate(73.770997, 59.330118) rotate(-360.000000) translate(-73.770997, -59.330118) translate(0.075173, 0.058834)" fill="#000000" fill-rule="nonzero">
            <path d="M81.9163878,78.1126028 L81.9163878,40.3046752 C81.9163878,35.8402759 78.3274672,32.208639 73.9163878,32.208639 C69.5053084,32.208639 65.9163878,35.8406429 65.9163878,40.3046752 L65.9163878,78.1126028 C65.9163878,82.5766351 69.5053084,86.208639 73.9163878,86.208639 C78.3274672,86.208639 81.9163878,82.5766351 81.9163878,78.1126028 Z M71.3563443,78.1126028 L71.3563443,40.3046752 C71.3563443,38.8758766 72.5045377,37.7138996 73.9163878,37.7138996 C75.3282378,37.7138996 76.4764313,38.8762436 76.4764313,40.3046752 L76.4764313,78.1126028 C76.4764313,79.5410344 75.3282378,80.7033784 73.9163878,80.7033784 C72.5045377,80.7033784 71.3563443,79.5410344 71.3563443,78.1126028 L71.3563443,78.1126028 Z"></path>
            <path d="M48.5659799,51.5944398 C48.0871789,53.0370779 48.867108,54.594951 50.3071742,55.0742401 C51.7457752,55.5527952 53.3023363,54.7725742 53.7804046,53.329936 L57.4148227,42.3708771 C58.8189881,38.1347101 56.5216959,33.5436637 52.2938136,32.1366236 C50.2437981,31.454389 48.053476,31.6125617 46.1232523,32.5817826 C44.194494,33.5506365 42.7573584,35.2145698 42.0770727,37.2667785 L36.4673716,54.1828211 L30.5466514,37.0950271 C29.8388905,35.0523601 28.3790421,33.4078774 26.436363,32.4647128 C24.4929512,31.5215482 22.3000647,31.3927346 20.2625046,32.1021265 C18.2234792,32.8111515 16.5819282,34.2732401 15.640445,36.2190217 C14.6993282,38.1648033 14.570378,40.3616062 15.2785052,42.4042732 L28.1698643,79.6093645 C28.1830524,79.6489995 28.1969731,79.6886344 28.1995375,79.6948732 C29.4615645,83.2568793 32.8446763,85.6500219 36.6175693,85.6500219 L36.6787474,85.6500219 C40.4787493,85.6239656 43.853069,83.1845823 45.0795615,79.5682616 C45.0839575,79.55505 45.0883535,79.5418383 45.0927496,79.5286267 L49.7367893,65.5242837 C50.2155903,64.0816456 49.4356612,62.5237725 47.9955949,62.0444834 C46.556994,61.5655613 45.0004329,62.3461493 44.5223646,63.7887875 L39.8783249,77.7931304 C39.8757605,77.8008372 39.8735625,77.807076 39.8724635,77.809278 C39.4020882,79.1965006 38.1034276,80.1348944 36.6596979,80.1451701 L36.6175693,80.1451701 C35.1657803,80.1451701 33.8638226,79.2243919 33.3721999,77.8364353 L20.4694844,40.5990488 C20.2430888,39.9454394 20.2841185,39.2422863 20.5852465,38.6195041 C20.8863746,37.9970888 21.4117003,37.5291764 22.0648771,37.3020096 C22.7165886,37.0748427 23.4177555,37.1159456 24.0401601,37.4179784 C24.661832,37.7200113 25.1292766,38.2459081 25.3556722,38.8998845 L33.9290304,63.6434594 C34.3129504,64.7514025 35.3551759,65.4934566 36.52452,65.4934566 L36.5428368,65.4934566 C37.7198739,65.4857498 38.7610005,64.7275482 39.1317324,63.6085953 L47.2914974,39.0022748 C47.5094672,38.3449955 47.9695851,37.8124928 48.5864947,37.5027531 C49.2034043,37.1930135 49.9038385,37.1420019 50.561045,37.360728 C51.9139233,37.8110248 52.6491594,39.2800863 52.2000317,40.6357478 L48.5659799,51.5944398 Z"></path>
            <path d="M107.468302,31.6065035 L96.8530565,31.6065035 C94.7375747,31.5786103 92.6254313,32.4374264 91.0637658,33.978524 C89.4969071,35.5251268 88.6166619,37.6174816 88.6459663,39.7230488 L88.6459663,52.3410379 C88.6459663,53.8612156 89.8912184,55.0936533 91.4280308,55.0936533 C92.9648432,55.0936533 94.2100952,53.8612156 94.2100952,52.3410379 L94.2100952,39.702129 C94.2100952,39.6863473 94.2100952,39.6701986 94.2097243,39.654417 C94.198596,39.0268206 94.4842213,38.3783045 94.9935246,37.8754934 C95.4876192,37.3877299 96.1197043,37.1106333 96.7339841,37.1106333 C96.7655142,37.1110003 96.7970442,37.1117343 96.8282034,37.1113673 L107.468302,37.1113673 C114.974311,37.1113673 121.081128,43.0599527 121.081128,50.3716333 C121.081128,57.6833139 114.974311,63.6315323 107.468302,63.6315323 C106.241597,63.6315323 104.187691,63.6396066 102.215393,63.649149 C100.684145,63.6564893 99.4466824,64.8867249 99.4466824,66.4017644 L99.4466824,77.5098522 C99.4466824,78.9382761 98.2722803,80.1006138 96.8282034,80.1006138 C95.3841264,80.1006138 94.2097243,78.9382761 94.2097243,77.5098522 L94.2097243,65.1865765 C94.2097243,63.6663988 92.9644723,62.4339611 91.4276599,62.4339611 C89.8908474,62.4339611 88.6452573,63.6663988 88.6452573,65.1865765 L88.6452573,77.5098522 C88.6452573,81.9738604 92.3164367,85.6058446 96.8282034,85.6058446 C101.33997,85.6058446 105.010811,81.9738604 105.010811,77.5098522 L105.010811,69.1426354 C105.968583,69.1393322 106.830652,69.1367631 107.468302,69.1367631 C118.042743,69.1367631 126.645257,60.7185312 126.645257,50.3716333 C126.645257,40.0247355 118.042743,31.6065035 107.468302,31.6065035 L107.468302,31.6065035 Z"></path>
            <path d="M102.539506,58.360982 L102.552911,58.360982 C104.447346,58.3519058 106.410254,58.3439186 107.613432,58.3439186 C112.047908,58.3439186 115.794397,54.6843693 115.794397,50.3524503 C115.794397,46.0205314 112.047908,42.360982 107.613432,42.360982 L102.51161,42.360982 C101.789921,42.360982 101.097577,42.6488811 100.587467,43.1611454 C100.078082,43.6734097 99.7925946,44.3675623 99.7943975,45.090759 C99.7998405,47.1677711 99.8045503,49.3025082 99.8045503,50.3524503 C99.8045503,51.5806503 99.8125207,53.6591146 99.822665,55.6518989 C99.8302731,57.1509346 101.045044,58.360982 102.539506,58.360982 L102.539506,58.360982 Z M107.613432,47.80674 C109.076374,47.80674 110.359981,48.9964566 110.359981,50.3524503 C110.359981,51.7084441 109.076374,52.8981607 107.613432,52.8981607 C106.989199,52.8981607 106.16172,52.900339 105.245117,52.9036064 C105.241494,51.9055805 105.238958,51.0073935 105.238958,50.3524503 C105.238958,49.7708434 105.237509,48.8581343 105.234973,47.80674 L107.613432,47.80674 Z"></path>
            <path d="M91.6157459,23.7354534 L94.484965,7.21758432 C94.6556112,6.23467166 94.2655629,5.23832924 93.4684754,4.62128658 C92.6710187,4.00388095 91.5939534,3.8645019 90.6616788,4.25795734 L81.6170637,8.07091803 L76.2184402,1.07692093 C75.6946822,0.398536967 74.8780185,-4.54747351e-13 74.0111213,-4.54747351e-13 C73.1442241,-4.54747351e-13 72.3275604,0.398536967 71.8038023,1.07692093 L66.4077644,8.06765133 L57.3919597,4.24743132 C56.4604238,3.85324994 55.3829892,3.99008823 54.5844243,4.60604199 C53.7862288,5.22199576 53.3943337,6.21724927 53.563133,7.20088787 L56.4053886,23.7314608 C56.6307006,25.0414061 57.7849629,26 59.1372044,26 L88.8846688,26 C90.2350634,26 91.388587,25.0432209 91.6157459,23.7354534 L91.6157459,23.7354534 Z M86.5473337,20.5555059 L61.4786024,20.5555059 L59.8748242,11.2287246 L66.206461,13.9117713 C67.3773447,14.4075832 68.7399283,14.05478 69.5104215,13.0573487 L74.0111213,7.22702144 L78.511821,13.0573487 C79.2808367,14.0533281 80.6404654,14.4064943 81.8113492,13.9139491 L88.1666253,11.2345321 L86.5473337,20.5555059 Z"></path>
            <path d="M93.391648,104.925706 C93.391648,106.582506 94.6332782,107.925706 96.1656206,107.925706 L144.617675,107.925706 C146.150018,107.925706 147.391648,106.582506 147.391648,104.925706 C147.391648,103.268906 146.150018,101.925706 144.617675,101.925706 L96.1656206,101.925706 C94.6332782,101.925706 93.391648,103.268906 93.391648,104.925706 Z"></path>
            <path d="M54,104.93448 C54,103.27768 52.7583699,101.93448 51.2260274,101.93448 L2.7739726,101.93448 C1.24163014,101.93448 2.27373675e-13,103.27768 2.27373675e-13,104.93448 C2.27373675e-13,106.59128 1.24163014,107.93448 2.7739726,107.93448 L51.2260274,107.93448 C52.7583699,107.93448 54,106.59128 54,104.93448 Z"></path>
            <path d="M87.0732918,101.652934 C86.7477268,100.647047 85.8813992,99.913843 84.8382624,99.7619411 L78.5177988,98.8401561 L75.6914372,93.091597 C75.2248679,92.1431366 74.2625687,91.5425685 73.2087275,91.5425685 C72.1548862,91.5425685 71.192587,92.1431366 70.7260178,93.091597 L67.8996561,98.8401561 L61.5791925,99.7619411 C60.5364249,99.913843 59.6697281,100.647047 59.3441632,101.652934 C59.0185982,102.658821 59.2902715,103.762888 60.0443862,104.501279 L64.618168,108.976086 L63.5384882,115.294462 C63.3605718,116.336657 63.7876451,117.390337 64.6399461,118.012023 C65.4922472,118.633339 66.6217583,118.715588 67.555266,118.223575 L73.2087275,115.24037 L78.8614507,118.223575 C79.2667459,118.437349 79.7089532,118.542568 80.1493148,118.542568 C80.7232984,118.542568 81.2946982,118.363621 81.7767706,118.012023 C82.6294407,117.390337 83.056514,116.336657 82.8782285,115.294462 L81.7985487,108.976086 L86.3723305,104.501279 C87.1271835,103.763258 87.3984876,102.658821 87.0732918,101.652934 L87.0732918,101.652934 Z M76.8921887,106.016222 C76.2395823,106.654581 75.9420705,107.574143 76.0959941,108.475551 L76.473236,110.684426 L74.4969607,109.64149 C74.0935112,109.428827 73.6513039,109.322496 73.2087275,109.322496 C72.7661511,109.322496 72.3239438,109.428827 71.9204942,109.64149 L69.9442189,110.684426 L70.3214608,108.475551 C70.4753844,107.574143 70.1775035,106.65421 69.5252662,106.016222 L67.9262329,104.452004 L70.1357928,104.129675 C71.0375561,103.998151 71.8171402,103.429815 72.2202207,102.609545 L73.2083583,100.599995 L74.196496,102.609545 C74.5999456,103.429445 75.3791606,103.998151 76.2809239,104.129675 L78.4904838,104.452004 L76.8921887,106.016222 Z"></path>
        </g>
    </g>
</svg>