<svg id="email" data-name="email" xmlns="http://www.w3.org/2000/svg" viewBox="0 0 40 40"><defs><style>.cls-1{fill:#4a4a4a;}.cls-2{fill:#898afd;}.cls-3{fill:none;stroke:#fff;stroke-linecap:round;stroke-linejoin:round;}</style></defs><circle id="Oval" class="cls-1" cx="20" cy="20" r="20"/><circle id="color" class="cls-2" cx="19.69" cy="28.39" r="5.2"/><path id="Shape" class="cls-3" d="M11.11,15.29,19,19.54a2.3,2.3,0,0,0,1.92,0l7.91-4.25c.52-.28,1-1.36.06-1.36H11.05c-1,0-.46,1.08.06,1.36Zm18,2.33-8.15,4.25a2.3,2.3,0,0,1-1.92,0l-8.11-4.25c-.41-.22-.41,0-.41.23v7.69a1.28,1.28,0,0,0,1.06,1.06H28.44a1.28,1.28,0,0,0,1.06-1.06V17.85c0-.2,0-.45-.41-.23Z"/></svg>