<?xml version="1.0" encoding="UTF-8"?>
<svg width="40px" height="40px" viewBox="0 0 40 40" version="1.1" xmlns="http://www.w3.org/2000/svg" xmlns:xlink="http://www.w3.org/1999/xlink">
    <title>icon-withdrawal</title>
    <g id="Symbols" stroke="none" stroke-width="1" fill="none" fill-rule="evenodd">
        <g id="icon-withdrawal" fill-rule="nonzero">
            <circle id="Oval" fill="#4A4A4A" cx="20" cy="20" r="20"></circle>
            <path d="M13.4688058,24.1624702 C9.8629231,24.1624702 6.9381517,21.2376987 6.9381517,17.6318161 C6.9381517,14.0259334 9.8629231,11.1011619 13.4688058,11.1011619 C17.0746885,11.1011619 19.99946,14.0259334 19.99946,17.6318161 C20.0395253,21.2376987 17.0746885,24.1624702 13.4688058,24.1624702 Z" id="Path" fill="#ED1F23"></path>
            <path d="M27.1049404,27.3597247 C27.8087553,27.3597247 28.3883675,26.7801124 28.3883675,26.0762975 L28.3883675,18.1687304 L12.1592245,18.1687304 L12.1592245,18.955347 C12.1592245,19.286554 11.9108192,19.5349593 11.5796122,19.5349593 C11.2484052,19.5349593 11,19.286554 11,18.955347 L11,14.4426517 C11,13.1178237 12.0764227,12 13.4426516,12 L27.1049404,12 C28.4297684,12 29.547592,13.0764228 29.547592,14.4426517 L29.547592,26.0762975 C29.5061911,27.4425264 28.4297684,28.5189492 27.1049404,28.5189492 L27.1049404,27.3597247 Z M13.4426516,28.5189492 C12.1178236,28.5189492 11,27.4425264 11,26.0762975 L11,18.6336459 C11,18.3024389 12.1592245,18.3024389 12.1592245,18.6336459 L12.1592245,26.0762975 C12.1592245,26.7801124 12.7388367,27.3597247 13.4426516,27.3597247 M28.3883675,17.0095059 L28.3883675,14.4426517 C28.3883675,13.7388368 27.8087553,13.1592245 27.1049404,13.1592245 L13.4426516,13.1592245 C12.7388367,13.1592245 12.1592245,13.7388368 12.1592245,14.4426517 L12.1592245,17.0095059 L28.3883675,17.0095059 Z M20.1493936,23.8497653 C20.47291,23.85568 20.7344259,24.0790909 20.7344259,24.3554741 L20.7344259,30.4448782 L22.1522712,29.2334957 C22.3794222,29.0394218 22.7510936,29.0394218 22.9781892,29.2334957 C23.0952122,29.3275871 23.1502347,29.4569302 23.1502347,29.5863207 C23.1502347,29.7156876 23.0952122,29.845078 22.9781892,29.9391457 L20.589507,31.9799945 C20.4823445,32.0844001 20.3250033,32.1502347 20.1493936,32.1502347 C19.973784,32.1502347 19.8164427,32.0844001 19.7092802,31.9799945 L17.3205979,29.9391457 C17.093447,29.7450719 17.093447,29.4275222 17.3205979,29.2334957 C17.547749,29.0394691 17.9194204,29.0394218 18.146516,29.2334957 L19.5643614,30.4448782 L19.5643614,24.3496066 C19.5643614,24.0731998 19.8258772,23.8497653 20.1493936,23.8497653 Z M16.273796,27.3684062 C16.7895729,27.3684062 17.0474613,27.5601633 17.0474613,27.9436777 C17.0474613,28.327192 16.7895729,28.5189492 16.273796,28.5189492 L16.273796,28.5189492 L13.273796,28.5189492 L13.273796,27.3684062 Z M27.4068165,27.3684062 L27.4068165,28.5189492 L24.4068165,28.5189492 C23.8910396,28.5189492 23.6331512,28.327192 23.6331512,27.9436777 C23.6331512,27.5601633 23.8910396,27.3684062 24.4068165,27.3684062 L24.4068165,27.3684062 L27.4068165,27.3684062 Z M19.7801124,20.0476547 C20.1113194,20.0476547 20.3597246,20.2960599 20.3597246,20.6272669 C20.3597246,20.9584739 20.1113194,21.2068792 19.7801124,21.2068792 L13.5699811,21.2068792 C13.2387741,21.2068792 12.9903689,20.9584739 12.9903689,20.6272669 C12.9903689,20.2960599 13.2387741,20.0476547 13.5699811,20.0476547 L19.7801124,20.0476547 Z" id="Shape" fill="#FFFFFF"></path>
        </g>
    </g>
</svg>