<?xml version="1.0" encoding="UTF-8"?>
<svg width="40px" height="39px" viewBox="0 0 40 39" version="1.1" xmlns="http://www.w3.org/2000/svg" xmlns:xlink="http://www.w3.org/1999/xlink">
    <!-- Generator: Sketch 54.1 (76490) - https://sketchapp.com -->
    <title>icon7</title>
    <desc>Created with Sketch.</desc>
    <g id="Page-1" stroke="none" stroke-width="1" fill="none" fill-rule="evenodd">
        <g id="21.黑版-會員選單" transform="translate(-52.000000, -396.000000)">
            <g id="box" transform="translate(10.000000, 350.000000)">
                <g id="icon7" transform="translate(42.453457, 45.592402)">
                    <circle id="Oval" fill="#4A4A4A" cx="19.6906535" cy="19.7615444" r="19.3548387"></circle>
                    <path d="M27.2439541,33.0714758 C24.0387251,33.0714758 21.4344765,30.4672272 21.4344765,27.2619982 C21.4344765,24.0567692 24.0387251,21.4525206 27.2439541,21.4525206 C30.4491832,21.4525206 33.0534317,24.0567692 33.0534317,27.2619982 C33.0534317,30.4672272 30.4491832,33.0714758 27.2439541,33.0714758 Z" id="Path" fill="#FF8734" fill-rule="nonzero"></path>
                    <path d="M19.6305555,19.7915934 C18.9093789,19.7915934 18.1882024,19.6713973 17.5070912,19.3909398 C16.0647382,18.8300247 14.9829734,17.7482599 14.3419276,16.3459722 C13.7008818,14.9436845 13.7008818,13.3811353 14.2617968,11.9387823 C14.8227119,10.4964292 15.9044767,9.41466439 17.3067644,8.77361858 C18.7090521,8.2127035 24.7188566,8.05244205 25.4800985,8.93388003 C25.8807521,9.37459902 25.8006214,10.256037 25.2797716,12.5397627 C25.2397063,12.6599588 25.2397063,12.7801549 25.1996409,12.8202202 C25.1595756,13.1006778 25.1195102,13.34107 25.0794448,13.5814621 C24.7188566,16.0655146 24.3582683,18.2290442 21.9142812,19.310809 C21.1931046,19.6313319 20.4318627,19.7915934 19.6305555,19.7915934 Z M21.3533661,9.53486048 C19.911013,9.53486048 18.4285946,9.65505656 17.8276141,9.89544874 C16.705784,10.3762331 15.8644114,11.2576711 15.4236924,12.3795012 C14.9829734,13.5013314 15.0230387,14.7032923 15.5038231,15.8251225 C15.9846074,16.9469526 16.8660454,17.7883252 17.9878756,18.2290442 C19.1097058,18.6697632 20.351732,18.6697632 21.4334968,18.1889789 C23.2765035,17.3876716 23.5168957,15.7850571 23.8774839,13.3811353 C23.9175493,13.1407431 23.9576147,12.8602856 23.99768,12.5798281 C23.99768,12.5397627 24.0377454,12.4195666 24.0778108,12.2192398 C24.4784644,10.6566906 24.5185297,10.0156448 24.5185297,9.73518729 C24.0377454,9.6149912 22.7155884,9.53486048 21.3533661,9.53486048 Z M19.7106862,31.2102218 C17.3067644,31.2102218 15.0631041,30.9297643 13.3803589,30.4089146 C10.7761103,29.6076073 10.2151952,28.4857771 10.2151952,27.6444045 C10.2151952,24.1186526 12.9396399,21.073685 16.9862415,20.0720509 C17.146503,20.0319856 17.2666991,20.0720509 17.3868951,20.1521817 C18.4686599,20.9935543 19.911013,21.1538157 21.1931046,20.632966 C21.4735622,20.5127699 21.7540197,20.3525085 21.9944119,20.1521817 C22.114608,20.0720509 22.2748694,20.0319856 22.3950655,20.0720509 C26.3615364,21.073685 29.1661118,24.1587179 29.1661118,27.6444045 C29.1661118,30.2887185 24.0778108,31.2102218 19.7106862,31.2102218 Z M16.9862415,21.1137504 C13.5806857,22.0352537 11.1767639,24.719633 11.1767639,27.6444045 C11.1767639,29.0867576 14.9028426,30.2085878 19.6706208,30.2085878 C24.438399,30.2085878 28.1644778,29.0867576 28.1644778,27.6444045 C28.1644778,24.6795677 25.8006214,22.0352537 22.3550001,21.1137504 C22.0745426,21.3140772 21.8341504,21.4342733 21.5536929,21.5544694 C20.0712745,22.2355805 18.3484639,22.0352537 16.9862415,21.1137504 Z M19.3100326,16.987018 C18.9895097,16.987018 18.7090521,16.7065604 18.7090521,16.3860375 C18.7090521,16.0655146 18.9494443,15.7850571 19.3100326,15.7850571 C19.3901633,15.7850571 20.1514052,15.7449917 20.5921242,15.1440113 C20.9927778,14.6231616 20.9527124,14.0221811 20.9126471,13.8619197 C20.8725817,13.5413968 21.0729085,13.2208739 21.4334968,13.1808085 C21.7540197,13.1407431 22.0745426,13.34107 22.114608,13.6615929 C22.1546733,13.9420504 22.2748694,14.9837498 21.5536929,15.9052532 C20.7523856,16.9068873 19.5504247,16.987018 19.3100326,16.987018 Z M21.5136275,25.7212671 L17.3468298,25.7212671 C17.0663722,25.7212671 16.8660454,25.5209403 16.8660454,25.2404827 C16.8660454,23.7981297 18.027941,22.6362342 19.4302287,22.6362342 C20.8325164,22.6362342 21.9944119,23.7981297 21.9944119,25.2404827 C21.9944119,25.4808749 21.7940851,25.7212671 21.5136275,25.7212671 Z M17.9077449,24.7596984 L20.9927778,24.7596984 C20.792451,24.0785872 20.1914705,23.5978029 19.470294,23.5978029 C18.7491175,23.5978029 18.1080717,24.0785872 17.9077449,24.7596984 Z" id="Combined-Shape" fill="#FFFFFF" fill-rule="nonzero"></path>
                </g>
            </g>
        </g>
    </g>
</svg>