<?xml version="1.0" encoding="UTF-8"?>
<svg width="41px" height="41px" viewBox="0 0 41 41" version="1.1" xmlns="http://www.w3.org/2000/svg" xmlns:xlink="http://www.w3.org/1999/xlink">
    <!-- Generator: Sketch 54.1 (76490) - https://sketchapp.com -->
    <title>icon8</title>
    <desc>Created with Sketch.</desc>
    <g id="Page-1" stroke="none" stroke-width="1" fill="none" fill-rule="evenodd">
        <g id="21.黑版-會員選單" transform="translate(-170.000000, -395.000000)">
            <g id="box" transform="translate(10.000000, 350.000000)">
                <g id="icon8" transform="translate(160.449686, 45.592402)">
                    <circle id="Oval" fill="#4A4A4A" cx="20" cy="20" r="20"></circle>
                    <path d="M10.5941376,32.8556074 C7.28206755,32.8556074 4.59101068,30.1645505 4.59101068,26.8524805 C4.59101068,23.5404105 7.28206755,20.8493536 10.5941376,20.8493536 C13.9062076,20.8493536 16.5972644,23.5404105 16.5972644,26.8524805 C16.5972644,30.1645505 13.9062076,32.8556074 10.5941376,32.8556074 Z" id="Path" fill="#FF8734" fill-rule="nonzero"></path>
                    <path d="M27.7173372,12.9164342 L11.7387375,12.9164342 C10.4872967,12.9164342 9.46919499,13.8696372 9.46919499,15.0408839 L9.46919499,25.5694677 C9.46919499,26.7406932 10.4872741,27.6939174 11.7387375,27.6939174 L27.7173146,27.6939174 C28.9687101,27.6939174 29.9868571,26.7406932 29.9868571,25.5694677 L29.9868571,15.0408839 C29.9868571,13.8696372 28.9687554,12.9164342 27.7173372,12.9164342 Z M11.4842421,13.9557982 L27.9067148,13.9557982 C28.4255025,13.9557982 28.8143401,14.6637551 28.8143401,15.1428571 C28.8143401,15.1428571 26.0798097,16.8909566 20.6107489,20.3871556 C20.1231099,20.7139574 19.2678006,20.7143006 18.7801848,20.3867909 L10.5286258,15.1428571 C10.5286258,14.6637337 10.9654079,13.9557982 11.4842421,13.9557982 Z M11.4829234,26.577846 C10.9648158,26.577846 10.5425767,26.1638006 10.5425767,25.6544361 L10.568211,16.2535966 L17.9512371,21.3292504 C18.4365916,21.6758655 19.0600385,21.8495834 19.6826729,21.8495834 C20.3053074,21.8495834 20.9287543,21.6762531 21.4140623,21.3296609 L28.8483803,16.2540298 L28.822746,25.6544133 C28.822746,26.163755 28.4004604,26.5778232 27.8823992,26.5778232 L11.4829234,26.577846 Z" id="Shape" fill="#FFFFFF" fill-rule="nonzero"></path>
                </g>
            </g>
        </g>
    </g>
</svg>