<?xml version="1.0" encoding="utf-8"?>
<!-- Generator: Adobe Illustrator 25.4.1, SVG Export Plug-In . SVG Version: 6.00 Build 0)  -->
<svg version="1.1" id="圖層_1" xmlns="http://www.w3.org/2000/svg" xmlns:xlink="http://www.w3.org/1999/xlink" x="0px" y="0px"
	 viewBox="0 0 41 41" style="enable-background:new 0 0 41 41;" xml:space="preserve">
<style type="text/css">
	.st0{fill-rule:evenodd;clip-rule:evenodd;fill:#4A4A4A;}
	.st1{fill:#FF9F5D;}
	.st2{fill:#FFFFFF;}
</style>
<desc>Created with Sketch.</desc>
<g id="Page-1">
	<g id="_x31_2.白版-會員選單" transform="translate(-288.000000, -395.000000)">
		<g id="box" transform="translate(10.000000, 350.000000)">
			<g id="icon9" transform="translate(278.468303, 45.592402)">
				<circle id="Oval" class="st0" cx="20" cy="20" r="20"/>
				<path id="Path" class="st1" d="M29,26c-3.3,0-6-2.7-6-6s2.7-6,6-6s6,2.7,6,6S32.3,26,29,26z"/>
			</g>
		</g>
	</g>
</g>
<g>
	<g>
		<g>
			<path class="st2" d="M19.2,24.7l-0.4,3.2c0,0.2,0,0.3,0.1,0.4s0.3,0.2,0.4,0.2h2.2c0.2,0,0.3-0.1,0.4-0.2s0.2-0.3,0.1-0.4
				l-0.4-3.2c0.6-0.4,0.9-1.1,0.9-1.8c0-1.2-1-2.2-2.2-2.2s-2.2,1-2.2,2.2C18.2,23.7,18.6,24.3,19.2,24.7z M20.5,21.8
				c0.6,0,1.1,0.5,1.1,1.1c0,0.4-0.2,0.8-0.6,1c-0.2,0.1-0.3,0.3-0.3,0.6l0.3,2.9h-1l0.3-2.9c0-0.2-0.1-0.5-0.3-0.6
				c-0.4-0.2-0.6-0.6-0.6-1C19.4,22.3,19.9,21.8,20.5,21.8z"/>
			<path class="st2" d="M29.9,16.3h-1.7v-2.2c0-4.3-3.5-7.8-7.8-7.8s-7.8,3.5-7.8,7.8v2.2H11c-0.3,0-0.6,0.2-0.6,0.6v13.9
				c0,1.2,1,2.2,2.2,2.2h15.6c1.2,0,2.2-1,2.2-2.2v-14C30.5,16.5,30.2,16.3,29.9,16.3z M13.8,14.1c0-3.7,3-6.7,6.7-6.7
				s6.7,3,6.7,6.7v2.2H26v-2.2c0-3.1-2.5-5.6-5.6-5.6s-5.6,2.5-5.6,5.6v2.2h-1.1v-2.2C13.7,14.1,13.8,14.1,13.8,14.1z M24.9,14.1
				v2.2H16v-2.2c0-2.5,2-4.4,4.4-4.4S24.9,11.6,24.9,14.1z M29.4,30.7c0,0.6-0.5,1.1-1.1,1.1H12.7c-0.6,0-1.1-0.5-1.1-1.1V17.4h17.8
				C29.4,17.4,29.4,30.7,29.4,30.7z"/>
		</g>
	</g>
</g>
</svg>
