<?xml version="1.0" encoding="UTF-8"?>
<svg width="40px" height="39px" viewBox="0 0 40 39" version="1.1" xmlns="http://www.w3.org/2000/svg" xmlns:xlink="http://www.w3.org/1999/xlink">
    <!-- Generator: Sketch 54.1 (76490) - https://sketchapp.com -->
    <title>icon5</title>
    <desc>Created with Sketch.</desc>
    <g id="Page-1" stroke="none" stroke-width="1" fill="none" fill-rule="evenodd">
        <g id="21.黑版-會員選單" transform="translate(-170.000000, -276.000000)">
            <g id="box" transform="translate(11.000000, 230.000000)">
                <g id="icon5" transform="translate(159.449686, 45.500000)">
                    <circle id="Oval" fill="#4A4A4A" cx="19.8266987" cy="20" r="19.3548387"></circle>
                    <path d="M27.7592445,33.0979541 C24.1533618,33.0979541 21.2285903,30.1731826 21.2285903,26.5672999 C21.2285903,22.9614173 24.1533618,20.0366458 27.7592445,20.0366458 C31.3651272,20.0366458 34.2898986,22.9614173 34.2898986,26.5672999 C34.329964,30.1731826 31.3651272,33.0979541 27.7592445,33.0979541 Z" id="Path" fill="#238FFF" fill-rule="nonzero"></path>
                    <path d="M13.7968616,12.4677118 C13.6366001,12.2273196 13.6766655,11.8667313 13.9170577,11.6664045 C14.2776459,11.4260123 15.0388878,11.0654241 15.4395415,10.8650972 C15.719999,10.7449012 16.0405219,10.8250319 16.2007833,11.1054894 C16.3610448,11.385947 16.2408487,11.7064699 15.9603912,11.8667313 C15.3193454,12.1872542 14.7984956,12.4677118 14.5981688,12.6279732 C14.4779727,12.6680386 14.3577767,12.7081039 14.2375806,12.7081039 C14.0773191,12.7081039 13.8769923,12.6279732 13.7968616,12.4677118 Z M19.806666,30.1766022 C14.1975152,30.1766022 9.63006383,25.6091508 9.63006383,20 C9.63006383,17.4758821 10.5515672,15.0719604 12.2343124,13.1888883 C12.4346392,12.9484961 12.7952275,12.9484961 13.0356197,13.1488229 C13.2760119,13.3491498 13.2760119,13.709738 13.075685,13.9501302 C11.5532012,15.6328754 10.751894,17.7563397 10.751894,20 C10.751894,25.0081704 14.7984956,29.054772 19.806666,29.054772 C24.8148364,29.054772 28.861438,25.0081704 28.861438,20 C28.861438,14.9918296 24.8148364,10.945228 19.806666,10.945228 C19.0053588,10.945228 18.2441169,11.0654241 17.482875,11.2657509 C17.2024174,11.3458816 16.8818945,11.1856202 16.8017638,10.8650972 C16.7216331,10.5846397 16.8818945,10.2641168 17.2024174,10.1839861 C18.04379,9.9435939 18.925228,9.82339781 19.8467314,9.82339781 C25.4558822,9.82339781 30.0233336,14.3908492 30.0233336,20 C29.9832682,25.6091508 25.4158168,30.1766022 19.806666,30.1766022 Z M19.806666,25.5028116 C19.4861431,25.5028116 19.2457509,25.1693078 19.2457509,24.7246362 L19.2457509,15.2753638 C19.2457509,14.8306922 19.4861431,14.4971884 19.806666,14.4971884 C20.1271889,14.4971884 20.3675811,14.8306922 20.3675811,15.2753638 L20.3675811,24.7246362 C20.3675811,25.1693078 20.1271889,25.5028116 19.806666,25.5028116 Z M16.2725646,25.5028116 C15.9520417,25.5028116 15.7116495,25.3273498 15.7116495,25.0934009 L15.7116495,20.1219857 C15.7116495,19.8880367 15.9520417,19.712575 16.2725646,19.712575 C16.5930875,19.712575 16.8334797,19.8880367 16.8334797,20.1219857 L16.8334797,25.0934009 C16.8334797,25.3273498 16.5930875,25.5028116 16.2725646,25.5028116 Z M23.3407675,25.5028116 C23.0202445,25.5028116 22.7798524,25.2317317 22.7798524,24.8702918 L22.7798524,17.1896953 C22.7798524,16.8282555 23.0202445,16.5571756 23.3407675,16.5571756 C23.6612904,16.5571756 23.9016825,16.8282555 23.9016825,17.1896953 L23.9016825,24.8702918 C23.9016825,25.2317317 23.6612904,25.5028116 23.3407675,25.5028116 Z" id="Combined-Shape" fill="#FFFFFF" fill-rule="nonzero"></path>
                </g>
            </g>
        </g>
    </g>
</svg>