<svg id="whatapp" data-name="whatapp" xmlns="http://www.w3.org/2000/svg" viewBox="0 0 40 40"><defs><style>.cls-1{fill:#4a4a4a;}.cls-2{fill:#898afd;}.cls-3{fill:none;stroke:#fff;stroke-miterlimit:10;}.cls-4{fill:#fff;}</style></defs><circle id="Oval" class="cls-1" cx="20" cy="20" r="20"/><circle id="color" class="cls-2" cx="12" cy="13.18" r="5.2"/><path class="cls-3" d="M10,30l1.36-5A10,10,0,1,1,20,30a9.89,9.89,0,0,1-5-1.36Z"/><path class="cls-4" d="M16.39,15.31a1,1,0,0,0-.37.1,1.09,1.09,0,0,0-.29.23,2.12,2.12,0,0,0-.26.3,2.75,2.75,0,0,0-.57,1.68A3.43,3.43,0,0,0,15.23,19a9.5,9.5,0,0,0,2,2.74c.22.22.42.43.65.63a9.54,9.54,0,0,0,3.84,2.05l.57.08a5,5,0,0,0,.55,0,1.89,1.89,0,0,0,.84-.23c.13-.07.26-.14.38-.22l.13-.09a3,3,0,0,0,.33-.29,1.34,1.34,0,0,0,.21-.3,3,3,0,0,0,.18-.73,2,2,0,0,0,0-.38.38.38,0,0,0-.19-.26l-.58-.26-1.41-.62a.33.33,0,0,0-.17,0,.5.5,0,0,0-.21,0,.59.59,0,0,0-.17.1h0a12.21,12.21,0,0,0-.8.93.3.3,0,0,1-.36.13,1.06,1.06,0,0,1-.19-.06l-.26-.11h0a6.16,6.16,0,0,1-1.57-1c-.13-.11-.24-.23-.36-.35a5.93,5.93,0,0,1-1-1.27l-.06-.09a.84.84,0,0,1-.11-.21.34.34,0,0,1,.07-.26s.24-.27.35-.41a3.19,3.19,0,0,0,.26-.38.6.6,0,0,0,.1-.53q-.42-1-.87-2a.49.49,0,0,0-.39-.25l-.17,0Z"/></svg>