<svg width="40" height="40" viewBox="0 0 40 40" fill="none" xmlns="http://www.w3.org/2000/svg">
<path d="M14.5424 15.5385V15.8212C14.5424 16.0636 14.3405 16.2251 14.1385 16.2251C13.8962 16.2251 13.7346 16.0636 13.7346 15.8212V15.5385H13.4115C13.1691 15.5385 13.0076 15.3769 13.0076 15.1346C13.0076 14.8922 13.1691 14.7307 13.4115 14.7307H13.7346V14.4075C13.7346 14.1652 13.8962 14.0036 14.1385 14.0036C14.3809 14.0036 14.5424 14.1652 14.5424 14.4075V14.7307H14.8252C15.0675 14.7307 15.2291 14.8922 15.2291 15.1346C15.2291 15.3769 15.0675 15.5385 14.8252 15.5385H14.5424ZM27.8715 18.2043H12.0382V18.9717C12.0382 19.2949 11.7958 19.5372 11.4727 19.5372C11.1496 19.5372 10.9072 19.2949 10.9072 18.9717V14.5691C10.9072 13.2766 11.9574 12.186 13.2903 12.186H26.6194C27.9119 12.186 29.0024 13.2362 29.0024 14.5691V25.919C28.962 27.2519 27.9119 28.3021 26.6194 28.3021H13.2903C11.9978 28.3021 10.9072 27.2519 10.9072 25.919V23.5359C10.9072 23.2128 11.1496 22.9705 11.4727 22.9705C11.7958 22.9705 12.0382 23.2128 12.0382 23.5359V25.919C12.0382 26.6057 12.6037 27.1711 13.2903 27.1711H26.6194C27.306 27.1711 27.8715 26.6057 27.8715 25.919V18.2043ZM27.8715 17.0734V14.5691C27.8715 13.8825 27.306 13.317 26.6194 13.317H13.2903C12.6037 13.317 12.0382 13.8825 12.0382 14.5691V17.0734H27.8715ZM11.4727 22.4858C11.1496 22.4858 10.9072 22.2434 10.9072 21.9203V20.547C10.9072 20.2239 11.1496 19.9815 11.4727 19.9815C11.7958 19.9815 12.0382 20.2239 12.0382 20.547V21.9203C12.0382 22.2434 11.7554 22.4858 11.4727 22.4858ZM25.3268 25.0708H19.2682C18.9451 25.0708 18.7027 24.8284 18.7027 24.5053C18.7027 24.1822 18.9451 23.9398 19.2682 23.9398H25.3268C25.65 23.9398 25.8923 24.1822 25.8923 24.5053C25.8923 24.8284 25.65 25.0708 25.3268 25.0708Z" fill="white"/>
</svg>
