<svg width="40" height="40" viewBox="0 0 40 40" fill="none" xmlns="http://www.w3.org/2000/svg">
<path d="M11.1102 15.2902L19.0002 19.5402C19.3013 19.6785 19.6288 19.7501 19.9602 19.7501C20.2915 19.7501 20.619 19.6785 20.9202 19.5402L28.8302 15.2902C29.3502 15.0102 29.8302 13.9302 28.8902 13.9302H11.0502C10.0502 13.9302 10.5902 15.0102 11.1102 15.2902ZM29.1102 17.6202L20.9602 21.8702C20.659 22.0085 20.3315 22.0801 20.0002 22.0801C19.6688 22.0801 19.3413 22.0085 19.0402 21.8702L10.9302 17.6202C10.5202 17.4002 10.5202 17.6202 10.5202 17.8502V25.5402C10.563 25.8059 10.6885 26.0513 10.8787 26.2416C11.069 26.4319 11.3145 26.5574 11.5802 26.6002H28.4402C28.7058 26.5574 28.9513 26.4319 29.1416 26.2416C29.3319 26.0513 29.4573 25.8059 29.5002 25.5402V17.8502C29.5002 17.6502 29.5002 17.4002 29.0902 17.6202H29.1102Z" stroke="white" stroke-linecap="round" stroke-linejoin="round"/>
</svg>
