<svg width="40" height="40" viewBox="0 0 40 40" fill="none" xmlns="http://www.w3.org/2000/svg">
<path d="M28.6961 16.1437H24.8532C25.0504 16.0216 25.2373 15.884 25.4121 15.7323C25.6756 15.5008 25.8878 15.2182 26.0356 14.9022C26.1833 14.5862 26.2634 14.2436 26.2708 13.8957C26.2822 13.513 26.2143 13.132 26.0712 12.7761C25.928 12.4202 25.7127 12.0968 25.4384 11.8258C25.1641 11.5549 24.8365 11.3419 24.4758 11.2001C24.1151 11.0583 23.7289 10.9906 23.3407 11.0012C22.9878 11.0085 22.6403 11.0874 22.3198 11.2331C21.9993 11.3788 21.7127 11.588 21.4779 11.8478C21.0465 12.3498 20.7148 12.9274 20.5 13.5504C20.2857 12.9279 19.9546 12.3506 19.5239 11.8488C19.289 11.5886 19.0022 11.379 18.6813 11.2331C18.3605 11.0873 18.0125 11.0083 17.6593 11.0012C17.2709 10.9901 16.8843 11.0574 16.5233 11.1989C16.1622 11.3405 15.8342 11.5532 15.5595 11.8242C15.2848 12.0951 15.0691 12.4185 14.9257 12.7746C14.7823 13.1306 14.7142 13.5118 14.7255 13.8948C14.7329 14.2427 14.813 14.5853 14.9607 14.9013C15.1085 15.2173 15.3207 15.4999 15.5842 15.7314C15.7588 15.8833 15.9457 16.0209 16.143 16.1428H12.3039C12.1326 16.1428 11.963 16.1761 11.8047 16.2407C11.6465 16.3054 11.5027 16.4002 11.3816 16.5197C11.2605 16.6391 11.1645 16.781 11.099 16.9371C11.0335 17.0931 10.9999 17.2604 11 17.4293V20.3679C11 20.7089 11.1374 21.0359 11.3819 21.277C11.6264 21.5181 11.9581 21.6535 12.3039 21.6535H12.4902V27.7144C12.4902 28.0553 12.6276 28.3823 12.8721 28.6234C13.1166 28.8646 13.4483 29 13.7941 29H27.2059C27.5517 29 27.8834 28.8646 28.1279 28.6234C28.3724 28.3823 28.5098 28.0553 28.5098 27.7144V21.6535H28.6961C29.0419 21.6535 29.3736 21.5181 29.6181 21.277C29.8626 21.0359 30 20.7089 30 20.3679V17.4293C30 17.0884 29.8626 16.7613 29.6181 16.5202C29.3736 16.2791 29.0419 16.1437 28.6961 16.1437ZM21.2237 15.1336C21.4332 14.0206 21.8095 13.1362 22.3125 12.5761C22.447 12.4296 22.6108 12.312 22.7934 12.2307C22.9761 12.1493 23.1738 12.1059 23.3742 12.1031H23.4254C23.6572 12.1032 23.8865 12.149 24.0999 12.238C24.3133 12.327 24.5065 12.4573 24.6679 12.6211C24.8294 12.785 24.9558 12.9792 25.0398 13.1921C25.1238 13.405 25.1636 13.6324 25.1569 13.8608C25.1537 14.0586 25.1092 14.2536 25.0262 14.4338C24.9432 14.6139 24.8235 14.7752 24.6744 14.9077C23.676 15.7764 21.9827 16.0363 21.0905 16.1116C21.1138 15.8462 21.152 15.5082 21.2237 15.1336ZM16.3507 12.6036C16.6758 12.2843 17.1157 12.1044 17.5746 12.1031H17.6258C17.8264 12.1063 18.0242 12.1501 18.2069 12.2319C18.3896 12.3138 18.5532 12.4319 18.6875 12.5788C19.5686 13.5632 19.8322 15.2327 19.9086 16.1125C19.6394 16.0895 19.2967 16.05 18.9204 15.9812C17.7916 15.7764 16.8947 15.4035 16.3265 14.9067C16.1772 14.7746 16.0573 14.6135 15.9741 14.4335C15.8909 14.2535 15.8463 14.0585 15.8431 13.8608C15.8367 13.6282 15.8784 13.3968 15.9657 13.1807C16.0529 12.9645 16.184 12.7682 16.3507 12.6036ZM12.1176 20.3679V17.4293C12.1176 17.3806 12.1373 17.3339 12.1722 17.2995C12.2071 17.265 12.2545 17.2457 12.3039 17.2457H19.9412V20.5516H12.3039C12.2545 20.5516 12.2071 20.5322 12.1722 20.4978C12.1373 20.4633 12.1176 20.4166 12.1176 20.3679ZM13.6078 27.7144V21.6535H19.9412V27.898H13.7941C13.7447 27.898 13.6973 27.8787 13.6624 27.8442C13.6275 27.8098 13.6078 27.7631 13.6078 27.7144ZM27.3922 27.7144C27.3922 27.7631 27.3725 27.8098 27.3376 27.8442C27.3027 27.8787 27.2553 27.898 27.2059 27.898H21.0588V21.6535H27.3922V27.7144ZM28.8824 20.3679C28.8824 20.4166 28.8627 20.4633 28.8278 20.4978C28.7929 20.5322 28.7455 20.5516 28.6961 20.5516H21.0588V17.2457H28.6961C28.7455 17.2457 28.7929 17.265 28.8278 17.2995C28.8627 17.3339 28.8824 17.3806 28.8824 17.4293V20.3679Z" fill="white"/>
</svg>
