<svg width="40" height="40" viewBox="0 0 40 40" fill="none" xmlns="http://www.w3.org/2000/svg">
<path d="M20.0838 19.881C19.3626 19.881 18.6415 19.7577 17.9604 19.47C16.518 18.8947 15.4362 17.7852 14.7952 16.347C14.1541 14.9087 14.1541 13.3061 14.7151 11.8268C15.276 10.3475 16.3577 9.23796 17.76 8.58048C19.1623 8.00518 25.1721 7.84081 25.9334 8.74485C26.334 9.19687 26.2539 10.1009 25.733 12.4432C25.693 12.5665 25.693 12.6897 25.6529 12.7308C25.6128 13.0185 25.5728 13.265 25.5327 13.5116C25.1721 16.0593 24.8115 18.2783 22.3675 19.3879C21.6464 19.7166 20.8851 19.881 20.0838 19.881ZM21.8066 9.36124C20.3643 9.36124 18.8819 9.48451 18.2809 9.73107C17.159 10.2242 16.3177 11.1282 15.877 12.2788C15.4362 13.4294 15.4763 14.6622 15.9571 15.8128C16.4379 16.9634 17.3193 17.8263 18.4411 18.2783C19.563 18.7304 20.805 18.7304 21.8868 18.2373C23.7298 17.4154 23.9702 15.7717 24.3307 13.3061C24.3708 13.0596 24.4109 12.7719 24.4509 12.4843C24.4509 12.4432 24.491 12.3199 24.5311 12.1144C24.9317 10.5118 24.9718 9.85435 24.9718 9.5667C24.491 9.44342 23.1689 9.36124 21.8066 9.36124ZM20.1639 31.5924C17.76 31.5924 15.5164 31.3047 13.8336 30.7705C11.2294 29.9487 10.6685 28.7981 10.6685 27.9351C10.6685 24.319 13.3929 21.1959 17.4395 20.1686C17.5998 20.1275 17.72 20.1686 17.8402 20.2508C18.9219 21.1137 20.3643 21.2781 21.6464 20.7439C21.9268 20.6206 22.2073 20.4563 22.4477 20.2508C22.5679 20.1686 22.7281 20.1275 22.8483 20.1686C26.8148 21.1959 29.6194 24.3601 29.6194 27.9351C29.6194 30.6472 24.5311 31.5924 20.1639 31.5924ZM17.4395 21.237C14.0339 22.1822 11.63 24.9354 11.63 27.9351C11.63 29.4145 15.3561 30.5651 20.1239 30.5651C24.8917 30.5651 28.6177 29.4145 28.6177 27.9351C28.6177 24.8943 26.2539 22.1822 22.8083 21.237C22.5278 21.4425 22.2874 21.5658 22.007 21.689C20.5245 22.3876 18.8017 22.1822 17.4395 21.237ZM19.7633 17.0045C19.4428 17.0045 19.1623 16.7168 19.1623 16.3881C19.1623 16.0593 19.4027 15.7717 19.7633 15.7717C19.8434 15.7717 20.6047 15.7306 21.0454 15.1142C21.446 14.58 21.406 13.9636 21.3659 13.7992C21.3258 13.4705 21.5262 13.1418 21.8868 13.1007C22.2073 13.0596 22.5278 13.265 22.5679 13.5938C22.6079 13.8814 22.7281 14.9498 22.007 15.895C21.2056 16.9223 20.0037 17.0045 19.7633 17.0045ZM21.9669 25.9627H17.8001C17.5196 25.9627 17.3193 25.7572 17.3193 25.4696C17.3193 23.9902 18.4812 22.7985 19.8835 22.7985C21.2858 22.7985 22.4477 23.9902 22.4477 25.4696C22.4477 25.7161 22.2473 25.9627 21.9669 25.9627ZM18.361 24.9765H21.446C21.2457 24.2779 20.6447 23.7848 19.9236 23.7848C19.2024 23.7848 18.5613 24.2779 18.361 24.9765Z" fill="white"/>
</svg>
