<svg width="40" height="40" viewBox="0 0 40 40" fill="none" xmlns="http://www.w3.org/2000/svg">
<path fill-rule="evenodd" clip-rule="evenodd" d="M25.5741 27.5796C25.5741 27.3219 25.4882 26.9784 25.4024 26.7208C24.8012 24.2304 22.5685 22.1694 19.6487 21.3965C19.5628 21.3965 19.391 21.3965 19.3052 21.4824C19.1334 21.6541 18.8758 21.8259 18.6181 21.9117C17.8453 22.2552 17.0724 22.2552 16.2995 21.9976C16.0419 21.9117 15.7842 21.8259 15.5266 21.6541C15.4407 21.5682 15.3548 21.5682 15.269 21.4824C15.1831 21.3965 15.0972 21.3965 14.9255 21.3965C11.4045 22.2552 9 24.9174 9 28.009C9 28.7818 9.51526 29.7265 11.748 30.4135C13.2079 30.8429 15.1831 31.1005 17.33 31.1005C21.1944 31.1005 25.5741 30.3276 25.5741 28.009C25.5741 27.9231 25.5741 27.7513 25.5741 27.5796ZM17.33 30.3276C13.1221 30.3276 9.94464 29.383 9.94464 28.0948C9.94464 25.5185 12.0915 23.1999 15.0113 22.3411C15.0972 22.427 15.1831 22.427 15.1831 22.427C15.4407 22.5988 15.6984 22.6846 15.956 22.7705C16.9006 23.114 18.017 23.114 18.9617 22.6846C19.2193 22.5988 19.391 22.5129 19.6487 22.2552C22.1391 22.9423 24.0284 24.6598 24.5436 26.7208C24.6295 26.9784 24.7154 27.3219 24.7154 27.5796C24.7154 27.6655 24.7154 27.8372 24.7154 27.9231C24.7154 29.2971 21.4521 30.3276 17.33 30.3276ZM17.0724 23.7151C16.5571 23.7151 15.956 23.8869 15.6125 24.3163C15.269 24.5739 15.0113 25.0033 14.9255 25.4327C14.8396 25.6044 14.8396 25.8621 14.8396 26.0338C14.8396 26.2914 15.0113 26.4632 15.269 26.4632H18.8758C19.1334 26.4632 19.3052 26.2914 19.3052 26.0338C19.3052 24.7457 18.3605 23.7151 17.0724 23.7151ZM15.7842 25.5185C15.7842 25.4327 15.8701 25.3468 15.956 25.2609C16.2136 24.8315 16.643 24.5739 17.1582 24.5739C17.7594 24.5739 18.2746 25.0033 18.5323 25.6044H15.7842V25.5185Z" fill="white"/>
<path fill-rule="evenodd" clip-rule="evenodd" d="M19.4769 16.1587C19.4769 16.5881 19.391 17.1892 18.9616 17.7903C18.2746 18.6491 17.2441 18.735 16.9864 18.735C16.7288 18.735 16.4712 18.4773 16.4712 18.2197C16.4712 17.9621 16.6429 17.7045 16.9864 17.7045C17.0723 17.7045 17.7593 17.7045 18.1028 17.1892C18.4463 16.7598 18.4463 16.1587 18.3605 16.0728C18.3605 15.8152 18.5322 15.4717 18.7899 15.4717C19.0475 15.4717 19.3051 15.6434 19.391 15.9011C19.4769 15.9011 19.4769 15.9869 19.4769 16.1587Z" fill="white"/>
<path fill-rule="evenodd" clip-rule="evenodd" d="M19.4774 15.8151C19.4774 15.5574 19.1339 15.3857 18.8763 15.3857C19.048 15.6433 19.2198 15.9009 19.4774 16.1586C19.4774 15.9868 19.4774 15.9009 19.4774 15.8151ZM19.4774 15.8151C19.4774 15.5574 19.1339 15.3857 18.8763 15.3857C19.048 15.6433 19.2198 15.9009 19.4774 16.1586C19.4774 15.9868 19.4774 15.9009 19.4774 15.8151ZM19.4774 15.8151C19.4774 15.5574 19.1339 15.3857 18.8763 15.3857C19.048 15.6433 19.2198 15.9009 19.4774 16.1586C19.4774 15.9868 19.4774 15.9009 19.4774 15.8151ZM19.4774 15.8151C19.4774 15.5574 19.1339 15.3857 18.8763 15.3857C19.048 15.6433 19.2198 15.9009 19.4774 16.1586C19.4774 15.9868 19.4774 15.9009 19.4774 15.8151ZM22.3972 11.693C22.1396 11.3495 20.8514 11.1777 19.3915 11.1777C19.048 11.1777 18.7045 11.1777 18.361 11.1777C17.0729 11.1777 15.7847 11.3495 15.2695 11.6071C14.0672 12.1224 13.1225 13.1529 12.6073 14.3552C12.092 15.6433 12.092 17.0173 12.6932 18.2196C13.2943 19.4219 14.2389 20.3665 15.4412 20.8818C15.613 20.9676 15.7847 21.0535 15.9565 21.0535C16.3 21.1394 16.6435 21.2253 16.987 21.2253C17.0729 21.2253 17.1587 21.2253 17.3305 21.2253C18.0175 21.2253 18.7045 21.0535 19.3056 20.7959C20.1644 20.3665 20.7655 19.8512 21.1949 19.1642C21.3667 18.9066 21.4525 18.649 21.5384 18.3913C21.6243 18.1337 21.7102 17.7902 21.7961 17.4467C21.8819 17.1891 21.8819 16.8456 21.9678 16.5021C22.0537 16.2444 22.0537 15.9868 22.0537 15.7292C22.0537 15.5574 22.1396 15.2998 22.1396 15.0422C22.1396 15.0422 22.1396 14.8704 22.2254 14.7845C22.6548 12.8953 22.7407 12.1224 22.3972 11.693ZM20.7655 17.1032C20.6797 17.4467 20.5938 17.7902 20.5079 18.0478C20.3362 18.5631 20.0785 18.9066 19.735 19.2501C19.2198 19.4219 18.7904 19.6795 18.361 19.9371C17.8457 20.1089 17.3305 20.1089 16.8152 20.023C16.4717 20.023 16.1282 19.9371 15.8706 19.7654C14.9259 19.336 14.1531 18.649 13.7237 17.6185C13.2943 16.6738 13.2943 15.5574 13.6378 14.6128C13.9813 13.6681 14.7542 12.8953 15.7847 12.4659C16.2141 12.2941 17.1587 12.2083 18.1892 12.1224C18.361 12.1224 18.6186 12.1224 18.8763 12.1224C18.9621 12.1224 19.048 12.1224 19.2198 12.1224C20.3362 12.1224 21.2808 12.2083 21.7102 12.2941C21.7102 12.5518 21.7102 13.067 21.3667 14.441C21.3667 14.6128 21.2808 14.6987 21.2808 14.7845C21.2808 15.0422 21.1949 15.2998 21.1949 15.4715C21.1949 15.6433 21.109 15.8151 21.109 15.9868C20.8514 16.4162 20.7655 16.7597 20.7655 17.1032ZM18.8763 15.3857C19.048 15.6433 19.2198 15.9009 19.4774 16.1586C19.4774 15.9868 19.4774 15.9009 19.4774 15.8151C19.3915 15.5574 19.1339 15.3857 18.8763 15.3857ZM19.4774 15.8151C19.4774 15.5574 19.1339 15.3857 18.8763 15.3857C19.048 15.6433 19.2198 15.9009 19.4774 16.1586C19.4774 15.9868 19.4774 15.9009 19.4774 15.8151ZM19.4774 15.8151C19.4774 15.5574 19.1339 15.3857 18.8763 15.3857C19.048 15.6433 19.2198 15.9009 19.4774 16.1586C19.4774 15.9868 19.4774 15.9009 19.4774 15.8151Z" fill="white"/>
<path fill-rule="evenodd" clip-rule="evenodd" d="M19.477 15.8147C19.477 15.5571 19.1335 15.3854 18.8759 15.3854C19.0477 15.643 19.2194 15.9006 19.477 16.1582C19.477 15.9865 19.477 15.9006 19.477 15.8147ZM22.8262 8C20.7652 8 19.0477 9.28814 18.3607 11.1774C18.2748 11.5209 18.1889 11.8644 18.103 12.2079C18.2748 12.2079 18.5324 12.2079 18.79 12.2079C18.8759 12.2079 18.9618 12.2079 19.1335 12.2079C20.2499 12.2079 21.1946 12.2938 21.624 12.3797C21.624 12.6373 21.624 13.1526 21.2805 14.5266C21.2805 14.6984 21.1946 14.7842 21.1946 14.8701C21.1946 15.1277 21.1087 15.3854 21.1087 15.5571C21.1087 15.7289 21.0228 15.9006 21.0228 16.0724C20.9369 16.4159 20.9369 16.7594 20.8511 17.1029C21.1946 17.2746 21.5381 17.3605 21.8816 17.4464C22.2251 17.5323 22.5686 17.6181 22.998 17.6181C25.6601 17.6181 27.807 15.4712 27.807 12.8091C27.6353 10.1469 25.4884 8 22.8262 8ZM22.8262 16.5876C22.4827 16.5876 22.2251 16.5876 21.8816 16.5018C21.9675 16.2441 21.9675 15.9865 21.9675 15.7289C21.9675 15.5571 22.0533 15.2995 22.0533 15.0419C22.0533 15.0419 22.0533 14.8701 22.1392 14.7842C22.5686 12.8091 22.6545 12.0362 22.311 11.6068C22.0533 11.2633 20.7652 11.0915 19.3053 11.0915C19.9064 9.8034 21.1946 8.85876 22.7403 8.85876C24.8873 8.85876 26.6048 10.5763 26.6048 12.7232C26.6907 14.8701 24.9731 16.5876 22.8262 16.5876Z" fill="white"/>
<path fill-rule="evenodd" clip-rule="evenodd" d="M25.4027 18.0479C25.3168 18.0479 25.1451 18.0479 25.0592 18.1337C24.8874 18.3055 24.6298 18.4772 24.3722 18.5631C23.4275 18.9925 22.397 18.9066 21.5383 18.4772C21.3665 18.3914 21.1948 18.3055 21.1089 18.1337C21.023 18.0479 20.9371 18.0479 20.7654 18.0479C20.6795 18.0479 20.5936 18.0479 20.5077 18.1337C20.336 18.649 20.0784 18.9925 19.7349 19.336C19.2196 19.5077 18.7902 19.7654 18.3608 20.023C17.8456 20.1948 17.3303 20.1948 16.8151 20.1089C16.4716 20.3665 16.2139 20.71 15.9563 21.0535C15.7845 21.2253 15.6987 21.4829 15.5269 21.7405C15.3552 21.9982 15.2693 22.2558 15.1834 22.5134C15.441 22.6852 15.6987 22.771 15.9563 22.8569C16.9009 23.2004 18.0173 23.2004 18.962 22.771C19.2196 22.6852 19.3913 22.5993 19.649 22.3417C22.1394 23.0287 24.0287 24.7462 24.5439 26.8072C24.6298 27.0649 24.7157 27.4084 24.7157 27.666C25.0592 27.666 25.3168 27.666 25.5744 27.5801C28.5801 27.3225 31.3282 26.3779 31.3282 24.5744C31.3282 21.5688 28.8377 18.9066 25.4027 18.0479ZM25.4886 26.7214C24.8874 24.2309 22.6546 22.1699 19.7349 21.397C19.649 21.397 19.4772 21.397 19.3913 21.4829C19.2196 21.6547 18.962 21.8264 18.7043 21.9123C17.9315 22.2558 17.1586 22.2558 16.3857 21.9982C16.5574 21.7405 16.7292 21.397 16.9868 21.1394C17.0727 21.1394 17.1586 21.1394 17.3303 21.1394C18.0173 21.1394 18.7043 20.9676 19.3055 20.71C20.1642 20.2806 20.7654 19.7654 21.1948 19.0784C22.3111 19.6795 23.5993 19.7654 24.7157 19.1642C24.9733 19.0784 25.1451 18.9925 25.4027 18.8207C28.4084 19.5936 30.4694 21.9123 30.4694 24.4886C30.4694 25.605 28.4084 26.4637 25.4886 26.7214ZM17.0727 23.7157C16.5574 23.7157 15.9563 23.8874 15.6128 24.3168C15.2693 24.5744 15.0117 25.0038 14.9258 25.4332C15.0975 25.7767 15.441 26.1202 15.9563 26.4637H18.8761C19.1337 26.4637 19.3055 26.292 19.3055 26.0343C19.3055 24.7462 18.3608 23.7157 17.0727 23.7157ZM15.7845 25.5191C15.7845 25.4332 15.8704 25.3473 15.9563 25.2615C16.2139 24.8321 16.6433 24.5744 17.1586 24.5744C17.7597 24.5744 18.275 25.0038 18.5326 25.605H15.7845V25.5191Z" fill="white"/>
</svg>
