<svg width="40" height="40" viewBox="0 0 24 24" fill="none" xmlns="http://www.w3.org/2000/svg">
  <path d="M12 15.2C13.7673 15.2 15.2 13.7673 15.2 12C15.2 10.2327 13.7673 8.8 12 8.8C10.2327 8.8 8.8 10.2327 8.8 12C8.8 13.7673 10.2327 15.2 12 15.2Z" stroke="white" stroke-width="1.4" stroke-linecap="round" stroke-linejoin="round"></path>
  <path d="M19.4 13.2C19.47 12.81 19.5 12.41 19.5 12C19.5 11.59 19.47 11.19 19.4 10.8L21 9.55L19.45 6.95L17.55 7.5C16.95 6.99 16.26 6.58 15.5 6.3L15.2 4.3H8.8L8.5 6.3C7.74 6.58 7.05 6.99 6.45 7.5L4.55 6.95L3 9.55L4.6 10.8C4.53 11.19 4.5 11.59 4.5 12C4.5 12.41 4.53 12.81 4.6 13.2L3 14.45L4.55 17.05L6.45 16.5C7.05 17.01 7.74 17.42 8.5 17.7L8.8 19.7H15.2L15.5 17.7C16.26 17.42 16.95 17.01 17.55 16.5L19.45 17.05L21 14.45L19.4 13.2Z" stroke="white" stroke-width="1.4" stroke-linecap="round" stroke-linejoin="round"></path>
</svg>