<svg width="40" height="40" viewBox="0 0 40 40" fill="none" xmlns="http://www.w3.org/2000/svg">
<g clip-path="url(#clip0_2554_90)">
<mask id="mask0_2554_90" style="mask-type:luminance" maskUnits="userSpaceOnUse" x="0" y="0" width="40" height="40">
<path d="M40 0H0V40H40V0Z" fill="white"/>
</mask>
<g mask="url(#mask0_2554_90)">
<path d="M26.5457 10.3531H23.2494C22.8407 9.89348 22.34 9.52573 21.7802 9.27394C21.0315 9.50911 21.3845 8.04785 20.0619 8.04785C18.6073 8.04785 19.0922 9.50911 18.2205 9.27394C17.6606 9.52573 17.1599 9.89348 16.7513 10.3531H13.455C13.0692 10.3531 12.6993 10.5071 12.4265 10.7811C12.1537 11.0552 12.0005 11.4268 12.0005 11.8144V27.1576C12.0005 27.5452 12.1537 27.9168 12.4265 28.1909C12.6993 28.4649 13.0692 28.6189 13.455 28.6189H26.5457C26.9314 28.6189 27.3013 28.4649 27.5741 28.1909C27.8469 27.9168 28.0002 27.5452 28.0002 27.1576V11.8144C28.0002 11.4268 27.8469 11.0552 27.5741 10.7811C27.3013 10.5071 26.9314 10.3531 26.5457 10.3531ZM20.0619 9.50911C21.8305 9.50911 20.7135 11.2091 22.0573 11.2091C22.6029 11.7572 22.9094 12.5005 22.9094 13.2756H17.0913C17.0913 12.5005 17.3978 11.7572 17.9433 11.2091C19.4659 11.2091 18.1225 9.50911 20.0619 9.50911ZM26.5457 27.1576H13.455V11.8144H15.8868C15.7213 12.2836 15.6368 12.7778 15.6368 13.2756V14.0063C15.6368 14.2 15.7134 14.3859 15.8498 14.5229C15.9862 14.6599 16.1712 14.7369 16.364 14.7369H23.6366C23.8295 14.7369 24.0145 14.6599 24.1509 14.5229C24.2872 14.3859 24.3639 14.2 24.3639 14.0063V13.2756C24.3639 12.7778 24.2793 12.2836 24.1138 11.8144H26.5457V27.1576Z" fill="white"/>
<path d="M20.0005 16.0479C19.0964 16.0479 18.2126 16.316 17.4608 16.8183C16.7091 17.3205 16.1232 18.0346 15.7772 18.8699C15.4312 19.7051 15.3407 20.6242 15.517 21.5111C15.6934 22.3978 16.1288 23.2123 16.7681 23.8516C17.4074 24.4909 18.2219 24.9263 19.1087 25.1026C19.9955 25.2791 20.9146 25.1886 21.7499 24.8425C22.5852 24.4966 23.2992 23.9107 23.8015 23.1589C24.3038 22.4071 24.5719 21.5233 24.5719 20.6192C24.5706 19.4072 24.0886 18.2452 23.2316 17.3882C22.3745 16.5312 21.2125 16.0491 20.0005 16.0479ZM20.0005 24.4872C19.2355 24.4872 18.4877 24.2604 17.8516 23.8353C17.2155 23.4103 16.7197 22.8062 16.4269 22.0994C16.1342 21.3927 16.0576 20.6148 16.2068 19.8646C16.3561 19.1142 16.7245 18.4251 17.2654 17.884C17.8064 17.3431 18.4955 16.9747 19.2459 16.8255C19.9962 16.6762 20.774 16.7528 21.4807 17.0456C22.1876 17.3383 22.7917 17.8341 23.2167 18.4702C23.6417 19.1063 23.8686 19.8542 23.8686 20.6192C23.8674 21.6447 23.4596 22.6278 22.7344 23.3531C22.0092 24.0782 21.026 24.4861 20.0005 24.4872ZM21.7588 21.4983C21.7588 21.8246 21.6291 22.1378 21.3982 22.3685C21.1675 22.5994 20.8545 22.7291 20.528 22.7291H20.3522V23.0806C20.3522 23.174 20.3152 23.2634 20.2492 23.3293C20.1833 23.3952 20.0938 23.4323 20.0005 23.4323C19.9073 23.4323 19.8178 23.3952 19.7519 23.3293C19.6859 23.2634 19.6489 23.174 19.6489 23.0806V22.7291H18.9456C18.8523 22.7291 18.763 22.6919 18.697 22.626C18.631 22.5601 18.5939 22.4707 18.5939 22.3774C18.5939 22.2842 18.631 22.1947 18.697 22.1288C18.763 22.0628 18.8523 22.0258 18.9456 22.0258H20.528C20.6678 22.0258 20.802 21.9701 20.901 21.8713C20.9999 21.7723 21.0555 21.6381 21.0555 21.4983C21.0555 21.3584 20.9999 21.2242 20.901 21.1253C20.802 21.0264 20.6678 20.9708 20.528 20.9708H19.4731C19.1466 20.9708 18.8336 20.8411 18.6029 20.6104C18.372 20.3795 18.2423 20.0665 18.2423 19.7401C18.2423 19.4137 18.372 19.1006 18.6029 18.8699C18.8336 18.639 19.1466 18.5093 19.4731 18.5093H19.6489V18.1578C19.6489 18.0644 19.6859 17.975 19.7519 17.9091C19.8178 17.8431 19.9073 17.8061 20.0005 17.8061C20.0938 17.8061 20.1833 17.8431 20.2492 17.9091C20.3152 17.975 20.3522 18.0644 20.3522 18.1578V18.5093H21.0555C21.1487 18.5093 21.2381 18.5464 21.3041 18.6124C21.3701 18.6783 21.4071 18.7677 21.4071 18.8609C21.4071 18.9542 21.3701 19.0437 21.3041 19.1096C21.2381 19.1756 21.1487 19.2126 21.0555 19.2126H19.4731C19.3332 19.2126 19.1991 19.2682 19.1001 19.3671C19.0012 19.4661 18.9456 19.6002 18.9456 19.7401C18.9456 19.88 19.0012 20.0142 19.1001 20.113C19.1991 20.212 19.3332 20.2675 19.4731 20.2675H20.528C20.8545 20.2675 21.1675 20.3972 21.3982 20.628C21.6291 20.8588 21.7588 21.1719 21.7588 21.4983Z" fill="white"/>
</g>
</g>
<defs>
<clipPath id="clip0_2554_90">
<rect width="40" height="40" fill="white"/>
</clipPath>
</defs>
</svg>
