<svg width="40" height="40" viewBox="0 0 40 40" fill="none" xmlns="http://www.w3.org/2000/svg">
  <path d="M20 8C13.373 8 8 13.373 8 20C8 22.118 8.551 24.106 9.516 25.832L8 32L14.32 30.516C16.001 31.478 17.922 32 20 32C26.627 32 32 26.627 32 20C32 13.373 26.627 8 20 8ZM20 30C18.188 30 16.494 29.512 15.02 28.656L14.656 28.448L11.92 29.088L12.576 26.432L12.352 26.048C11.434 24.53 10.952 22.786 10.952 20C10.952 15.005 15.005 10.952 20 10.952C24.995 10.952 29.048 15.005 29.048 20C29.048 24.995 24.995 29.048 20 29.048V30ZM25.24 22.304C24.96 22.16 23.584 21.488 23.328 21.392C23.072 21.296 22.88 21.248 22.688 21.536C22.496 21.824 21.968 22.448 21.808 22.64C21.648 22.832 21.488 22.856 21.208 22.712C19.544 21.88 18.456 20.848 17.52 19.248C17.272 18.824 17.544 18.656 17.832 18.368C18.032 18.176 18.272 17.864 18.368 17.672C18.464 17.48 18.416 17.312 18.344 17.168C18.272 17.024 17.712 15.648 17.472 15.072C17.24 14.52 17.008 14.592 16.816 14.592H16.288C16.096 14.592 15.784 14.664 15.52 14.952C15.256 15.24 14.528 15.92 14.528 17.304C14.528 18.688 15.544 20.032 15.688 20.224C15.832 20.416 17.664 23.216 20.464 24.424C23.264 25.632 23.264 25.232 23.936 25.184C24.608 25.136 26.104 24.512 26.392 23.696C26.68 22.88 26.68 22.184 26.584 22.016C26.488 21.848 26.296 21.776 26.016 21.632L25.24 22.304Z" fill="white"></path>
</svg>