<?xml version="1.0" encoding="UTF-8"?>
<svg viewBox="0 0 30 30" version="1.1" xmlns="http://www.w3.org/2000/svg" xmlns:xlink="http://www.w3.org/1999/xlink">
    <title>leftmenu/sports/color/icon-basketball</title>
    <defs>
        <radialGradient cx="50%" cy="0%" fx="50%" fy="0%" r="256.298503%" gradientTransform="translate(0.5, 0), scale(1, 0.3902), rotate(90), translate(-0.5, -0)" id="radialGradient-1">
            <stop stop-color="#FF9347" offset="0%"></stop>
            <stop stop-color="#B64C00" offset="100%"></stop>
        </radialGradient>
        <radialGradient cx="50%" cy="18.8292177%" fx="50%" fy="18.8292177%" r="208.497184%" gradientTransform="translate(0.5, 0.1883), scale(1, 0.3893), rotate(90), translate(-0.5, -0.1883)" id="radialGradient-2">
            <stop stop-color="#FFD300" offset="0%"></stop>
            <stop stop-color="#FF7D18" offset="100%"></stop>
        </radialGradient>
        <radialGradient cx="50%" cy="0%" fx="50%" fy="0%" r="173.791361%" gradientTransform="translate(0.5, 0), scale(1, 0.5754), rotate(90), translate(-0.5, -0)" id="radialGradient-3">
            <stop stop-color="#FF9347" offset="0%"></stop>
            <stop stop-color="#B64C00" offset="100%"></stop>
        </radialGradient>
        <radialGradient cx="50%" cy="0%" fx="50%" fy="0%" r="173.990205%" gradientTransform="translate(0.5, 0), scale(1, 0.5747), rotate(90), translate(-0.5, -0)" id="radialGradient-4">
            <stop stop-color="#FF9347" offset="0%"></stop>
            <stop stop-color="#B64C00" offset="100%"></stop>
        </radialGradient>
        <radialGradient cx="50%" cy="0%" fx="50%" fy="0%" r="100%" gradientTransform="translate(0.5, 0), scale(0.8796, 1), rotate(90), translate(-0.5, -0)" id="radialGradient-5">
            <stop stop-color="#FF9347" offset="0%"></stop>
            <stop stop-color="#B64C00" offset="100%"></stop>
        </radialGradient>
        <radialGradient cx="50%" cy="0%" fx="50%" fy="0%" r="100%" gradientTransform="translate(0.5, 0), scale(0.8786, 1), rotate(90), translate(-0.5, -0)" id="radialGradient-6">
            <stop stop-color="#FF9347" offset="0%"></stop>
            <stop stop-color="#B64C00" offset="100%"></stop>
        </radialGradient>
        <linearGradient x1="50%" y1="18.8292177%" x2="50%" y2="100%" id="linearGradient-7">
            <stop stop-color="#FFD300" offset="0%"></stop>
            <stop stop-color="#FF7819" offset="100%"></stop>
        </linearGradient>
        <radialGradient cx="50%" cy="0%" fx="50%" fy="0%" r="142.39039%" gradientTransform="translate(0.5, 0), scale(0.7023, 1), translate(-0.5, -0)" id="radialGradient-8">
            <stop stop-color="#FF9347" offset="0%"></stop>
            <stop stop-color="#B64C00" offset="100%"></stop>
        </radialGradient>
    </defs>
    <g id="leftmenu/sports/color/icon-basketball" stroke="none" stroke-width="1" fill="none" fill-rule="evenodd">
        <g id="Group" transform="translate(3, 3)">
            <path d="M11.1535756,24 C10.6641119,23.9227871 10.1717957,23.8596641 9.68566014,23.7656372 C8.43031313,23.5227266 7.23106784,23.1011554 6.09671985,22.5275538 C5.40719184,22.1789216 4.92975681,21.5779384 4.540991,20.9223803 C3.85084492,19.7585978 3.70222294,18.4974537 3.81338039,17.1720126 C3.9509722,15.5310976 4.72969242,14.1995508 5.74375454,12.9553617 C6.52161897,12.0009558 7.30067199,11.0441076 8.01706226,10.0448957 C9.01695632,8.65027289 9.62632545,7.09756093 9.7090517,5.37041546 C9.72355256,5.06799827 9.71114363,4.76435995 9.71114363,4.42582554 C10.2921766,4.3678689 10.8626549,4.31103945 11.4717388,4.25031179 L11.4717388,4.59856827 C11.4717388,10.9646403 11.4716437,17.3307123 11.4723093,23.6967844 C11.4723093,23.7978563 11.4811049,23.8989281 11.4858118,24 L11.1535756,24 Z" id="Fill-1" fill="url(#radialGradient-1)"></path>
            <path d="M12.5299786,24 C12.5346855,23.8989281 12.5434335,23.7978563 12.5434811,23.6967844 C12.5440991,17.3304305 12.5440516,10.9640767 12.5440516,4.59772287 L12.5440516,4.25303585 C13.1443399,4.31136822 13.7194299,4.36725833 14.2648051,4.42023653 C14.3026499,4.9918656 14.3160573,5.5219763 14.3770085,6.04673283 C14.5074212,7.17021808 14.9005135,8.21029087 15.4584402,9.19358117 C16.2325486,10.5579106 17.2767535,11.7248398 18.2528757,12.9421171 C18.7730051,13.5907243 19.294846,14.2433236 19.6353549,15.0073274 C20.1395571,16.1385151 20.3019192,17.3262975 20.1781151,18.5537196 C20.0403331,19.919411 19.4720419,21.0785438 18.4835583,22.0450671 C17.9360437,22.5803441 17.2314918,22.822926 16.5460526,23.0959422 C15.3984874,23.552973 14.2129347,23.873942 12.971946,23.9645403 C12.9346716,23.9672644 12.898776,23.9877887 12.8622148,24 L12.5299786,24 Z" id="Fill-3" fill="url(#radialGradient-2)"></path>
            <path d="M0,13.1709238 C0.0685581874,12.7723662 0.117908672,12.3694407 0.209240349,11.9760494 C0.491698179,10.7596645 1.07149505,9.6837093 1.87137227,8.72742473 C3.61442377,6.64352184 5.87788992,5.38261266 8.4933705,4.68981005 C8.53088258,4.67990013 8.57024886,4.67694124 8.6791242,4.65932881 C8.6253046,5.20639441 8.60400497,5.73401589 8.51671452,6.25078811 C8.26406666,7.74601308 7.50783467,9.01237038 6.59618194,10.1961606 C5.77828562,11.2582137 4.91935898,12.2898325 4.11434703,13.361138 C3.28028581,14.47105 2.87906352,15.7537516 2.70419735,17.1139949 C2.5969385,17.9481666 2.59170867,18.7786749 2.7503624,19.6073046 C2.75706608,19.6423416 2.75121819,19.6797269 2.70595647,19.7428969 C2.41617689,19.3683861 2.11275224,19.0033156 1.8391851,18.6175799 C1.05756472,17.5154644 0.454376281,16.329185 0.176340026,15.0013016 C0.0985107935,14.6294679 0.0577657404,14.2500257 0,13.8741059 C0,13.6396962 0,13.4053335 0,13.1709238" id="Fill-5" fill="url(#radialGradient-3)"></path>
            <path d="M15.3159751,4.64596214 C16.3386902,4.88431705 17.2280449,5.20218621 18.0808384,5.61337778 C19.6483106,6.36911547 21.0306471,7.36828044 22.1348048,8.71462166 C23.3091846,10.1465828 24.016399,11.7623238 23.9997111,13.6306505 C23.988253,14.9179079 23.6098042,16.1217058 23.0142228,17.2591871 C22.5769623,18.0942042 22.0397647,18.8649242 21.4273052,19.5843568 C21.3840403,19.6352215 21.3346423,19.6809669 21.2628036,19.7553148 C21.3001255,19.4083264 21.3475267,19.1021519 21.3638342,18.7943805 C21.4800788,16.6016093 20.9304723,14.6045475 19.547898,12.8593669 C18.841587,11.9677552 18.1135961,11.0926287 17.4181251,10.1928917 C16.5635725,9.08720678 15.838244,7.90632848 15.5560714,6.52072328 C15.4339789,5.92119611 15.3975128,5.30466708 15.3159751,4.64596214" id="Fill-7" fill="url(#radialGradient-4)"></path>
            <path d="M23.8943492,9.55441997 C22.0323906,6.35332533 19.1574634,4.53003947 15.617208,3.60127725 C15.9331842,2.83840066 16.5458814,2.46473531 17.3082941,2.34985529 C17.866411,2.26573832 18.4404551,2.28165996 19.0077479,2.26371876 C19.0855296,2.26127651 19.1772892,2.30551893 19.2425193,2.35431711 C21.6836567,4.17999827 23.2479435,6.56359428 23.9059499,9.52168433 C23.9073762,9.52811874 23.9010529,9.53624394 23.8943492,9.55441997" id="Fill-9" fill="url(#radialGradient-5)"></path>
            <path d="M8.40254754,3.60069017 C4.8571574,4.53161285 1.98836335,6.35193982 0.103441088,9.53326157 C0.160160864,9.30754065 0.212601697,9.0807395 0.274741468,8.8565215 C0.339353519,8.62347381 0.407436268,8.39103668 0.484932693,8.16193417 C0.562476662,7.93283167 0.646296416,7.70523209 0.739815108,7.48209432 C1.60021561,5.42970595 2.92450115,3.7302707 4.72160997,2.39280614 C4.78859921,2.3429747 4.86975651,2.28849358 4.94867925,2.28107288 C5.74964997,2.20564471 6.54182509,2.21541373 7.3059969,2.51961565 C7.81918488,2.72391985 8.16891722,3.08072423 8.40254754,3.60069017" id="Fill-11" fill="url(#radialGradient-6)"></path>
            <path d="M11.4523029,3.18498513 C10.9651689,3.23251521 10.4871158,3.27915293 10.0090627,3.32579065 C9.84456109,3.34185318 9.64811003,3.41920698 9.52473382,3.35645976 C9.40668252,3.29643659 9.36503413,3.09048856 9.28905911,2.94907248 C8.77791551,1.99748455 7.94642165,1.48977686 6.90597271,1.27180541 C6.84663802,1.25940626 6.78749351,1.24606778 6.6591252,1.21812272 C8.20743722,0.469242139 9.77933097,0.0859486652 11.4523029,0 L11.4523029,3.18498513 Z" id="Fill-13" fill="url(#linearGradient-7)"></path>
            <path d="M12.5551483,3.17743292 L12.5551483,0.00306221474 C14.2265038,0.0775980244 15.7993008,0.471693789 17.3494671,1.21150984 C17.2033174,1.24833156 17.1110824,1.27355257 17.0178965,1.29473445 C15.8936278,1.54980942 15.0527678,2.14844423 14.5998178,3.2259493 C14.5733835,3.28874348 14.4835256,3.37459822 14.4303717,3.36990157 C13.8104953,3.31523258 13.1920453,3.24529949 12.5551483,3.17743292" id="Fill-15" fill="url(#radialGradient-8)"></path>
        </g>
    </g>
</svg>
