<?xml version="1.0" encoding="UTF-8"?>
<svg width="40px" height="40px" viewBox="0 0 40 40" version="1.1" xmlns="http://www.w3.org/2000/svg" xmlns:xlink="http://www.w3.org/1999/xlink">
    <title>leftmenu/sports/color/icon-soccer</title>
    <defs>
        <linearGradient x1="50%" y1="1.33055874e-13%" x2="50%" y2="104.53891%" id="linearGradient-1">
            <stop stop-color="#267EFF" offset="0%"></stop>
            <stop stop-color="#03396A" offset="100%"></stop>
            <stop stop-color="#FFFFFF" offset="100%"></stop>
            <stop stop-color="#222222" stop-opacity="0.995478029" offset="100%"></stop>
        </linearGradient>
        <path d="M19.6424957,31.0651819 C20.5458818,31.5203796 24.7966077,30.5614995 25.2713124,29.7206918 C25.2045435,29.7206918 25.1424814,29.7030769 25.0973296,29.7231335 C23.6575254,30.3626775 22.1570538,30.7090464 20.5763898,30.7346839 C20.291532,30.7393929 20.0098123,30.929669 19.6424957,31.0651819 M10.2732215,14.4726153 C10.3072162,14.509066 10.3410365,14.5455167 10.3750311,14.5821418 C10.7501926,14.4928463 11.1018193,14.3484387 11.3575637,14.0170688 C11.6042428,13.6973839 11.8111744,13.3415972 12.0876642,13.0513869 C12.8322342,12.2702258 13.6087068,11.51976 14.3611218,10.7459239 C14.465895,10.6383159 14.5061656,10.4680963 14.5764212,10.3268281 C14.4601421,10.3416525 14.3222458,10.3212471 14.2307218,10.3768824 C12.7795861,11.2605938 11.5801851,12.4111452 10.6379231,13.826095 C10.5010728,14.03137 10.3940333,14.2565272 10.2732215,14.4726153 M12.6817861,28.3634702 C12.7344342,27.8301389 12.8744224,27.3838359 12.5086748,26.9251501 C11.557522,25.7320438 10.8312568,24.4072615 10.2737445,22.9820218 C10.0816312,22.4907222 9.55654457,22.3400361 9.09979594,22.1112164 C8.87839488,23.488669 11.202583,27.5613804 12.6817861,28.3634702 M31.2700607,19.9974248 C31.3211398,19.1292354 31.039943,18.390106 30.4740629,17.7563173 C29.9747773,17.1971741 29.4430661,16.6669821 28.9484876,16.104002 C28.6638042,15.779957 28.4059678,15.7694927 28.0550384,16.0026725 C27.4068738,16.4332791 26.7456343,16.8471427 26.0680076,17.2292646 C25.767983,17.3984377 25.6211958,17.6024919 25.5924311,17.938222 C25.4841712,19.2061481 25.3513306,20.4721558 25.2578889,21.7411284 C25.243768,21.9312302 25.3429627,22.1753975 25.4717937,22.3225955 C26.1468054,23.0950364 26.8361123,23.8563153 27.5529636,24.589515 C27.6706374,24.7098546 27.9950684,24.7628738 28.1484801,24.6894492 C28.7704951,24.3913906 29.3703699,24.0441498 29.9641431,23.6909791 C30.4590704,23.3967575 30.8760714,23.0205653 30.9599249,22.4033452 C31.0685334,21.6021275 31.1672051,20.7995145 31.2700607,19.9974248 M28.1918887,14.7863703 C28.0389999,14.1248512 27.9406769,13.4757149 27.7337454,12.863378 C27.4964802,12.1612225 27.3026235,11.4213954 26.6304011,10.9464899 C25.6456022,10.2502642 24.6200098,9.63810175 23.4577414,9.29487222 C23.2576088,9.23574884 22.980073,9.24691078 22.8005115,9.34265926 C21.8962538,9.82454096 21.0109983,10.342699 20.1224304,10.8540551 C19.8888262,10.988696 19.7962561,11.1409518 19.9085256,11.4557533 C20.2575374,12.4341667 20.5551213,13.4310671 20.8631652,14.4237818 C20.976655,14.789684 21.0974667,15.1086712 21.5087148,15.2733098 C22.6336763,15.7236241 23.7394612,16.2215511 24.8628536,16.6762256 C25.0312579,16.7442436 25.2941499,16.7520919 25.443029,16.6659357 C26.2921979,16.1744617 27.1232364,15.6512459 27.9514855,15.1245421 C28.0562588,15.0579193 28.1082096,14.9082796 28.1918887,14.7863703 M21.1053117,30.0032283 C21.6713662,30.0407254 23.0838003,29.5979105 24.0405318,29.2932245 C24.540166,29.134167 25.0900076,28.8446542 25.4024097,28.445615 C26.0190204,27.6578265 26.4787327,26.7481287 27.0186374,25.8986008 C27.2464888,25.540198 27.1080695,25.295333 26.8556375,25.0305858 C26.3666375,24.5174856 25.8607274,24.0139776 25.4297798,23.4541368 C24.7160665,22.4968264 23.5717543,22.9000513 23.5293917,22.9094692 C22.5850378,23.1196275 21.6345822,23.3069388 20.7005138,23.5559895 C20.4496507,23.6229611 20.1729866,23.8325962 20.038054,24.0554861 C19.4104604,25.0931973 18.8325514,26.1607319 18.227621,27.2123955 C18.0527664,27.516035 18.0503258,27.7844447 18.3027578,28.0390764 C18.7694434,28.5099706 19.2335139,28.9834808 19.7047321,29.4500149 C20.0863438,29.827951 20.5957406,29.9695681 21.1053117,30.0032283 M16.8106542,11.0697944 C16.8101312,11.0783403 16.8096082,11.0868862 16.8090852,11.095432 C16.635451,11.095432 16.4616425,11.0917695 16.2880083,11.0961296 C15.699988,11.1107797 15.1414297,11.0968273 14.628372,11.5453976 C13.6510694,12.3992857 12.8080021,13.3620026 12.0622118,14.4115734 C11.9122866,14.6226038 11.8327915,14.9726351 11.8864856,15.2229066 C12.0613401,16.0375536 12.3029636,16.8387713 12.5398802,17.639117 C12.6289636,17.939966 12.8419967,18.0648402 13.1869989,18.0981516 C14.4641517,18.2219793 15.7353773,18.4049304 17.0113098,18.5427106 C17.1706488,18.5599767 17.4011151,18.4916098 17.5032734,18.3773744 C18.3508734,17.4287842 19.190454,16.4721714 19.9942968,15.4867818 C20.1370743,15.3116789 20.1959984,14.9640893 20.1323673,14.7425946 C19.8496016,13.7582514 19.4978005,12.7939647 19.1928947,11.8157257 C19.0675503,11.4137216 18.8116316,11.2100163 18.412761,11.1765305 C17.8794809,11.1317083 17.344806,11.1045011 16.8106542,11.0697944 M16.863651,27.2486718 C17.183375,27.2725653 17.3765344,27.1234488 17.5248905,26.8599225 C18.1193611,25.8030267 18.7147033,24.7466541 19.3225973,23.6976065 C19.4805417,23.4251855 19.4688615,23.2019468 19.3037695,22.9345836 C18.7800776,22.0874973 18.2830584,21.2240169 17.766514,20.3722216 C17.4569012,19.8617375 17.219113,19.26719 16.4938938,19.2030088 C15.342434,19.1013306 14.1923688,18.981863 13.0395144,18.9042526 C12.8606502,18.8922187 12.5824171,19.0130815 12.4985636,19.1581867 C12.0310064,19.9681247 11.5878557,20.7941079 11.1839295,21.6373573 C11.0477765,21.9214635 10.9220835,22.3156193 11.0122129,22.5857731 C11.5101038,24.0785076 12.296862,25.4236953 13.3050213,26.6328469 C13.4171165,26.7673133 13.6003389,26.8883506 13.7689175,26.921662 C14.5324897,27.0716505 16.6045943,27.2293128 16.863651,27.2486718 M20.3555117,8.00741267 C26.9248471,8.08781349 32.109467,13.7155221 31.9982435,20.1336353 C31.8798724,26.962124 26.345369,32.1857356 19.6679481,31.9949363 C13.0022074,31.8043113 7.89934897,26.3977486 8.00150725,19.7762789 C8.10471152,13.0956858 13.662924,7.77370964 20.3555117,8.00741267" id="path-2"></path>
        <filter x="-29.2%" y="-20.8%" width="158.3%" height="158.3%" filterUnits="objectBoundingBox" id="filter-3">
            <feOffset dx="0" dy="2" in="SourceAlpha" result="shadowOffsetOuter1"></feOffset>
            <feGaussianBlur stdDeviation="2" in="shadowOffsetOuter1" result="shadowBlurOuter1"></feGaussianBlur>
            <feColorMatrix values="0 0 0 0 0   0 0 0 0 0   0 0 0 0 0  0 0 0 0.2 0" type="matrix" in="shadowBlurOuter1"></feColorMatrix>
        </filter>
    </defs>
    <g id="leftmenu/sports/color/icon-soccer" stroke="none" stroke-width="1" fill="none" fill-rule="evenodd">
        <g id="Fill-1">
            <use fill="black" fill-opacity="1" filter="url(#filter-3)" xlink:href="#path-2"></use>
            <use fill="url(#linearGradient-1)" fill-rule="evenodd" xlink:href="#path-2"></use>
        </g>
    </g>
</svg>