<?xml version="1.0" encoding="UTF-8"?>
<svg width="14px" height="15px" viewBox="0 0 14 15" version="1.1" xmlns="http://www.w3.org/2000/svg" xmlns:xlink="http://www.w3.org/1999/xlink">
    <title>icon-speaker</title>
    <g id="icon-set最新整理" stroke="none" stroke-width="1" fill="none" fill-rule="evenodd">
        <g id="images/h5/icon-set" transform="translate(-692.000000, -333.000000)" fill="#FFFFFF" fill-rule="nonzero">
            <g id="icon-speaker" transform="translate(692.000000, 333.000000)">
                <path d="M7.675,10.2 L8.075,10.6 C8.575,11.1 8.575,11.9 8.075,12.4 L8.075,12.4 L7.475,13 L7.975,13.5 C8.275,13.8 8.275,14.4 7.975,14.7 C7.675,15 7.075,15 6.775,14.7 L6.775,14.7 L4.775,12.8 L5.975,11.6 L6.975,12.5 L7.575,11.9 C7.775,11.7 7.775,11.5 7.575,11.3 L7.575,11.3 L6.975,10.7 C7.275,10.5 7.475,10.3 7.675,10.2 L7.675,10.2 Z M2.675,7.5 L5.875,10.7 L3.575,13 C3.075,13.5 2.175,13.5 1.675,13 L1.675,13 L0.375,11.7 C-0.125,11.2 -0.125,10.3 0.375,9.8 L0.375,9.8 L2.675,7.5 Z M3.575,9.8 C3.475,9.6 3.175,9.6 2.975,9.8 L2.975,9.8 L2.375,10.4 C2.175,10.6 2.175,10.9 2.375,11 C2.575,11.2 2.875,11.2 2.975,11 L2.975,11 L3.575,10.4 C3.775,10.2 3.775,9.9 3.575,9.8 Z M5.275,2.7 L10.675,8.1 L10.475,8.1 C8.975,8.4 7.475,9.2 6.375,10.2 L6.375,10.2 L3.175,7 C4.175,5.8 4.875,4.4 5.275,2.8 L5.275,2.8 L5.275,2.7 Z M5.575,0.3 C5.875,1.66533454e-16 6.475,1.66533454e-16 6.775,0.3 L6.775,0.3 L12.575,6 C12.875,6.3 12.875,6.9 12.575,7.2 C12.275,7.5 11.675,7.5 11.375,7.2 L11.375,7.2 L5.575,1.5 C5.275,1.1 5.275,0.6 5.575,0.3 Z M12.975,3.2 C13.175,3.2 13.375,3.4 13.375,3.7 C13.375,4 13.175,4.3 12.975,4.3 L12.975,4.3 L12.175,4.3 C11.975,4.3 11.775,4.1 11.775,3.8 C11.775,3.5 11.975,3.3 12.175,3.3 L12.175,3.3 L12.975,3.3 L12.975,3.2 Z M11.575,1.2 C11.775,1 11.975,1 12.175,1.2 C12.375,1.4 12.375,1.6 12.175,1.8 L12.175,1.8 L11.375,2.6 C11.175,2.8 10.975,2.8 10.775,2.6 C10.575,2.4 10.575,2.2 10.775,2 L10.775,2 L11.575,1.2 Z M9.075,0 C9.375,0 9.575,0.2 9.575,0.4 L9.575,0.4 L9.575,1.2 C9.575,1.4 9.375,1.6 9.075,1.6 C8.775,1.6 8.575,1.4 8.575,1.2 L8.575,1.2 L8.575,0.4 C8.575,0.2 8.775,0 9.075,0 Z" id="形状结合"></path>
            </g>
        </g>
    </g>
</svg>