<svg width="21" height="20" xmlns="http://www.w3.org/2000/svg">
    <path d="M18.455 6c-.525 0-.955.566-.955 1.287v5.417c0 .72.43 1.296.955 1.296.535 0 1.045-.58 1.045-1.296V7.287C19.5 6.566 18.986 6 18.455 6zM14.5 3.5a.5.5 0 0 0-1 0 .5.5 0 0 0 1 0zm-6 0c0-.271-.222-.5-.508-.5a.5.5 0 1 0 .508.5zm8 2.5h-11c0-1.828 1.13-3.417 2.808-4.246L7.465.247c-.124-.21.19-.342.296-.163l.856 1.52a6.152 6.152 0 0 1 4.783 0l.853-1.516c.11-.183.42-.047.296.163l-.844 1.503C15.37 2.584 16.5 4.172 16.5 6zm-11 8.835c0 .716.587 1.293 1.317 1.293h.885l.013 2.668c0 1.612 2.455 1.599 2.455 0v-2.668h1.655v2.668c0 1.603 2.469 1.607 2.469 0v-2.668h.898a1.3 1.3 0 0 0 1.308-1.293V7h-11v7.835zm-1-7.548v5.417c0 .72-.42 1.296-.955 1.296-.53 0-1.045-.58-1.045-1.296V7.287C2.5 6.58 3.014 6 3.545 6c.525 0 .955.58.955 1.287z" fill="#000" fill-rule="evenodd"/>
</svg>
