<svg width="75" height="75" viewBox="0 0 75 75" fill="none" xmlns="http://www.w3.org/2000/svg">
<rect width="75" height="75" fill="black"/>
<path d="M65.9998 36.2495V58.7498C65.9998 61.7336 64.8652 64.5951 62.8456 66.7049C60.826 68.8147 58.0868 70 55.2306 70H40.1537C39.5825 70 39.0347 69.7629 38.6307 69.341C38.2268 68.919 37.9999 68.3467 37.9999 67.75C37.9999 67.1532 38.2268 66.5809 38.6307 66.159C38.9054 65.872 39.1756 65.7475 39.5 65.5C39.6526 65.3836 39.8172 65 40 65H43.5L44 65.4999H55.2306C56.9443 65.4999 58.5878 64.7888 59.7996 63.5229C61.0114 62.257 61.6921 60.5401 61.6921 58.7498H61.9892C60.2755 58.7498 58.632 58.0387 57.4202 56.7728C56.2085 55.5069 55.5277 53.79 55.5277 51.9997V40.7496C55.5277 38.9593 56.2085 37.2424 57.4202 35.9765C58.632 34.7106 60.2755 33.9995 61.9892 33.9995H61.5979C61.1903 29.322 59.5171 24.8623 56.7738 21.1412C54.0305 17.4201 50.3303 14.5913 46.1054 12.9851C41.8805 11.3789 37.3053 11.0617 32.9143 12.0706C28.5232 13.0794 24.4976 15.3726 21.3077 18.6824C17.341 22.7716 14.8944 28.2002 14.4046 33.9995H14.0106C15.7243 33.9995 17.3678 34.7106 18.5796 35.9765C19.7913 37.2424 20.4721 38.9593 20.4721 40.7496V51.9997C20.4721 53.79 19.7913 55.5069 18.5796 56.7728C17.3678 58.0387 15.4817 58.648 14.739 58.648C13.743 58.6286 13.1043 58.0387 11.8925 56.7728C10.6808 55.5069 10 53.79 10 51.9997V36.2495C10.006 30.4554 11.6574 24.7934 14.7452 19.9802C17.8329 15.1669 22.2182 11.4189 27.3459 9.21043C32.4736 7.00197 38.1133 6.43238 43.551 7.57376C48.9887 8.71514 53.9801 11.5162 57.8933 15.6223C60.4769 18.3345 62.5229 21.5525 63.9139 25.0921C65.305 28.6317 66.0138 32.4232 65.9998 36.2495Z" fill="white"/>
<path d="M38.9231 32.5385V37.5069L43.1254 35.4046C43.2339 35.3504 43.352 35.318 43.473 35.3094C43.594 35.3008 43.7155 35.3161 43.8306 35.3545C43.9456 35.3929 44.052 35.4535 44.1437 35.533C44.2353 35.6125 44.3104 35.7092 44.3646 35.8177C44.4189 35.9262 44.4512 36.0443 44.4598 36.1653C44.4684 36.2863 44.4531 36.4078 44.4147 36.5229C44.3764 36.6379 44.3157 36.7443 44.2363 36.836C44.1568 36.9276 44.06 37.0027 43.9515 37.0569L38.4131 39.8262C38.2723 39.8966 38.1158 39.9299 37.9586 39.9228C37.8013 39.9157 37.6485 39.8686 37.5146 39.7858C37.3807 39.703 37.2702 39.5873 37.1936 39.4498C37.117 39.3123 37.0768 39.1574 37.0769 39V32.5385C37.0769 32.2937 37.1742 32.0589 37.3473 31.8858C37.5204 31.7126 37.7552 31.6154 38 31.6154C38.2448 31.6154 38.4796 31.7126 38.6527 31.8858C38.8258 32.0589 38.9231 32.2937 38.9231 32.5385ZM38 49.1538C35.9918 49.1538 34.0286 48.5583 32.3588 47.4426C30.689 46.3269 29.3876 44.7411 28.6191 42.8857C27.8506 41.0303 27.6495 38.9887 28.0413 37.0191C28.4331 35.0494 29.4001 33.2402 30.8202 31.8202C32.2402 30.4001 34.0494 29.4331 36.0191 29.0413C37.9887 28.6495 40.0303 28.8506 41.8857 29.6191C43.7411 30.3876 45.3269 31.689 46.4426 33.3588C47.5583 35.0286 48.1538 36.9918 48.1538 39C48.1538 39.2448 48.2511 39.4796 48.4242 39.6527C48.5973 39.8258 48.8321 39.9231 49.0769 39.9231C49.3217 39.9231 49.5565 39.8258 49.7296 39.6527C49.9027 39.4796 50 39.2448 50 39C50 36.6266 49.2962 34.3066 47.9776 32.3332C46.6591 30.3598 44.7849 28.8217 42.5922 27.9135C40.3995 27.0052 37.9867 26.7676 35.6589 27.2306C33.3311 27.6936 31.193 28.8365 29.5147 30.5147C27.8365 32.193 26.6936 34.3311 26.2306 36.6589C25.7676 38.9867 26.0052 41.3995 26.9135 43.5922C27.8217 45.7849 29.3598 47.6591 31.3332 48.9776C33.3066 50.2962 35.6266 51 38 51C38.2448 51 38.4796 50.9027 38.6527 50.7296C38.8258 50.5565 38.9231 50.3217 38.9231 50.0769C38.9231 49.8321 38.8258 49.5973 38.6527 49.4242C38.4796 49.2511 38.2448 49.1538 38 49.1538ZM47.9946 47.1485C48.5112 46.6322 48.8631 45.9743 49.0058 45.258C49.1485 44.5417 49.0755 43.7991 48.7961 43.1243C48.5167 42.4495 48.0435 41.8727 47.4362 41.4669C46.829 41.0611 46.115 40.8444 45.3846 40.8444C44.6542 40.8444 43.9403 41.0611 43.333 41.4669C42.7258 41.8727 42.2525 42.4495 41.9731 43.1243C41.6937 43.7991 41.6208 44.5417 41.7634 45.258C41.9061 45.9743 42.258 46.6322 42.7746 47.1485C41.8026 47.7694 41.0982 48.7318 40.8004 49.8462C40.7652 49.9824 40.7616 50.1249 40.79 50.2627C40.8183 50.4006 40.8778 50.5301 40.9638 50.6415C41.0499 50.7528 41.1603 50.843 41.2865 50.9051C41.4128 50.9673 41.5516 50.9997 41.6923 51H49.0769C49.2184 51 49.358 50.9675 49.4849 50.9049C49.6118 50.8424 49.7226 50.7515 49.8088 50.6393C49.8951 50.5272 49.9543 50.3967 49.9821 50.2579C50.0098 50.1192 50.0053 49.9759 49.9688 49.8392C49.6694 48.7275 48.9653 47.7677 47.9946 47.1485Z" fill="#FDD008"/>
</svg>
