<svg width="120" height="120" viewBox="0 0 120 120" fill="none" xmlns="http://www.w3.org/2000/svg">
<path fill-rule="evenodd" clip-rule="evenodd" d="M42.5003 18.9983C42.1603 19.5483 40.5853 19.9983 39.0003 19.9983C37.4153 19.9983 35.8403 20.4483 35.5003 20.9983C35.1583 21.5523 35.9133 22.0143 37.1913 22.0333C38.4613 22.0533 40.6253 22.7123 42.0003 23.4983C45.5463 25.5253 48.3233 25.3303 52.6933 22.7483C56.3373 20.5943 56.3933 20.4843 54.0003 20.1633C52.6253 19.9793 51.0723 19.4173 50.5503 18.9133C49.2723 17.6823 43.2743 17.7453 42.5003 18.9983ZM73.4563 73.8623C69.1173 76.5083 67.2903 82.3633 69.3023 87.1773C70.8593 90.9043 75.4873 93.9983 79.5063 93.9983C80.7153 93.9983 83.2333 92.9703 85.1023 91.7143C89.6373 88.6673 91.0513 83.4263 88.6813 78.4553C86.3993 73.6703 84.8053 73.3473 81.2103 76.9423C79.5293 78.6233 77.3323 79.9803 76.3273 79.9593C75.1643 79.9343 75.6523 79.4193 77.6713 78.5403C80.8573 77.1553 83.4773 73.8083 82.2983 72.6293C81.0613 71.3923 76.4523 72.0353 73.4563 73.8623ZM71.3333 79.6653C71.7003 80.0313 72.3003 80.0313 72.6673 79.6653C73.0333 79.2983 72.7333 78.9983 72.0003 78.9983C71.2673 78.9983 70.9673 79.2983 71.3333 79.6653ZM79.4413 86.5723C78.3743 87.4383 78.1363 87.8163 78.9133 87.4133C79.6903 87.0093 81.7153 86.3473 83.4133 85.9413C86.2513 85.2623 86.2943 85.1943 83.9413 85.1003C82.5343 85.0443 80.5093 85.7063 79.4413 86.5723ZM75.5643 89.7053C75.0223 91.1303 75.1363 91.2453 76.1243 90.2653C76.8083 89.5863 77.1153 88.7793 76.8073 88.4723C76.4993 88.1643 75.9403 88.7193 75.5643 89.7053Z" fill="#145EAB"/>
<path fill-rule="evenodd" clip-rule="evenodd" d="M22 19C22 19.55 20.62 20 18.934 20C17.248 20 14.998 20.466 13.934 21.035C12.076 22.03 12 23.512 12 58.954C12 92.244 12.171 96.138 13.75 98.913C14.712 100.604 15.725 101.985 16 101.981C16.275 101.978 17.523 100.395 18.774 98.464C21.047 94.956 21.049 94.927 20.774 58.965C20.533 27.284 20.68 23.055 22 23.63C24.988 24.931 28.778 25.168 29.441 24.096C31.579 20.636 32 25.011 32 50.708V78.416L36.518 73.983L41.035 69.549L40.768 46.025L40.5 22.5L37.733 22.182C36.211 22.007 35.225 21.445 35.542 20.932C35.859 20.419 34.993 20 33.618 20C32.243 20 30.84 19.55 30.5 19C30.16 18.45 28.109 18 25.941 18C23.773 18 22 18.45 22 19ZM95.667 19.667C94.287 21.046 95.076 25.452 97.086 27.591C98.818 29.435 99.688 29.663 102.221 28.936C103.899 28.455 105.519 27.815 105.821 27.512C106.551 26.782 98.911 19 97.464 19C96.842 19 96.033 19.3 95.667 19.667ZM54.25 21.75C52.059 23.205 52 23.702 52 40.83V58.416L56.5 54L61 49.584V37.226C61 21.836 59.455 18.293 54.25 21.75ZM90.568 28.099L87.692 31.147L90.348 33.802L93.003 36.458L96.024 33.437L99.045 30.417L96.245 27.734L93.445 25.052L90.568 28.099ZM93 31C93 31.55 93.477 32 94.059 32C94.641 32 94.84 31.55 94.5 31C94.16 30.45 93.684 30 93.441 30C93.198 30 93 30.45 93 31ZM83.681 35.18L80.862 38.224L83.105 40.612C84.339 41.925 85.867 43 86.5 43C87.887 43 92 38.782 92 37.36C92 36.356 87.771 31.937 86.936 32.068C86.696 32.106 85.231 33.506 83.681 35.18ZM52.8 58.721C40.26 71.218 30 81.934 30 82.534C30 83.135 31.252 84.825 32.781 86.291L35.563 88.955L56.022 68.478L76.482 48H82.96H89.437L83.5 42C80.234 38.7 77.121 36 76.581 36C76.041 36 65.34 46.225 52.8 58.721ZM56.741 68.759C45.883 79.627 37 88.998 37 89.585C37 90.883 41.252 95 42.592 95C43.681 95 88 50.787 88 49.701C88 49.315 85.408 49 82.241 49H76.481L56.741 68.759ZM55.703 83.792C52.55 87.021 52.001 88.247 52.005 92.042C52.008 95.2 52.687 97.346 54.331 99.4L56.651 102.3L58.826 98.782C60.561 95.974 61 93.723 61 87.632C61 83.434 60.641 80 60.203 80C59.765 80 57.74 81.706 55.703 83.792ZM32 91.184C32 95.513 34.534 101.979 36.237 101.994C36.642 101.997 37.669 100.334 38.52 98.298L40.067 94.596L36.033 90.563L32 86.529V91.184Z" fill="#145EAB"/>
</svg>
