<svg width="75" height="74" viewBox="0 0 75 74" fill="none" xmlns="http://www.w3.org/2000/svg">
<path d="M69.8529 21.1463H54.6838C55.4623 20.6444 56.2 20.0788 56.8897 19.455C57.9298 18.5033 58.7677 17.3416 59.3509 16.0425C59.9342 14.7434 60.2502 13.3347 60.2794 11.9044C60.3245 10.3311 60.0564 8.76488 59.4914 7.3017C58.9264 5.83852 58.0764 4.50918 56.9936 3.39513C55.9108 2.28107 54.6178 1.40575 53.194 0.822783C51.7702 0.239815 50.2455 -0.0385276 48.7132 0.00480644C47.3204 0.034765 45.9486 0.359335 44.6835 0.958239C43.4183 1.55714 42.287 2.41751 41.3603 3.4856C39.6573 5.54934 38.3477 7.92378 37.5 10.4849C36.6541 7.92568 35.3471 5.5526 33.6471 3.48938C32.7198 2.41968 31.5875 1.55806 30.321 0.958467C29.0545 0.358872 27.6811 0.0342101 26.2868 0.00480644C24.7536 -0.0405981 23.2276 0.236085 21.8023 0.817887C20.377 1.39969 19.0825 2.27434 17.9981 3.38821C16.9137 4.50208 16.0624 5.83167 15.4963 7.29545C14.9301 8.75923 14.6612 10.3263 14.7059 11.9007C14.7351 13.3309 15.0511 14.7396 15.6344 16.0387C16.2176 17.3379 17.0555 18.4995 18.0956 19.4512C18.7846 20.0759 19.5224 20.6416 20.3015 21.1425H5.14706C4.47083 21.1425 3.80123 21.2794 3.17652 21.5452C2.55181 21.8111 1.98424 22.2007 1.50624 22.6919C1.02824 23.1831 0.64919 23.7662 0.390742 24.4079C0.132294 25.0496 -0.000481709 25.7373 1.31315e-06 26.4317V38.5125C1.31315e-06 39.9143 0.542279 41.2586 1.50754 42.2498C2.4728 43.241 3.78198 43.7979 5.14706 43.7979H5.88235V68.7146C5.88235 70.1164 6.42463 71.4608 7.38989 72.452C8.35515 73.4432 9.66433 74 11.0294 74H63.9706C65.3357 74 66.6448 73.4432 67.6101 72.452C68.5754 71.4608 69.1176 70.1164 69.1176 68.7146V43.7979H69.8529C71.218 43.7979 72.5272 43.241 73.4925 42.2498C74.4577 41.2586 75 39.9143 75 38.5125V26.4317C75 25.0299 74.4577 23.6855 73.4925 22.6943C72.5272 21.7031 71.218 21.1463 69.8529 21.1463ZM40.3566 16.9935C41.1838 12.4179 42.6691 8.7823 44.6544 6.47939C45.1857 5.87731 45.832 5.39397 46.553 5.05948C47.2741 4.72499 48.0545 4.5465 48.8456 4.53512H49.0478C49.9624 4.53523 50.8678 4.72376 51.7102 5.08956C52.5527 5.45535 53.3151 5.99097 53.9523 6.66472C54.5896 7.33847 55.0887 8.13665 55.4203 9.01201C55.7518 9.88738 55.9089 10.8221 55.8824 11.761C55.8699 12.5742 55.6943 13.3761 55.3667 14.1166C55.039 14.857 54.5663 15.5202 53.9779 16.0648C50.0368 19.6362 43.3529 20.7046 39.8309 21.0142C39.9228 19.9231 40.0735 18.5338 40.3566 16.9935ZM21.1213 6.59264C22.4046 5.27973 24.1408 4.54027 25.9522 4.53512H26.1544C26.9464 4.54794 27.7273 4.7282 28.4484 5.06466C29.1695 5.40113 29.8153 5.88657 30.3456 6.49071C33.8235 10.5378 34.864 17.4012 35.1654 21.0179C34.1029 20.9236 32.75 20.7612 31.2647 20.4781C26.8088 19.6362 23.2684 18.1034 21.0257 16.061C20.4365 15.5178 19.9629 14.8555 19.6345 14.1156C19.3062 13.3756 19.1302 12.574 19.1176 11.761C19.0923 10.8049 19.2569 9.85359 19.6013 8.965C19.9458 8.07641 20.463 7.26921 21.1213 6.59264ZM4.41177 38.5125V26.4317C4.41177 26.2314 4.48923 26.0394 4.62713 25.8978C4.76502 25.7562 4.95205 25.6766 5.14706 25.6766H35.2941V39.2676H5.14706C4.95205 39.2676 4.76502 39.188 4.62713 39.0464C4.48923 38.9048 4.41177 38.7128 4.41177 38.5125ZM10.2941 68.7146V43.7979H35.2941V69.4697H11.0294C10.8344 69.4697 10.6474 69.3901 10.5095 69.2485C10.3716 69.1069 10.2941 68.9149 10.2941 68.7146ZM64.7059 68.7146C64.7059 68.9149 64.6284 69.1069 64.4905 69.2485C64.3526 69.3901 64.1656 69.4697 63.9706 69.4697H39.7059V43.7979H64.7059V68.7146ZM70.5882 38.5125C70.5882 38.7128 70.5108 38.9048 70.3729 39.0464C70.235 39.188 70.048 39.2676 69.8529 39.2676H39.7059V25.6766H69.8529C70.048 25.6766 70.235 25.7562 70.3729 25.8978C70.5108 26.0394 70.5882 26.2314 70.5882 26.4317V38.5125Z" fill="#D4FF8E"/>
</svg>
