<svg width="43" height="42" viewBox="0 0 43 42" fill="none" xmlns="http://www.w3.org/2000/svg">
<g clip-path="url(#clip0_612_351)">
<path fill-rule="evenodd" clip-rule="evenodd" d="M3.45957 26.1189C3.44416 26.1468 3.47321 26.9767 3.54673 28.6084V28.6187C4.58229 28.4102 5.63873 28.3238 6.69441 28.3613L6.60819 25.9131C5.35861 25.5759 4.30907 25.6444 3.45957 26.1186" fill="white"/>
<path fill-rule="evenodd" clip-rule="evenodd" d="M11.4738 26.471C10.9188 26.311 10.3484 26.2103 9.77222 26.1705L9.86968 28.9614C10.9318 29.2411 11.9945 29.5415 13.0577 29.8627L12.9546 26.9037C12.441 26.7491 11.9272 26.6004 11.4132 26.4576L11.4738 26.471Z" fill="white"/>
<path fill-rule="evenodd" clip-rule="evenodd" d="M16.144 27.9765L16.2481 30.9495C17.3115 31.2453 18.3723 31.4926 19.4307 31.6915L19.3267 28.715C18.2689 28.5125 17.2084 28.272 16.1444 27.9765" fill="white"/>
<path fill-rule="evenodd" clip-rule="evenodd" d="M22.4849 28.729L22.5889 31.7102C23.7737 31.3775 24.8438 30.7245 25.6816 29.823L25.5729 26.7057C24.7688 27.6727 23.6939 28.3773 22.4864 28.729" fill="white"/>
<path fill-rule="evenodd" clip-rule="evenodd" d="M22.589 32.1631C21.5381 32.2692 20.4786 32.2561 19.4307 32.1241L19.5347 35.099C20.5823 35.235 21.642 35.2497 22.693 35.1427L22.589 32.1631Z" fill="white"/>
<path fill-rule="evenodd" clip-rule="evenodd" d="M25.7886 33.3931C24.9188 34.2252 23.8547 34.8266 22.6931 35.1425L22.7971 38.1236C23.9371 37.8212 24.9959 37.2698 25.8973 36.5092L25.7886 33.3931Z" fill="white"/>
<path fill-rule="evenodd" clip-rule="evenodd" d="M19.6395 38.0755L19.5342 35.0984C18.4765 34.9037 17.415 34.6488 16.3516 34.3549L16.4547 37.3282C17.5187 37.6222 18.5811 37.8827 19.6379 38.0748" fill="white"/>
<path fill-rule="evenodd" clip-rule="evenodd" d="M16.3519 34.3553L16.2479 31.3819C15.1857 31.072 14.1236 30.7443 13.0583 30.4178L13.1614 33.3753C14.2255 33.7083 15.291 34.0391 16.3519 34.3556" fill="white"/>
<path fill-rule="evenodd" clip-rule="evenodd" d="M13.2647 36.3339L13.1616 33.3749C12.0994 33.049 11.0365 32.7448 9.97266 32.4624L10.0751 35.4111C11.1373 35.6938 12.2031 36.0047 13.2647 36.3339Z" fill="white"/>
<path fill-rule="evenodd" clip-rule="evenodd" d="M9.97235 32.0585L9.86926 29.1117C8.82062 28.8799 7.76086 28.7016 6.69409 28.5775L6.79718 31.5299C7.86481 31.6451 8.92494 31.8215 9.97235 32.0582" fill="white"/>
<path fill-rule="evenodd" clip-rule="evenodd" d="M6.8997 34.8868L6.79661 31.9344C5.73967 31.8998 4.68262 32.0002 3.65112 32.2334L3.75577 35.228C4.7833 34.9703 5.84145 34.8555 6.90033 34.8868" fill="white"/>
<path fill-rule="evenodd" clip-rule="evenodd" d="M8.72752 13.5623C8.70502 13.939 9.50444 14.0309 9.49882 14.8824C9.49319 15.734 9.44321 19.3869 9.67626 19.9542C9.9093 20.5215 10.7087 20.7376 10.7087 20.7376C10.9317 20.636 11.1288 20.4851 11.2851 20.2962C11.5116 20.0048 11.6259 19.0735 11.6259 19.0735L15.9369 17.1679C15.7543 17.577 15.673 18.024 15.6998 18.4712C15.7483 18.7833 15.9067 19.0677 16.1466 19.2731C16.1466 19.2731 12.8923 20.096 12.5472 20.8629C12.202 21.6298 12.4416 21.2921 12.5512 22.2434C12.6609 23.1946 13.6565 25.8621 13.6565 25.8621L15.5308 26.4972L15.239 24.8797L14.3112 24.4495C14.3112 24.4495 13.7243 23.1531 13.8358 22.5483C13.8491 22.4688 13.879 22.393 13.9235 22.3259C13.9681 22.2587 14.0263 22.2017 14.0943 22.1586C14.1624 22.1154 14.2388 22.0871 14.3185 22.0754C14.3982 22.0638 14.4795 22.0691 14.5571 22.0909C14.6584 22.3672 14.7772 22.6367 14.9129 22.8978C15.2031 23.4948 17.3496 24.9243 17.3496 24.9243L19.2552 24.4383L18.2555 23.5448L17.4745 23.865C17.4745 23.865 16.225 22.8066 16.1234 22.4108C16.0219 22.015 17.8985 21.8376 17.8985 21.8376C17.8985 21.8376 20.2039 23.3908 21.9714 23.9016C23.739 24.4123 25.3665 23.4386 26.7117 24.2352C28.0569 25.0318 26.7151 24.2411 26.7151 24.2411C26.7811 24.8664 26.8942 25.4857 27.0535 26.0939C27.2721 26.8018 28.8735 28.1595 29.1465 29.3644C29.4195 30.5693 29.9565 32.9457 29.9565 32.9457L31.6969 37.5691L32.2176 36.3564L31.7428 35.8525L31.268 33.7092L31.2155 31.1516L31.9427 32.8598L32.6665 36.7366L33.1517 38.123L33.9296 36.6453L33.4041 36.2508L32.7793 33.1512C32.7793 33.1512 33.0067 31.106 33.0374 30.057C33.068 29.0079 31.8553 27.8621 31.8521 27.2498C31.849 26.6375 32.9543 24.6735 33.1145 23.5948C33.2748 22.5161 32.5922 21.2812 32.5922 21.2812C32.5922 21.2812 33.67 21.1956 34.2326 21.7945C34.7952 22.3933 35.8439 23.4761 36.0963 23.95C36.3487 24.4239 37.8426 27.2754 38.0363 27.2695C38.23 27.2635 37.0004 24.536 37.1406 24.5173C37.2809 24.4985 41.0109 29.2985 41.3542 29.2804C41.6975 29.2622 40.0871 25.4154 40.099 25.2755C40.1109 25.1355 40.96 25.9627 41.005 25.814C41.0499 25.6653 39.6048 23.5504 38.8163 22.9119C38.0278 22.2734 36.3828 20.8501 35.3622 20.6086C34.3416 20.3671 32.4329 20.5864 32.4329 20.5864C32.4329 20.5864 32.6869 20.5636 32.3257 20.0866C31.9646 19.6096 31.2989 18.8655 29.6463 18.7174C27.9938 18.5693 27.9906 18.6218 26.9313 18.4066C25.872 18.1913 25.588 17.3978 25.3659 17.2657C25.1438 17.1336 26.5389 16.8549 27.1337 17.0886C27.7285 17.3222 27.4596 16.6653 27.2321 16.4441C27.0047 16.2229 24.4125 15.8868 24.743 15.953C25.0735 16.0192 26.3568 14.7566 26.448 13.9225C26.5006 13.2949 26.3299 12.669 25.966 12.1549C25.3927 11.4647 24.6831 10.9002 23.8817 10.4968C23.0023 10.0775 21.9449 9.94195 21.7887 9.80137C21.6325 9.66079 21.8512 9.14534 21.9346 8.85294C22.018 8.56054 21.5922 8.13131 21.2055 7.99761C20.8639 7.8645 20.489 7.84264 20.1343 7.93513C19.6741 8.02323 19.6657 8.72767 19.6657 8.72767C19.6657 8.72767 19.0521 9.05975 19.1087 9.15534C19.1652 9.25093 19.3361 9.18845 19.4785 9.21782C19.621 9.24718 19.4382 10.3627 19.6753 10.5702C19.9125 10.7776 20.5885 10.5914 20.5885 10.5914C20.5885 10.5914 20.3773 10.737 20.3595 10.8835C20.3417 11.03 20.9496 11.721 20.9446 12.0565C20.9396 12.392 20.4901 13.4757 19.9918 13.4098C19.4935 13.3439 17.0553 11.8166 17.0553 11.8166C17.0411 11.6655 17.0645 11.5131 17.1234 11.3732C17.1823 11.2333 17.2749 11.1101 17.393 11.0147C17.7879 10.7385 16.428 11.134 16.0831 11.1825C15.7383 11.2309 16.7135 10.5102 16.562 10.4889C16.4105 10.4677 14.5749 10.9794 14.4178 10.9741C14.2606 10.9688 15.0579 10.4296 15.0079 10.344C14.9579 10.2584 13.6471 10.8979 13.4053 10.8607C13.1635 10.8235 13.614 10.438 13.5868 10.3068C13.5596 10.1756 12.1289 10.9132 11.789 11.5077C11.6865 11.6864 11.9052 10.9554 11.8365 10.8385C11.7677 10.7217 11.1098 11.6145 10.9746 12.269C10.8852 12.7041 10.9852 11.4433 10.7506 11.9834C10.516 12.5236 10.1177 13.4445 10.1177 13.4445L10.0371 13.4926C10.0371 13.4926 8.75063 13.1855 8.72752 13.5623ZM21.0714 14.0762C20.8859 13.9746 22.2492 13.0906 22.574 13.3577C22.8989 13.6248 23.1489 14.9777 22.898 14.8684C22.6471 14.7591 21.2567 14.1771 21.0714 14.0762ZM12.0483 18.2241C12.2442 18.0786 12.4128 17.8997 12.5465 17.6956C12.7435 17.3277 12.8452 16.9164 12.8424 16.4991C12.8424 16.4991 13.2647 15.6769 13.9595 15.7225C14.6542 15.7681 15.6095 16.6597 15.6095 16.6597L12.0483 18.2241Z" fill="white"/>
<path d="M7.59586 7.44794C7.79376 7.45047 7.99111 7.46924 8.18592 7.50408C8.50238 7.56596 8.80614 7.68074 9.08443 7.8436C11.404 5.72903 14.2368 4.25864 17.301 3.57869C20.3652 2.89874 23.5541 3.03295 26.5503 3.96795C29.5466 4.90295 32.2458 6.60616 34.3795 8.90815C36.5132 11.2101 38.007 14.0307 38.7123 17.0892C38.8421 17.6506 38.9436 18.2183 39.0165 18.79L40.4114 19.4939C40.0987 15.8374 38.7497 12.346 36.5225 9.42928C34.2953 6.51257 31.2824 4.2916 27.8374 3.02699C24.3924 1.76238 20.6581 1.5066 17.0728 2.28966C13.4875 3.07273 10.1999 4.86215 7.59586 7.44794Z" fill="white"/>
</g>
<defs>
<clipPath id="clip0_612_351">
<rect width="43" height="42" fill="white"/>
</clipPath>
</defs>
</svg>
