<?xml version="1.0" encoding="UTF-8"?>
<svg width="15px" height="15px" viewBox="0 0 15 15" version="1.1" xmlns="http://www.w3.org/2000/svg" xmlns:xlink="http://www.w3.org/1999/xlink">
    <title>icon-tips-type02</title>
    <g id="icon-set最新整理" stroke="none" stroke-width="1" fill="none" fill-rule="evenodd">
        <g id="images/h5/icon-set" transform="translate(-121.000000, -333.000000)" fill="#FCA1A1" fill-rule="nonzero">
            <g id="icon-tips-type02" transform="translate(121.000000, 333.000000)">
                <path d="M12.8033203,2.1966797 C11.3867285,0.7801465 9.5033203,0 7.5,0 C5.4966797,0 3.6132715,0.7801465 2.1966797,2.1966797 C0.7801465,3.6132715 0,5.4966797 0,7.5 C0,9.5033203 0.7801465,11.3867285 2.1966797,12.8033203 C3.6132715,14.2198535 5.4966797,15 7.5,15 C9.5033203,15 11.3867285,14.2198535 12.8033203,12.8033203 C14.2198535,11.3867285 15,9.5033203 15,7.5 C15,5.4966797 14.2198535,3.6132715 12.8033203,2.1966797 Z M7.5,2.0507812 C8.3884863,2.0507812 9.1113281,2.773623 9.1113281,3.6621094 C9.1113281,4.5505957 8.3884863,5.2734375 7.5,5.2734375 C6.6115137,5.2734375 5.8886719,4.5505957 5.8886719,3.6621094 C5.8886719,2.773623 6.6115137,2.0507812 7.5,2.0507812 Z M9.5507812,12.3046875 L5.4492188,12.3046875 L5.4492188,11.4257812 L6.328125,11.4257812 L6.328125,7.03125 L5.4492188,7.03125 L5.4492188,6.1523438 L8.671875,6.1523438 L8.671875,11.4257812 L9.5507812,11.4257812 L9.5507812,12.3046875 Z" id="形状"></path>
            </g>
        </g>
    </g>
</svg>