<svg width="108" height="101" viewBox="0 0 108 101" fill="none" xmlns="http://www.w3.org/2000/svg">
<g clip-path="url(#clip0_614_371)">
<path d="M24.7087 100.723C23.5217 100.723 22.9137 100.072 22.5387 98.3978C22.1637 96.7238 22.0114 94.012 22.0114 88.725V80.0248L13.9118 79.225C6.81179 78.615 3.32762 78.0712 1.58562 72.4252C-0.162378 66.7562 -0.0942844 56.19 0.206716 34.725C0.413716 19.874 0.632825 12.5251 1.36882 8.26013C1.53761 6.64279 2.10004 5.09095 3.0075 3.74158C3.77258 2.83979 4.77877 2.17428 5.90789 1.82263C9.50789 0.384632 12.494 0.0491943 33.654 0.0491943C39.681 0.0491943 47.3544 0.0793896 57.0094 0.12439C89.0294 0.21539 100.009 0.57839 102.209 1.62439C103.866 2.56902 105.193 3.99997 106.009 5.724C106.738 7.586 107.213 20.0522 107.308 39.9242C107.508 69.0612 107.272 71.5758 105.709 74.0238C104.592 75.7097 103.036 77.0587 101.209 77.9242C99.6087 78.5242 89.3647 78.9242 75.7087 78.9242H53.0094L48.2087 83.1244C44.2947 86.6114 38.961 90.9367 33.945 94.6957C28.912 98.4707 25.4607 100.723 24.7087 100.723ZM58.3083 6.0072C40.7983 6.0072 20.6205 6.19739 15.0094 6.62439L7.50945 7.224L7.00945 16.724C6.70945 21.93 6.70945 36.51 7.00945 49.224L7.50945 72.224L16.4079 72.5238C21.5969 72.7338 26.0257 73.3372 26.7087 73.9242C27.5837 74.6032 28.0094 77.5126 28.0094 82.8236C28.0094 87.4756 28.3363 90.724 28.8083 90.724C29.1933 90.724 32.3747 88.145 36.2087 84.724C36.8907 84.149 37.617 83.5329 38.32 82.9359L38.9919 82.3656C41.8469 79.9356 45.0836 77.1818 46.7106 76.0238L50.3102 73.224L75.4098 72.724L100.511 72.224V7.224L95.0114 6.5238C91.6704 6.1668 74.1693 6.0072 58.3083 6.0072ZM41.5134 50.0209C39.9064 50.0209 35.0141 50.0213 30.8141 49.9213C23.3061 49.7213 23.0134 49.6257 23.0134 47.3207C23.0134 45.8207 23.7211 44.7209 24.8141 44.5209C28.4054 44.1745 32.0143 44.0521 35.6208 44.1547C44.9278 44.1547 56.0814 44.4903 56.5114 44.9213C56.9114 45.2213 56.9114 46.5305 56.5114 47.6215L56.4743 47.7367C55.8473 49.7297 55.8472 49.7298 43.2692 49.9828L41.5134 50.0209ZM52.4137 35.7211H23.0134V29.7211H85.0134V32.1215C85.0134 33.4555 84.2817 34.8295 83.4137 35.1215C82.5457 35.4135 69.1227 35.723 52.4137 35.723V35.7211Z" fill="white"/>
</g>
<defs>
<clipPath id="clip0_614_371">
<rect width="107.393" height="100.773" fill="white"/>
</clipPath>
</defs>
</svg>
