<?xml version="1.0" encoding="UTF-8"?>
<svg width="20px" height="18px" viewBox="0 0 20 18" version="1.1" xmlns="http://www.w3.org/2000/svg" xmlns:xlink="http://www.w3.org/1999/xlink">
    <title>icon-table</title>
    <g id="icon-set最新整理" stroke="none" stroke-width="1" fill="none" fill-rule="evenodd">
        <g id="images/h5/icon-set" transform="translate(-689.000000, -1042.000000)" fill="#FFFFFF" fill-rule="nonzero">
            <g id="icon-table" transform="translate(689.000000, 1042.000000)">
                <path d="M18.125,0 L1.875,0 C0.839453,0 0,0.8634375 0,1.92857143 L0,16.0714286 C0,17.1365625 0.839453,18 1.875,18 L18.125,18 C19.160547,18 20,17.1365625 20,16.0714286 L20,1.92857143 C20,0.8634375 19.160547,0 18.125,0 Z M8.75,15.4285714 L2.5,15.4285714 L2.5,11.5714286 L8.75,11.5714286 L8.75,15.4285714 Z M8.75,9 L2.5,9 L2.5,5.1428571 L8.75,5.1428571 L8.75,9 Z M17.5,15.4285714 L11.25,15.4285714 L11.25,11.5714286 L17.5,11.5714286 L17.5,15.4285714 Z M17.5,9 L11.25,9 L11.25,5.1428571 L17.5,5.1428571 L17.5,9 Z"></path>
            </g>
        </g>
    </g>
</svg>