<?xml version="1.0" encoding="UTF-8"?>
<svg width="15px" height="15px" viewBox="0 0 15 15" version="1.1" xmlns="http://www.w3.org/2000/svg" xmlns:xlink="http://www.w3.org/1999/xlink">
    <title>形状</title>
    <g id="login" stroke="none" stroke-width="1" fill="none" fill-rule="evenodd">
        <g id="login-3" transform="translate(-779.000000, -255.000000)" fill="#FCA1A1" fill-rule="nonzero">
            <g id="說明备份" transform="translate(759.000000, 237.000000)">
                <path d="M32.8033203,20.1966797 C31.3867285,18.7801465 29.5033203,18 27.5,18 C25.4966797,18 23.6132715,18.7801465 22.1966797,20.1966797 C20.7801465,21.6132715 20,23.4966797 20,25.5 C20,27.5033203 20.7801465,29.3867285 22.1966797,30.8033203 C23.6132715,32.2198535 25.4966797,33 27.5,33 C29.5033203,33 31.3867285,32.2198535 32.8033203,30.8033203 C34.2198535,29.3867285 35,27.5033203 35,25.5 C35,23.4966797 34.2198535,21.6132715 32.8033203,20.1966797 Z M27.5,20.0507812 C28.3884863,20.0507812 29.1113281,20.773623 29.1113281,21.6621094 C29.1113281,22.5505957 28.3884863,23.2734375 27.5,23.2734375 C26.6115137,23.2734375 25.8886719,22.5505957 25.8886719,21.6621094 C25.8886719,20.773623 26.6115137,20.0507812 27.5,20.0507812 Z M29.5507812,30.3046875 L25.4492188,30.3046875 L25.4492188,29.4257812 L26.328125,29.4257812 L26.328125,25.03125 L25.4492188,25.03125 L25.4492188,24.1523438 L28.671875,24.1523438 L28.671875,29.4257812 L29.5507812,29.4257812 L29.5507812,30.3046875 Z" id="形状"></path>
            </g>
        </g>
    </g>
</svg>