<svg width="119" height="119" viewBox="0 0 119 119" fill="none" xmlns="http://www.w3.org/2000/svg">
<g clip-path="url(#clip0_614_392)">
<path d="M112.446 38.4844L87.9531 13.9918C86.7328 12.7726 85.0784 12.0878 83.3534 12.0878C81.6285 12.0878 79.9741 12.7726 78.7538 13.9918L28.8668 63.8788C27.6476 65.0991 26.9628 66.7535 26.9628 68.4784C26.9628 70.2034 27.6476 71.8578 28.8668 73.0781L39.1398 83.3511L16.6228 105.873C16.3488 106.128 16.129 106.436 15.9766 106.778C15.8241 107.12 15.7421 107.49 15.7355 107.864C15.7289 108.239 15.7978 108.611 15.9381 108.958C16.0784 109.305 16.2872 109.621 16.552 109.885C16.8168 110.15 17.1323 110.359 17.4796 110.499C17.8269 110.64 18.1989 110.709 18.5734 110.702C18.9479 110.695 19.3172 110.613 19.6593 110.461C20.0014 110.308 20.3093 110.089 20.5647 109.815L43.0864 87.2976L53.3594 97.5707C54.5797 98.7899 56.2341 99.4747 57.959 99.4747C59.684 99.4747 61.3384 98.7899 62.5587 97.5707L112.446 47.6836C113.665 46.4634 114.35 44.809 114.35 43.084C114.35 41.3591 113.665 39.7047 112.446 38.4844ZM58.6168 93.6288C58.5304 93.7152 58.4279 93.7838 58.315 93.8306C58.2022 93.8774 58.0812 93.9015 57.959 93.9015C57.8369 93.9015 57.7159 93.8774 57.603 93.8306C57.4902 93.7838 57.3876 93.7152 57.3013 93.6288L47.0282 83.3511L61.4709 68.9084C61.9636 68.3797 62.2318 67.6804 62.219 66.9578C62.2063 66.2353 61.9136 65.5459 61.4026 65.0349C60.8916 64.5239 60.2022 64.2312 59.4796 64.2184C58.7571 64.2057 58.0578 64.4739 57.5291 64.9665L43.0864 79.4092L32.8087 69.1362C32.7222 69.0498 32.6537 68.9473 32.6069 68.8345C32.5601 68.7216 32.536 68.6006 32.536 68.4784C32.536 68.3563 32.5601 68.2353 32.6069 68.1224C32.6537 68.0096 32.7222 67.907 32.8087 67.8207L49.4966 51.1328H75.3047V76.9409L58.6168 93.6288ZM108.504 43.7418L80.8828 71.3628V48.3437C80.8828 47.604 80.589 46.8946 80.0659 46.3716C79.5429 45.8485 78.8334 45.5547 78.0937 45.5547H55.0747L82.6957 17.9336C82.782 17.8472 82.8846 17.7786 82.9974 17.7319C83.1103 17.6851 83.2313 17.661 83.3534 17.661C83.4756 17.661 83.5966 17.6851 83.7095 17.7319C83.8223 17.7786 83.9249 17.8472 84.0112 17.9336L108.504 42.4263C108.59 42.5126 108.659 42.6151 108.706 42.728C108.752 42.8409 108.776 42.9618 108.776 43.084C108.776 43.2062 108.752 43.3272 108.706 43.44C108.659 43.5529 108.59 43.6554 108.504 43.7418ZM27.8906 39.9765C30.281 39.9765 32.6177 39.2677 34.6052 37.9397C36.5927 36.6117 38.1418 34.7241 39.0566 32.5157C39.9713 30.3073 40.2107 27.8772 39.7443 25.5328C39.278 23.1883 38.1269 21.0348 36.4367 19.3446C34.7464 17.6543 32.5929 16.5032 30.2485 16.0369C27.904 15.5706 25.4739 15.8099 23.2655 16.7247C21.0571 17.6394 19.1695 19.1885 17.8415 21.176C16.5135 23.1635 15.8047 25.5002 15.8047 27.8906C15.8047 31.096 17.078 34.1701 19.3446 36.4366C21.6111 38.7032 24.6852 39.9765 27.8906 39.9765ZM27.8906 21.3828C29.1777 21.3828 30.436 21.7645 31.5062 22.4796C32.5764 23.1946 33.4105 24.211 33.903 25.4002C34.3956 26.5893 34.5245 27.8978 34.2734 29.1602C34.0223 30.4226 33.4025 31.5822 32.4923 32.4923C31.5822 33.4025 30.4226 34.0223 29.1602 34.2734C27.8978 34.5245 26.5893 34.3956 25.4002 33.903C24.211 33.4105 23.1947 32.5764 22.4796 31.5061C21.7645 30.4359 21.3828 29.1777 21.3828 27.8906C21.3828 26.1646 22.0684 24.5093 23.2889 23.2889C24.5093 22.0684 26.1646 21.3828 27.8906 21.3828Z" fill="white"/>
</g>
<defs>
<clipPath id="clip0_614_392">
<rect width="118.039" height="119.009" fill="white"/>
</clipPath>
</defs>
</svg>
