<svg width="116" height="107" viewBox="0 0 116 107" fill="none" xmlns="http://www.w3.org/2000/svg">
<g clip-path="url(#clip0_614_359)">
<path d="M56.7544 106.54C46.0274 106.492 39.9382 106.417 36.4282 106.14C32.9942 105.87 31.9286 105.409 30.9536 104.54C29.6852 103.355 28.6654 101.929 27.9536 100.346C27.5706 99.3361 27.2699 98.7464 25.5669 98.4564C23.9359 98.1734 21.1408 98.1439 15.1548 98.1439C14.4768 98.1439 13.8305 98.1439 13.2115 98.1439H12.6294H11.5865C6.35445 98.1439 3.71523 97.971 2.13723 96.392C0.0372319 94.285 0.0372474 89.6727 0.0532474 79.5687C0.0532474 78.7021 0.0532474 77.7926 0.0532474 76.8392C0.0532474 66.2842 0.294794 60.2085 1.61379 56.2885C2.93779 52.3525 5.32629 50.6241 9.55129 48.6371C11.814 47.6681 14.2585 47.197 16.7193 47.2553C19.7884 47.2285 22.8296 47.8363 25.6529 49.0404C27.9797 50.0952 30.0578 51.6285 31.7525 53.5404C32.9405 55.0644 33.8651 56.0101 34.8091 56.0101C35.6611 56.0101 36.5259 55.2574 37.6489 54.0414C39.8682 51.7161 42.6396 49.9899 45.7056 49.0248C49.1666 47.8795 52.7926 47.3107 56.438 47.3402C59.9567 47.343 63.459 47.8203 66.8501 48.7592C70.1967 49.6634 73.3726 51.1108 76.2505 53.0433L82.0513 57.0433L84.1509 54.0433C85.5774 51.9936 87.5402 50.3751 89.8247 49.3666C92.4285 48.2829 95.2321 47.764 98.0513 47.8432C101.102 47.7531 104.134 48.3336 106.936 49.5433C109.435 50.6953 111.556 52.5331 113.051 54.8432C115.477 58.4872 115.551 59.1068 115.551 76.9428C115.551 77.7678 115.551 78.5528 115.551 79.3158C115.551 79.6618 115.551 80.0032 115.551 80.3402C115.572 90.0302 115.582 94.4529 113.561 96.4789C112.672 97.2842 111.545 97.7778 110.35 97.8842C108.515 98.114 106.665 98.2044 104.817 98.1557C104.229 98.1557 103.61 98.1557 102.956 98.1557H102.84C102.14 98.1557 101.26 98.1478 100.35 98.1478H89.0493L87.3501 101.648C86.9545 102.614 86.3696 103.492 85.6314 104.23C84.8931 104.968 84.0155 105.552 83.0493 105.948C81.7893 106.302 71.4654 106.54 56.7544 106.54ZM55.5552 53.4545C53.5654 53.3887 51.5765 53.6194 49.6548 54.14C44.1151 56.208 39.407 60.0378 36.2544 65.0404C33.6474 69.3534 33.5548 70.5316 33.1548 84.7396L32.854 99.8402L36.0552 100.54C37.9692 100.859 49.2308 101.14 60.1548 101.14H81.0552L82.0552 98.5404C82.6552 97.0134 83.0318 92.6299 83.0318 87.1019C83.095 82.3957 82.7686 77.6927 82.0552 73.0404C80.6392 65.7704 75.718 58.6214 70.354 56.0404C67.285 54.5404 61.0651 53.4515 55.5591 53.4515L55.5552 53.4545ZM98.9497 92.1439C99.8017 92.1439 100.583 92.1437 101.272 92.1537C101.856 92.1537 102.472 92.1635 103.04 92.1635C106.647 92.1635 108.44 91.9747 109.53 90.8627C111.108 89.2447 111.021 85.6368 110.829 77.7338V77.726L110.819 77.2709C110.796 76.2809 110.77 75.2569 110.747 74.1459C110.606 66.7969 110.304 61.9582 109.165 58.9682C108.034 56.0022 106.103 54.952 103.151 54.143C101.462 53.6145 99.7102 53.3173 97.9419 53.2592C96.0002 53.3108 94.093 53.7835 92.3521 54.6449C87.3321 56.8549 85.6657 61.1453 86.9517 68.5453C87.6619 73.4806 88.031 78.4586 88.0532 83.4447V92.1449L98.9497 92.1439ZM17.3501 54.1439C14.8105 54.0674 12.2939 54.6535 10.0493 55.8441C5.29134 59.1161 5.14934 59.6911 5.04934 76.3441V92.1439H26.7486L27.8501 80.3441C28.5101 74.2821 29.339 67.1821 29.649 65.3441C30.235 62.5941 29.8226 61.7199 26.2486 58.1439C22.8016 54.5859 21.802 54.14 17.354 54.14L17.3501 54.1439ZM17.0493 40.4437C14.8373 40.4674 12.6684 39.834 10.8169 38.6234C8.96544 37.4128 7.51439 35.6797 6.64895 33.6439C3.56095 27.2659 5.12973 21.3607 10.9497 17.4437C12.8704 16.0386 15.1796 15.2634 17.5591 15.224C19.4767 15.2528 21.3598 15.7392 23.0513 16.643C24.9446 17.5445 26.5323 18.9782 27.6236 20.7689C28.652 22.7306 29.1456 24.9291 29.0513 27.142C29.1939 30.6577 28.0161 34.1001 25.7505 36.7924C24.6473 37.9881 23.2995 38.9325 21.7993 39.5619C20.2991 40.1913 18.6813 40.4905 17.0552 40.4398L17.0493 40.4437ZM18.149 21.1439C16.6801 21.4113 15.3228 22.1071 14.2486 23.1439C13.2401 24.1059 12.5427 25.3464 12.2427 26.7074C11.9427 28.0684 12.0543 29.4878 12.565 30.7846C12.8849 31.7513 13.4977 32.5945 14.3189 33.1967C15.14 33.7988 16.1288 34.1304 17.147 34.1449C18.6805 33.9871 20.0903 33.2333 21.0728 32.0453C22.2179 30.9306 22.9212 29.438 23.0493 27.8451C23.0543 24.8401 20.3528 21.14 18.1548 21.14L18.149 21.1439ZM98.1099 40.101C96.3951 40.0783 94.7095 39.6548 93.188 38.8637C91.6665 38.0725 90.3516 36.9361 89.3482 35.5453C87.5761 33.379 86.6524 30.6422 86.7486 27.8451C86.7337 26.0804 87.0456 24.3283 87.6685 22.6771C88.2197 21.2221 89.0549 19.8912 90.1255 18.7621C91.1221 17.7041 92.3241 16.8612 93.6587 16.2855C94.9933 15.7099 96.4319 15.4142 97.8853 15.4154C99.6151 15.4582 101.316 15.8651 102.877 16.6107C104.439 17.3564 105.825 18.4232 106.946 19.7416C109.901 22.9906 110.255 23.6802 109.846 28.3422C109.6 31.6108 108.164 34.6759 105.809 36.9564C103.741 38.9492 100.988 40.073 98.1157 40.0971L98.1099 40.101ZM97.8111 21.101C97.0415 21.0967 96.28 21.2587 95.5786 21.5756C94.8773 21.8924 94.2521 22.3566 93.7466 22.9369C92.6409 24.3395 92.0737 26.0918 92.147 27.8764C92.1153 28.7115 92.2478 29.5444 92.5396 30.3275C92.8313 31.1107 93.2758 31.828 93.8462 32.4389C94.9693 33.5045 96.4525 34.1089 98.0005 34.1312C98.7909 34.1284 99.5731 33.9633 100.297 33.6469C101.022 33.3304 101.672 32.8694 102.211 32.2914C103.425 30.97 104.082 29.2307 104.045 27.4369C104.055 25.772 103.404 24.1708 102.237 22.9838C101.069 21.7967 99.4797 21.1204 97.815 21.1019L97.8111 21.101ZM58.7544 39.5551C58.2814 39.5551 57.754 39.5554 57.147 39.5394C53.053 39.4874 50.5402 39.0389 48.4732 37.9769C46.4062 36.9149 44.7289 35.234 42.6489 32.14C40.0795 28.5138 38.6404 24.2085 38.5122 19.766C38.5469 15.5523 39.9662 11.4669 42.5513 8.13905C44.3938 5.62087 46.7979 3.56813 49.5747 2.14491C52.2567 0.775244 55.2234 0.0562489 58.2349 0.0453C60.46 0.0427624 62.6666 0.446133 64.7466 1.23671C66.8282 2.10906 68.7293 3.36428 70.3482 4.9369C72.6373 7.05414 74.4249 9.65464 75.5845 12.5492C76.6663 15.2576 77.128 18.1745 76.9322 21.0844C76.7362 24.0521 75.872 26.9367 74.4048 29.5238C72.829 32.3 70.6584 34.6932 68.0493 36.5326C64.6643 39.1046 63.2733 39.556 58.7583 39.556L58.7544 39.5551ZM57.2642 5.55507C55.609 5.5356 53.9682 5.86821 52.4517 6.53163C50.4479 7.5099 48.6897 8.9253 47.3052 10.6732C45.9207 12.4212 44.9452 14.4577 44.4517 16.6322C44.0277 18.8802 44.7287 22.2321 46.3247 25.5951C47.9207 28.9581 50.0177 31.5417 51.9497 32.5307C53.8372 33.5223 55.9367 34.0433 58.0689 34.0482C60.2828 34.0652 62.4623 33.5 64.3892 32.4096C66.316 31.3192 67.9221 29.742 69.0474 27.8353C71.3094 24.2063 71.6816 16.0009 69.7466 12.4349C67.4786 8.38995 62.3441 5.56193 57.2681 5.56093L57.2642 5.55507Z" fill="white"/>
</g>
<defs>
<clipPath id="clip0_614_359">
<rect width="115.607" height="106.594" fill="white"/>
</clipPath>
</defs>
</svg>
