<svg width="119" height="119" viewBox="0 0 119 119" fill="none" xmlns="http://www.w3.org/2000/svg">
<g clip-path="url(#clip0_614_365)">
<path d="M80.7817 118.123C79.5021 118.11 78.2381 117.839 77.0649 117.328C75.8917 116.817 74.833 116.075 73.9516 115.148C72.2732 113.431 71.2358 111.19 71.0141 108.799C70.7386 106.458 71.3198 104.095 72.6508 102.15C74.0708 100.222 74.1372 99.2125 73.0512 96.1495L71.852 92.5499H59.352C55.7934 92.4914 52.2341 92.6253 48.6899 92.9503C46.7189 93.2293 46.0316 93.7279 45.4516 94.5499C44.5906 95.6917 44.1327 97.0868 44.1508 98.5167C44.1689 99.9466 44.6616 101.331 45.5512 102.45C48.4712 106.38 46.8342 113.063 42.0512 116.75C40.4494 117.677 38.6092 118.11 36.7622 117.993C35.1069 118.054 33.4606 117.73 31.9516 117.047C29.4336 115.636 27.0512 110.824 27.0512 107.147C27.2363 104.926 28.1462 102.828 29.6411 101.175C31.2331 99.2469 33.1142 98.0499 34.5512 98.0499C36.0894 97.9532 37.5527 97.3511 38.7133 96.337C39.9987 95.3474 40.9533 93.9908 41.4497 92.4464C41.9497 90.7364 40.9879 89.188 37.1489 85.546C34.3462 82.8284 31.8951 79.7718 29.8501 76.4464C28.5161 73.9824 26.7211 71.7374 25.8501 71.4464C25.5071 71.3479 25.1522 71.2983 24.7954 71.2999C23.6278 71.3611 22.5047 71.7694 21.5708 72.4728C20.6368 73.1762 19.9344 74.1429 19.5532 75.2482C18.7658 77.1013 17.6468 78.7956 16.2524 80.2482C15.4338 81.1653 14.4318 81.9003 13.311 82.4054C12.1902 82.9105 10.9759 83.174 9.74654 83.1798C8.49505 83.164 7.25955 82.9009 6.10982 82.4064C4.96009 81.9118 3.91951 81.1956 3.04732 80.298C1.08846 78.2777 0.00975358 75.5639 0.0473185 72.7501C-0.000133917 71.3972 0.220713 70.0483 0.697709 68.7814C1.17471 67.5145 1.89673 66.3549 2.82466 65.3693C3.68516 64.5054 4.71149 63.8225 5.84029 63.3615C6.96908 62.9005 8.17771 62.6702 9.39693 62.6847C12.5761 62.7819 15.598 64.0919 17.8422 66.3458C19.0552 67.4928 19.8211 67.8995 20.7661 67.8995C21.4797 67.8661 22.1828 67.7145 22.8461 67.4493C25.3361 66.5493 25.5473 66.037 26.0473 59.549C26.4047 55.3338 27.2435 51.1729 28.5473 47.1486L30.5473 41.8488L28.1469 39.9493C27.3202 39.1383 26.2364 38.6403 25.0825 38.5411C24.7586 38.5364 24.4386 38.6073 24.1469 38.7482C22.8238 39.3023 21.3993 39.5718 19.9653 39.5392C17.0283 39.5392 14.154 38.6015 12.643 37.1495C11.0528 35.7214 9.97094 33.8146 9.56099 31.7169C9.22918 29.8181 9.43737 27.8645 10.1645 26.0792C11.8145 21.8922 15.731 18.9689 19.686 18.9689C21.8974 19.0008 24.0192 19.8475 25.645 21.3468C27.845 23.2468 28.4461 24.7468 28.8461 29.3468C29.1391 33.0208 29.933 35.5466 31.145 36.6466C31.881 37.3386 32.3261 37.6691 32.8461 37.6691C33.6271 37.6691 34.5336 36.95 36.7446 35.049C40.9716 31.349 48.9671 27.3253 53.8461 26.4493C55.6211 26.1183 56.5696 25.6004 56.8286 24.8214C57.2236 23.6314 56.1303 21.7844 53.0473 18.4484C49.7583 14.8644 49.0473 13.3544 49.0473 9.94837C49.0244 8.63911 49.2617 7.33762 49.7465 6.12122C50.2314 4.90483 50.9523 3.7979 51.8696 2.86341C52.8225 1.94656 53.9469 1.22561 55.1782 0.743293C56.4094 0.260977 57.7252 0.0262163 59.0473 0.0518871C62.3873 0.0518871 63.8469 0.652278 66.1469 2.95228C67.0769 3.79011 67.822 4.811 68.3383 5.9513C68.8546 7.0916 69.1309 8.32663 69.1469 9.57825C69.0959 12.7613 67.1768 16.1495 63.4458 19.6515C61.2738 21.6735 60.4314 23.0625 60.7114 24.1515C61.0114 25.2915 62.5595 26.1523 65.7485 26.9523C71.5829 28.4152 76.9947 31.2226 81.5493 35.1515C83.5283 36.9515 84.4104 37.6915 85.1704 37.6915C85.7504 37.6915 86.2623 37.2579 87.0493 36.5509C88.5263 35.2749 89.0493 33.5207 89.0493 29.8507C89.0493 25.7937 89.5377 24.4653 91.9497 21.9513C92.8232 21.0507 93.867 20.3319 95.02 19.837C96.1729 19.3422 97.4119 19.0803 98.6665 19.0675C102.866 19.0675 106.551 21.9683 108.049 26.4533C108.58 28.5138 108.544 30.6791 107.946 32.7208C107.347 34.7626 106.208 36.6047 104.649 38.0529C103.549 38.9199 101.011 39.4806 98.1704 39.4806C96.6069 39.5092 95.0482 39.2972 93.5493 38.8517C93.1853 38.714 92.7978 38.6435 92.4086 38.6437C91.2647 38.7019 90.1796 39.1674 89.3481 39.9552L87.0493 41.8546L89.1489 46.5548C90.2939 49.0328 91.432 54.4156 91.854 59.3546C92.554 67.3136 92.649 67.5546 95.354 67.8546C95.5532 67.8761 95.7531 67.887 95.9536 67.8868C97.8967 67.7795 99.7382 66.987 101.153 65.6505C103.175 63.9236 105.741 62.9637 108.401 62.9386C109.698 62.922 110.985 63.1723 112.182 63.674C113.379 64.1756 114.46 64.9178 115.358 65.8546C116.807 67.3573 117.757 69.2718 118.077 71.3351C118.363 73.2637 118.106 75.2336 117.332 77.0236C116.608 78.7455 115.419 80.2321 113.899 81.3175C112.276 82.4576 110.337 83.0635 108.354 83.0499C106.248 83.0948 104.189 82.4308 102.506 81.1642C100.676 79.65 99.2779 77.6793 98.4536 75.4513C97.4476 73.1373 96.2132 72.0429 94.0532 71.5509C93.1103 71.3272 92.1483 71.1929 91.1801 71.1505C90.8681 71.1505 90.6857 71.1851 90.6547 71.2511C90.6077 71.2971 90.3051 71.8138 89.8481 72.5968L89.727 72.797C89.243 73.626 88.5104 74.8806 87.7504 76.1456C85.7761 79.3449 83.3893 82.2702 80.6508 84.8458C79.1446 86.1604 77.8656 87.7152 76.8657 89.4464C76.1682 90.5998 75.9223 91.9703 76.1762 93.2941C76.6942 95.4021 78.9055 97.001 82.7485 98.047C85.2462 98.5941 87.4952 99.9464 89.1489 101.897C89.8459 102.822 90.3465 103.88 90.6215 105.006C90.8966 106.132 90.94 107.302 90.7485 108.444C90.4432 111.146 89.1954 113.654 87.2251 115.527C85.4811 117.174 83.1801 118.102 80.7817 118.123ZM80.7211 102.044C79.9133 102.047 79.1188 102.25 78.4086 102.635C77.6985 103.02 77.0944 103.575 76.6508 104.25C75.7931 105.354 75.2416 106.665 75.0512 108.05C75.0512 110.798 78.0858 114.05 80.6508 114.05C81.5855 114.029 82.5037 113.797 83.3364 113.372C84.169 112.947 84.8942 112.34 85.4594 111.595C85.96 111.002 86.319 110.302 86.5083 109.549C86.6975 108.796 86.7118 108.011 86.5512 107.251C85.8592 104.187 83.4611 102.044 80.7211 102.044ZM36.8637 102.068C35.305 102.017 33.7897 102.585 32.6489 103.649C31.8574 104.497 31.3361 105.562 31.1547 106.708C30.9733 107.854 31.1405 109.028 31.6313 110.079C32.0227 111.196 32.738 112.169 33.686 112.877C34.634 113.585 35.77 113.994 36.9516 114.052C38.3493 114.1 39.7229 113.677 40.852 112.852C42.338 111.366 42.4472 106.542 41.0532 103.952C40.5704 103.311 39.9321 102.801 39.1997 102.472C38.4673 102.143 37.6641 102.003 36.8637 102.068ZM58.4204 67.3507C55.9199 67.3615 53.4595 67.979 51.2504 69.1505C47.0374 71.2585 42.0512 77.8717 42.0512 81.3507C42.0512 83.2967 46.2221 86.3029 51.3501 88.0509C53.819 88.8304 56.3918 89.2311 58.9809 89.2384C62.9547 89.2477 66.8666 88.253 70.354 86.3478C75.131 83.7038 75.5453 83.216 75.2543 80.548C74.8543 76.482 72.7691 73.5564 68.0551 70.4484C65.2199 68.4877 61.867 67.4101 58.4204 67.3507ZM107.53 66.9562C106.925 66.9411 106.321 67.0469 105.758 67.2687C105.195 67.4904 104.683 67.8236 104.25 68.2472C103.358 69.478 102.946 70.9928 103.094 72.506C103.125 74.64 103.737 76.5804 104.653 77.4484C105.121 77.9326 105.683 78.317 106.303 78.5802C106.923 78.8434 107.589 78.9792 108.262 78.9796C109.765 78.9567 111.199 78.3436 112.254 77.2726C112.832 76.6906 113.289 76.0001 113.598 75.2404C113.907 74.4806 114.063 73.6669 114.055 72.8468C114.054 69.4768 110.61 66.9562 107.53 66.9562ZM9.19966 66.7941C8.56735 66.7949 7.94125 66.9152 7.35396 67.1495C4.92996 68.0645 3.99779 70.9275 4.15279 73.3605C4.32279 76.0895 5.73835 78.1666 7.75435 78.6486C8.33522 78.8177 8.93457 78.9074 9.53951 78.9142C11.8145 78.9142 13.5022 77.4786 14.5532 74.6486C14.8659 73.7606 14.9572 72.8105 14.8208 71.879C14.6844 70.9475 14.3242 70.0629 13.77 69.3019C13.2641 68.5494 12.5844 67.9295 11.7895 67.4933C10.9946 67.0571 10.1061 66.8165 9.19966 66.7941ZM58.9536 43.5519C63.4006 43.5519 64.4728 43.9701 67.1528 46.7521C69.8148 49.3151 70.354 50.6289 70.354 54.5519C70.354 57.0409 69.8543 59.6521 69.2543 60.2521C68.8601 60.5949 68.5511 61.0252 68.354 61.5089C68.1568 61.9927 68.0753 62.5166 68.1176 63.0372C68.2756 64.3912 69.393 65.7443 71.352 66.9523C73.7765 68.7555 75.8446 70.9931 77.4516 73.5519C78.9636 75.9179 80.6809 77.7706 81.3579 77.7706C81.3918 77.7713 81.4252 77.7666 81.4575 77.756C82.0905 77.541 83.7255 75.1098 84.9575 72.5558C88.2303 65.584 88.674 57.6148 86.1938 50.3234C83.7136 43.0319 78.5037 36.9863 71.6586 33.4562C67.9266 31.6822 65.2941 31.1408 60.3891 31.1408C59.9731 31.1408 59.5279 31.1405 59.0629 31.1525C54.9909 31.1525 50.2779 31.6471 48.5629 32.2531C44.1236 34.1678 40.1359 36.9956 36.8618 40.5529C35.1241 42.848 33.6498 45.3304 32.4633 47.9533C30.2873 52.5033 29.9562 54.2983 30.2622 59.9533C30.4921 64.0926 31.4285 68.1613 33.0317 71.9845C34.4617 75.2275 36.139 77.1652 37.518 77.1652C38.418 77.1652 39.1586 76.3311 39.6626 74.7531C39.9576 73.6611 42.5637 70.5483 45.3637 67.9533C50.2117 63.2053 50.2706 63.0685 48.6626 60.6525C45.9306 56.4065 46.5893 51.5231 50.4633 47.2531C53.6003 43.8991 54.3936 43.5499 58.9536 43.5499V43.5519ZM58.9653 47.1339C57.7466 47.1917 56.5663 47.5782 55.5493 48.2521C52.8013 49.7791 52.0493 51.0907 52.0493 54.3517C52.0493 59.2937 54.9868 62.7472 59.1938 62.7472C59.786 62.7441 60.3758 62.6768 60.9536 62.547C62.2069 62.1908 63.3331 61.4849 64.1997 60.5118C65.0662 59.5388 65.6389 58.3389 65.8481 57.0529C66.2302 55.6426 66.2061 54.1531 65.7817 52.755C65.3573 51.3569 64.5492 50.1065 63.4477 49.1466C61.7097 47.7566 60.3263 47.1339 58.9653 47.1339ZM98.4653 23.1281C97.7596 23.1357 97.0644 23.2929 96.4243 23.59C95.7841 23.887 95.2138 24.3168 94.7524 24.8507C93.9352 25.7293 93.394 26.8285 93.1958 28.0118C92.9975 29.1952 93.1509 30.411 93.6372 31.5079C94.1078 32.5735 94.8818 33.4769 95.8618 34.1066C96.8417 34.7363 97.9841 35.0646 99.1489 35.0499C102.495 35.0499 104.049 33.3029 104.049 29.5499C104.053 25.5849 101.152 23.1281 98.4653 23.1281ZM19.2485 23.049C18.1565 23.049 16.2429 24.2636 15.1489 25.6486C12.6279 28.8766 12.5489 29.9488 14.6489 32.8488C15.1699 33.54 15.8492 34.0969 16.6294 34.4718C17.4095 34.8467 18.2681 35.029 19.1333 35.004C19.9201 35.0176 20.6998 34.8683 21.4262 34.5656C22.1526 34.2629 22.8096 33.8135 23.354 33.2452C24.1716 32.3575 24.7076 31.2478 24.8969 30.0558C25.0862 28.8638 24.9208 27.6424 24.4184 26.5451C23.9961 25.5187 23.2792 24.6394 22.3598 24.0177C21.4404 23.396 20.3583 23.0585 19.2485 23.049ZM59.1606 4.15638C57.7346 4.23882 56.3688 4.75914 55.2504 5.64759C54.611 6.12362 54.0859 6.73766 53.7153 7.44349C53.3447 8.14932 53.1385 8.92904 53.1098 9.72572C53.041 10.5771 53.1618 11.4334 53.4633 12.2326C53.7649 13.0317 54.2399 13.7541 54.854 14.3478C55.5521 15.0313 56.4094 15.5309 57.3481 15.8019C58.2868 16.0729 59.2778 16.1068 60.2329 15.9005C61.1879 15.6942 62.0756 15.2546 62.8188 14.6202C63.562 13.9859 64.1369 13.1765 64.4907 12.2658C64.7736 11.3796 64.8553 10.4413 64.729 9.51966C64.6027 8.59804 64.2711 7.71696 63.7602 6.93958C63.2493 6.1622 62.5717 5.50805 61.7758 5.0265C60.9799 4.54494 60.0863 4.24822 59.1606 4.15638Z" fill="white"/>
</g>
<defs>
<clipPath id="clip0_614_365">
<rect width="118.215" height="118.173" fill="white"/>
</clipPath>
</defs>
</svg>
