<?xml version="1.0" encoding="UTF-8"?>
<svg width="18px" height="20px" viewBox="0 0 18 20" version="1.1" xmlns="http://www.w3.org/2000/svg" xmlns:xlink="http://www.w3.org/1999/xlink">
    <title>icon-timeline</title>
    <g id="icon-set最新整理" stroke="none" stroke-width="1" fill="none" fill-rule="evenodd">
        <g id="images/h5/icon-set" transform="translate(-690.000000, -978.000000)" fill="#FFFFFF" fill-rule="nonzero">
            <g id="icon-timeline" transform="translate(690.000000, 978.000000)">
                <path d="M18.3731778,16.0500618 L-0.3768222,16.0500618 C-0.7205722,16.0500618 -1.0018222,16.2750618 -1.0018222,16.5500618 L-1.0018222,17.5500618 C-1.0018222,17.8250618 -0.7205722,18.0500618 -0.3768222,18.0500618 L18.3731778,18.0500618 C18.7169278,18.0500618 18.9981778,17.8250618 18.9981778,17.5500618 L18.9981778,16.5500618 C18.9981778,16.2750618 18.7169278,16.0500618 18.3731778,16.0500618 Z M4.5,18.9981778 C5.6045695,18.9981778 6.5,18.1247266 6.5,17.0472699 C6.5,15.9698132 5.6045695,15.0963619 4.5,15.0963619 C3.3954305,15.0963619 2.5,15.9698132 2.5,17.0472699 C2.5,18.1247266 3.3954305,18.9981778 4.5,18.9981778 Z M0.9931441,11.7968778 L3.6947059,14.4042061 C4.0455735,14.7428351 4.6144264,14.7428351 4.9652941,14.4042061 L7.6668559,11.7968778 C7.835346,11.6342648 7.93,11.413713 7.93,11.1837434 L7.93,1.86892192 C7.93,1.39003844 7.5277529,1.0018222 7.0315617,1.0018222 L1.6284382,1.0018222 C1.132247,1.0018222 0.73,1.39003844 0.73,1.86892192 L0.73,11.1837434 C0.73,11.413713 0.824654,11.6342648 0.9931441,11.7968778 Z M10.0431441,11.7968778 L12.7447059,14.4042061 C13.0955735,14.7428351 13.6644264,14.7428351 14.0152941,14.4042061 L16.7168558,11.7968778 C16.8853458,11.6342648 16.9799998,11.413713 16.9799998,11.1837434 L16.9799998,4.7707378 C16.9799998,4.2918543 16.5777528,3.9036381 16.0815618,3.9036381 L10.6784382,3.9036381 C10.182247,3.9036381 9.78,4.2918543 9.78,4.7707378 L9.78,11.1837434 C9.78,11.413713 9.874654,11.6342648 10.0431441,11.7968778 Z M13.5,18.9981778 C14.6045695,18.9981778 15.5,18.1247266 15.5,17.0472699 C15.5,15.9698132 14.6045695,15.0963619 13.5,15.0963619 C12.3954305,15.0963619 11.5,15.9698132 11.5,17.0472699 C11.5,18.1247266 12.3954305,18.9981778 13.5,18.9981778 Z" transform="translate(8.998178, 10.000000) rotate(90.000000) translate(-8.998178, -10.000000) "></path>
            </g>
        </g>
    </g>
</svg>