<?xml version="1.0" encoding="UTF-8"?>
<svg id="Layer_1" data-name="Layer 1" xmlns="http://www.w3.org/2000/svg" xmlns:xlink="http://www.w3.org/1999/xlink" viewBox="0 0 100 100">
  <defs>
    <style>
      .cls-1 {
        fill: url(#Degradado_sin_nombre_3);
      }

      .cls-1, .cls-2 {
        stroke-width: 0px;
      }

      .cls-2 {
        fill: #fff;
      }
    </style>
    <linearGradient id="Degradado_sin_nombre_3" data-name="Degradado sin nombre 3" x1="16.77" y1="16.77" x2="83.23" y2="83.23" gradientUnits="userSpaceOnUse">
      <stop offset="0" stop-color="#ffe185"/>
      <stop offset=".21" stop-color="#ffbb36"/>
      <stop offset=".38" stop-color="#ff5176"/>
      <stop offset=".52" stop-color="#f63395"/>
      <stop offset=".74" stop-color="#a436d2"/>
      <stop offset="1" stop-color="#5f4eed"/>
    </linearGradient>
  </defs>
  <circle class="cls-1" cx="50" cy="50" r="47"/>
  <g>
    <path class="cls-2" d="M62.95,34.28c-1.58,0-2.87,1.28-2.87,2.87s1.28,2.87,2.87,2.87,2.87-1.28,2.87-2.87-1.28-2.87-2.87-2.87Z"/>
    <path class="cls-2" d="M50.2,37.95c-6.64,0-12.05,5.4-12.05,12.05s5.4,12.05,12.05,12.05,12.05-5.4,12.05-12.05-5.4-12.05-12.05-12.05ZM50.2,57.72c-4.26,0-7.72-3.46-7.72-7.72s3.46-7.72,7.72-7.72,7.72,3.46,7.72,7.72-3.46,7.72-7.72,7.72Z"/>
    <path class="cls-2" d="M59.76,74.46h-19.53c-8.1,0-14.69-6.59-14.69-14.69v-19.53c0-8.1,6.59-14.69,14.69-14.69h19.53c8.1,0,14.69,6.59,14.69,14.69v19.53c0,8.1-6.59,14.69-14.69,14.69ZM40.23,30.14c-5.56,0-10.09,4.53-10.09,10.09v19.53c0,5.56,4.53,10.09,10.09,10.09h19.53c5.56,0,10.09-4.53,10.09-10.09v-19.53c0-5.56-4.53-10.09-10.09-10.09h-19.53Z"/>
  </g>
</svg>