<svg width="100" height="100" viewBox="0 0 100 100" fill="none" xmlns="http://www.w3.org/2000/svg">
<mask id="mask0_579_39" style="mask-type:luminance" maskUnits="userSpaceOnUse" x="10" y="9" width="80" height="79">
<path d="M50 87.3C71.5502 87.3 89.02 69.8302 89.02 48.28C89.02 26.7299 71.5502 9.26001 50 9.26001C28.4498 9.26001 10.98 26.7299 10.98 48.28C10.98 69.8302 28.4498 87.3 50 87.3Z" fill="white"/>
</mask>
<g mask="url(#mask0_579_39)">
<path d="M50 65.73C59.6374 65.73 67.45 57.9174 67.45 48.28C67.45 38.6426 59.6374 30.83 50 30.83C40.3626 30.83 32.55 38.6426 32.55 48.28C32.55 57.9174 40.3626 65.73 50 65.73Z" stroke="white" stroke-width="3" stroke-miterlimit="10"/>
<path d="M50 59.57C53.4297 59.57 56.21 56.7897 56.21 53.36C56.21 49.9303 53.4297 47.15 50 47.15C46.5703 47.15 43.79 49.9303 43.79 53.36C43.79 56.7897 46.5703 59.57 50 59.57Z" stroke="white" stroke-width="3" stroke-miterlimit="10"/>
<path d="M50 46.9C52.1373 46.9 53.87 45.1674 53.87 43.03C53.87 40.8927 52.1373 39.16 50 39.16C47.8627 39.16 46.13 40.8927 46.13 43.03C46.13 45.1674 47.8627 46.9 50 46.9Z" stroke="white" stroke-width="3" stroke-miterlimit="10"/>
<path d="M50 20.45C58.7648 20.45 65.87 13.3448 65.87 4.58004C65.87 -4.18472 58.7648 -11.29 50 -11.29C41.2352 -11.29 34.13 -4.18472 34.13 4.58004C34.13 13.3448 41.2352 20.45 50 20.45Z" stroke="white" stroke-width="3" stroke-miterlimit="10"/>
<path d="M6.10999 64.15C14.8748 64.15 21.98 57.0448 21.98 48.28C21.98 39.5153 14.8748 32.41 6.10999 32.41C-2.65477 32.41 -9.76001 39.5153 -9.76001 48.28C-9.76001 57.0448 -2.65477 64.15 6.10999 64.15Z" stroke="white" stroke-width="3" stroke-miterlimit="10"/>
<path d="M92.89 64.15C101.655 64.15 108.76 57.0448 108.76 48.28C108.76 39.5153 101.655 32.41 92.89 32.41C84.1252 32.41 77.02 39.5153 77.02 48.28C77.02 57.0448 84.1252 64.15 92.89 64.15Z" stroke="white" stroke-width="3" stroke-miterlimit="10"/>
<path d="M50 107.84C58.7648 107.84 65.87 100.735 65.87 91.97C65.87 83.2053 58.7648 76.1 50 76.1C41.2352 76.1 34.13 83.2053 34.13 91.97C34.13 100.735 41.2352 107.84 50 107.84Z" stroke="white" stroke-width="3" stroke-miterlimit="10"/>
</g>
<path d="M50 87.3C71.5502 87.3 89.02 69.8302 89.02 48.28C89.02 26.7299 71.5502 9.26001 50 9.26001C28.4498 9.26001 10.98 26.7299 10.98 48.28C10.98 69.8302 28.4498 87.3 50 87.3Z" stroke="white" stroke-width="3" stroke-miterlimit="10"/>
</svg>
