<svg width="53" height="52" viewBox="0 0 53 52" fill="none" xmlns="http://www.w3.org/2000/svg">
<path d="M48.8819 15.0648H38.4608C38.9956 14.7211 39.5024 14.3337 39.9762 13.9064C40.6908 13.2547 41.2664 12.4591 41.6671 11.5694C42.0677 10.6796 42.2849 9.7149 42.3049 8.73539C42.3359 7.65788 42.1517 6.58524 41.7636 5.58316C41.3754 4.58108 40.7915 3.67068 40.0476 2.90771C39.3037 2.14473 38.4155 1.54526 37.4373 1.14601C36.4592 0.746759 35.4117 0.556134 34.3591 0.585811C33.4022 0.606329 32.4598 0.828613 31.5907 1.23878C30.7215 1.64894 29.9443 2.23818 29.3077 2.96967C28.1377 4.38304 27.2381 6.0092 26.6557 7.76323C26.0746 6.0105 25.1766 4.38527 24.0088 2.97225C23.3717 2.23966 22.5938 1.64957 21.7238 1.23893C20.8537 0.828296 19.9102 0.605949 18.9523 0.585811C17.8991 0.554716 16.8507 0.744205 15.8715 1.14266C14.8924 1.54111 14.003 2.14013 13.2581 2.90297C12.5131 3.66581 11.9283 4.5764 11.5393 5.57888C11.1504 6.58136 10.9656 7.65461 10.9964 8.73281C11.0164 9.71231 11.2335 10.6771 11.6342 11.5668C12.0349 12.4565 12.6105 13.2521 13.3251 13.9039C13.7984 14.3317 14.3053 14.7191 14.8405 15.0622H4.42954C3.96497 15.0622 3.50496 15.1559 3.07579 15.338C2.64662 15.52 2.25671 15.7869 1.92833 16.1233C1.59995 16.4597 1.33954 16.859 1.16199 17.2985C0.98444 17.738 0.893224 18.2089 0.893556 18.6845V26.9582C0.893556 27.9182 1.2661 28.8389 1.92922 29.5177C2.59234 30.1966 3.49174 30.5779 4.42954 30.5779H4.93468V47.6424C4.93468 48.6024 5.30722 49.5231 5.97034 50.2019C6.63346 50.8808 7.53285 51.2621 8.47065 51.2621H44.8407C45.7785 51.2621 46.6779 50.8808 47.341 50.2019C48.0042 49.5231 48.3767 48.6024 48.3767 47.6424V30.5779H48.8819C49.8196 30.5779 50.719 30.1966 51.3822 29.5177C52.0453 28.8389 52.4178 27.9182 52.4178 26.9582V18.6845C52.4178 17.7245 52.0453 16.8038 51.3822 16.125C50.719 15.4461 49.8196 15.0648 48.8819 15.0648ZM28.6182 12.2207C29.1864 9.08702 30.2068 6.59716 31.5707 5.01999C31.9357 4.60765 32.3797 4.27664 32.875 4.04756C33.3704 3.81848 33.9065 3.69623 34.45 3.68844H34.5889C35.2173 3.68852 35.8392 3.81764 36.418 4.06815C36.9967 4.31867 37.5205 4.68549 37.9583 5.14692C38.3961 5.60834 38.739 6.15498 38.9667 6.75448C39.1945 7.35399 39.3024 7.99417 39.2842 8.63714C39.2756 9.19409 39.155 9.74326 38.9299 10.2504C38.7048 10.7575 38.3801 11.2117 37.9759 11.5846C35.2683 14.0306 30.6766 14.7623 28.257 14.9743C28.3201 14.227 28.4237 13.2756 28.6182 12.2207ZM15.4037 5.09756C16.2853 4.19839 17.478 3.69197 18.7225 3.68844H18.8614C19.4054 3.69722 19.9419 3.82067 20.4373 4.0511C20.9327 4.28153 21.3764 4.61399 21.7407 5.02775C24.13 7.79943 24.8448 12.4999 25.0519 14.9769C24.3219 14.9122 23.3925 14.801 22.3721 14.6071C19.311 14.0306 16.8787 12.9808 15.338 11.5821C14.9332 11.21 14.6078 10.7564 14.3823 10.2497C14.1567 9.74294 14.0358 9.19395 14.0272 8.63714C14.0098 7.98238 14.1228 7.33084 14.3595 6.72229C14.5962 6.11373 14.9514 5.56091 15.4037 5.09756ZM3.9244 26.9582V18.6845C3.9244 18.5474 3.97761 18.4158 4.07235 18.3188C4.16708 18.2219 4.29556 18.1674 4.42954 18.1674H25.1403V27.4753H4.42954C4.29556 27.4753 4.16708 27.4208 4.07235 27.3238C3.97761 27.2269 3.9244 27.0953 3.9244 26.9582ZM7.96552 47.6424V30.5779H25.1403V48.1595H8.47065C8.33668 48.1595 8.2082 48.105 8.11347 48.008C8.01873 47.9111 7.96552 47.7795 7.96552 47.6424ZM45.3459 47.6424C45.3459 47.7795 45.2927 47.9111 45.1979 48.008C45.1032 48.105 44.9747 48.1595 44.8407 48.1595H28.1711V30.5779H45.3459V47.6424ZM49.387 26.9582C49.387 27.0953 49.3338 27.2269 49.239 27.3238C49.1443 27.4208 49.0158 27.4753 48.8819 27.4753H28.1711V18.1674H48.8819C49.0158 18.1674 49.1443 18.2219 49.239 18.3188C49.3338 18.4158 49.387 18.5474 49.387 18.6845V26.9582Z" fill="#040404"/>
</svg>
