<svg width="78" height="78" viewBox="0 0 78 78" fill="none" xmlns="http://www.w3.org/2000/svg">
<path d="M55.7498 60.0281L55.7506 60.0276C56.5529 59.5629 57.1381 58.7989 57.3776 57.9031C57.6171 57.0074 57.4914 56.0533 57.0281 55.2501L57.0279 55.2497C53.0855 48.4301 46.5134 44.5 39 44.5C31.4897 44.5 24.9201 48.4306 20.9773 55.2409C20.7272 55.6369 20.5592 56.0791 20.4832 56.5414C20.4066 57.0071 20.425 57.4836 20.5373 57.9421C20.6496 58.4006 20.8534 58.8316 21.1367 59.2093C21.4199 59.5869 21.7765 59.9034 22.1852 60.1396C22.5939 60.3758 23.0461 60.527 23.5147 60.5839C23.9833 60.6408 24.4586 60.6023 24.9119 60.4708C25.3653 60.3393 25.7873 60.1174 26.1527 59.8186C26.5152 59.5221 26.8145 59.1559 27.0328 58.7417C29.7531 54.0501 33.9961 51.5 39 51.5C44.0073 51.5 48.2523 54.0497 50.9722 58.7504L50.9723 58.7506C51.4371 59.5529 52.2011 60.138 53.0968 60.3776C53.9926 60.6171 54.9467 60.4914 55.7498 60.0281ZM17.6106 6.98842C23.9418 2.75804 31.3853 0.500054 38.9997 0.5C49.2073 0.510846 58.9937 4.57059 66.2115 11.7884C73.4295 19.0064 77.4892 28.7929 77.5 39.0005C77.4999 46.6149 75.2419 54.0583 71.0116 60.3894C66.7811 66.7207 60.7683 71.6554 53.7333 74.5693C46.6984 77.4833 38.9573 78.2457 31.489 76.7602C24.0208 75.2747 17.1607 71.6079 11.7764 66.2236C6.39208 60.8393 2.72531 53.9792 1.23978 46.511C-0.245747 39.0427 0.516682 31.3016 3.43065 24.2667C6.34463 17.2317 11.2793 11.2189 17.6106 6.98842ZM28.2779 27.3426C27.4556 26.7932 26.4889 26.5 25.5 26.5C24.1739 26.5 22.9022 27.0268 21.9645 27.9645C21.0268 28.9021 20.5 30.1739 20.5 31.5C20.5 32.4889 20.7933 33.4556 21.3427 34.2778C21.8921 35.1001 22.673 35.741 23.5866 36.1194C24.5002 36.4978 25.5056 36.5968 26.4755 36.4039C27.4454 36.211 28.3363 35.7348 29.0355 35.0355C29.7348 34.3363 30.211 33.4454 30.4039 32.4754C30.5969 31.5055 30.4978 30.5002 30.1194 29.5866C29.741 28.6729 29.1001 27.8921 28.2779 27.3426ZM49.7222 35.6573C50.5444 36.2067 51.5111 36.5 52.5 36.5C53.8261 36.5 55.0979 35.9732 56.0355 35.0355C56.9732 34.0978 57.5 32.8261 57.5 31.5C57.5 30.5111 57.2068 29.5444 56.6573 28.7221C56.1079 27.8999 55.327 27.259 54.4134 26.8806C53.4998 26.5022 52.4945 26.4031 51.5246 26.5961C50.5546 26.789 49.6637 27.2652 48.9645 27.9645C48.2652 28.6637 47.789 29.5546 47.5961 30.5245C47.4032 31.4944 47.5022 32.4998 47.8806 33.4134C48.259 34.327 48.8999 35.1079 49.7222 35.6573Z" fill="black" stroke="black"/>
</svg>
