<svg width="85" height="91" viewBox="0 0 85 91" fill="none" xmlns="http://www.w3.org/2000/svg">
<mask id="path-1-inside-1_1500_15317" fill="white">
<path d="M42.235 2.20236C41.7795 2.28671 40.7505 2.65785 39.9745 3.029C37.4946 4.24364 35.6726 6.47048 34.9809 9.16969C34.7785 9.97945 34.7279 11.4978 34.7279 17.5204V24.8588L21.8729 24.8082C12.9993 24.7745 8.74801 24.8251 8.14069 24.9432C5.79576 25.4324 3.77135 27.0519 2.70854 29.2788C2.08435 30.5946 2.08435 30.6115 2.03374 33.142C1.96626 35.5713 1.98313 35.7231 2.32053 36.0605C2.8435 36.5835 3.73761 36.5329 4.17623 35.9762C4.49677 35.5713 4.53051 35.3014 4.53051 33.53C4.53051 31.9274 4.59799 31.3538 4.88478 30.5946C5.28966 29.4981 6.35247 28.3678 7.5165 27.7942L8.32626 27.3893H21.2318H34.1374L35.0147 27.7942C36.1112 28.2834 37.2752 29.4981 37.697 30.5946C38.0007 31.4044 38.0175 32.0117 38.0175 43.7533V56.0684L35.9088 56.1527C34.0362 56.2202 33.6988 56.2877 32.8384 56.7095C31.59 57.3168 30.4598 58.582 29.9874 59.8641C29.6331 60.8257 29.5656 60.9101 26.8327 63.0188C25.2975 64.1997 23.9817 65.1951 23.9142 65.2288C23.8467 65.2626 23.7623 64.4528 23.7286 63.4406C23.6443 60.6402 24.454 60.9101 15.8672 60.8426C9.47343 60.7751 8.57931 60.7414 7.87077 60.4715C6.80796 60.0835 5.62706 59.0038 5.07035 57.941L4.61486 57.0806L4.53051 49.7253C4.44616 42.7748 4.42929 42.3362 4.12562 41.9988C3.70387 41.5433 2.79289 41.5264 2.3374 41.9819C2.01687 42.3024 2 42.5386 2 49.5566C2 57.4686 2.03374 57.8229 3.06281 59.5605C3.687 60.6402 5.22218 62.0066 6.43682 62.5802C7.95512 63.2719 9.23725 63.39 15.631 63.4069H21.2318V65.988C21.2318 68.7884 21.2825 68.9402 22.1934 69.2101C22.6995 69.3789 22.902 69.2439 26.2422 66.6628C27.8618 65.4144 29.2788 64.3685 29.4138 64.3178C29.6163 64.2335 29.6669 65.3638 29.7006 72.1287L29.7512 80.0238L30.2236 80.918C30.8478 82.0989 31.86 83.0773 33.024 83.634C33.9687 84.0727 34.0025 84.0727 38.5742 84.1233L43.1629 84.1739V85.6753C43.1629 86.5019 43.2472 87.3623 43.3485 87.5816C43.5509 88.0202 44.1414 88.3745 44.6475 88.3745C44.7993 88.3745 46.1489 87.4298 47.6503 86.2826L50.3495 84.2076L51.8678 84.1233C54.4489 84.0052 56.1697 82.8917 57.2156 80.6649C57.688 79.6358 57.7217 79.4165 57.7386 77.5439C57.7555 75.6208 57.7386 75.5027 57.3506 75.199C56.8782 74.811 56.1866 74.7773 55.7142 75.1315C55.3937 75.334 55.3431 75.587 55.2756 77.274C55.1744 79.3322 55.0057 79.872 54.179 80.648C53.4199 81.3734 52.6101 81.6265 51.0243 81.6265H49.5904L47.6841 83.0605L45.7777 84.5113L45.7271 83.4147C45.6934 82.47 45.6259 82.2676 45.2379 81.9639C44.8162 81.6434 44.58 81.6265 39.8058 81.6265C35.3015 81.6265 34.7447 81.5928 34.1374 81.306C33.3445 80.9348 32.636 80.2263 32.3829 79.5515C32.2648 79.231 32.1974 76.0088 32.1974 70.0537C32.1974 61.5343 32.2142 60.9944 32.5179 60.404C32.889 59.6954 33.2433 59.3412 34.0025 58.9532C34.4748 58.717 35.5882 58.6832 43.669 58.6832C51.7497 58.6832 52.8632 58.717 53.3355 58.9532C54.1115 59.3412 54.4489 59.6954 54.8538 60.4546C55.1912 61.0788 55.225 61.4499 55.2756 64.9252C55.3431 69.1933 55.3768 69.3114 56.4902 69.3114C56.912 69.3114 57.2156 69.1933 57.4349 68.9571C57.7386 68.6197 57.7555 68.2992 57.7386 64.689C57.7386 61.0113 57.7217 60.7414 57.3337 59.7798C56.7939 58.4133 55.4105 57.0131 54.0778 56.5239C53.15 56.1696 52.8463 56.1527 46.8743 56.1527H40.6324V52.8462C40.6324 49.759 40.6493 49.5397 40.936 49.6578C42.2013 50.1639 43.6015 50.2482 50.8894 50.2482H58.3459V53.6054V56.9794L58.7845 57.3168C59.0376 57.5192 59.4087 57.671 59.6112 57.671C59.8642 57.671 61.7874 56.3046 64.7903 53.9934L69.5645 50.3326L72.4324 50.2314C74.9292 50.147 75.469 50.0627 76.5487 49.6915C78.843 48.8818 80.7999 47.2285 81.8628 45.1872C83.0268 42.9941 82.993 43.6183 82.9424 25.5674L82.8918 9.33839L82.4026 8.15749C81.3904 5.69446 79.7877 3.97372 77.4934 2.9109C75.9076 2.18549 74.7773 1.99992 71.8082 1.99992C69.5308 1.99992 69.2777 2.03366 68.974 2.33733C68.5186 2.79282 68.5186 3.73754 69.0078 4.19303C69.3452 4.49669 69.5982 4.53043 71.8419 4.53043C75.4521 4.53043 76.8186 4.96905 78.4887 6.67292C78.9274 7.11154 79.5178 7.95505 79.8215 8.56237L80.3613 9.67579V26.1241V42.5724L79.8215 43.6858C79.2142 44.9173 77.8983 46.2838 76.768 46.8574C75.4521 47.5322 74.2881 47.7177 71.4877 47.7177H68.8391L64.9084 50.7375L60.9608 53.7572L60.8764 51.058C60.7921 48.4769 60.7752 48.3419 60.3872 48.0383C60.0161 47.7346 59.6112 47.7177 51.8341 47.7177C43.4328 47.7177 42.5218 47.6502 41.2734 47.0261L40.6324 46.7055V39.2827C40.6324 34.4916 40.5649 31.5562 40.4468 30.9826C40.1432 29.5318 39.4684 28.3172 38.3212 27.1194L37.2415 26.006L37.2921 17.8409L37.3427 9.67579L37.8657 8.57924C38.4224 7.38146 39.5864 6.11621 40.683 5.45828C42.235 4.56417 42.6062 4.53043 52.8969 4.53043C62.1754 4.53043 62.3947 4.53043 62.7321 4.19303C62.9346 3.99059 63.0695 3.63631 63.0695 3.26517C63.0695 2.89404 62.9346 2.53976 62.7321 2.33733C62.3947 1.99992 62.1754 1.99992 52.7451 2.01679C47.431 2.03366 42.7074 2.10114 42.235 2.20236Z"/>
</mask>
<path d="M42.235 2.20236C41.7795 2.28671 40.7505 2.65785 39.9745 3.029C37.4946 4.24364 35.6726 6.47048 34.9809 9.16969C34.7785 9.97945 34.7279 11.4978 34.7279 17.5204V24.8588L21.8729 24.8082C12.9993 24.7745 8.74801 24.8251 8.14069 24.9432C5.79576 25.4324 3.77135 27.0519 2.70854 29.2788C2.08435 30.5946 2.08435 30.6115 2.03374 33.142C1.96626 35.5713 1.98313 35.7231 2.32053 36.0605C2.8435 36.5835 3.73761 36.5329 4.17623 35.9762C4.49677 35.5713 4.53051 35.3014 4.53051 33.53C4.53051 31.9274 4.59799 31.3538 4.88478 30.5946C5.28966 29.4981 6.35247 28.3678 7.5165 27.7942L8.32626 27.3893H21.2318H34.1374L35.0147 27.7942C36.1112 28.2834 37.2752 29.4981 37.697 30.5946C38.0007 31.4044 38.0175 32.0117 38.0175 43.7533V56.0684L35.9088 56.1527C34.0362 56.2202 33.6988 56.2877 32.8384 56.7095C31.59 57.3168 30.4598 58.582 29.9874 59.8641C29.6331 60.8257 29.5656 60.9101 26.8327 63.0188C25.2975 64.1997 23.9817 65.1951 23.9142 65.2288C23.8467 65.2626 23.7623 64.4528 23.7286 63.4406C23.6443 60.6402 24.454 60.9101 15.8672 60.8426C9.47343 60.7751 8.57931 60.7414 7.87077 60.4715C6.80796 60.0835 5.62706 59.0038 5.07035 57.941L4.61486 57.0806L4.53051 49.7253C4.44616 42.7748 4.42929 42.3362 4.12562 41.9988C3.70387 41.5433 2.79289 41.5264 2.3374 41.9819C2.01687 42.3024 2 42.5386 2 49.5566C2 57.4686 2.03374 57.8229 3.06281 59.5605C3.687 60.6402 5.22218 62.0066 6.43682 62.5802C7.95512 63.2719 9.23725 63.39 15.631 63.4069H21.2318V65.988C21.2318 68.7884 21.2825 68.9402 22.1934 69.2101C22.6995 69.3789 22.902 69.2439 26.2422 66.6628C27.8618 65.4144 29.2788 64.3685 29.4138 64.3178C29.6163 64.2335 29.6669 65.3638 29.7006 72.1287L29.7512 80.0238L30.2236 80.918C30.8478 82.0989 31.86 83.0773 33.024 83.634C33.9687 84.0727 34.0025 84.0727 38.5742 84.1233L43.1629 84.1739V85.6753C43.1629 86.5019 43.2472 87.3623 43.3485 87.5816C43.5509 88.0202 44.1414 88.3745 44.6475 88.3745C44.7993 88.3745 46.1489 87.4298 47.6503 86.2826L50.3495 84.2076L51.8678 84.1233C54.4489 84.0052 56.1697 82.8917 57.2156 80.6649C57.688 79.6358 57.7217 79.4165 57.7386 77.5439C57.7555 75.6208 57.7386 75.5027 57.3506 75.199C56.8782 74.811 56.1866 74.7773 55.7142 75.1315C55.3937 75.334 55.3431 75.587 55.2756 77.274C55.1744 79.3322 55.0057 79.872 54.179 80.648C53.4199 81.3734 52.6101 81.6265 51.0243 81.6265H49.5904L47.6841 83.0605L45.7777 84.5113L45.7271 83.4147C45.6934 82.47 45.6259 82.2676 45.2379 81.9639C44.8162 81.6434 44.58 81.6265 39.8058 81.6265C35.3015 81.6265 34.7447 81.5928 34.1374 81.306C33.3445 80.9348 32.636 80.2263 32.3829 79.5515C32.2648 79.231 32.1974 76.0088 32.1974 70.0537C32.1974 61.5343 32.2142 60.9944 32.5179 60.404C32.889 59.6954 33.2433 59.3412 34.0025 58.9532C34.4748 58.717 35.5882 58.6832 43.669 58.6832C51.7497 58.6832 52.8632 58.717 53.3355 58.9532C54.1115 59.3412 54.4489 59.6954 54.8538 60.4546C55.1912 61.0788 55.225 61.4499 55.2756 64.9252C55.3431 69.1933 55.3768 69.3114 56.4902 69.3114C56.912 69.3114 57.2156 69.1933 57.4349 68.9571C57.7386 68.6197 57.7555 68.2992 57.7386 64.689C57.7386 61.0113 57.7217 60.7414 57.3337 59.7798C56.7939 58.4133 55.4105 57.0131 54.0778 56.5239C53.15 56.1696 52.8463 56.1527 46.8743 56.1527H40.6324V52.8462C40.6324 49.759 40.6493 49.5397 40.936 49.6578C42.2013 50.1639 43.6015 50.2482 50.8894 50.2482H58.3459V53.6054V56.9794L58.7845 57.3168C59.0376 57.5192 59.4087 57.671 59.6112 57.671C59.8642 57.671 61.7874 56.3046 64.7903 53.9934L69.5645 50.3326L72.4324 50.2314C74.9292 50.147 75.469 50.0627 76.5487 49.6915C78.843 48.8818 80.7999 47.2285 81.8628 45.1872C83.0268 42.9941 82.993 43.6183 82.9424 25.5674L82.8918 9.33839L82.4026 8.15749C81.3904 5.69446 79.7877 3.97372 77.4934 2.9109C75.9076 2.18549 74.7773 1.99992 71.8082 1.99992C69.5308 1.99992 69.2777 2.03366 68.974 2.33733C68.5186 2.79282 68.5186 3.73754 69.0078 4.19303C69.3452 4.49669 69.5982 4.53043 71.8419 4.53043C75.4521 4.53043 76.8186 4.96905 78.4887 6.67292C78.9274 7.11154 79.5178 7.95505 79.8215 8.56237L80.3613 9.67579V26.1241V42.5724L79.8215 43.6858C79.2142 44.9173 77.8983 46.2838 76.768 46.8574C75.4521 47.5322 74.2881 47.7177 71.4877 47.7177H68.8391L64.9084 50.7375L60.9608 53.7572L60.8764 51.058C60.7921 48.4769 60.7752 48.3419 60.3872 48.0383C60.0161 47.7346 59.6112 47.7177 51.8341 47.7177C43.4328 47.7177 42.5218 47.6502 41.2734 47.0261L40.6324 46.7055V39.2827C40.6324 34.4916 40.5649 31.5562 40.4468 30.9826C40.1432 29.5318 39.4684 28.3172 38.3212 27.1194L37.2415 26.006L37.2921 17.8409L37.3427 9.67579L37.8657 8.57924C38.4224 7.38146 39.5864 6.11621 40.683 5.45828C42.235 4.56417 42.6062 4.53043 52.8969 4.53043C62.1754 4.53043 62.3947 4.53043 62.7321 4.19303C62.9346 3.99059 63.0695 3.63631 63.0695 3.26517C63.0695 2.89404 62.9346 2.53976 62.7321 2.33733C62.3947 1.99992 62.1754 1.99992 52.7451 2.01679C47.431 2.03366 42.7074 2.10114 42.235 2.20236Z" fill="#D4FF8E" stroke="#D4FF8E" stroke-width="3" mask="url(#path-1-inside-1_1500_15317)"/>
<mask id="path-2-inside-2_1500_15317" fill="white">
<path d="M42.2421 0.21328C41.7639 0.302147 40.6835 0.693161 39.8687 1.08418C37.2651 2.36386 35.3523 4.70996 34.6261 7.55371C34.4136 8.40683 34.3605 10.0064 34.3605 16.3516V24.083L20.8642 24.0297C11.5479 23.9941 7.08463 24.0475 6.44701 24.1719C3.9851 24.6873 1.85972 26.3936 0.743886 28.7396C0.0885579 30.126 0.0885579 30.1437 0.0354231 32.8098C-0.0354231 35.3691 -0.0177116 35.5291 0.33652 35.8846C0.885579 36.4355 1.82429 36.3822 2.28479 35.7957C2.62131 35.3691 2.65674 35.0848 2.65674 33.2186C2.65674 31.5301 2.72758 30.9258 3.02868 30.126C3.45376 28.9707 4.56959 27.7799 5.79168 27.1756L6.64184 26.749H20.1912H33.7405L34.6615 27.1756C35.8128 27.691 37.0349 28.9707 37.4777 30.126C37.7965 30.9791 37.8142 31.6189 37.8142 43.9893V56.9639L35.6003 57.0527C33.6343 57.1238 33.28 57.1949 32.3768 57.6393C31.0661 58.2791 29.8794 59.6121 29.3835 60.9629C29.0116 61.976 28.9407 62.0648 26.0714 64.2865C24.4597 65.5307 23.0782 66.5793 23.0073 66.6148C22.9365 66.6504 22.8479 65.7973 22.8125 64.7309C22.7239 61.7805 23.5741 62.0648 14.5589 61.9937C7.84623 61.9227 6.90751 61.8871 6.16363 61.6027C5.0478 61.1939 3.80799 60.0564 3.22351 58.9367L2.74529 58.0303L2.65674 50.2811C2.56818 42.9584 2.55047 42.4963 2.23166 42.1408C1.78887 41.6609 0.832444 41.6432 0.354231 42.123C0.0177116 42.4607 0 42.7096 0 50.1033C0 58.4391 0.0354231 58.8123 1.11583 60.643C1.77116 61.7805 3.38291 63.2201 4.65814 63.8244C6.25218 64.5531 7.59826 64.6775 14.311 64.6953H20.1912V67.4146C20.1912 70.365 20.2443 70.525 21.2008 70.8094C21.7321 70.9871 21.9446 70.8449 25.4515 68.1256C27.1518 66.8104 28.6396 65.7084 28.7813 65.6551C28.9938 65.5662 29.047 66.757 29.0824 73.8842L29.1355 82.2021L29.6315 83.1441C30.2868 84.3883 31.3495 85.4191 32.5716 86.0057C33.5634 86.4678 33.5989 86.4678 38.3987 86.5211L43.2162 86.5744V88.1562C43.2162 89.0271 43.3048 89.9336 43.4111 90.1646C43.6236 90.6268 44.2435 91 44.7749 91C44.9343 91 46.3512 90.0047 47.9275 88.7961L50.7614 86.61L52.3554 86.5211C55.0653 86.3967 56.8719 85.2236 57.97 82.8775C58.4659 81.7934 58.5013 81.5623 58.519 79.5895C58.5367 77.5633 58.519 77.4389 58.1117 77.1189C57.6157 76.7102 56.8896 76.6746 56.3936 77.0479C56.0571 77.2611 56.004 77.5277 55.9331 79.3051C55.8269 81.4734 55.6498 82.0422 54.7819 82.8598C53.9849 83.624 53.1347 83.8906 51.4698 83.8906H49.9643L47.9629 85.4014L45.9615 86.9299L45.9084 85.7746C45.873 84.7793 45.8021 84.566 45.3948 84.2461C44.952 83.9084 44.704 83.8906 39.6916 83.8906C34.9626 83.8906 34.3782 83.8551 33.7405 83.5529C32.9081 83.1619 32.1642 82.4154 31.8985 81.7045C31.7746 81.3668 31.7037 77.9721 31.7037 71.698C31.7037 62.7225 31.7214 62.1537 32.0402 61.5316C32.4299 60.7852 32.8018 60.4119 33.5989 60.0031C34.0948 59.7543 35.2637 59.7187 43.7476 59.7187C52.2314 59.7187 53.4004 59.7543 53.8963 60.0031C54.711 60.4119 55.0653 60.7852 55.4904 61.585C55.8446 62.2426 55.88 62.6336 55.9331 66.2949C56.004 70.7916 56.0394 70.916 57.2084 70.916C57.6512 70.916 57.97 70.7916 58.2002 70.5428C58.519 70.1873 58.5367 69.8496 58.519 66.0461C58.519 62.1715 58.5013 61.8871 58.094 60.874C57.5272 59.4344 56.0748 57.9592 54.6756 57.4437C53.7015 57.0705 53.3827 57.0527 47.1128 57.0527H40.5595V53.5691C40.5595 50.3166 40.5772 50.0855 40.8783 50.21C42.2067 50.7432 43.6767 50.832 51.3281 50.832H59.1567V54.3689V57.9236L59.6172 58.2791C59.8828 58.4924 60.2725 58.6523 60.485 58.6523C60.7507 58.6523 62.7698 57.2127 65.9225 54.7777L70.9348 50.9209L73.9458 50.8143C76.5671 50.7254 77.1339 50.6365 78.2674 50.2455C80.6762 49.3924 82.7308 47.6506 83.8466 45.5C85.0687 43.1894 85.0333 43.8471 84.9801 24.8295L84.927 7.73145L84.4134 6.4873C83.3507 3.89238 81.6681 2.07949 79.2593 0.959763C77.5944 0.195503 76.4077 0 73.2905 0C70.8994 0 70.6338 0.0355453 70.3149 0.355469C69.8367 0.83535 69.8367 1.83066 70.3504 2.31055C70.7046 2.63046 70.9703 2.66602 73.3259 2.66602C77.1162 2.66602 78.5508 3.12812 80.3043 4.92324C80.7648 5.38535 81.3847 6.27402 81.7035 6.91386L82.2703 8.08691V25.416V42.7451L81.7035 43.9182C81.0659 45.2156 79.6844 46.6553 78.4977 47.2596C77.1162 47.9705 75.8941 48.166 72.954 48.166H70.1732L66.0465 51.3475L61.9019 54.5289L61.8134 51.6852C61.7248 48.9658 61.7071 48.8236 61.2998 48.5037C60.9101 48.1838 60.485 48.166 52.32 48.166C43.4996 48.166 42.5432 48.0949 41.2325 47.4373L40.5595 47.0996V39.2793C40.5595 34.2316 40.4887 31.1391 40.3647 30.5348C40.0459 29.0062 39.3374 27.7266 38.133 26.4646L36.9995 25.2916L37.0526 16.6893L37.1057 8.08691L37.6548 6.93164C38.2393 5.66972 39.4614 4.33672 40.6126 3.64355C42.2421 2.70156 42.6318 2.66602 53.4358 2.66602C63.1772 2.66602 63.4074 2.66602 63.7617 2.31055C63.9742 2.09726 64.1159 1.72402 64.1159 1.33301C64.1159 0.941986 63.9742 0.568748 63.7617 0.355469C63.4074 0 63.1772 0 53.2764 0.0177689C47.6973 0.0355453 42.738 0.106636 42.2421 0.21328Z"/>
</mask>
<path d="M42.2421 0.21328C41.7639 0.302147 40.6835 0.693161 39.8687 1.08418C37.2651 2.36386 35.3523 4.70996 34.6261 7.55371C34.4136 8.40683 34.3605 10.0064 34.3605 16.3516V24.083L20.8642 24.0297C11.5479 23.9941 7.08463 24.0475 6.44701 24.1719C3.9851 24.6873 1.85972 26.3936 0.743886 28.7396C0.0885579 30.126 0.0885579 30.1437 0.0354231 32.8098C-0.0354231 35.3691 -0.0177116 35.5291 0.33652 35.8846C0.885579 36.4355 1.82429 36.3822 2.28479 35.7957C2.62131 35.3691 2.65674 35.0848 2.65674 33.2186C2.65674 31.5301 2.72758 30.9258 3.02868 30.126C3.45376 28.9707 4.56959 27.7799 5.79168 27.1756L6.64184 26.749H20.1912H33.7405L34.6615 27.1756C35.8128 27.691 37.0349 28.9707 37.4777 30.126C37.7965 30.9791 37.8142 31.6189 37.8142 43.9893V56.9639L35.6003 57.0527C33.6343 57.1238 33.28 57.1949 32.3768 57.6393C31.0661 58.2791 29.8794 59.6121 29.3835 60.9629C29.0116 61.976 28.9407 62.0648 26.0714 64.2865C24.4597 65.5307 23.0782 66.5793 23.0073 66.6148C22.9365 66.6504 22.8479 65.7973 22.8125 64.7309C22.7239 61.7805 23.5741 62.0648 14.5589 61.9937C7.84623 61.9227 6.90751 61.8871 6.16363 61.6027C5.0478 61.1939 3.80799 60.0564 3.22351 58.9367L2.74529 58.0303L2.65674 50.2811C2.56818 42.9584 2.55047 42.4963 2.23166 42.1408C1.78887 41.6609 0.832444 41.6432 0.354231 42.123C0.0177116 42.4607 0 42.7096 0 50.1033C0 58.4391 0.0354231 58.8123 1.11583 60.643C1.77116 61.7805 3.38291 63.2201 4.65814 63.8244C6.25218 64.5531 7.59826 64.6775 14.311 64.6953H20.1912V67.4146C20.1912 70.365 20.2443 70.525 21.2008 70.8094C21.7321 70.9871 21.9446 70.8449 25.4515 68.1256C27.1518 66.8104 28.6396 65.7084 28.7813 65.6551C28.9938 65.5662 29.047 66.757 29.0824 73.8842L29.1355 82.2021L29.6315 83.1441C30.2868 84.3883 31.3495 85.4191 32.5716 86.0057C33.5634 86.4678 33.5989 86.4678 38.3987 86.5211L43.2162 86.5744V88.1562C43.2162 89.0271 43.3048 89.9336 43.4111 90.1646C43.6236 90.6268 44.2435 91 44.7749 91C44.9343 91 46.3512 90.0047 47.9275 88.7961L50.7614 86.61L52.3554 86.5211C55.0653 86.3967 56.8719 85.2236 57.97 82.8775C58.4659 81.7934 58.5013 81.5623 58.519 79.5895C58.5367 77.5633 58.519 77.4389 58.1117 77.1189C57.6157 76.7102 56.8896 76.6746 56.3936 77.0479C56.0571 77.2611 56.004 77.5277 55.9331 79.3051C55.8269 81.4734 55.6498 82.0422 54.7819 82.8598C53.9849 83.624 53.1347 83.8906 51.4698 83.8906H49.9643L47.9629 85.4014L45.9615 86.9299L45.9084 85.7746C45.873 84.7793 45.8021 84.566 45.3948 84.2461C44.952 83.9084 44.704 83.8906 39.6916 83.8906C34.9626 83.8906 34.3782 83.8551 33.7405 83.5529C32.9081 83.1619 32.1642 82.4154 31.8985 81.7045C31.7746 81.3668 31.7037 77.9721 31.7037 71.698C31.7037 62.7225 31.7214 62.1537 32.0402 61.5316C32.4299 60.7852 32.8018 60.4119 33.5989 60.0031C34.0948 59.7543 35.2637 59.7187 43.7476 59.7187C52.2314 59.7187 53.4004 59.7543 53.8963 60.0031C54.711 60.4119 55.0653 60.7852 55.4904 61.585C55.8446 62.2426 55.88 62.6336 55.9331 66.2949C56.004 70.7916 56.0394 70.916 57.2084 70.916C57.6512 70.916 57.97 70.7916 58.2002 70.5428C58.519 70.1873 58.5367 69.8496 58.519 66.0461C58.519 62.1715 58.5013 61.8871 58.094 60.874C57.5272 59.4344 56.0748 57.9592 54.6756 57.4437C53.7015 57.0705 53.3827 57.0527 47.1128 57.0527H40.5595V53.5691C40.5595 50.3166 40.5772 50.0855 40.8783 50.21C42.2067 50.7432 43.6767 50.832 51.3281 50.832H59.1567V54.3689V57.9236L59.6172 58.2791C59.8828 58.4924 60.2725 58.6523 60.485 58.6523C60.7507 58.6523 62.7698 57.2127 65.9225 54.7777L70.9348 50.9209L73.9458 50.8143C76.5671 50.7254 77.1339 50.6365 78.2674 50.2455C80.6762 49.3924 82.7308 47.6506 83.8466 45.5C85.0687 43.1894 85.0333 43.8471 84.9801 24.8295L84.927 7.73145L84.4134 6.4873C83.3507 3.89238 81.6681 2.07949 79.2593 0.959763C77.5944 0.195503 76.4077 0 73.2905 0C70.8994 0 70.6338 0.0355453 70.3149 0.355469C69.8367 0.83535 69.8367 1.83066 70.3504 2.31055C70.7046 2.63046 70.9703 2.66602 73.3259 2.66602C77.1162 2.66602 78.5508 3.12812 80.3043 4.92324C80.7648 5.38535 81.3847 6.27402 81.7035 6.91386L82.2703 8.08691V25.416V42.7451L81.7035 43.9182C81.0659 45.2156 79.6844 46.6553 78.4977 47.2596C77.1162 47.9705 75.8941 48.166 72.954 48.166H70.1732L66.0465 51.3475L61.9019 54.5289L61.8134 51.6852C61.7248 48.9658 61.7071 48.8236 61.2998 48.5037C60.9101 48.1838 60.485 48.166 52.32 48.166C43.4996 48.166 42.5432 48.0949 41.2325 47.4373L40.5595 47.0996V39.2793C40.5595 34.2316 40.4887 31.1391 40.3647 30.5348C40.0459 29.0062 39.3374 27.7266 38.133 26.4646L36.9995 25.2916L37.0526 16.6893L37.1057 8.08691L37.6548 6.93164C38.2393 5.66972 39.4614 4.33672 40.6126 3.64355C42.2421 2.70156 42.6318 2.66602 53.4358 2.66602C63.1772 2.66602 63.4074 2.66602 63.7617 2.31055C63.9742 2.09726 64.1159 1.72402 64.1159 1.33301C64.1159 0.941986 63.9742 0.568748 63.7617 0.355469C63.4074 0 63.1772 0 53.2764 0.0177689C47.6973 0.0355453 42.738 0.106636 42.2421 0.21328Z" fill="#D4FF8E" stroke="#D4FF8E" stroke-width="3" mask="url(#path-2-inside-2_1500_15317)"/>
<path d="M60.5658 12.2379L60.5658 12.2379C60.791 12.1128 61.1238 12.0429 61.4945 12.0689C61.8638 12.0948 62.1995 12.2112 62.4284 12.3762L62.4369 12.3823L62.437 12.3822C62.6091 12.5028 62.9115 12.8846 63.2308 13.5376C63.5332 14.1559 63.7994 14.9112 63.9551 15.6506C64.3251 17.408 64.1141 19.3951 63.3062 21.3117L63.3038 21.3175L63.3038 21.3175C63.2824 21.3695 63.2177 21.5268 63.2245 21.7241C63.2334 21.9841 63.3583 22.2125 63.5538 22.3641C63.7073 22.4832 63.874 22.5314 63.974 22.555C64.0869 22.5817 64.2108 22.5979 64.3364 22.6093C64.8205 22.6533 65.7226 22.6567 67.3039 22.6567C68.795 22.6567 69.6499 22.6698 70.2012 22.7134C70.7272 22.755 70.9193 22.8204 71.1008 22.9058L71.1118 22.911L71.1118 22.9109C71.4249 23.0521 71.7731 23.3208 72.0597 23.643C72.347 23.9661 72.4974 24.2576 72.5355 24.4254C72.5356 24.4273 72.5358 24.43 72.5361 24.4336C72.5375 24.4532 72.5409 24.4997 72.5447 24.5849C72.5501 24.7036 72.5553 24.8656 72.5601 25.0679C72.5697 25.4718 72.5776 26.0236 72.5828 26.6848C72.5933 28.0066 72.5933 29.7568 72.5765 31.6171L72.5765 31.6182L72.5276 38.1422L72.1795 38.6644L72.1753 38.6707L72.1753 38.6707C72.0921 38.7983 71.9436 38.9708 71.762 39.1381C71.5782 39.3073 71.4043 39.4307 71.2872 39.4893L71.2747 39.4955L71.2624 39.5023C71.0927 39.5952 71.0267 39.6279 70.9101 39.6576C70.7707 39.6931 70.539 39.7269 70.0609 39.7505C69.1043 39.7978 67.3594 39.7981 63.8286 39.7981C60.0128 39.7981 58.0732 39.7887 56.86 39.6709C56.2681 39.6134 55.8775 39.5321 55.5429 39.4225C55.2032 39.3113 54.8945 39.1627 54.4545 38.9364L54.4469 38.9325L54.4469 38.9326C54.3029 38.8605 54.1611 38.7897 54.039 38.7394C53.9246 38.6922 53.7393 38.6239 53.5222 38.6279C53.2611 38.6326 53.0598 38.7364 52.9155 38.8496C52.8076 38.9343 52.7114 39.042 52.6513 39.1093C52.6497 39.1111 52.648 39.1129 52.6465 39.1147C52.6049 39.1257 52.5069 39.1452 52.3003 39.1615C51.7746 39.2028 50.8221 39.2076 48.9493 39.2076C47.0765 39.2076 46.1282 39.2028 45.6024 39.1615C45.3587 39.1423 45.2625 39.1185 45.2298 39.1077C45.2279 39.106 45.2257 39.1038 45.2231 39.1013C45.2227 39.0997 45.2222 39.098 45.2218 39.0963C45.1948 38.9857 45.1638 38.7463 45.1416 38.2001C45.0981 37.1294 45.0938 35.1087 45.0938 31.1346C45.0938 27.5788 45.1023 25.5471 45.1398 24.3618C45.1586 23.7657 45.1842 23.4112 45.2146 23.194C45.2231 23.1335 45.2312 23.09 45.2378 23.06C45.2797 23.0532 45.3411 23.0452 45.4281 23.0378C45.931 22.9949 46.8931 22.9941 48.8987 22.9941C50.5649 22.9941 51.5581 23.007 52.1577 23.0433C52.4603 23.0617 52.6286 23.0843 52.7197 23.1045C52.7207 23.1047 52.7217 23.1049 52.7227 23.1052C52.7938 23.1624 52.8879 23.2227 53.0069 23.2641C53.1953 23.3296 53.3822 23.3262 53.5467 23.2837C53.8186 23.2135 54.0405 23.0311 54.1939 22.8938C54.5344 22.5893 55.05 22.0166 55.8707 21.0881C55.8709 21.0879 55.871 21.0877 55.8712 21.0876L55.3093 20.5908C56.3552 19.4099 57.418 18.1109 57.6879 17.6892L60.5658 12.2379ZM60.5658 12.2379L60.5579 12.2422C59.9746 12.5572 59.6116 13.0862 59.5137 14.0208L60.5658 12.2379ZM52.7658 23.1169C52.7659 23.1169 52.7643 23.1162 52.7608 23.1151C52.7639 23.1164 52.7657 23.1169 52.7658 23.1169ZM60.9166 14.5815C60.9167 14.5817 60.9176 14.5828 60.9193 14.5849C60.9174 14.5824 60.9165 14.5814 60.9166 14.5815ZM61.9823 14.3445C61.9822 14.3447 61.9822 14.3448 61.9822 14.345L61.9833 14.3403C61.9832 14.3405 61.9828 14.3418 61.9823 14.3445ZM62.1323 13.7024C62.2426 13.8532 62.3459 14.0464 62.4431 14.253C62.5633 14.4872 62.6741 14.8217 62.763 15.1412C62.8579 15.4825 62.9443 15.8676 62.9999 16.2186C63.2844 17.911 62.9975 19.4453 62.0567 21.6246C61.8846 22.0428 61.7266 22.4567 61.6127 22.7863C61.5552 22.9527 61.5116 23.09 61.4834 23.1919C61.4791 23.2074 61.4754 23.221 61.4723 23.233C61.4769 23.2424 61.4823 23.2528 61.4884 23.2641C61.5324 23.3448 61.5907 23.4203 61.6398 23.4659L61.6556 23.4805L61.6705 23.4961L61.854 23.6872H65.988C67.5989 23.6872 68.7353 23.6998 69.4911 23.7322C69.8666 23.7483 70.1677 23.77 70.3933 23.8009C70.5049 23.8162 70.619 23.8365 70.7235 23.8665C70.796 23.8873 70.9944 23.9461 71.1576 24.1093L70.6273 24.6397L71.1576 24.1093C71.2737 24.2255 71.3287 24.352 71.3519 24.4105C71.38 24.4815 71.3984 24.5507 71.4112 24.6072C71.4368 24.7208 71.4548 24.8529 71.4691 24.9928C71.498 25.2765 71.5191 25.6757 71.5351 26.2028C71.5671 27.2614 71.5797 28.8999 71.5797 31.3033C71.5797 34.396 71.5757 36.036 71.5324 36.9198C71.5115 37.3458 71.4795 37.6742 71.4044 37.919C71.3624 38.0562 71.2969 38.2029 71.1847 38.3366C71.0704 38.4729 70.9465 38.5483 70.8734 38.5889L70.8592 38.5968L70.8446 38.6041C70.7295 38.6616 70.6137 38.6831 70.5757 38.6901L70.5734 38.6905C70.5135 38.7017 70.4486 38.7103 70.3855 38.7172C70.2579 38.7314 70.0965 38.7434 69.9124 38.754C69.5419 38.7752 69.0431 38.7926 68.4611 38.8064C67.2952 38.834 65.7711 38.8477 64.2188 38.8477C62.6662 38.8477 61.0806 38.834 59.7915 38.8064C58.5305 38.7795 57.4871 38.7386 57.0685 38.6746L57.0685 38.6747L57.0603 38.6733C55.8085 38.4678 54.7355 37.997 53.7317 37.2363L53.1811 36.8359L52.8723 36.6113V36.2294V31.2696V26.3267V26.0438L53.0591 25.8314L56.0113 22.4742L56.0125 22.4729C56.9691 21.3904 57.7485 20.469 58.3322 19.7342C58.9271 18.9853 59.2869 18.4694 59.436 18.1847L59.4369 18.183C60.0575 17.0053 60.4638 15.5407 60.4638 14.6695C60.4638 14.4436 60.4752 14.2207 60.5149 14.0334C60.534 13.9431 60.5698 13.8101 60.6476 13.6794C60.726 13.5476 60.9072 13.3251 61.2351 13.273C61.5468 13.2234 61.7788 13.3636 61.8834 13.4426C61.9955 13.5273 62.0775 13.6275 62.1323 13.7024ZM51.8418 37.4271V38.1771H51.0918H48.983H46.8743H46.1243V37.4271V31.1009V24.7746V24.0246H46.8743H48.983H51.0918H51.8418V24.7746V31.1009V37.4271Z" fill="#D4FF8E" stroke="#D4FF8E" stroke-width="1.5"/>
<path d="M19.5864 35.5264C19.5672 35.533 19.553 35.5392 19.5429 35.544C19.5317 35.5702 19.5125 35.6182 19.4873 35.6964C19.4289 35.8777 19.3592 36.1511 19.2746 36.5496C19.1064 37.3411 18.8948 38.5502 18.601 40.346C18.5684 40.5914 18.4239 40.7459 18.3524 40.8089C18.2681 40.8831 18.1871 40.9205 18.1539 40.935C18.0816 40.9665 18.0195 40.9799 18.0004 40.984C17.9501 40.9947 17.9035 40.9998 17.879 41.0023C17.8214 41.0082 17.7513 41.0124 17.6796 41.0157C17.5317 41.0226 17.3254 41.028 17.0799 41.0322C16.5866 41.0408 15.9112 41.045 15.1754 41.045C13.8686 41.045 13.2468 41.0506 12.8934 41.0925C12.7314 41.1117 12.6798 41.1335 12.6669 41.1395L12.6667 41.1396C12.6564 41.1443 12.6372 41.1532 12.5552 41.2245C12.3635 41.4024 12.3205 41.5453 12.3159 41.622C12.3119 41.6896 12.3305 41.8048 12.4835 41.9578C12.5 41.9743 12.509 41.9821 12.5128 41.9852C12.5245 41.9899 12.5774 42.0086 12.7229 42.0259C13.0584 42.0658 13.6468 42.0755 14.8211 42.0755H17.3516H18.1016V42.8255V43.281V43.3044L18.1001 43.3278C18.0809 43.6355 17.9918 44.3577 17.8692 44.9895L17.6674 46.0826L17.5565 46.6832L16.9459 46.6963L14.5841 46.7469L14.5822 46.7469C13.9114 46.7596 13.4141 46.7762 13.0392 46.8084C12.6645 46.8405 12.475 46.8841 12.3816 46.9206C12.3801 46.9294 12.3786 46.9399 12.3771 46.9521C12.3698 47.0119 12.3658 47.0937 12.3658 47.2117C12.3658 47.4339 12.386 47.5253 12.3972 47.5582C12.4032 47.5619 12.4125 47.5671 12.4259 47.5734C12.5124 47.6144 12.6893 47.6659 13.0419 47.7076C13.3839 47.7481 13.8338 47.7737 14.4349 47.7946C15.0129 47.8032 15.5403 47.8202 15.9256 47.8374C16.1186 47.8459 16.2793 47.8547 16.3944 47.8627C16.4505 47.8665 16.5032 47.8708 16.5458 47.8753C16.5643 47.8773 16.5964 47.881 16.6306 47.8872L16.6307 47.8872C16.6432 47.8895 16.6858 47.8972 16.7367 47.9137C16.7569 47.9202 16.823 47.9419 16.8981 47.9878C16.9355 48.0106 17.0091 48.0596 17.0805 48.144C17.1544 48.2314 17.2581 48.397 17.2581 48.6288V48.692L17.2475 48.7543L16.5081 48.6288L17.2475 48.7544L17.2475 48.7544L17.2475 48.7545L17.2474 48.755L17.2471 48.757L17.2457 48.7648L17.2406 48.7951L17.2208 48.9112L17.1482 49.3355C17.0869 49.6924 17.0025 50.1824 16.9095 50.7147C16.818 51.2387 16.735 51.7663 16.675 52.1901C16.645 52.4022 16.6212 52.5852 16.6051 52.7271C16.5971 52.7981 16.5913 52.8559 16.5876 52.9002C16.5842 52.9407 16.5835 52.9598 16.5833 52.9638C16.5833 52.9646 16.5833 52.9648 16.5833 52.9644C16.5833 52.9719 16.6001 53.0749 16.7431 53.2031C16.8795 53.3254 17.0325 53.3784 17.1323 53.3784C17.2422 53.3784 17.2877 53.3672 17.3006 53.3631C17.3112 53.3525 17.3363 53.3222 17.3723 53.2513C17.527 52.9466 17.6777 52.3249 17.8938 51.0199L17.8938 51.0199L17.8945 51.016C18.0041 50.3748 18.1051 49.7819 18.1785 49.339C18.2153 49.1173 18.2448 48.9355 18.265 48.8049C18.2751 48.7393 18.2824 48.6898 18.287 48.656C18.2883 48.6464 18.2892 48.6391 18.2899 48.6339C18.3081 48.3128 18.5154 48.1297 18.5875 48.0739C18.6773 48.0043 18.7636 47.9691 18.8023 47.9543C18.888 47.9216 18.9722 47.9043 19.0245 47.8947C19.141 47.8734 19.284 47.8584 19.4307 47.8472C19.7315 47.8243 20.1311 47.8113 20.5569 47.8113C21.0642 47.8113 21.4802 47.8281 21.7816 47.8655C21.9253 47.8833 22.0864 47.9107 22.2289 47.9613C22.2967 47.9854 22.4115 48.0321 22.5226 48.122C22.6372 48.2147 22.8252 48.4219 22.8252 48.7469C22.8252 48.8123 22.8161 48.885 22.8123 48.9156L22.8119 48.9191C22.806 48.9668 22.7978 49.0257 22.7882 49.0921C22.7688 49.2257 22.7413 49.4038 22.7085 49.6121C22.6681 49.8692 22.6186 50.178 22.5649 50.513C22.5317 50.7204 22.4969 50.9378 22.4616 51.1593L22.4616 51.1593L22.4606 51.1655C22.2769 52.2588 22.2042 52.7068 22.201 52.9532C22.2004 52.9955 22.2024 53.019 22.2039 53.0298C22.2062 53.034 22.2103 53.0411 22.2171 53.0519C22.233 53.0773 22.2534 53.1068 22.2893 53.1578C22.4937 53.4114 22.8208 53.4079 22.9968 53.2433L22.9968 53.2433C23.023 53.2188 23.0845 53.1588 23.1746 52.835C23.2751 52.4741 23.3831 51.8923 23.5444 50.8733L23.5446 50.8723L23.9326 48.443L24.0335 47.8113H24.6732H27.1362C28.4303 47.8113 29.2281 47.7719 29.7252 47.682C30.0446 47.6242 30.1545 47.5605 30.1845 47.5361L30.1873 47.5309C30.2813 47.3563 30.272 47.0869 30.198 46.9239C30.1649 46.9158 30.1121 46.9049 30.032 46.8936C29.6804 46.8439 29.0539 46.8147 27.8405 46.7805L27.8368 46.7804C27.561 46.7712 27.3046 46.7648 27.0703 46.7588C26.6825 46.749 26.3549 46.7408 26.099 46.7245C25.8882 46.711 25.6823 46.6902 25.4978 46.6485C25.3165 46.6076 25.0946 46.5336 24.9001 46.373C24.4442 45.9967 24.4706 45.4507 24.5013 45.156C24.5218 44.9597 24.5695 44.698 24.6218 44.4115C24.6509 44.252 24.6814 44.0847 24.7094 43.9168L24.9119 42.7022L25.0163 42.0755H25.6517H27.9629C29.0979 42.0755 29.6146 42.0692 29.8995 42.0283C29.9739 42.0176 30.0096 42.0072 30.0227 42.0026C30.0309 41.9952 30.0511 41.9761 30.0902 41.933L30.0902 41.9329L30.0975 41.9251C30.2235 41.7904 30.252 41.6732 30.2498 41.5918C30.2475 41.51 30.2119 41.3901 30.073 41.2557L30.0629 41.2459L30.0531 41.2357C29.9603 41.1389 29.9373 41.1242 29.931 41.1203L29.9309 41.1203C29.9302 41.1198 29.9269 41.1178 29.9163 41.1141C29.9032 41.1096 29.8764 41.1017 29.8271 41.0933C29.5859 41.052 29.1532 41.045 28.1484 41.045C27.5147 41.045 26.985 41.028 26.605 40.9959C26.4199 40.9803 26.2439 40.9591 26.1016 40.9274C26.0368 40.9129 25.934 40.8869 25.8312 40.8368C25.781 40.8123 25.6889 40.7624 25.5998 40.6723C25.5064 40.5778 25.374 40.3928 25.374 40.1263C25.374 40.0396 25.3931 39.8956 25.4064 39.7956L25.4072 39.7899C25.4249 39.6558 25.4503 39.477 25.481 39.2669C25.5427 38.846 25.6275 38.2908 25.7205 37.6987L25.7208 37.6966C25.895 36.6083 25.9654 36.1412 25.9687 35.8823C25.9695 35.8267 25.9664 35.7981 25.9645 35.7865C25.9598 35.7782 25.9434 35.7515 25.8929 35.6811C25.8045 35.5687 25.6213 35.4783 25.4009 35.484C25.2043 35.489 25.1302 35.5586 25.1098 35.5844C25.1026 35.6094 25.0851 35.6712 25.0577 35.7845C25.0216 35.9338 24.9776 36.1326 24.9291 36.3681C24.8321 36.8383 24.7202 37.4394 24.6206 38.0532L24.6207 38.0532L24.6196 38.0591L24.2316 40.3366L24.1289 40.9398L23.5173 40.9602L21.999 41.0108L21.9987 41.0108L20.4635 41.0615L19.5485 41.0916L19.699 40.1886L20.0027 38.3666L20.0027 38.3666L20.0034 38.3623C20.2063 37.1869 20.2964 36.4638 20.2983 36.0028C20.2994 35.7102 20.2638 35.5975 20.2481 35.5643C20.2381 35.5575 20.2061 35.5381 20.1416 35.5192C20.0619 35.496 19.961 35.4821 19.8535 35.4841C19.7454 35.486 19.6523 35.5035 19.5864 35.5264ZM12.388 47.5518C12.388 47.5518 12.3882 47.552 12.3885 47.5523L12.388 47.5518ZM17.295 53.3679C17.295 53.368 17.2963 53.3672 17.2988 53.3648C17.2962 53.3665 17.2949 53.3677 17.295 53.3679ZM22.2054 53.0373C22.2055 53.0372 22.2052 53.0357 22.2045 53.0332C22.205 53.0362 22.2053 53.0374 22.2054 53.0373ZM30.1881 47.5314C30.1872 47.5326 30.1862 47.5339 30.1852 47.5355C30.1868 47.5342 30.1881 47.533 30.1892 47.532C30.1933 47.5282 30.1945 47.526 30.194 47.5258C30.1934 47.5256 30.1912 47.5274 30.1881 47.5314ZM30.029 42.0001C30.029 42.0001 30.0283 42.0004 30.027 42.001C30.0283 42.0005 30.029 42.0001 30.029 42.0001ZM30.0191 42.0057C30.0185 42.0062 30.0181 42.0065 30.0181 42.0065L30.0191 42.0057ZM25.9631 35.7801C25.9631 35.7802 25.9633 35.7814 25.964 35.7835C25.9635 35.7812 25.9632 35.7801 25.9631 35.7801ZM20.241 35.5528C20.2407 35.5532 20.2424 35.5566 20.2469 35.5617C20.2435 35.5549 20.2412 35.5523 20.241 35.5528ZM23.8374 42.8592C23.8374 42.9585 23.8193 43.086 23.8067 43.1707C23.7909 43.2778 23.7689 43.41 23.7433 43.5555C23.692 43.8475 23.6234 44.209 23.5532 44.5634C23.4829 44.9178 23.4101 45.2696 23.3502 45.5422C23.3203 45.6778 23.2927 45.7984 23.2695 45.8915C23.258 45.9374 23.2461 45.9829 23.2344 46.0229C23.2343 46.0231 23.2342 46.0236 23.234 46.0242C23.2308 46.0357 23.2088 46.1151 23.1677 46.1975L23.1678 46.1975C23.0395 46.454 22.8127 46.5569 22.7628 46.5796L22.76 46.5809C22.6736 46.6202 22.5882 46.6444 22.5248 46.6598C22.3934 46.6919 22.2396 46.714 22.0868 46.7302C21.7747 46.7633 21.3758 46.7808 20.9618 46.7808C20.8892 46.7808 20.8176 46.781 20.7475 46.7813C20.4629 46.7822 20.2037 46.783 20.0032 46.7679C19.7931 46.752 19.3669 46.7101 19.0742 46.3715C18.776 46.0264 18.8051 45.5947 18.8249 45.3843C18.8437 45.1831 18.8896 44.9266 18.9397 44.6472C18.9512 44.5828 18.9629 44.5171 18.9746 44.4506C18.9993 44.3086 19.0221 44.172 19.0436 44.043C19.0906 43.7612 19.1317 43.5151 19.1739 43.3249C19.2319 43.0636 19.3292 42.6973 19.6153 42.4286C19.924 42.1386 20.3057 42.0928 20.5653 42.078C20.7376 42.0682 20.9622 42.0705 21.2073 42.073C21.3244 42.0742 21.4462 42.0755 21.5691 42.0755C21.9952 42.0755 22.3807 42.0797 22.6619 42.0862C22.8015 42.0895 22.9205 42.0933 23.0075 42.0978C23.049 42.1 23.0941 42.1028 23.1338 42.1069C23.1499 42.1086 23.1872 42.1126 23.2295 42.1212L23.2297 42.1212C23.2453 42.1244 23.3008 42.1358 23.3666 42.1623C23.3958 42.1741 23.4737 42.2071 23.5571 42.2741C23.6279 42.3311 23.8374 42.5236 23.8374 42.8592Z" fill="#D4FF8E" stroke="#D4FF8E" stroke-width="1.5"/>
<path d="M37.5305 67.204L37.5305 67.204L37.5286 67.2075C37.3198 67.5903 37.249 67.8508 37.249 69.0584C37.249 69.7595 37.2641 70.0929 37.3217 70.3682C37.3762 70.6284 37.4758 70.87 37.7266 71.3716L37.7266 71.3715L37.7321 71.3829C38.0689 72.0857 38.4915 72.6355 39.2669 73.3477L39.2669 73.3477L39.269 73.3496C39.7922 73.8338 40.5814 74.4239 41.3804 74.9469C42.1867 75.4748 42.9406 75.8933 43.3941 76.0664C43.5152 76.1117 43.5851 76.1243 43.6415 76.1262C43.6975 76.1281 43.7829 76.1207 43.9314 76.0712C44.2622 75.961 44.7603 75.6957 45.6927 75.1311L45.6927 75.1311L45.6961 75.129C47.6001 73.9899 49.0215 72.5654 49.6094 71.3749L49.6094 71.3749L49.611 71.3716C49.8618 70.87 49.9614 70.6284 50.0159 70.3682C50.0735 70.0929 50.0886 69.7595 50.0886 69.0584C50.0886 68.3631 50.0733 68.0397 50.0222 67.7946C49.9767 67.577 49.8971 67.3931 49.6759 66.9916C49.2367 66.1987 48.4135 65.4804 47.5775 65.1739L47.5764 65.1735C47.2189 65.0418 46.7034 64.9777 46.1582 65.0077C45.6112 65.0378 45.1217 65.1577 44.8073 65.3209L44.7994 65.325L44.7913 65.3289L43.9985 65.717L43.6688 65.8783L43.3391 65.717L42.5462 65.3289L42.5462 65.329L42.5365 65.3241C41.6321 64.8652 40.3134 64.8681 39.3123 65.3608C38.5317 65.7515 38.0616 66.2177 37.5305 67.204ZM48.1856 66.797L48.1923 66.803L48.1988 66.8092C48.2133 66.8229 48.228 66.8367 48.2427 66.8505C48.5001 67.0928 48.7855 67.3614 48.9297 67.7635C49.0586 68.123 49.0583 68.5538 49.0581 69.042C49.0581 69.0642 49.058 69.0865 49.058 69.109C49.058 69.6277 49.0442 70.0356 48.944 70.41C48.8384 70.8042 48.6516 71.1098 48.426 71.4482L48.4185 71.4594L48.4106 71.4704C48.0532 71.9668 47.4751 72.5325 46.8577 73.0452C46.2335 73.5635 45.5235 74.0654 44.8734 74.4225L44.8734 74.4225L44.8687 74.425L44.0252 74.8805L43.6682 75.0733L43.3116 74.8801L42.5034 74.4423C41.8533 74.0942 41.1477 73.6057 40.5321 73.1048C39.9243 72.6103 39.3559 72.0646 39.0128 71.5904C37.9582 70.1375 37.8913 67.9948 39.1016 66.7617L39.1016 66.7616L39.1065 66.7567C39.3442 66.519 39.5966 66.3065 39.9302 66.1768C40.2554 66.0503 40.5869 66.0309 40.919 66.0309C41.2727 66.0309 41.6535 66.0395 42.0377 66.2415C42.3801 66.4215 42.6653 66.7274 42.9746 67.0684C43.2426 67.3606 43.3955 67.4898 43.4946 67.5508C43.5606 67.5914 43.5958 67.5998 43.6688 67.5998C43.7418 67.5998 43.777 67.5914 43.843 67.5508C43.942 67.4898 44.0949 67.3607 44.3627 67.0687C44.6708 66.7283 44.9525 66.4332 45.2804 66.2538C45.6551 66.0486 46.0152 66.0309 46.3511 66.0309C46.6844 66.0309 47.0041 66.0661 47.3337 66.2083C47.6483 66.3441 47.9154 66.5539 48.1856 66.797Z" fill="#D4FF8E" stroke="#D4FF8E" stroke-width="1.5"/>
</svg>
