<svg width="100" height="100" viewBox="0 0 100 100" fill="none" xmlns="http://www.w3.org/2000/svg">
<path d="M97.51 19.11V37.97L71.05 51.29H33.61L7.15002 37.97V19.11L33.61 5.78998H71.05L97.51 19.11Z" stroke="white" stroke-width="3" stroke-miterlimit="10"/>
<path d="M97.51 37.97V50.87L71.05 64.21H33.61L7.15002 50.87V37.97L33.61 51.29H71.05L97.51 37.97Z" stroke="white" stroke-width="3" stroke-miterlimit="10"/>
<path d="M69.93 29.69C69.67 30.45 69.5 31.23 69.15 31.96C66.78 36.79 60.03 38.13 55.48 36C55.41 35.97 55.33 35.96 55.2 35.93V40.33C55.97 40.33 56.73 40.33 57.49 40.33C59 40.35 60.1 41.18 60.08 42.28C60.06 43.36 58.98 44.17 57.5 44.17C54.3 44.18 51.09 44.18 47.89 44.17C46.38 44.17 45.28 43.32 45.3 42.23C45.32 41.16 46.41 40.35 47.87 40.33C48.63 40.33 49.39 40.33 50.18 40.33V35.94C50.03 35.98 49.89 36.01 49.76 36.06C44.35 38.24 38.07 36.25 36.1 31.73C34.68 28.46 35.57 25.51 38.18 22.81C40.29 20.63 42.93 18.86 45.56 17.09C47.36 15.88 49.16 14.66 50.98 13.46C52.08 12.74 53.26 12.71 54.33 13.44C57.93 15.9 61.56 18.35 65.04 20.91C67.27 22.55 69.01 24.5 69.67 26.91C69.74 27.16 69.83 27.4 69.91 27.64V29.69H69.93Z" stroke="white" stroke-width="3" stroke-miterlimit="10"/>
<path d="M57.83 83.5C57.83 83.7 57.83 83.92 57.81 84.12C57.49 86.86 55.17 89 52.34 89C49.51 89 47.23 86.9 46.89 84.22C46.87 84 46.84 83.75 46.84 83.5C46.84 82.27 47.23 81.13 47.9 80.24C48.91 78.86 50.51 77.97 52.34 77.97C54.17 77.97 55.84 78.88 56.83 80.31C57.47 81.2 57.84 82.31 57.84 83.49L57.83 83.5Z" stroke="white" stroke-width="3" stroke-miterlimit="10"/>
<path d="M42.24 72.63V64.21" stroke="white" stroke-width="3" stroke-miterlimit="10"/>
<path d="M46.83 83.5C46.83 83.75 46.85 83.99 46.88 84.22C46.46 85.3 46.19 85.97 45.65 86.59C43.18 89.39 39.22 92.83 35.57 93.9C33.74 94.44 31.65 94.34 30.09 93.25C24.77 89.57 31.86 84.68 33.76 81.49C35.28 78.94 36.68 74.64 39.38 73.08C40.4 72.49 41.68 72.58 42.8 72.95C46.24 74.07 47.69 76.83 47.9 80.25C47.23 81.14 46.84 82.27 46.84 83.51L46.83 83.5Z" stroke="white" stroke-width="3" stroke-miterlimit="10"/>
<path d="M58.8899 83.5C58.8899 83.75 58.8699 83.99 58.8399 84.22C59.2599 85.3 59.5299 85.97 60.0699 86.59C62.5399 89.39 66.4999 92.83 70.1499 93.9C71.9799 94.44 74.0699 94.34 75.6299 93.25C80.9499 89.57 73.8599 84.68 71.9599 81.49C70.4399 78.94 69.0399 74.64 66.3399 73.08C65.3199 72.49 64.0399 72.58 62.9199 72.95C59.4799 74.07 58.0299 76.83 57.8199 80.25C58.4899 81.14 58.8799 82.27 58.8799 83.51L58.8899 83.5Z" stroke="white" stroke-width="3" stroke-miterlimit="10"/>
<path d="M62.47 72.63V64.21" stroke="white" stroke-width="3" stroke-miterlimit="10"/>
</svg>
