<svg width="120" height="84" viewBox="0 0 120 84" fill="none" xmlns="http://www.w3.org/2000/svg">
<g clip-path="url(#clip0_614_397)">
<path d="M36.5729 83.3051C25.0909 83.3051 19.2573 83.2001 15.7663 82.9281C12.0733 82.6411 10.881 82.1509 9.48896 81.4349C7.27768 80.3323 5.3057 78.8029 3.68818 76.9349C2.56518 75.4349 1.46668 72.23 0.750682 68.35C0.0602352 65.1605 -0.0961134 61.8787 0.287791 58.6381C0.368 57.5064 0.770682 56.4213 1.44795 55.5111C2.32211 54.8286 3.37904 54.4205 4.48506 54.3383C7.10297 53.6321 9.50695 52.2924 11.4851 50.4379C14.5051 47.5189 14.8854 46.5881 14.8854 42.1381C14.8854 35.9311 11.6558 31.5277 5.78584 29.7377C0.508838 28.2377 -0.521162 26.0555 0.285838 18.0385C0.838838 12.6385 2.12167 8.68561 4.20967 5.94861C5.24762 4.5753 6.56514 3.43773 8.0749 2.61072C9.73207 1.7251 11.5266 1.12651 13.3835 0.839233C16.7665 0.265233 38.9659 0.0609131 56.9499 0.0609131C78.2639 0.0609131 102.7 0.333913 105.985 0.935913C111.169 1.95291 115.006 4.47672 117.085 8.23572C118.024 10.6975 118.63 13.2742 118.885 15.8969C119.334 18.653 119.433 21.4544 119.184 24.2357C118.784 27.1057 118.01 27.8231 112.784 30.1361C107.884 32.3841 106.55 33.5029 105.284 36.4359C104.602 38.0447 104.263 39.7785 104.288 41.5258C104.313 43.273 104.702 44.9959 105.43 46.5844C106.279 48.368 107.485 49.9584 108.973 51.2572C110.462 52.556 112.201 53.5354 114.083 54.1351C117.409 55.3101 118.47 56.0547 119.083 58.7347C119.604 60.7687 119.532 64.2653 118.883 68.0883C118.233 71.9363 117.147 75.2072 115.983 76.8392C111.583 82.9392 111.583 82.9386 60.1882 83.2386C50.4542 83.2756 42.7079 83.3051 36.5729 83.3051ZM107.794 5.93201H59.9929C36.5459 5.93201 24.7928 5.96007 18.3698 6.22107C11.7898 6.48707 10.8384 6.99096 9.59639 7.93396C8.34639 8.95396 6.98932 11.4403 6.05732 14.4213C5.12532 17.4023 4.8326 20.2068 5.2956 21.7318C5.6956 22.8488 7.85139 24.5526 10.0964 25.5316C13.1926 26.8902 15.826 29.1214 17.6745 31.9525C19.3639 34.6003 20.2957 37.6611 20.3679 40.8011C20.4519 44.2105 19.5815 47.5753 17.8542 50.516C15.9389 53.738 13.1413 56.3454 9.79365 58.0316C7.55965 59.1046 5.71165 60.8763 5.29365 62.3383C4.98112 64.6517 5.23792 67.0059 6.0417 69.1976C6.69194 71.5452 7.87207 73.7124 9.49092 75.5326L11.8913 78.0326L59.8913 77.7328L107.891 77.433L110.491 74.8334C112.23 72.9994 113.32 70.6455 113.592 68.1332C114.018 64.8452 113.939 62.8077 113.333 61.3207C112.727 59.8337 111.506 58.8046 109.395 58.0326C106.153 56.8906 103.227 53.9906 101.37 50.0726C99.5227 46.275 98.9696 41.9777 99.7956 37.8363C100.268 35.3485 101.303 33.0011 102.821 30.974C104.53 28.8801 106.627 27.1356 108.997 25.8353L113.397 23.2347V17.0345C113.397 11.4405 113.109 10.5473 110.596 8.33533L107.794 5.93201ZM38.4714 69.5219C37.3174 69.5219 36.7033 67.8171 36.3483 63.6351C35.9693 59.1121 35.8913 51.5187 35.8913 40.7347V14.933H42.1921L41.6921 41.5326C41.2841 63.6326 40.9627 68.2556 39.7917 69.0326C39.4044 69.3126 38.9477 69.482 38.4714 69.5219ZM62.2917 41.934C55.4757 41.934 52.9015 41.5276 52.0925 40.3236C51.6665 39.6936 51.7267 38.8309 52.2917 37.4359C52.6647 36.3729 58.0419 35.8158 63.1589 35.8158C67.4109 35.8158 71.8521 36.2232 72.1921 37.1342C72.4066 38.1271 72.3726 39.1577 72.0925 40.1342C71.6985 41.7152 70.5087 41.934 62.2917 41.934ZM77.1706 23.8265C74.9476 23.8265 72.2384 23.7988 68.3894 23.7338C60.2994 23.5778 56.5416 23.4755 54.5046 23.1595C52.4126 22.8345 52.2386 22.2748 52.0886 21.2318C51.8016 19.5788 52.3176 19.0452 54.5886 18.6322C59.5261 18.1982 64.4822 18.0185 69.4382 18.0941C75.6612 18.0941 81.1222 18.2607 83.6882 18.5297C87.7822 19.1177 88.8894 19.4957 88.8894 21.0297C88.8944 23.1977 87.3546 23.8265 77.1706 23.8265Z" fill="white"/>
</g>
<defs>
<clipPath id="clip0_614_397">
<rect width="119.506" height="83.365" fill="white"/>
</clipPath>
</defs>
</svg>
