<svg width="43" height="42" viewBox="0 0 43 42" fill="none" xmlns="http://www.w3.org/2000/svg">
<path d="M25.0548 40.3851C24.8635 40.3921 24.6754 40.3339 24.5214 40.2201C24.2883 40.0624 24.1142 39.8317 24.0265 39.5643L23.6034 38.0536C23.5637 37.9127 23.5524 37.7654 23.5702 37.6202C23.5879 37.4749 23.6344 37.3346 23.7068 37.2075C23.7792 37.0803 23.8762 36.9688 23.9921 36.8795C24.108 36.7901 24.2405 36.7247 24.3819 36.687L24.805 36.5811C30.4158 35.0578 34.8332 30.8434 36.331 25.5798C37.4476 21.6963 37.0612 17.5348 35.2484 13.9233C33.4357 10.3119 30.3296 7.51541 26.5484 6.09041L26.3833 6.97895C26.3445 7.17755 26.2517 7.36161 26.1151 7.5109C25.9785 7.66018 25.8034 7.7689 25.609 7.82509C25.5056 7.86033 25.3963 7.8752 25.2873 7.86889C25.1347 7.86947 24.9836 7.8389 24.8432 7.77904C24.7028 7.71918 24.5761 7.6313 24.4709 7.52077L20.1759 3.06826C20.0747 2.96602 19.995 2.84458 19.9414 2.71108C19.8878 2.57758 19.8615 2.43472 19.864 2.2909C19.8498 2.15093 19.8654 2.00954 19.9099 1.87607C19.9544 1.7426 20.0266 1.62009 20.122 1.51662C20.2271 1.39711 20.3577 1.30275 20.5041 1.2405C20.6506 1.17825 20.8091 1.14972 20.9681 1.157C22.7358 1.16263 24.4942 1.41184 26.1938 1.89758C26.2379 1.89703 26.2814 1.90724 26.3207 1.92734H26.3589C31.1507 3.30412 35.2532 6.42556 37.8581 10.6767C40.463 14.9278 41.3813 20.0003 40.4323 24.8948C38.9809 32.1601 33.1544 38.1853 25.593 40.2459L25.4027 40.3093C25.2918 40.3531 25.1747 40.3788 25.0557 40.3854L25.0548 40.3851ZM26.4004 5.42197C30.4138 6.82393 33.7369 9.71118 35.6858 13.4893C37.6346 17.2675 38.0609 21.6491 36.8767 25.732C35.3195 31.182 30.7415 35.5578 24.9277 37.1564L24.5046 37.258C24.4327 37.2791 24.3658 37.3148 24.3083 37.3628C24.2508 37.4109 24.2038 37.4703 24.1702 37.5373C24.1463 37.5913 24.134 37.6497 24.134 37.7087C24.134 37.7677 24.1463 37.8261 24.1702 37.8801L24.5933 39.4076C24.6421 39.548 24.7359 39.6685 24.86 39.7504C24.9316 39.7929 25.0136 39.8149 25.0969 39.8138C25.1476 39.8201 25.1988 39.8201 25.2494 39.8138L25.4313 39.7546C32.7218 37.7448 38.3919 31.8939 39.8262 24.814C40.7568 20.0615 39.8656 15.1329 37.3296 11.0073C34.8376 6.86383 30.8593 3.8267 26.2056 2.51493H26.0447L25.9939 2.46411C24.3597 1.99296 22.668 1.7509 20.9673 1.74486C20.8954 1.74197 20.8236 1.75402 20.7566 1.78026C20.6896 1.8065 20.6287 1.84635 20.5779 1.8973C20.5307 1.95032 20.4953 2.0128 20.4741 2.08058C20.453 2.14836 20.4465 2.21987 20.4552 2.29034C20.4531 2.36253 20.466 2.43437 20.4929 2.50137C20.5199 2.56838 20.5604 2.62909 20.6119 2.67972L24.8982 7.14346C24.9476 7.19864 25.0074 7.24349 25.0743 7.27543C25.1411 7.30738 25.2136 7.32578 25.2876 7.32959C25.3154 7.33523 25.344 7.33523 25.3718 7.32959C25.4725 7.29299 25.5632 7.2333 25.6367 7.15529C25.7102 7.07728 25.7643 6.98314 25.7949 6.88041L26.091 5.35712L26.4004 5.42197Z" fill="white"/>
<path d="M20.9671 1.3178C22.7263 1.32185 24.4764 1.56967 26.1675 2.05418C26.1859 2.05178 26.2046 2.0536 26.2222 2.05948C26.2398 2.06536 26.2559 2.07517 26.2691 2.08815H26.3368C31.0885 3.45483 35.1566 6.55037 37.7408 10.7656C40.3249 14.9809 41.2379 20.0107 40.3002 24.8653C38.8572 32.0584 33.0852 38.0457 25.5709 40.0979L25.3722 40.1655C25.2754 40.2004 25.1743 40.2217 25.0718 40.229C24.9203 40.2321 24.7719 40.1861 24.6487 40.0979C24.4474 39.9605 24.2984 39.7592 24.2256 39.5266L23.8026 38.0159C23.7693 37.8947 23.7604 37.7681 23.7763 37.6435C23.7922 37.5188 23.8326 37.3985 23.8953 37.2895C23.9579 37.1805 24.0415 37.0851 24.1412 37.0086C24.241 36.9321 24.3548 36.8761 24.4763 36.8438L24.8994 36.7422C30.5703 35.1982 35.029 30.941 36.5397 25.6393C37.686 21.6776 37.2784 17.4278 35.3999 13.7562C33.5213 10.0847 30.3133 7.26768 26.4297 5.87952L26.2267 6.94997C26.1957 7.12439 26.116 7.28648 25.9967 7.41752C25.8775 7.54856 25.7237 7.64322 25.553 7.69056C25.467 7.71875 25.3765 7.73028 25.2863 7.72453C25.1546 7.72481 25.0243 7.6979 24.9035 7.64549C24.7828 7.59307 24.6741 7.51628 24.5844 7.41993L20.2902 2.95984C20.2029 2.87204 20.1339 2.7677 20.0874 2.65292C20.0409 2.53814 20.0177 2.41524 20.0193 2.2914C20.0101 2.16881 20.0263 2.04564 20.0671 1.92966C20.1079 1.81368 20.1723 1.70743 20.2563 1.61763C20.3453 1.51828 20.4552 1.43984 20.5781 1.38791C20.701 1.33598 20.8338 1.31185 20.9671 1.31724M25.2874 7.48703C25.3214 7.48703 25.4227 7.48703 25.4558 7.45306C25.5769 7.41071 25.6859 7.33973 25.7736 7.24617C25.8613 7.15262 25.925 7.03925 25.9595 6.91572L26.2262 5.54011L26.3615 5.57408C30.339 6.96236 33.6318 9.82475 35.56 13.5704C37.4883 17.3161 37.9049 21.6591 36.7238 25.703C35.1837 31.1022 30.652 35.4351 24.8767 37.0047L24.4536 37.1063C24.3654 37.128 24.2826 37.1677 24.2104 37.2229C24.1382 37.278 24.0782 37.3475 24.0341 37.4269C23.99 37.5064 23.9628 37.594 23.9542 37.6845C23.9455 37.7749 23.9557 37.8661 23.9839 37.9525L24.3859 39.4631C24.4498 39.636 24.5669 39.7841 24.7203 39.8862C24.8173 39.9448 24.9285 39.9756 25.0417 39.9752C25.1022 39.9814 25.1632 39.9814 25.2237 39.9752L25.4266 39.9075C32.8398 37.8935 38.5436 31.9907 39.9824 24.8821C40.9245 20.0854 40.0272 15.1098 37.4689 10.9443C34.9561 6.75181 30.9356 3.67852 26.2307 2.35373H26.129L26.0951 2.31976C24.4286 1.83598 22.7024 1.58839 20.9671 1.58422C20.8738 1.58197 20.7809 1.59882 20.6943 1.63372C20.6077 1.66862 20.5292 1.72085 20.4635 1.78719C20.4028 1.85532 20.3569 1.93519 20.3285 2.02184C20.3001 2.10849 20.2899 2.20006 20.2984 2.29084C20.2919 2.38609 20.3055 2.48165 20.3382 2.57131C20.371 2.66098 20.4223 2.74275 20.4887 2.81133L24.7753 7.25514C24.8392 7.3259 24.9168 7.383 25.0033 7.423C25.0899 7.463 25.1837 7.48506 25.279 7.48787M20.9671 1.00029C20.7877 0.996396 20.6096 1.03232 20.4457 1.10547C20.2819 1.17863 20.1362 1.28719 20.0193 1.42336C19.9077 1.54159 19.8215 1.68147 19.766 1.83435C19.7106 1.98723 19.6871 2.14986 19.697 2.31218C19.7023 2.63839 19.833 2.95004 20.062 3.18246L24.3522 7.63919C24.4715 7.76664 24.6158 7.86812 24.7761 7.93729C24.9364 8.00646 25.1092 8.04184 25.2837 8.0412C25.4163 8.0492 25.549 8.02901 25.6731 7.98197C25.8882 7.91009 26.08 7.78194 26.2288 7.61082C26.3775 7.43971 26.4777 7.23188 26.519 7.00893L26.6501 6.30708C30.3611 7.73789 33.4019 10.5065 35.1734 14.0675C36.9449 17.6285 37.3187 21.7237 36.2213 25.5466C34.7404 30.7468 30.3651 34.9188 24.7967 36.4337L24.3736 36.5311H24.3525C24.0291 36.6219 23.7548 36.8373 23.5898 37.13C23.4248 37.4227 23.3826 37.7688 23.4724 38.0926L23.8955 39.599C23.9888 39.9096 24.1899 40.1767 24.4626 40.3522C24.6398 40.4824 24.8563 40.5481 25.076 40.5384C25.2205 40.5352 25.3635 40.5081 25.4991 40.4581L25.6978 40.3904C33.3143 38.3214 39.1702 32.2451 40.6331 24.9217C41.5877 19.991 40.6624 14.8815 38.0394 10.5986C35.4163 6.31574 31.2854 3.16954 26.4595 1.77905H26.3876C26.3444 1.76129 26.2988 1.74985 26.2523 1.74508C24.5332 1.25472 22.7547 1.00408 20.9671 1.00029ZM25.3042 7.17092C25.2503 7.16889 25.1975 7.15531 25.1493 7.1311C25.1011 7.10688 25.0587 7.07259 25.0249 7.03055L20.7175 2.57017C20.6806 2.53396 20.6517 2.49037 20.6327 2.44224C20.6138 2.39411 20.6052 2.34252 20.6075 2.29084C20.6075 2.11734 20.6372 2.05811 20.6836 2.01151C20.7188 1.97445 20.7616 1.94543 20.8091 1.92644C20.8566 1.90745 20.9076 1.89893 20.9587 1.90146C22.639 1.90521 24.3107 2.1414 25.9263 2.6033L25.994 2.67096H26.1843C30.7906 3.98138 34.7249 6.99701 37.187 11.1046C39.7088 15.1997 40.5956 20.0944 39.6707 24.8139C38.2491 31.8167 32.6256 37.6178 25.3393 39.5982L25.1406 39.6616H25.0389C24.9837 39.6632 24.9292 39.6485 24.8823 39.6192C24.7901 39.553 24.7207 39.4598 24.6835 39.3525L24.2857 37.8632C24.271 37.8299 24.2634 37.7938 24.2634 37.7574C24.2634 37.7209 24.271 37.6849 24.2857 37.6515C24.3089 37.6027 24.3425 37.5596 24.3841 37.5253C24.4258 37.4909 24.4745 37.4662 24.5269 37.4528L24.9499 37.3511C30.8356 35.7094 35.4605 31.292 37.0472 25.787C38.2468 21.6641 37.8182 17.2381 35.8499 13.422C33.8816 9.60583 30.5238 6.69069 26.469 5.2779L26.3337 5.24393L26.0123 5.16364L25.9446 5.48957L25.6824 6.852C25.6594 6.92491 25.6194 6.99132 25.5657 7.04575C25.512 7.10017 25.4462 7.14105 25.3736 7.16502H25.3396L25.3042 7.17092Z" fill="white"/>
<path d="M20.9247 40.8548C19.1581 40.8348 17.4016 40.5858 15.699 40.1142C15.6679 40.1095 15.6378 40.0995 15.6101 40.0847H15.5719C10.7734 38.719 6.66352 35.5996 4.05748 31.3453C1.45144 27.091 0.539644 22.0126 1.50295 17.1175C2.95436 9.80593 8.7766 3.76781 16.3464 1.73302L16.5359 1.66901C16.6307 1.64104 16.729 1.62676 16.8279 1.62662C17.0665 1.62603 17.2994 1.69878 17.4953 1.83502C17.6911 1.97125 17.8404 2.16439 17.9228 2.38826L18.3458 4.00897C18.3872 4.15011 18.4001 4.29804 18.3839 4.44421C18.3677 4.59038 18.3227 4.7319 18.2515 4.86057C18.1803 4.98924 18.0843 5.10252 17.969 5.19387C17.8538 5.28521 17.7215 5.3528 17.58 5.39273L17.1569 5.49435C11.5228 6.99181 7.10508 11.1894 5.6152 16.453C4.4658 20.3266 4.83165 24.4923 6.63866 28.1062C8.44567 31.7202 11.5587 34.5122 15.3473 35.9168L15.5124 35.0283C15.55 34.835 15.6379 34.6551 15.7671 34.5065C15.8964 34.358 16.0625 34.2461 16.2487 34.1822C16.3536 34.1469 16.4643 34.1325 16.5747 34.1398C16.7272 34.139 16.8784 34.1694 17.0188 34.229C17.1592 34.2887 17.286 34.3764 17.3913 34.4868L21.72 38.9505C21.8216 39.0528 21.9016 39.1744 21.9553 39.3081C22.0091 39.4418 22.0355 39.5849 22.0331 39.729C22.0468 39.8728 22.0286 40.0179 21.9795 40.1539C21.9305 40.2898 21.8519 40.4131 21.7495 40.5151C21.644 40.6252 21.5172 40.7128 21.3768 40.7724C21.2364 40.8321 21.0854 40.8626 20.9329 40.8621L20.9247 40.8548ZM15.847 39.5431C17.5034 39.9914 19.2087 40.2344 20.9244 40.2666C20.9963 40.2695 21.0681 40.2575 21.1351 40.2312C21.2021 40.205 21.263 40.1651 21.3138 40.1142C21.361 40.0611 21.3964 39.9987 21.4175 39.9309C21.4387 39.8631 21.4452 39.7916 21.4365 39.7211C21.4386 39.6489 21.4258 39.5771 21.3988 39.5101C21.3718 39.4431 21.3313 39.3824 21.2798 39.3318L16.9893 34.868C16.9399 34.8128 16.8801 34.768 16.8132 34.736C16.7464 34.7041 16.6739 34.6857 16.5999 34.6819C16.5721 34.6762 16.5435 34.6762 16.5157 34.6819C16.415 34.7185 16.3243 34.7782 16.2508 34.8562C16.1773 34.9342 16.1231 35.0283 16.0926 35.1311L15.7965 36.6246L15.5003 36.5485C11.4909 35.1778 8.16547 32.3122 6.21745 28.5493C4.26943 24.7864 3.84923 20.4168 5.04446 16.3516C6.58038 10.8722 11.1713 6.50978 16.9935 4.95365L17.4166 4.85202C17.4888 4.8303 17.5559 4.7944 17.614 4.74644C17.6721 4.69848 17.7201 4.63941 17.7552 4.57269C17.7797 4.51814 17.7924 4.45901 17.7924 4.39919C17.7924 4.33938 17.7797 4.28025 17.7552 4.2257L17.3321 2.60078C17.3018 2.48834 17.2344 2.38943 17.1409 2.32012C17.0473 2.25081 16.933 2.21517 16.8167 2.21898C16.761 2.21974 16.7056 2.2268 16.6516 2.24003L16.4613 2.30348C9.11994 4.24058 3.49647 10.0934 2.09587 17.1975C1.1513 21.9416 2.02433 26.8674 4.5418 30.9978C7.05927 35.1283 11.0373 38.1617 15.6867 39.4963C15.7475 39.4974 15.807 39.5134 15.8602 39.5429L15.847 39.5431Z" fill="white"/>
<path d="M16.842 1.78721C17.0469 1.79017 17.2459 1.85583 17.4123 1.97533C17.5788 2.09484 17.7046 2.26246 17.7729 2.45564L18.196 4.06764C18.2299 4.1885 18.2395 4.31489 18.2242 4.43949C18.2089 4.56408 18.169 4.68439 18.1068 4.79343C18.0446 4.90248 17.9614 4.99808 17.8619 5.0747C17.7625 5.15131 17.6488 5.2074 17.5275 5.23973L17.1045 5.34135C11.4344 6.85313 6.97542 11.0749 5.46393 16.4106C4.28348 20.3535 4.6634 24.5993 6.52512 28.27C8.38685 31.9408 11.588 34.7557 15.4666 36.1327L15.6696 35.0623C15.6999 34.8923 15.7758 34.7336 15.889 34.6032C16.0022 34.4728 16.1487 34.3755 16.3128 34.3217C16.4002 34.2938 16.4921 34.2823 16.5837 34.2877C16.7153 34.2874 16.8456 34.3144 16.9664 34.3668C17.0872 34.4192 17.1958 34.496 17.2855 34.5923L21.6142 39.0521C21.7008 39.1403 21.769 39.2448 21.8148 39.3595C21.8606 39.4743 21.8831 39.597 21.8809 39.7206C21.8935 39.8431 21.8792 39.9668 21.839 40.0832C21.7988 40.1995 21.7337 40.3057 21.6482 40.3944C21.5574 40.4903 21.4478 40.5665 21.3262 40.6182C21.2046 40.6699 21.0737 40.696 20.9416 40.6947C19.185 40.6757 17.4384 40.4282 15.7457 39.9584C15.72 39.9547 15.6963 39.9428 15.678 39.9244H15.5938C10.8418 38.562 6.7744 35.4654 4.19641 31.2474C1.61842 27.0294 0.717729 21.9973 1.67256 17.147C3.11555 9.8691 8.91561 3.89892 16.3976 1.88462L16.6005 1.82117C16.6787 1.79747 16.7603 1.78601 16.842 1.78721ZM15.6615 39.6574H15.6954C15.7324 39.6557 15.7686 39.6678 15.7971 39.6914C17.4701 40.1448 19.1923 40.3921 20.9253 40.4278C21.0188 40.4307 21.1118 40.4142 21.1985 40.3793C21.2852 40.3443 21.3637 40.2917 21.429 40.2248C21.4911 40.1575 21.5382 40.0778 21.5672 39.991C21.5962 39.9042 21.6065 39.8122 21.5974 39.7211C21.6001 39.6284 21.5834 39.536 21.5485 39.4501C21.5136 39.3641 21.4611 39.2863 21.3944 39.2217L17.1042 34.7585C16.9709 34.6241 16.7898 34.548 16.6005 34.5468C16.5666 34.5468 16.4652 34.5468 16.4321 34.5808C16.3111 34.6232 16.2021 34.6941 16.1144 34.7877C16.0267 34.8813 15.9629 34.9946 15.9285 35.1182L15.6618 36.4595L15.5264 36.4255C11.5491 35.0642 8.25261 32.2169 6.3273 28.4799C4.40199 24.7428 3.99713 20.4058 5.19751 16.3769C6.73764 10.9441 11.2651 6.64482 17.0447 5.10469L17.4677 5.00727C17.556 4.98558 17.6387 4.94591 17.7109 4.89074C17.7831 4.83558 17.8431 4.7661 17.8872 4.68668C17.9313 4.60725 17.9585 4.51958 17.9671 4.42914C17.9758 4.33871 17.9657 4.24747 17.9374 4.16113L17.5143 2.55334C17.4744 2.40794 17.3869 2.28012 17.2658 2.19034C17.1447 2.10056 16.9969 2.054 16.8462 2.05812C16.7778 2.0583 16.7096 2.06679 16.6432 2.08338L16.4402 2.15104C9.05289 4.10189 3.3539 10.0044 1.92663 17.1978C0.982108 21.9816 1.86756 26.9456 4.4078 31.1078C6.94804 35.27 10.958 38.3271 15.6443 39.6743M16.8251 1.48682C16.7151 1.48632 16.6055 1.50057 16.4992 1.52921L16.3131 1.58535C8.69663 3.63334 2.83762 9.71778 1.37778 17.0889C0.407422 22.0163 1.32208 27.1285 3.94077 31.4138C6.55946 35.6992 10.6914 38.8453 15.5189 40.2298H15.5865C15.6165 40.2429 15.6477 40.2529 15.6797 40.2596C17.3924 40.7311 19.1586 40.9801 20.9349 41.0002C21.1094 41.0025 21.2825 40.9687 21.4434 40.9011C21.6043 40.8335 21.7495 40.7334 21.87 40.6071C21.9879 40.4871 22.0782 40.3427 22.1345 40.184C22.1908 40.0254 22.2118 39.8564 22.1959 39.6889C22.1947 39.3628 22.0656 39.0503 21.8363 38.8186L17.4978 34.3683C17.3782 34.2417 17.2338 34.141 17.0737 34.0726C16.9135 34.0042 16.741 33.9694 16.5669 33.9705C16.4316 33.9628 16.2962 33.983 16.169 34.0297C15.9586 34.1053 15.7719 34.2351 15.6278 34.406C15.4836 34.5769 15.3872 34.7829 15.3482 35.003L15.2171 35.7049C11.514 34.2806 8.4843 31.5121 6.73281 27.952C4.98132 24.392 4.63688 20.3024 5.76825 16.4996C7.24493 11.2739 11.616 7.13162 17.1842 5.64624L17.6073 5.54882C17.9315 5.45888 18.2068 5.2439 18.3726 4.95111C18.5384 4.65832 18.5812 4.31168 18.4916 3.98735L18.0685 2.37956V2.3543C17.9784 2.09907 17.812 1.87774 17.5918 1.7203C17.3717 1.56286 17.1084 1.47694 16.8378 1.47418L16.8251 1.48682ZM16.7361 2.38799H16.8546C16.936 2.38471 17.0161 2.40874 17.0822 2.45626C17.1484 2.50377 17.1967 2.57204 17.2196 2.65019L17.6426 4.25798V4.29195C17.6574 4.32602 17.6651 4.36276 17.6651 4.3999C17.6651 4.43704 17.6574 4.47378 17.6426 4.50784C17.619 4.55631 17.5853 4.59914 17.5437 4.63343C17.5021 4.66772 17.4536 4.69267 17.4015 4.7066L16.9784 4.80402C11.0801 6.3697 6.45943 10.7745 4.88954 16.2918C3.67748 20.3963 4.09664 24.8102 6.0596 28.6131C8.02257 32.416 11.3778 35.3144 15.4256 36.7038H15.468L15.6034 36.7377L15.9248 36.818L15.9883 36.4921L16.255 35.1676C16.277 35.0937 16.3166 35.0262 16.3703 34.971C16.4241 34.9157 16.4905 34.8743 16.5638 34.8503H16.5977C16.6516 34.8524 16.7045 34.8659 16.7527 34.8901C16.8009 34.9144 16.8433 34.9487 16.8771 34.9907L21.1634 39.4505C21.2015 39.486 21.2315 39.5294 21.2512 39.5776C21.271 39.6258 21.28 39.6778 21.2776 39.7298C21.2776 39.9033 21.2482 39.9626 21.2016 40.0092C21.1657 40.0466 21.1221 40.0758 21.0739 40.0947C21.0257 40.1137 20.974 40.1221 20.9222 40.1192C19.2322 40.0862 17.5525 39.846 15.9209 39.4042C15.8552 39.3665 15.7807 39.3471 15.705 39.348C11.1028 38.0188 7.16673 35.0113 4.67501 30.92C2.18329 26.8288 1.31724 21.9515 2.24807 17.2525C3.63464 10.1905 9.23397 4.38965 16.5076 2.46856L16.7361 2.38799Z" fill="white"/>
<path d="M31.3254 15.9746C30.7023 15.3356 29.9554 14.8303 29.1303 14.4898C28.3053 14.1493 27.4195 13.9807 26.527 13.9943H14.7217C12.9306 14.0009 11.2151 14.7172 9.95092 15.9861C8.68675 17.255 7.97695 18.9731 7.97697 20.7643C7.97078 21.657 8.14358 22.542 8.48516 23.3669C8.82674 24.1918 9.33017 24.9398 9.96572 25.5669C10.5891 26.2055 11.3361 26.7104 12.1611 27.0509C12.986 27.3914 13.8717 27.5602 14.7641 27.5472C16.4061 27.5389 17.9899 26.9378 19.2239 25.8546H22.1436C23.4241 27.0016 25.0977 27.6106 26.816 27.5546C28.5342 27.4987 30.1646 26.7821 31.3678 25.5542C32.0067 24.9319 32.5119 24.1857 32.8524 23.3614C33.1929 22.537 33.3616 21.6519 33.3481 20.7601C33.3293 18.961 32.6026 17.2417 31.3254 15.9746ZM18.9488 21.6104C18.9514 21.6676 18.9405 21.7246 18.917 21.7767C18.8934 21.8289 18.858 21.8748 18.8135 21.9108C18.7313 21.9883 18.6255 22.036 18.5131 22.0461H15.9741V24.5848C15.9767 24.6951 15.9407 24.8028 15.8725 24.8894C15.7897 24.9654 15.684 25.0115 15.5721 25.0205H13.8798C13.8242 25.0206 13.7691 25.0097 13.7178 24.9884C13.6664 24.9672 13.6197 24.936 13.5804 24.8967C13.5411 24.8574 13.5099 24.8108 13.4887 24.7594C13.4674 24.7081 13.4564 24.653 13.4564 24.5975V22.0166H10.9177C10.8605 22.0196 10.8034 22.0089 10.7511 21.9854C10.6988 21.9619 10.653 21.9262 10.6173 21.8813C10.5398 21.7992 10.4921 21.6934 10.482 21.5809V19.8884C10.4794 19.8312 10.4903 19.7742 10.5138 19.722C10.5373 19.6698 10.5728 19.6239 10.6173 19.588C10.6989 19.5096 10.805 19.4618 10.9177 19.4527H13.4564V16.9822C13.4536 16.9247 13.4639 16.8674 13.4866 16.8146C13.5094 16.7618 13.5439 16.7149 13.5875 16.6776C13.6722 16.6021 13.7791 16.5561 13.8921 16.5464H15.585C15.6418 16.5434 15.6986 16.5536 15.7507 16.5764C15.8029 16.5991 15.849 16.6338 15.8854 16.6776C15.9637 16.7608 16.0115 16.8682 16.0207 16.9822V19.5209H18.5608C18.6726 19.5214 18.7796 19.5661 18.8585 19.6453C18.9374 19.7244 18.9818 19.8316 18.9819 19.9434V19.9774L18.9479 21.6233L18.9488 21.6104ZM26.0447 23.6205C25.7664 23.8951 25.4016 24.065 25.0123 24.1011C24.623 24.1373 24.2332 24.0375 23.909 23.8188C23.5849 23.6001 23.3465 23.2759 23.2344 22.9014C23.1222 22.5268 23.1432 22.125 23.2937 21.7641C23.4443 21.4032 23.7151 21.1056 24.0602 20.9219C24.4054 20.7381 24.8035 20.6795 25.1869 20.7559C25.5704 20.8324 25.9155 21.0393 26.1637 21.3414C26.4119 21.6436 26.5478 22.0223 26.5484 22.4133C26.5545 22.6387 26.5128 22.8628 26.426 23.0709C26.3392 23.279 26.2092 23.4663 26.0447 23.6205ZM29.4299 20.2693C29.1556 20.5356 28.7979 20.6991 28.4171 20.7322C28.0363 20.7653 27.6557 20.6659 27.3396 20.451C27.0236 20.236 26.7913 19.9186 26.6822 19.5522C26.573 19.1859 26.5936 18.7931 26.7405 18.4402C26.8873 18.0873 27.1515 17.7959 27.4883 17.6151C27.8251 17.4344 28.214 17.3754 28.5892 17.4482C28.9645 17.5209 29.3032 17.7209 29.5481 18.0144C29.793 18.3078 29.9291 18.6768 29.9335 19.0591C29.9471 19.2858 29.9088 19.5127 29.8214 19.7224C29.7341 19.9322 29.6001 20.1192 29.4296 20.2693H29.4299Z" fill="white"/>
</svg>
